<?xml version="1.0" encoding="utf-8" standalone="no"?>
<!DOCTYPE svg PUBLIC "-//W3C//DTD SVG 1.1//EN"
  "http://www.w3.org/Graphics/SVG/1.1/DTD/svg11.dtd">
<svg height="266.112pt" version="1.1" viewBox="0 0 357.12 266.112" width="357.12pt" xmlns="http://www.w3.org/2000/svg" xmlns:xlink="http://www.w3.org/1999/xlink">
 <metadata>
  <rdf:RDF xmlns:cc="http://creativecommons.org/ns#" xmlns:dc="http://purl.org/dc/elements/1.1/" xmlns:rdf="http://www.w3.org/1999/02/22-rdf-syntax-ns#">
   <cc:Work>
    <dc:type rdf:resource="http://purl.org/dc/dcmitype/StillImage"/>
    <dc:date>2022-07-08T00:27:24.406850</dc:date>
    <dc:format>image/svg+xml</dc:format>
    <dc:creator>
     <cc:Agent>
      <dc:title>Matplotlib v3.4.2, https://matplotlib.org/</dc:title>
     </cc:Agent>
    </dc:creator>
   </cc:Work>
  </rdf:RDF>
 </metadata>
 <defs>
  <style type="text/css">*{stroke-linecap:butt;stroke-linejoin:round;}</style>
 </defs>
 <g id="figure_1">
  <g id="patch_1">
   <path d="M 0 266.112 
L 357.12 266.112 
L 357.12 0 
L 0 0 
z
" style="fill:#ffffff;"/>
  </g>
  <g id="axes_1">
   <g id="PolyCollection_1">
    <path clip-path="url(#paa5a717676)" d="M 16.232727 102.077513 
L 16.232727 164.034487 
L 16.883338 164.034487 
L 17.533948 164.034487 
L 18.184558 164.034487 
L 18.835169 164.034487 
L 19.485779 164.034487 
L 20.136389 164.034487 
L 20.786999 164.034487 
L 21.43761 164.034487 
L 22.08822 164.034487 
L 22.73883 164.034487 
L 23.389441 164.034487 
L 24.040051 164.034487 
L 24.690661 164.034487 
L 25.341272 164.034487 
L 25.991882 164.034487 
L 26.642492 164.034487 
L 27.293103 164.034487 
L 27.943713 164.034487 
L 28.594323 164.034487 
L 29.244934 164.034487 
L 29.895544 164.034487 
L 30.546154 164.034487 
L 31.196764 164.034487 
L 31.847375 164.034487 
L 32.497985 164.034487 
L 33.148595 164.034487 
L 33.799206 164.034487 
L 34.449816 164.034487 
L 35.100426 164.034487 
L 35.751037 164.034487 
L 36.401647 164.034487 
L 37.052257 164.034487 
L 37.702868 164.034487 
L 38.353478 164.034487 
L 39.004088 164.034487 
L 39.654698 164.034487 
L 40.305309 164.034487 
L 40.955919 164.034487 
L 41.606529 164.034487 
L 42.25714 164.034487 
L 42.90775 164.034487 
L 43.55836 164.034487 
L 44.208971 164.034487 
L 44.859581 164.034487 
L 45.510191 164.034487 
L 46.160802 164.034487 
L 46.811412 164.034487 
L 47.462022 164.034487 
L 48.112633 164.034487 
L 48.763243 164.034487 
L 49.413853 164.034487 
L 50.064463 164.034487 
L 50.715074 164.034487 
L 51.365684 164.034487 
L 52.016294 164.034487 
L 52.666905 164.034487 
L 53.317515 164.034487 
L 53.968125 164.034487 
L 54.618736 164.034487 
L 55.269346 164.034487 
L 55.919956 164.034487 
L 56.570567 164.034487 
L 57.221177 164.034487 
L 57.871787 164.034487 
L 58.522398 164.034487 
L 59.173008 164.034487 
L 59.823618 164.034487 
L 60.474228 164.034487 
L 61.124839 164.034487 
L 61.775449 164.034487 
L 62.426059 164.034487 
L 63.07667 164.034487 
L 63.72728 164.034487 
L 64.37789 164.034487 
L 65.028501 164.034487 
L 65.679111 164.034487 
L 66.329721 164.034487 
L 66.980332 164.034487 
L 67.630942 164.034487 
L 68.281552 164.034487 
L 68.932163 164.034487 
L 69.582773 164.034487 
L 70.233383 164.034487 
L 70.883993 164.034487 
L 71.534604 164.034487 
L 72.185214 164.034487 
L 72.835824 164.034487 
L 73.486435 164.034487 
L 74.137045 164.034487 
L 74.787655 164.034487 
L 75.438266 164.034487 
L 76.088876 164.034487 
L 76.739486 164.034487 
L 77.390097 164.034487 
L 78.040707 164.034487 
L 78.691317 164.034487 
L 79.341927 164.034487 
L 79.992538 164.034487 
L 80.643148 164.034487 
L 81.293758 164.034487 
L 81.944369 164.034487 
L 82.594979 164.034487 
L 83.245589 164.034487 
L 83.8962 164.034487 
L 84.54681 164.034487 
L 85.19742 164.034487 
L 85.848031 164.034487 
L 86.498641 164.034487 
L 87.149251 164.034487 
L 87.799862 164.034487 
L 88.450472 164.034487 
L 89.101082 164.034487 
L 89.751692 164.034487 
L 90.402303 164.034487 
L 91.052913 164.034487 
L 91.703523 164.034487 
L 92.354134 164.034487 
L 93.004744 164.034487 
L 93.655354 164.034487 
L 94.305965 164.034487 
L 94.956575 164.034487 
L 95.607185 164.034487 
L 96.257796 164.034487 
L 96.908406 164.034487 
L 97.559016 164.034487 
L 98.209627 164.034487 
L 98.860237 164.034487 
L 99.510847 164.034487 
L 100.161457 164.034487 
L 100.812068 164.034487 
L 101.462678 164.034487 
L 102.113288 164.034487 
L 102.763899 164.034487 
L 103.414509 164.034487 
L 104.065119 164.034487 
L 104.71573 164.034487 
L 105.36634 164.034487 
L 106.01695 164.034487 
L 106.667561 164.034487 
L 107.318171 164.034487 
L 107.968781 164.034487 
L 108.619392 164.034487 
L 109.270002 164.034487 
L 109.920612 164.034487 
L 110.571222 164.034487 
L 111.221833 164.034487 
L 111.872443 164.034487 
L 112.523053 164.034487 
L 113.173664 164.034487 
L 113.824274 164.034487 
L 114.474884 164.034487 
L 115.125495 164.034487 
L 115.776105 164.034487 
L 116.426715 164.034487 
L 117.077326 164.034487 
L 117.727936 164.034487 
L 118.378546 164.034487 
L 119.029156 164.034487 
L 119.679767 164.034487 
L 120.330377 164.034487 
L 120.980987 164.034487 
L 121.631598 164.034487 
L 122.282208 164.034487 
L 122.932818 164.034487 
L 123.583429 164.034487 
L 124.234039 164.034487 
L 124.884649 164.034487 
L 125.53526 164.034487 
L 126.18587 164.034487 
L 126.83648 164.034487 
L 127.487091 164.034487 
L 128.137701 164.034487 
L 128.788311 164.034487 
L 129.438921 164.034487 
L 130.089532 164.034487 
L 130.740142 164.034487 
L 131.390752 164.034487 
L 132.041363 164.034487 
L 132.691973 164.034487 
L 133.342583 164.034487 
L 133.993194 164.034487 
L 134.643804 164.034487 
L 135.294414 164.034487 
L 135.945025 164.034487 
L 136.595635 164.034487 
L 137.246245 164.034487 
L 137.896856 164.034487 
L 138.547466 164.034487 
L 139.198076 164.034487 
L 139.848686 164.034487 
L 140.499297 164.034487 
L 141.149907 164.034487 
L 141.800517 164.034487 
L 142.451128 164.034487 
L 143.101738 164.034487 
L 143.752348 164.034487 
L 144.402959 164.034487 
L 145.053569 164.034487 
L 145.704179 164.034487 
L 146.35479 164.034487 
L 147.0054 164.034487 
L 147.65601 164.034487 
L 148.306621 164.034487 
L 148.957231 164.034487 
L 149.607841 164.034487 
L 150.258451 164.034487 
L 150.909062 164.034487 
L 151.559672 164.034487 
L 152.210282 164.034487 
L 152.860893 164.034487 
L 153.511503 164.034487 
L 154.162113 164.034487 
L 154.812724 164.034487 
L 155.463334 164.034487 
L 156.113944 164.034487 
L 156.764555 164.034487 
L 157.415165 164.034487 
L 158.065775 164.034487 
L 158.716385 164.034487 
L 159.366996 164.034487 
L 160.017606 164.034487 
L 160.668216 164.034487 
L 161.318827 164.034487 
L 161.969437 164.034487 
L 162.620047 164.034487 
L 163.270658 164.034487 
L 163.921268 164.034487 
L 164.571878 164.034487 
L 165.222489 164.034487 
L 165.873099 164.034487 
L 166.523709 164.034487 
L 167.17432 164.034487 
L 167.82493 164.034487 
L 168.47554 164.034487 
L 169.12615 164.034487 
L 169.776761 164.034487 
L 170.427371 164.034487 
L 171.077981 164.034487 
L 171.728592 164.034487 
L 172.379202 164.034487 
L 173.029812 164.034487 
L 173.680423 164.034487 
L 174.331033 164.034487 
L 174.981643 164.034487 
L 175.632254 164.034487 
L 176.282864 164.034487 
L 176.933474 164.034487 
L 177.584085 164.034487 
L 178.234695 164.034487 
L 178.885305 164.034487 
L 179.535915 164.034487 
L 180.186526 164.034487 
L 180.837136 164.034487 
L 181.487746 164.034487 
L 182.138357 164.034487 
L 182.788967 164.034487 
L 183.439577 164.034487 
L 184.090188 164.034487 
L 184.740798 164.034487 
L 185.391408 164.034487 
L 186.042019 164.034487 
L 186.692629 164.034487 
L 187.343239 164.034487 
L 187.99385 164.034487 
L 188.64446 164.034487 
L 189.29507 164.034487 
L 189.94568 164.034487 
L 190.596291 164.034487 
L 191.246901 164.034487 
L 191.897511 164.034487 
L 192.548122 164.034487 
L 193.198732 164.034487 
L 193.849342 164.034487 
L 194.499953 164.034487 
L 195.150563 164.034487 
L 195.801173 164.034487 
L 196.451784 164.034487 
L 197.102394 164.034487 
L 197.753004 164.034487 
L 198.403615 164.034487 
L 199.054225 164.034487 
L 199.704835 164.034487 
L 200.355445 164.034487 
L 201.006056 164.034487 
L 201.656666 164.034487 
L 202.307276 164.034487 
L 202.957887 164.034487 
L 203.608497 164.034487 
L 204.259107 164.034487 
L 204.909718 164.034487 
L 205.560328 164.034487 
L 206.210938 164.034487 
L 206.861549 164.034487 
L 207.512159 164.034487 
L 208.162769 164.034487 
L 208.813379 164.034487 
L 209.46399 164.034487 
L 210.1146 164.034487 
L 210.76521 164.034487 
L 211.415821 164.034487 
L 212.066431 164.034487 
L 212.717041 164.034487 
L 213.367652 164.034487 
L 214.018262 164.034487 
L 214.668872 164.034487 
L 215.319483 164.034487 
L 215.970093 164.034487 
L 216.620703 164.034487 
L 217.271314 164.034487 
L 217.921924 164.034487 
L 218.572534 164.034487 
L 219.223144 164.034487 
L 219.873755 164.034487 
L 220.524365 164.034487 
L 221.174975 164.034487 
L 221.825586 164.034487 
L 222.476196 164.034487 
L 223.126806 164.034487 
L 223.777417 164.034487 
L 224.428027 164.034487 
L 225.078637 164.034487 
L 225.729248 164.034487 
L 226.379858 164.034487 
L 227.030468 164.034487 
L 227.681079 164.034487 
L 228.331689 164.034487 
L 228.982299 164.034487 
L 229.632909 164.034487 
L 230.28352 164.034487 
L 230.93413 164.034487 
L 231.58474 164.034487 
L 232.235351 164.034487 
L 232.885961 164.034487 
L 233.536571 164.034487 
L 234.187182 164.034487 
L 234.837792 164.034487 
L 235.488402 164.034487 
L 236.139013 164.034487 
L 236.789623 164.034487 
L 237.440233 164.034487 
L 238.090844 164.034487 
L 238.741454 164.034487 
L 239.392064 164.034487 
L 240.042674 164.034487 
L 240.693285 164.034487 
L 241.343895 164.034487 
L 241.994505 164.034487 
L 242.645116 164.034487 
L 243.295726 164.034487 
L 243.946336 164.034487 
L 244.596947 164.034487 
L 245.247557 164.034487 
L 245.898167 164.034487 
L 246.548778 164.034487 
L 247.199388 164.034487 
L 247.849998 164.034487 
L 248.500608 164.034487 
L 249.151219 164.034487 
L 249.801829 164.034487 
L 250.452439 164.034487 
L 251.10305 164.034487 
L 251.75366 164.034487 
L 252.40427 164.034487 
L 253.054881 164.034487 
L 253.705491 164.034487 
L 254.356101 164.034487 
L 255.006712 164.034487 
L 255.657322 164.034487 
L 256.307932 164.034487 
L 256.958543 164.034487 
L 257.609153 164.034487 
L 258.259763 164.034487 
L 258.910373 164.034487 
L 259.560984 164.034487 
L 260.211594 164.034487 
L 260.862204 164.034487 
L 261.512815 164.034487 
L 262.163425 164.034487 
L 262.814035 164.034487 
L 263.464646 164.034487 
L 264.115256 164.034487 
L 264.765866 164.034487 
L 265.416477 164.034487 
L 266.067087 164.034487 
L 266.717697 164.034487 
L 267.368308 164.034487 
L 268.018918 164.034487 
L 268.669528 164.034487 
L 269.320138 164.034487 
L 269.970749 164.034487 
L 270.621359 164.034487 
L 271.271969 164.034487 
L 271.92258 164.034487 
L 272.57319 164.034487 
L 273.2238 164.034487 
L 273.874411 164.034487 
L 274.525021 164.034487 
L 275.175631 164.034487 
L 275.826242 164.034487 
L 276.476852 164.034487 
L 277.127462 164.034487 
L 277.778073 164.034487 
L 278.428683 164.034487 
L 279.079293 164.034487 
L 279.729903 164.034487 
L 280.380514 164.034487 
L 281.031124 164.034487 
L 281.681734 164.034487 
L 282.332345 164.034487 
L 282.982955 164.034487 
L 283.633565 164.034487 
L 284.284176 164.034487 
L 284.934786 164.034487 
L 285.585396 164.034487 
L 286.236007 164.034487 
L 286.886617 164.034487 
L 287.537227 164.034487 
L 288.187837 164.034487 
L 288.838448 164.034487 
L 289.489058 164.034487 
L 290.139668 164.034487 
L 290.790279 164.034487 
L 291.440889 164.034487 
L 292.091499 164.034487 
L 292.74211 164.034487 
L 293.39272 164.034487 
L 294.04333 164.034487 
L 294.693941 164.034487 
L 295.344551 164.034487 
L 295.995161 164.034487 
L 296.645772 164.034487 
L 297.296382 164.034487 
L 297.946992 164.034487 
L 298.597602 164.034487 
L 299.248213 164.034487 
L 299.898823 164.034487 
L 300.549433 164.034487 
L 301.200044 164.034487 
L 301.850654 164.034487 
L 302.501264 164.034487 
L 303.151875 164.034487 
L 303.802485 164.034487 
L 304.453095 164.034487 
L 305.103706 164.034487 
L 305.754316 164.034487 
L 306.404926 164.034487 
L 307.055537 164.034487 
L 307.706147 164.034487 
L 308.356757 164.034487 
L 309.007367 164.034487 
L 309.657978 164.034487 
L 310.308588 164.034487 
L 310.959198 164.034487 
L 311.609809 164.034487 
L 312.260419 164.034487 
L 312.911029 164.034487 
L 313.56164 164.034487 
L 314.21225 164.034487 
L 314.86286 164.034487 
L 315.513471 164.034487 
L 316.164081 164.034487 
L 316.814691 164.034487 
L 317.465302 164.034487 
L 318.115912 164.034487 
L 318.766522 164.034487 
L 319.417132 164.034487 
L 320.067743 164.034487 
L 320.718353 164.034487 
L 321.368963 164.034487 
L 322.019574 164.034487 
L 322.670184 164.034487 
L 323.320794 164.034487 
L 323.971405 164.034487 
L 324.622015 164.034487 
L 325.272625 164.034487 
L 325.923236 164.034487 
L 326.573846 164.034487 
L 327.224456 164.034487 
L 327.875066 164.034487 
L 328.525677 164.034487 
L 329.176287 164.034487 
L 329.826897 164.034487 
L 330.477508 164.034487 
L 331.128118 164.034487 
L 331.778728 164.034487 
L 332.429339 164.034487 
L 333.079949 164.034487 
L 333.730559 164.034487 
L 334.38117 164.034487 
L 335.03178 164.034487 
L 335.68239 164.034487 
L 336.333001 164.034487 
L 336.983611 164.034487 
L 337.634221 164.034487 
L 338.284831 164.034487 
L 338.935442 164.034487 
L 339.586052 164.034487 
L 340.236662 164.034487 
L 340.887273 164.034487 
L 340.887273 164.034487 
L 340.887273 164.034487 
L 340.236662 164.034487 
L 339.586052 164.034487 
L 338.935442 164.034487 
L 338.284831 164.034486 
L 337.634221 164.034486 
L 336.983611 164.034486 
L 336.333001 164.034486 
L 335.68239 164.034486 
L 335.03178 164.034486 
L 334.38117 164.034486 
L 333.730559 164.034486 
L 333.079949 164.034486 
L 332.429339 164.034486 
L 331.778728 164.034486 
L 331.128118 164.034486 
L 330.477508 164.034486 
L 329.826897 164.034485 
L 329.176287 164.034485 
L 328.525677 164.034485 
L 327.875066 164.034485 
L 327.224456 164.034485 
L 326.573846 164.034485 
L 325.923236 164.034485 
L 325.272625 164.034485 
L 324.622015 164.034485 
L 323.971405 164.034485 
L 323.320794 164.034485 
L 322.670184 164.034484 
L 322.019574 164.034484 
L 321.368963 164.034484 
L 320.718353 164.034484 
L 320.067743 164.034484 
L 319.417132 164.034484 
L 318.766522 164.034484 
L 318.115912 164.034484 
L 317.465302 164.034484 
L 316.814691 164.034483 
L 316.164081 164.034483 
L 315.513471 164.034483 
L 314.86286 164.034483 
L 314.21225 164.034483 
L 313.56164 164.034483 
L 312.911029 164.034483 
L 312.260419 164.034483 
L 311.609809 164.034482 
L 310.959198 164.034482 
L 310.308588 164.034482 
L 309.657978 164.034482 
L 309.007367 164.034482 
L 308.356757 164.034483 
L 307.706147 164.034483 
L 307.055537 164.034483 
L 306.404926 164.034483 
L 305.754316 164.034483 
L 305.103706 164.034483 
L 304.453095 164.034483 
L 303.802485 164.034483 
L 303.151875 164.034484 
L 302.501264 164.034484 
L 301.850654 164.034484 
L 301.200044 164.034484 
L 300.549433 164.034484 
L 299.898823 164.034484 
L 299.248213 164.034484 
L 298.597602 164.034485 
L 297.946992 164.034485 
L 297.296382 164.034485 
L 296.645772 164.034485 
L 295.995161 164.034485 
L 295.344551 164.034485 
L 294.693941 164.034485 
L 294.04333 164.034486 
L 293.39272 164.034486 
L 292.74211 164.034486 
L 292.091499 164.034486 
L 291.440889 164.034486 
L 290.790279 164.034486 
L 290.139668 164.034486 
L 289.489058 164.034486 
L 288.838448 164.034486 
L 288.187837 164.034486 
L 287.537227 164.034486 
L 286.886617 164.034486 
L 286.236007 164.034486 
L 285.585396 164.034486 
L 284.934786 164.034486 
L 284.284176 164.034486 
L 283.633565 164.034486 
L 282.982955 164.034486 
L 282.332345 164.034486 
L 281.681734 164.034486 
L 281.031124 164.034486 
L 280.380514 164.034486 
L 279.729903 164.034486 
L 279.079293 164.034486 
L 278.428683 164.034486 
L 277.778073 164.034486 
L 277.127462 164.034485 
L 276.476852 164.034485 
L 275.826242 164.034484 
L 275.175631 164.034484 
L 274.525021 164.034483 
L 273.874411 164.034483 
L 273.2238 164.034482 
L 272.57319 164.034482 
L 271.92258 164.034481 
L 271.271969 164.034481 
L 270.621359 164.03448 
L 269.970749 164.03448 
L 269.320138 164.034479 
L 268.669528 164.034479 
L 268.018918 164.034478 
L 267.368308 164.034478 
L 266.717697 164.034477 
L 266.067087 164.034477 
L 265.416477 164.034476 
L 264.765866 164.034476 
L 264.115256 164.034475 
L 263.464646 164.034475 
L 262.814035 164.034474 
L 262.163425 164.034474 
L 261.512815 164.034474 
L 260.862204 164.034475 
L 260.211594 164.034475 
L 259.560984 164.034476 
L 258.910373 164.034476 
L 258.259763 164.034476 
L 257.609153 164.034477 
L 256.958543 164.034477 
L 256.307932 164.034477 
L 255.657322 164.034478 
L 255.006712 164.034478 
L 254.356101 164.034479 
L 253.705491 164.034479 
L 253.054881 164.034479 
L 252.40427 164.03448 
L 251.75366 164.03448 
L 251.10305 164.034481 
L 250.452439 164.034481 
L 249.801829 164.034481 
L 249.151219 164.034482 
L 248.500608 164.034482 
L 247.849998 164.034482 
L 247.199388 164.034483 
L 246.548778 164.034483 
L 245.898167 164.034483 
L 245.247557 164.034483 
L 244.596947 164.034482 
L 243.946336 164.034482 
L 243.295726 164.034482 
L 242.645116 164.034482 
L 241.994505 164.034482 
L 241.343895 164.034482 
L 240.693285 164.034482 
L 240.042674 164.034482 
L 239.392064 164.034482 
L 238.741454 164.034482 
L 238.090844 164.034482 
L 237.440233 164.034482 
L 236.789623 164.034482 
L 236.139013 164.034482 
L 235.488402 164.034482 
L 234.837792 164.034482 
L 234.187182 164.034482 
L 233.536571 164.034482 
L 232.885961 164.034482 
L 232.235351 164.034482 
L 231.58474 164.034481 
L 230.93413 164.034481 
L 230.28352 164.034481 
L 229.632909 164.03448 
L 228.982299 164.03448 
L 228.331689 164.034479 
L 227.681079 164.034478 
L 227.030468 164.034478 
L 226.379858 164.034477 
L 225.729248 164.034477 
L 225.078637 164.034476 
L 224.428027 164.034476 
L 223.777417 164.034475 
L 223.126806 164.034475 
L 222.476196 164.034474 
L 221.825586 164.034474 
L 221.174975 164.034473 
L 220.524365 164.034472 
L 219.873755 164.034472 
L 219.223144 164.034471 
L 218.572534 164.034471 
L 217.921924 164.03447 
L 217.271314 164.03447 
L 216.620703 164.034469 
L 215.970093 164.032682 
L 215.319483 164.029652 
L 214.668872 164.026622 
L 214.018262 164.023592 
L 213.367652 164.020562 
L 212.717041 164.017532 
L 212.066431 164.014502 
L 211.415821 164.011472 
L 210.76521 164.008442 
L 210.1146 164.005412 
L 209.46399 164.002382 
L 208.813379 163.999352 
L 208.162769 163.996322 
L 207.512159 163.993292 
L 206.861549 163.990262 
L 206.210938 163.987232 
L 205.560328 163.984202 
L 204.909718 163.981172 
L 204.259107 163.978142 
L 203.608497 163.975112 
L 202.957887 163.972082 
L 202.307276 163.969052 
L 201.656666 163.966022 
L 201.006056 163.962992 
L 200.355445 161.928441 
L 199.704835 159.329031 
L 199.054225 156.729621 
L 198.403615 154.13021 
L 197.753004 151.5308 
L 197.102394 148.931389 
L 196.451784 146.331979 
L 195.801173 143.732568 
L 195.150563 141.133158 
L 194.499953 138.533748 
L 193.849342 135.934337 
L 193.198732 133.334927 
L 192.548122 130.735516 
L 191.897511 128.136106 
L 191.246901 125.536696 
L 190.596291 122.937285 
L 189.94568 120.337875 
L 189.29507 117.738464 
L 188.64446 115.139054 
L 187.99385 112.539644 
L 187.343239 109.940233 
L 186.692629 107.340823 
L 186.042019 104.741412 
L 185.391408 102.142002 
L 184.740798 102.077513 
L 184.090188 102.077513 
L 183.439577 102.077513 
L 182.788967 102.077513 
L 182.138357 102.077513 
L 181.487746 102.077513 
L 180.837136 102.077513 
L 180.186526 102.077513 
L 179.535915 102.077513 
L 178.885305 102.077513 
L 178.234695 102.077513 
L 177.584085 102.077513 
L 176.933474 102.077513 
L 176.282864 102.077513 
L 175.632254 102.077513 
L 174.981643 102.077513 
L 174.331033 102.077513 
L 173.680423 102.077513 
L 173.029812 102.077513 
L 172.379202 102.077513 
L 171.728592 102.077513 
L 171.077981 102.077513 
L 170.427371 102.077513 
L 169.776761 102.077513 
L 169.12615 102.077513 
L 168.47554 102.077513 
L 167.82493 102.077513 
L 167.17432 102.077513 
L 166.523709 102.077513 
L 165.873099 102.077513 
L 165.222489 102.077513 
L 164.571878 102.077513 
L 163.921268 102.077513 
L 163.270658 102.077513 
L 162.620047 102.077513 
L 161.969437 102.077513 
L 161.318827 102.077513 
L 160.668216 102.077513 
L 160.017606 102.077513 
L 159.366996 102.077513 
L 158.716385 102.077513 
L 158.065775 102.077513 
L 157.415165 102.077513 
L 156.764555 102.077513 
L 156.113944 102.077513 
L 155.463334 102.077513 
L 154.812724 102.077513 
L 154.162113 102.077513 
L 153.511503 102.077513 
L 152.860893 102.077514 
L 152.210282 102.077514 
L 151.559672 102.077514 
L 150.909062 102.077515 
L 150.258451 102.077515 
L 149.607841 102.077515 
L 148.957231 102.077515 
L 148.306621 102.077516 
L 147.65601 102.077516 
L 147.0054 102.077516 
L 146.35479 102.077517 
L 145.704179 102.077517 
L 145.053569 102.077517 
L 144.402959 102.077518 
L 143.752348 102.077518 
L 143.101738 102.077518 
L 142.451128 102.077519 
L 141.800517 102.077519 
L 141.149907 102.077519 
L 140.499297 102.077519 
L 139.848686 102.07752 
L 139.198076 102.07752 
L 138.547466 102.07752 
L 137.896856 102.077521 
L 137.246245 102.077521 
L 136.595635 102.077521 
L 135.945025 102.077522 
L 135.294414 102.077522 
L 134.643804 102.077522 
L 133.993194 102.077523 
L 133.342583 102.077523 
L 132.691973 102.077523 
L 132.041363 102.077523 
L 131.390752 102.077524 
L 130.740142 102.077524 
L 130.089532 102.077524 
L 129.438921 102.077525 
L 128.788311 102.077525 
L 128.137701 102.077525 
L 127.487091 102.077526 
L 126.83648 102.077526 
L 126.18587 102.077526 
L 125.53526 102.077527 
L 124.884649 102.077527 
L 124.234039 102.077527 
L 123.583429 102.077528 
L 122.932818 102.077527 
L 122.282208 102.077527 
L 121.631598 102.077527 
L 120.980987 102.077526 
L 120.330377 102.077526 
L 119.679767 102.077526 
L 119.029156 102.077526 
L 118.378546 102.077525 
L 117.727936 102.077525 
L 117.077326 102.077525 
L 116.426715 102.077524 
L 115.776105 102.077524 
L 115.125495 102.077524 
L 114.474884 102.077523 
L 113.824274 102.077523 
L 113.173664 102.077523 
L 112.523053 102.077522 
L 111.872443 102.077522 
L 111.221833 102.077522 
L 110.571222 102.077521 
L 109.920612 102.077521 
L 109.270002 102.077521 
L 108.619392 102.077521 
L 107.968781 102.07752 
L 107.318171 102.07752 
L 106.667561 102.07752 
L 106.01695 102.07752 
L 105.36634 102.07752 
L 104.71573 102.07752 
L 104.065119 102.07752 
L 103.414509 102.07752 
L 102.763899 102.07752 
L 102.113288 102.07752 
L 101.462678 102.07752 
L 100.812068 102.07752 
L 100.161457 102.07752 
L 99.510847 102.07752 
L 98.860237 102.07752 
L 98.209627 102.07752 
L 97.559016 102.07752 
L 96.908406 102.07752 
L 96.257796 102.07752 
L 95.607185 102.07752 
L 94.956575 102.07752 
L 94.305965 102.07752 
L 93.655354 102.07752 
L 93.004744 102.07752 
L 92.354134 102.07752 
L 91.703523 102.07752 
L 91.052913 102.07752 
L 90.402303 102.077519 
L 89.751692 102.077519 
L 89.101082 102.077519 
L 88.450472 102.077518 
L 87.799862 102.077518 
L 87.149251 102.077518 
L 86.498641 102.077517 
L 85.848031 102.077517 
L 85.19742 102.077517 
L 84.54681 102.077516 
L 83.8962 102.077516 
L 83.245589 102.077516 
L 82.594979 102.077516 
L 81.944369 102.077515 
L 81.293758 102.077515 
L 80.643148 102.077515 
L 79.992538 102.077514 
L 79.341927 102.077514 
L 78.691317 102.077514 
L 78.040707 102.077513 
L 77.390097 102.077513 
L 76.739486 102.077513 
L 76.088876 102.077513 
L 75.438266 102.077513 
L 74.787655 102.077513 
L 74.137045 102.077513 
L 73.486435 102.077513 
L 72.835824 102.077513 
L 72.185214 102.077513 
L 71.534604 102.077513 
L 70.883993 102.077513 
L 70.233383 102.077513 
L 69.582773 102.077513 
L 68.932163 102.077513 
L 68.281552 102.077513 
L 67.630942 102.077513 
L 66.980332 102.077513 
L 66.329721 102.077513 
L 65.679111 102.077513 
L 65.028501 102.077513 
L 64.37789 102.077513 
L 63.72728 102.077513 
L 63.07667 102.077513 
L 62.426059 102.077513 
L 61.775449 102.077513 
L 61.124839 102.077513 
L 60.474228 102.077513 
L 59.823618 102.077513 
L 59.173008 102.077513 
L 58.522398 102.077513 
L 57.871787 102.077513 
L 57.221177 102.077513 
L 56.570567 102.077513 
L 55.919956 102.077513 
L 55.269346 102.077513 
L 54.618736 102.077513 
L 53.968125 102.077513 
L 53.317515 102.077513 
L 52.666905 102.077513 
L 52.016294 102.077513 
L 51.365684 102.077513 
L 50.715074 102.077513 
L 50.064463 102.077513 
L 49.413853 102.077513 
L 48.763243 102.077513 
L 48.112633 102.077513 
L 47.462022 102.077513 
L 46.811412 102.077513 
L 46.160802 102.077513 
L 45.510191 102.077513 
L 44.859581 102.077513 
L 44.208971 102.077513 
L 43.55836 102.077513 
L 42.90775 102.077513 
L 42.25714 102.077513 
L 41.606529 102.077513 
L 40.955919 102.077513 
L 40.305309 102.077513 
L 39.654698 102.077513 
L 39.004088 102.077513 
L 38.353478 102.077513 
L 37.702868 102.077513 
L 37.052257 102.077513 
L 36.401647 102.077513 
L 35.751037 102.077513 
L 35.100426 102.077513 
L 34.449816 102.077513 
L 33.799206 102.077513 
L 33.148595 102.077513 
L 32.497985 102.077513 
L 31.847375 102.077513 
L 31.196764 102.077513 
L 30.546154 102.077513 
L 29.895544 102.077513 
L 29.244934 102.077513 
L 28.594323 102.077513 
L 27.943713 102.077513 
L 27.293103 102.077513 
L 26.642492 102.077513 
L 25.991882 102.077513 
L 25.341272 102.077513 
L 24.690661 102.077513 
L 24.040051 102.077513 
L 23.389441 102.077513 
L 22.73883 102.077513 
L 22.08822 102.077513 
L 21.43761 102.077513 
L 20.786999 102.077513 
L 20.136389 102.077513 
L 19.485779 102.077513 
L 18.835169 102.077513 
L 18.184558 102.077513 
L 17.533948 102.077513 
L 16.883338 102.077513 
L 16.232727 102.077513 
z
" style="fill:#61c46e;fill-opacity:0.3;"/>
   </g>
   <g id="PolyCollection_2">
    <path clip-path="url(#paa5a717676)" d="M 16.232727 164.034486 
L 16.232727 164.034487 
L 16.883338 164.034487 
L 17.533948 164.034487 
L 18.184558 164.034487 
L 18.835169 164.034487 
L 19.485779 164.034487 
L 20.136389 164.034487 
L 20.786999 164.034487 
L 21.43761 164.034487 
L 22.08822 164.034487 
L 22.73883 164.034487 
L 23.389441 164.034487 
L 24.040051 164.034487 
L 24.690661 164.034487 
L 25.341272 164.034487 
L 25.991882 164.034487 
L 26.642492 164.034487 
L 27.293103 164.034487 
L 27.943713 164.034487 
L 28.594323 164.034487 
L 29.244934 164.034487 
L 29.895544 164.034487 
L 30.546154 164.034487 
L 31.196764 164.034487 
L 31.847375 164.034487 
L 32.497985 164.034487 
L 33.148595 164.034487 
L 33.799206 164.034487 
L 34.449816 164.034487 
L 35.100426 164.034487 
L 35.751037 164.034487 
L 36.401647 164.034487 
L 37.052257 164.034487 
L 37.702868 164.034487 
L 38.353478 164.034487 
L 39.004088 164.034487 
L 39.654698 164.034487 
L 40.305309 164.034487 
L 40.955919 164.034487 
L 41.606529 164.034487 
L 42.25714 164.034487 
L 42.90775 164.034487 
L 43.55836 164.034487 
L 44.208971 164.034487 
L 44.859581 164.034487 
L 45.510191 164.034487 
L 46.160802 164.034487 
L 46.811412 164.034487 
L 47.462022 164.034487 
L 48.112633 164.034487 
L 48.763243 164.034487 
L 49.413853 164.034487 
L 50.064463 164.034487 
L 50.715074 164.034487 
L 51.365684 164.034487 
L 52.016294 164.034487 
L 52.666905 164.034487 
L 53.317515 164.034487 
L 53.968125 164.034487 
L 54.618736 164.034487 
L 55.269346 164.034487 
L 55.919956 164.034487 
L 56.570567 164.034487 
L 57.221177 164.034487 
L 57.871787 164.034487 
L 58.522398 164.034487 
L 59.173008 164.034487 
L 59.823618 164.034487 
L 60.474228 164.034487 
L 61.124839 164.034487 
L 61.775449 164.034487 
L 62.426059 164.034487 
L 63.07667 164.034487 
L 63.72728 164.034487 
L 64.37789 164.034487 
L 65.028501 164.034487 
L 65.679111 164.034487 
L 66.329721 164.034487 
L 66.980332 164.034487 
L 67.630942 164.034487 
L 68.281552 164.034487 
L 68.932163 164.034487 
L 69.582773 164.034487 
L 70.233383 164.034487 
L 70.883993 164.034487 
L 71.534604 164.034487 
L 72.185214 164.034487 
L 72.835824 164.034487 
L 73.486435 164.034487 
L 74.137045 164.034487 
L 74.787655 164.034487 
L 75.438266 164.034487 
L 76.088876 164.034487 
L 76.739486 164.034487 
L 77.390097 164.034487 
L 78.040707 164.034487 
L 78.691317 164.034487 
L 79.341927 164.034487 
L 79.992538 164.034487 
L 80.643148 164.034487 
L 81.293758 164.034487 
L 81.944369 164.034487 
L 82.594979 164.034487 
L 83.245589 164.034487 
L 83.8962 164.034487 
L 84.54681 164.034487 
L 85.19742 164.034487 
L 85.848031 164.034487 
L 86.498641 164.034487 
L 87.149251 164.034487 
L 87.799862 164.034487 
L 88.450472 164.034487 
L 89.101082 164.034487 
L 89.751692 164.034487 
L 90.402303 164.034487 
L 91.052913 164.034487 
L 91.703523 164.034487 
L 92.354134 164.034487 
L 93.004744 164.034487 
L 93.655354 164.034487 
L 94.305965 164.034487 
L 94.956575 164.034487 
L 95.607185 164.034487 
L 96.257796 164.034487 
L 96.908406 164.034487 
L 97.559016 164.034487 
L 98.209627 164.034487 
L 98.860237 164.034487 
L 99.510847 164.034487 
L 100.161457 164.034487 
L 100.812068 164.034487 
L 101.462678 164.034487 
L 102.113288 164.034487 
L 102.763899 164.034487 
L 103.414509 164.034487 
L 104.065119 164.034487 
L 104.71573 164.034487 
L 105.36634 164.034487 
L 106.01695 164.034487 
L 106.667561 164.034487 
L 107.318171 164.034487 
L 107.968781 164.034487 
L 108.619392 164.034487 
L 109.270002 164.034487 
L 109.920612 164.034487 
L 110.571222 164.034487 
L 111.221833 164.034487 
L 111.872443 164.034487 
L 112.523053 164.034487 
L 113.173664 164.034487 
L 113.824274 164.034487 
L 114.474884 164.034487 
L 115.125495 164.034487 
L 115.776105 164.034487 
L 116.426715 164.034487 
L 117.077326 164.034487 
L 117.727936 164.034487 
L 118.378546 164.034487 
L 119.029156 164.034487 
L 119.679767 164.034487 
L 120.330377 164.034487 
L 120.980987 164.034487 
L 121.631598 164.034487 
L 122.282208 164.034487 
L 122.932818 164.034487 
L 123.583429 164.034487 
L 124.234039 164.034487 
L 124.884649 164.034487 
L 125.53526 164.034487 
L 126.18587 164.034487 
L 126.83648 164.034487 
L 127.487091 164.034487 
L 128.137701 164.034487 
L 128.788311 164.034487 
L 129.438921 164.034487 
L 130.089532 164.034487 
L 130.740142 164.034487 
L 131.390752 164.034487 
L 132.041363 164.034487 
L 132.691973 164.034487 
L 133.342583 164.034487 
L 133.993194 164.034487 
L 134.643804 164.034487 
L 135.294414 164.034487 
L 135.945025 164.034487 
L 136.595635 164.034487 
L 137.246245 164.034487 
L 137.896856 164.034487 
L 138.547466 164.034487 
L 139.198076 164.034487 
L 139.848686 164.034487 
L 140.499297 164.034487 
L 141.149907 164.034487 
L 141.800517 164.034487 
L 142.451128 164.034487 
L 143.101738 164.034487 
L 143.752348 164.034487 
L 144.402959 164.034487 
L 145.053569 164.034487 
L 145.704179 164.034487 
L 146.35479 164.034487 
L 147.0054 164.034487 
L 147.65601 164.034487 
L 148.306621 164.034487 
L 148.957231 164.034487 
L 149.607841 164.034487 
L 150.258451 164.034487 
L 150.909062 164.034487 
L 151.559672 164.034487 
L 152.210282 164.034487 
L 152.860893 164.034487 
L 153.511503 164.034487 
L 154.162113 164.034487 
L 154.812724 164.034487 
L 155.463334 164.034487 
L 156.113944 164.034487 
L 156.764555 164.034487 
L 157.415165 164.034487 
L 158.065775 164.034487 
L 158.716385 164.034487 
L 159.366996 164.034487 
L 160.017606 164.034487 
L 160.668216 164.034487 
L 161.318827 164.034487 
L 161.969437 164.034487 
L 162.620047 164.034487 
L 163.270658 164.034487 
L 163.921268 164.034487 
L 164.571878 164.034487 
L 165.222489 164.034487 
L 165.873099 164.034487 
L 166.523709 164.034487 
L 167.17432 164.034487 
L 167.82493 164.034487 
L 168.47554 164.034487 
L 169.12615 164.034487 
L 169.776761 164.034487 
L 170.427371 164.034487 
L 171.077981 164.034487 
L 171.728592 164.034487 
L 172.379202 164.034487 
L 173.029812 164.034487 
L 173.680423 164.034487 
L 174.331033 164.034487 
L 174.981643 164.034487 
L 175.632254 164.034487 
L 176.282864 164.034487 
L 176.933474 164.034487 
L 177.584085 164.034487 
L 178.234695 164.034487 
L 178.885305 164.034487 
L 179.535915 164.034487 
L 180.186526 164.034487 
L 180.837136 164.034487 
L 181.487746 164.034487 
L 182.138357 164.034487 
L 182.788967 164.034487 
L 183.439577 164.034487 
L 184.090188 164.034487 
L 184.740798 164.034487 
L 185.391408 164.034487 
L 186.042019 164.034487 
L 186.692629 164.034487 
L 187.343239 164.034487 
L 187.99385 164.034487 
L 188.64446 164.034487 
L 189.29507 164.034487 
L 189.94568 164.034487 
L 190.596291 164.034487 
L 191.246901 164.034487 
L 191.897511 164.034487 
L 192.548122 164.034487 
L 193.198732 164.034487 
L 193.849342 164.034487 
L 194.499953 164.034487 
L 195.150563 164.034487 
L 195.801173 164.034487 
L 196.451784 164.034487 
L 197.102394 164.034487 
L 197.753004 164.034487 
L 198.403615 164.034487 
L 199.054225 164.034487 
L 199.704835 164.034487 
L 200.355445 164.034487 
L 201.006056 164.034487 
L 201.656666 164.034487 
L 202.307276 164.034487 
L 202.957887 164.034487 
L 203.608497 164.034487 
L 204.259107 164.034487 
L 204.909718 164.034487 
L 205.560328 164.034487 
L 206.210938 164.034487 
L 206.861549 164.034487 
L 207.512159 164.034487 
L 208.162769 164.034487 
L 208.813379 164.034487 
L 209.46399 164.034487 
L 210.1146 164.034487 
L 210.76521 164.034487 
L 211.415821 164.034487 
L 212.066431 164.034487 
L 212.717041 164.034487 
L 213.367652 164.034487 
L 214.018262 164.034487 
L 214.668872 164.034487 
L 215.319483 164.034487 
L 215.970093 164.034487 
L 216.620703 164.034487 
L 217.271314 164.034487 
L 217.921924 164.034487 
L 218.572534 164.034487 
L 219.223144 164.034487 
L 219.873755 164.034487 
L 220.524365 164.034487 
L 221.174975 164.034487 
L 221.825586 164.034487 
L 222.476196 164.034487 
L 223.126806 164.034487 
L 223.777417 164.034487 
L 224.428027 164.034487 
L 225.078637 164.034487 
L 225.729248 164.034487 
L 226.379858 164.034487 
L 227.030468 164.034487 
L 227.681079 164.034487 
L 228.331689 164.034487 
L 228.982299 164.034487 
L 229.632909 164.034487 
L 230.28352 164.034487 
L 230.93413 164.034487 
L 231.58474 164.034487 
L 232.235351 164.034487 
L 232.885961 164.034487 
L 233.536571 164.034487 
L 234.187182 164.034487 
L 234.837792 164.034487 
L 235.488402 164.034487 
L 236.139013 164.034487 
L 236.789623 164.034487 
L 237.440233 164.034487 
L 238.090844 164.034487 
L 238.741454 164.034487 
L 239.392064 164.034487 
L 240.042674 164.034487 
L 240.693285 164.034487 
L 241.343895 164.034487 
L 241.994505 164.034487 
L 242.645116 164.034487 
L 243.295726 164.034487 
L 243.946336 164.034487 
L 244.596947 164.034487 
L 245.247557 164.034487 
L 245.898167 164.034487 
L 246.548778 164.034487 
L 247.199388 164.034487 
L 247.849998 164.034487 
L 248.500608 164.034487 
L 249.151219 164.034487 
L 249.801829 164.034487 
L 250.452439 164.034487 
L 251.10305 164.034487 
L 251.75366 164.034487 
L 252.40427 164.034487 
L 253.054881 164.034487 
L 253.705491 164.034487 
L 254.356101 164.034487 
L 255.006712 164.034487 
L 255.657322 164.034487 
L 256.307932 164.034487 
L 256.958543 164.034487 
L 257.609153 164.034487 
L 258.259763 164.034487 
L 258.910373 164.034487 
L 259.560984 164.034487 
L 260.211594 164.034487 
L 260.862204 164.034487 
L 261.512815 164.034487 
L 262.163425 164.034487 
L 262.814035 164.034487 
L 263.464646 164.034487 
L 264.115256 164.034487 
L 264.765866 164.034487 
L 265.416477 164.034487 
L 266.067087 164.034487 
L 266.717697 164.034487 
L 267.368308 164.034487 
L 268.018918 164.034487 
L 268.669528 164.034487 
L 269.320138 164.034487 
L 269.970749 164.034487 
L 270.621359 164.034487 
L 271.271969 164.034487 
L 271.92258 164.034487 
L 272.57319 164.034487 
L 273.2238 164.034487 
L 273.874411 164.034487 
L 274.525021 164.034487 
L 275.175631 164.034487 
L 275.826242 164.034487 
L 276.476852 164.034487 
L 277.127462 164.034487 
L 277.778073 164.034487 
L 278.428683 164.034487 
L 279.079293 164.034487 
L 279.729903 164.034487 
L 280.380514 164.034487 
L 281.031124 164.034487 
L 281.681734 164.034487 
L 282.332345 164.034487 
L 282.982955 164.034487 
L 283.633565 164.034487 
L 284.284176 164.034487 
L 284.934786 164.034487 
L 285.585396 164.034487 
L 286.236007 164.034487 
L 286.886617 164.034487 
L 287.537227 164.034487 
L 288.187837 164.034487 
L 288.838448 164.034487 
L 289.489058 164.034487 
L 290.139668 164.034487 
L 290.790279 164.034487 
L 291.440889 164.034487 
L 292.091499 164.034487 
L 292.74211 164.034487 
L 293.39272 164.034487 
L 294.04333 164.034487 
L 294.693941 164.034487 
L 295.344551 164.034487 
L 295.995161 164.034487 
L 296.645772 164.034487 
L 297.296382 164.034487 
L 297.946992 164.034487 
L 298.597602 164.034487 
L 299.248213 164.034487 
L 299.898823 164.034487 
L 300.549433 164.034487 
L 301.200044 164.034487 
L 301.850654 164.034487 
L 302.501264 164.034487 
L 303.151875 164.034487 
L 303.802485 164.034487 
L 304.453095 164.034487 
L 305.103706 164.034487 
L 305.754316 164.034487 
L 306.404926 164.034487 
L 307.055537 164.034487 
L 307.706147 164.034487 
L 308.356757 164.034487 
L 309.007367 164.034487 
L 309.657978 164.034487 
L 310.308588 164.034487 
L 310.959198 164.034487 
L 311.609809 164.034487 
L 312.260419 164.034487 
L 312.911029 164.034487 
L 313.56164 164.034487 
L 314.21225 164.034487 
L 314.86286 164.034487 
L 315.513471 164.034487 
L 316.164081 164.034487 
L 316.814691 164.034487 
L 317.465302 164.034487 
L 318.115912 164.034487 
L 318.766522 164.034487 
L 319.417132 164.034487 
L 320.067743 164.034487 
L 320.718353 164.034487 
L 321.368963 164.034487 
L 322.019574 164.034487 
L 322.670184 164.034487 
L 323.320794 164.034487 
L 323.971405 164.034487 
L 324.622015 164.034487 
L 325.272625 164.034487 
L 325.923236 164.034487 
L 326.573846 164.034487 
L 327.224456 164.034487 
L 327.875066 164.034487 
L 328.525677 164.034487 
L 329.176287 164.034487 
L 329.826897 164.034487 
L 330.477508 164.034487 
L 331.128118 164.034487 
L 331.778728 164.034487 
L 332.429339 164.034487 
L 333.079949 164.034487 
L 333.730559 164.034487 
L 334.38117 164.034487 
L 335.03178 164.034487 
L 335.68239 164.034487 
L 336.333001 164.034487 
L 336.983611 164.034487 
L 337.634221 164.034487 
L 338.284831 164.034487 
L 338.935442 164.034487 
L 339.586052 164.034487 
L 340.236662 164.034487 
L 340.887273 164.034487 
L 340.887273 164.034484 
L 340.887273 164.034484 
L 340.236662 164.034484 
L 339.586052 164.034484 
L 338.935442 164.034484 
L 338.284831 164.034484 
L 337.634221 164.034484 
L 336.983611 164.034484 
L 336.333001 164.034484 
L 335.68239 164.034484 
L 335.03178 164.034484 
L 334.38117 164.034484 
L 333.730559 164.034484 
L 333.079949 164.034484 
L 332.429339 164.034484 
L 331.778728 164.034484 
L 331.128118 164.034484 
L 330.477508 164.034484 
L 329.826897 164.034484 
L 329.176287 164.034484 
L 328.525677 164.034484 
L 327.875066 164.034484 
L 327.224456 164.034484 
L 326.573846 164.034484 
L 325.923236 164.034484 
L 325.272625 164.034484 
L 324.622015 164.034484 
L 323.971405 164.034484 
L 323.320794 164.034484 
L 322.670184 164.034484 
L 322.019574 164.034484 
L 321.368963 164.034484 
L 320.718353 164.034484 
L 320.067743 164.034484 
L 319.417132 164.034484 
L 318.766522 164.034484 
L 318.115912 164.034484 
L 317.465302 164.034484 
L 316.814691 164.034485 
L 316.164081 164.034485 
L 315.513471 164.034485 
L 314.86286 164.034485 
L 314.21225 164.034485 
L 313.56164 164.034485 
L 312.911029 164.034485 
L 312.260419 164.034485 
L 311.609809 164.034485 
L 310.959198 164.034485 
L 310.308588 164.034485 
L 309.657978 164.034485 
L 309.007367 164.034485 
L 308.356757 164.034485 
L 307.706147 164.034485 
L 307.055537 164.034485 
L 306.404926 164.034485 
L 305.754316 164.034485 
L 305.103706 164.034485 
L 304.453095 164.034485 
L 303.802485 164.034485 
L 303.151875 164.034485 
L 302.501264 164.034485 
L 301.850654 164.034485 
L 301.200044 164.034485 
L 300.549433 164.034485 
L 299.898823 164.034485 
L 299.248213 164.034485 
L 298.597602 164.034485 
L 297.946992 164.034485 
L 297.296382 164.034485 
L 296.645772 164.034485 
L 295.995161 164.034485 
L 295.344551 164.034485 
L 294.693941 164.034485 
L 294.04333 164.034485 
L 293.39272 164.034485 
L 292.74211 164.034485 
L 292.091499 164.034485 
L 291.440889 164.034485 
L 290.790279 164.034485 
L 290.139668 164.034485 
L 289.489058 164.034485 
L 288.838448 164.034485 
L 288.187837 164.034485 
L 287.537227 164.034485 
L 286.886617 164.034484 
L 286.236007 164.034484 
L 285.585396 164.034484 
L 284.934786 164.034484 
L 284.284176 164.034484 
L 283.633565 164.034484 
L 282.982955 164.034484 
L 282.332345 164.034484 
L 281.681734 164.034484 
L 281.031124 164.034484 
L 280.380514 164.034484 
L 279.729903 164.034483 
L 279.079293 164.034483 
L 278.428683 164.034483 
L 277.778073 164.034467 
L 277.127462 164.034448 
L 276.476852 164.034428 
L 275.826242 164.034408 
L 275.175631 164.034388 
L 274.525021 164.034369 
L 273.874411 164.034349 
L 273.2238 164.034329 
L 272.57319 164.03431 
L 271.92258 164.03429 
L 271.271969 164.03427 
L 270.621359 164.034251 
L 269.970749 164.034231 
L 269.320138 164.034211 
L 268.669528 164.034192 
L 268.018918 164.034172 
L 267.368308 164.034152 
L 266.717697 164.034132 
L 266.067087 164.034113 
L 265.416477 164.034093 
L 264.765866 164.034073 
L 264.115256 164.034054 
L 263.464646 164.034034 
L 262.814035 164.034014 
L 262.163425 163.873621 
L 261.512815 161.162767 
L 260.862204 158.451913 
L 260.211594 155.74106 
L 259.560984 153.030206 
L 258.910373 150.319352 
L 258.259763 147.608498 
L 257.609153 144.897644 
L 256.958543 142.18679 
L 256.307932 139.475937 
L 255.657322 136.765083 
L 255.006712 134.054229 
L 254.356101 131.343375 
L 253.705491 128.632521 
L 253.054881 125.921667 
L 252.40427 123.210813 
L 251.75366 120.49996 
L 251.10305 117.789106 
L 250.452439 115.078252 
L 249.801829 112.367398 
L 249.151219 109.656544 
L 248.500608 106.94569 
L 247.849998 104.234837 
L 247.199388 102.077535 
L 246.548778 102.077535 
L 245.898167 102.077534 
L 245.247557 102.077534 
L 244.596947 102.077534 
L 243.946336 102.077533 
L 243.295726 102.077533 
L 242.645116 102.077533 
L 241.994505 102.077533 
L 241.343895 102.077532 
L 240.693285 102.077532 
L 240.042674 102.077532 
L 239.392064 102.077531 
L 238.741454 102.077531 
L 238.090844 102.077531 
L 237.440233 102.07753 
L 236.789623 102.07753 
L 236.139013 102.07753 
L 235.488402 102.07753 
L 234.837792 102.077529 
L 234.187182 102.077529 
L 233.536571 102.077529 
L 232.885961 102.077528 
L 232.235351 102.077528 
L 231.58474 102.077528 
L 230.93413 102.077528 
L 230.28352 102.077528 
L 229.632909 102.077528 
L 228.982299 102.077529 
L 228.331689 102.077529 
L 227.681079 102.077529 
L 227.030468 102.07753 
L 226.379858 102.07753 
L 225.729248 102.07753 
L 225.078637 102.077531 
L 224.428027 102.077531 
L 223.777417 102.077531 
L 223.126806 102.077532 
L 222.476196 102.077532 
L 221.825586 102.077532 
L 221.174975 102.077533 
L 220.524365 102.077533 
L 219.873755 102.077533 
L 219.223144 102.077534 
L 218.572534 102.077534 
L 217.921924 102.077534 
L 217.271314 102.077535 
L 216.620703 102.077535 
L 215.970093 102.079328 
L 215.319483 102.082367 
L 214.668872 102.085407 
L 214.018262 102.088447 
L 213.367652 102.091487 
L 212.717041 102.094527 
L 212.066431 102.097567 
L 211.415821 102.100606 
L 210.76521 102.103646 
L 210.1146 102.106686 
L 209.46399 102.109726 
L 208.813379 102.112766 
L 208.162769 102.115806 
L 207.512159 102.118845 
L 206.861549 102.121885 
L 206.210938 102.124925 
L 205.560328 102.127965 
L 204.909718 102.131005 
L 204.259107 102.134045 
L 203.608497 102.137085 
L 202.957887 102.140124 
L 202.307276 102.143164 
L 201.656666 102.146204 
L 201.006056 102.149244 
L 200.355445 104.183787 
L 199.704835 106.783187 
L 199.054225 109.382588 
L 198.403615 111.981988 
L 197.753004 114.581389 
L 197.102394 117.180789 
L 196.451784 119.78019 
L 195.801173 122.37959 
L 195.150563 124.978991 
L 194.499953 127.578391 
L 193.849342 130.177792 
L 193.198732 132.777192 
L 192.548122 135.376592 
L 191.897511 137.975993 
L 191.246901 140.575393 
L 190.596291 143.174794 
L 189.94568 145.774194 
L 189.29507 148.373595 
L 188.64446 150.972995 
L 187.99385 153.572396 
L 187.343239 156.171796 
L 186.692629 158.771197 
L 186.042019 161.370597 
L 185.391408 163.969998 
L 184.740798 164.034487 
L 184.090188 164.034487 
L 183.439577 164.034487 
L 182.788967 164.034487 
L 182.138357 164.034487 
L 181.487746 164.034487 
L 180.837136 164.034487 
L 180.186526 164.034487 
L 179.535915 164.034487 
L 178.885305 164.034487 
L 178.234695 164.034487 
L 177.584085 164.034487 
L 176.933474 164.034487 
L 176.282864 164.034487 
L 175.632254 164.034487 
L 174.981643 164.034487 
L 174.331033 164.034487 
L 173.680423 164.034487 
L 173.029812 164.034487 
L 172.379202 164.034487 
L 171.728592 164.034487 
L 171.077981 164.034487 
L 170.427371 164.034487 
L 169.776761 164.034487 
L 169.12615 164.034487 
L 168.47554 164.034487 
L 167.82493 164.034487 
L 167.17432 164.034487 
L 166.523709 164.034487 
L 165.873099 164.034487 
L 165.222489 164.034487 
L 164.571878 164.034487 
L 163.921268 164.034487 
L 163.270658 164.034487 
L 162.620047 164.034487 
L 161.969437 164.034487 
L 161.318827 164.034487 
L 160.668216 164.034487 
L 160.017606 164.034487 
L 159.366996 164.034487 
L 158.716385 164.034487 
L 158.065775 164.034487 
L 157.415165 164.034487 
L 156.764555 164.034487 
L 156.113944 164.034487 
L 155.463334 164.034487 
L 154.812724 164.034487 
L 154.162113 164.034487 
L 153.511503 164.034487 
L 152.860893 164.034487 
L 152.210282 164.034487 
L 151.559672 164.034487 
L 150.909062 164.034487 
L 150.258451 164.034487 
L 149.607841 164.034487 
L 148.957231 164.034487 
L 148.306621 164.034487 
L 147.65601 164.034487 
L 147.0054 164.034487 
L 146.35479 164.034487 
L 145.704179 164.034487 
L 145.053569 164.034487 
L 144.402959 164.034487 
L 143.752348 164.034487 
L 143.101738 164.034487 
L 142.451128 164.034487 
L 141.800517 164.034487 
L 141.149907 164.034487 
L 140.499297 164.034487 
L 139.848686 164.034487 
L 139.198076 164.034487 
L 138.547466 164.034487 
L 137.896856 164.034487 
L 137.246245 164.034487 
L 136.595635 164.034487 
L 135.945025 164.034487 
L 135.294414 164.034487 
L 134.643804 164.034487 
L 133.993194 164.034487 
L 133.342583 164.034487 
L 132.691973 164.034487 
L 132.041363 164.034487 
L 131.390752 164.034487 
L 130.740142 164.034487 
L 130.089532 164.034487 
L 129.438921 164.034487 
L 128.788311 164.034487 
L 128.137701 164.034487 
L 127.487091 164.034487 
L 126.83648 164.034487 
L 126.18587 164.034487 
L 125.53526 164.034487 
L 124.884649 164.034487 
L 124.234039 164.034487 
L 123.583429 164.034487 
L 122.932818 164.034487 
L 122.282208 164.034487 
L 121.631598 164.034487 
L 120.980987 164.034487 
L 120.330377 164.034487 
L 119.679767 164.034487 
L 119.029156 164.034487 
L 118.378546 164.034487 
L 117.727936 164.034487 
L 117.077326 164.034487 
L 116.426715 164.034487 
L 115.776105 164.034487 
L 115.125495 164.034487 
L 114.474884 164.034487 
L 113.824274 164.034487 
L 113.173664 164.034487 
L 112.523053 164.034487 
L 111.872443 164.034487 
L 111.221833 164.034487 
L 110.571222 164.034487 
L 109.920612 164.034487 
L 109.270002 164.034487 
L 108.619392 164.034487 
L 107.968781 164.034487 
L 107.318171 164.034487 
L 106.667561 164.034487 
L 106.01695 164.034487 
L 105.36634 164.034487 
L 104.71573 164.034487 
L 104.065119 164.034487 
L 103.414509 164.034487 
L 102.763899 164.034487 
L 102.113288 164.034487 
L 101.462678 164.034487 
L 100.812068 164.034487 
L 100.161457 164.034487 
L 99.510847 164.034487 
L 98.860237 164.034487 
L 98.209627 164.034487 
L 97.559016 164.034487 
L 96.908406 164.034487 
L 96.257796 164.034487 
L 95.607185 164.034487 
L 94.956575 164.034487 
L 94.305965 164.034487 
L 93.655354 164.034487 
L 93.004744 164.034487 
L 92.354134 164.034487 
L 91.703523 164.034487 
L 91.052913 164.034487 
L 90.402303 164.034487 
L 89.751692 164.034487 
L 89.101082 164.034487 
L 88.450472 164.034487 
L 87.799862 164.034487 
L 87.149251 164.034487 
L 86.498641 164.034487 
L 85.848031 164.034487 
L 85.19742 164.034487 
L 84.54681 164.034487 
L 83.8962 164.034487 
L 83.245589 164.034487 
L 82.594979 164.034487 
L 81.944369 164.034487 
L 81.293758 164.034487 
L 80.643148 164.034487 
L 79.992538 164.034487 
L 79.341927 164.034487 
L 78.691317 164.034487 
L 78.040707 164.034487 
L 77.390097 164.034487 
L 76.739486 164.034487 
L 76.088876 164.034487 
L 75.438266 164.034487 
L 74.787655 164.034487 
L 74.137045 164.034487 
L 73.486435 164.034487 
L 72.835824 164.034487 
L 72.185214 164.034487 
L 71.534604 164.034487 
L 70.883993 164.034487 
L 70.233383 164.034487 
L 69.582773 164.034487 
L 68.932163 164.034487 
L 68.281552 164.034487 
L 67.630942 164.034487 
L 66.980332 164.034487 
L 66.329721 164.034487 
L 65.679111 164.034487 
L 65.028501 164.034487 
L 64.37789 164.034487 
L 63.72728 164.034487 
L 63.07667 164.034487 
L 62.426059 164.034487 
L 61.775449 164.034487 
L 61.124839 164.034487 
L 60.474228 164.034486 
L 59.823618 164.034486 
L 59.173008 164.034486 
L 58.522398 164.034486 
L 57.871787 164.034486 
L 57.221177 164.034486 
L 56.570567 164.034486 
L 55.919956 164.034486 
L 55.269346 164.034486 
L 54.618736 164.034486 
L 53.968125 164.034486 
L 53.317515 164.034486 
L 52.666905 164.034486 
L 52.016294 164.034486 
L 51.365684 164.034486 
L 50.715074 164.034486 
L 50.064463 164.034486 
L 49.413853 164.034486 
L 48.763243 164.034486 
L 48.112633 164.034486 
L 47.462022 164.034486 
L 46.811412 164.034486 
L 46.160802 164.034486 
L 45.510191 164.034486 
L 44.859581 164.034486 
L 44.208971 164.034486 
L 43.55836 164.034486 
L 42.90775 164.034486 
L 42.25714 164.034486 
L 41.606529 164.034486 
L 40.955919 164.034486 
L 40.305309 164.034486 
L 39.654698 164.034486 
L 39.004088 164.034486 
L 38.353478 164.034486 
L 37.702868 164.034486 
L 37.052257 164.034486 
L 36.401647 164.034486 
L 35.751037 164.034486 
L 35.100426 164.034486 
L 34.449816 164.034486 
L 33.799206 164.034486 
L 33.148595 164.034486 
L 32.497985 164.034486 
L 31.847375 164.034486 
L 31.196764 164.034486 
L 30.546154 164.034486 
L 29.895544 164.034486 
L 29.244934 164.034486 
L 28.594323 164.034486 
L 27.943713 164.034486 
L 27.293103 164.034486 
L 26.642492 164.034486 
L 25.991882 164.034486 
L 25.341272 164.034486 
L 24.690661 164.034486 
L 24.040051 164.034486 
L 23.389441 164.034486 
L 22.73883 164.034486 
L 22.08822 164.034486 
L 21.43761 164.034486 
L 20.786999 164.034486 
L 20.136389 164.034486 
L 19.485779 164.034486 
L 18.835169 164.034486 
L 18.184558 164.034486 
L 17.533948 164.034486 
L 16.883338 164.034486 
L 16.232727 164.034486 
z
" style="fill:#f6ed22;fill-opacity:0.3;"/>
   </g>
   <g id="PolyCollection_3">
    <path clip-path="url(#paa5a717676)" d="M 16.232727 164.034486 
L 16.232727 164.034487 
L 16.883338 164.034487 
L 17.533948 164.034487 
L 18.184558 164.034487 
L 18.835169 164.034487 
L 19.485779 164.034487 
L 20.136389 164.034487 
L 20.786999 164.034487 
L 21.43761 164.034487 
L 22.08822 164.034487 
L 22.73883 164.034487 
L 23.389441 164.034487 
L 24.040051 164.034487 
L 24.690661 164.034487 
L 25.341272 164.034487 
L 25.991882 164.034487 
L 26.642492 164.034487 
L 27.293103 164.034487 
L 27.943713 164.034487 
L 28.594323 164.034487 
L 29.244934 164.034487 
L 29.895544 164.034487 
L 30.546154 164.034487 
L 31.196764 164.034487 
L 31.847375 164.034487 
L 32.497985 164.034487 
L 33.148595 164.034487 
L 33.799206 164.034487 
L 34.449816 164.034487 
L 35.100426 164.034487 
L 35.751037 164.034487 
L 36.401647 164.034487 
L 37.052257 164.034487 
L 37.702868 164.034487 
L 38.353478 164.034487 
L 39.004088 164.034487 
L 39.654698 164.034487 
L 40.305309 164.034487 
L 40.955919 164.034487 
L 41.606529 164.034487 
L 42.25714 164.034487 
L 42.90775 164.034487 
L 43.55836 164.034487 
L 44.208971 164.034487 
L 44.859581 164.034487 
L 45.510191 164.034487 
L 46.160802 164.034487 
L 46.811412 164.034487 
L 47.462022 164.034487 
L 48.112633 164.034487 
L 48.763243 164.034487 
L 49.413853 164.034487 
L 50.064463 164.034487 
L 50.715074 164.034487 
L 51.365684 164.034487 
L 52.016294 164.034487 
L 52.666905 164.034487 
L 53.317515 164.034487 
L 53.968125 164.034487 
L 54.618736 164.034487 
L 55.269346 164.034487 
L 55.919956 164.034487 
L 56.570567 164.034487 
L 57.221177 164.034487 
L 57.871787 164.034487 
L 58.522398 164.034487 
L 59.173008 164.034487 
L 59.823618 164.034487 
L 60.474228 164.034487 
L 61.124839 164.034487 
L 61.775449 164.034487 
L 62.426059 164.034487 
L 63.07667 164.034487 
L 63.72728 164.034487 
L 64.37789 164.034487 
L 65.028501 164.034487 
L 65.679111 164.034487 
L 66.329721 164.034487 
L 66.980332 164.034487 
L 67.630942 164.034487 
L 68.281552 164.034487 
L 68.932163 164.034487 
L 69.582773 164.034487 
L 70.233383 164.034487 
L 70.883993 164.034487 
L 71.534604 164.034487 
L 72.185214 164.034487 
L 72.835824 164.034487 
L 73.486435 164.034487 
L 74.137045 164.034487 
L 74.787655 164.034487 
L 75.438266 164.034487 
L 76.088876 164.034487 
L 76.739486 164.034487 
L 77.390097 164.034487 
L 78.040707 164.034487 
L 78.691317 164.034487 
L 79.341927 164.034487 
L 79.992538 164.034487 
L 80.643148 164.034487 
L 81.293758 164.034487 
L 81.944369 164.034487 
L 82.594979 164.034487 
L 83.245589 164.034487 
L 83.8962 164.034487 
L 84.54681 164.034487 
L 85.19742 164.034487 
L 85.848031 164.034487 
L 86.498641 164.034487 
L 87.149251 164.034487 
L 87.799862 164.034487 
L 88.450472 164.034487 
L 89.101082 164.034487 
L 89.751692 164.034487 
L 90.402303 164.034487 
L 91.052913 164.034487 
L 91.703523 164.034487 
L 92.354134 164.034487 
L 93.004744 164.034487 
L 93.655354 164.034487 
L 94.305965 164.034487 
L 94.956575 164.034487 
L 95.607185 164.034487 
L 96.257796 164.034487 
L 96.908406 164.034487 
L 97.559016 164.034487 
L 98.209627 164.034487 
L 98.860237 164.034487 
L 99.510847 164.034487 
L 100.161457 164.034487 
L 100.812068 164.034487 
L 101.462678 164.034487 
L 102.113288 164.034487 
L 102.763899 164.034487 
L 103.414509 164.034487 
L 104.065119 164.034487 
L 104.71573 164.034487 
L 105.36634 164.034487 
L 106.01695 164.034487 
L 106.667561 164.034487 
L 107.318171 164.034487 
L 107.968781 164.034487 
L 108.619392 164.034487 
L 109.270002 164.034487 
L 109.920612 164.034487 
L 110.571222 164.034487 
L 111.221833 164.034487 
L 111.872443 164.034487 
L 112.523053 164.034487 
L 113.173664 164.034487 
L 113.824274 164.034487 
L 114.474884 164.034487 
L 115.125495 164.034487 
L 115.776105 164.034487 
L 116.426715 164.034487 
L 117.077326 164.034487 
L 117.727936 164.034487 
L 118.378546 164.034487 
L 119.029156 164.034487 
L 119.679767 164.034487 
L 120.330377 164.034487 
L 120.980987 164.034487 
L 121.631598 164.034487 
L 122.282208 164.034487 
L 122.932818 164.034487 
L 123.583429 164.034487 
L 124.234039 164.034487 
L 124.884649 164.034487 
L 125.53526 164.034487 
L 126.18587 164.034487 
L 126.83648 164.034487 
L 127.487091 164.034487 
L 128.137701 164.034487 
L 128.788311 164.034487 
L 129.438921 164.034487 
L 130.089532 164.034487 
L 130.740142 164.034487 
L 131.390752 164.034487 
L 132.041363 164.034487 
L 132.691973 164.034487 
L 133.342583 164.034487 
L 133.993194 164.034487 
L 134.643804 164.034487 
L 135.294414 164.034487 
L 135.945025 164.034487 
L 136.595635 164.034487 
L 137.246245 164.034487 
L 137.896856 164.034487 
L 138.547466 164.034487 
L 139.198076 164.034487 
L 139.848686 164.034487 
L 140.499297 164.034487 
L 141.149907 164.034487 
L 141.800517 164.034487 
L 142.451128 164.034487 
L 143.101738 164.034487 
L 143.752348 164.034487 
L 144.402959 164.034487 
L 145.053569 164.034487 
L 145.704179 164.034487 
L 146.35479 164.034487 
L 147.0054 164.034487 
L 147.65601 164.034487 
L 148.306621 164.034487 
L 148.957231 164.034487 
L 149.607841 164.034487 
L 150.258451 164.034487 
L 150.909062 164.034487 
L 151.559672 164.034487 
L 152.210282 164.034487 
L 152.860893 164.034487 
L 153.511503 164.034487 
L 154.162113 164.034487 
L 154.812724 164.034487 
L 155.463334 164.034487 
L 156.113944 164.034487 
L 156.764555 164.034487 
L 157.415165 164.034487 
L 158.065775 164.034487 
L 158.716385 164.034487 
L 159.366996 164.034487 
L 160.017606 164.034487 
L 160.668216 164.034487 
L 161.318827 164.034487 
L 161.969437 164.034487 
L 162.620047 164.034487 
L 163.270658 164.034487 
L 163.921268 164.034487 
L 164.571878 164.034487 
L 165.222489 164.034487 
L 165.873099 164.034487 
L 166.523709 164.034487 
L 167.17432 164.034487 
L 167.82493 164.034487 
L 168.47554 164.034487 
L 169.12615 164.034487 
L 169.776761 164.034487 
L 170.427371 164.034487 
L 171.077981 164.034487 
L 171.728592 164.034487 
L 172.379202 164.034487 
L 173.029812 164.034487 
L 173.680423 164.034487 
L 174.331033 164.034487 
L 174.981643 164.034487 
L 175.632254 164.034487 
L 176.282864 164.034487 
L 176.933474 164.034487 
L 177.584085 164.034487 
L 178.234695 164.034487 
L 178.885305 164.034487 
L 179.535915 164.034487 
L 180.186526 164.034487 
L 180.837136 164.034487 
L 181.487746 164.034487 
L 182.138357 164.034487 
L 182.788967 164.034487 
L 183.439577 164.034487 
L 184.090188 164.034487 
L 184.740798 164.034487 
L 185.391408 164.034487 
L 186.042019 164.034487 
L 186.692629 164.034487 
L 187.343239 164.034487 
L 187.99385 164.034487 
L 188.64446 164.034487 
L 189.29507 164.034487 
L 189.94568 164.034487 
L 190.596291 164.034487 
L 191.246901 164.034487 
L 191.897511 164.034487 
L 192.548122 164.034487 
L 193.198732 164.034487 
L 193.849342 164.034487 
L 194.499953 164.034487 
L 195.150563 164.034487 
L 195.801173 164.034487 
L 196.451784 164.034487 
L 197.102394 164.034487 
L 197.753004 164.034487 
L 198.403615 164.034487 
L 199.054225 164.034487 
L 199.704835 164.034487 
L 200.355445 164.034487 
L 201.006056 164.034487 
L 201.656666 164.034487 
L 202.307276 164.034487 
L 202.957887 164.034487 
L 203.608497 164.034487 
L 204.259107 164.034487 
L 204.909718 164.034487 
L 205.560328 164.034487 
L 206.210938 164.034487 
L 206.861549 164.034487 
L 207.512159 164.034487 
L 208.162769 164.034487 
L 208.813379 164.034487 
L 209.46399 164.034487 
L 210.1146 164.034487 
L 210.76521 164.034487 
L 211.415821 164.034487 
L 212.066431 164.034487 
L 212.717041 164.034487 
L 213.367652 164.034487 
L 214.018262 164.034487 
L 214.668872 164.034487 
L 215.319483 164.034487 
L 215.970093 164.034487 
L 216.620703 164.034487 
L 217.271314 164.034487 
L 217.921924 164.034487 
L 218.572534 164.034487 
L 219.223144 164.034487 
L 219.873755 164.034487 
L 220.524365 164.034487 
L 221.174975 164.034487 
L 221.825586 164.034487 
L 222.476196 164.034487 
L 223.126806 164.034487 
L 223.777417 164.034487 
L 224.428027 164.034487 
L 225.078637 164.034487 
L 225.729248 164.034487 
L 226.379858 164.034487 
L 227.030468 164.034487 
L 227.681079 164.034487 
L 228.331689 164.034487 
L 228.982299 164.034487 
L 229.632909 164.034487 
L 230.28352 164.034487 
L 230.93413 164.034487 
L 231.58474 164.034487 
L 232.235351 164.034487 
L 232.885961 164.034487 
L 233.536571 164.034487 
L 234.187182 164.034487 
L 234.837792 164.034487 
L 235.488402 164.034487 
L 236.139013 164.034487 
L 236.789623 164.034487 
L 237.440233 164.034487 
L 238.090844 164.034487 
L 238.741454 164.034487 
L 239.392064 164.034487 
L 240.042674 164.034487 
L 240.693285 164.034487 
L 241.343895 164.034487 
L 241.994505 164.034487 
L 242.645116 164.034487 
L 243.295726 164.034487 
L 243.946336 164.034487 
L 244.596947 164.034487 
L 245.247557 164.034487 
L 245.898167 164.034487 
L 246.548778 164.034487 
L 247.199388 164.034487 
L 247.849998 164.034487 
L 248.500608 164.034487 
L 249.151219 164.034487 
L 249.801829 164.034487 
L 250.452439 164.034487 
L 251.10305 164.034487 
L 251.75366 164.034487 
L 252.40427 164.034487 
L 253.054881 164.034487 
L 253.705491 164.034487 
L 254.356101 164.034487 
L 255.006712 164.034487 
L 255.657322 164.034487 
L 256.307932 164.034487 
L 256.958543 164.034487 
L 257.609153 164.034487 
L 258.259763 164.034487 
L 258.910373 164.034487 
L 259.560984 164.034487 
L 260.211594 164.034487 
L 260.862204 164.034487 
L 261.512815 164.034487 
L 262.163425 164.034487 
L 262.814035 164.034487 
L 263.464646 164.034487 
L 264.115256 164.034487 
L 264.765866 164.034487 
L 265.416477 164.034487 
L 266.067087 164.034487 
L 266.717697 164.034487 
L 267.368308 164.034487 
L 268.018918 164.034487 
L 268.669528 164.034487 
L 269.320138 164.034487 
L 269.970749 164.034487 
L 270.621359 164.034487 
L 271.271969 164.034487 
L 271.92258 164.034487 
L 272.57319 164.034487 
L 273.2238 164.034487 
L 273.874411 164.034487 
L 274.525021 164.034487 
L 275.175631 164.034487 
L 275.826242 164.034487 
L 276.476852 164.034487 
L 277.127462 164.034487 
L 277.778073 164.034487 
L 278.428683 164.034487 
L 279.079293 164.034487 
L 279.729903 164.034487 
L 280.380514 164.034487 
L 281.031124 164.034487 
L 281.681734 164.034487 
L 282.332345 164.034487 
L 282.982955 164.034487 
L 283.633565 164.034487 
L 284.284176 164.034487 
L 284.934786 164.034487 
L 285.585396 164.034487 
L 286.236007 164.034487 
L 286.886617 164.034487 
L 287.537227 164.034487 
L 288.187837 164.034487 
L 288.838448 164.034487 
L 289.489058 164.034487 
L 290.139668 164.034487 
L 290.790279 164.034487 
L 291.440889 164.034487 
L 292.091499 164.034487 
L 292.74211 164.034487 
L 293.39272 164.034487 
L 294.04333 164.034487 
L 294.693941 164.034487 
L 295.344551 164.034487 
L 295.995161 164.034487 
L 296.645772 164.034487 
L 297.296382 164.034487 
L 297.946992 164.034487 
L 298.597602 164.034487 
L 299.248213 164.034487 
L 299.898823 164.034487 
L 300.549433 164.034487 
L 301.200044 164.034487 
L 301.850654 164.034487 
L 302.501264 164.034487 
L 303.151875 164.034487 
L 303.802485 164.034487 
L 304.453095 164.034487 
L 305.103706 164.034487 
L 305.754316 164.034487 
L 306.404926 164.034487 
L 307.055537 164.034487 
L 307.706147 164.034487 
L 308.356757 164.034487 
L 309.007367 164.034487 
L 309.657978 164.034487 
L 310.308588 164.034487 
L 310.959198 164.034487 
L 311.609809 164.034487 
L 312.260419 164.034487 
L 312.911029 164.034487 
L 313.56164 164.034487 
L 314.21225 164.034487 
L 314.86286 164.034487 
L 315.513471 164.034487 
L 316.164081 164.034487 
L 316.814691 164.034487 
L 317.465302 164.034487 
L 318.115912 164.034487 
L 318.766522 164.034487 
L 319.417132 164.034487 
L 320.067743 164.034487 
L 320.718353 164.034487 
L 321.368963 164.034487 
L 322.019574 164.034487 
L 322.670184 164.034487 
L 323.320794 164.034487 
L 323.971405 164.034487 
L 324.622015 164.034487 
L 325.272625 164.034487 
L 325.923236 164.034487 
L 326.573846 164.034487 
L 327.224456 164.034487 
L 327.875066 164.034487 
L 328.525677 164.034487 
L 329.176287 164.034487 
L 329.826897 164.034487 
L 330.477508 164.034487 
L 331.128118 164.034487 
L 331.778728 164.034487 
L 332.429339 164.034487 
L 333.079949 164.034487 
L 333.730559 164.034487 
L 334.38117 164.034487 
L 335.03178 164.034487 
L 335.68239 164.034487 
L 336.333001 164.034487 
L 336.983611 164.034487 
L 337.634221 164.034487 
L 338.284831 164.034487 
L 338.935442 164.034487 
L 339.586052 164.034487 
L 340.236662 164.034487 
L 340.887273 164.034487 
L 340.887273 102.077513 
L 340.887273 102.077513 
L 340.236662 102.077513 
L 339.586052 102.077513 
L 338.935442 102.077513 
L 338.284831 102.077513 
L 337.634221 102.077513 
L 336.983611 102.077513 
L 336.333001 102.077513 
L 335.68239 102.077513 
L 335.03178 102.077513 
L 334.38117 102.077513 
L 333.730559 102.077513 
L 333.079949 102.077513 
L 332.429339 102.077513 
L 331.778728 102.077513 
L 331.128118 102.077513 
L 330.477508 102.077513 
L 329.826897 102.077513 
L 329.176287 102.077513 
L 328.525677 102.077513 
L 327.875066 102.077513 
L 327.224456 102.077513 
L 326.573846 102.077513 
L 325.923236 102.077513 
L 325.272625 102.077513 
L 324.622015 102.077513 
L 323.971405 102.077513 
L 323.320794 102.077513 
L 322.670184 102.077514 
L 322.019574 102.077514 
L 321.368963 102.077514 
L 320.718353 102.077515 
L 320.067743 102.077515 
L 319.417132 102.077515 
L 318.766522 102.077516 
L 318.115912 102.077516 
L 317.465302 102.077516 
L 316.814691 102.077517 
L 316.164081 102.077517 
L 315.513471 102.077517 
L 314.86286 102.077518 
L 314.21225 102.077518 
L 313.56164 102.077518 
L 312.911029 102.077519 
L 312.260419 102.077519 
L 311.609809 102.077519 
L 310.959198 102.07752 
L 310.308588 102.07752 
L 309.657978 102.07752 
L 309.007367 102.07752 
L 308.356757 102.07752 
L 307.706147 102.077519 
L 307.055537 102.077519 
L 306.404926 102.077519 
L 305.754316 102.077518 
L 305.103706 102.077518 
L 304.453095 102.077518 
L 303.802485 102.077518 
L 303.151875 102.077517 
L 302.501264 102.077517 
L 301.850654 102.077517 
L 301.200044 102.077516 
L 300.549433 102.077516 
L 299.898823 102.077516 
L 299.248213 102.077516 
L 298.597602 102.077515 
L 297.946992 102.077515 
L 297.296382 102.077515 
L 296.645772 102.077514 
L 295.995161 102.077514 
L 295.344551 102.077514 
L 294.693941 102.077514 
L 294.04333 102.077513 
L 293.39272 102.077513 
L 292.74211 102.077513 
L 292.091499 102.077513 
L 291.440889 102.077514 
L 290.790279 102.077514 
L 290.139668 102.077514 
L 289.489058 102.077515 
L 288.838448 102.077515 
L 288.187837 102.077515 
L 287.537227 102.077516 
L 286.886617 102.077516 
L 286.236007 102.077516 
L 285.585396 102.077517 
L 284.934786 102.077517 
L 284.284176 102.077517 
L 283.633565 102.077518 
L 282.982955 102.077518 
L 282.332345 102.077518 
L 281.681734 102.077519 
L 281.031124 102.077519 
L 280.380514 102.077519 
L 279.729903 102.07752 
L 279.079293 102.07752 
L 278.428683 102.07752 
L 277.778073 102.077537 
L 277.127462 102.077557 
L 276.476852 102.077577 
L 275.826242 102.077598 
L 275.175631 102.077618 
L 274.525021 102.077638 
L 273.874411 102.077659 
L 273.2238 102.077679 
L 272.57319 102.077699 
L 271.92258 102.077719 
L 271.271969 102.07774 
L 270.621359 102.07776 
L 269.970749 102.07778 
L 269.320138 102.077801 
L 268.669528 102.077821 
L 268.018918 102.077841 
L 267.368308 102.077861 
L 266.717697 102.077882 
L 266.067087 102.077902 
L 265.416477 102.077922 
L 264.765866 102.077943 
L 264.115256 102.077963 
L 263.464646 102.077983 
L 262.814035 102.078003 
L 262.163425 102.238397 
L 261.512815 104.94925 
L 260.862204 107.660104 
L 260.211594 110.370957 
L 259.560984 113.08181 
L 258.910373 115.792663 
L 258.259763 118.503516 
L 257.609153 121.21437 
L 256.958543 123.925223 
L 256.307932 126.636076 
L 255.657322 129.346929 
L 255.006712 132.057782 
L 254.356101 134.768635 
L 253.705491 137.479489 
L 253.054881 140.190342 
L 252.40427 142.901195 
L 251.75366 145.612048 
L 251.10305 148.322901 
L 250.452439 151.033755 
L 249.801829 153.744608 
L 249.151219 156.455461 
L 248.500608 159.166314 
L 247.849998 161.877167 
L 247.199388 164.034469 
L 246.548778 164.034469 
L 245.898167 164.03447 
L 245.247557 164.03447 
L 244.596947 164.034471 
L 243.946336 164.034471 
L 243.295726 164.034472 
L 242.645116 164.034472 
L 241.994505 164.034473 
L 241.343895 164.034473 
L 240.693285 164.034474 
L 240.042674 164.034474 
L 239.392064 164.034475 
L 238.741454 164.034475 
L 238.090844 164.034476 
L 237.440233 164.034476 
L 236.789623 164.034477 
L 236.139013 164.034477 
L 235.488402 164.034478 
L 234.837792 164.034478 
L 234.187182 164.034479 
L 233.536571 164.034479 
L 232.885961 164.03448 
L 232.235351 164.03448 
L 231.58474 164.034481 
L 230.93413 164.034481 
L 230.28352 164.034481 
L 229.632909 164.034481 
L 228.982299 164.034482 
L 228.331689 164.034482 
L 227.681079 164.034482 
L 227.030468 164.034482 
L 226.379858 164.034482 
L 225.729248 164.034482 
L 225.078637 164.034482 
L 224.428027 164.034482 
L 223.777417 164.034482 
L 223.126806 164.034482 
L 222.476196 164.034482 
L 221.825586 164.034482 
L 221.174975 164.034482 
L 220.524365 164.034483 
L 219.873755 164.034483 
L 219.223144 164.034483 
L 218.572534 164.034483 
L 217.921924 164.034483 
L 217.271314 164.034483 
L 216.620703 164.034483 
L 215.970093 164.034477 
L 215.319483 164.034468 
L 214.668872 164.034458 
L 214.018262 164.034448 
L 213.367652 164.034439 
L 212.717041 164.034429 
L 212.066431 164.034419 
L 211.415821 164.03441 
L 210.76521 164.0344 
L 210.1146 164.03439 
L 209.46399 164.034381 
L 208.813379 164.034371 
L 208.162769 164.034361 
L 207.512159 164.034351 
L 206.861549 164.034342 
L 206.210938 164.034332 
L 205.560328 164.034322 
L 204.909718 164.034313 
L 204.259107 164.034303 
L 203.608497 164.034293 
L 202.957887 164.034284 
L 202.307276 164.034274 
L 201.656666 164.034264 
L 201.006056 164.034255 
L 200.355445 164.03426 
L 199.704835 164.03427 
L 199.054225 164.03428 
L 198.403615 164.034289 
L 197.753004 164.034299 
L 197.102394 164.034309 
L 196.451784 164.034319 
L 195.801173 164.034329 
L 195.150563 164.034338 
L 194.499953 164.034348 
L 193.849342 164.034358 
L 193.198732 164.034368 
L 192.548122 164.034377 
L 191.897511 164.034387 
L 191.246901 164.034397 
L 190.596291 164.034407 
L 189.94568 164.034416 
L 189.29507 164.034426 
L 188.64446 164.034436 
L 187.99385 164.034446 
L 187.343239 164.034455 
L 186.692629 164.034465 
L 186.042019 164.034475 
L 185.391408 164.034485 
L 184.740798 164.034485 
L 184.090188 164.034485 
L 183.439577 164.034485 
L 182.788967 164.034485 
L 182.138357 164.034485 
L 181.487746 164.034485 
L 180.837136 164.034485 
L 180.186526 164.034485 
L 179.535915 164.034485 
L 178.885305 164.034485 
L 178.234695 164.034485 
L 177.584085 164.034485 
L 176.933474 164.034485 
L 176.282864 164.034484 
L 175.632254 164.034484 
L 174.981643 164.034484 
L 174.331033 164.034484 
L 173.680423 164.034484 
L 173.029812 164.034484 
L 172.379202 164.034484 
L 171.728592 164.034484 
L 171.077981 164.034484 
L 170.427371 164.034484 
L 169.776761 164.034484 
L 169.12615 164.034484 
L 168.47554 164.034484 
L 167.82493 164.034484 
L 167.17432 164.034484 
L 166.523709 164.034484 
L 165.873099 164.034484 
L 165.222489 164.034484 
L 164.571878 164.034484 
L 163.921268 164.034484 
L 163.270658 164.034484 
L 162.620047 164.034484 
L 161.969437 164.034484 
L 161.318827 164.034484 
L 160.668216 164.034484 
L 160.017606 164.034484 
L 159.366996 164.034484 
L 158.716385 164.034484 
L 158.065775 164.034484 
L 157.415165 164.034484 
L 156.764555 164.034484 
L 156.113944 164.034484 
L 155.463334 164.034484 
L 154.812724 164.034484 
L 154.162113 164.034484 
L 153.511503 164.034484 
L 152.860893 164.034484 
L 152.210282 164.034483 
L 151.559672 164.034483 
L 150.909062 164.034483 
L 150.258451 164.034483 
L 149.607841 164.034483 
L 148.957231 164.034483 
L 148.306621 164.034483 
L 147.65601 164.034482 
L 147.0054 164.034482 
L 146.35479 164.034482 
L 145.704179 164.034482 
L 145.053569 164.034482 
L 144.402959 164.034482 
L 143.752348 164.034482 
L 143.101738 164.034482 
L 142.451128 164.034481 
L 141.800517 164.034481 
L 141.149907 164.034481 
L 140.499297 164.034481 
L 139.848686 164.034481 
L 139.198076 164.034481 
L 138.547466 164.034481 
L 137.896856 164.03448 
L 137.246245 164.03448 
L 136.595635 164.03448 
L 135.945025 164.03448 
L 135.294414 164.03448 
L 134.643804 164.034479 
L 133.993194 164.034479 
L 133.342583 164.034479 
L 132.691973 164.034479 
L 132.041363 164.034479 
L 131.390752 164.034478 
L 130.740142 164.034478 
L 130.089532 164.034478 
L 129.438921 164.034478 
L 128.788311 164.034478 
L 128.137701 164.034477 
L 127.487091 164.034477 
L 126.83648 164.034477 
L 126.18587 164.034477 
L 125.53526 164.034477 
L 124.884649 164.034476 
L 124.234039 164.034476 
L 123.583429 164.034476 
L 122.932818 164.034476 
L 122.282208 164.034476 
L 121.631598 164.034477 
L 120.980987 164.034477 
L 120.330377 164.034477 
L 119.679767 164.034477 
L 119.029156 164.034477 
L 118.378546 164.034478 
L 117.727936 164.034478 
L 117.077326 164.034478 
L 116.426715 164.034478 
L 115.776105 164.034479 
L 115.125495 164.034479 
L 114.474884 164.034479 
L 113.824274 164.034479 
L 113.173664 164.03448 
L 112.523053 164.03448 
L 111.872443 164.03448 
L 111.221833 164.03448 
L 110.571222 164.03448 
L 109.920612 164.034481 
L 109.270002 164.034481 
L 108.619392 164.034481 
L 107.968781 164.034481 
L 107.318171 164.034481 
L 106.667561 164.034481 
L 106.01695 164.034481 
L 105.36634 164.034481 
L 104.71573 164.034481 
L 104.065119 164.034482 
L 103.414509 164.034482 
L 102.763899 164.034482 
L 102.113288 164.034482 
L 101.462678 164.034482 
L 100.812068 164.034482 
L 100.161457 164.034482 
L 99.510847 164.034482 
L 98.860237 164.034482 
L 98.209627 164.034482 
L 97.559016 164.034482 
L 96.908406 164.034482 
L 96.257796 164.034482 
L 95.607185 164.034482 
L 94.956575 164.034482 
L 94.305965 164.034482 
L 93.655354 164.034482 
L 93.004744 164.034482 
L 92.354134 164.034482 
L 91.703523 164.034482 
L 91.052913 164.034482 
L 90.402303 164.034482 
L 89.751692 164.034483 
L 89.101082 164.034483 
L 88.450472 164.034483 
L 87.799862 164.034483 
L 87.149251 164.034483 
L 86.498641 164.034483 
L 85.848031 164.034483 
L 85.19742 164.034483 
L 84.54681 164.034484 
L 83.8962 164.034484 
L 83.245589 164.034484 
L 82.594979 164.034484 
L 81.944369 164.034484 
L 81.293758 164.034484 
L 80.643148 164.034484 
L 79.992538 164.034484 
L 79.341927 164.034485 
L 78.691317 164.034485 
L 78.040707 164.034485 
L 77.390097 164.034485 
L 76.739486 164.034485 
L 76.088876 164.034485 
L 75.438266 164.034485 
L 74.787655 164.034485 
L 74.137045 164.034485 
L 73.486435 164.034485 
L 72.835824 164.034485 
L 72.185214 164.034485 
L 71.534604 164.034485 
L 70.883993 164.034485 
L 70.233383 164.034485 
L 69.582773 164.034485 
L 68.932163 164.034485 
L 68.281552 164.034485 
L 67.630942 164.034485 
L 66.980332 164.034485 
L 66.329721 164.034485 
L 65.679111 164.034485 
L 65.028501 164.034485 
L 64.37789 164.034486 
L 63.72728 164.034486 
L 63.07667 164.034486 
L 62.426059 164.034486 
L 61.775449 164.034486 
L 61.124839 164.034486 
L 60.474228 164.034486 
L 59.823618 164.034486 
L 59.173008 164.034486 
L 58.522398 164.034486 
L 57.871787 164.034486 
L 57.221177 164.034486 
L 56.570567 164.034486 
L 55.919956 164.034486 
L 55.269346 164.034486 
L 54.618736 164.034486 
L 53.968125 164.034486 
L 53.317515 164.034486 
L 52.666905 164.034486 
L 52.016294 164.034486 
L 51.365684 164.034486 
L 50.715074 164.034486 
L 50.064463 164.034486 
L 49.413853 164.034486 
L 48.763243 164.034486 
L 48.112633 164.034486 
L 47.462022 164.034486 
L 46.811412 164.034486 
L 46.160802 164.034486 
L 45.510191 164.034486 
L 44.859581 164.034486 
L 44.208971 164.034486 
L 43.55836 164.034486 
L 42.90775 164.034486 
L 42.25714 164.034486 
L 41.606529 164.034486 
L 40.955919 164.034486 
L 40.305309 164.034486 
L 39.654698 164.034486 
L 39.004088 164.034486 
L 38.353478 164.034486 
L 37.702868 164.034486 
L 37.052257 164.034486 
L 36.401647 164.034486 
L 35.751037 164.034486 
L 35.100426 164.034486 
L 34.449816 164.034486 
L 33.799206 164.034486 
L 33.148595 164.034486 
L 32.497985 164.034486 
L 31.847375 164.034486 
L 31.196764 164.034486 
L 30.546154 164.034486 
L 29.895544 164.034486 
L 29.244934 164.034486 
L 28.594323 164.034486 
L 27.943713 164.034486 
L 27.293103 164.034486 
L 26.642492 164.034486 
L 25.991882 164.034486 
L 25.341272 164.034486 
L 24.690661 164.034486 
L 24.040051 164.034486 
L 23.389441 164.034486 
L 22.73883 164.034486 
L 22.08822 164.034486 
L 21.43761 164.034486 
L 20.786999 164.034486 
L 20.136389 164.034486 
L 19.485779 164.034486 
L 18.835169 164.034486 
L 18.184558 164.034486 
L 17.533948 164.034486 
L 16.883338 164.034486 
L 16.232727 164.034486 
z
" style="fill:#f15a24;fill-opacity:0.3;"/>
   </g>
   <g id="PathCollection_1">
    <defs>
     <path d="M 0 1.581139 
C 0.419323 1.581139 0.821528 1.41454 1.118034 1.118034 
C 1.41454 0.821528 1.581139 0.419323 1.581139 -0 
C 1.581139 -0.419323 1.41454 -0.821528 1.118034 -1.118034 
C 0.821528 -1.41454 0.419323 -1.581139 0 -1.581139 
C -0.419323 -1.581139 -0.821528 -1.41454 -1.118034 -1.118034 
C -1.41454 -0.821528 -1.581139 -0.419323 -1.581139 0 
C -1.581139 0.419323 -1.41454 0.821528 -1.118034 1.118034 
C -0.821528 1.41454 -0.419323 1.581139 0 1.581139 
z
" id="C0_0_b1df788ce9"/>
    </defs>
    <g clip-path="url(#paa5a717676)">
     <use style="fill:#008000;stroke:#008000;stroke-width:0.5;" x="16.232727" xlink:href="#C0_0_b1df788ce9" y="102.077513"/>
    </g>
    <g clip-path="url(#paa5a717676)">
     <use style="fill:#008000;stroke:#008000;stroke-width:0.5;" x="30.482831" xlink:href="#C0_0_b1df788ce9" y="102.077513"/>
    </g>
    <g clip-path="url(#paa5a717676)">
     <use style="fill:#008000;stroke:#008000;stroke-width:0.5;" x="45.972075" xlink:href="#C0_0_b1df788ce9" y="102.077513"/>
    </g>
    <g clip-path="url(#paa5a717676)">
     <use style="fill:#008000;stroke:#008000;stroke-width:0.5;" x="61.461319" xlink:href="#C0_0_b1df788ce9" y="102.077513"/>
    </g>
    <g clip-path="url(#paa5a717676)">
     <use style="fill:#008000;stroke:#008000;stroke-width:0.5;" x="76.950562" xlink:href="#C0_0_b1df788ce9" y="102.077513"/>
    </g>
    <g clip-path="url(#paa5a717676)">
     <use style="fill:#008000;stroke:#008000;stroke-width:0.5;" x="92.439806" xlink:href="#C0_0_b1df788ce9" y="102.07752"/>
    </g>
    <g clip-path="url(#paa5a717676)">
     <use style="fill:#008000;stroke:#008000;stroke-width:0.5;" x="107.929049" xlink:href="#C0_0_b1df788ce9" y="102.07752"/>
    </g>
    <g clip-path="url(#paa5a717676)">
     <use style="fill:#008000;stroke:#008000;stroke-width:0.5;" x="123.418293" xlink:href="#C0_0_b1df788ce9" y="102.077528"/>
    </g>
    <g clip-path="url(#paa5a717676)">
     <use style="fill:#008000;stroke:#008000;stroke-width:0.5;" x="138.907536" xlink:href="#C0_0_b1df788ce9" y="102.07752"/>
    </g>
    <g clip-path="url(#paa5a717676)">
     <use style="fill:#008000;stroke:#008000;stroke-width:0.5;" x="154.39678" xlink:href="#C0_0_b1df788ce9" y="102.077513"/>
    </g>
    <g clip-path="url(#paa5a717676)">
     <use style="fill:#008000;stroke:#008000;stroke-width:0.5;" x="169.886024" xlink:href="#C0_0_b1df788ce9" y="102.077513"/>
    </g>
    <g clip-path="url(#paa5a717676)">
     <use style="fill:#008000;stroke:#008000;stroke-width:0.5;" x="185.375267" xlink:href="#C0_0_b1df788ce9" y="102.077513"/>
    </g>
    <g clip-path="url(#paa5a717676)">
     <use style="fill:#ffff00;stroke:#ffff00;stroke-width:0.5;" x="200.864511" xlink:href="#C0_0_b1df788ce9" y="102.149905"/>
    </g>
    <g clip-path="url(#paa5a717676)">
     <use style="fill:#ffff00;stroke:#ffff00;stroke-width:0.5;" x="216.353754" xlink:href="#C0_0_b1df788ce9" y="102.077535"/>
    </g>
    <g clip-path="url(#paa5a717676)">
     <use style="fill:#ffff00;stroke:#ffff00;stroke-width:0.5;" x="231.223428" xlink:href="#C0_0_b1df788ce9" y="102.077528"/>
    </g>
    <g clip-path="url(#paa5a717676)">
     <use style="fill:#ffff00;stroke:#ffff00;stroke-width:0.5;" x="247.332241" xlink:href="#C0_0_b1df788ce9" y="102.077535"/>
    </g>
    <g clip-path="url(#paa5a717676)">
     <use style="fill:#ff0000;stroke:#ff0000;stroke-width:0.5;" x="262.201915" xlink:href="#C0_0_b1df788ce9" y="102.078022"/>
    </g>
    <g clip-path="url(#paa5a717676)">
     <use style="fill:#ff0000;stroke:#ff0000;stroke-width:0.5;" x="278.310729" xlink:href="#C0_0_b1df788ce9" y="102.07752"/>
    </g>
    <g clip-path="url(#paa5a717676)">
     <use style="fill:#ff0000;stroke:#ff0000;stroke-width:0.5;" x="293.180402" xlink:href="#C0_0_b1df788ce9" y="102.077513"/>
    </g>
    <g clip-path="url(#paa5a717676)">
     <use style="fill:#ff0000;stroke:#ff0000;stroke-width:0.5;" x="309.908786" xlink:href="#C0_0_b1df788ce9" y="102.07752"/>
    </g>
    <g clip-path="url(#paa5a717676)">
     <use style="fill:#ff0000;stroke:#ff0000;stroke-width:0.5;" x="324.15889" xlink:href="#C0_0_b1df788ce9" y="102.077513"/>
    </g>
    <g clip-path="url(#paa5a717676)">
     <use style="fill:#ff0000;stroke:#ff0000;stroke-width:0.5;" x="340.887273" xlink:href="#C0_0_b1df788ce9" y="102.077513"/>
    </g>
   </g>
   <g id="line2d_1">
    <path clip-path="url(#paa5a717676)" d="M 16.232727 102.077513 
L 185.391408 102.142002 
L 200.355445 161.928441 
L 201.006056 163.962992 
L 240.042674 164.034482 
L 340.887273 164.034487 
L 340.887273 164.034487 
" style="fill:none;stroke:#61c46e;stroke-linecap:square;"/>
   </g>
   <g id="line2d_2">
    <path clip-path="url(#paa5a717676)" d="M 16.232727 164.034486 
L 185.391408 163.969998 
L 200.355445 104.183787 
L 201.006056 102.149244 
L 240.042674 102.077532 
L 247.199388 102.077535 
L 247.849998 104.234837 
L 262.163425 163.873621 
L 262.814035 164.034014 
L 340.887273 164.034484 
L 340.887273 164.034484 
" style="fill:none;stroke:#f6ed22;stroke-linecap:square;"/>
   </g>
   <g id="line2d_3">
    <path clip-path="url(#paa5a717676)" d="M 16.232727 164.034486 
L 247.199388 164.034469 
L 247.849998 161.877167 
L 262.163425 102.238397 
L 262.814035 102.078003 
L 340.887273 102.077513 
L 340.887273 102.077513 
" style="fill:none;stroke:#f15a24;stroke-linecap:square;"/>
   </g>
  </g>
 </g>
 <defs>
  <clipPath id="paa5a717676">
   <rect height="266.112" width="357.12" x="0" y="-0"/>
  </clipPath>
 </defs>
</svg>
