<?xml version="1.0" encoding="utf-8" standalone="no"?>
<!DOCTYPE svg PUBLIC "-//W3C//DTD SVG 1.1//EN"
  "http://www.w3.org/Graphics/SVG/1.1/DTD/svg11.dtd">
<svg height="266.112pt" version="1.1" viewBox="0 0 357.12 266.112" width="357.12pt" xmlns="http://www.w3.org/2000/svg" xmlns:xlink="http://www.w3.org/1999/xlink">
 <metadata>
  <rdf:RDF xmlns:cc="http://creativecommons.org/ns#" xmlns:dc="http://purl.org/dc/elements/1.1/" xmlns:rdf="http://www.w3.org/1999/02/22-rdf-syntax-ns#">
   <cc:Work>
    <dc:type rdf:resource="http://purl.org/dc/dcmitype/StillImage"/>
    <dc:date>2022-07-08T00:24:58.973968</dc:date>
    <dc:format>image/svg+xml</dc:format>
    <dc:creator>
     <cc:Agent>
      <dc:title>Matplotlib v3.4.2, https://matplotlib.org/</dc:title>
     </cc:Agent>
    </dc:creator>
   </cc:Work>
  </rdf:RDF>
 </metadata>
 <defs>
  <style type="text/css">*{stroke-linecap:butt;stroke-linejoin:round;}</style>
 </defs>
 <g id="figure_1">
  <g id="patch_1">
   <path d="M 0 266.112 
L 357.12 266.112 
L 357.12 0 
L 0 0 
z
" style="fill:#ffffff;"/>
  </g>
  <g id="axes_1">
   <g id="PolyCollection_1">
    <path clip-path="url(#p9ee7fcc8cd)" d="M 16.232727 114.483086 
L 16.232727 151.628914 
L 16.883338 151.628914 
L 17.533948 151.628914 
L 18.184558 151.628914 
L 18.835169 151.628914 
L 19.485779 151.628914 
L 20.136389 151.628914 
L 20.786999 151.628914 
L 21.43761 151.628914 
L 22.08822 151.628914 
L 22.73883 151.628914 
L 23.389441 151.628914 
L 24.040051 151.628914 
L 24.690661 151.628914 
L 25.341272 151.628914 
L 25.991882 151.628914 
L 26.642492 151.628914 
L 27.293103 151.628914 
L 27.943713 151.628914 
L 28.594323 151.628914 
L 29.244934 151.628914 
L 29.895544 151.628914 
L 30.546154 151.628914 
L 31.196764 151.628914 
L 31.847375 151.628914 
L 32.497985 151.628914 
L 33.148595 151.628914 
L 33.799206 151.628914 
L 34.449816 151.628914 
L 35.100426 151.628914 
L 35.751037 151.628914 
L 36.401647 151.628914 
L 37.052257 151.628914 
L 37.702868 151.628914 
L 38.353478 151.628914 
L 39.004088 151.628914 
L 39.654698 151.628914 
L 40.305309 151.628914 
L 40.955919 151.628914 
L 41.606529 151.628914 
L 42.25714 151.628914 
L 42.90775 151.628914 
L 43.55836 151.628914 
L 44.208971 151.628914 
L 44.859581 151.628914 
L 45.510191 151.628914 
L 46.160802 151.628914 
L 46.811412 151.628914 
L 47.462022 151.628914 
L 48.112633 151.628914 
L 48.763243 151.628914 
L 49.413853 151.628914 
L 50.064463 151.628914 
L 50.715074 151.628914 
L 51.365684 151.628914 
L 52.016294 151.628914 
L 52.666905 151.628914 
L 53.317515 151.628914 
L 53.968125 151.628914 
L 54.618736 151.628914 
L 55.269346 151.628914 
L 55.919956 151.628914 
L 56.570567 151.628914 
L 57.221177 151.628914 
L 57.871787 151.628914 
L 58.522398 151.628914 
L 59.173008 151.628914 
L 59.823618 151.628914 
L 60.474228 151.628914 
L 61.124839 151.628914 
L 61.775449 151.628914 
L 62.426059 151.628914 
L 63.07667 151.628914 
L 63.72728 151.628914 
L 64.37789 151.628914 
L 65.028501 151.628914 
L 65.679111 151.628914 
L 66.329721 151.628914 
L 66.980332 151.628914 
L 67.630942 151.628914 
L 68.281552 151.628914 
L 68.932163 151.628914 
L 69.582773 151.628914 
L 70.233383 151.628914 
L 70.883993 151.628914 
L 71.534604 151.628914 
L 72.185214 151.628914 
L 72.835824 151.628914 
L 73.486435 151.628914 
L 74.137045 151.628914 
L 74.787655 151.628914 
L 75.438266 151.628914 
L 76.088876 151.628914 
L 76.739486 151.628914 
L 77.390097 151.628914 
L 78.040707 151.628914 
L 78.691317 151.628914 
L 79.341927 151.628914 
L 79.992538 151.628914 
L 80.643148 151.628914 
L 81.293758 151.628914 
L 81.944369 151.628914 
L 82.594979 151.628914 
L 83.245589 151.628914 
L 83.8962 151.628914 
L 84.54681 151.628914 
L 85.19742 151.628914 
L 85.848031 151.628914 
L 86.498641 151.628914 
L 87.149251 151.628914 
L 87.799862 151.628914 
L 88.450472 151.628914 
L 89.101082 151.628914 
L 89.751692 151.628914 
L 90.402303 151.628914 
L 91.052913 151.628914 
L 91.703523 151.628914 
L 92.354134 151.628914 
L 93.004744 151.628914 
L 93.655354 151.628914 
L 94.305965 151.628914 
L 94.956575 151.628914 
L 95.607185 151.628914 
L 96.257796 151.628914 
L 96.908406 151.628914 
L 97.559016 151.628914 
L 98.209627 151.628914 
L 98.860237 151.628914 
L 99.510847 151.628914 
L 100.161457 151.628914 
L 100.812068 151.628914 
L 101.462678 151.628914 
L 102.113288 151.628914 
L 102.763899 151.628914 
L 103.414509 151.628914 
L 104.065119 151.628914 
L 104.71573 151.628914 
L 105.36634 151.628914 
L 106.01695 151.628914 
L 106.667561 151.628914 
L 107.318171 151.628914 
L 107.968781 151.628914 
L 108.619392 151.628914 
L 109.270002 151.628914 
L 109.920612 151.628914 
L 110.571222 151.628914 
L 111.221833 151.628914 
L 111.872443 151.628914 
L 112.523053 151.628914 
L 113.173664 151.628914 
L 113.824274 151.628914 
L 114.474884 151.628914 
L 115.125495 151.628914 
L 115.776105 151.628914 
L 116.426715 151.628914 
L 117.077326 151.628914 
L 117.727936 151.628914 
L 118.378546 151.628914 
L 119.029156 151.628914 
L 119.679767 151.628914 
L 120.330377 151.628914 
L 120.980987 151.628914 
L 121.631598 151.628914 
L 122.282208 151.628914 
L 122.932818 151.628914 
L 123.583429 151.628914 
L 124.234039 151.628914 
L 124.884649 151.628914 
L 125.53526 151.628914 
L 126.18587 151.628914 
L 126.83648 151.628914 
L 127.487091 151.628914 
L 128.137701 151.628914 
L 128.788311 151.628914 
L 129.438921 151.628914 
L 130.089532 151.628914 
L 130.740142 151.628914 
L 131.390752 151.628914 
L 132.041363 151.628914 
L 132.691973 151.628914 
L 133.342583 151.628914 
L 133.993194 151.628914 
L 134.643804 151.628914 
L 135.294414 151.628914 
L 135.945025 151.628914 
L 136.595635 151.628914 
L 137.246245 151.628914 
L 137.896856 151.628914 
L 138.547466 151.628914 
L 139.198076 151.628914 
L 139.848686 151.628914 
L 140.499297 151.628914 
L 141.149907 151.628914 
L 141.800517 151.628914 
L 142.451128 151.628914 
L 143.101738 151.628914 
L 143.752348 151.628914 
L 144.402959 151.628914 
L 145.053569 151.628914 
L 145.704179 151.628914 
L 146.35479 151.628914 
L 147.0054 151.628914 
L 147.65601 151.628914 
L 148.306621 151.628914 
L 148.957231 151.628914 
L 149.607841 151.628914 
L 150.258451 151.628914 
L 150.909062 151.628914 
L 151.559672 151.628914 
L 152.210282 151.628914 
L 152.860893 151.628914 
L 153.511503 151.628914 
L 154.162113 151.628914 
L 154.812724 151.628914 
L 155.463334 151.628914 
L 156.113944 151.628914 
L 156.764555 151.628914 
L 157.415165 151.628914 
L 158.065775 151.628914 
L 158.716385 151.628914 
L 159.366996 151.628914 
L 160.017606 151.628914 
L 160.668216 151.628914 
L 161.318827 151.628914 
L 161.969437 151.628914 
L 162.620047 151.628914 
L 163.270658 151.628914 
L 163.921268 151.628914 
L 164.571878 151.628914 
L 165.222489 151.628914 
L 165.873099 151.628914 
L 166.523709 151.628914 
L 167.17432 151.628914 
L 167.82493 151.628914 
L 168.47554 151.628914 
L 169.12615 151.628914 
L 169.776761 151.628914 
L 170.427371 151.628914 
L 171.077981 151.628914 
L 171.728592 151.628914 
L 172.379202 151.628914 
L 173.029812 151.628914 
L 173.680423 151.628914 
L 174.331033 151.628914 
L 174.981643 151.628914 
L 175.632254 151.628914 
L 176.282864 151.628914 
L 176.933474 151.628914 
L 177.584085 151.628914 
L 178.234695 151.628914 
L 178.885305 151.628914 
L 179.535915 151.628914 
L 180.186526 151.628914 
L 180.837136 151.628914 
L 181.487746 151.628914 
L 182.138357 151.628914 
L 182.788967 151.628914 
L 183.439577 151.628914 
L 184.090188 151.628914 
L 184.740798 151.628914 
L 185.391408 151.628914 
L 186.042019 151.628914 
L 186.692629 151.628914 
L 187.343239 151.628914 
L 187.99385 151.628914 
L 188.64446 151.628914 
L 189.29507 151.628914 
L 189.94568 151.628914 
L 190.596291 151.628914 
L 191.246901 151.628914 
L 191.897511 151.628914 
L 192.548122 151.628914 
L 193.198732 151.628914 
L 193.849342 151.628914 
L 194.499953 151.628914 
L 195.150563 151.628914 
L 195.801173 151.628914 
L 196.451784 151.628914 
L 197.102394 151.628914 
L 197.753004 151.628914 
L 198.403615 151.628914 
L 199.054225 151.628914 
L 199.704835 151.628914 
L 200.355445 151.628914 
L 201.006056 151.628914 
L 201.656666 151.628914 
L 202.307276 151.628914 
L 202.957887 151.628914 
L 203.608497 151.628914 
L 204.259107 151.628914 
L 204.909718 151.628914 
L 205.560328 151.628914 
L 206.210938 151.628914 
L 206.861549 151.628914 
L 207.512159 151.628914 
L 208.162769 151.628914 
L 208.813379 151.628914 
L 209.46399 151.628914 
L 210.1146 151.628914 
L 210.76521 151.628914 
L 211.415821 151.628914 
L 212.066431 151.628914 
L 212.717041 151.628914 
L 213.367652 151.628914 
L 214.018262 151.628914 
L 214.668872 151.628914 
L 215.319483 151.628914 
L 215.970093 151.628914 
L 216.620703 151.628914 
L 217.271314 151.628914 
L 217.921924 151.628914 
L 218.572534 151.628914 
L 219.223144 151.628914 
L 219.873755 151.628914 
L 220.524365 151.628914 
L 221.174975 151.628914 
L 221.825586 151.628914 
L 222.476196 151.628914 
L 223.126806 151.628914 
L 223.777417 151.628914 
L 224.428027 151.628914 
L 225.078637 151.628914 
L 225.729248 151.628914 
L 226.379858 151.628914 
L 227.030468 151.628914 
L 227.681079 151.628914 
L 228.331689 151.628914 
L 228.982299 151.628914 
L 229.632909 151.628914 
L 230.28352 151.628914 
L 230.93413 151.628914 
L 231.58474 151.628914 
L 232.235351 151.628914 
L 232.885961 151.628914 
L 233.536571 151.628914 
L 234.187182 151.628914 
L 234.837792 151.628914 
L 235.488402 151.628914 
L 236.139013 151.628914 
L 236.789623 151.628914 
L 237.440233 151.628914 
L 238.090844 151.628914 
L 238.741454 151.628914 
L 239.392064 151.628914 
L 240.042674 151.628914 
L 240.693285 151.628914 
L 241.343895 151.628914 
L 241.994505 151.628914 
L 242.645116 151.628914 
L 243.295726 151.628914 
L 243.946336 151.628914 
L 244.596947 151.628914 
L 245.247557 151.628914 
L 245.898167 151.628914 
L 246.548778 151.628914 
L 247.199388 151.628914 
L 247.849998 151.628914 
L 248.500608 151.628914 
L 249.151219 151.628914 
L 249.801829 151.628914 
L 250.452439 151.628914 
L 251.10305 151.628914 
L 251.75366 151.628914 
L 252.40427 151.628914 
L 253.054881 151.628914 
L 253.705491 151.628914 
L 254.356101 151.628914 
L 255.006712 151.628914 
L 255.657322 151.628914 
L 256.307932 151.628914 
L 256.958543 151.628914 
L 257.609153 151.628914 
L 258.259763 151.628914 
L 258.910373 151.628914 
L 259.560984 151.628914 
L 260.211594 151.628914 
L 260.862204 151.628914 
L 261.512815 151.628914 
L 262.163425 151.628914 
L 262.814035 151.628914 
L 263.464646 151.628914 
L 264.115256 151.628914 
L 264.765866 151.628914 
L 265.416477 151.628914 
L 266.067087 151.628914 
L 266.717697 151.628914 
L 267.368308 151.628914 
L 268.018918 151.628914 
L 268.669528 151.628914 
L 269.320138 151.628914 
L 269.970749 151.628914 
L 270.621359 151.628914 
L 271.271969 151.628914 
L 271.92258 151.628914 
L 272.57319 151.628914 
L 273.2238 151.628914 
L 273.874411 151.628914 
L 274.525021 151.628914 
L 275.175631 151.628914 
L 275.826242 151.628914 
L 276.476852 151.628914 
L 277.127462 151.628914 
L 277.778073 151.628914 
L 278.428683 151.628914 
L 279.079293 151.628914 
L 279.729903 151.628914 
L 280.380514 151.628914 
L 281.031124 151.628914 
L 281.681734 151.628914 
L 282.332345 151.628914 
L 282.982955 151.628914 
L 283.633565 151.628914 
L 284.284176 151.628914 
L 284.934786 151.628914 
L 285.585396 151.628914 
L 286.236007 151.628914 
L 286.886617 151.628914 
L 287.537227 151.628914 
L 288.187837 151.628914 
L 288.838448 151.628914 
L 289.489058 151.628914 
L 290.139668 151.628914 
L 290.790279 151.628914 
L 291.440889 151.628914 
L 292.091499 151.628914 
L 292.74211 151.628914 
L 293.39272 151.628914 
L 294.04333 151.628914 
L 294.693941 151.628914 
L 295.344551 151.628914 
L 295.995161 151.628914 
L 296.645772 151.628914 
L 297.296382 151.628914 
L 297.946992 151.628914 
L 298.597602 151.628914 
L 299.248213 151.628914 
L 299.898823 151.628914 
L 300.549433 151.628914 
L 301.200044 151.628914 
L 301.850654 151.628914 
L 302.501264 151.628914 
L 303.151875 151.628914 
L 303.802485 151.628914 
L 304.453095 151.628914 
L 305.103706 151.628914 
L 305.754316 151.628914 
L 306.404926 151.628914 
L 307.055537 151.628914 
L 307.706147 151.628914 
L 308.356757 151.628914 
L 309.007367 151.628914 
L 309.657978 151.628914 
L 310.308588 151.628914 
L 310.959198 151.628914 
L 311.609809 151.628914 
L 312.260419 151.628914 
L 312.911029 151.628914 
L 313.56164 151.628914 
L 314.21225 151.628914 
L 314.86286 151.628914 
L 315.513471 151.628914 
L 316.164081 151.628914 
L 316.814691 151.628914 
L 317.465302 151.628914 
L 318.115912 151.628914 
L 318.766522 151.628914 
L 319.417132 151.628914 
L 320.067743 151.628914 
L 320.718353 151.628914 
L 321.368963 151.628914 
L 322.019574 151.628914 
L 322.670184 151.628914 
L 323.320794 151.628914 
L 323.971405 151.628914 
L 324.622015 151.628914 
L 325.272625 151.628914 
L 325.923236 151.628914 
L 326.573846 151.628914 
L 327.224456 151.628914 
L 327.875066 151.628914 
L 328.525677 151.628914 
L 329.176287 151.628914 
L 329.826897 151.628914 
L 330.477508 151.628914 
L 331.128118 151.628914 
L 331.778728 151.628914 
L 332.429339 151.628914 
L 333.079949 151.628914 
L 333.730559 151.628914 
L 334.38117 151.628914 
L 335.03178 151.628914 
L 335.68239 151.628914 
L 336.333001 151.628914 
L 336.983611 151.628914 
L 337.634221 151.628914 
L 338.284831 151.628914 
L 338.935442 151.628914 
L 339.586052 151.628914 
L 340.236662 151.628914 
L 340.887273 151.628914 
L 340.887273 151.628913 
L 340.887273 151.628913 
L 340.236662 151.628913 
L 339.586052 151.628913 
L 338.935442 151.628913 
L 338.284831 151.628913 
L 337.634221 151.628913 
L 336.983611 151.628913 
L 336.333001 151.628913 
L 335.68239 151.628913 
L 335.03178 151.628913 
L 334.38117 151.628913 
L 333.730559 151.628913 
L 333.079949 151.628913 
L 332.429339 151.628913 
L 331.778728 151.628913 
L 331.128118 151.628913 
L 330.477508 151.628913 
L 329.826897 151.628913 
L 329.176287 151.628913 
L 328.525677 151.628913 
L 327.875066 151.628913 
L 327.224456 151.628914 
L 326.573846 151.628914 
L 325.923236 151.628914 
L 325.272625 151.628914 
L 324.622015 151.628914 
L 323.971405 151.628914 
L 323.320794 151.628914 
L 322.670184 151.628914 
L 322.019574 151.628914 
L 321.368963 151.628914 
L 320.718353 151.628914 
L 320.067743 151.628914 
L 319.417132 151.628914 
L 318.766522 151.628914 
L 318.115912 151.628914 
L 317.465302 151.628914 
L 316.814691 151.628914 
L 316.164081 151.628914 
L 315.513471 151.628914 
L 314.86286 151.628914 
L 314.21225 151.628914 
L 313.56164 151.628914 
L 312.911029 151.628914 
L 312.260419 151.628914 
L 311.609809 151.628914 
L 310.959198 151.628914 
L 310.308588 151.628914 
L 309.657978 151.628914 
L 309.007367 151.628914 
L 308.356757 151.628914 
L 307.706147 151.628914 
L 307.055537 151.628914 
L 306.404926 151.628914 
L 305.754316 151.628914 
L 305.103706 151.628914 
L 304.453095 151.628914 
L 303.802485 151.628914 
L 303.151875 151.628914 
L 302.501264 151.628914 
L 301.850654 151.628914 
L 301.200044 151.628914 
L 300.549433 151.628914 
L 299.898823 151.628914 
L 299.248213 151.628914 
L 298.597602 151.628914 
L 297.946992 151.628914 
L 297.296382 151.628914 
L 296.645772 151.628914 
L 295.995161 151.628914 
L 295.344551 151.628914 
L 294.693941 151.628914 
L 294.04333 151.628914 
L 293.39272 151.628914 
L 292.74211 151.628914 
L 292.091499 151.628914 
L 291.440889 151.628914 
L 290.790279 151.628914 
L 290.139668 151.628914 
L 289.489058 151.628914 
L 288.838448 151.628914 
L 288.187837 151.628913 
L 287.537227 151.628913 
L 286.886617 151.628913 
L 286.236007 151.628913 
L 285.585396 151.628913 
L 284.934786 151.628913 
L 284.284176 151.628913 
L 283.633565 151.628913 
L 282.982955 151.628913 
L 282.332345 151.628913 
L 281.681734 151.628913 
L 281.031124 151.628914 
L 280.380514 151.628914 
L 279.729903 151.628914 
L 279.079293 151.628914 
L 278.428683 151.628914 
L 277.778073 151.628914 
L 277.127462 151.628914 
L 276.476852 151.628914 
L 275.826242 151.628914 
L 275.175631 151.628914 
L 274.525021 151.628914 
L 273.874411 151.628914 
L 273.2238 151.628914 
L 272.57319 151.628914 
L 271.92258 151.628914 
L 271.271969 151.628914 
L 270.621359 151.628914 
L 269.970749 151.628914 
L 269.320138 151.628914 
L 268.669528 151.628914 
L 268.018918 151.628914 
L 267.368308 151.628914 
L 266.717697 151.628914 
L 266.067087 151.628914 
L 265.416477 151.628914 
L 264.765866 151.628914 
L 264.115256 151.628914 
L 263.464646 151.628914 
L 262.814035 151.628914 
L 262.163425 151.628914 
L 261.512815 151.628914 
L 260.862204 151.628914 
L 260.211594 151.628914 
L 259.560984 151.628914 
L 258.910373 151.628914 
L 258.259763 151.628914 
L 257.609153 151.628914 
L 256.958543 151.628914 
L 256.307932 151.628914 
L 255.657322 151.628914 
L 255.006712 151.628914 
L 254.356101 151.628914 
L 253.705491 151.628914 
L 253.054881 151.628914 
L 252.40427 151.628914 
L 251.75366 151.628914 
L 251.10305 151.628914 
L 250.452439 151.628914 
L 249.801829 151.628914 
L 249.151219 151.628914 
L 248.500608 151.628914 
L 247.849998 151.628914 
L 247.199388 151.628914 
L 246.548778 151.628914 
L 245.898167 151.628914 
L 245.247557 151.628914 
L 244.596947 151.628914 
L 243.946336 151.628914 
L 243.295726 151.628914 
L 242.645116 151.628914 
L 241.994505 151.628914 
L 241.343895 151.628914 
L 240.693285 151.628914 
L 240.042674 151.628914 
L 239.392064 151.628914 
L 238.741454 151.628914 
L 238.090844 151.628914 
L 237.440233 151.628914 
L 236.789623 151.628914 
L 236.139013 151.628914 
L 235.488402 151.628914 
L 234.837792 151.628914 
L 234.187182 151.628914 
L 233.536571 151.628914 
L 232.885961 151.628914 
L 232.235351 151.628914 
L 231.58474 151.628914 
L 230.93413 151.628914 
L 230.28352 151.628914 
L 229.632909 151.628914 
L 228.982299 151.628914 
L 228.331689 151.628914 
L 227.681079 151.628914 
L 227.030468 151.628914 
L 226.379858 151.628914 
L 225.729248 151.628914 
L 225.078637 151.628914 
L 224.428027 151.628914 
L 223.777417 151.628914 
L 223.126806 151.628914 
L 222.476196 151.628914 
L 221.825586 151.628914 
L 221.174975 151.628914 
L 220.524365 151.628914 
L 219.873755 151.628914 
L 219.223144 151.628914 
L 218.572534 151.628914 
L 217.921924 151.628914 
L 217.271314 151.628914 
L 216.620703 151.628914 
L 215.970093 151.628914 
L 215.319483 151.628914 
L 214.668872 151.628914 
L 214.018262 151.628914 
L 213.367652 151.628914 
L 212.717041 151.628914 
L 212.066431 151.628914 
L 211.415821 151.628914 
L 210.76521 151.628914 
L 210.1146 151.628914 
L 209.46399 151.628914 
L 208.813379 151.628914 
L 208.162769 151.628914 
L 207.512159 151.628914 
L 206.861549 151.628914 
L 206.210938 151.628914 
L 205.560328 151.628914 
L 204.909718 151.628914 
L 204.259107 151.628914 
L 203.608497 151.628914 
L 202.957887 151.628914 
L 202.307276 151.628914 
L 201.656666 151.628914 
L 201.006056 151.628914 
L 200.355445 151.628914 
L 199.704835 151.628914 
L 199.054225 151.628914 
L 198.403615 151.628914 
L 197.753004 151.628914 
L 197.102394 151.628914 
L 196.451784 151.628914 
L 195.801173 151.628914 
L 195.150563 151.628914 
L 194.499953 151.628914 
L 193.849342 151.628914 
L 193.198732 151.628914 
L 192.548122 151.628914 
L 191.897511 151.628914 
L 191.246901 151.628914 
L 190.596291 151.628914 
L 189.94568 151.628914 
L 189.29507 151.628914 
L 188.64446 151.628914 
L 187.99385 151.628914 
L 187.343239 151.628914 
L 186.692629 151.628914 
L 186.042019 151.628914 
L 185.391408 151.628914 
L 184.740798 151.628914 
L 184.090188 151.628914 
L 183.439577 151.628914 
L 182.788967 151.628914 
L 182.138357 151.628914 
L 181.487746 151.628914 
L 180.837136 151.628914 
L 180.186526 151.628914 
L 179.535915 151.628914 
L 178.885305 151.628914 
L 178.234695 151.628914 
L 177.584085 151.628914 
L 176.933474 151.628914 
L 176.282864 151.628914 
L 175.632254 151.628914 
L 174.981643 151.628914 
L 174.331033 151.628914 
L 173.680423 151.628914 
L 173.029812 151.628914 
L 172.379202 151.628914 
L 171.728592 151.628914 
L 171.077981 151.628914 
L 170.427371 151.628914 
L 169.776761 151.628914 
L 169.12615 151.628914 
L 168.47554 151.628914 
L 167.82493 151.628914 
L 167.17432 151.628914 
L 166.523709 151.628914 
L 165.873099 151.628914 
L 165.222489 151.628914 
L 164.571878 151.628914 
L 163.921268 151.628914 
L 163.270658 151.628914 
L 162.620047 151.628914 
L 161.969437 151.628914 
L 161.318827 151.628914 
L 160.668216 151.628914 
L 160.017606 151.628914 
L 159.366996 151.628914 
L 158.716385 151.628914 
L 158.065775 151.628913 
L 157.415165 151.628913 
L 156.764555 151.628913 
L 156.113944 151.628913 
L 155.463334 151.628913 
L 154.812724 151.628913 
L 154.162113 151.628913 
L 153.511503 151.628913 
L 152.860893 151.628913 
L 152.210282 151.628913 
L 151.559672 151.628913 
L 150.909062 151.628912 
L 150.258451 151.628912 
L 149.607841 151.628912 
L 148.957231 151.628912 
L 148.306621 151.628912 
L 147.65601 151.628912 
L 147.0054 151.628912 
L 146.35479 151.628911 
L 145.704179 151.628911 
L 145.053569 151.628911 
L 144.402959 151.628911 
L 143.752348 151.628912 
L 143.101738 151.628912 
L 142.451128 151.628912 
L 141.800517 151.628912 
L 141.149907 151.628912 
L 140.499297 151.628912 
L 139.848686 151.628912 
L 139.198076 151.628912 
L 138.547466 151.628912 
L 137.896856 151.628913 
L 137.246245 151.628913 
L 136.595635 151.628913 
L 135.945025 151.628911 
L 135.294414 151.628907 
L 134.643804 151.628903 
L 133.993194 151.628899 
L 133.342583 151.628895 
L 132.691973 151.628892 
L 132.041363 151.628888 
L 131.390752 151.628884 
L 130.740142 151.62888 
L 130.089532 151.628876 
L 129.438921 151.628872 
L 128.788311 151.628868 
L 128.137701 151.628864 
L 127.487091 151.62886 
L 126.83648 151.627871 
L 126.18587 151.620811 
L 125.53526 151.613752 
L 124.884649 151.606692 
L 124.234039 151.599633 
L 123.583429 151.592573 
L 122.932818 151.585513 
L 122.282208 151.578454 
L 121.631598 151.571394 
L 120.980987 151.564335 
L 120.330377 151.557275 
L 119.679767 151.550215 
L 119.029156 151.543156 
L 118.378546 151.536096 
L 117.727936 151.529037 
L 117.077326 151.510811 
L 116.426715 151.490859 
L 115.776105 151.470908 
L 115.125495 151.450956 
L 114.474884 151.431004 
L 113.824274 151.411053 
L 113.173664 151.391101 
L 112.523053 151.371149 
L 111.872443 151.351198 
L 111.221833 151.331246 
L 110.571222 151.311295 
L 109.920612 151.291343 
L 109.270002 151.271391 
L 108.619392 151.25144 
L 107.968781 151.258606 
L 107.318171 151.284409 
L 106.667561 151.310211 
L 106.01695 151.336014 
L 105.36634 151.361817 
L 104.71573 151.38762 
L 104.065119 151.413423 
L 103.414509 151.439226 
L 102.763899 151.465028 
L 102.113288 151.490831 
L 101.462678 151.516634 
L 100.812068 151.542437 
L 100.161457 151.56824 
L 99.510847 151.594042 
L 98.860237 151.610982 
L 98.209627 151.609021 
L 97.559016 151.607059 
L 96.908406 151.605097 
L 96.257796 151.603135 
L 95.607185 151.601174 
L 94.956575 151.599212 
L 94.305965 151.59725 
L 93.655354 151.595289 
L 93.004744 151.593327 
L 92.354134 151.591365 
L 91.703523 151.589403 
L 91.052913 151.587442 
L 90.402303 151.58548 
L 89.751692 151.58172 
L 89.101082 151.540473 
L 88.450472 151.499225 
L 87.799862 151.457977 
L 87.149251 151.416729 
L 86.498641 151.375481 
L 85.848031 151.334233 
L 85.19742 151.292986 
L 84.54681 151.251738 
L 83.8962 151.21049 
L 83.245589 151.169242 
L 82.594979 151.127994 
L 81.944369 151.086746 
L 81.293758 151.045499 
L 80.643148 151.004251 
L 79.992538 149.019273 
L 79.341927 146.461254 
L 78.691317 143.903235 
L 78.040707 141.345216 
L 77.390097 138.787197 
L 76.739486 136.229178 
L 76.088876 133.671159 
L 75.438266 131.11314 
L 74.787655 128.555121 
L 74.137045 125.997102 
L 73.486435 123.439083 
L 72.835824 120.881064 
L 72.185214 118.323045 
L 71.534604 115.765026 
L 70.883993 114.48309 
L 70.233383 114.483089 
L 69.582773 114.483089 
L 68.932163 114.483089 
L 68.281552 114.483089 
L 67.630942 114.483088 
L 66.980332 114.483088 
L 66.329721 114.483088 
L 65.679111 114.483087 
L 65.028501 114.483087 
L 64.37789 114.483087 
L 63.72728 114.483086 
L 63.07667 114.483086 
L 62.426059 114.483086 
L 61.775449 114.483086 
L 61.124839 114.483086 
L 60.474228 114.483086 
L 59.823618 114.483086 
L 59.173008 114.483086 
L 58.522398 114.483086 
L 57.871787 114.483086 
L 57.221177 114.483086 
L 56.570567 114.483086 
L 55.919956 114.483086 
L 55.269346 114.483086 
L 54.618736 114.483086 
L 53.968125 114.483086 
L 53.317515 114.483086 
L 52.666905 114.483086 
L 52.016294 114.483086 
L 51.365684 114.483086 
L 50.715074 114.483086 
L 50.064463 114.483086 
L 49.413853 114.483086 
L 48.763243 114.483086 
L 48.112633 114.483086 
L 47.462022 114.483086 
L 46.811412 114.483086 
L 46.160802 114.483086 
L 45.510191 114.483086 
L 44.859581 114.483086 
L 44.208971 114.483086 
L 43.55836 114.483086 
L 42.90775 114.483086 
L 42.25714 114.483086 
L 41.606529 114.483086 
L 40.955919 114.483086 
L 40.305309 114.483086 
L 39.654698 114.483086 
L 39.004088 114.483086 
L 38.353478 114.483086 
L 37.702868 114.483086 
L 37.052257 114.483086 
L 36.401647 114.483086 
L 35.751037 114.483086 
L 35.100426 114.483086 
L 34.449816 114.483086 
L 33.799206 114.483086 
L 33.148595 114.483086 
L 32.497985 114.483086 
L 31.847375 114.483086 
L 31.196764 114.483086 
L 30.546154 114.483086 
L 29.895544 114.483086 
L 29.244934 114.483086 
L 28.594323 114.483086 
L 27.943713 114.483086 
L 27.293103 114.483086 
L 26.642492 114.483086 
L 25.991882 114.483086 
L 25.341272 114.483086 
L 24.690661 114.483086 
L 24.040051 114.483086 
L 23.389441 114.483086 
L 22.73883 114.483086 
L 22.08822 114.483086 
L 21.43761 114.483086 
L 20.786999 114.483086 
L 20.136389 114.483086 
L 19.485779 114.483086 
L 18.835169 114.483086 
L 18.184558 114.483086 
L 17.533948 114.483086 
L 16.883338 114.483086 
L 16.232727 114.483086 
z
" style="fill:#61c46e;fill-opacity:0.3;"/>
   </g>
   <g id="PolyCollection_2">
    <path clip-path="url(#p9ee7fcc8cd)" d="M 16.232727 151.628914 
L 16.232727 151.628914 
L 16.883338 151.628914 
L 17.533948 151.628914 
L 18.184558 151.628914 
L 18.835169 151.628914 
L 19.485779 151.628914 
L 20.136389 151.628914 
L 20.786999 151.628914 
L 21.43761 151.628914 
L 22.08822 151.628914 
L 22.73883 151.628914 
L 23.389441 151.628914 
L 24.040051 151.628914 
L 24.690661 151.628914 
L 25.341272 151.628914 
L 25.991882 151.628914 
L 26.642492 151.628914 
L 27.293103 151.628914 
L 27.943713 151.628914 
L 28.594323 151.628914 
L 29.244934 151.628914 
L 29.895544 151.628914 
L 30.546154 151.628914 
L 31.196764 151.628914 
L 31.847375 151.628914 
L 32.497985 151.628914 
L 33.148595 151.628914 
L 33.799206 151.628914 
L 34.449816 151.628914 
L 35.100426 151.628914 
L 35.751037 151.628914 
L 36.401647 151.628914 
L 37.052257 151.628914 
L 37.702868 151.628914 
L 38.353478 151.628914 
L 39.004088 151.628914 
L 39.654698 151.628914 
L 40.305309 151.628914 
L 40.955919 151.628914 
L 41.606529 151.628914 
L 42.25714 151.628914 
L 42.90775 151.628914 
L 43.55836 151.628914 
L 44.208971 151.628914 
L 44.859581 151.628914 
L 45.510191 151.628914 
L 46.160802 151.628914 
L 46.811412 151.628914 
L 47.462022 151.628914 
L 48.112633 151.628914 
L 48.763243 151.628914 
L 49.413853 151.628914 
L 50.064463 151.628914 
L 50.715074 151.628914 
L 51.365684 151.628914 
L 52.016294 151.628914 
L 52.666905 151.628914 
L 53.317515 151.628914 
L 53.968125 151.628914 
L 54.618736 151.628914 
L 55.269346 151.628914 
L 55.919956 151.628914 
L 56.570567 151.628914 
L 57.221177 151.628914 
L 57.871787 151.628914 
L 58.522398 151.628914 
L 59.173008 151.628914 
L 59.823618 151.628914 
L 60.474228 151.628914 
L 61.124839 151.628914 
L 61.775449 151.628914 
L 62.426059 151.628914 
L 63.07667 151.628914 
L 63.72728 151.628914 
L 64.37789 151.628914 
L 65.028501 151.628914 
L 65.679111 151.628914 
L 66.329721 151.628914 
L 66.980332 151.628914 
L 67.630942 151.628914 
L 68.281552 151.628914 
L 68.932163 151.628914 
L 69.582773 151.628914 
L 70.233383 151.628914 
L 70.883993 151.628914 
L 71.534604 151.628914 
L 72.185214 151.628914 
L 72.835824 151.628914 
L 73.486435 151.628914 
L 74.137045 151.628914 
L 74.787655 151.628914 
L 75.438266 151.628914 
L 76.088876 151.628914 
L 76.739486 151.628914 
L 77.390097 151.628914 
L 78.040707 151.628914 
L 78.691317 151.628914 
L 79.341927 151.628914 
L 79.992538 151.628914 
L 80.643148 151.628914 
L 81.293758 151.628914 
L 81.944369 151.628914 
L 82.594979 151.628914 
L 83.245589 151.628914 
L 83.8962 151.628914 
L 84.54681 151.628914 
L 85.19742 151.628914 
L 85.848031 151.628914 
L 86.498641 151.628914 
L 87.149251 151.628914 
L 87.799862 151.628914 
L 88.450472 151.628914 
L 89.101082 151.628914 
L 89.751692 151.628914 
L 90.402303 151.628914 
L 91.052913 151.628914 
L 91.703523 151.628914 
L 92.354134 151.628914 
L 93.004744 151.628914 
L 93.655354 151.628914 
L 94.305965 151.628914 
L 94.956575 151.628914 
L 95.607185 151.628914 
L 96.257796 151.628914 
L 96.908406 151.628914 
L 97.559016 151.628914 
L 98.209627 151.628914 
L 98.860237 151.628914 
L 99.510847 151.628914 
L 100.161457 151.628914 
L 100.812068 151.628914 
L 101.462678 151.628914 
L 102.113288 151.628914 
L 102.763899 151.628914 
L 103.414509 151.628914 
L 104.065119 151.628914 
L 104.71573 151.628914 
L 105.36634 151.628914 
L 106.01695 151.628914 
L 106.667561 151.628914 
L 107.318171 151.628914 
L 107.968781 151.628914 
L 108.619392 151.628914 
L 109.270002 151.628914 
L 109.920612 151.628914 
L 110.571222 151.628914 
L 111.221833 151.628914 
L 111.872443 151.628914 
L 112.523053 151.628914 
L 113.173664 151.628914 
L 113.824274 151.628914 
L 114.474884 151.628914 
L 115.125495 151.628914 
L 115.776105 151.628914 
L 116.426715 151.628914 
L 117.077326 151.628914 
L 117.727936 151.628914 
L 118.378546 151.628914 
L 119.029156 151.628914 
L 119.679767 151.628914 
L 120.330377 151.628914 
L 120.980987 151.628914 
L 121.631598 151.628914 
L 122.282208 151.628914 
L 122.932818 151.628914 
L 123.583429 151.628914 
L 124.234039 151.628914 
L 124.884649 151.628914 
L 125.53526 151.628914 
L 126.18587 151.628914 
L 126.83648 151.628914 
L 127.487091 151.628914 
L 128.137701 151.628914 
L 128.788311 151.628914 
L 129.438921 151.628914 
L 130.089532 151.628914 
L 130.740142 151.628914 
L 131.390752 151.628914 
L 132.041363 151.628914 
L 132.691973 151.628914 
L 133.342583 151.628914 
L 133.993194 151.628914 
L 134.643804 151.628914 
L 135.294414 151.628914 
L 135.945025 151.628914 
L 136.595635 151.628914 
L 137.246245 151.628914 
L 137.896856 151.628914 
L 138.547466 151.628914 
L 139.198076 151.628914 
L 139.848686 151.628914 
L 140.499297 151.628914 
L 141.149907 151.628914 
L 141.800517 151.628914 
L 142.451128 151.628914 
L 143.101738 151.628914 
L 143.752348 151.628914 
L 144.402959 151.628914 
L 145.053569 151.628914 
L 145.704179 151.628914 
L 146.35479 151.628914 
L 147.0054 151.628914 
L 147.65601 151.628914 
L 148.306621 151.628914 
L 148.957231 151.628914 
L 149.607841 151.628914 
L 150.258451 151.628914 
L 150.909062 151.628914 
L 151.559672 151.628914 
L 152.210282 151.628914 
L 152.860893 151.628914 
L 153.511503 151.628914 
L 154.162113 151.628914 
L 154.812724 151.628914 
L 155.463334 151.628914 
L 156.113944 151.628914 
L 156.764555 151.628914 
L 157.415165 151.628914 
L 158.065775 151.628914 
L 158.716385 151.628914 
L 159.366996 151.628914 
L 160.017606 151.628914 
L 160.668216 151.628914 
L 161.318827 151.628914 
L 161.969437 151.628914 
L 162.620047 151.628914 
L 163.270658 151.628914 
L 163.921268 151.628914 
L 164.571878 151.628914 
L 165.222489 151.628914 
L 165.873099 151.628914 
L 166.523709 151.628914 
L 167.17432 151.628914 
L 167.82493 151.628914 
L 168.47554 151.628914 
L 169.12615 151.628914 
L 169.776761 151.628914 
L 170.427371 151.628914 
L 171.077981 151.628914 
L 171.728592 151.628914 
L 172.379202 151.628914 
L 173.029812 151.628914 
L 173.680423 151.628914 
L 174.331033 151.628914 
L 174.981643 151.628914 
L 175.632254 151.628914 
L 176.282864 151.628914 
L 176.933474 151.628914 
L 177.584085 151.628914 
L 178.234695 151.628914 
L 178.885305 151.628914 
L 179.535915 151.628914 
L 180.186526 151.628914 
L 180.837136 151.628914 
L 181.487746 151.628914 
L 182.138357 151.628914 
L 182.788967 151.628914 
L 183.439577 151.628914 
L 184.090188 151.628914 
L 184.740798 151.628914 
L 185.391408 151.628914 
L 186.042019 151.628914 
L 186.692629 151.628914 
L 187.343239 151.628914 
L 187.99385 151.628914 
L 188.64446 151.628914 
L 189.29507 151.628914 
L 189.94568 151.628914 
L 190.596291 151.628914 
L 191.246901 151.628914 
L 191.897511 151.628914 
L 192.548122 151.628914 
L 193.198732 151.628914 
L 193.849342 151.628914 
L 194.499953 151.628914 
L 195.150563 151.628914 
L 195.801173 151.628914 
L 196.451784 151.628914 
L 197.102394 151.628914 
L 197.753004 151.628914 
L 198.403615 151.628914 
L 199.054225 151.628914 
L 199.704835 151.628914 
L 200.355445 151.628914 
L 201.006056 151.628914 
L 201.656666 151.628914 
L 202.307276 151.628914 
L 202.957887 151.628914 
L 203.608497 151.628914 
L 204.259107 151.628914 
L 204.909718 151.628914 
L 205.560328 151.628914 
L 206.210938 151.628914 
L 206.861549 151.628914 
L 207.512159 151.628914 
L 208.162769 151.628914 
L 208.813379 151.628914 
L 209.46399 151.628914 
L 210.1146 151.628914 
L 210.76521 151.628914 
L 211.415821 151.628914 
L 212.066431 151.628914 
L 212.717041 151.628914 
L 213.367652 151.628914 
L 214.018262 151.628914 
L 214.668872 151.628914 
L 215.319483 151.628914 
L 215.970093 151.628914 
L 216.620703 151.628914 
L 217.271314 151.628914 
L 217.921924 151.628914 
L 218.572534 151.628914 
L 219.223144 151.628914 
L 219.873755 151.628914 
L 220.524365 151.628914 
L 221.174975 151.628914 
L 221.825586 151.628914 
L 222.476196 151.628914 
L 223.126806 151.628914 
L 223.777417 151.628914 
L 224.428027 151.628914 
L 225.078637 151.628914 
L 225.729248 151.628914 
L 226.379858 151.628914 
L 227.030468 151.628914 
L 227.681079 151.628914 
L 228.331689 151.628914 
L 228.982299 151.628914 
L 229.632909 151.628914 
L 230.28352 151.628914 
L 230.93413 151.628914 
L 231.58474 151.628914 
L 232.235351 151.628914 
L 232.885961 151.628914 
L 233.536571 151.628914 
L 234.187182 151.628914 
L 234.837792 151.628914 
L 235.488402 151.628914 
L 236.139013 151.628914 
L 236.789623 151.628914 
L 237.440233 151.628914 
L 238.090844 151.628914 
L 238.741454 151.628914 
L 239.392064 151.628914 
L 240.042674 151.628914 
L 240.693285 151.628914 
L 241.343895 151.628914 
L 241.994505 151.628914 
L 242.645116 151.628914 
L 243.295726 151.628914 
L 243.946336 151.628914 
L 244.596947 151.628914 
L 245.247557 151.628914 
L 245.898167 151.628914 
L 246.548778 151.628914 
L 247.199388 151.628914 
L 247.849998 151.628914 
L 248.500608 151.628914 
L 249.151219 151.628914 
L 249.801829 151.628914 
L 250.452439 151.628914 
L 251.10305 151.628914 
L 251.75366 151.628914 
L 252.40427 151.628914 
L 253.054881 151.628914 
L 253.705491 151.628914 
L 254.356101 151.628914 
L 255.006712 151.628914 
L 255.657322 151.628914 
L 256.307932 151.628914 
L 256.958543 151.628914 
L 257.609153 151.628914 
L 258.259763 151.628914 
L 258.910373 151.628914 
L 259.560984 151.628914 
L 260.211594 151.628914 
L 260.862204 151.628914 
L 261.512815 151.628914 
L 262.163425 151.628914 
L 262.814035 151.628914 
L 263.464646 151.628914 
L 264.115256 151.628914 
L 264.765866 151.628914 
L 265.416477 151.628914 
L 266.067087 151.628914 
L 266.717697 151.628914 
L 267.368308 151.628914 
L 268.018918 151.628914 
L 268.669528 151.628914 
L 269.320138 151.628914 
L 269.970749 151.628914 
L 270.621359 151.628914 
L 271.271969 151.628914 
L 271.92258 151.628914 
L 272.57319 151.628914 
L 273.2238 151.628914 
L 273.874411 151.628914 
L 274.525021 151.628914 
L 275.175631 151.628914 
L 275.826242 151.628914 
L 276.476852 151.628914 
L 277.127462 151.628914 
L 277.778073 151.628914 
L 278.428683 151.628914 
L 279.079293 151.628914 
L 279.729903 151.628914 
L 280.380514 151.628914 
L 281.031124 151.628914 
L 281.681734 151.628914 
L 282.332345 151.628914 
L 282.982955 151.628914 
L 283.633565 151.628914 
L 284.284176 151.628914 
L 284.934786 151.628914 
L 285.585396 151.628914 
L 286.236007 151.628914 
L 286.886617 151.628914 
L 287.537227 151.628914 
L 288.187837 151.628914 
L 288.838448 151.628914 
L 289.489058 151.628914 
L 290.139668 151.628914 
L 290.790279 151.628914 
L 291.440889 151.628914 
L 292.091499 151.628914 
L 292.74211 151.628914 
L 293.39272 151.628914 
L 294.04333 151.628914 
L 294.693941 151.628914 
L 295.344551 151.628914 
L 295.995161 151.628914 
L 296.645772 151.628914 
L 297.296382 151.628914 
L 297.946992 151.628914 
L 298.597602 151.628914 
L 299.248213 151.628914 
L 299.898823 151.628914 
L 300.549433 151.628914 
L 301.200044 151.628914 
L 301.850654 151.628914 
L 302.501264 151.628914 
L 303.151875 151.628914 
L 303.802485 151.628914 
L 304.453095 151.628914 
L 305.103706 151.628914 
L 305.754316 151.628914 
L 306.404926 151.628914 
L 307.055537 151.628914 
L 307.706147 151.628914 
L 308.356757 151.628914 
L 309.007367 151.628914 
L 309.657978 151.628914 
L 310.308588 151.628914 
L 310.959198 151.628914 
L 311.609809 151.628914 
L 312.260419 151.628914 
L 312.911029 151.628914 
L 313.56164 151.628914 
L 314.21225 151.628914 
L 314.86286 151.628914 
L 315.513471 151.628914 
L 316.164081 151.628914 
L 316.814691 151.628914 
L 317.465302 151.628914 
L 318.115912 151.628914 
L 318.766522 151.628914 
L 319.417132 151.628914 
L 320.067743 151.628914 
L 320.718353 151.628914 
L 321.368963 151.628914 
L 322.019574 151.628914 
L 322.670184 151.628914 
L 323.320794 151.628914 
L 323.971405 151.628914 
L 324.622015 151.628914 
L 325.272625 151.628914 
L 325.923236 151.628914 
L 326.573846 151.628914 
L 327.224456 151.628914 
L 327.875066 151.628914 
L 328.525677 151.628914 
L 329.176287 151.628914 
L 329.826897 151.628914 
L 330.477508 151.628914 
L 331.128118 151.628914 
L 331.778728 151.628914 
L 332.429339 151.628914 
L 333.079949 151.628914 
L 333.730559 151.628914 
L 334.38117 151.628914 
L 335.03178 151.628914 
L 335.68239 151.628914 
L 336.333001 151.628914 
L 336.983611 151.628914 
L 337.634221 151.628914 
L 338.284831 151.628914 
L 338.935442 151.628914 
L 339.586052 151.628914 
L 340.236662 151.628914 
L 340.887273 151.628914 
L 340.887273 151.628914 
L 340.887273 151.628914 
L 340.236662 151.628914 
L 339.586052 151.628914 
L 338.935442 151.628914 
L 338.284831 151.628914 
L 337.634221 151.628914 
L 336.983611 151.628914 
L 336.333001 151.628914 
L 335.68239 151.628914 
L 335.03178 151.628914 
L 334.38117 151.628914 
L 333.730559 151.628914 
L 333.079949 151.628914 
L 332.429339 151.628913 
L 331.778728 151.628913 
L 331.128118 151.628913 
L 330.477508 151.628913 
L 329.826897 151.628913 
L 329.176287 151.628913 
L 328.525677 151.628913 
L 327.875066 151.628913 
L 327.224456 151.628913 
L 326.573846 151.628914 
L 325.923236 151.628914 
L 325.272625 151.628914 
L 324.622015 151.628914 
L 323.971405 151.628914 
L 323.320794 151.628914 
L 322.670184 151.628914 
L 322.019574 151.628914 
L 321.368963 151.628914 
L 320.718353 151.628914 
L 320.067743 151.628914 
L 319.417132 151.628914 
L 318.766522 151.628914 
L 318.115912 151.628914 
L 317.465302 151.628914 
L 316.814691 151.628914 
L 316.164081 151.628914 
L 315.513471 151.628914 
L 314.86286 151.628914 
L 314.21225 151.628914 
L 313.56164 151.628914 
L 312.911029 151.628914 
L 312.260419 151.628914 
L 311.609809 151.628914 
L 310.959198 151.628914 
L 310.308588 151.628914 
L 309.657978 151.628914 
L 309.007367 151.628914 
L 308.356757 151.628914 
L 307.706147 151.628914 
L 307.055537 151.628914 
L 306.404926 151.628914 
L 305.754316 151.628914 
L 305.103706 151.628914 
L 304.453095 151.628914 
L 303.802485 151.628914 
L 303.151875 151.628914 
L 302.501264 151.628914 
L 301.850654 151.628914 
L 301.200044 151.628914 
L 300.549433 151.628914 
L 299.898823 151.628914 
L 299.248213 151.628914 
L 298.597602 151.628914 
L 297.946992 151.628914 
L 297.296382 151.628914 
L 296.645772 151.628914 
L 295.995161 151.628914 
L 295.344551 151.628914 
L 294.693941 151.628914 
L 294.04333 151.628914 
L 293.39272 151.628914 
L 292.74211 151.628914 
L 292.091499 151.628914 
L 291.440889 151.628914 
L 290.790279 151.628914 
L 290.139668 151.628914 
L 289.489058 151.628914 
L 288.838448 151.628914 
L 288.187837 151.628914 
L 287.537227 151.628914 
L 286.886617 151.628914 
L 286.236007 151.628914 
L 285.585396 151.628914 
L 284.934786 151.628914 
L 284.284176 151.628914 
L 283.633565 151.628914 
L 282.982955 151.628914 
L 282.332345 151.628914 
L 281.681734 151.628914 
L 281.031124 151.628914 
L 280.380514 151.628914 
L 279.729903 151.628914 
L 279.079293 151.628914 
L 278.428683 151.628914 
L 277.778073 151.628914 
L 277.127462 151.628914 
L 276.476852 151.628914 
L 275.826242 151.628914 
L 275.175631 151.628914 
L 274.525021 151.628914 
L 273.874411 151.628914 
L 273.2238 151.628914 
L 272.57319 151.628914 
L 271.92258 151.628914 
L 271.271969 151.628914 
L 270.621359 151.628914 
L 269.970749 151.628914 
L 269.320138 151.628914 
L 268.669528 151.628914 
L 268.018918 151.628914 
L 267.368308 151.628914 
L 266.717697 151.628914 
L 266.067087 151.628914 
L 265.416477 151.628914 
L 264.765866 151.628914 
L 264.115256 151.628914 
L 263.464646 151.628914 
L 262.814035 151.628914 
L 262.163425 151.628914 
L 261.512815 151.628914 
L 260.862204 151.628914 
L 260.211594 151.628914 
L 259.560984 151.628914 
L 258.910373 151.628914 
L 258.259763 151.628914 
L 257.609153 151.628914 
L 256.958543 151.628914 
L 256.307932 151.628914 
L 255.657322 151.628914 
L 255.006712 151.628914 
L 254.356101 151.628914 
L 253.705491 151.628914 
L 253.054881 151.628914 
L 252.40427 151.628914 
L 251.75366 151.628914 
L 251.10305 151.628914 
L 250.452439 151.628914 
L 249.801829 151.628914 
L 249.151219 151.628914 
L 248.500608 151.628914 
L 247.849998 151.628914 
L 247.199388 151.628914 
L 246.548778 151.628914 
L 245.898167 151.628914 
L 245.247557 151.628914 
L 244.596947 151.628914 
L 243.946336 151.628914 
L 243.295726 151.628914 
L 242.645116 151.628914 
L 241.994505 151.628914 
L 241.343895 151.628914 
L 240.693285 151.628914 
L 240.042674 151.628914 
L 239.392064 151.628914 
L 238.741454 151.628914 
L 238.090844 151.628914 
L 237.440233 151.628914 
L 236.789623 151.628914 
L 236.139013 151.628914 
L 235.488402 151.628914 
L 234.837792 151.628914 
L 234.187182 151.628914 
L 233.536571 151.628914 
L 232.885961 151.628914 
L 232.235351 151.628914 
L 231.58474 151.628914 
L 230.93413 151.628914 
L 230.28352 151.628914 
L 229.632909 151.628914 
L 228.982299 151.628914 
L 228.331689 151.628914 
L 227.681079 151.628913 
L 227.030468 151.628913 
L 226.379858 151.628913 
L 225.729248 151.628913 
L 225.078637 151.628913 
L 224.428027 151.628913 
L 223.777417 151.628913 
L 223.126806 151.628913 
L 222.476196 151.628913 
L 221.825586 151.628913 
L 221.174975 151.628913 
L 220.524365 151.628913 
L 219.873755 151.628913 
L 219.223144 151.628913 
L 218.572534 151.628913 
L 217.921924 151.628913 
L 217.271314 151.628913 
L 216.620703 151.628913 
L 215.970093 151.628913 
L 215.319483 151.628913 
L 214.668872 151.628913 
L 214.018262 151.628913 
L 213.367652 151.628913 
L 212.717041 151.628913 
L 212.066431 151.628913 
L 211.415821 151.628914 
L 210.76521 151.628914 
L 210.1146 151.628914 
L 209.46399 151.628914 
L 208.813379 151.628914 
L 208.162769 151.628914 
L 207.512159 151.628914 
L 206.861549 151.628914 
L 206.210938 151.628914 
L 205.560328 151.628914 
L 204.909718 151.628914 
L 204.259107 151.628914 
L 203.608497 151.628914 
L 202.957887 151.628914 
L 202.307276 151.628914 
L 201.656666 151.628914 
L 201.006056 151.628914 
L 200.355445 151.628914 
L 199.704835 151.628914 
L 199.054225 151.628914 
L 198.403615 151.628914 
L 197.753004 151.628914 
L 197.102394 151.628914 
L 196.451784 151.628914 
L 195.801173 151.628914 
L 195.150563 151.628914 
L 194.499953 151.628914 
L 193.849342 151.628914 
L 193.198732 151.628914 
L 192.548122 151.628914 
L 191.897511 151.628914 
L 191.246901 151.628914 
L 190.596291 151.628914 
L 189.94568 151.628914 
L 189.29507 151.628914 
L 188.64446 151.628914 
L 187.99385 151.628914 
L 187.343239 151.628914 
L 186.692629 151.628914 
L 186.042019 151.628914 
L 185.391408 151.628914 
L 184.740798 151.628914 
L 184.090188 151.628914 
L 183.439577 151.628914 
L 182.788967 151.628914 
L 182.138357 151.628914 
L 181.487746 151.628914 
L 180.837136 151.628914 
L 180.186526 151.628914 
L 179.535915 151.628914 
L 178.885305 151.628914 
L 178.234695 151.628914 
L 177.584085 151.628914 
L 176.933474 151.628914 
L 176.282864 151.628914 
L 175.632254 151.628914 
L 174.981643 151.628914 
L 174.331033 151.628914 
L 173.680423 151.628914 
L 173.029812 151.628914 
L 172.379202 151.628914 
L 171.728592 151.628914 
L 171.077981 151.628914 
L 170.427371 151.628914 
L 169.776761 151.628914 
L 169.12615 151.628913 
L 168.47554 151.628913 
L 167.82493 151.628913 
L 167.17432 151.628913 
L 166.523709 151.628913 
L 165.873099 151.628913 
L 165.222489 151.628913 
L 164.571878 151.628913 
L 163.921268 151.628913 
L 163.270658 151.628913 
L 162.620047 151.628913 
L 161.969437 151.628913 
L 161.318827 151.628913 
L 160.668216 151.628912 
L 160.017606 151.628912 
L 159.366996 151.628912 
L 158.716385 151.628912 
L 158.065775 151.628911 
L 157.415165 151.628911 
L 156.764555 151.628911 
L 156.113944 151.628911 
L 155.463334 151.628911 
L 154.812724 151.62891 
L 154.162113 151.62891 
L 153.511503 151.62891 
L 152.860893 151.62891 
L 152.210282 151.62891 
L 151.559672 151.62891 
L 150.909062 151.628909 
L 150.258451 151.628909 
L 149.607841 151.628909 
L 148.957231 151.628909 
L 148.306621 151.628909 
L 147.65601 151.628909 
L 147.0054 151.628908 
L 146.35479 151.628908 
L 145.704179 151.628908 
L 145.053569 151.628908 
L 144.402959 151.628908 
L 143.752348 151.628908 
L 143.101738 151.628909 
L 142.451128 151.628909 
L 141.800517 151.628909 
L 141.149907 151.62891 
L 140.499297 151.62891 
L 139.848686 151.62891 
L 139.198076 151.62891 
L 138.547466 151.628911 
L 137.896856 151.628911 
L 137.246245 151.628911 
L 136.595635 151.628912 
L 135.945025 151.62891 
L 135.294414 151.628907 
L 134.643804 151.628904 
L 133.993194 151.628901 
L 133.342583 151.628898 
L 132.691973 151.628895 
L 132.041363 151.628892 
L 131.390752 151.628889 
L 130.740142 151.628886 
L 130.089532 151.628883 
L 129.438921 151.62888 
L 128.788311 151.628877 
L 128.137701 151.628874 
L 127.487091 151.628871 
L 126.83648 151.628657 
L 126.18587 151.627145 
L 125.53526 151.625632 
L 124.884649 151.62412 
L 124.234039 151.622607 
L 123.583429 151.621095 
L 122.932818 151.619583 
L 122.282208 151.61807 
L 121.631598 151.616558 
L 120.980987 151.615046 
L 120.330377 151.613533 
L 119.679767 151.612021 
L 119.029156 151.610508 
L 118.378546 151.608996 
L 117.727936 151.607484 
L 117.077326 151.566087 
L 116.426715 151.518525 
L 115.776105 151.470963 
L 115.125495 151.423401 
L 114.474884 151.37584 
L 113.824274 151.328278 
L 113.173664 151.280716 
L 112.523053 151.233154 
L 111.872443 151.185593 
L 111.221833 151.138031 
L 110.571222 151.090469 
L 109.920612 151.042908 
L 109.270002 150.995346 
L 108.619392 150.947784 
L 107.968781 149.416479 
L 107.318171 146.865457 
L 106.667561 144.314436 
L 106.01695 141.763415 
L 105.36634 139.212393 
L 104.71573 136.661372 
L 104.065119 134.110351 
L 103.414509 131.559329 
L 102.763899 129.008308 
L 102.113288 126.457287 
L 101.462678 123.906266 
L 100.812068 121.355244 
L 100.161457 118.804223 
L 99.510847 116.253202 
L 98.860237 114.516788 
L 98.209627 114.517622 
L 97.559016 114.518455 
L 96.908406 114.519289 
L 96.257796 114.520122 
L 95.607185 114.520956 
L 94.956575 114.521789 
L 94.305965 114.522622 
L 93.655354 114.523456 
L 93.004744 114.524289 
L 92.354134 114.525123 
L 91.703523 114.525956 
L 91.052913 114.52679 
L 90.402303 114.527623 
L 89.751692 114.530306 
L 89.101082 114.571554 
L 88.450472 114.612801 
L 87.799862 114.654049 
L 87.149251 114.695296 
L 86.498641 114.736544 
L 85.848031 114.777791 
L 85.19742 114.819039 
L 84.54681 114.860286 
L 83.8962 114.901533 
L 83.245589 114.942781 
L 82.594979 114.984028 
L 81.944369 115.025276 
L 81.293758 115.066523 
L 80.643148 115.107771 
L 79.992538 117.092748 
L 79.341927 119.650766 
L 78.691317 122.208783 
L 78.040707 124.766801 
L 77.390097 127.324818 
L 76.739486 129.882836 
L 76.088876 132.440853 
L 75.438266 134.99887 
L 74.787655 137.556888 
L 74.137045 140.114905 
L 73.486435 142.672923 
L 72.835824 145.23094 
L 72.185214 147.788958 
L 71.534604 150.346975 
L 70.883993 151.628911 
L 70.233383 151.628911 
L 69.582773 151.628911 
L 68.932163 151.628911 
L 68.281552 151.628911 
L 67.630942 151.628911 
L 66.980332 151.628912 
L 66.329721 151.628912 
L 65.679111 151.628912 
L 65.028501 151.628912 
L 64.37789 151.628912 
L 63.72728 151.628912 
L 63.07667 151.628912 
L 62.426059 151.628913 
L 61.775449 151.628913 
L 61.124839 151.628913 
L 60.474228 151.628913 
L 59.823618 151.628913 
L 59.173008 151.628913 
L 58.522398 151.628913 
L 57.871787 151.628913 
L 57.221177 151.628913 
L 56.570567 151.628914 
L 55.919956 151.628914 
L 55.269346 151.628914 
L 54.618736 151.628914 
L 53.968125 151.628914 
L 53.317515 151.628914 
L 52.666905 151.628914 
L 52.016294 151.628914 
L 51.365684 151.628914 
L 50.715074 151.628914 
L 50.064463 151.628914 
L 49.413853 151.628914 
L 48.763243 151.628914 
L 48.112633 151.628914 
L 47.462022 151.628914 
L 46.811412 151.628914 
L 46.160802 151.628914 
L 45.510191 151.628914 
L 44.859581 151.628914 
L 44.208971 151.628914 
L 43.55836 151.628914 
L 42.90775 151.628914 
L 42.25714 151.628914 
L 41.606529 151.628914 
L 40.955919 151.628914 
L 40.305309 151.628914 
L 39.654698 151.628914 
L 39.004088 151.628914 
L 38.353478 151.628914 
L 37.702868 151.628914 
L 37.052257 151.628914 
L 36.401647 151.628914 
L 35.751037 151.628914 
L 35.100426 151.628914 
L 34.449816 151.628914 
L 33.799206 151.628914 
L 33.148595 151.628914 
L 32.497985 151.628914 
L 31.847375 151.628914 
L 31.196764 151.628914 
L 30.546154 151.628914 
L 29.895544 151.628914 
L 29.244934 151.628914 
L 28.594323 151.628914 
L 27.943713 151.628914 
L 27.293103 151.628914 
L 26.642492 151.628914 
L 25.991882 151.628914 
L 25.341272 151.628914 
L 24.690661 151.628914 
L 24.040051 151.628914 
L 23.389441 151.628914 
L 22.73883 151.628914 
L 22.08822 151.628914 
L 21.43761 151.628914 
L 20.786999 151.628914 
L 20.136389 151.628914 
L 19.485779 151.628914 
L 18.835169 151.628914 
L 18.184558 151.628914 
L 17.533948 151.628914 
L 16.883338 151.628914 
L 16.232727 151.628914 
z
" style="fill:#f6ed22;fill-opacity:0.3;"/>
   </g>
   <g id="PolyCollection_3">
    <path clip-path="url(#p9ee7fcc8cd)" d="M 16.232727 151.628914 
L 16.232727 151.628914 
L 16.883338 151.628914 
L 17.533948 151.628914 
L 18.184558 151.628914 
L 18.835169 151.628914 
L 19.485779 151.628914 
L 20.136389 151.628914 
L 20.786999 151.628914 
L 21.43761 151.628914 
L 22.08822 151.628914 
L 22.73883 151.628914 
L 23.389441 151.628914 
L 24.040051 151.628914 
L 24.690661 151.628914 
L 25.341272 151.628914 
L 25.991882 151.628914 
L 26.642492 151.628914 
L 27.293103 151.628914 
L 27.943713 151.628914 
L 28.594323 151.628914 
L 29.244934 151.628914 
L 29.895544 151.628914 
L 30.546154 151.628914 
L 31.196764 151.628914 
L 31.847375 151.628914 
L 32.497985 151.628914 
L 33.148595 151.628914 
L 33.799206 151.628914 
L 34.449816 151.628914 
L 35.100426 151.628914 
L 35.751037 151.628914 
L 36.401647 151.628914 
L 37.052257 151.628914 
L 37.702868 151.628914 
L 38.353478 151.628914 
L 39.004088 151.628914 
L 39.654698 151.628914 
L 40.305309 151.628914 
L 40.955919 151.628914 
L 41.606529 151.628914 
L 42.25714 151.628914 
L 42.90775 151.628914 
L 43.55836 151.628914 
L 44.208971 151.628914 
L 44.859581 151.628914 
L 45.510191 151.628914 
L 46.160802 151.628914 
L 46.811412 151.628914 
L 47.462022 151.628914 
L 48.112633 151.628914 
L 48.763243 151.628914 
L 49.413853 151.628914 
L 50.064463 151.628914 
L 50.715074 151.628914 
L 51.365684 151.628914 
L 52.016294 151.628914 
L 52.666905 151.628914 
L 53.317515 151.628914 
L 53.968125 151.628914 
L 54.618736 151.628914 
L 55.269346 151.628914 
L 55.919956 151.628914 
L 56.570567 151.628914 
L 57.221177 151.628914 
L 57.871787 151.628914 
L 58.522398 151.628914 
L 59.173008 151.628914 
L 59.823618 151.628914 
L 60.474228 151.628914 
L 61.124839 151.628914 
L 61.775449 151.628914 
L 62.426059 151.628914 
L 63.07667 151.628914 
L 63.72728 151.628914 
L 64.37789 151.628914 
L 65.028501 151.628914 
L 65.679111 151.628914 
L 66.329721 151.628914 
L 66.980332 151.628914 
L 67.630942 151.628914 
L 68.281552 151.628914 
L 68.932163 151.628914 
L 69.582773 151.628914 
L 70.233383 151.628914 
L 70.883993 151.628914 
L 71.534604 151.628914 
L 72.185214 151.628914 
L 72.835824 151.628914 
L 73.486435 151.628914 
L 74.137045 151.628914 
L 74.787655 151.628914 
L 75.438266 151.628914 
L 76.088876 151.628914 
L 76.739486 151.628914 
L 77.390097 151.628914 
L 78.040707 151.628914 
L 78.691317 151.628914 
L 79.341927 151.628914 
L 79.992538 151.628914 
L 80.643148 151.628914 
L 81.293758 151.628914 
L 81.944369 151.628914 
L 82.594979 151.628914 
L 83.245589 151.628914 
L 83.8962 151.628914 
L 84.54681 151.628914 
L 85.19742 151.628914 
L 85.848031 151.628914 
L 86.498641 151.628914 
L 87.149251 151.628914 
L 87.799862 151.628914 
L 88.450472 151.628914 
L 89.101082 151.628914 
L 89.751692 151.628914 
L 90.402303 151.628914 
L 91.052913 151.628914 
L 91.703523 151.628914 
L 92.354134 151.628914 
L 93.004744 151.628914 
L 93.655354 151.628914 
L 94.305965 151.628914 
L 94.956575 151.628914 
L 95.607185 151.628914 
L 96.257796 151.628914 
L 96.908406 151.628914 
L 97.559016 151.628914 
L 98.209627 151.628914 
L 98.860237 151.628914 
L 99.510847 151.628914 
L 100.161457 151.628914 
L 100.812068 151.628914 
L 101.462678 151.628914 
L 102.113288 151.628914 
L 102.763899 151.628914 
L 103.414509 151.628914 
L 104.065119 151.628914 
L 104.71573 151.628914 
L 105.36634 151.628914 
L 106.01695 151.628914 
L 106.667561 151.628914 
L 107.318171 151.628914 
L 107.968781 151.628914 
L 108.619392 151.628914 
L 109.270002 151.628914 
L 109.920612 151.628914 
L 110.571222 151.628914 
L 111.221833 151.628914 
L 111.872443 151.628914 
L 112.523053 151.628914 
L 113.173664 151.628914 
L 113.824274 151.628914 
L 114.474884 151.628914 
L 115.125495 151.628914 
L 115.776105 151.628914 
L 116.426715 151.628914 
L 117.077326 151.628914 
L 117.727936 151.628914 
L 118.378546 151.628914 
L 119.029156 151.628914 
L 119.679767 151.628914 
L 120.330377 151.628914 
L 120.980987 151.628914 
L 121.631598 151.628914 
L 122.282208 151.628914 
L 122.932818 151.628914 
L 123.583429 151.628914 
L 124.234039 151.628914 
L 124.884649 151.628914 
L 125.53526 151.628914 
L 126.18587 151.628914 
L 126.83648 151.628914 
L 127.487091 151.628914 
L 128.137701 151.628914 
L 128.788311 151.628914 
L 129.438921 151.628914 
L 130.089532 151.628914 
L 130.740142 151.628914 
L 131.390752 151.628914 
L 132.041363 151.628914 
L 132.691973 151.628914 
L 133.342583 151.628914 
L 133.993194 151.628914 
L 134.643804 151.628914 
L 135.294414 151.628914 
L 135.945025 151.628914 
L 136.595635 151.628914 
L 137.246245 151.628914 
L 137.896856 151.628914 
L 138.547466 151.628914 
L 139.198076 151.628914 
L 139.848686 151.628914 
L 140.499297 151.628914 
L 141.149907 151.628914 
L 141.800517 151.628914 
L 142.451128 151.628914 
L 143.101738 151.628914 
L 143.752348 151.628914 
L 144.402959 151.628914 
L 145.053569 151.628914 
L 145.704179 151.628914 
L 146.35479 151.628914 
L 147.0054 151.628914 
L 147.65601 151.628914 
L 148.306621 151.628914 
L 148.957231 151.628914 
L 149.607841 151.628914 
L 150.258451 151.628914 
L 150.909062 151.628914 
L 151.559672 151.628914 
L 152.210282 151.628914 
L 152.860893 151.628914 
L 153.511503 151.628914 
L 154.162113 151.628914 
L 154.812724 151.628914 
L 155.463334 151.628914 
L 156.113944 151.628914 
L 156.764555 151.628914 
L 157.415165 151.628914 
L 158.065775 151.628914 
L 158.716385 151.628914 
L 159.366996 151.628914 
L 160.017606 151.628914 
L 160.668216 151.628914 
L 161.318827 151.628914 
L 161.969437 151.628914 
L 162.620047 151.628914 
L 163.270658 151.628914 
L 163.921268 151.628914 
L 164.571878 151.628914 
L 165.222489 151.628914 
L 165.873099 151.628914 
L 166.523709 151.628914 
L 167.17432 151.628914 
L 167.82493 151.628914 
L 168.47554 151.628914 
L 169.12615 151.628914 
L 169.776761 151.628914 
L 170.427371 151.628914 
L 171.077981 151.628914 
L 171.728592 151.628914 
L 172.379202 151.628914 
L 173.029812 151.628914 
L 173.680423 151.628914 
L 174.331033 151.628914 
L 174.981643 151.628914 
L 175.632254 151.628914 
L 176.282864 151.628914 
L 176.933474 151.628914 
L 177.584085 151.628914 
L 178.234695 151.628914 
L 178.885305 151.628914 
L 179.535915 151.628914 
L 180.186526 151.628914 
L 180.837136 151.628914 
L 181.487746 151.628914 
L 182.138357 151.628914 
L 182.788967 151.628914 
L 183.439577 151.628914 
L 184.090188 151.628914 
L 184.740798 151.628914 
L 185.391408 151.628914 
L 186.042019 151.628914 
L 186.692629 151.628914 
L 187.343239 151.628914 
L 187.99385 151.628914 
L 188.64446 151.628914 
L 189.29507 151.628914 
L 189.94568 151.628914 
L 190.596291 151.628914 
L 191.246901 151.628914 
L 191.897511 151.628914 
L 192.548122 151.628914 
L 193.198732 151.628914 
L 193.849342 151.628914 
L 194.499953 151.628914 
L 195.150563 151.628914 
L 195.801173 151.628914 
L 196.451784 151.628914 
L 197.102394 151.628914 
L 197.753004 151.628914 
L 198.403615 151.628914 
L 199.054225 151.628914 
L 199.704835 151.628914 
L 200.355445 151.628914 
L 201.006056 151.628914 
L 201.656666 151.628914 
L 202.307276 151.628914 
L 202.957887 151.628914 
L 203.608497 151.628914 
L 204.259107 151.628914 
L 204.909718 151.628914 
L 205.560328 151.628914 
L 206.210938 151.628914 
L 206.861549 151.628914 
L 207.512159 151.628914 
L 208.162769 151.628914 
L 208.813379 151.628914 
L 209.46399 151.628914 
L 210.1146 151.628914 
L 210.76521 151.628914 
L 211.415821 151.628914 
L 212.066431 151.628914 
L 212.717041 151.628914 
L 213.367652 151.628914 
L 214.018262 151.628914 
L 214.668872 151.628914 
L 215.319483 151.628914 
L 215.970093 151.628914 
L 216.620703 151.628914 
L 217.271314 151.628914 
L 217.921924 151.628914 
L 218.572534 151.628914 
L 219.223144 151.628914 
L 219.873755 151.628914 
L 220.524365 151.628914 
L 221.174975 151.628914 
L 221.825586 151.628914 
L 222.476196 151.628914 
L 223.126806 151.628914 
L 223.777417 151.628914 
L 224.428027 151.628914 
L 225.078637 151.628914 
L 225.729248 151.628914 
L 226.379858 151.628914 
L 227.030468 151.628914 
L 227.681079 151.628914 
L 228.331689 151.628914 
L 228.982299 151.628914 
L 229.632909 151.628914 
L 230.28352 151.628914 
L 230.93413 151.628914 
L 231.58474 151.628914 
L 232.235351 151.628914 
L 232.885961 151.628914 
L 233.536571 151.628914 
L 234.187182 151.628914 
L 234.837792 151.628914 
L 235.488402 151.628914 
L 236.139013 151.628914 
L 236.789623 151.628914 
L 237.440233 151.628914 
L 238.090844 151.628914 
L 238.741454 151.628914 
L 239.392064 151.628914 
L 240.042674 151.628914 
L 240.693285 151.628914 
L 241.343895 151.628914 
L 241.994505 151.628914 
L 242.645116 151.628914 
L 243.295726 151.628914 
L 243.946336 151.628914 
L 244.596947 151.628914 
L 245.247557 151.628914 
L 245.898167 151.628914 
L 246.548778 151.628914 
L 247.199388 151.628914 
L 247.849998 151.628914 
L 248.500608 151.628914 
L 249.151219 151.628914 
L 249.801829 151.628914 
L 250.452439 151.628914 
L 251.10305 151.628914 
L 251.75366 151.628914 
L 252.40427 151.628914 
L 253.054881 151.628914 
L 253.705491 151.628914 
L 254.356101 151.628914 
L 255.006712 151.628914 
L 255.657322 151.628914 
L 256.307932 151.628914 
L 256.958543 151.628914 
L 257.609153 151.628914 
L 258.259763 151.628914 
L 258.910373 151.628914 
L 259.560984 151.628914 
L 260.211594 151.628914 
L 260.862204 151.628914 
L 261.512815 151.628914 
L 262.163425 151.628914 
L 262.814035 151.628914 
L 263.464646 151.628914 
L 264.115256 151.628914 
L 264.765866 151.628914 
L 265.416477 151.628914 
L 266.067087 151.628914 
L 266.717697 151.628914 
L 267.368308 151.628914 
L 268.018918 151.628914 
L 268.669528 151.628914 
L 269.320138 151.628914 
L 269.970749 151.628914 
L 270.621359 151.628914 
L 271.271969 151.628914 
L 271.92258 151.628914 
L 272.57319 151.628914 
L 273.2238 151.628914 
L 273.874411 151.628914 
L 274.525021 151.628914 
L 275.175631 151.628914 
L 275.826242 151.628914 
L 276.476852 151.628914 
L 277.127462 151.628914 
L 277.778073 151.628914 
L 278.428683 151.628914 
L 279.079293 151.628914 
L 279.729903 151.628914 
L 280.380514 151.628914 
L 281.031124 151.628914 
L 281.681734 151.628914 
L 282.332345 151.628914 
L 282.982955 151.628914 
L 283.633565 151.628914 
L 284.284176 151.628914 
L 284.934786 151.628914 
L 285.585396 151.628914 
L 286.236007 151.628914 
L 286.886617 151.628914 
L 287.537227 151.628914 
L 288.187837 151.628914 
L 288.838448 151.628914 
L 289.489058 151.628914 
L 290.139668 151.628914 
L 290.790279 151.628914 
L 291.440889 151.628914 
L 292.091499 151.628914 
L 292.74211 151.628914 
L 293.39272 151.628914 
L 294.04333 151.628914 
L 294.693941 151.628914 
L 295.344551 151.628914 
L 295.995161 151.628914 
L 296.645772 151.628914 
L 297.296382 151.628914 
L 297.946992 151.628914 
L 298.597602 151.628914 
L 299.248213 151.628914 
L 299.898823 151.628914 
L 300.549433 151.628914 
L 301.200044 151.628914 
L 301.850654 151.628914 
L 302.501264 151.628914 
L 303.151875 151.628914 
L 303.802485 151.628914 
L 304.453095 151.628914 
L 305.103706 151.628914 
L 305.754316 151.628914 
L 306.404926 151.628914 
L 307.055537 151.628914 
L 307.706147 151.628914 
L 308.356757 151.628914 
L 309.007367 151.628914 
L 309.657978 151.628914 
L 310.308588 151.628914 
L 310.959198 151.628914 
L 311.609809 151.628914 
L 312.260419 151.628914 
L 312.911029 151.628914 
L 313.56164 151.628914 
L 314.21225 151.628914 
L 314.86286 151.628914 
L 315.513471 151.628914 
L 316.164081 151.628914 
L 316.814691 151.628914 
L 317.465302 151.628914 
L 318.115912 151.628914 
L 318.766522 151.628914 
L 319.417132 151.628914 
L 320.067743 151.628914 
L 320.718353 151.628914 
L 321.368963 151.628914 
L 322.019574 151.628914 
L 322.670184 151.628914 
L 323.320794 151.628914 
L 323.971405 151.628914 
L 324.622015 151.628914 
L 325.272625 151.628914 
L 325.923236 151.628914 
L 326.573846 151.628914 
L 327.224456 151.628914 
L 327.875066 151.628914 
L 328.525677 151.628914 
L 329.176287 151.628914 
L 329.826897 151.628914 
L 330.477508 151.628914 
L 331.128118 151.628914 
L 331.778728 151.628914 
L 332.429339 151.628914 
L 333.079949 151.628914 
L 333.730559 151.628914 
L 334.38117 151.628914 
L 335.03178 151.628914 
L 335.68239 151.628914 
L 336.333001 151.628914 
L 336.983611 151.628914 
L 337.634221 151.628914 
L 338.284831 151.628914 
L 338.935442 151.628914 
L 339.586052 151.628914 
L 340.236662 151.628914 
L 340.887273 151.628914 
L 340.887273 114.483086 
L 340.887273 114.483086 
L 340.236662 114.483086 
L 339.586052 114.483086 
L 338.935442 114.483086 
L 338.284831 114.483086 
L 337.634221 114.483086 
L 336.983611 114.483086 
L 336.333001 114.483086 
L 335.68239 114.483086 
L 335.03178 114.483086 
L 334.38117 114.483086 
L 333.730559 114.483086 
L 333.079949 114.483086 
L 332.429339 114.483086 
L 331.778728 114.483086 
L 331.128118 114.483086 
L 330.477508 114.483086 
L 329.826897 114.483086 
L 329.176287 114.483086 
L 328.525677 114.483086 
L 327.875066 114.483086 
L 327.224456 114.483086 
L 326.573846 114.483086 
L 325.923236 114.483086 
L 325.272625 114.483086 
L 324.622015 114.483086 
L 323.971405 114.483086 
L 323.320794 114.483086 
L 322.670184 114.483086 
L 322.019574 114.483086 
L 321.368963 114.483086 
L 320.718353 114.483086 
L 320.067743 114.483086 
L 319.417132 114.483086 
L 318.766522 114.483086 
L 318.115912 114.483086 
L 317.465302 114.483086 
L 316.814691 114.483086 
L 316.164081 114.483086 
L 315.513471 114.483086 
L 314.86286 114.483086 
L 314.21225 114.483086 
L 313.56164 114.483086 
L 312.911029 114.483086 
L 312.260419 114.483086 
L 311.609809 114.483086 
L 310.959198 114.483086 
L 310.308588 114.483086 
L 309.657978 114.483086 
L 309.007367 114.483086 
L 308.356757 114.483086 
L 307.706147 114.483086 
L 307.055537 114.483086 
L 306.404926 114.483086 
L 305.754316 114.483086 
L 305.103706 114.483086 
L 304.453095 114.483086 
L 303.802485 114.483086 
L 303.151875 114.483086 
L 302.501264 114.483086 
L 301.850654 114.483086 
L 301.200044 114.483086 
L 300.549433 114.483086 
L 299.898823 114.483086 
L 299.248213 114.483086 
L 298.597602 114.483086 
L 297.946992 114.483086 
L 297.296382 114.483086 
L 296.645772 114.483086 
L 295.995161 114.483086 
L 295.344551 114.483086 
L 294.693941 114.483086 
L 294.04333 114.483086 
L 293.39272 114.483086 
L 292.74211 114.483086 
L 292.091499 114.483086 
L 291.440889 114.483086 
L 290.790279 114.483086 
L 290.139668 114.483086 
L 289.489058 114.483086 
L 288.838448 114.483086 
L 288.187837 114.483086 
L 287.537227 114.483086 
L 286.886617 114.483086 
L 286.236007 114.483086 
L 285.585396 114.483086 
L 284.934786 114.483086 
L 284.284176 114.483086 
L 283.633565 114.483086 
L 282.982955 114.483086 
L 282.332345 114.483086 
L 281.681734 114.483086 
L 281.031124 114.483086 
L 280.380514 114.483086 
L 279.729903 114.483086 
L 279.079293 114.483086 
L 278.428683 114.483086 
L 277.778073 114.483086 
L 277.127462 114.483086 
L 276.476852 114.483086 
L 275.826242 114.483086 
L 275.175631 114.483086 
L 274.525021 114.483086 
L 273.874411 114.483086 
L 273.2238 114.483086 
L 272.57319 114.483086 
L 271.92258 114.483086 
L 271.271969 114.483086 
L 270.621359 114.483086 
L 269.970749 114.483086 
L 269.320138 114.483086 
L 268.669528 114.483086 
L 268.018918 114.483086 
L 267.368308 114.483086 
L 266.717697 114.483086 
L 266.067087 114.483086 
L 265.416477 114.483086 
L 264.765866 114.483086 
L 264.115256 114.483086 
L 263.464646 114.483086 
L 262.814035 114.483086 
L 262.163425 114.483086 
L 261.512815 114.483086 
L 260.862204 114.483086 
L 260.211594 114.483086 
L 259.560984 114.483086 
L 258.910373 114.483086 
L 258.259763 114.483086 
L 257.609153 114.483086 
L 256.958543 114.483086 
L 256.307932 114.483086 
L 255.657322 114.483086 
L 255.006712 114.483086 
L 254.356101 114.483086 
L 253.705491 114.483086 
L 253.054881 114.483086 
L 252.40427 114.483086 
L 251.75366 114.483086 
L 251.10305 114.483086 
L 250.452439 114.483086 
L 249.801829 114.483086 
L 249.151219 114.483086 
L 248.500608 114.483086 
L 247.849998 114.483086 
L 247.199388 114.483086 
L 246.548778 114.483086 
L 245.898167 114.483086 
L 245.247557 114.483086 
L 244.596947 114.483086 
L 243.946336 114.483086 
L 243.295726 114.483086 
L 242.645116 114.483086 
L 241.994505 114.483086 
L 241.343895 114.483086 
L 240.693285 114.483086 
L 240.042674 114.483086 
L 239.392064 114.483086 
L 238.741454 114.483086 
L 238.090844 114.483086 
L 237.440233 114.483086 
L 236.789623 114.483086 
L 236.139013 114.483086 
L 235.488402 114.483086 
L 234.837792 114.483086 
L 234.187182 114.483086 
L 233.536571 114.483086 
L 232.885961 114.483086 
L 232.235351 114.483086 
L 231.58474 114.483086 
L 230.93413 114.483086 
L 230.28352 114.483086 
L 229.632909 114.483086 
L 228.982299 114.483086 
L 228.331689 114.483086 
L 227.681079 114.483086 
L 227.030468 114.483086 
L 226.379858 114.483086 
L 225.729248 114.483086 
L 225.078637 114.483086 
L 224.428027 114.483086 
L 223.777417 114.483086 
L 223.126806 114.483086 
L 222.476196 114.483086 
L 221.825586 114.483086 
L 221.174975 114.483086 
L 220.524365 114.483086 
L 219.873755 114.483086 
L 219.223144 114.483086 
L 218.572534 114.483086 
L 217.921924 114.483086 
L 217.271314 114.483086 
L 216.620703 114.483086 
L 215.970093 114.483086 
L 215.319483 114.483086 
L 214.668872 114.483086 
L 214.018262 114.483086 
L 213.367652 114.483086 
L 212.717041 114.483086 
L 212.066431 114.483086 
L 211.415821 114.483086 
L 210.76521 114.483086 
L 210.1146 114.483086 
L 209.46399 114.483086 
L 208.813379 114.483086 
L 208.162769 114.483086 
L 207.512159 114.483086 
L 206.861549 114.483086 
L 206.210938 114.483086 
L 205.560328 114.483086 
L 204.909718 114.483086 
L 204.259107 114.483086 
L 203.608497 114.483086 
L 202.957887 114.483086 
L 202.307276 114.483086 
L 201.656666 114.483086 
L 201.006056 114.483086 
L 200.355445 114.483086 
L 199.704835 114.483086 
L 199.054225 114.483086 
L 198.403615 114.483086 
L 197.753004 114.483086 
L 197.102394 114.483086 
L 196.451784 114.483086 
L 195.801173 114.483086 
L 195.150563 114.483086 
L 194.499953 114.483086 
L 193.849342 114.483086 
L 193.198732 114.483086 
L 192.548122 114.483086 
L 191.897511 114.483086 
L 191.246901 114.483086 
L 190.596291 114.483086 
L 189.94568 114.483086 
L 189.29507 114.483086 
L 188.64446 114.483086 
L 187.99385 114.483086 
L 187.343239 114.483086 
L 186.692629 114.483086 
L 186.042019 114.483086 
L 185.391408 114.483086 
L 184.740798 114.483086 
L 184.090188 114.483086 
L 183.439577 114.483086 
L 182.788967 114.483086 
L 182.138357 114.483086 
L 181.487746 114.483086 
L 180.837136 114.483086 
L 180.186526 114.483086 
L 179.535915 114.483086 
L 178.885305 114.483086 
L 178.234695 114.483086 
L 177.584085 114.483086 
L 176.933474 114.483086 
L 176.282864 114.483086 
L 175.632254 114.483086 
L 174.981643 114.483086 
L 174.331033 114.483086 
L 173.680423 114.483086 
L 173.029812 114.483086 
L 172.379202 114.483086 
L 171.728592 114.483086 
L 171.077981 114.483086 
L 170.427371 114.483086 
L 169.776761 114.483086 
L 169.12615 114.483086 
L 168.47554 114.483086 
L 167.82493 114.483086 
L 167.17432 114.483086 
L 166.523709 114.483086 
L 165.873099 114.483086 
L 165.222489 114.483086 
L 164.571878 114.483086 
L 163.921268 114.483086 
L 163.270658 114.483086 
L 162.620047 114.483086 
L 161.969437 114.483086 
L 161.318827 114.483087 
L 160.668216 114.483087 
L 160.017606 114.483087 
L 159.366996 114.483088 
L 158.716385 114.483088 
L 158.065775 114.483088 
L 157.415165 114.483089 
L 156.764555 114.483089 
L 156.113944 114.483089 
L 155.463334 114.48309 
L 154.812724 114.48309 
L 154.162113 114.48309 
L 153.511503 114.483091 
L 152.860893 114.483091 
L 152.210282 114.483091 
L 151.559672 114.483091 
L 150.909062 114.483092 
L 150.258451 114.483092 
L 149.607841 114.483092 
L 148.957231 114.483093 
L 148.306621 114.483093 
L 147.65601 114.483093 
L 147.0054 114.483093 
L 146.35479 114.483094 
L 145.704179 114.483094 
L 145.053569 114.483094 
L 144.402959 114.483094 
L 143.752348 114.483094 
L 143.101738 114.483093 
L 142.451128 114.483093 
L 141.800517 114.483093 
L 141.149907 114.483092 
L 140.499297 114.483092 
L 139.848686 114.483092 
L 139.198076 114.483091 
L 138.547466 114.483091 
L 137.896856 114.483091 
L 137.246245 114.48309 
L 136.595635 114.48309 
L 135.945025 114.483093 
L 135.294414 114.4831 
L 134.643804 114.483106 
L 133.993194 114.483113 
L 133.342583 114.48312 
L 132.691973 114.483127 
L 132.041363 114.483134 
L 131.390752 114.483141 
L 130.740142 114.483147 
L 130.089532 114.483154 
L 129.438921 114.483161 
L 128.788311 114.483168 
L 128.137701 114.483175 
L 127.487091 114.483181 
L 126.83648 114.484384 
L 126.18587 114.492956 
L 125.53526 114.501528 
L 124.884649 114.510101 
L 124.234039 114.518673 
L 123.583429 114.527245 
L 122.932818 114.535818 
L 122.282208 114.54439 
L 121.631598 114.552962 
L 120.980987 114.561534 
L 120.330377 114.570107 
L 119.679767 114.578679 
L 119.029156 114.587251 
L 118.378546 114.595823 
L 117.727936 114.604396 
L 117.077326 114.664019 
L 116.426715 114.731532 
L 115.776105 114.799045 
L 115.125495 114.866559 
L 114.474884 114.934072 
L 113.824274 115.001586 
L 113.173664 115.069099 
L 112.523053 115.136612 
L 111.872443 115.204126 
L 111.221833 115.271639 
L 110.571222 115.339152 
L 109.920612 115.406666 
L 109.270002 115.474179 
L 108.619392 115.541693 
L 107.968781 117.065832 
L 107.318171 119.59105 
L 106.667561 122.116269 
L 106.01695 124.641487 
L 105.36634 127.166706 
L 104.71573 129.691924 
L 104.065119 132.217142 
L 103.414509 134.742361 
L 102.763899 137.267579 
L 102.113288 139.792798 
L 101.462678 142.318016 
L 100.812068 144.843235 
L 100.161457 147.368453 
L 99.510847 149.893671 
L 98.860237 151.613145 
L 98.209627 151.614273 
L 97.559016 151.615401 
L 96.908406 151.616529 
L 96.257796 151.617657 
L 95.607185 151.618785 
L 94.956575 151.619913 
L 94.305965 151.621041 
L 93.655354 151.622169 
L 93.004744 151.623297 
L 92.354134 151.624425 
L 91.703523 151.625553 
L 91.052913 151.626682 
L 90.402303 151.62781 
L 89.751692 151.628886 
L 89.101082 151.628886 
L 88.450472 151.628887 
L 87.799862 151.628887 
L 87.149251 151.628887 
L 86.498641 151.628887 
L 85.848031 151.628888 
L 85.19742 151.628888 
L 84.54681 151.628888 
L 83.8962 151.628889 
L 83.245589 151.628889 
L 82.594979 151.628889 
L 81.944369 151.628889 
L 81.293758 151.62889 
L 80.643148 151.62889 
L 79.992538 151.628891 
L 79.341927 151.628893 
L 78.691317 151.628895 
L 78.040707 151.628896 
L 77.390097 151.628898 
L 76.739486 151.6289 
L 76.088876 151.628901 
L 75.438266 151.628903 
L 74.787655 151.628904 
L 74.137045 151.628906 
L 73.486435 151.628908 
L 72.835824 151.628909 
L 72.185214 151.628911 
L 71.534604 151.628913 
L 70.883993 151.628914 
L 70.233383 151.628914 
L 69.582773 151.628914 
L 68.932163 151.628914 
L 68.281552 151.628914 
L 67.630942 151.628914 
L 66.980332 151.628914 
L 66.329721 151.628914 
L 65.679111 151.628914 
L 65.028501 151.628914 
L 64.37789 151.628914 
L 63.72728 151.628914 
L 63.07667 151.628914 
L 62.426059 151.628914 
L 61.775449 151.628914 
L 61.124839 151.628914 
L 60.474228 151.628914 
L 59.823618 151.628914 
L 59.173008 151.628914 
L 58.522398 151.628914 
L 57.871787 151.628914 
L 57.221177 151.628914 
L 56.570567 151.628914 
L 55.919956 151.628914 
L 55.269346 151.628914 
L 54.618736 151.628914 
L 53.968125 151.628914 
L 53.317515 151.628914 
L 52.666905 151.628914 
L 52.016294 151.628914 
L 51.365684 151.628914 
L 50.715074 151.628914 
L 50.064463 151.628914 
L 49.413853 151.628914 
L 48.763243 151.628914 
L 48.112633 151.628913 
L 47.462022 151.628913 
L 46.811412 151.628913 
L 46.160802 151.628913 
L 45.510191 151.628913 
L 44.859581 151.628913 
L 44.208971 151.628913 
L 43.55836 151.628913 
L 42.90775 151.628913 
L 42.25714 151.628913 
L 41.606529 151.628913 
L 40.955919 151.628913 
L 40.305309 151.628913 
L 39.654698 151.628913 
L 39.004088 151.628913 
L 38.353478 151.628913 
L 37.702868 151.628913 
L 37.052257 151.628913 
L 36.401647 151.628913 
L 35.751037 151.628913 
L 35.100426 151.628913 
L 34.449816 151.628913 
L 33.799206 151.628913 
L 33.148595 151.628913 
L 32.497985 151.628913 
L 31.847375 151.628913 
L 31.196764 151.628913 
L 30.546154 151.628913 
L 29.895544 151.628913 
L 29.244934 151.628913 
L 28.594323 151.628913 
L 27.943713 151.628913 
L 27.293103 151.628913 
L 26.642492 151.628913 
L 25.991882 151.628913 
L 25.341272 151.628913 
L 24.690661 151.628913 
L 24.040051 151.628913 
L 23.389441 151.628913 
L 22.73883 151.628913 
L 22.08822 151.628913 
L 21.43761 151.628913 
L 20.786999 151.628913 
L 20.136389 151.628914 
L 19.485779 151.628914 
L 18.835169 151.628914 
L 18.184558 151.628914 
L 17.533948 151.628914 
L 16.883338 151.628914 
L 16.232727 151.628914 
z
" style="fill:#f15a24;fill-opacity:0.3;"/>
   </g>
   <g id="PathCollection_1">
    <defs>
     <path d="M 0 1.581139 
C 0.419323 1.581139 0.821528 1.41454 1.118034 1.118034 
C 1.41454 0.821528 1.581139 0.419323 1.581139 -0 
C 1.581139 -0.419323 1.41454 -0.821528 1.118034 -1.118034 
C 0.821528 -1.41454 0.419323 -1.581139 0 -1.581139 
C -0.419323 -1.581139 -0.821528 -1.41454 -1.118034 -1.118034 
C -1.41454 -0.821528 -1.581139 -0.419323 -1.581139 0 
C -1.581139 0.419323 -1.41454 0.821528 -1.118034 1.118034 
C -0.821528 1.41454 -0.419323 1.581139 0 1.581139 
z
" id="C0_0_27603514a0"/>
    </defs>
    <g clip-path="url(#p9ee7fcc8cd)">
     <use style="fill:#008000;stroke:#008000;stroke-width:0.5;" x="16.232727" xlink:href="#C0_0_27603514a0" y="114.483086"/>
    </g>
    <g clip-path="url(#p9ee7fcc8cd)">
     <use style="fill:#008000;stroke:#008000;stroke-width:0.5;" x="24.776268" xlink:href="#C0_0_27603514a0" y="114.483086"/>
    </g>
    <g clip-path="url(#p9ee7fcc8cd)">
     <use style="fill:#008000;stroke:#008000;stroke-width:0.5;" x="34.062725" xlink:href="#C0_0_27603514a0" y="114.483086"/>
    </g>
    <g clip-path="url(#p9ee7fcc8cd)">
     <use style="fill:#008000;stroke:#008000;stroke-width:0.5;" x="43.349182" xlink:href="#C0_0_27603514a0" y="114.483086"/>
    </g>
    <g clip-path="url(#p9ee7fcc8cd)">
     <use style="fill:#008000;stroke:#008000;stroke-width:0.5;" x="52.63564" xlink:href="#C0_0_27603514a0" y="114.483086"/>
    </g>
    <g clip-path="url(#p9ee7fcc8cd)">
     <use style="fill:#008000;stroke:#008000;stroke-width:0.5;" x="61.922097" xlink:href="#C0_0_27603514a0" y="114.483086"/>
    </g>
    <g clip-path="url(#p9ee7fcc8cd)">
     <use style="fill:#008000;stroke:#008000;stroke-width:0.5;" x="71.208554" xlink:href="#C0_0_27603514a0" y="114.48309"/>
    </g>
    <g clip-path="url(#p9ee7fcc8cd)">
     <use style="fill:#ffff00;stroke:#ffff00;stroke-width:0.5;" x="80.495011" xlink:href="#C0_0_27603514a0" y="115.117162"/>
    </g>
    <g clip-path="url(#p9ee7fcc8cd)">
     <use style="fill:#ffff00;stroke:#ffff00;stroke-width:0.5;" x="89.781469" xlink:href="#C0_0_27603514a0" y="114.528418"/>
    </g>
    <g clip-path="url(#p9ee7fcc8cd)">
     <use style="fill:#ffff00;stroke:#ffff00;stroke-width:0.5;" x="99.067926" xlink:href="#C0_0_27603514a0" y="114.516522"/>
    </g>
    <g clip-path="url(#p9ee7fcc8cd)">
     <use style="fill:#ff0000;stroke:#ff0000;stroke-width:0.5;" x="108.354383" xlink:href="#C0_0_27603514a0" y="115.569192"/>
    </g>
    <g clip-path="url(#p9ee7fcc8cd)">
     <use style="fill:#ff0000;stroke:#ff0000;stroke-width:0.5;" x="117.64084" xlink:href="#C0_0_27603514a0" y="114.605543"/>
    </g>
    <g clip-path="url(#p9ee7fcc8cd)">
     <use style="fill:#ff0000;stroke:#ff0000;stroke-width:0.5;" x="126.927298" xlink:href="#C0_0_27603514a0" y="114.483187"/>
    </g>
    <g clip-path="url(#p9ee7fcc8cd)">
     <use style="fill:#ff0000;stroke:#ff0000;stroke-width:0.5;" x="136.213755" xlink:href="#C0_0_27603514a0" y="114.48309"/>
    </g>
    <g clip-path="url(#p9ee7fcc8cd)">
     <use style="fill:#ff0000;stroke:#ff0000;stroke-width:0.5;" x="145.128754" xlink:href="#C0_0_27603514a0" y="114.483094"/>
    </g>
    <g clip-path="url(#p9ee7fcc8cd)">
     <use style="fill:#ff0000;stroke:#ff0000;stroke-width:0.5;" x="154.786669" xlink:href="#C0_0_27603514a0" y="114.48309"/>
    </g>
    <g clip-path="url(#p9ee7fcc8cd)">
     <use style="fill:#ff0000;stroke:#ff0000;stroke-width:0.5;" x="163.701668" xlink:href="#C0_0_27603514a0" y="114.483086"/>
    </g>
    <g clip-path="url(#p9ee7fcc8cd)">
     <use style="fill:#ff0000;stroke:#ff0000;stroke-width:0.5;" x="173.359584" xlink:href="#C0_0_27603514a0" y="114.483086"/>
    </g>
    <g clip-path="url(#p9ee7fcc8cd)">
     <use style="fill:#ff0000;stroke:#ff0000;stroke-width:0.5;" x="182.274583" xlink:href="#C0_0_27603514a0" y="114.483086"/>
    </g>
    <g clip-path="url(#p9ee7fcc8cd)">
     <use style="fill:#ff0000;stroke:#ff0000;stroke-width:0.5;" x="192.303957" xlink:href="#C0_0_27603514a0" y="114.483086"/>
    </g>
    <g clip-path="url(#p9ee7fcc8cd)">
     <use style="fill:#ff0000;stroke:#ff0000;stroke-width:0.5;" x="200.847497" xlink:href="#C0_0_27603514a0" y="114.483086"/>
    </g>
    <g clip-path="url(#p9ee7fcc8cd)">
     <use style="fill:#ff0000;stroke:#ff0000;stroke-width:0.5;" x="210.876871" xlink:href="#C0_0_27603514a0" y="114.483086"/>
    </g>
    <g clip-path="url(#p9ee7fcc8cd)">
     <use style="fill:#ff0000;stroke:#ff0000;stroke-width:0.5;" x="219.420412" xlink:href="#C0_0_27603514a0" y="114.483086"/>
    </g>
    <g clip-path="url(#p9ee7fcc8cd)">
     <use style="fill:#ff0000;stroke:#ff0000;stroke-width:0.5;" x="229.449786" xlink:href="#C0_0_27603514a0" y="114.483086"/>
    </g>
    <g clip-path="url(#p9ee7fcc8cd)">
     <use style="fill:#ff0000;stroke:#ff0000;stroke-width:0.5;" x="237.993326" xlink:href="#C0_0_27603514a0" y="114.483086"/>
    </g>
    <g clip-path="url(#p9ee7fcc8cd)">
     <use style="fill:#ff0000;stroke:#ff0000;stroke-width:0.5;" x="248.0227" xlink:href="#C0_0_27603514a0" y="114.483086"/>
    </g>
    <g clip-path="url(#p9ee7fcc8cd)">
     <use style="fill:#ff0000;stroke:#ff0000;stroke-width:0.5;" x="256.566241" xlink:href="#C0_0_27603514a0" y="114.483086"/>
    </g>
    <g clip-path="url(#p9ee7fcc8cd)">
     <use style="fill:#ff0000;stroke:#ff0000;stroke-width:0.5;" x="266.595615" xlink:href="#C0_0_27603514a0" y="114.483086"/>
    </g>
    <g clip-path="url(#p9ee7fcc8cd)">
     <use style="fill:#ff0000;stroke:#ff0000;stroke-width:0.5;" x="275.139155" xlink:href="#C0_0_27603514a0" y="114.483086"/>
    </g>
    <g clip-path="url(#p9ee7fcc8cd)">
     <use style="fill:#ff0000;stroke:#ff0000;stroke-width:0.5;" x="285.168529" xlink:href="#C0_0_27603514a0" y="114.483086"/>
    </g>
    <g clip-path="url(#p9ee7fcc8cd)">
     <use style="fill:#ff0000;stroke:#ff0000;stroke-width:0.5;" x="293.71207" xlink:href="#C0_0_27603514a0" y="114.483086"/>
    </g>
    <g clip-path="url(#p9ee7fcc8cd)">
     <use style="fill:#ff0000;stroke:#ff0000;stroke-width:0.5;" x="303.741444" xlink:href="#C0_0_27603514a0" y="114.483086"/>
    </g>
    <g clip-path="url(#p9ee7fcc8cd)">
     <use style="fill:#ff0000;stroke:#ff0000;stroke-width:0.5;" x="312.284984" xlink:href="#C0_0_27603514a0" y="114.483086"/>
    </g>
    <g clip-path="url(#p9ee7fcc8cd)">
     <use style="fill:#ff0000;stroke:#ff0000;stroke-width:0.5;" x="322.314358" xlink:href="#C0_0_27603514a0" y="114.483086"/>
    </g>
    <g clip-path="url(#p9ee7fcc8cd)">
     <use style="fill:#ff0000;stroke:#ff0000;stroke-width:0.5;" x="330.857899" xlink:href="#C0_0_27603514a0" y="114.483086"/>
    </g>
    <g clip-path="url(#p9ee7fcc8cd)">
     <use style="fill:#ff0000;stroke:#ff0000;stroke-width:0.5;" x="340.887273" xlink:href="#C0_0_27603514a0" y="114.483086"/>
    </g>
   </g>
   <g id="line2d_1">
    <path clip-path="url(#p9ee7fcc8cd)" d="M 16.232727 114.483086 
L 70.883993 114.48309 
L 71.534604 115.765026 
L 79.992538 149.019273 
L 80.643148 151.004251 
L 91.052913 151.587442 
L 101.462678 151.516634 
L 109.920612 151.291343 
L 122.932818 151.585513 
L 136.595635 151.628913 
L 340.887273 151.628913 
L 340.887273 151.628913 
" style="fill:none;stroke:#61c46e;stroke-linecap:square;"/>
   </g>
   <g id="line2d_2">
    <path clip-path="url(#p9ee7fcc8cd)" d="M 16.232727 151.628914 
L 70.883993 151.628911 
L 71.534604 150.346975 
L 79.992538 117.092748 
L 80.643148 115.107771 
L 91.052913 114.52679 
L 98.860237 114.516788 
L 99.510847 116.253202 
L 107.968781 149.416479 
L 108.619392 150.947784 
L 119.029156 151.610508 
L 174.331033 151.628914 
L 340.887273 151.628914 
L 340.887273 151.628914 
" style="fill:none;stroke:#f6ed22;stroke-linecap:square;"/>
   </g>
   <g id="line2d_3">
    <path clip-path="url(#p9ee7fcc8cd)" d="M 16.232727 151.628914 
L 98.860237 151.613145 
L 99.510847 149.893671 
L 107.968781 117.065832 
L 108.619392 115.541693 
L 118.378546 114.595823 
L 135.294414 114.4831 
L 340.887273 114.483086 
L 340.887273 114.483086 
" style="fill:none;stroke:#f15a24;stroke-linecap:square;"/>
   </g>
  </g>
 </g>
 <defs>
  <clipPath id="p9ee7fcc8cd">
   <rect height="266.112" width="357.12" x="0" y="-0"/>
  </clipPath>
 </defs>
</svg>
