<?xml version="1.0" encoding="utf-8" standalone="no"?>
<!DOCTYPE svg PUBLIC "-//W3C//DTD SVG 1.1//EN"
  "http://www.w3.org/Graphics/SVG/1.1/DTD/svg11.dtd">
<svg height="266.112pt" version="1.1" viewBox="0 0 357.12 266.112" width="357.12pt" xmlns="http://www.w3.org/2000/svg" xmlns:xlink="http://www.w3.org/1999/xlink">
 <metadata>
  <rdf:RDF xmlns:cc="http://creativecommons.org/ns#" xmlns:dc="http://purl.org/dc/elements/1.1/" xmlns:rdf="http://www.w3.org/1999/02/22-rdf-syntax-ns#">
   <cc:Work>
    <dc:type rdf:resource="http://purl.org/dc/dcmitype/StillImage"/>
    <dc:date>2022-07-08T00:27:21.690540</dc:date>
    <dc:format>image/svg+xml</dc:format>
    <dc:creator>
     <cc:Agent>
      <dc:title>Matplotlib v3.4.2, https://matplotlib.org/</dc:title>
     </cc:Agent>
    </dc:creator>
   </cc:Work>
  </rdf:RDF>
 </metadata>
 <defs>
  <style type="text/css">*{stroke-linecap:butt;stroke-linejoin:round;}</style>
 </defs>
 <g id="figure_1">
  <g id="patch_1">
   <path d="M 0 266.112 
L 357.12 266.112 
L 357.12 0 
L 0 0 
z
" style="fill:#ffffff;"/>
  </g>
  <g id="axes_1">
   <g id="PolyCollection_1">
    <path clip-path="url(#p80ac65fd0c)" d="M 16.232727 160.110111 
L 16.232727 160.110545 
L 16.883338 160.110545 
L 17.533948 160.110545 
L 18.184558 160.110545 
L 18.835169 160.110545 
L 19.485779 160.110545 
L 20.136389 160.110545 
L 20.786999 160.110545 
L 21.43761 160.110545 
L 22.08822 160.110545 
L 22.73883 160.110545 
L 23.389441 160.110545 
L 24.040051 160.110545 
L 24.690661 160.110545 
L 25.341272 160.110545 
L 25.991882 160.110545 
L 26.642492 160.110545 
L 27.293103 160.110545 
L 27.943713 160.110545 
L 28.594323 160.110545 
L 29.244934 160.110545 
L 29.895544 160.110545 
L 30.546154 160.110545 
L 31.196764 160.110545 
L 31.847375 160.110545 
L 32.497985 160.110545 
L 33.148595 160.110545 
L 33.799206 160.110545 
L 34.449816 160.110545 
L 35.100426 160.110545 
L 35.751037 160.110545 
L 36.401647 160.110545 
L 37.052257 160.110545 
L 37.702868 160.110545 
L 38.353478 160.110545 
L 39.004088 160.110545 
L 39.654698 160.110545 
L 40.305309 160.110545 
L 40.955919 160.110545 
L 41.606529 160.110545 
L 42.25714 160.110545 
L 42.90775 160.110545 
L 43.55836 160.110545 
L 44.208971 160.110545 
L 44.859581 160.110545 
L 45.510191 160.110545 
L 46.160802 160.110545 
L 46.811412 160.110545 
L 47.462022 160.110545 
L 48.112633 160.110545 
L 48.763243 160.110545 
L 49.413853 160.110545 
L 50.064463 160.110545 
L 50.715074 160.110545 
L 51.365684 160.110545 
L 52.016294 160.110545 
L 52.666905 160.110545 
L 53.317515 160.110545 
L 53.968125 160.110545 
L 54.618736 160.110545 
L 55.269346 160.110545 
L 55.919956 160.110545 
L 56.570567 160.110545 
L 57.221177 160.110545 
L 57.871787 160.110545 
L 58.522398 160.110545 
L 59.173008 160.110545 
L 59.823618 160.110545 
L 60.474228 160.110545 
L 61.124839 160.110545 
L 61.775449 160.110545 
L 62.426059 160.110545 
L 63.07667 160.110545 
L 63.72728 160.110545 
L 64.37789 160.110545 
L 65.028501 160.110545 
L 65.679111 160.110545 
L 66.329721 160.110545 
L 66.980332 160.110545 
L 67.630942 160.110545 
L 68.281552 160.110545 
L 68.932163 160.110545 
L 69.582773 160.110545 
L 70.233383 160.110545 
L 70.883993 160.110545 
L 71.534604 160.110545 
L 72.185214 160.110545 
L 72.835824 160.110545 
L 73.486435 160.110545 
L 74.137045 160.110545 
L 74.787655 160.110545 
L 75.438266 160.110545 
L 76.088876 160.110545 
L 76.739486 160.110545 
L 77.390097 160.110545 
L 78.040707 160.110545 
L 78.691317 160.110545 
L 79.341927 160.110545 
L 79.992538 160.110545 
L 80.643148 160.110545 
L 81.293758 160.110545 
L 81.944369 160.110545 
L 82.594979 160.110545 
L 83.245589 160.110545 
L 83.8962 160.110545 
L 84.54681 160.110545 
L 85.19742 160.110545 
L 85.848031 160.110545 
L 86.498641 160.110545 
L 87.149251 160.110545 
L 87.799862 160.110545 
L 88.450472 160.110545 
L 89.101082 160.110545 
L 89.751692 160.110545 
L 90.402303 160.110545 
L 91.052913 160.110545 
L 91.703523 160.110545 
L 92.354134 160.110545 
L 93.004744 160.110545 
L 93.655354 160.110545 
L 94.305965 160.110545 
L 94.956575 160.110545 
L 95.607185 160.110545 
L 96.257796 160.110545 
L 96.908406 160.110545 
L 97.559016 160.110545 
L 98.209627 160.110545 
L 98.860237 160.110545 
L 99.510847 160.110545 
L 100.161457 160.110545 
L 100.812068 160.110545 
L 101.462678 160.110545 
L 102.113288 160.110545 
L 102.763899 160.110545 
L 103.414509 160.110545 
L 104.065119 160.110545 
L 104.71573 160.110545 
L 105.36634 160.110545 
L 106.01695 160.110545 
L 106.667561 160.110545 
L 107.318171 160.110545 
L 107.968781 160.110545 
L 108.619392 160.110545 
L 109.270002 160.110545 
L 109.920612 160.110545 
L 110.571222 160.110545 
L 111.221833 160.110545 
L 111.872443 160.110545 
L 112.523053 160.110545 
L 113.173664 160.110545 
L 113.824274 160.110545 
L 114.474884 160.110545 
L 115.125495 160.110545 
L 115.776105 160.110545 
L 116.426715 160.110545 
L 117.077326 160.110545 
L 117.727936 160.110545 
L 118.378546 160.110545 
L 119.029156 160.110545 
L 119.679767 160.110545 
L 120.330377 160.110545 
L 120.980987 160.110545 
L 121.631598 160.110545 
L 122.282208 160.110545 
L 122.932818 160.110545 
L 123.583429 160.110545 
L 124.234039 160.110545 
L 124.884649 160.110545 
L 125.53526 160.110545 
L 126.18587 160.110545 
L 126.83648 160.110545 
L 127.487091 160.110545 
L 128.137701 160.110545 
L 128.788311 160.110545 
L 129.438921 160.110545 
L 130.089532 160.110545 
L 130.740142 160.110545 
L 131.390752 160.110545 
L 132.041363 160.110545 
L 132.691973 160.110545 
L 133.342583 160.110545 
L 133.993194 160.110545 
L 134.643804 160.110545 
L 135.294414 160.110545 
L 135.945025 160.110545 
L 136.595635 160.110545 
L 137.246245 160.110545 
L 137.896856 160.110545 
L 138.547466 160.110545 
L 139.198076 160.110545 
L 139.848686 160.110545 
L 140.499297 160.110545 
L 141.149907 160.110545 
L 141.800517 160.110545 
L 142.451128 160.110545 
L 143.101738 160.110545 
L 143.752348 160.110545 
L 144.402959 160.110545 
L 145.053569 160.110545 
L 145.704179 160.110545 
L 146.35479 160.110545 
L 147.0054 160.110545 
L 147.65601 160.110545 
L 148.306621 160.110545 
L 148.957231 160.110545 
L 149.607841 160.110545 
L 150.258451 160.110545 
L 150.909062 160.110545 
L 151.559672 160.110545 
L 152.210282 160.110545 
L 152.860893 160.110545 
L 153.511503 160.110545 
L 154.162113 160.110545 
L 154.812724 160.110545 
L 155.463334 160.110545 
L 156.113944 160.110545 
L 156.764555 160.110545 
L 157.415165 160.110545 
L 158.065775 160.110545 
L 158.716385 160.110545 
L 159.366996 160.110545 
L 160.017606 160.110545 
L 160.668216 160.110545 
L 161.318827 160.110545 
L 161.969437 160.110545 
L 162.620047 160.110545 
L 163.270658 160.110545 
L 163.921268 160.110545 
L 164.571878 160.110545 
L 165.222489 160.110545 
L 165.873099 160.110545 
L 166.523709 160.110545 
L 167.17432 160.110545 
L 167.82493 160.110545 
L 168.47554 160.110545 
L 169.12615 160.110545 
L 169.776761 160.110545 
L 170.427371 160.110545 
L 171.077981 160.110545 
L 171.728592 160.110545 
L 172.379202 160.110545 
L 173.029812 160.110545 
L 173.680423 160.110545 
L 174.331033 160.110545 
L 174.981643 160.110545 
L 175.632254 160.110545 
L 176.282864 160.110545 
L 176.933474 160.110545 
L 177.584085 160.110545 
L 178.234695 160.110545 
L 178.885305 160.110545 
L 179.535915 160.110545 
L 180.186526 160.110545 
L 180.837136 160.110545 
L 181.487746 160.110545 
L 182.138357 160.110545 
L 182.788967 160.110545 
L 183.439577 160.110545 
L 184.090188 160.110545 
L 184.740798 160.110545 
L 185.391408 160.110545 
L 186.042019 160.110545 
L 186.692629 160.110545 
L 187.343239 160.110545 
L 187.99385 160.110545 
L 188.64446 160.110545 
L 189.29507 160.110545 
L 189.94568 160.110545 
L 190.596291 160.110545 
L 191.246901 160.110545 
L 191.897511 160.110545 
L 192.548122 160.110545 
L 193.198732 160.110545 
L 193.849342 160.110545 
L 194.499953 160.110545 
L 195.150563 160.110545 
L 195.801173 160.110545 
L 196.451784 160.110545 
L 197.102394 160.110545 
L 197.753004 160.110545 
L 198.403615 160.110545 
L 199.054225 160.110545 
L 199.704835 160.110545 
L 200.355445 160.110545 
L 201.006056 160.110545 
L 201.656666 160.110545 
L 202.307276 160.110545 
L 202.957887 160.110545 
L 203.608497 160.110545 
L 204.259107 160.110545 
L 204.909718 160.110545 
L 205.560328 160.110545 
L 206.210938 160.110545 
L 206.861549 160.110545 
L 207.512159 160.110545 
L 208.162769 160.110545 
L 208.813379 160.110545 
L 209.46399 160.110545 
L 210.1146 160.110545 
L 210.76521 160.110545 
L 211.415821 160.110545 
L 212.066431 160.110545 
L 212.717041 160.110545 
L 213.367652 160.110545 
L 214.018262 160.110545 
L 214.668872 160.110545 
L 215.319483 160.110545 
L 215.970093 160.110545 
L 216.620703 160.110545 
L 217.271314 160.110545 
L 217.921924 160.110545 
L 218.572534 160.110545 
L 219.223144 160.110545 
L 219.873755 160.110545 
L 220.524365 160.110545 
L 221.174975 160.110545 
L 221.825586 160.110545 
L 222.476196 160.110545 
L 223.126806 160.110545 
L 223.777417 160.110545 
L 224.428027 160.110545 
L 225.078637 160.110545 
L 225.729248 160.110545 
L 226.379858 160.110545 
L 227.030468 160.110545 
L 227.681079 160.110545 
L 228.331689 160.110545 
L 228.982299 160.110545 
L 229.632909 160.110545 
L 230.28352 160.110545 
L 230.93413 160.110545 
L 231.58474 160.110545 
L 232.235351 160.110545 
L 232.885961 160.110545 
L 233.536571 160.110545 
L 234.187182 160.110545 
L 234.837792 160.110545 
L 235.488402 160.110545 
L 236.139013 160.110545 
L 236.789623 160.110545 
L 237.440233 160.110545 
L 238.090844 160.110545 
L 238.741454 160.110545 
L 239.392064 160.110545 
L 240.042674 160.110545 
L 240.693285 160.110545 
L 241.343895 160.110545 
L 241.994505 160.110545 
L 242.645116 160.110545 
L 243.295726 160.110545 
L 243.946336 160.110545 
L 244.596947 160.110545 
L 245.247557 160.110545 
L 245.898167 160.110545 
L 246.548778 160.110545 
L 247.199388 160.110545 
L 247.849998 160.110545 
L 248.500608 160.110545 
L 249.151219 160.110545 
L 249.801829 160.110545 
L 250.452439 160.110545 
L 251.10305 160.110545 
L 251.75366 160.110545 
L 252.40427 160.110545 
L 253.054881 160.110545 
L 253.705491 160.110545 
L 254.356101 160.110545 
L 255.006712 160.110545 
L 255.657322 160.110545 
L 256.307932 160.110545 
L 256.958543 160.110545 
L 257.609153 160.110545 
L 258.259763 160.110545 
L 258.910373 160.110545 
L 259.560984 160.110545 
L 260.211594 160.110545 
L 260.862204 160.110545 
L 261.512815 160.110545 
L 262.163425 160.110545 
L 262.814035 160.110545 
L 263.464646 160.110545 
L 264.115256 160.110545 
L 264.765866 160.110545 
L 265.416477 160.110545 
L 266.067087 160.110545 
L 266.717697 160.110545 
L 267.368308 160.110545 
L 268.018918 160.110545 
L 268.669528 160.110545 
L 269.320138 160.110545 
L 269.970749 160.110545 
L 270.621359 160.110545 
L 271.271969 160.110545 
L 271.92258 160.110545 
L 272.57319 160.110545 
L 273.2238 160.110545 
L 273.874411 160.110545 
L 274.525021 160.110545 
L 275.175631 160.110545 
L 275.826242 160.110545 
L 276.476852 160.110545 
L 277.127462 160.110545 
L 277.778073 160.110545 
L 278.428683 160.110545 
L 279.079293 160.110545 
L 279.729903 160.110545 
L 280.380514 160.110545 
L 281.031124 160.110545 
L 281.681734 160.110545 
L 282.332345 160.110545 
L 282.982955 160.110545 
L 283.633565 160.110545 
L 284.284176 160.110545 
L 284.934786 160.110545 
L 285.585396 160.110545 
L 286.236007 160.110545 
L 286.886617 160.110545 
L 287.537227 160.110545 
L 288.187837 160.110545 
L 288.838448 160.110545 
L 289.489058 160.110545 
L 290.139668 160.110545 
L 290.790279 160.110545 
L 291.440889 160.110545 
L 292.091499 160.110545 
L 292.74211 160.110545 
L 293.39272 160.110545 
L 294.04333 160.110545 
L 294.693941 160.110545 
L 295.344551 160.110545 
L 295.995161 160.110545 
L 296.645772 160.110545 
L 297.296382 160.110545 
L 297.946992 160.110545 
L 298.597602 160.110545 
L 299.248213 160.110545 
L 299.898823 160.110545 
L 300.549433 160.110545 
L 301.200044 160.110545 
L 301.850654 160.110545 
L 302.501264 160.110545 
L 303.151875 160.110545 
L 303.802485 160.110545 
L 304.453095 160.110545 
L 305.103706 160.110545 
L 305.754316 160.110545 
L 306.404926 160.110545 
L 307.055537 160.110545 
L 307.706147 160.110545 
L 308.356757 160.110545 
L 309.007367 160.110545 
L 309.657978 160.110545 
L 310.308588 160.110545 
L 310.959198 160.110545 
L 311.609809 160.110545 
L 312.260419 160.110545 
L 312.911029 160.110545 
L 313.56164 160.110545 
L 314.21225 160.110545 
L 314.86286 160.110545 
L 315.513471 160.110545 
L 316.164081 160.110545 
L 316.814691 160.110545 
L 317.465302 160.110545 
L 318.115912 160.110545 
L 318.766522 160.110545 
L 319.417132 160.110545 
L 320.067743 160.110545 
L 320.718353 160.110545 
L 321.368963 160.110545 
L 322.019574 160.110545 
L 322.670184 160.110545 
L 323.320794 160.110545 
L 323.971405 160.110545 
L 324.622015 160.110545 
L 325.272625 160.110545 
L 325.923236 160.110545 
L 326.573846 160.110545 
L 327.224456 160.110545 
L 327.875066 160.110545 
L 328.525677 160.110545 
L 329.176287 160.110545 
L 329.826897 160.110545 
L 330.477508 160.110545 
L 331.128118 160.110545 
L 331.778728 160.110545 
L 332.429339 160.110545 
L 333.079949 160.110545 
L 333.730559 160.110545 
L 334.38117 160.110545 
L 335.03178 160.110545 
L 335.68239 160.110545 
L 336.333001 160.110545 
L 336.983611 160.110545 
L 337.634221 160.110545 
L 338.284831 160.110545 
L 338.935442 160.110545 
L 339.586052 160.110545 
L 340.236662 160.110545 
L 340.887273 160.110545 
L 340.887273 160.110545 
L 340.887273 160.110545 
L 340.236662 160.110519 
L 339.586052 160.110493 
L 338.935442 160.110467 
L 338.284831 160.110441 
L 337.634221 160.110416 
L 336.983611 160.11039 
L 336.333001 160.110364 
L 335.68239 160.110338 
L 335.03178 160.110312 
L 334.38117 160.110287 
L 333.730559 160.110261 
L 333.079949 160.110235 
L 332.429339 160.110209 
L 331.778728 160.110183 
L 331.128118 160.110158 
L 330.477508 160.110132 
L 329.826897 160.110106 
L 329.176287 160.11008 
L 328.525677 160.110054 
L 327.875066 160.110029 
L 327.224456 160.110003 
L 326.573846 160.109977 
L 325.923236 160.109982 
L 325.272625 160.110011 
L 324.622015 160.110041 
L 323.971405 160.110071 
L 323.320794 160.110101 
L 322.670184 160.110131 
L 322.019574 160.110161 
L 321.368963 160.110191 
L 320.718353 160.110221 
L 320.067743 160.11025 
L 319.417132 160.11028 
L 318.766522 160.11031 
L 318.115912 160.11034 
L 317.465302 160.11037 
L 316.814691 160.1104 
L 316.164081 160.11043 
L 315.513471 160.11046 
L 314.86286 160.110489 
L 314.21225 160.110519 
L 313.56164 160.110536 
L 312.911029 160.110536 
L 312.260419 160.110535 
L 311.609809 160.110535 
L 310.959198 160.110534 
L 310.308588 160.110533 
L 309.657978 160.110533 
L 309.007367 160.110532 
L 308.356757 160.110531 
L 307.706147 160.110531 
L 307.055537 160.11053 
L 306.404926 160.110529 
L 305.754316 160.110529 
L 305.103706 160.110528 
L 304.453095 160.110528 
L 303.802485 160.110527 
L 303.151875 160.110526 
L 302.501264 160.110526 
L 301.850654 160.110525 
L 301.200044 160.110524 
L 300.549433 160.110524 
L 299.898823 160.110523 
L 299.248213 160.110522 
L 298.597602 160.1105 
L 297.946992 160.110477 
L 297.296382 160.110454 
L 296.645772 160.110431 
L 295.995161 160.110408 
L 295.344551 160.110385 
L 294.693941 160.110362 
L 294.04333 160.110339 
L 293.39272 160.110316 
L 292.74211 160.110293 
L 292.091499 160.11027 
L 291.440889 160.110247 
L 290.790279 160.110224 
L 290.139668 160.110201 
L 289.489058 160.110178 
L 288.838448 160.110155 
L 288.187837 160.110132 
L 287.537227 160.110109 
L 286.886617 160.110086 
L 286.236007 160.110069 
L 285.585396 160.110053 
L 284.934786 160.110036 
L 284.284176 160.11002 
L 283.633565 160.110004 
L 282.982955 160.109988 
L 282.332345 160.109971 
L 281.681734 160.109955 
L 281.031124 160.109939 
L 280.380514 160.109923 
L 279.729903 160.109906 
L 279.079293 160.10989 
L 278.428683 160.109874 
L 277.778073 160.109858 
L 277.127462 160.109841 
L 276.476852 160.109825 
L 275.826242 160.109809 
L 275.175631 160.109793 
L 274.525021 160.109776 
L 273.874411 160.10976 
L 273.2238 160.109744 
L 272.57319 160.109728 
L 271.92258 159.03956 
L 271.271969 156.210954 
L 270.621359 153.382348 
L 269.970749 150.553741 
L 269.320138 147.725135 
L 268.669528 144.896528 
L 268.018918 142.067922 
L 267.368308 139.239315 
L 266.717697 136.410709 
L 266.067087 133.582102 
L 265.416477 130.753496 
L 264.765866 127.92489 
L 264.115256 125.096283 
L 263.464646 122.267677 
L 262.814035 119.43907 
L 262.163425 116.610464 
L 261.512815 113.781857 
L 260.862204 110.953251 
L 260.211594 108.124645 
L 259.560984 106.003187 
L 258.910373 106.003177 
L 258.259763 106.003168 
L 257.609153 106.003158 
L 256.958543 106.003148 
L 256.307932 106.003138 
L 255.657322 106.003129 
L 255.006712 106.003119 
L 254.356101 106.003109 
L 253.705491 106.003099 
L 253.054881 106.00309 
L 252.40427 106.00308 
L 251.75366 106.00307 
L 251.10305 106.00306 
L 250.452439 106.003051 
L 249.801829 106.003041 
L 249.151219 106.003031 
L 248.500608 106.003021 
L 247.849998 106.003011 
L 247.199388 106.003002 
L 246.548778 106.002992 
L 245.898167 106.002982 
L 245.247557 106.002972 
L 244.596947 106.013843 
L 243.946336 106.02752 
L 243.295726 106.041196 
L 242.645116 106.054873 
L 241.994505 106.068549 
L 241.343895 106.082226 
L 240.693285 106.095902 
L 240.042674 106.109579 
L 239.392064 106.123255 
L 238.741454 106.136932 
L 238.090844 106.150608 
L 237.440233 106.164284 
L 236.789623 106.177961 
L 236.139013 106.191637 
L 235.488402 106.205314 
L 234.837792 106.21899 
L 234.187182 106.232667 
L 233.536571 106.246343 
L 232.885961 106.26002 
L 232.235351 106.292107 
L 231.58474 106.333398 
L 230.93413 106.37469 
L 230.28352 106.415982 
L 229.632909 106.457274 
L 228.982299 106.498566 
L 228.331689 106.539858 
L 227.681079 106.58115 
L 227.030468 106.622442 
L 226.379858 106.663733 
L 225.729248 106.705025 
L 225.078637 106.746317 
L 224.428027 106.787609 
L 223.777417 106.828901 
L 223.126806 106.870193 
L 222.476196 106.911485 
L 221.825586 106.952777 
L 221.174975 106.994068 
L 220.524365 107.03536 
L 219.873755 107.076652 
L 219.223144 107.117944 
L 218.572534 107.159236 
L 217.921924 107.186213 
L 217.271314 107.159879 
L 216.620703 107.133544 
L 215.970093 107.10721 
L 215.319483 107.080875 
L 214.668872 107.054541 
L 214.018262 107.028206 
L 213.367652 107.001871 
L 212.717041 106.975537 
L 212.066431 106.949202 
L 211.415821 106.922868 
L 210.76521 106.896533 
L 210.1146 106.870198 
L 209.46399 106.843864 
L 208.813379 106.817529 
L 208.162769 106.791195 
L 207.512159 106.76486 
L 206.861549 106.738526 
L 206.210938 106.712191 
L 205.560328 106.688009 
L 204.909718 106.687511 
L 204.259107 106.687014 
L 203.608497 106.686516 
L 202.957887 106.686018 
L 202.307276 106.68552 
L 201.656666 106.685022 
L 201.006056 106.684524 
L 200.355445 106.684026 
L 199.704835 106.683528 
L 199.054225 106.68303 
L 198.403615 106.682532 
L 197.753004 106.682034 
L 197.102394 106.681536 
L 196.451784 106.681038 
L 195.801173 106.68054 
L 195.150563 106.680042 
L 194.499953 106.679544 
L 193.849342 106.679046 
L 193.198732 106.678548 
L 192.548122 106.67805 
L 191.897511 106.677552 
L 191.246901 106.677054 
L 190.596291 106.69932 
L 189.94568 106.735052 
L 189.29507 106.770783 
L 188.64446 106.806514 
L 187.99385 106.842245 
L 187.343239 106.877976 
L 186.692629 106.913707 
L 186.042019 106.949439 
L 185.391408 106.98517 
L 184.740798 107.020901 
L 184.090188 107.056632 
L 183.439577 107.092363 
L 182.788967 107.128094 
L 182.138357 107.163826 
L 181.487746 107.199557 
L 180.837136 107.235288 
L 180.186526 107.271019 
L 179.535915 107.30675 
L 178.885305 107.342481 
L 178.234695 107.331996 
L 177.584085 107.275293 
L 176.933474 107.21859 
L 176.282864 107.161887 
L 175.632254 107.105184 
L 174.981643 107.048481 
L 174.331033 106.991778 
L 173.680423 106.935075 
L 173.029812 106.878372 
L 172.379202 106.821669 
L 171.728592 106.764966 
L 171.077981 106.708263 
L 170.427371 106.65156 
L 169.776761 106.594857 
L 169.12615 106.538154 
L 168.47554 106.481451 
L 167.82493 106.424748 
L 167.17432 106.368045 
L 166.523709 106.311343 
L 165.873099 106.25464 
L 165.222489 106.197937 
L 164.571878 106.141234 
L 163.921268 106.086935 
L 163.270658 106.083662 
L 162.620047 106.080389 
L 161.969437 106.077116 
L 161.318827 106.073842 
L 160.668216 106.070569 
L 160.017606 106.067296 
L 159.366996 106.064023 
L 158.716385 106.06075 
L 158.065775 106.057477 
L 157.415165 106.054204 
L 156.764555 106.05093 
L 156.113944 106.047657 
L 155.463334 106.044384 
L 154.812724 106.041111 
L 154.162113 106.037838 
L 153.511503 106.034565 
L 152.860893 106.031292 
L 152.210282 106.028018 
L 151.559672 106.024745 
L 150.909062 106.023847 
L 150.258451 106.023166 
L 149.607841 106.022484 
L 148.957231 106.021802 
L 148.306621 106.02112 
L 147.65601 106.020438 
L 147.0054 106.019757 
L 146.35479 106.019075 
L 145.704179 106.018393 
L 145.053569 106.017711 
L 144.402959 106.017029 
L 143.752348 106.016348 
L 143.101738 106.015666 
L 142.451128 106.014984 
L 141.800517 106.014302 
L 141.149907 106.01362 
L 140.499297 106.012939 
L 139.848686 106.012257 
L 139.198076 106.011575 
L 138.547466 106.010893 
L 137.896856 106.010211 
L 137.246245 106.00953 
L 136.595635 107.312027 
L 135.945025 110.134113 
L 135.294414 112.956199 
L 134.643804 115.778285 
L 133.993194 118.600371 
L 133.342583 121.422457 
L 132.691973 124.244543 
L 132.041363 127.066629 
L 131.390752 129.888715 
L 130.740142 132.710801 
L 130.089532 135.532887 
L 129.438921 138.354973 
L 128.788311 141.177059 
L 128.137701 143.999144 
L 127.487091 146.82123 
L 126.83648 149.643316 
L 126.18587 152.465402 
L 125.53526 155.287488 
L 124.884649 158.109574 
L 124.234039 159.989514 
L 123.583429 159.985161 
L 122.932818 159.980808 
L 122.282208 159.976455 
L 121.631598 159.972102 
L 120.980987 159.96775 
L 120.330377 159.963397 
L 119.679767 159.959044 
L 119.029156 159.954691 
L 118.378546 159.950338 
L 117.727936 159.945985 
L 117.077326 159.941632 
L 116.426715 159.93728 
L 115.776105 159.932927 
L 115.125495 159.928574 
L 114.474884 159.924221 
L 113.824274 159.919868 
L 113.173664 159.915515 
L 112.523053 159.911162 
L 111.872443 159.90681 
L 111.221833 159.902457 
L 110.571222 159.898104 
L 109.920612 159.893751 
L 109.270002 159.619034 
L 108.619392 159.306866 
L 107.968781 158.994698 
L 107.318171 158.68253 
L 106.667561 158.370362 
L 106.01695 158.058194 
L 105.36634 157.746027 
L 104.71573 157.433859 
L 104.065119 157.121691 
L 103.414509 156.809523 
L 102.763899 156.497355 
L 102.113288 156.185187 
L 101.462678 155.873019 
L 100.812068 155.560851 
L 100.161457 155.248684 
L 99.510847 154.936516 
L 98.860237 154.624348 
L 98.209627 154.31218 
L 97.559016 154.000012 
L 96.908406 152.321419 
L 96.257796 150.187352 
L 95.607185 148.053285 
L 94.956575 145.919217 
L 94.305965 143.78515 
L 93.655354 141.651083 
L 93.004744 139.517015 
L 92.354134 137.382948 
L 91.703523 135.24888 
L 91.052913 133.114813 
L 90.402303 130.980746 
L 89.751692 128.846678 
L 89.101082 126.712611 
L 88.450472 124.578543 
L 87.799862 122.444476 
L 87.149251 120.310409 
L 86.498641 118.176341 
L 85.848031 116.042274 
L 85.19742 113.908206 
L 84.54681 111.774139 
L 83.8962 109.640072 
L 83.245589 107.506004 
L 82.594979 106.001486 
L 81.944369 106.001485 
L 81.293758 106.001484 
L 80.643148 106.001483 
L 79.992538 106.001482 
L 79.341927 106.001481 
L 78.691317 106.00148 
L 78.040707 106.001479 
L 77.390097 106.001478 
L 76.739486 106.001477 
L 76.088876 106.001476 
L 75.438266 106.001475 
L 74.787655 106.001474 
L 74.137045 106.001473 
L 73.486435 106.001472 
L 72.835824 106.001471 
L 72.185214 106.00147 
L 71.534604 106.001469 
L 70.883993 106.001468 
L 70.233383 106.001474 
L 69.582773 106.001514 
L 68.932163 106.001555 
L 68.281552 106.001595 
L 67.630942 106.001635 
L 66.980332 106.001675 
L 66.329721 106.001715 
L 65.679111 106.001756 
L 65.028501 106.001796 
L 64.37789 106.001836 
L 63.72728 106.001876 
L 63.07667 106.001917 
L 62.426059 106.001957 
L 61.775449 106.001997 
L 61.124839 106.002037 
L 60.474228 106.002077 
L 59.823618 106.002118 
L 59.173008 106.002158 
L 58.522398 106.002198 
L 57.871787 106.002238 
L 57.221177 106.002278 
L 56.570567 106.002319 
L 55.919956 106.002359 
L 55.269346 106.00298 
L 54.618736 106.003837 
L 53.968125 106.004693 
L 53.317515 106.00555 
L 52.666905 106.006406 
L 52.016294 106.007263 
L 51.365684 106.008119 
L 50.715074 106.008976 
L 50.064463 106.009832 
L 49.413853 106.010689 
L 48.763243 106.011545 
L 48.112633 106.012402 
L 47.462022 106.013258 
L 46.811412 106.014115 
L 46.160802 106.014971 
L 45.510191 106.015828 
L 44.859581 106.016684 
L 44.208971 106.017541 
L 43.55836 106.018397 
L 42.90775 106.018584 
L 42.25714 106.018291 
L 41.606529 106.017999 
L 40.955919 106.017707 
L 40.305309 106.017415 
L 39.654698 106.017122 
L 39.004088 106.01683 
L 38.353478 106.016538 
L 37.702868 106.016246 
L 37.052257 106.015953 
L 36.401647 106.015661 
L 35.751037 106.015369 
L 35.100426 106.015076 
L 34.449816 106.014784 
L 33.799206 106.014492 
L 33.148595 106.0142 
L 32.497985 106.013907 
L 31.847375 106.013615 
L 31.196764 106.013323 
L 30.546154 106.01303 
L 29.895544 106.012738 
L 29.244934 106.012446 
L 28.594323 106.375139 
L 27.943713 109.203295 
L 27.293103 112.031452 
L 26.642492 114.859608 
L 25.991882 117.687765 
L 25.341272 120.515921 
L 24.690661 123.344077 
L 24.040051 126.172234 
L 23.389441 129.00039 
L 22.73883 131.828547 
L 22.08822 134.656703 
L 21.43761 137.48486 
L 20.786999 140.313016 
L 20.136389 143.141173 
L 19.485779 145.969329 
L 18.835169 148.797485 
L 18.184558 151.625642 
L 17.533948 154.453798 
L 16.883338 157.281955 
L 16.232727 160.110111 
z
" style="fill:#61c46e;fill-opacity:0.3;"/>
   </g>
   <g id="PolyCollection_2">
    <path clip-path="url(#p80ac65fd0c)" d="M 16.232727 106.0019 
L 16.232727 160.110545 
L 16.883338 160.110545 
L 17.533948 160.110545 
L 18.184558 160.110545 
L 18.835169 160.110545 
L 19.485779 160.110545 
L 20.136389 160.110545 
L 20.786999 160.110545 
L 21.43761 160.110545 
L 22.08822 160.110545 
L 22.73883 160.110545 
L 23.389441 160.110545 
L 24.040051 160.110545 
L 24.690661 160.110545 
L 25.341272 160.110545 
L 25.991882 160.110545 
L 26.642492 160.110545 
L 27.293103 160.110545 
L 27.943713 160.110545 
L 28.594323 160.110545 
L 29.244934 160.110545 
L 29.895544 160.110545 
L 30.546154 160.110545 
L 31.196764 160.110545 
L 31.847375 160.110545 
L 32.497985 160.110545 
L 33.148595 160.110545 
L 33.799206 160.110545 
L 34.449816 160.110545 
L 35.100426 160.110545 
L 35.751037 160.110545 
L 36.401647 160.110545 
L 37.052257 160.110545 
L 37.702868 160.110545 
L 38.353478 160.110545 
L 39.004088 160.110545 
L 39.654698 160.110545 
L 40.305309 160.110545 
L 40.955919 160.110545 
L 41.606529 160.110545 
L 42.25714 160.110545 
L 42.90775 160.110545 
L 43.55836 160.110545 
L 44.208971 160.110545 
L 44.859581 160.110545 
L 45.510191 160.110545 
L 46.160802 160.110545 
L 46.811412 160.110545 
L 47.462022 160.110545 
L 48.112633 160.110545 
L 48.763243 160.110545 
L 49.413853 160.110545 
L 50.064463 160.110545 
L 50.715074 160.110545 
L 51.365684 160.110545 
L 52.016294 160.110545 
L 52.666905 160.110545 
L 53.317515 160.110545 
L 53.968125 160.110545 
L 54.618736 160.110545 
L 55.269346 160.110545 
L 55.919956 160.110545 
L 56.570567 160.110545 
L 57.221177 160.110545 
L 57.871787 160.110545 
L 58.522398 160.110545 
L 59.173008 160.110545 
L 59.823618 160.110545 
L 60.474228 160.110545 
L 61.124839 160.110545 
L 61.775449 160.110545 
L 62.426059 160.110545 
L 63.07667 160.110545 
L 63.72728 160.110545 
L 64.37789 160.110545 
L 65.028501 160.110545 
L 65.679111 160.110545 
L 66.329721 160.110545 
L 66.980332 160.110545 
L 67.630942 160.110545 
L 68.281552 160.110545 
L 68.932163 160.110545 
L 69.582773 160.110545 
L 70.233383 160.110545 
L 70.883993 160.110545 
L 71.534604 160.110545 
L 72.185214 160.110545 
L 72.835824 160.110545 
L 73.486435 160.110545 
L 74.137045 160.110545 
L 74.787655 160.110545 
L 75.438266 160.110545 
L 76.088876 160.110545 
L 76.739486 160.110545 
L 77.390097 160.110545 
L 78.040707 160.110545 
L 78.691317 160.110545 
L 79.341927 160.110545 
L 79.992538 160.110545 
L 80.643148 160.110545 
L 81.293758 160.110545 
L 81.944369 160.110545 
L 82.594979 160.110545 
L 83.245589 160.110545 
L 83.8962 160.110545 
L 84.54681 160.110545 
L 85.19742 160.110545 
L 85.848031 160.110545 
L 86.498641 160.110545 
L 87.149251 160.110545 
L 87.799862 160.110545 
L 88.450472 160.110545 
L 89.101082 160.110545 
L 89.751692 160.110545 
L 90.402303 160.110545 
L 91.052913 160.110545 
L 91.703523 160.110545 
L 92.354134 160.110545 
L 93.004744 160.110545 
L 93.655354 160.110545 
L 94.305965 160.110545 
L 94.956575 160.110545 
L 95.607185 160.110545 
L 96.257796 160.110545 
L 96.908406 160.110545 
L 97.559016 160.110545 
L 98.209627 160.110545 
L 98.860237 160.110545 
L 99.510847 160.110545 
L 100.161457 160.110545 
L 100.812068 160.110545 
L 101.462678 160.110545 
L 102.113288 160.110545 
L 102.763899 160.110545 
L 103.414509 160.110545 
L 104.065119 160.110545 
L 104.71573 160.110545 
L 105.36634 160.110545 
L 106.01695 160.110545 
L 106.667561 160.110545 
L 107.318171 160.110545 
L 107.968781 160.110545 
L 108.619392 160.110545 
L 109.270002 160.110545 
L 109.920612 160.110545 
L 110.571222 160.110545 
L 111.221833 160.110545 
L 111.872443 160.110545 
L 112.523053 160.110545 
L 113.173664 160.110545 
L 113.824274 160.110545 
L 114.474884 160.110545 
L 115.125495 160.110545 
L 115.776105 160.110545 
L 116.426715 160.110545 
L 117.077326 160.110545 
L 117.727936 160.110545 
L 118.378546 160.110545 
L 119.029156 160.110545 
L 119.679767 160.110545 
L 120.330377 160.110545 
L 120.980987 160.110545 
L 121.631598 160.110545 
L 122.282208 160.110545 
L 122.932818 160.110545 
L 123.583429 160.110545 
L 124.234039 160.110545 
L 124.884649 160.110545 
L 125.53526 160.110545 
L 126.18587 160.110545 
L 126.83648 160.110545 
L 127.487091 160.110545 
L 128.137701 160.110545 
L 128.788311 160.110545 
L 129.438921 160.110545 
L 130.089532 160.110545 
L 130.740142 160.110545 
L 131.390752 160.110545 
L 132.041363 160.110545 
L 132.691973 160.110545 
L 133.342583 160.110545 
L 133.993194 160.110545 
L 134.643804 160.110545 
L 135.294414 160.110545 
L 135.945025 160.110545 
L 136.595635 160.110545 
L 137.246245 160.110545 
L 137.896856 160.110545 
L 138.547466 160.110545 
L 139.198076 160.110545 
L 139.848686 160.110545 
L 140.499297 160.110545 
L 141.149907 160.110545 
L 141.800517 160.110545 
L 142.451128 160.110545 
L 143.101738 160.110545 
L 143.752348 160.110545 
L 144.402959 160.110545 
L 145.053569 160.110545 
L 145.704179 160.110545 
L 146.35479 160.110545 
L 147.0054 160.110545 
L 147.65601 160.110545 
L 148.306621 160.110545 
L 148.957231 160.110545 
L 149.607841 160.110545 
L 150.258451 160.110545 
L 150.909062 160.110545 
L 151.559672 160.110545 
L 152.210282 160.110545 
L 152.860893 160.110545 
L 153.511503 160.110545 
L 154.162113 160.110545 
L 154.812724 160.110545 
L 155.463334 160.110545 
L 156.113944 160.110545 
L 156.764555 160.110545 
L 157.415165 160.110545 
L 158.065775 160.110545 
L 158.716385 160.110545 
L 159.366996 160.110545 
L 160.017606 160.110545 
L 160.668216 160.110545 
L 161.318827 160.110545 
L 161.969437 160.110545 
L 162.620047 160.110545 
L 163.270658 160.110545 
L 163.921268 160.110545 
L 164.571878 160.110545 
L 165.222489 160.110545 
L 165.873099 160.110545 
L 166.523709 160.110545 
L 167.17432 160.110545 
L 167.82493 160.110545 
L 168.47554 160.110545 
L 169.12615 160.110545 
L 169.776761 160.110545 
L 170.427371 160.110545 
L 171.077981 160.110545 
L 171.728592 160.110545 
L 172.379202 160.110545 
L 173.029812 160.110545 
L 173.680423 160.110545 
L 174.331033 160.110545 
L 174.981643 160.110545 
L 175.632254 160.110545 
L 176.282864 160.110545 
L 176.933474 160.110545 
L 177.584085 160.110545 
L 178.234695 160.110545 
L 178.885305 160.110545 
L 179.535915 160.110545 
L 180.186526 160.110545 
L 180.837136 160.110545 
L 181.487746 160.110545 
L 182.138357 160.110545 
L 182.788967 160.110545 
L 183.439577 160.110545 
L 184.090188 160.110545 
L 184.740798 160.110545 
L 185.391408 160.110545 
L 186.042019 160.110545 
L 186.692629 160.110545 
L 187.343239 160.110545 
L 187.99385 160.110545 
L 188.64446 160.110545 
L 189.29507 160.110545 
L 189.94568 160.110545 
L 190.596291 160.110545 
L 191.246901 160.110545 
L 191.897511 160.110545 
L 192.548122 160.110545 
L 193.198732 160.110545 
L 193.849342 160.110545 
L 194.499953 160.110545 
L 195.150563 160.110545 
L 195.801173 160.110545 
L 196.451784 160.110545 
L 197.102394 160.110545 
L 197.753004 160.110545 
L 198.403615 160.110545 
L 199.054225 160.110545 
L 199.704835 160.110545 
L 200.355445 160.110545 
L 201.006056 160.110545 
L 201.656666 160.110545 
L 202.307276 160.110545 
L 202.957887 160.110545 
L 203.608497 160.110545 
L 204.259107 160.110545 
L 204.909718 160.110545 
L 205.560328 160.110545 
L 206.210938 160.110545 
L 206.861549 160.110545 
L 207.512159 160.110545 
L 208.162769 160.110545 
L 208.813379 160.110545 
L 209.46399 160.110545 
L 210.1146 160.110545 
L 210.76521 160.110545 
L 211.415821 160.110545 
L 212.066431 160.110545 
L 212.717041 160.110545 
L 213.367652 160.110545 
L 214.018262 160.110545 
L 214.668872 160.110545 
L 215.319483 160.110545 
L 215.970093 160.110545 
L 216.620703 160.110545 
L 217.271314 160.110545 
L 217.921924 160.110545 
L 218.572534 160.110545 
L 219.223144 160.110545 
L 219.873755 160.110545 
L 220.524365 160.110545 
L 221.174975 160.110545 
L 221.825586 160.110545 
L 222.476196 160.110545 
L 223.126806 160.110545 
L 223.777417 160.110545 
L 224.428027 160.110545 
L 225.078637 160.110545 
L 225.729248 160.110545 
L 226.379858 160.110545 
L 227.030468 160.110545 
L 227.681079 160.110545 
L 228.331689 160.110545 
L 228.982299 160.110545 
L 229.632909 160.110545 
L 230.28352 160.110545 
L 230.93413 160.110545 
L 231.58474 160.110545 
L 232.235351 160.110545 
L 232.885961 160.110545 
L 233.536571 160.110545 
L 234.187182 160.110545 
L 234.837792 160.110545 
L 235.488402 160.110545 
L 236.139013 160.110545 
L 236.789623 160.110545 
L 237.440233 160.110545 
L 238.090844 160.110545 
L 238.741454 160.110545 
L 239.392064 160.110545 
L 240.042674 160.110545 
L 240.693285 160.110545 
L 241.343895 160.110545 
L 241.994505 160.110545 
L 242.645116 160.110545 
L 243.295726 160.110545 
L 243.946336 160.110545 
L 244.596947 160.110545 
L 245.247557 160.110545 
L 245.898167 160.110545 
L 246.548778 160.110545 
L 247.199388 160.110545 
L 247.849998 160.110545 
L 248.500608 160.110545 
L 249.151219 160.110545 
L 249.801829 160.110545 
L 250.452439 160.110545 
L 251.10305 160.110545 
L 251.75366 160.110545 
L 252.40427 160.110545 
L 253.054881 160.110545 
L 253.705491 160.110545 
L 254.356101 160.110545 
L 255.006712 160.110545 
L 255.657322 160.110545 
L 256.307932 160.110545 
L 256.958543 160.110545 
L 257.609153 160.110545 
L 258.259763 160.110545 
L 258.910373 160.110545 
L 259.560984 160.110545 
L 260.211594 160.110545 
L 260.862204 160.110545 
L 261.512815 160.110545 
L 262.163425 160.110545 
L 262.814035 160.110545 
L 263.464646 160.110545 
L 264.115256 160.110545 
L 264.765866 160.110545 
L 265.416477 160.110545 
L 266.067087 160.110545 
L 266.717697 160.110545 
L 267.368308 160.110545 
L 268.018918 160.110545 
L 268.669528 160.110545 
L 269.320138 160.110545 
L 269.970749 160.110545 
L 270.621359 160.110545 
L 271.271969 160.110545 
L 271.92258 160.110545 
L 272.57319 160.110545 
L 273.2238 160.110545 
L 273.874411 160.110545 
L 274.525021 160.110545 
L 275.175631 160.110545 
L 275.826242 160.110545 
L 276.476852 160.110545 
L 277.127462 160.110545 
L 277.778073 160.110545 
L 278.428683 160.110545 
L 279.079293 160.110545 
L 279.729903 160.110545 
L 280.380514 160.110545 
L 281.031124 160.110545 
L 281.681734 160.110545 
L 282.332345 160.110545 
L 282.982955 160.110545 
L 283.633565 160.110545 
L 284.284176 160.110545 
L 284.934786 160.110545 
L 285.585396 160.110545 
L 286.236007 160.110545 
L 286.886617 160.110545 
L 287.537227 160.110545 
L 288.187837 160.110545 
L 288.838448 160.110545 
L 289.489058 160.110545 
L 290.139668 160.110545 
L 290.790279 160.110545 
L 291.440889 160.110545 
L 292.091499 160.110545 
L 292.74211 160.110545 
L 293.39272 160.110545 
L 294.04333 160.110545 
L 294.693941 160.110545 
L 295.344551 160.110545 
L 295.995161 160.110545 
L 296.645772 160.110545 
L 297.296382 160.110545 
L 297.946992 160.110545 
L 298.597602 160.110545 
L 299.248213 160.110545 
L 299.898823 160.110545 
L 300.549433 160.110545 
L 301.200044 160.110545 
L 301.850654 160.110545 
L 302.501264 160.110545 
L 303.151875 160.110545 
L 303.802485 160.110545 
L 304.453095 160.110545 
L 305.103706 160.110545 
L 305.754316 160.110545 
L 306.404926 160.110545 
L 307.055537 160.110545 
L 307.706147 160.110545 
L 308.356757 160.110545 
L 309.007367 160.110545 
L 309.657978 160.110545 
L 310.308588 160.110545 
L 310.959198 160.110545 
L 311.609809 160.110545 
L 312.260419 160.110545 
L 312.911029 160.110545 
L 313.56164 160.110545 
L 314.21225 160.110545 
L 314.86286 160.110545 
L 315.513471 160.110545 
L 316.164081 160.110545 
L 316.814691 160.110545 
L 317.465302 160.110545 
L 318.115912 160.110545 
L 318.766522 160.110545 
L 319.417132 160.110545 
L 320.067743 160.110545 
L 320.718353 160.110545 
L 321.368963 160.110545 
L 322.019574 160.110545 
L 322.670184 160.110545 
L 323.320794 160.110545 
L 323.971405 160.110545 
L 324.622015 160.110545 
L 325.272625 160.110545 
L 325.923236 160.110545 
L 326.573846 160.110545 
L 327.224456 160.110545 
L 327.875066 160.110545 
L 328.525677 160.110545 
L 329.176287 160.110545 
L 329.826897 160.110545 
L 330.477508 160.110545 
L 331.128118 160.110545 
L 331.778728 160.110545 
L 332.429339 160.110545 
L 333.079949 160.110545 
L 333.730559 160.110545 
L 334.38117 160.110545 
L 335.03178 160.110545 
L 335.68239 160.110545 
L 336.333001 160.110545 
L 336.983611 160.110545 
L 337.634221 160.110545 
L 338.284831 160.110545 
L 338.935442 160.110545 
L 339.586052 160.110545 
L 340.236662 160.110545 
L 340.887273 160.110545 
L 340.887273 160.110537 
L 340.887273 160.110537 
L 340.236662 159.625152 
L 339.586052 159.139768 
L 338.935442 158.654383 
L 338.284831 158.168999 
L 337.634221 157.683614 
L 336.983611 157.19823 
L 336.333001 156.712846 
L 335.68239 156.227461 
L 335.03178 155.742077 
L 334.38117 155.256692 
L 333.730559 154.771308 
L 333.079949 154.285923 
L 332.429339 153.800539 
L 331.778728 153.315154 
L 331.128118 152.82977 
L 330.477508 152.344386 
L 329.826897 151.859001 
L 329.176287 151.373617 
L 328.525677 150.888232 
L 327.875066 150.402848 
L 327.224456 149.917463 
L 326.573846 149.432079 
L 325.923236 147.98013 
L 325.272625 145.721228 
L 324.622015 143.462327 
L 323.971405 141.203426 
L 323.320794 138.944525 
L 322.670184 136.685624 
L 322.019574 134.426722 
L 321.368963 132.167821 
L 320.718353 129.90892 
L 320.067743 127.650019 
L 319.417132 125.391118 
L 318.766522 123.132216 
L 318.115912 120.873315 
L 317.465302 118.614414 
L 316.814691 116.355513 
L 316.164081 114.096612 
L 315.513471 111.83771 
L 314.86286 109.578809 
L 314.21225 107.319908 
L 313.56164 106.002247 
L 312.911029 106.002321 
L 312.260419 106.002395 
L 311.609809 106.00247 
L 310.959198 106.002544 
L 310.308588 106.002619 
L 309.657978 106.002693 
L 309.007367 106.002767 
L 308.356757 106.002842 
L 307.706147 106.002916 
L 307.055537 106.002991 
L 306.404926 106.003065 
L 305.754316 106.003139 
L 305.103706 106.003214 
L 304.453095 106.003288 
L 303.802485 106.003363 
L 303.151875 106.003437 
L 302.501264 106.003511 
L 301.850654 106.003586 
L 301.200044 106.00366 
L 300.549433 106.003735 
L 299.898823 106.003809 
L 299.248213 106.003883 
L 298.597602 106.006126 
L 297.946992 106.008454 
L 297.296382 106.010783 
L 296.645772 106.013112 
L 295.995161 106.01544 
L 295.344551 106.017769 
L 294.693941 106.020097 
L 294.04333 106.022426 
L 293.39272 106.024755 
L 292.74211 106.027083 
L 292.091499 106.029412 
L 291.440889 106.03174 
L 290.790279 106.034069 
L 290.139668 106.036398 
L 289.489058 106.038726 
L 288.838448 106.041055 
L 288.187837 106.043384 
L 287.537227 106.045712 
L 286.886617 106.048041 
L 286.236007 106.046762 
L 285.585396 106.044762 
L 284.934786 106.042762 
L 284.284176 106.040762 
L 283.633565 106.038762 
L 282.982955 106.036762 
L 282.332345 106.034762 
L 281.681734 106.032762 
L 281.031124 106.030762 
L 280.380514 106.028762 
L 279.729903 106.026762 
L 279.079293 106.024762 
L 278.428683 106.022762 
L 277.778073 106.020762 
L 277.127462 106.018762 
L 276.476852 106.016762 
L 275.826242 106.014762 
L 275.175631 106.012762 
L 274.525021 106.010762 
L 273.874411 106.008762 
L 273.2238 106.006762 
L 272.57319 106.004762 
L 271.92258 107.073676 
L 271.271969 109.902289 
L 270.621359 112.730902 
L 269.970749 115.559515 
L 269.320138 118.388128 
L 268.669528 121.216741 
L 268.018918 124.045354 
L 267.368308 126.873967 
L 266.717697 129.70258 
L 266.067087 132.531193 
L 265.416477 135.359806 
L 264.765866 138.188419 
L 264.115256 141.017032 
L 263.464646 143.845645 
L 262.814035 146.674258 
L 262.163425 149.502871 
L 261.512815 152.331484 
L 260.862204 155.160097 
L 260.211594 157.98871 
L 259.560984 160.110174 
L 258.910373 160.11019 
L 258.259763 160.110206 
L 257.609153 160.110222 
L 256.958543 160.110238 
L 256.307932 160.110254 
L 255.657322 160.11027 
L 255.006712 160.110286 
L 254.356101 160.110302 
L 253.705491 160.110318 
L 253.054881 160.110334 
L 252.40427 160.11035 
L 251.75366 160.110366 
L 251.10305 160.110382 
L 250.452439 160.110398 
L 249.801829 160.110414 
L 249.151219 160.11043 
L 248.500608 160.110446 
L 247.849998 160.110462 
L 247.199388 160.110478 
L 246.548778 160.110494 
L 245.898167 160.11051 
L 245.247557 160.110526 
L 244.596947 160.110529 
L 243.946336 160.110528 
L 243.295726 160.110527 
L 242.645116 160.110526 
L 241.994505 160.110526 
L 241.343895 160.110525 
L 240.693285 160.110524 
L 240.042674 160.110523 
L 239.392064 160.110523 
L 238.741454 160.110522 
L 238.090844 160.110521 
L 237.440233 160.11052 
L 236.789623 160.110519 
L 236.139013 160.110519 
L 235.488402 160.110518 
L 234.837792 160.110517 
L 234.187182 160.110516 
L 233.536571 160.110515 
L 232.885961 160.110515 
L 232.235351 160.110478 
L 231.58474 160.110422 
L 230.93413 160.110367 
L 230.28352 160.110312 
L 229.632909 160.110256 
L 228.982299 160.110201 
L 228.331689 160.110146 
L 227.681079 160.11009 
L 227.030468 160.110035 
L 226.379858 160.10998 
L 225.729248 160.109924 
L 225.078637 160.109869 
L 224.428027 160.109814 
L 223.777417 160.109758 
L 223.126806 160.109703 
L 222.476196 160.109648 
L 221.825586 160.109592 
L 221.174975 160.109537 
L 220.524365 160.109482 
L 219.873755 160.109426 
L 219.223144 160.109371 
L 218.572534 160.109316 
L 217.921924 160.109264 
L 217.271314 160.109227 
L 216.620703 160.109189 
L 215.970093 160.109152 
L 215.319483 160.109114 
L 214.668872 160.109077 
L 214.018262 160.10904 
L 213.367652 160.109002 
L 212.717041 160.108965 
L 212.066431 160.108927 
L 211.415821 160.10889 
L 210.76521 160.108852 
L 210.1146 160.108815 
L 209.46399 160.108778 
L 208.813379 160.10874 
L 208.162769 160.108703 
L 207.512159 160.108665 
L 206.861549 160.108628 
L 206.210938 160.10859 
L 205.560328 160.108527 
L 204.909718 160.108174 
L 204.259107 160.107822 
L 203.608497 160.107469 
L 202.957887 160.107116 
L 202.307276 160.106764 
L 201.656666 160.106411 
L 201.006056 160.106059 
L 200.355445 160.105706 
L 199.704835 160.105354 
L 199.054225 160.105001 
L 198.403615 160.104648 
L 197.753004 160.104296 
L 197.102394 160.103943 
L 196.451784 160.103591 
L 195.801173 160.103238 
L 195.150563 160.102886 
L 194.499953 160.102533 
L 193.849342 160.10218 
L 193.198732 160.101828 
L 192.548122 160.101475 
L 191.897511 160.101123 
L 191.246901 160.10077 
L 190.596291 160.10093 
L 189.94568 160.101394 
L 189.29507 160.101858 
L 188.64446 160.102321 
L 187.99385 160.102785 
L 187.343239 160.103248 
L 186.692629 160.103712 
L 186.042019 160.104175 
L 185.391408 160.104639 
L 184.740798 160.105103 
L 184.090188 160.105566 
L 183.439577 160.10603 
L 182.788967 160.106493 
L 182.138357 160.106957 
L 181.487746 160.10742 
L 180.837136 160.107884 
L 180.186526 160.108348 
L 179.535915 160.108811 
L 178.885305 160.109275 
L 178.234695 160.109528 
L 177.584085 160.10957 
L 176.933474 160.109612 
L 176.282864 160.109654 
L 175.632254 160.109696 
L 174.981643 160.109738 
L 174.331033 160.10978 
L 173.680423 160.109822 
L 173.029812 160.109864 
L 172.379202 160.109906 
L 171.728592 160.109948 
L 171.077981 160.10999 
L 170.427371 160.110032 
L 169.776761 160.110075 
L 169.12615 160.110117 
L 168.47554 160.110159 
L 167.82493 160.110201 
L 167.17432 160.110243 
L 166.523709 160.110285 
L 165.873099 160.110327 
L 165.222489 160.110369 
L 164.571878 160.110411 
L 163.921268 160.110451 
L 163.270658 160.110455 
L 162.620047 160.110458 
L 161.969437 160.110461 
L 161.318827 160.110465 
L 160.668216 160.110468 
L 160.017606 160.110471 
L 159.366996 160.110475 
L 158.716385 160.110478 
L 158.065775 160.110481 
L 157.415165 160.110484 
L 156.764555 160.110488 
L 156.113944 160.110491 
L 155.463334 160.110494 
L 154.812724 160.110498 
L 154.162113 160.110501 
L 153.511503 160.110504 
L 152.860893 160.110508 
L 152.210282 160.110511 
L 151.559672 160.110514 
L 150.909062 160.110501 
L 150.258451 160.110486 
L 149.607841 160.110472 
L 148.957231 160.110457 
L 148.306621 160.110443 
L 147.65601 160.110428 
L 147.0054 160.110413 
L 146.35479 160.110399 
L 145.704179 160.110384 
L 145.053569 160.11037 
L 144.402959 160.110355 
L 143.752348 160.11034 
L 143.101738 160.110326 
L 142.451128 160.110311 
L 141.800517 160.110297 
L 141.149907 160.110282 
L 140.499297 160.110267 
L 139.848686 160.110253 
L 139.198076 160.110238 
L 138.547466 160.110224 
L 137.896856 160.110209 
L 137.246245 160.110194 
L 136.595635 158.807153 
L 135.945025 155.984695 
L 135.294414 153.162237 
L 134.643804 150.33978 
L 133.993194 147.517322 
L 133.342583 144.694864 
L 132.691973 141.872407 
L 132.041363 139.049949 
L 131.390752 136.227491 
L 130.740142 133.405033 
L 130.089532 130.582576 
L 129.438921 127.760118 
L 128.788311 124.93766 
L 128.137701 122.115202 
L 127.487091 119.292745 
L 126.83648 116.470287 
L 126.18587 113.647829 
L 125.53526 110.825372 
L 124.884649 108.002914 
L 124.234039 106.122726 
L 123.583429 106.127079 
L 122.932818 106.131431 
L 122.282208 106.135784 
L 121.631598 106.140136 
L 120.980987 106.144489 
L 120.330377 106.148841 
L 119.679767 106.153194 
L 119.029156 106.157546 
L 118.378546 106.161899 
L 117.727936 106.166251 
L 117.077326 106.170604 
L 116.426715 106.174956 
L 115.776105 106.179309 
L 115.125495 106.183661 
L 114.474884 106.188014 
L 113.824274 106.192366 
L 113.173664 106.196719 
L 112.523053 106.201071 
L 111.872443 106.205423 
L 111.221833 106.209776 
L 110.571222 106.214128 
L 109.920612 106.218481 
L 109.270002 106.493245 
L 108.619392 106.805466 
L 107.968781 107.117688 
L 107.318171 107.429909 
L 106.667561 107.74213 
L 106.01695 108.054352 
L 105.36634 108.366573 
L 104.71573 108.678794 
L 104.065119 108.991016 
L 103.414509 109.303237 
L 102.763899 109.615458 
L 102.113288 109.92768 
L 101.462678 110.239901 
L 100.812068 110.552122 
L 100.161457 110.864344 
L 99.510847 111.176565 
L 98.860237 111.488787 
L 98.209627 111.801008 
L 97.559016 112.113229 
L 96.908406 113.791794 
L 96.257796 115.925807 
L 95.607185 118.05982 
L 94.956575 120.193833 
L 94.305965 122.327845 
L 93.655354 124.461858 
L 93.004744 126.595871 
L 92.354134 128.729884 
L 91.703523 130.863897 
L 91.052913 132.997909 
L 90.402303 135.131922 
L 89.751692 137.265935 
L 89.101082 139.399948 
L 88.450472 141.533961 
L 87.799862 143.667974 
L 87.149251 145.801986 
L 86.498641 147.935999 
L 85.848031 150.070012 
L 85.19742 152.204025 
L 84.54681 154.338038 
L 83.8962 156.47205 
L 83.245589 158.606063 
L 82.594979 160.110542 
L 81.944369 160.110542 
L 81.293758 160.110542 
L 80.643148 160.110542 
L 79.992538 160.110543 
L 79.341927 160.110543 
L 78.691317 160.110543 
L 78.040707 160.110543 
L 77.390097 160.110543 
L 76.739486 160.110543 
L 76.088876 160.110543 
L 75.438266 160.110543 
L 74.787655 160.110543 
L 74.137045 160.110543 
L 73.486435 160.110543 
L 72.835824 160.110544 
L 72.185214 160.110544 
L 71.534604 160.110544 
L 70.883993 160.110544 
L 70.233383 160.110544 
L 69.582773 160.110544 
L 68.932163 160.110543 
L 68.281552 160.110543 
L 67.630942 160.110543 
L 66.980332 160.110543 
L 66.329721 160.110543 
L 65.679111 160.110542 
L 65.028501 160.110542 
L 64.37789 160.110542 
L 63.72728 160.110542 
L 63.07667 160.110541 
L 62.426059 160.110541 
L 61.775449 160.110541 
L 61.124839 160.110541 
L 60.474228 160.110541 
L 59.823618 160.11054 
L 59.173008 160.11054 
L 58.522398 160.11054 
L 57.871787 160.11054 
L 57.221177 160.11054 
L 56.570567 160.110539 
L 55.919956 160.110539 
L 55.269346 160.110434 
L 54.618736 160.110288 
L 53.968125 160.110141 
L 53.317515 160.109994 
L 52.666905 160.109847 
L 52.016294 160.1097 
L 51.365684 160.109553 
L 50.715074 160.109406 
L 50.064463 160.109259 
L 49.413853 160.109112 
L 48.763243 160.108965 
L 48.112633 160.108818 
L 47.462022 160.108671 
L 46.811412 160.108524 
L 46.160802 160.108377 
L 45.510191 160.10823 
L 44.859581 160.108083 
L 44.208971 160.107936 
L 43.55836 160.107789 
L 42.90775 160.107779 
L 42.25714 160.107865 
L 41.606529 160.107952 
L 40.955919 160.108038 
L 40.305309 160.108125 
L 39.654698 160.108211 
L 39.004088 160.108298 
L 38.353478 160.108384 
L 37.702868 160.108471 
L 37.052257 160.108558 
L 36.401647 160.108644 
L 35.751037 160.108731 
L 35.100426 160.108817 
L 34.449816 160.108904 
L 33.799206 160.10899 
L 33.148595 160.109077 
L 32.497985 160.109163 
L 31.847375 160.10925 
L 31.196764 160.109336 
L 30.546154 160.109423 
L 29.895544 160.109509 
L 29.244934 160.109596 
L 28.594323 159.746659 
L 27.943713 156.917987 
L 27.293103 154.089316 
L 26.642492 151.260644 
L 25.991882 148.431972 
L 25.341272 145.603301 
L 24.690661 142.774629 
L 24.040051 139.945958 
L 23.389441 137.117286 
L 22.73883 134.288615 
L 22.08822 131.459943 
L 21.43761 128.631272 
L 20.786999 125.8026 
L 20.136389 122.973929 
L 19.485779 120.145257 
L 18.835169 117.316586 
L 18.184558 114.487914 
L 17.533948 111.659243 
L 16.883338 108.830571 
L 16.232727 106.0019 
z
" style="fill:#f6ed22;fill-opacity:0.3;"/>
   </g>
   <g id="PolyCollection_3">
    <path clip-path="url(#p80ac65fd0c)" d="M 16.232727 160.110535 
L 16.232727 160.110545 
L 16.883338 160.110545 
L 17.533948 160.110545 
L 18.184558 160.110545 
L 18.835169 160.110545 
L 19.485779 160.110545 
L 20.136389 160.110545 
L 20.786999 160.110545 
L 21.43761 160.110545 
L 22.08822 160.110545 
L 22.73883 160.110545 
L 23.389441 160.110545 
L 24.040051 160.110545 
L 24.690661 160.110545 
L 25.341272 160.110545 
L 25.991882 160.110545 
L 26.642492 160.110545 
L 27.293103 160.110545 
L 27.943713 160.110545 
L 28.594323 160.110545 
L 29.244934 160.110545 
L 29.895544 160.110545 
L 30.546154 160.110545 
L 31.196764 160.110545 
L 31.847375 160.110545 
L 32.497985 160.110545 
L 33.148595 160.110545 
L 33.799206 160.110545 
L 34.449816 160.110545 
L 35.100426 160.110545 
L 35.751037 160.110545 
L 36.401647 160.110545 
L 37.052257 160.110545 
L 37.702868 160.110545 
L 38.353478 160.110545 
L 39.004088 160.110545 
L 39.654698 160.110545 
L 40.305309 160.110545 
L 40.955919 160.110545 
L 41.606529 160.110545 
L 42.25714 160.110545 
L 42.90775 160.110545 
L 43.55836 160.110545 
L 44.208971 160.110545 
L 44.859581 160.110545 
L 45.510191 160.110545 
L 46.160802 160.110545 
L 46.811412 160.110545 
L 47.462022 160.110545 
L 48.112633 160.110545 
L 48.763243 160.110545 
L 49.413853 160.110545 
L 50.064463 160.110545 
L 50.715074 160.110545 
L 51.365684 160.110545 
L 52.016294 160.110545 
L 52.666905 160.110545 
L 53.317515 160.110545 
L 53.968125 160.110545 
L 54.618736 160.110545 
L 55.269346 160.110545 
L 55.919956 160.110545 
L 56.570567 160.110545 
L 57.221177 160.110545 
L 57.871787 160.110545 
L 58.522398 160.110545 
L 59.173008 160.110545 
L 59.823618 160.110545 
L 60.474228 160.110545 
L 61.124839 160.110545 
L 61.775449 160.110545 
L 62.426059 160.110545 
L 63.07667 160.110545 
L 63.72728 160.110545 
L 64.37789 160.110545 
L 65.028501 160.110545 
L 65.679111 160.110545 
L 66.329721 160.110545 
L 66.980332 160.110545 
L 67.630942 160.110545 
L 68.281552 160.110545 
L 68.932163 160.110545 
L 69.582773 160.110545 
L 70.233383 160.110545 
L 70.883993 160.110545 
L 71.534604 160.110545 
L 72.185214 160.110545 
L 72.835824 160.110545 
L 73.486435 160.110545 
L 74.137045 160.110545 
L 74.787655 160.110545 
L 75.438266 160.110545 
L 76.088876 160.110545 
L 76.739486 160.110545 
L 77.390097 160.110545 
L 78.040707 160.110545 
L 78.691317 160.110545 
L 79.341927 160.110545 
L 79.992538 160.110545 
L 80.643148 160.110545 
L 81.293758 160.110545 
L 81.944369 160.110545 
L 82.594979 160.110545 
L 83.245589 160.110545 
L 83.8962 160.110545 
L 84.54681 160.110545 
L 85.19742 160.110545 
L 85.848031 160.110545 
L 86.498641 160.110545 
L 87.149251 160.110545 
L 87.799862 160.110545 
L 88.450472 160.110545 
L 89.101082 160.110545 
L 89.751692 160.110545 
L 90.402303 160.110545 
L 91.052913 160.110545 
L 91.703523 160.110545 
L 92.354134 160.110545 
L 93.004744 160.110545 
L 93.655354 160.110545 
L 94.305965 160.110545 
L 94.956575 160.110545 
L 95.607185 160.110545 
L 96.257796 160.110545 
L 96.908406 160.110545 
L 97.559016 160.110545 
L 98.209627 160.110545 
L 98.860237 160.110545 
L 99.510847 160.110545 
L 100.161457 160.110545 
L 100.812068 160.110545 
L 101.462678 160.110545 
L 102.113288 160.110545 
L 102.763899 160.110545 
L 103.414509 160.110545 
L 104.065119 160.110545 
L 104.71573 160.110545 
L 105.36634 160.110545 
L 106.01695 160.110545 
L 106.667561 160.110545 
L 107.318171 160.110545 
L 107.968781 160.110545 
L 108.619392 160.110545 
L 109.270002 160.110545 
L 109.920612 160.110545 
L 110.571222 160.110545 
L 111.221833 160.110545 
L 111.872443 160.110545 
L 112.523053 160.110545 
L 113.173664 160.110545 
L 113.824274 160.110545 
L 114.474884 160.110545 
L 115.125495 160.110545 
L 115.776105 160.110545 
L 116.426715 160.110545 
L 117.077326 160.110545 
L 117.727936 160.110545 
L 118.378546 160.110545 
L 119.029156 160.110545 
L 119.679767 160.110545 
L 120.330377 160.110545 
L 120.980987 160.110545 
L 121.631598 160.110545 
L 122.282208 160.110545 
L 122.932818 160.110545 
L 123.583429 160.110545 
L 124.234039 160.110545 
L 124.884649 160.110545 
L 125.53526 160.110545 
L 126.18587 160.110545 
L 126.83648 160.110545 
L 127.487091 160.110545 
L 128.137701 160.110545 
L 128.788311 160.110545 
L 129.438921 160.110545 
L 130.089532 160.110545 
L 130.740142 160.110545 
L 131.390752 160.110545 
L 132.041363 160.110545 
L 132.691973 160.110545 
L 133.342583 160.110545 
L 133.993194 160.110545 
L 134.643804 160.110545 
L 135.294414 160.110545 
L 135.945025 160.110545 
L 136.595635 160.110545 
L 137.246245 160.110545 
L 137.896856 160.110545 
L 138.547466 160.110545 
L 139.198076 160.110545 
L 139.848686 160.110545 
L 140.499297 160.110545 
L 141.149907 160.110545 
L 141.800517 160.110545 
L 142.451128 160.110545 
L 143.101738 160.110545 
L 143.752348 160.110545 
L 144.402959 160.110545 
L 145.053569 160.110545 
L 145.704179 160.110545 
L 146.35479 160.110545 
L 147.0054 160.110545 
L 147.65601 160.110545 
L 148.306621 160.110545 
L 148.957231 160.110545 
L 149.607841 160.110545 
L 150.258451 160.110545 
L 150.909062 160.110545 
L 151.559672 160.110545 
L 152.210282 160.110545 
L 152.860893 160.110545 
L 153.511503 160.110545 
L 154.162113 160.110545 
L 154.812724 160.110545 
L 155.463334 160.110545 
L 156.113944 160.110545 
L 156.764555 160.110545 
L 157.415165 160.110545 
L 158.065775 160.110545 
L 158.716385 160.110545 
L 159.366996 160.110545 
L 160.017606 160.110545 
L 160.668216 160.110545 
L 161.318827 160.110545 
L 161.969437 160.110545 
L 162.620047 160.110545 
L 163.270658 160.110545 
L 163.921268 160.110545 
L 164.571878 160.110545 
L 165.222489 160.110545 
L 165.873099 160.110545 
L 166.523709 160.110545 
L 167.17432 160.110545 
L 167.82493 160.110545 
L 168.47554 160.110545 
L 169.12615 160.110545 
L 169.776761 160.110545 
L 170.427371 160.110545 
L 171.077981 160.110545 
L 171.728592 160.110545 
L 172.379202 160.110545 
L 173.029812 160.110545 
L 173.680423 160.110545 
L 174.331033 160.110545 
L 174.981643 160.110545 
L 175.632254 160.110545 
L 176.282864 160.110545 
L 176.933474 160.110545 
L 177.584085 160.110545 
L 178.234695 160.110545 
L 178.885305 160.110545 
L 179.535915 160.110545 
L 180.186526 160.110545 
L 180.837136 160.110545 
L 181.487746 160.110545 
L 182.138357 160.110545 
L 182.788967 160.110545 
L 183.439577 160.110545 
L 184.090188 160.110545 
L 184.740798 160.110545 
L 185.391408 160.110545 
L 186.042019 160.110545 
L 186.692629 160.110545 
L 187.343239 160.110545 
L 187.99385 160.110545 
L 188.64446 160.110545 
L 189.29507 160.110545 
L 189.94568 160.110545 
L 190.596291 160.110545 
L 191.246901 160.110545 
L 191.897511 160.110545 
L 192.548122 160.110545 
L 193.198732 160.110545 
L 193.849342 160.110545 
L 194.499953 160.110545 
L 195.150563 160.110545 
L 195.801173 160.110545 
L 196.451784 160.110545 
L 197.102394 160.110545 
L 197.753004 160.110545 
L 198.403615 160.110545 
L 199.054225 160.110545 
L 199.704835 160.110545 
L 200.355445 160.110545 
L 201.006056 160.110545 
L 201.656666 160.110545 
L 202.307276 160.110545 
L 202.957887 160.110545 
L 203.608497 160.110545 
L 204.259107 160.110545 
L 204.909718 160.110545 
L 205.560328 160.110545 
L 206.210938 160.110545 
L 206.861549 160.110545 
L 207.512159 160.110545 
L 208.162769 160.110545 
L 208.813379 160.110545 
L 209.46399 160.110545 
L 210.1146 160.110545 
L 210.76521 160.110545 
L 211.415821 160.110545 
L 212.066431 160.110545 
L 212.717041 160.110545 
L 213.367652 160.110545 
L 214.018262 160.110545 
L 214.668872 160.110545 
L 215.319483 160.110545 
L 215.970093 160.110545 
L 216.620703 160.110545 
L 217.271314 160.110545 
L 217.921924 160.110545 
L 218.572534 160.110545 
L 219.223144 160.110545 
L 219.873755 160.110545 
L 220.524365 160.110545 
L 221.174975 160.110545 
L 221.825586 160.110545 
L 222.476196 160.110545 
L 223.126806 160.110545 
L 223.777417 160.110545 
L 224.428027 160.110545 
L 225.078637 160.110545 
L 225.729248 160.110545 
L 226.379858 160.110545 
L 227.030468 160.110545 
L 227.681079 160.110545 
L 228.331689 160.110545 
L 228.982299 160.110545 
L 229.632909 160.110545 
L 230.28352 160.110545 
L 230.93413 160.110545 
L 231.58474 160.110545 
L 232.235351 160.110545 
L 232.885961 160.110545 
L 233.536571 160.110545 
L 234.187182 160.110545 
L 234.837792 160.110545 
L 235.488402 160.110545 
L 236.139013 160.110545 
L 236.789623 160.110545 
L 237.440233 160.110545 
L 238.090844 160.110545 
L 238.741454 160.110545 
L 239.392064 160.110545 
L 240.042674 160.110545 
L 240.693285 160.110545 
L 241.343895 160.110545 
L 241.994505 160.110545 
L 242.645116 160.110545 
L 243.295726 160.110545 
L 243.946336 160.110545 
L 244.596947 160.110545 
L 245.247557 160.110545 
L 245.898167 160.110545 
L 246.548778 160.110545 
L 247.199388 160.110545 
L 247.849998 160.110545 
L 248.500608 160.110545 
L 249.151219 160.110545 
L 249.801829 160.110545 
L 250.452439 160.110545 
L 251.10305 160.110545 
L 251.75366 160.110545 
L 252.40427 160.110545 
L 253.054881 160.110545 
L 253.705491 160.110545 
L 254.356101 160.110545 
L 255.006712 160.110545 
L 255.657322 160.110545 
L 256.307932 160.110545 
L 256.958543 160.110545 
L 257.609153 160.110545 
L 258.259763 160.110545 
L 258.910373 160.110545 
L 259.560984 160.110545 
L 260.211594 160.110545 
L 260.862204 160.110545 
L 261.512815 160.110545 
L 262.163425 160.110545 
L 262.814035 160.110545 
L 263.464646 160.110545 
L 264.115256 160.110545 
L 264.765866 160.110545 
L 265.416477 160.110545 
L 266.067087 160.110545 
L 266.717697 160.110545 
L 267.368308 160.110545 
L 268.018918 160.110545 
L 268.669528 160.110545 
L 269.320138 160.110545 
L 269.970749 160.110545 
L 270.621359 160.110545 
L 271.271969 160.110545 
L 271.92258 160.110545 
L 272.57319 160.110545 
L 273.2238 160.110545 
L 273.874411 160.110545 
L 274.525021 160.110545 
L 275.175631 160.110545 
L 275.826242 160.110545 
L 276.476852 160.110545 
L 277.127462 160.110545 
L 277.778073 160.110545 
L 278.428683 160.110545 
L 279.079293 160.110545 
L 279.729903 160.110545 
L 280.380514 160.110545 
L 281.031124 160.110545 
L 281.681734 160.110545 
L 282.332345 160.110545 
L 282.982955 160.110545 
L 283.633565 160.110545 
L 284.284176 160.110545 
L 284.934786 160.110545 
L 285.585396 160.110545 
L 286.236007 160.110545 
L 286.886617 160.110545 
L 287.537227 160.110545 
L 288.187837 160.110545 
L 288.838448 160.110545 
L 289.489058 160.110545 
L 290.139668 160.110545 
L 290.790279 160.110545 
L 291.440889 160.110545 
L 292.091499 160.110545 
L 292.74211 160.110545 
L 293.39272 160.110545 
L 294.04333 160.110545 
L 294.693941 160.110545 
L 295.344551 160.110545 
L 295.995161 160.110545 
L 296.645772 160.110545 
L 297.296382 160.110545 
L 297.946992 160.110545 
L 298.597602 160.110545 
L 299.248213 160.110545 
L 299.898823 160.110545 
L 300.549433 160.110545 
L 301.200044 160.110545 
L 301.850654 160.110545 
L 302.501264 160.110545 
L 303.151875 160.110545 
L 303.802485 160.110545 
L 304.453095 160.110545 
L 305.103706 160.110545 
L 305.754316 160.110545 
L 306.404926 160.110545 
L 307.055537 160.110545 
L 307.706147 160.110545 
L 308.356757 160.110545 
L 309.007367 160.110545 
L 309.657978 160.110545 
L 310.308588 160.110545 
L 310.959198 160.110545 
L 311.609809 160.110545 
L 312.260419 160.110545 
L 312.911029 160.110545 
L 313.56164 160.110545 
L 314.21225 160.110545 
L 314.86286 160.110545 
L 315.513471 160.110545 
L 316.164081 160.110545 
L 316.814691 160.110545 
L 317.465302 160.110545 
L 318.115912 160.110545 
L 318.766522 160.110545 
L 319.417132 160.110545 
L 320.067743 160.110545 
L 320.718353 160.110545 
L 321.368963 160.110545 
L 322.019574 160.110545 
L 322.670184 160.110545 
L 323.320794 160.110545 
L 323.971405 160.110545 
L 324.622015 160.110545 
L 325.272625 160.110545 
L 325.923236 160.110545 
L 326.573846 160.110545 
L 327.224456 160.110545 
L 327.875066 160.110545 
L 328.525677 160.110545 
L 329.176287 160.110545 
L 329.826897 160.110545 
L 330.477508 160.110545 
L 331.128118 160.110545 
L 331.778728 160.110545 
L 332.429339 160.110545 
L 333.079949 160.110545 
L 333.730559 160.110545 
L 334.38117 160.110545 
L 335.03178 160.110545 
L 335.68239 160.110545 
L 336.333001 160.110545 
L 336.983611 160.110545 
L 337.634221 160.110545 
L 338.284831 160.110545 
L 338.935442 160.110545 
L 339.586052 160.110545 
L 340.236662 160.110545 
L 340.887273 160.110545 
L 340.887273 106.001461 
L 340.887273 106.001461 
L 340.236662 106.486871 
L 339.586052 106.972282 
L 338.935442 107.457692 
L 338.284831 107.943103 
L 337.634221 108.428513 
L 336.983611 108.913924 
L 336.333001 109.399334 
L 335.68239 109.884745 
L 335.03178 110.370155 
L 334.38117 110.855566 
L 333.730559 111.340976 
L 333.079949 111.826387 
L 332.429339 112.311797 
L 331.778728 112.797208 
L 331.128118 113.282618 
L 330.477508 113.768028 
L 329.826897 114.253439 
L 329.176287 114.738849 
L 328.525677 115.22426 
L 327.875066 115.70967 
L 327.224456 116.195081 
L 326.573846 116.680491 
L 325.923236 118.132439 
L 325.272625 120.39131 
L 324.622015 122.650181 
L 323.971405 124.909052 
L 323.320794 127.167923 
L 322.670184 129.426794 
L 322.019574 131.685665 
L 321.368963 133.944536 
L 320.718353 136.203407 
L 320.067743 138.462278 
L 319.417132 140.721149 
L 318.766522 142.980021 
L 318.115912 145.238892 
L 317.465302 147.497763 
L 316.814691 149.756634 
L 316.164081 152.015505 
L 315.513471 154.274376 
L 314.86286 156.533247 
L 314.21225 158.792118 
L 313.56164 160.109762 
L 312.911029 160.109688 
L 312.260419 160.109614 
L 311.609809 160.109541 
L 310.959198 160.109467 
L 310.308588 160.109393 
L 309.657978 160.109319 
L 309.007367 160.109246 
L 308.356757 160.109172 
L 307.706147 160.109098 
L 307.055537 160.109025 
L 306.404926 160.108951 
L 305.754316 160.108877 
L 305.103706 160.108804 
L 304.453095 160.10873 
L 303.802485 160.108656 
L 303.151875 160.108582 
L 302.501264 160.108509 
L 301.850654 160.108435 
L 301.200044 160.108361 
L 300.549433 160.108288 
L 299.898823 160.108214 
L 299.248213 160.10814 
L 298.597602 160.10592 
L 297.946992 160.103614 
L 297.296382 160.101309 
L 296.645772 160.099003 
L 295.995161 160.096698 
L 295.344551 160.094392 
L 294.693941 160.092086 
L 294.04333 160.089781 
L 293.39272 160.087475 
L 292.74211 160.085169 
L 292.091499 160.082864 
L 291.440889 160.080558 
L 290.790279 160.078252 
L 290.139668 160.075947 
L 289.489058 160.073641 
L 288.838448 160.071336 
L 288.187837 160.06903 
L 287.537227 160.066724 
L 286.886617 160.064419 
L 286.236007 160.065714 
L 285.585396 160.067731 
L 284.934786 160.069747 
L 284.284176 160.071763 
L 283.633565 160.073779 
L 282.982955 160.075795 
L 282.332345 160.077812 
L 281.681734 160.079828 
L 281.031124 160.081844 
L 280.380514 160.08386 
L 279.729903 160.085876 
L 279.079293 160.087892 
L 278.428683 160.089909 
L 277.778073 160.091925 
L 277.127462 160.093941 
L 276.476852 160.095957 
L 275.826242 160.097973 
L 275.175631 160.099989 
L 274.525021 160.102006 
L 273.874411 160.104022 
L 273.2238 160.106038 
L 272.57319 160.108054 
L 271.92258 160.109305 
L 271.271969 160.109299 
L 270.621359 160.109292 
L 269.970749 160.109286 
L 269.320138 160.109279 
L 268.669528 160.109273 
L 268.018918 160.109266 
L 267.368308 160.10926 
L 266.717697 160.109253 
L 266.067087 160.109247 
L 265.416477 160.10924 
L 264.765866 160.109234 
L 264.115256 160.109227 
L 263.464646 160.109221 
L 262.814035 160.109214 
L 262.163425 160.109208 
L 261.512815 160.109201 
L 260.862204 160.109195 
L 260.211594 160.109188 
L 259.560984 160.109182 
L 258.910373 160.109176 
L 258.259763 160.109169 
L 257.609153 160.109163 
L 256.958543 160.109157 
L 256.307932 160.10915 
L 255.657322 160.109144 
L 255.006712 160.109138 
L 254.356101 160.109132 
L 253.705491 160.109125 
L 253.054881 160.109119 
L 252.40427 160.109113 
L 251.75366 160.109106 
L 251.10305 160.1091 
L 250.452439 160.109094 
L 249.801829 160.109087 
L 249.151219 160.109081 
L 248.500608 160.109075 
L 247.849998 160.109068 
L 247.199388 160.109062 
L 246.548778 160.109056 
L 245.898167 160.109049 
L 245.247557 160.109043 
L 244.596947 160.09817 
L 243.946336 160.084494 
L 243.295726 160.070819 
L 242.645116 160.057143 
L 241.994505 160.043468 
L 241.343895 160.029792 
L 240.693285 160.016116 
L 240.042674 160.002441 
L 239.392064 159.988765 
L 238.741454 159.97509 
L 238.090844 159.961414 
L 237.440233 159.947739 
L 236.789623 159.934063 
L 236.139013 159.920387 
L 235.488402 159.906712 
L 234.837792 159.893036 
L 234.187182 159.879361 
L 233.536571 159.865685 
L 232.885961 159.85201 
L 232.235351 159.81996 
L 231.58474 159.778724 
L 230.93413 159.737487 
L 230.28352 159.696251 
L 229.632909 159.655014 
L 228.982299 159.613778 
L 228.331689 159.572542 
L 227.681079 159.531305 
L 227.030468 159.490069 
L 226.379858 159.448832 
L 225.729248 159.407596 
L 225.078637 159.366359 
L 224.428027 159.325123 
L 223.777417 159.283887 
L 223.126806 159.24265 
L 222.476196 159.201414 
L 221.825586 159.160177 
L 221.174975 159.118941 
L 220.524365 159.077704 
L 219.873755 159.036468 
L 219.223144 158.995232 
L 218.572534 158.953995 
L 217.921924 158.927069 
L 217.271314 158.953441 
L 216.620703 158.979812 
L 215.970093 159.006184 
L 215.319483 159.032556 
L 214.668872 159.058927 
L 214.018262 159.085299 
L 213.367652 159.111671 
L 212.717041 159.138042 
L 212.066431 159.164414 
L 211.415821 159.190786 
L 210.76521 159.217158 
L 210.1146 159.243529 
L 209.46399 159.269901 
L 208.813379 159.296273 
L 208.162769 159.322644 
L 207.512159 159.349016 
L 206.861549 159.375388 
L 206.210938 159.401759 
L 205.560328 159.426004 
L 204.909718 159.426855 
L 204.259107 159.427706 
L 203.608497 159.428556 
L 202.957887 159.429407 
L 202.307276 159.430257 
L 201.656666 159.431108 
L 201.006056 159.431959 
L 200.355445 159.432809 
L 199.704835 159.43366 
L 199.054225 159.434511 
L 198.403615 159.435361 
L 197.753004 159.436212 
L 197.102394 159.437063 
L 196.451784 159.437913 
L 195.801173 159.438764 
L 195.150563 159.439615 
L 194.499953 159.440465 
L 193.849342 159.441316 
L 193.198732 159.442167 
L 192.548122 159.443017 
L 191.897511 159.443868 
L 191.246901 159.444718 
L 190.596291 159.422292 
L 189.94568 159.386098 
L 189.29507 159.349903 
L 188.64446 159.313709 
L 187.99385 159.277514 
L 187.343239 159.24132 
L 186.692629 159.205125 
L 186.042019 159.16893 
L 185.391408 159.132736 
L 184.740798 159.096541 
L 184.090188 159.060347 
L 183.439577 159.024152 
L 182.788967 158.987958 
L 182.138357 158.951763 
L 181.487746 158.915568 
L 180.837136 158.879374 
L 180.186526 158.843179 
L 179.535915 158.806985 
L 178.885305 158.77079 
L 178.234695 158.781023 
L 177.584085 158.837684 
L 176.933474 158.894345 
L 176.282864 158.951006 
L 175.632254 159.007667 
L 174.981643 159.064328 
L 174.331033 159.120989 
L 173.680423 159.17765 
L 173.029812 159.234311 
L 172.379202 159.290971 
L 171.728592 159.347632 
L 171.077981 159.404293 
L 170.427371 159.460954 
L 169.776761 159.517615 
L 169.12615 159.574276 
L 168.47554 159.630937 
L 167.82493 159.687598 
L 167.17432 159.744259 
L 166.523709 159.80092 
L 165.873099 159.857581 
L 165.222489 159.914241 
L 164.571878 159.970902 
L 163.921268 160.025161 
L 163.270658 160.028431 
L 162.620047 160.0317 
L 161.969437 160.03497 
L 161.318827 160.03824 
L 160.668216 160.04151 
L 160.017606 160.04478 
L 159.366996 160.048049 
L 158.716385 160.051319 
L 158.065775 160.054589 
L 157.415165 160.057859 
L 156.764555 160.061129 
L 156.113944 160.064399 
L 155.463334 160.067668 
L 154.812724 160.070938 
L 154.162113 160.074208 
L 153.511503 160.077478 
L 152.860893 160.080748 
L 152.210282 160.084017 
L 151.559672 160.087287 
L 150.909062 160.088198 
L 150.258451 160.088895 
L 149.607841 160.089591 
L 148.957231 160.090288 
L 148.306621 160.090984 
L 147.65601 160.091681 
L 147.0054 160.092377 
L 146.35479 160.093073 
L 145.704179 160.09377 
L 145.053569 160.094466 
L 144.402959 160.095163 
L 143.752348 160.095859 
L 143.101738 160.096556 
L 142.451128 160.097252 
L 141.800517 160.097949 
L 141.149907 160.098645 
L 140.499297 160.099342 
L 139.848686 160.100038 
L 139.198076 160.100735 
L 138.547466 160.101431 
L 137.896856 160.102128 
L 137.246245 160.102824 
L 136.595635 160.103371 
L 135.945025 160.103742 
L 135.294414 160.104114 
L 134.643804 160.104485 
L 133.993194 160.104857 
L 133.342583 160.105228 
L 132.691973 160.1056 
L 132.041363 160.105971 
L 131.390752 160.106343 
L 130.740142 160.106714 
L 130.089532 160.107086 
L 129.438921 160.107457 
L 128.788311 160.107829 
L 128.137701 160.1082 
L 127.487091 160.108572 
L 126.83648 160.108943 
L 126.18587 160.109315 
L 125.53526 160.109687 
L 124.884649 160.110058 
L 124.234039 160.110306 
L 123.583429 160.110306 
L 122.932818 160.110307 
L 122.282208 160.110307 
L 121.631598 160.110308 
L 120.980987 160.110308 
L 120.330377 160.110309 
L 119.679767 160.11031 
L 119.029156 160.11031 
L 118.378546 160.110311 
L 117.727936 160.110311 
L 117.077326 160.110312 
L 116.426715 160.110312 
L 115.776105 160.110313 
L 115.125495 160.110313 
L 114.474884 160.110314 
L 113.824274 160.110314 
L 113.173664 160.110315 
L 112.523053 160.110315 
L 111.872443 160.110316 
L 111.221833 160.110316 
L 110.571222 160.110317 
L 109.920612 160.110317 
L 109.270002 160.11027 
L 108.619392 160.110216 
L 107.968781 160.110163 
L 107.318171 160.110109 
L 106.667561 160.110055 
L 106.01695 160.110001 
L 105.36634 160.109948 
L 104.71573 160.109894 
L 104.065119 160.10984 
L 103.414509 160.109787 
L 102.763899 160.109733 
L 102.113288 160.109679 
L 101.462678 160.109625 
L 100.812068 160.109572 
L 100.161457 160.109518 
L 99.510847 160.109464 
L 98.860237 160.10941 
L 98.209627 160.109357 
L 97.559016 160.109303 
L 96.908406 160.109331 
L 96.257796 160.109385 
L 95.607185 160.10944 
L 94.956575 160.109495 
L 94.305965 160.10955 
L 93.655354 160.109604 
L 93.004744 160.109659 
L 92.354134 160.109714 
L 91.703523 160.109768 
L 91.052913 160.109823 
L 90.402303 160.109878 
L 89.751692 160.109933 
L 89.101082 160.109987 
L 88.450472 160.110042 
L 87.799862 160.110097 
L 87.149251 160.110152 
L 86.498641 160.110206 
L 85.848031 160.110261 
L 85.19742 160.110316 
L 84.54681 160.11037 
L 83.8962 160.110425 
L 83.245589 160.11048 
L 82.594979 160.110519 
L 81.944369 160.110519 
L 81.293758 160.11052 
L 80.643148 160.11052 
L 79.992538 160.110521 
L 79.341927 160.110521 
L 78.691317 160.110522 
L 78.040707 160.110523 
L 77.390097 160.110523 
L 76.739486 160.110524 
L 76.088876 160.110524 
L 75.438266 160.110525 
L 74.787655 160.110526 
L 74.137045 160.110526 
L 73.486435 160.110527 
L 72.835824 160.110527 
L 72.185214 160.110528 
L 71.534604 160.110528 
L 70.883993 160.110529 
L 70.233383 160.110523 
L 69.582773 160.110483 
L 68.932163 160.110444 
L 68.281552 160.110404 
L 67.630942 160.110364 
L 66.980332 160.110324 
L 66.329721 160.110285 
L 65.679111 160.110245 
L 65.028501 160.110205 
L 64.37789 160.110166 
L 63.72728 160.110126 
L 63.07667 160.110086 
L 62.426059 160.110047 
L 61.775449 160.110007 
L 61.124839 160.109967 
L 60.474228 160.109928 
L 59.823618 160.109888 
L 59.173008 160.109848 
L 58.522398 160.109809 
L 57.871787 160.109769 
L 57.221177 160.109729 
L 56.570567 160.109689 
L 55.919956 160.10965 
L 55.269346 160.109133 
L 54.618736 160.108424 
L 53.968125 160.107714 
L 53.317515 160.107004 
L 52.666905 160.106295 
L 52.016294 160.105585 
L 51.365684 160.104875 
L 50.715074 160.104166 
L 50.064463 160.103456 
L 49.413853 160.102747 
L 48.763243 160.102037 
L 48.112633 160.101327 
L 47.462022 160.100618 
L 46.811412 160.099908 
L 46.160802 160.099198 
L 45.510191 160.098489 
L 44.859581 160.097779 
L 44.208971 160.097069 
L 43.55836 160.09636 
L 42.90775 160.096184 
L 42.25714 160.09639 
L 41.606529 160.096596 
L 40.955919 160.096801 
L 40.305309 160.097007 
L 39.654698 160.097213 
L 39.004088 160.097419 
L 38.353478 160.097625 
L 37.702868 160.097831 
L 37.052257 160.098036 
L 36.401647 160.098242 
L 35.751037 160.098448 
L 35.100426 160.098654 
L 34.449816 160.09886 
L 33.799206 160.099065 
L 33.148595 160.099271 
L 32.497985 160.099477 
L 31.847375 160.099683 
L 31.196764 160.099889 
L 30.546154 160.100094 
L 29.895544 160.1003 
L 29.244934 160.100506 
L 28.594323 160.100751 
L 27.943713 160.101266 
L 27.293103 160.101781 
L 26.642492 160.102296 
L 25.991882 160.102811 
L 25.341272 160.103326 
L 24.690661 160.103841 
L 24.040051 160.104356 
L 23.389441 160.104871 
L 22.73883 160.105386 
L 22.08822 160.105901 
L 21.43761 160.106416 
L 20.786999 160.106931 
L 20.136389 160.107446 
L 19.485779 160.107961 
L 18.835169 160.108475 
L 18.184558 160.10899 
L 17.533948 160.109505 
L 16.883338 160.11002 
L 16.232727 160.110535 
z
" style="fill:#f15a24;fill-opacity:0.3;"/>
   </g>
   <g id="PathCollection_1">
    <defs>
     <path d="M 0 1.581139 
C 0.419323 1.581139 0.821528 1.41454 1.118034 1.118034 
C 1.41454 0.821528 1.581139 0.419323 1.581139 -0 
C 1.581139 -0.419323 1.41454 -0.821528 1.118034 -1.118034 
C 0.821528 -1.41454 0.419323 -1.581139 0 -1.581139 
C -0.419323 -1.581139 -0.821528 -1.41454 -1.118034 -1.118034 
C -1.41454 -0.821528 -1.581139 -0.419323 -1.581139 0 
C -1.581139 0.419323 -1.41454 0.821528 -1.118034 1.118034 
C -0.821528 1.41454 -0.419323 1.581139 0 1.581139 
z
" id="C0_0_2fe6146d8a"/>
    </defs>
    <g clip-path="url(#p80ac65fd0c)">
     <use style="fill:#ffff00;stroke:#ffff00;stroke-width:0.5;" x="16.232727" xlink:href="#C0_0_2fe6146d8a" y="106.0019"/>
    </g>
    <g clip-path="url(#p80ac65fd0c)">
     <use style="fill:#008000;stroke:#008000;stroke-width:0.5;" x="28.677818" xlink:href="#C0_0_2fe6146d8a" y="106.012191"/>
    </g>
    <g clip-path="url(#p80ac65fd0c)">
     <use style="fill:#008000;stroke:#008000;stroke-width:0.5;" x="43.287273" xlink:href="#C0_0_2fe6146d8a" y="106.018754"/>
    </g>
    <g clip-path="url(#p80ac65fd0c)">
     <use style="fill:#008000;stroke:#008000;stroke-width:0.5;" x="55.732364" xlink:href="#C0_0_2fe6146d8a" y="106.00237"/>
    </g>
    <g clip-path="url(#p80ac65fd0c)">
     <use style="fill:#008000;stroke:#008000;stroke-width:0.5;" x="70.341818" xlink:href="#C0_0_2fe6146d8a" y="106.001467"/>
    </g>
    <g clip-path="url(#p80ac65fd0c)">
     <use style="fill:#008000;stroke:#008000;stroke-width:0.5;" x="82.786909" xlink:href="#C0_0_2fe6146d8a" y="106.001487"/>
    </g>
    <g clip-path="url(#p80ac65fd0c)">
     <use style="fill:#ffff00;stroke:#ffff00;stroke-width:0.5;" x="97.396364" xlink:href="#C0_0_2fe6146d8a" y="112.191285"/>
    </g>
    <g clip-path="url(#p80ac65fd0c)">
     <use style="fill:#ffff00;stroke:#ffff00;stroke-width:0.5;" x="109.841455" xlink:href="#C0_0_2fe6146d8a" y="106.21901"/>
    </g>
    <g clip-path="url(#p80ac65fd0c)">
     <use style="fill:#ffff00;stroke:#ffff00;stroke-width:0.5;" x="124.450909" xlink:href="#C0_0_2fe6146d8a" y="106.121275"/>
    </g>
    <g clip-path="url(#p80ac65fd0c)">
     <use style="fill:#008000;stroke:#008000;stroke-width:0.5;" x="136.896" xlink:href="#C0_0_2fe6146d8a" y="106.009163"/>
    </g>
    <g clip-path="url(#p80ac65fd0c)">
     <use style="fill:#008000;stroke:#008000;stroke-width:0.5;" x="151.505455" xlink:href="#C0_0_2fe6146d8a" y="106.024472"/>
    </g>
    <g clip-path="url(#p80ac65fd0c)">
     <use style="fill:#008000;stroke:#008000;stroke-width:0.5;" x="163.950545" xlink:href="#C0_0_2fe6146d8a" y="106.087082"/>
    </g>
    <g clip-path="url(#p80ac65fd0c)">
     <use style="fill:#008000;stroke:#008000;stroke-width:0.5;" x="178.56" xlink:href="#C0_0_2fe6146d8a" y="107.360347"/>
    </g>
    <g clip-path="url(#p80ac65fd0c)">
     <use style="fill:#008000;stroke:#008000;stroke-width:0.5;" x="191.005091" xlink:href="#C0_0_2fe6146d8a" y="106.676869"/>
    </g>
    <g clip-path="url(#p80ac65fd0c)">
     <use style="fill:#008000;stroke:#008000;stroke-width:0.5;" x="205.614545" xlink:href="#C0_0_2fe6146d8a" y="106.688051"/>
    </g>
    <g clip-path="url(#p80ac65fd0c)">
     <use style="fill:#008000;stroke:#008000;stroke-width:0.5;" x="218.059636" xlink:href="#C0_0_2fe6146d8a" y="107.191788"/>
    </g>
    <g clip-path="url(#p80ac65fd0c)">
     <use style="fill:#008000;stroke:#008000;stroke-width:0.5;" x="232.669091" xlink:href="#C0_0_2fe6146d8a" y="106.264579"/>
    </g>
    <g clip-path="url(#p80ac65fd0c)">
     <use style="fill:#008000;stroke:#008000;stroke-width:0.5;" x="245.114182" xlink:href="#C0_0_2fe6146d8a" y="106.00297"/>
    </g>
    <g clip-path="url(#p80ac65fd0c)">
     <use style="fill:#008000;stroke:#008000;stroke-width:0.5;" x="259.723636" xlink:href="#C0_0_2fe6146d8a" y="106.00319"/>
    </g>
    <g clip-path="url(#p80ac65fd0c)">
     <use style="fill:#ffff00;stroke:#ffff00;stroke-width:0.5;" x="272.168727" xlink:href="#C0_0_2fe6146d8a" y="106.003519"/>
    </g>
    <g clip-path="url(#p80ac65fd0c)">
     <use style="fill:#ffff00;stroke:#ffff00;stroke-width:0.5;" x="286.778182" xlink:href="#C0_0_2fe6146d8a" y="106.048429"/>
    </g>
    <g clip-path="url(#p80ac65fd0c)">
     <use style="fill:#ffff00;stroke:#ffff00;stroke-width:0.5;" x="299.223273" xlink:href="#C0_0_2fe6146d8a" y="106.003886"/>
    </g>
    <g clip-path="url(#p80ac65fd0c)">
     <use style="fill:#ffff00;stroke:#ffff00;stroke-width:0.5;" x="313.832727" xlink:href="#C0_0_2fe6146d8a" y="106.002216"/>
    </g>
    <g clip-path="url(#p80ac65fd0c)">
     <use style="fill:#ff0000;stroke:#ff0000;stroke-width:0.5;" x="326.277818" xlink:href="#C0_0_2fe6146d8a" y="116.901353"/>
    </g>
    <g clip-path="url(#p80ac65fd0c)">
     <use style="fill:#ff0000;stroke:#ff0000;stroke-width:0.5;" x="340.887273" xlink:href="#C0_0_2fe6146d8a" y="106.001461"/>
    </g>
   </g>
   <g id="line2d_1">
    <path clip-path="url(#p80ac65fd0c)" d="M 16.232727 160.110111 
L 28.594323 106.375139 
L 29.244934 106.012446 
L 82.594979 106.001486 
L 83.245589 107.506004 
L 96.908406 152.321419 
L 97.559016 154.000012 
L 109.920612 159.893751 
L 124.234039 159.989514 
L 124.884649 158.109574 
L 136.595635 107.312027 
L 137.246245 106.00953 
L 164.571878 106.141234 
L 178.885305 107.342481 
L 192.548122 106.67805 
L 208.162769 106.791195 
L 218.572534 107.159236 
L 234.837792 106.21899 
L 249.801829 106.003041 
L 259.560984 106.003187 
L 260.211594 108.124645 
L 271.92258 159.03956 
L 272.57319 160.109728 
L 340.887273 160.110545 
L 340.887273 160.110545 
" style="fill:none;stroke:#61c46e;stroke-linecap:square;"/>
   </g>
   <g id="line2d_2">
    <path clip-path="url(#p80ac65fd0c)" d="M 16.232727 106.0019 
L 28.594323 159.746659 
L 29.244934 160.109596 
L 82.594979 160.110542 
L 83.245589 158.606063 
L 96.908406 113.791794 
L 97.559016 112.113229 
L 109.920612 106.218481 
L 124.234039 106.122726 
L 124.884649 108.002914 
L 136.595635 158.807153 
L 137.246245 160.110194 
L 259.560984 160.110174 
L 260.211594 157.98871 
L 271.92258 107.073676 
L 272.57319 106.004762 
L 307.706147 106.002916 
L 313.56164 106.002247 
L 314.21225 107.319908 
L 325.923236 147.98013 
L 326.573846 149.432079 
L 340.887273 160.110537 
L 340.887273 160.110537 
" style="fill:none;stroke:#f6ed22;stroke-linecap:square;"/>
   </g>
   <g id="line2d_3">
    <path clip-path="url(#p80ac65fd0c)" d="M 16.232727 160.110535 
L 165.222489 159.914241 
L 178.885305 158.77079 
L 192.548122 159.443017 
L 208.162769 159.322644 
L 218.572534 158.953995 
L 234.837792 159.893036 
L 249.801829 160.109087 
L 313.56164 160.109762 
L 314.21225 158.792118 
L 325.923236 118.132439 
L 326.573846 116.680491 
L 340.887273 106.001461 
L 340.887273 106.001461 
" style="fill:none;stroke:#f15a24;stroke-linecap:square;"/>
   </g>
  </g>
 </g>
 <defs>
  <clipPath id="p80ac65fd0c">
   <rect height="266.112" width="357.12" x="0" y="-0"/>
  </clipPath>
 </defs>
</svg>
