<?xml version="1.0" encoding="utf-8" standalone="no"?>
<!DOCTYPE svg PUBLIC "-//W3C//DTD SVG 1.1//EN"
  "http://www.w3.org/Graphics/SVG/1.1/DTD/svg11.dtd">
<svg height="266.112pt" version="1.1" viewBox="0 0 357.12 266.112" width="357.12pt" xmlns="http://www.w3.org/2000/svg" xmlns:xlink="http://www.w3.org/1999/xlink">
 <metadata>
  <rdf:RDF xmlns:cc="http://creativecommons.org/ns#" xmlns:dc="http://purl.org/dc/elements/1.1/" xmlns:rdf="http://www.w3.org/1999/02/22-rdf-syntax-ns#">
   <cc:Work>
    <dc:type rdf:resource="http://purl.org/dc/dcmitype/StillImage"/>
    <dc:date>2022-07-08T00:27:19.411182</dc:date>
    <dc:format>image/svg+xml</dc:format>
    <dc:creator>
     <cc:Agent>
      <dc:title>Matplotlib v3.4.2, https://matplotlib.org/</dc:title>
     </cc:Agent>
    </dc:creator>
   </cc:Work>
  </rdf:RDF>
 </metadata>
 <defs>
  <style type="text/css">*{stroke-linecap:butt;stroke-linejoin:round;}</style>
 </defs>
 <g id="figure_1">
  <g id="patch_1">
   <path d="M 0 266.112 
L 357.12 266.112 
L 357.12 0 
L 0 0 
z
" style="fill:#ffffff;"/>
  </g>
  <g id="axes_1">
   <g id="PolyCollection_1">
    <path clip-path="url(#paabe25136a)" d="M 16.232727 108.343181 
L 16.232727 158.145223 
L 16.883338 158.145223 
L 17.533948 158.145223 
L 18.184558 158.145223 
L 18.835169 158.145223 
L 19.485779 158.145223 
L 20.136389 158.145223 
L 20.786999 158.145223 
L 21.43761 158.145223 
L 22.08822 158.145223 
L 22.73883 158.145223 
L 23.389441 158.145223 
L 24.040051 158.145223 
L 24.690661 158.145223 
L 25.341272 158.145223 
L 25.991882 158.145223 
L 26.642492 158.145223 
L 27.293103 158.145223 
L 27.943713 158.145223 
L 28.594323 158.145223 
L 29.244934 158.145223 
L 29.895544 158.145223 
L 30.546154 158.145223 
L 31.196764 158.145223 
L 31.847375 158.145223 
L 32.497985 158.145223 
L 33.148595 158.145223 
L 33.799206 158.145223 
L 34.449816 158.145223 
L 35.100426 158.145223 
L 35.751037 158.145223 
L 36.401647 158.145223 
L 37.052257 158.145223 
L 37.702868 158.145223 
L 38.353478 158.145223 
L 39.004088 158.145223 
L 39.654698 158.145223 
L 40.305309 158.145223 
L 40.955919 158.145223 
L 41.606529 158.145223 
L 42.25714 158.145223 
L 42.90775 158.145223 
L 43.55836 158.145223 
L 44.208971 158.145223 
L 44.859581 158.145223 
L 45.510191 158.145223 
L 46.160802 158.145223 
L 46.811412 158.145223 
L 47.462022 158.145223 
L 48.112633 158.145223 
L 48.763243 158.145223 
L 49.413853 158.145223 
L 50.064463 158.145223 
L 50.715074 158.145223 
L 51.365684 158.145223 
L 52.016294 158.145223 
L 52.666905 158.145223 
L 53.317515 158.145223 
L 53.968125 158.145223 
L 54.618736 158.145223 
L 55.269346 158.145223 
L 55.919956 158.145223 
L 56.570567 158.145223 
L 57.221177 158.145223 
L 57.871787 158.145223 
L 58.522398 158.145223 
L 59.173008 158.145223 
L 59.823618 158.145223 
L 60.474228 158.145223 
L 61.124839 158.145223 
L 61.775449 158.145223 
L 62.426059 158.145223 
L 63.07667 158.145223 
L 63.72728 158.145223 
L 64.37789 158.145223 
L 65.028501 158.145223 
L 65.679111 158.145223 
L 66.329721 158.145223 
L 66.980332 158.145223 
L 67.630942 158.145223 
L 68.281552 158.145223 
L 68.932163 158.145223 
L 69.582773 158.145223 
L 70.233383 158.145223 
L 70.883993 158.145223 
L 71.534604 158.145223 
L 72.185214 158.145223 
L 72.835824 158.145223 
L 73.486435 158.145223 
L 74.137045 158.145223 
L 74.787655 158.145223 
L 75.438266 158.145223 
L 76.088876 158.145223 
L 76.739486 158.145223 
L 77.390097 158.145223 
L 78.040707 158.145223 
L 78.691317 158.145223 
L 79.341927 158.145223 
L 79.992538 158.145223 
L 80.643148 158.145223 
L 81.293758 158.145223 
L 81.944369 158.145223 
L 82.594979 158.145223 
L 83.245589 158.145223 
L 83.8962 158.145223 
L 84.54681 158.145223 
L 85.19742 158.145223 
L 85.848031 158.145223 
L 86.498641 158.145223 
L 87.149251 158.145223 
L 87.799862 158.145223 
L 88.450472 158.145223 
L 89.101082 158.145223 
L 89.751692 158.145223 
L 90.402303 158.145223 
L 91.052913 158.145223 
L 91.703523 158.145223 
L 92.354134 158.145223 
L 93.004744 158.145223 
L 93.655354 158.145223 
L 94.305965 158.145223 
L 94.956575 158.145223 
L 95.607185 158.145223 
L 96.257796 158.145223 
L 96.908406 158.145223 
L 97.559016 158.145223 
L 98.209627 158.145223 
L 98.860237 158.145223 
L 99.510847 158.145223 
L 100.161457 158.145223 
L 100.812068 158.145223 
L 101.462678 158.145223 
L 102.113288 158.145223 
L 102.763899 158.145223 
L 103.414509 158.145223 
L 104.065119 158.145223 
L 104.71573 158.145223 
L 105.36634 158.145223 
L 106.01695 158.145223 
L 106.667561 158.145223 
L 107.318171 158.145223 
L 107.968781 158.145223 
L 108.619392 158.145223 
L 109.270002 158.145223 
L 109.920612 158.145223 
L 110.571222 158.145223 
L 111.221833 158.145223 
L 111.872443 158.145223 
L 112.523053 158.145223 
L 113.173664 158.145223 
L 113.824274 158.145223 
L 114.474884 158.145223 
L 115.125495 158.145223 
L 115.776105 158.145223 
L 116.426715 158.145223 
L 117.077326 158.145223 
L 117.727936 158.145223 
L 118.378546 158.145223 
L 119.029156 158.145223 
L 119.679767 158.145223 
L 120.330377 158.145223 
L 120.980987 158.145223 
L 121.631598 158.145223 
L 122.282208 158.145223 
L 122.932818 158.145223 
L 123.583429 158.145223 
L 124.234039 158.145223 
L 124.884649 158.145223 
L 125.53526 158.145223 
L 126.18587 158.145223 
L 126.83648 158.145223 
L 127.487091 158.145223 
L 128.137701 158.145223 
L 128.788311 158.145223 
L 129.438921 158.145223 
L 130.089532 158.145223 
L 130.740142 158.145223 
L 131.390752 158.145223 
L 132.041363 158.145223 
L 132.691973 158.145223 
L 133.342583 158.145223 
L 133.993194 158.145223 
L 134.643804 158.145223 
L 135.294414 158.145223 
L 135.945025 158.145223 
L 136.595635 158.145223 
L 137.246245 158.145223 
L 137.896856 158.145223 
L 138.547466 158.145223 
L 139.198076 158.145223 
L 139.848686 158.145223 
L 140.499297 158.145223 
L 141.149907 158.145223 
L 141.800517 158.145223 
L 142.451128 158.145223 
L 143.101738 158.145223 
L 143.752348 158.145223 
L 144.402959 158.145223 
L 145.053569 158.145223 
L 145.704179 158.145223 
L 146.35479 158.145223 
L 147.0054 158.145223 
L 147.65601 158.145223 
L 148.306621 158.145223 
L 148.957231 158.145223 
L 149.607841 158.145223 
L 150.258451 158.145223 
L 150.909062 158.145223 
L 151.559672 158.145223 
L 152.210282 158.145223 
L 152.860893 158.145223 
L 153.511503 158.145223 
L 154.162113 158.145223 
L 154.812724 158.145223 
L 155.463334 158.145223 
L 156.113944 158.145223 
L 156.764555 158.145223 
L 157.415165 158.145223 
L 158.065775 158.145223 
L 158.716385 158.145223 
L 159.366996 158.145223 
L 160.017606 158.145223 
L 160.668216 158.145223 
L 161.318827 158.145223 
L 161.969437 158.145223 
L 162.620047 158.145223 
L 163.270658 158.145223 
L 163.921268 158.145223 
L 164.571878 158.145223 
L 165.222489 158.145223 
L 165.873099 158.145223 
L 166.523709 158.145223 
L 167.17432 158.145223 
L 167.82493 158.145223 
L 168.47554 158.145223 
L 169.12615 158.145223 
L 169.776761 158.145223 
L 170.427371 158.145223 
L 171.077981 158.145223 
L 171.728592 158.145223 
L 172.379202 158.145223 
L 173.029812 158.145223 
L 173.680423 158.145223 
L 174.331033 158.145223 
L 174.981643 158.145223 
L 175.632254 158.145223 
L 176.282864 158.145223 
L 176.933474 158.145223 
L 177.584085 158.145223 
L 178.234695 158.145223 
L 178.885305 158.145223 
L 179.535915 158.145223 
L 180.186526 158.145223 
L 180.837136 158.145223 
L 181.487746 158.145223 
L 182.138357 158.145223 
L 182.788967 158.145223 
L 183.439577 158.145223 
L 184.090188 158.145223 
L 184.740798 158.145223 
L 185.391408 158.145223 
L 186.042019 158.145223 
L 186.692629 158.145223 
L 187.343239 158.145223 
L 187.99385 158.145223 
L 188.64446 158.145223 
L 189.29507 158.145223 
L 189.94568 158.145223 
L 190.596291 158.145223 
L 191.246901 158.145223 
L 191.897511 158.145223 
L 192.548122 158.145223 
L 193.198732 158.145223 
L 193.849342 158.145223 
L 194.499953 158.145223 
L 195.150563 158.145223 
L 195.801173 158.145223 
L 196.451784 158.145223 
L 197.102394 158.145223 
L 197.753004 158.145223 
L 198.403615 158.145223 
L 199.054225 158.145223 
L 199.704835 158.145223 
L 200.355445 158.145223 
L 201.006056 158.145223 
L 201.656666 158.145223 
L 202.307276 158.145223 
L 202.957887 158.145223 
L 203.608497 158.145223 
L 204.259107 158.145223 
L 204.909718 158.145223 
L 205.560328 158.145223 
L 206.210938 158.145223 
L 206.861549 158.145223 
L 207.512159 158.145223 
L 208.162769 158.145223 
L 208.813379 158.145223 
L 209.46399 158.145223 
L 210.1146 158.145223 
L 210.76521 158.145223 
L 211.415821 158.145223 
L 212.066431 158.145223 
L 212.717041 158.145223 
L 213.367652 158.145223 
L 214.018262 158.145223 
L 214.668872 158.145223 
L 215.319483 158.145223 
L 215.970093 158.145223 
L 216.620703 158.145223 
L 217.271314 158.145223 
L 217.921924 158.145223 
L 218.572534 158.145223 
L 219.223144 158.145223 
L 219.873755 158.145223 
L 220.524365 158.145223 
L 221.174975 158.145223 
L 221.825586 158.145223 
L 222.476196 158.145223 
L 223.126806 158.145223 
L 223.777417 158.145223 
L 224.428027 158.145223 
L 225.078637 158.145223 
L 225.729248 158.145223 
L 226.379858 158.145223 
L 227.030468 158.145223 
L 227.681079 158.145223 
L 228.331689 158.145223 
L 228.982299 158.145223 
L 229.632909 158.145223 
L 230.28352 158.145223 
L 230.93413 158.145223 
L 231.58474 158.145223 
L 232.235351 158.145223 
L 232.885961 158.145223 
L 233.536571 158.145223 
L 234.187182 158.145223 
L 234.837792 158.145223 
L 235.488402 158.145223 
L 236.139013 158.145223 
L 236.789623 158.145223 
L 237.440233 158.145223 
L 238.090844 158.145223 
L 238.741454 158.145223 
L 239.392064 158.145223 
L 240.042674 158.145223 
L 240.693285 158.145223 
L 241.343895 158.145223 
L 241.994505 158.145223 
L 242.645116 158.145223 
L 243.295726 158.145223 
L 243.946336 158.145223 
L 244.596947 158.145223 
L 245.247557 158.145223 
L 245.898167 158.145223 
L 246.548778 158.145223 
L 247.199388 158.145223 
L 247.849998 158.145223 
L 248.500608 158.145223 
L 249.151219 158.145223 
L 249.801829 158.145223 
L 250.452439 158.145223 
L 251.10305 158.145223 
L 251.75366 158.145223 
L 252.40427 158.145223 
L 253.054881 158.145223 
L 253.705491 158.145223 
L 254.356101 158.145223 
L 255.006712 158.145223 
L 255.657322 158.145223 
L 256.307932 158.145223 
L 256.958543 158.145223 
L 257.609153 158.145223 
L 258.259763 158.145223 
L 258.910373 158.145223 
L 259.560984 158.145223 
L 260.211594 158.145223 
L 260.862204 158.145223 
L 261.512815 158.145223 
L 262.163425 158.145223 
L 262.814035 158.145223 
L 263.464646 158.145223 
L 264.115256 158.145223 
L 264.765866 158.145223 
L 265.416477 158.145223 
L 266.067087 158.145223 
L 266.717697 158.145223 
L 267.368308 158.145223 
L 268.018918 158.145223 
L 268.669528 158.145223 
L 269.320138 158.145223 
L 269.970749 158.145223 
L 270.621359 158.145223 
L 271.271969 158.145223 
L 271.92258 158.145223 
L 272.57319 158.145223 
L 273.2238 158.145223 
L 273.874411 158.145223 
L 274.525021 158.145223 
L 275.175631 158.145223 
L 275.826242 158.145223 
L 276.476852 158.145223 
L 277.127462 158.145223 
L 277.778073 158.145223 
L 278.428683 158.145223 
L 279.079293 158.145223 
L 279.729903 158.145223 
L 280.380514 158.145223 
L 281.031124 158.145223 
L 281.681734 158.145223 
L 282.332345 158.145223 
L 282.982955 158.145223 
L 283.633565 158.145223 
L 284.284176 158.145223 
L 284.934786 158.145223 
L 285.585396 158.145223 
L 286.236007 158.145223 
L 286.886617 158.145223 
L 287.537227 158.145223 
L 288.187837 158.145223 
L 288.838448 158.145223 
L 289.489058 158.145223 
L 290.139668 158.145223 
L 290.790279 158.145223 
L 291.440889 158.145223 
L 292.091499 158.145223 
L 292.74211 158.145223 
L 293.39272 158.145223 
L 294.04333 158.145223 
L 294.693941 158.145223 
L 295.344551 158.145223 
L 295.995161 158.145223 
L 296.645772 158.145223 
L 297.296382 158.145223 
L 297.946992 158.145223 
L 298.597602 158.145223 
L 299.248213 158.145223 
L 299.898823 158.145223 
L 300.549433 158.145223 
L 301.200044 158.145223 
L 301.850654 158.145223 
L 302.501264 158.145223 
L 303.151875 158.145223 
L 303.802485 158.145223 
L 304.453095 158.145223 
L 305.103706 158.145223 
L 305.754316 158.145223 
L 306.404926 158.145223 
L 307.055537 158.145223 
L 307.706147 158.145223 
L 308.356757 158.145223 
L 309.007367 158.145223 
L 309.657978 158.145223 
L 310.308588 158.145223 
L 310.959198 158.145223 
L 311.609809 158.145223 
L 312.260419 158.145223 
L 312.911029 158.145223 
L 313.56164 158.145223 
L 314.21225 158.145223 
L 314.86286 158.145223 
L 315.513471 158.145223 
L 316.164081 158.145223 
L 316.814691 158.145223 
L 317.465302 158.145223 
L 318.115912 158.145223 
L 318.766522 158.145223 
L 319.417132 158.145223 
L 320.067743 158.145223 
L 320.718353 158.145223 
L 321.368963 158.145223 
L 322.019574 158.145223 
L 322.670184 158.145223 
L 323.320794 158.145223 
L 323.971405 158.145223 
L 324.622015 158.145223 
L 325.272625 158.145223 
L 325.923236 158.145223 
L 326.573846 158.145223 
L 327.224456 158.145223 
L 327.875066 158.145223 
L 328.525677 158.145223 
L 329.176287 158.145223 
L 329.826897 158.145223 
L 330.477508 158.145223 
L 331.128118 158.145223 
L 331.778728 158.145223 
L 332.429339 158.145223 
L 333.079949 158.145223 
L 333.730559 158.145223 
L 334.38117 158.145223 
L 335.03178 158.145223 
L 335.68239 158.145223 
L 336.333001 158.145223 
L 336.983611 158.145223 
L 337.634221 158.145223 
L 338.284831 158.145223 
L 338.935442 158.145223 
L 339.586052 158.145223 
L 340.236662 158.145223 
L 340.887273 158.145223 
L 340.887273 158.145222 
L 340.887273 158.145222 
L 340.236662 158.145222 
L 339.586052 158.145222 
L 338.935442 158.145222 
L 338.284831 158.145222 
L 337.634221 158.145222 
L 336.983611 158.145222 
L 336.333001 158.145222 
L 335.68239 158.145222 
L 335.03178 158.145222 
L 334.38117 158.145222 
L 333.730559 158.145222 
L 333.079949 158.145222 
L 332.429339 158.145222 
L 331.778728 158.145222 
L 331.128118 158.145222 
L 330.477508 158.145222 
L 329.826897 158.145222 
L 329.176287 158.145222 
L 328.525677 158.145222 
L 327.875066 158.145222 
L 327.224456 158.145222 
L 326.573846 158.145222 
L 325.923236 158.145222 
L 325.272625 158.145222 
L 324.622015 158.145222 
L 323.971405 158.145222 
L 323.320794 158.145222 
L 322.670184 158.145222 
L 322.019574 158.145222 
L 321.368963 158.145222 
L 320.718353 158.145222 
L 320.067743 158.145222 
L 319.417132 158.145222 
L 318.766522 158.145222 
L 318.115912 158.145222 
L 317.465302 158.145222 
L 316.814691 158.145222 
L 316.164081 158.145222 
L 315.513471 158.145222 
L 314.86286 158.145222 
L 314.21225 158.145222 
L 313.56164 158.145222 
L 312.911029 158.145222 
L 312.260419 158.145222 
L 311.609809 158.145222 
L 310.959198 158.145222 
L 310.308588 158.145222 
L 309.657978 158.145222 
L 309.007367 158.145222 
L 308.356757 158.145222 
L 307.706147 158.145222 
L 307.055537 158.145222 
L 306.404926 158.145222 
L 305.754316 158.145222 
L 305.103706 158.145222 
L 304.453095 158.145222 
L 303.802485 158.145222 
L 303.151875 158.145222 
L 302.501264 158.145222 
L 301.850654 158.145222 
L 301.200044 158.145222 
L 300.549433 158.145222 
L 299.898823 158.145222 
L 299.248213 158.145222 
L 298.597602 158.145222 
L 297.946992 158.145222 
L 297.296382 158.145222 
L 296.645772 158.145222 
L 295.995161 158.145222 
L 295.344551 158.145222 
L 294.693941 158.145222 
L 294.04333 158.145222 
L 293.39272 158.145222 
L 292.74211 158.145222 
L 292.091499 158.145222 
L 291.440889 158.145222 
L 290.790279 158.145222 
L 290.139668 158.145222 
L 289.489058 158.145222 
L 288.838448 158.145221 
L 288.187837 158.145221 
L 287.537227 158.145221 
L 286.886617 158.145221 
L 286.236007 158.145221 
L 285.585396 158.145221 
L 284.934786 158.145221 
L 284.284176 158.145221 
L 283.633565 158.145221 
L 282.982955 158.145221 
L 282.332345 158.145221 
L 281.681734 158.145221 
L 281.031124 158.145221 
L 280.380514 158.145221 
L 279.729903 158.145221 
L 279.079293 158.145221 
L 278.428683 158.145221 
L 277.778073 158.145221 
L 277.127462 158.145221 
L 276.476852 158.145221 
L 275.826242 158.145221 
L 275.175631 158.145221 
L 274.525021 158.145222 
L 273.874411 158.145222 
L 273.2238 158.145222 
L 272.57319 158.145222 
L 271.92258 158.145222 
L 271.271969 158.145222 
L 270.621359 158.145222 
L 269.970749 158.145222 
L 269.320138 158.145222 
L 268.669528 158.145222 
L 268.018918 158.145222 
L 267.368308 158.145222 
L 266.717697 158.145222 
L 266.067087 158.145223 
L 265.416477 158.145223 
L 264.765866 158.145223 
L 264.115256 158.145223 
L 263.464646 158.145223 
L 262.814035 158.145223 
L 262.163425 158.145223 
L 261.512815 158.145223 
L 260.862204 158.145223 
L 260.211594 158.145223 
L 259.560984 158.145223 
L 258.910373 158.145223 
L 258.259763 158.145223 
L 257.609153 158.145223 
L 256.958543 158.145223 
L 256.307932 158.145222 
L 255.657322 158.145222 
L 255.006712 158.145222 
L 254.356101 158.145222 
L 253.705491 158.145222 
L 253.054881 158.145222 
L 252.40427 158.145222 
L 251.75366 158.145222 
L 251.10305 158.145222 
L 250.452439 158.145222 
L 249.801829 158.145222 
L 249.151219 158.145222 
L 248.500608 158.145222 
L 247.849998 158.145222 
L 247.199388 158.145222 
L 246.548778 158.145222 
L 245.898167 158.145222 
L 245.247557 158.145222 
L 244.596947 158.145222 
L 243.946336 158.145222 
L 243.295726 158.145222 
L 242.645116 158.145222 
L 241.994505 158.145222 
L 241.343895 158.145222 
L 240.693285 158.145222 
L 240.042674 158.145222 
L 239.392064 158.145222 
L 238.741454 158.145222 
L 238.090844 158.145222 
L 237.440233 158.145222 
L 236.789623 158.145222 
L 236.139013 158.145222 
L 235.488402 158.145222 
L 234.837792 158.145222 
L 234.187182 158.145222 
L 233.536571 158.145222 
L 232.885961 158.145222 
L 232.235351 158.145222 
L 231.58474 158.145222 
L 230.93413 158.145222 
L 230.28352 158.145222 
L 229.632909 158.145222 
L 228.982299 158.145222 
L 228.331689 158.145222 
L 227.681079 158.145222 
L 227.030468 158.145221 
L 226.379858 158.145221 
L 225.729248 158.145221 
L 225.078637 158.145221 
L 224.428027 158.145221 
L 223.777417 158.145221 
L 223.126806 158.145221 
L 222.476196 158.145221 
L 221.825586 158.145221 
L 221.174975 158.14522 
L 220.524365 158.14522 
L 219.873755 158.14522 
L 219.223144 158.14522 
L 218.572534 158.14522 
L 217.921924 158.14522 
L 217.271314 158.14522 
L 216.620703 158.14522 
L 215.970093 158.14522 
L 215.319483 158.145219 
L 214.668872 158.145219 
L 214.018262 158.14522 
L 213.367652 158.14522 
L 212.717041 158.14522 
L 212.066431 158.14522 
L 211.415821 158.14522 
L 210.76521 158.14522 
L 210.1146 158.14522 
L 209.46399 158.14522 
L 208.813379 158.14522 
L 208.162769 158.14522 
L 207.512159 158.14522 
L 206.861549 158.14522 
L 206.210938 158.14522 
L 205.560328 158.14522 
L 204.909718 158.14522 
L 204.259107 158.14522 
L 203.608497 158.14522 
L 202.957887 158.14522 
L 202.307276 158.14522 
L 201.656666 158.14522 
L 201.006056 158.14522 
L 200.355445 158.14522 
L 199.704835 158.14522 
L 199.054225 158.14522 
L 198.403615 158.14522 
L 197.753004 158.14522 
L 197.102394 158.14522 
L 196.451784 158.145219 
L 195.801173 158.145219 
L 195.150563 158.145219 
L 194.499953 158.145219 
L 193.849342 158.145219 
L 193.198732 158.145219 
L 192.548122 158.145219 
L 191.897511 158.145219 
L 191.246901 158.145219 
L 190.596291 158.145219 
L 189.94568 158.145219 
L 189.29507 158.145219 
L 188.64446 158.145219 
L 187.99385 158.145219 
L 187.343239 158.145219 
L 186.692629 158.14522 
L 186.042019 158.14522 
L 185.391408 158.14522 
L 184.740798 158.14522 
L 184.090188 158.14522 
L 183.439577 158.14522 
L 182.788967 158.14522 
L 182.138357 158.14522 
L 181.487746 158.14522 
L 180.837136 158.14522 
L 180.186526 158.14522 
L 179.535915 158.14522 
L 178.885305 158.145221 
L 178.234695 158.145221 
L 177.584085 158.145221 
L 176.933474 158.145221 
L 176.282864 158.145221 
L 175.632254 158.145221 
L 174.981643 158.145221 
L 174.331033 158.145221 
L 173.680423 158.145221 
L 173.029812 158.145221 
L 172.379202 158.145221 
L 171.728592 158.145221 
L 171.077981 158.145221 
L 170.427371 158.145221 
L 169.776761 158.145221 
L 169.12615 158.145221 
L 168.47554 158.145221 
L 167.82493 158.145221 
L 167.17432 158.145221 
L 166.523709 158.145221 
L 165.873099 158.145221 
L 165.222489 158.14522 
L 164.571878 158.14522 
L 163.921268 158.14522 
L 163.270658 158.14522 
L 162.620047 158.14522 
L 161.969437 158.14522 
L 161.318827 158.14522 
L 160.668216 158.14522 
L 160.017606 158.14522 
L 159.366996 158.14522 
L 158.716385 158.145219 
L 158.065775 158.145219 
L 157.415165 158.145219 
L 156.764555 158.145219 
L 156.113944 158.145219 
L 155.463334 158.145219 
L 154.812724 158.145219 
L 154.162113 158.145219 
L 153.511503 158.145219 
L 152.860893 158.145218 
L 152.210282 158.145216 
L 151.559672 158.145214 
L 150.909062 158.145212 
L 150.258451 158.14521 
L 149.607841 158.145208 
L 148.957231 158.145206 
L 148.306621 158.145204 
L 147.65601 158.145202 
L 147.0054 158.1452 
L 146.35479 158.145198 
L 145.704179 158.145197 
L 145.053569 158.145195 
L 144.402959 158.145193 
L 143.752348 158.145191 
L 143.101738 158.145189 
L 142.451128 158.145187 
L 141.800517 158.145185 
L 141.149907 158.145183 
L 140.499297 158.145181 
L 139.848686 158.145177 
L 139.198076 158.145173 
L 138.547466 158.145169 
L 137.896856 158.145166 
L 137.246245 158.145162 
L 136.595635 158.145158 
L 135.945025 158.145154 
L 135.294414 158.14515 
L 134.643804 158.145147 
L 133.993194 158.145143 
L 133.342583 158.145139 
L 132.691973 158.145135 
L 132.041363 158.145131 
L 131.390752 158.145128 
L 130.740142 158.145124 
L 130.089532 158.14512 
L 129.438921 158.145116 
L 128.788311 158.145113 
L 128.137701 158.145109 
L 127.487091 158.145113 
L 126.83648 158.145117 
L 126.18587 158.145121 
L 125.53526 158.145125 
L 124.884649 158.145129 
L 124.234039 158.145133 
L 123.583429 158.145137 
L 122.932818 158.145141 
L 122.282208 158.145145 
L 121.631598 158.145149 
L 120.980987 158.145153 
L 120.330377 158.145157 
L 119.679767 158.145161 
L 119.029156 158.145165 
L 118.378546 158.145169 
L 117.727936 158.145173 
L 117.077326 158.145177 
L 116.426715 158.145181 
L 115.776105 158.145185 
L 115.125495 158.145187 
L 114.474884 158.145187 
L 113.824274 158.145188 
L 113.173664 158.145189 
L 112.523053 158.145189 
L 111.872443 158.14519 
L 111.221833 158.145191 
L 110.571222 158.145191 
L 109.920612 158.145192 
L 109.270002 158.145193 
L 108.619392 158.145193 
L 107.968781 158.145194 
L 107.318171 158.145195 
L 106.667561 158.145195 
L 106.01695 158.145196 
L 105.36634 158.145197 
L 104.71573 158.145197 
L 104.065119 158.145198 
L 103.414509 158.145199 
L 102.763899 158.145199 
L 102.113288 158.1452 
L 101.462678 158.145201 
L 100.812068 158.145201 
L 100.161457 158.145202 
L 99.510847 158.145203 
L 98.860237 158.145204 
L 98.209627 158.145204 
L 97.559016 158.145205 
L 96.908406 158.145206 
L 96.257796 158.145206 
L 95.607185 158.145207 
L 94.956575 158.145208 
L 94.305965 158.145208 
L 93.655354 158.145209 
L 93.004744 158.14521 
L 92.354134 158.145211 
L 91.703523 158.145211 
L 91.052913 158.145212 
L 90.402303 158.145213 
L 89.751692 158.145213 
L 89.101082 158.145213 
L 88.450472 158.145214 
L 87.799862 158.145214 
L 87.149251 158.145215 
L 86.498641 158.145215 
L 85.848031 158.145215 
L 85.19742 158.145216 
L 84.54681 158.145216 
L 83.8962 158.145216 
L 83.245589 158.145217 
L 82.594979 158.145217 
L 81.944369 158.145218 
L 81.293758 158.145218 
L 80.643148 158.145218 
L 79.992538 158.145219 
L 79.341927 158.145219 
L 78.691317 158.14522 
L 78.040707 158.14522 
L 77.390097 158.14522 
L 76.739486 158.14522 
L 76.088876 158.14522 
L 75.438266 158.14522 
L 74.787655 158.14522 
L 74.137045 158.145221 
L 73.486435 158.145221 
L 72.835824 158.145221 
L 72.185214 158.145221 
L 71.534604 158.145221 
L 70.883993 158.145221 
L 70.233383 158.145221 
L 69.582773 158.145221 
L 68.932163 158.145221 
L 68.281552 158.145221 
L 67.630942 158.145221 
L 66.980332 158.145222 
L 66.329721 158.145222 
L 65.679111 158.145222 
L 65.028501 158.145222 
L 64.37789 158.145222 
L 63.72728 158.145222 
L 63.07667 158.145222 
L 62.426059 158.145222 
L 61.775449 158.145222 
L 61.124839 158.145222 
L 60.474228 158.145222 
L 59.823618 158.145222 
L 59.173008 158.145222 
L 58.522398 158.145222 
L 57.871787 158.145222 
L 57.221177 158.145222 
L 56.570567 158.145222 
L 55.919956 158.145222 
L 55.269346 158.145222 
L 54.618736 158.145222 
L 53.968125 158.145223 
L 53.317515 158.145223 
L 52.666905 158.145216 
L 52.016294 158.145192 
L 51.365684 158.145169 
L 50.715074 158.145146 
L 50.064463 158.145123 
L 49.413853 158.1451 
L 48.763243 158.145077 
L 48.112633 158.145053 
L 47.462022 158.14503 
L 46.811412 158.145007 
L 46.160802 158.144984 
L 45.510191 158.144961 
L 44.859581 158.144937 
L 44.208971 158.144914 
L 43.55836 158.144891 
L 42.90775 158.144868 
L 42.25714 158.144845 
L 41.606529 158.144822 
L 40.955919 158.144798 
L 40.305309 158.144776 
L 39.654698 158.144797 
L 39.004088 158.144818 
L 38.353478 158.144838 
L 37.702868 158.144859 
L 37.052257 158.14488 
L 36.401647 158.144901 
L 35.751037 158.144921 
L 35.100426 158.144942 
L 34.449816 158.144963 
L 33.799206 158.144984 
L 33.148595 158.145005 
L 32.497985 158.145025 
L 31.847375 158.145046 
L 31.196764 158.145067 
L 30.546154 158.145088 
L 29.895544 158.145108 
L 29.244934 158.145129 
L 28.594323 158.14515 
L 27.943713 158.145171 
L 27.293103 156.070996 
L 26.642492 153.263478 
L 25.991882 150.455959 
L 25.341272 147.64844 
L 24.690661 144.840922 
L 24.040051 142.033403 
L 23.389441 139.225885 
L 22.73883 136.418366 
L 22.08822 133.610848 
L 21.43761 130.803329 
L 20.786999 127.995811 
L 20.136389 125.188292 
L 19.485779 122.380774 
L 18.835169 119.573255 
L 18.184558 116.765736 
L 17.533948 113.958218 
L 16.883338 111.150699 
L 16.232727 108.343181 
z
" style="fill:#61c46e;fill-opacity:0.3;"/>
   </g>
   <g id="PolyCollection_2">
    <path clip-path="url(#paabe25136a)" d="M 16.232727 158.024821 
L 16.232727 158.145223 
L 16.883338 158.145223 
L 17.533948 158.145223 
L 18.184558 158.145223 
L 18.835169 158.145223 
L 19.485779 158.145223 
L 20.136389 158.145223 
L 20.786999 158.145223 
L 21.43761 158.145223 
L 22.08822 158.145223 
L 22.73883 158.145223 
L 23.389441 158.145223 
L 24.040051 158.145223 
L 24.690661 158.145223 
L 25.341272 158.145223 
L 25.991882 158.145223 
L 26.642492 158.145223 
L 27.293103 158.145223 
L 27.943713 158.145223 
L 28.594323 158.145223 
L 29.244934 158.145223 
L 29.895544 158.145223 
L 30.546154 158.145223 
L 31.196764 158.145223 
L 31.847375 158.145223 
L 32.497985 158.145223 
L 33.148595 158.145223 
L 33.799206 158.145223 
L 34.449816 158.145223 
L 35.100426 158.145223 
L 35.751037 158.145223 
L 36.401647 158.145223 
L 37.052257 158.145223 
L 37.702868 158.145223 
L 38.353478 158.145223 
L 39.004088 158.145223 
L 39.654698 158.145223 
L 40.305309 158.145223 
L 40.955919 158.145223 
L 41.606529 158.145223 
L 42.25714 158.145223 
L 42.90775 158.145223 
L 43.55836 158.145223 
L 44.208971 158.145223 
L 44.859581 158.145223 
L 45.510191 158.145223 
L 46.160802 158.145223 
L 46.811412 158.145223 
L 47.462022 158.145223 
L 48.112633 158.145223 
L 48.763243 158.145223 
L 49.413853 158.145223 
L 50.064463 158.145223 
L 50.715074 158.145223 
L 51.365684 158.145223 
L 52.016294 158.145223 
L 52.666905 158.145223 
L 53.317515 158.145223 
L 53.968125 158.145223 
L 54.618736 158.145223 
L 55.269346 158.145223 
L 55.919956 158.145223 
L 56.570567 158.145223 
L 57.221177 158.145223 
L 57.871787 158.145223 
L 58.522398 158.145223 
L 59.173008 158.145223 
L 59.823618 158.145223 
L 60.474228 158.145223 
L 61.124839 158.145223 
L 61.775449 158.145223 
L 62.426059 158.145223 
L 63.07667 158.145223 
L 63.72728 158.145223 
L 64.37789 158.145223 
L 65.028501 158.145223 
L 65.679111 158.145223 
L 66.329721 158.145223 
L 66.980332 158.145223 
L 67.630942 158.145223 
L 68.281552 158.145223 
L 68.932163 158.145223 
L 69.582773 158.145223 
L 70.233383 158.145223 
L 70.883993 158.145223 
L 71.534604 158.145223 
L 72.185214 158.145223 
L 72.835824 158.145223 
L 73.486435 158.145223 
L 74.137045 158.145223 
L 74.787655 158.145223 
L 75.438266 158.145223 
L 76.088876 158.145223 
L 76.739486 158.145223 
L 77.390097 158.145223 
L 78.040707 158.145223 
L 78.691317 158.145223 
L 79.341927 158.145223 
L 79.992538 158.145223 
L 80.643148 158.145223 
L 81.293758 158.145223 
L 81.944369 158.145223 
L 82.594979 158.145223 
L 83.245589 158.145223 
L 83.8962 158.145223 
L 84.54681 158.145223 
L 85.19742 158.145223 
L 85.848031 158.145223 
L 86.498641 158.145223 
L 87.149251 158.145223 
L 87.799862 158.145223 
L 88.450472 158.145223 
L 89.101082 158.145223 
L 89.751692 158.145223 
L 90.402303 158.145223 
L 91.052913 158.145223 
L 91.703523 158.145223 
L 92.354134 158.145223 
L 93.004744 158.145223 
L 93.655354 158.145223 
L 94.305965 158.145223 
L 94.956575 158.145223 
L 95.607185 158.145223 
L 96.257796 158.145223 
L 96.908406 158.145223 
L 97.559016 158.145223 
L 98.209627 158.145223 
L 98.860237 158.145223 
L 99.510847 158.145223 
L 100.161457 158.145223 
L 100.812068 158.145223 
L 101.462678 158.145223 
L 102.113288 158.145223 
L 102.763899 158.145223 
L 103.414509 158.145223 
L 104.065119 158.145223 
L 104.71573 158.145223 
L 105.36634 158.145223 
L 106.01695 158.145223 
L 106.667561 158.145223 
L 107.318171 158.145223 
L 107.968781 158.145223 
L 108.619392 158.145223 
L 109.270002 158.145223 
L 109.920612 158.145223 
L 110.571222 158.145223 
L 111.221833 158.145223 
L 111.872443 158.145223 
L 112.523053 158.145223 
L 113.173664 158.145223 
L 113.824274 158.145223 
L 114.474884 158.145223 
L 115.125495 158.145223 
L 115.776105 158.145223 
L 116.426715 158.145223 
L 117.077326 158.145223 
L 117.727936 158.145223 
L 118.378546 158.145223 
L 119.029156 158.145223 
L 119.679767 158.145223 
L 120.330377 158.145223 
L 120.980987 158.145223 
L 121.631598 158.145223 
L 122.282208 158.145223 
L 122.932818 158.145223 
L 123.583429 158.145223 
L 124.234039 158.145223 
L 124.884649 158.145223 
L 125.53526 158.145223 
L 126.18587 158.145223 
L 126.83648 158.145223 
L 127.487091 158.145223 
L 128.137701 158.145223 
L 128.788311 158.145223 
L 129.438921 158.145223 
L 130.089532 158.145223 
L 130.740142 158.145223 
L 131.390752 158.145223 
L 132.041363 158.145223 
L 132.691973 158.145223 
L 133.342583 158.145223 
L 133.993194 158.145223 
L 134.643804 158.145223 
L 135.294414 158.145223 
L 135.945025 158.145223 
L 136.595635 158.145223 
L 137.246245 158.145223 
L 137.896856 158.145223 
L 138.547466 158.145223 
L 139.198076 158.145223 
L 139.848686 158.145223 
L 140.499297 158.145223 
L 141.149907 158.145223 
L 141.800517 158.145223 
L 142.451128 158.145223 
L 143.101738 158.145223 
L 143.752348 158.145223 
L 144.402959 158.145223 
L 145.053569 158.145223 
L 145.704179 158.145223 
L 146.35479 158.145223 
L 147.0054 158.145223 
L 147.65601 158.145223 
L 148.306621 158.145223 
L 148.957231 158.145223 
L 149.607841 158.145223 
L 150.258451 158.145223 
L 150.909062 158.145223 
L 151.559672 158.145223 
L 152.210282 158.145223 
L 152.860893 158.145223 
L 153.511503 158.145223 
L 154.162113 158.145223 
L 154.812724 158.145223 
L 155.463334 158.145223 
L 156.113944 158.145223 
L 156.764555 158.145223 
L 157.415165 158.145223 
L 158.065775 158.145223 
L 158.716385 158.145223 
L 159.366996 158.145223 
L 160.017606 158.145223 
L 160.668216 158.145223 
L 161.318827 158.145223 
L 161.969437 158.145223 
L 162.620047 158.145223 
L 163.270658 158.145223 
L 163.921268 158.145223 
L 164.571878 158.145223 
L 165.222489 158.145223 
L 165.873099 158.145223 
L 166.523709 158.145223 
L 167.17432 158.145223 
L 167.82493 158.145223 
L 168.47554 158.145223 
L 169.12615 158.145223 
L 169.776761 158.145223 
L 170.427371 158.145223 
L 171.077981 158.145223 
L 171.728592 158.145223 
L 172.379202 158.145223 
L 173.029812 158.145223 
L 173.680423 158.145223 
L 174.331033 158.145223 
L 174.981643 158.145223 
L 175.632254 158.145223 
L 176.282864 158.145223 
L 176.933474 158.145223 
L 177.584085 158.145223 
L 178.234695 158.145223 
L 178.885305 158.145223 
L 179.535915 158.145223 
L 180.186526 158.145223 
L 180.837136 158.145223 
L 181.487746 158.145223 
L 182.138357 158.145223 
L 182.788967 158.145223 
L 183.439577 158.145223 
L 184.090188 158.145223 
L 184.740798 158.145223 
L 185.391408 158.145223 
L 186.042019 158.145223 
L 186.692629 158.145223 
L 187.343239 158.145223 
L 187.99385 158.145223 
L 188.64446 158.145223 
L 189.29507 158.145223 
L 189.94568 158.145223 
L 190.596291 158.145223 
L 191.246901 158.145223 
L 191.897511 158.145223 
L 192.548122 158.145223 
L 193.198732 158.145223 
L 193.849342 158.145223 
L 194.499953 158.145223 
L 195.150563 158.145223 
L 195.801173 158.145223 
L 196.451784 158.145223 
L 197.102394 158.145223 
L 197.753004 158.145223 
L 198.403615 158.145223 
L 199.054225 158.145223 
L 199.704835 158.145223 
L 200.355445 158.145223 
L 201.006056 158.145223 
L 201.656666 158.145223 
L 202.307276 158.145223 
L 202.957887 158.145223 
L 203.608497 158.145223 
L 204.259107 158.145223 
L 204.909718 158.145223 
L 205.560328 158.145223 
L 206.210938 158.145223 
L 206.861549 158.145223 
L 207.512159 158.145223 
L 208.162769 158.145223 
L 208.813379 158.145223 
L 209.46399 158.145223 
L 210.1146 158.145223 
L 210.76521 158.145223 
L 211.415821 158.145223 
L 212.066431 158.145223 
L 212.717041 158.145223 
L 213.367652 158.145223 
L 214.018262 158.145223 
L 214.668872 158.145223 
L 215.319483 158.145223 
L 215.970093 158.145223 
L 216.620703 158.145223 
L 217.271314 158.145223 
L 217.921924 158.145223 
L 218.572534 158.145223 
L 219.223144 158.145223 
L 219.873755 158.145223 
L 220.524365 158.145223 
L 221.174975 158.145223 
L 221.825586 158.145223 
L 222.476196 158.145223 
L 223.126806 158.145223 
L 223.777417 158.145223 
L 224.428027 158.145223 
L 225.078637 158.145223 
L 225.729248 158.145223 
L 226.379858 158.145223 
L 227.030468 158.145223 
L 227.681079 158.145223 
L 228.331689 158.145223 
L 228.982299 158.145223 
L 229.632909 158.145223 
L 230.28352 158.145223 
L 230.93413 158.145223 
L 231.58474 158.145223 
L 232.235351 158.145223 
L 232.885961 158.145223 
L 233.536571 158.145223 
L 234.187182 158.145223 
L 234.837792 158.145223 
L 235.488402 158.145223 
L 236.139013 158.145223 
L 236.789623 158.145223 
L 237.440233 158.145223 
L 238.090844 158.145223 
L 238.741454 158.145223 
L 239.392064 158.145223 
L 240.042674 158.145223 
L 240.693285 158.145223 
L 241.343895 158.145223 
L 241.994505 158.145223 
L 242.645116 158.145223 
L 243.295726 158.145223 
L 243.946336 158.145223 
L 244.596947 158.145223 
L 245.247557 158.145223 
L 245.898167 158.145223 
L 246.548778 158.145223 
L 247.199388 158.145223 
L 247.849998 158.145223 
L 248.500608 158.145223 
L 249.151219 158.145223 
L 249.801829 158.145223 
L 250.452439 158.145223 
L 251.10305 158.145223 
L 251.75366 158.145223 
L 252.40427 158.145223 
L 253.054881 158.145223 
L 253.705491 158.145223 
L 254.356101 158.145223 
L 255.006712 158.145223 
L 255.657322 158.145223 
L 256.307932 158.145223 
L 256.958543 158.145223 
L 257.609153 158.145223 
L 258.259763 158.145223 
L 258.910373 158.145223 
L 259.560984 158.145223 
L 260.211594 158.145223 
L 260.862204 158.145223 
L 261.512815 158.145223 
L 262.163425 158.145223 
L 262.814035 158.145223 
L 263.464646 158.145223 
L 264.115256 158.145223 
L 264.765866 158.145223 
L 265.416477 158.145223 
L 266.067087 158.145223 
L 266.717697 158.145223 
L 267.368308 158.145223 
L 268.018918 158.145223 
L 268.669528 158.145223 
L 269.320138 158.145223 
L 269.970749 158.145223 
L 270.621359 158.145223 
L 271.271969 158.145223 
L 271.92258 158.145223 
L 272.57319 158.145223 
L 273.2238 158.145223 
L 273.874411 158.145223 
L 274.525021 158.145223 
L 275.175631 158.145223 
L 275.826242 158.145223 
L 276.476852 158.145223 
L 277.127462 158.145223 
L 277.778073 158.145223 
L 278.428683 158.145223 
L 279.079293 158.145223 
L 279.729903 158.145223 
L 280.380514 158.145223 
L 281.031124 158.145223 
L 281.681734 158.145223 
L 282.332345 158.145223 
L 282.982955 158.145223 
L 283.633565 158.145223 
L 284.284176 158.145223 
L 284.934786 158.145223 
L 285.585396 158.145223 
L 286.236007 158.145223 
L 286.886617 158.145223 
L 287.537227 158.145223 
L 288.187837 158.145223 
L 288.838448 158.145223 
L 289.489058 158.145223 
L 290.139668 158.145223 
L 290.790279 158.145223 
L 291.440889 158.145223 
L 292.091499 158.145223 
L 292.74211 158.145223 
L 293.39272 158.145223 
L 294.04333 158.145223 
L 294.693941 158.145223 
L 295.344551 158.145223 
L 295.995161 158.145223 
L 296.645772 158.145223 
L 297.296382 158.145223 
L 297.946992 158.145223 
L 298.597602 158.145223 
L 299.248213 158.145223 
L 299.898823 158.145223 
L 300.549433 158.145223 
L 301.200044 158.145223 
L 301.850654 158.145223 
L 302.501264 158.145223 
L 303.151875 158.145223 
L 303.802485 158.145223 
L 304.453095 158.145223 
L 305.103706 158.145223 
L 305.754316 158.145223 
L 306.404926 158.145223 
L 307.055537 158.145223 
L 307.706147 158.145223 
L 308.356757 158.145223 
L 309.007367 158.145223 
L 309.657978 158.145223 
L 310.308588 158.145223 
L 310.959198 158.145223 
L 311.609809 158.145223 
L 312.260419 158.145223 
L 312.911029 158.145223 
L 313.56164 158.145223 
L 314.21225 158.145223 
L 314.86286 158.145223 
L 315.513471 158.145223 
L 316.164081 158.145223 
L 316.814691 158.145223 
L 317.465302 158.145223 
L 318.115912 158.145223 
L 318.766522 158.145223 
L 319.417132 158.145223 
L 320.067743 158.145223 
L 320.718353 158.145223 
L 321.368963 158.145223 
L 322.019574 158.145223 
L 322.670184 158.145223 
L 323.320794 158.145223 
L 323.971405 158.145223 
L 324.622015 158.145223 
L 325.272625 158.145223 
L 325.923236 158.145223 
L 326.573846 158.145223 
L 327.224456 158.145223 
L 327.875066 158.145223 
L 328.525677 158.145223 
L 329.176287 158.145223 
L 329.826897 158.145223 
L 330.477508 158.145223 
L 331.128118 158.145223 
L 331.778728 158.145223 
L 332.429339 158.145223 
L 333.079949 158.145223 
L 333.730559 158.145223 
L 334.38117 158.145223 
L 335.03178 158.145223 
L 335.68239 158.145223 
L 336.333001 158.145223 
L 336.983611 158.145223 
L 337.634221 158.145223 
L 338.284831 158.145223 
L 338.935442 158.145223 
L 339.586052 158.145223 
L 340.236662 158.145223 
L 340.887273 158.145223 
L 340.887273 158.145222 
L 340.887273 158.145222 
L 340.236662 158.145222 
L 339.586052 158.145222 
L 338.935442 158.145222 
L 338.284831 158.145222 
L 337.634221 158.145222 
L 336.983611 158.145222 
L 336.333001 158.145222 
L 335.68239 158.145222 
L 335.03178 158.145222 
L 334.38117 158.145222 
L 333.730559 158.145222 
L 333.079949 158.145222 
L 332.429339 158.145222 
L 331.778728 158.145222 
L 331.128118 158.145222 
L 330.477508 158.145222 
L 329.826897 158.145222 
L 329.176287 158.145222 
L 328.525677 158.145222 
L 327.875066 158.145222 
L 327.224456 158.145222 
L 326.573846 158.145222 
L 325.923236 158.145222 
L 325.272625 158.145222 
L 324.622015 158.145222 
L 323.971405 158.145222 
L 323.320794 158.145222 
L 322.670184 158.145222 
L 322.019574 158.145222 
L 321.368963 158.145222 
L 320.718353 158.145222 
L 320.067743 158.145222 
L 319.417132 158.145222 
L 318.766522 158.145222 
L 318.115912 158.145222 
L 317.465302 158.145222 
L 316.814691 158.145222 
L 316.164081 158.145222 
L 315.513471 158.145222 
L 314.86286 158.145222 
L 314.21225 158.145222 
L 313.56164 158.145222 
L 312.911029 158.145222 
L 312.260419 158.145222 
L 311.609809 158.145222 
L 310.959198 158.145222 
L 310.308588 158.145222 
L 309.657978 158.145222 
L 309.007367 158.145222 
L 308.356757 158.145222 
L 307.706147 158.145222 
L 307.055537 158.145222 
L 306.404926 158.145222 
L 305.754316 158.145222 
L 305.103706 158.145222 
L 304.453095 158.145222 
L 303.802485 158.145222 
L 303.151875 158.145222 
L 302.501264 158.145222 
L 301.850654 158.145222 
L 301.200044 158.145222 
L 300.549433 158.145222 
L 299.898823 158.145222 
L 299.248213 158.145222 
L 298.597602 158.145222 
L 297.946992 158.145222 
L 297.296382 158.145222 
L 296.645772 158.145222 
L 295.995161 158.145222 
L 295.344551 158.145222 
L 294.693941 158.145222 
L 294.04333 158.145222 
L 293.39272 158.145222 
L 292.74211 158.145222 
L 292.091499 158.145222 
L 291.440889 158.145222 
L 290.790279 158.145222 
L 290.139668 158.145222 
L 289.489058 158.145222 
L 288.838448 158.145222 
L 288.187837 158.145222 
L 287.537227 158.145222 
L 286.886617 158.145222 
L 286.236007 158.145222 
L 285.585396 158.145222 
L 284.934786 158.145221 
L 284.284176 158.145221 
L 283.633565 158.145221 
L 282.982955 158.145221 
L 282.332345 158.145221 
L 281.681734 158.145221 
L 281.031124 158.145221 
L 280.380514 158.145221 
L 279.729903 158.145221 
L 279.079293 158.145221 
L 278.428683 158.145221 
L 277.778073 158.145221 
L 277.127462 158.145221 
L 276.476852 158.145221 
L 275.826242 158.145221 
L 275.175631 158.145221 
L 274.525021 158.145221 
L 273.874411 158.145221 
L 273.2238 158.145221 
L 272.57319 158.145221 
L 271.92258 158.145221 
L 271.271969 158.145221 
L 270.621359 158.145221 
L 269.970749 158.145221 
L 269.320138 158.145221 
L 268.669528 158.145221 
L 268.018918 158.145221 
L 267.368308 158.145221 
L 266.717697 158.145221 
L 266.067087 158.145221 
L 265.416477 158.145221 
L 264.765866 158.145221 
L 264.115256 158.145221 
L 263.464646 158.145221 
L 262.814035 158.145221 
L 262.163425 158.145221 
L 261.512815 158.145221 
L 260.862204 158.145221 
L 260.211594 158.145221 
L 259.560984 158.145221 
L 258.910373 158.145221 
L 258.259763 158.145221 
L 257.609153 158.145221 
L 256.958543 158.145221 
L 256.307932 158.14522 
L 255.657322 158.14522 
L 255.006712 158.14522 
L 254.356101 158.14522 
L 253.705491 158.14522 
L 253.054881 158.14522 
L 252.40427 158.14522 
L 251.75366 158.14522 
L 251.10305 158.14522 
L 250.452439 158.14522 
L 249.801829 158.14522 
L 249.151219 158.14522 
L 248.500608 158.14522 
L 247.849998 158.14522 
L 247.199388 158.14522 
L 246.548778 158.14522 
L 245.898167 158.14522 
L 245.247557 158.14522 
L 244.596947 158.14522 
L 243.946336 158.145219 
L 243.295726 158.145219 
L 242.645116 158.145219 
L 241.994505 158.145219 
L 241.343895 158.145219 
L 240.693285 158.145219 
L 240.042674 158.145219 
L 239.392064 158.145219 
L 238.741454 158.145218 
L 238.090844 158.145218 
L 237.440233 158.145218 
L 236.789623 158.145217 
L 236.139013 158.145217 
L 235.488402 158.145217 
L 234.837792 158.145217 
L 234.187182 158.145216 
L 233.536571 158.145216 
L 232.885961 158.145216 
L 232.235351 158.145215 
L 231.58474 158.145215 
L 230.93413 158.145215 
L 230.28352 158.145215 
L 229.632909 158.145214 
L 228.982299 158.145214 
L 228.331689 158.145214 
L 227.681079 158.145214 
L 227.030468 158.145214 
L 226.379858 158.145214 
L 225.729248 158.145214 
L 225.078637 158.145214 
L 224.428027 158.145214 
L 223.777417 158.145214 
L 223.126806 158.145214 
L 222.476196 158.145214 
L 221.825586 158.145214 
L 221.174975 158.145214 
L 220.524365 158.145214 
L 219.873755 158.145214 
L 219.223144 158.145214 
L 218.572534 158.145214 
L 217.921924 158.145214 
L 217.271314 158.145214 
L 216.620703 158.145214 
L 215.970093 158.145214 
L 215.319483 158.145214 
L 214.668872 158.145215 
L 214.018262 158.145215 
L 213.367652 158.145215 
L 212.717041 158.145216 
L 212.066431 158.145216 
L 211.415821 158.145216 
L 210.76521 158.145217 
L 210.1146 158.145217 
L 209.46399 158.145217 
L 208.813379 158.145218 
L 208.162769 158.145218 
L 207.512159 158.145218 
L 206.861549 158.145219 
L 206.210938 158.145219 
L 205.560328 158.145219 
L 204.909718 158.14522 
L 204.259107 158.14522 
L 203.608497 158.14522 
L 202.957887 158.14522 
L 202.307276 158.145221 
L 201.656666 158.145221 
L 201.006056 158.145221 
L 200.355445 158.145221 
L 199.704835 158.145221 
L 199.054225 158.145221 
L 198.403615 158.145221 
L 197.753004 158.145221 
L 197.102394 158.145221 
L 196.451784 158.145221 
L 195.801173 158.145221 
L 195.150563 158.145221 
L 194.499953 158.145221 
L 193.849342 158.145221 
L 193.198732 158.145221 
L 192.548122 158.145221 
L 191.897511 158.145221 
L 191.246901 158.145221 
L 190.596291 158.145221 
L 189.94568 158.145221 
L 189.29507 158.145222 
L 188.64446 158.145222 
L 187.99385 158.145222 
L 187.343239 158.145222 
L 186.692629 158.145222 
L 186.042019 158.145222 
L 185.391408 158.145222 
L 184.740798 158.145222 
L 184.090188 158.145222 
L 183.439577 158.145222 
L 182.788967 158.145222 
L 182.138357 158.145222 
L 181.487746 158.145222 
L 180.837136 158.145222 
L 180.186526 158.145222 
L 179.535915 158.145222 
L 178.885305 158.145222 
L 178.234695 158.145222 
L 177.584085 158.145222 
L 176.933474 158.145222 
L 176.282864 158.145222 
L 175.632254 158.145222 
L 174.981643 158.145222 
L 174.331033 158.145222 
L 173.680423 158.145222 
L 173.029812 158.145221 
L 172.379202 158.145221 
L 171.728592 158.145221 
L 171.077981 158.145221 
L 170.427371 158.145221 
L 169.776761 158.145221 
L 169.12615 158.145221 
L 168.47554 158.145221 
L 167.82493 158.145221 
L 167.17432 158.145221 
L 166.523709 158.145221 
L 165.873099 158.145221 
L 165.222489 158.145221 
L 164.571878 158.145221 
L 163.921268 158.145221 
L 163.270658 158.145221 
L 162.620047 158.145221 
L 161.969437 158.14522 
L 161.318827 158.14522 
L 160.668216 158.14522 
L 160.017606 158.14522 
L 159.366996 158.14522 
L 158.716385 158.14522 
L 158.065775 158.14522 
L 157.415165 158.14522 
L 156.764555 158.14522 
L 156.113944 158.14522 
L 155.463334 158.145219 
L 154.812724 158.145219 
L 154.162113 158.145219 
L 153.511503 158.145219 
L 152.860893 158.145218 
L 152.210282 158.145217 
L 151.559672 158.145216 
L 150.909062 158.145214 
L 150.258451 158.145213 
L 149.607841 158.145212 
L 148.957231 158.14521 
L 148.306621 158.145209 
L 147.65601 158.145208 
L 147.0054 158.145207 
L 146.35479 158.145205 
L 145.704179 158.145204 
L 145.053569 158.145203 
L 144.402959 158.145201 
L 143.752348 158.1452 
L 143.101738 158.145199 
L 142.451128 158.145197 
L 141.800517 158.145196 
L 141.149907 158.145195 
L 140.499297 158.145194 
L 139.848686 158.145195 
L 139.198076 158.145195 
L 138.547466 158.145196 
L 137.896856 158.145197 
L 137.246245 158.145198 
L 136.595635 158.145198 
L 135.945025 158.145199 
L 135.294414 158.1452 
L 134.643804 158.145201 
L 133.993194 158.145201 
L 133.342583 158.145202 
L 132.691973 158.145203 
L 132.041363 158.145204 
L 131.390752 158.145204 
L 130.740142 158.145205 
L 130.089532 158.145206 
L 129.438921 158.145207 
L 128.788311 158.145207 
L 128.137701 158.145208 
L 127.487091 158.145209 
L 126.83648 158.145209 
L 126.18587 158.14521 
L 125.53526 158.14521 
L 124.884649 158.145211 
L 124.234039 158.145211 
L 123.583429 158.145212 
L 122.932818 158.145213 
L 122.282208 158.145213 
L 121.631598 158.145214 
L 120.980987 158.145214 
L 120.330377 158.145215 
L 119.679767 158.145216 
L 119.029156 158.145216 
L 118.378546 158.145217 
L 117.727936 158.145217 
L 117.077326 158.145218 
L 116.426715 158.145218 
L 115.776105 158.145219 
L 115.125495 158.145219 
L 114.474884 158.145219 
L 113.824274 158.145219 
L 113.173664 158.145219 
L 112.523053 158.145219 
L 111.872443 158.145219 
L 111.221833 158.145219 
L 110.571222 158.145219 
L 109.920612 158.145218 
L 109.270002 158.145218 
L 108.619392 158.145218 
L 107.968781 158.145218 
L 107.318171 158.145218 
L 106.667561 158.145218 
L 106.01695 158.145218 
L 105.36634 158.145218 
L 104.71573 158.145218 
L 104.065119 158.145218 
L 103.414509 158.145218 
L 102.763899 158.145217 
L 102.113288 158.145217 
L 101.462678 158.145217 
L 100.812068 158.145217 
L 100.161457 158.145217 
L 99.510847 158.145217 
L 98.860237 158.145217 
L 98.209627 158.145217 
L 97.559016 158.145217 
L 96.908406 158.145217 
L 96.257796 158.145217 
L 95.607185 158.145217 
L 94.956575 158.145217 
L 94.305965 158.145217 
L 93.655354 158.145216 
L 93.004744 158.145216 
L 92.354134 158.145216 
L 91.703523 158.145216 
L 91.052913 158.145216 
L 90.402303 158.145216 
L 89.751692 158.145216 
L 89.101082 158.145217 
L 88.450472 158.145217 
L 87.799862 158.145217 
L 87.149251 158.145217 
L 86.498641 158.145217 
L 85.848031 158.145217 
L 85.19742 158.145218 
L 84.54681 158.145218 
L 83.8962 158.145218 
L 83.245589 158.145218 
L 82.594979 158.145218 
L 81.944369 158.145219 
L 81.293758 158.145219 
L 80.643148 158.145219 
L 79.992538 158.145219 
L 79.341927 158.145219 
L 78.691317 158.14522 
L 78.040707 158.14522 
L 77.390097 158.14522 
L 76.739486 158.14522 
L 76.088876 158.14522 
L 75.438266 158.14522 
L 74.787655 158.14522 
L 74.137045 158.14522 
L 73.486435 158.14522 
L 72.835824 158.14522 
L 72.185214 158.14522 
L 71.534604 158.145221 
L 70.883993 158.145221 
L 70.233383 158.145221 
L 69.582773 158.145221 
L 68.932163 158.145221 
L 68.281552 158.145221 
L 67.630942 158.145221 
L 66.980332 158.145221 
L 66.329721 158.145221 
L 65.679111 158.145221 
L 65.028501 158.145221 
L 64.37789 158.145221 
L 63.72728 158.14522 
L 63.07667 158.14522 
L 62.426059 158.14522 
L 61.775449 158.145219 
L 61.124839 158.145219 
L 60.474228 158.145219 
L 59.823618 158.145218 
L 59.173008 158.145218 
L 58.522398 158.145218 
L 57.871787 158.145217 
L 57.221177 158.145217 
L 56.570567 158.145217 
L 55.919956 158.145216 
L 55.269346 158.145216 
L 54.618736 158.145216 
L 53.968125 158.145215 
L 53.317515 158.145215 
L 52.666905 158.061714 
L 52.016294 157.784662 
L 51.365684 157.50761 
L 50.715074 157.230559 
L 50.064463 156.953507 
L 49.413853 156.676455 
L 48.763243 156.399403 
L 48.112633 156.122351 
L 47.462022 155.8453 
L 46.811412 155.568248 
L 46.160802 155.291196 
L 45.510191 155.014144 
L 44.859581 154.737093 
L 44.208971 154.460041 
L 43.55836 154.182989 
L 42.90775 153.905937 
L 42.25714 153.628885 
L 41.606529 153.351834 
L 40.955919 153.074782 
L 40.305309 152.756572 
L 39.654698 150.43119 
L 39.004088 148.105807 
L 38.353478 145.780425 
L 37.702868 143.455042 
L 37.052257 141.12966 
L 36.401647 138.804278 
L 35.751037 136.478895 
L 35.100426 134.153513 
L 34.449816 131.82813 
L 33.799206 129.502748 
L 33.148595 127.177365 
L 32.497985 124.851983 
L 31.847375 122.5266 
L 31.196764 120.201218 
L 30.546154 117.875835 
L 29.895544 115.550453 
L 29.244934 113.22507 
L 28.594323 110.899688 
L 27.943713 108.574305 
L 27.293103 110.051742 
L 26.642492 112.873688 
L 25.991882 115.695634 
L 25.341272 118.517579 
L 24.690661 121.339525 
L 24.040051 124.161471 
L 23.389441 126.983417 
L 22.73883 129.805363 
L 22.08822 132.627309 
L 21.43761 135.449254 
L 20.786999 138.2712 
L 20.136389 141.093146 
L 19.485779 143.915092 
L 18.835169 146.737038 
L 18.184558 149.558984 
L 17.533948 152.380929 
L 16.883338 155.202875 
L 16.232727 158.024821 
z
" style="fill:#f6ed22;fill-opacity:0.3;"/>
   </g>
   <g id="PolyCollection_3">
    <path clip-path="url(#paabe25136a)" d="M 16.232727 157.889218 
L 16.232727 158.145223 
L 16.883338 158.145223 
L 17.533948 158.145223 
L 18.184558 158.145223 
L 18.835169 158.145223 
L 19.485779 158.145223 
L 20.136389 158.145223 
L 20.786999 158.145223 
L 21.43761 158.145223 
L 22.08822 158.145223 
L 22.73883 158.145223 
L 23.389441 158.145223 
L 24.040051 158.145223 
L 24.690661 158.145223 
L 25.341272 158.145223 
L 25.991882 158.145223 
L 26.642492 158.145223 
L 27.293103 158.145223 
L 27.943713 158.145223 
L 28.594323 158.145223 
L 29.244934 158.145223 
L 29.895544 158.145223 
L 30.546154 158.145223 
L 31.196764 158.145223 
L 31.847375 158.145223 
L 32.497985 158.145223 
L 33.148595 158.145223 
L 33.799206 158.145223 
L 34.449816 158.145223 
L 35.100426 158.145223 
L 35.751037 158.145223 
L 36.401647 158.145223 
L 37.052257 158.145223 
L 37.702868 158.145223 
L 38.353478 158.145223 
L 39.004088 158.145223 
L 39.654698 158.145223 
L 40.305309 158.145223 
L 40.955919 158.145223 
L 41.606529 158.145223 
L 42.25714 158.145223 
L 42.90775 158.145223 
L 43.55836 158.145223 
L 44.208971 158.145223 
L 44.859581 158.145223 
L 45.510191 158.145223 
L 46.160802 158.145223 
L 46.811412 158.145223 
L 47.462022 158.145223 
L 48.112633 158.145223 
L 48.763243 158.145223 
L 49.413853 158.145223 
L 50.064463 158.145223 
L 50.715074 158.145223 
L 51.365684 158.145223 
L 52.016294 158.145223 
L 52.666905 158.145223 
L 53.317515 158.145223 
L 53.968125 158.145223 
L 54.618736 158.145223 
L 55.269346 158.145223 
L 55.919956 158.145223 
L 56.570567 158.145223 
L 57.221177 158.145223 
L 57.871787 158.145223 
L 58.522398 158.145223 
L 59.173008 158.145223 
L 59.823618 158.145223 
L 60.474228 158.145223 
L 61.124839 158.145223 
L 61.775449 158.145223 
L 62.426059 158.145223 
L 63.07667 158.145223 
L 63.72728 158.145223 
L 64.37789 158.145223 
L 65.028501 158.145223 
L 65.679111 158.145223 
L 66.329721 158.145223 
L 66.980332 158.145223 
L 67.630942 158.145223 
L 68.281552 158.145223 
L 68.932163 158.145223 
L 69.582773 158.145223 
L 70.233383 158.145223 
L 70.883993 158.145223 
L 71.534604 158.145223 
L 72.185214 158.145223 
L 72.835824 158.145223 
L 73.486435 158.145223 
L 74.137045 158.145223 
L 74.787655 158.145223 
L 75.438266 158.145223 
L 76.088876 158.145223 
L 76.739486 158.145223 
L 77.390097 158.145223 
L 78.040707 158.145223 
L 78.691317 158.145223 
L 79.341927 158.145223 
L 79.992538 158.145223 
L 80.643148 158.145223 
L 81.293758 158.145223 
L 81.944369 158.145223 
L 82.594979 158.145223 
L 83.245589 158.145223 
L 83.8962 158.145223 
L 84.54681 158.145223 
L 85.19742 158.145223 
L 85.848031 158.145223 
L 86.498641 158.145223 
L 87.149251 158.145223 
L 87.799862 158.145223 
L 88.450472 158.145223 
L 89.101082 158.145223 
L 89.751692 158.145223 
L 90.402303 158.145223 
L 91.052913 158.145223 
L 91.703523 158.145223 
L 92.354134 158.145223 
L 93.004744 158.145223 
L 93.655354 158.145223 
L 94.305965 158.145223 
L 94.956575 158.145223 
L 95.607185 158.145223 
L 96.257796 158.145223 
L 96.908406 158.145223 
L 97.559016 158.145223 
L 98.209627 158.145223 
L 98.860237 158.145223 
L 99.510847 158.145223 
L 100.161457 158.145223 
L 100.812068 158.145223 
L 101.462678 158.145223 
L 102.113288 158.145223 
L 102.763899 158.145223 
L 103.414509 158.145223 
L 104.065119 158.145223 
L 104.71573 158.145223 
L 105.36634 158.145223 
L 106.01695 158.145223 
L 106.667561 158.145223 
L 107.318171 158.145223 
L 107.968781 158.145223 
L 108.619392 158.145223 
L 109.270002 158.145223 
L 109.920612 158.145223 
L 110.571222 158.145223 
L 111.221833 158.145223 
L 111.872443 158.145223 
L 112.523053 158.145223 
L 113.173664 158.145223 
L 113.824274 158.145223 
L 114.474884 158.145223 
L 115.125495 158.145223 
L 115.776105 158.145223 
L 116.426715 158.145223 
L 117.077326 158.145223 
L 117.727936 158.145223 
L 118.378546 158.145223 
L 119.029156 158.145223 
L 119.679767 158.145223 
L 120.330377 158.145223 
L 120.980987 158.145223 
L 121.631598 158.145223 
L 122.282208 158.145223 
L 122.932818 158.145223 
L 123.583429 158.145223 
L 124.234039 158.145223 
L 124.884649 158.145223 
L 125.53526 158.145223 
L 126.18587 158.145223 
L 126.83648 158.145223 
L 127.487091 158.145223 
L 128.137701 158.145223 
L 128.788311 158.145223 
L 129.438921 158.145223 
L 130.089532 158.145223 
L 130.740142 158.145223 
L 131.390752 158.145223 
L 132.041363 158.145223 
L 132.691973 158.145223 
L 133.342583 158.145223 
L 133.993194 158.145223 
L 134.643804 158.145223 
L 135.294414 158.145223 
L 135.945025 158.145223 
L 136.595635 158.145223 
L 137.246245 158.145223 
L 137.896856 158.145223 
L 138.547466 158.145223 
L 139.198076 158.145223 
L 139.848686 158.145223 
L 140.499297 158.145223 
L 141.149907 158.145223 
L 141.800517 158.145223 
L 142.451128 158.145223 
L 143.101738 158.145223 
L 143.752348 158.145223 
L 144.402959 158.145223 
L 145.053569 158.145223 
L 145.704179 158.145223 
L 146.35479 158.145223 
L 147.0054 158.145223 
L 147.65601 158.145223 
L 148.306621 158.145223 
L 148.957231 158.145223 
L 149.607841 158.145223 
L 150.258451 158.145223 
L 150.909062 158.145223 
L 151.559672 158.145223 
L 152.210282 158.145223 
L 152.860893 158.145223 
L 153.511503 158.145223 
L 154.162113 158.145223 
L 154.812724 158.145223 
L 155.463334 158.145223 
L 156.113944 158.145223 
L 156.764555 158.145223 
L 157.415165 158.145223 
L 158.065775 158.145223 
L 158.716385 158.145223 
L 159.366996 158.145223 
L 160.017606 158.145223 
L 160.668216 158.145223 
L 161.318827 158.145223 
L 161.969437 158.145223 
L 162.620047 158.145223 
L 163.270658 158.145223 
L 163.921268 158.145223 
L 164.571878 158.145223 
L 165.222489 158.145223 
L 165.873099 158.145223 
L 166.523709 158.145223 
L 167.17432 158.145223 
L 167.82493 158.145223 
L 168.47554 158.145223 
L 169.12615 158.145223 
L 169.776761 158.145223 
L 170.427371 158.145223 
L 171.077981 158.145223 
L 171.728592 158.145223 
L 172.379202 158.145223 
L 173.029812 158.145223 
L 173.680423 158.145223 
L 174.331033 158.145223 
L 174.981643 158.145223 
L 175.632254 158.145223 
L 176.282864 158.145223 
L 176.933474 158.145223 
L 177.584085 158.145223 
L 178.234695 158.145223 
L 178.885305 158.145223 
L 179.535915 158.145223 
L 180.186526 158.145223 
L 180.837136 158.145223 
L 181.487746 158.145223 
L 182.138357 158.145223 
L 182.788967 158.145223 
L 183.439577 158.145223 
L 184.090188 158.145223 
L 184.740798 158.145223 
L 185.391408 158.145223 
L 186.042019 158.145223 
L 186.692629 158.145223 
L 187.343239 158.145223 
L 187.99385 158.145223 
L 188.64446 158.145223 
L 189.29507 158.145223 
L 189.94568 158.145223 
L 190.596291 158.145223 
L 191.246901 158.145223 
L 191.897511 158.145223 
L 192.548122 158.145223 
L 193.198732 158.145223 
L 193.849342 158.145223 
L 194.499953 158.145223 
L 195.150563 158.145223 
L 195.801173 158.145223 
L 196.451784 158.145223 
L 197.102394 158.145223 
L 197.753004 158.145223 
L 198.403615 158.145223 
L 199.054225 158.145223 
L 199.704835 158.145223 
L 200.355445 158.145223 
L 201.006056 158.145223 
L 201.656666 158.145223 
L 202.307276 158.145223 
L 202.957887 158.145223 
L 203.608497 158.145223 
L 204.259107 158.145223 
L 204.909718 158.145223 
L 205.560328 158.145223 
L 206.210938 158.145223 
L 206.861549 158.145223 
L 207.512159 158.145223 
L 208.162769 158.145223 
L 208.813379 158.145223 
L 209.46399 158.145223 
L 210.1146 158.145223 
L 210.76521 158.145223 
L 211.415821 158.145223 
L 212.066431 158.145223 
L 212.717041 158.145223 
L 213.367652 158.145223 
L 214.018262 158.145223 
L 214.668872 158.145223 
L 215.319483 158.145223 
L 215.970093 158.145223 
L 216.620703 158.145223 
L 217.271314 158.145223 
L 217.921924 158.145223 
L 218.572534 158.145223 
L 219.223144 158.145223 
L 219.873755 158.145223 
L 220.524365 158.145223 
L 221.174975 158.145223 
L 221.825586 158.145223 
L 222.476196 158.145223 
L 223.126806 158.145223 
L 223.777417 158.145223 
L 224.428027 158.145223 
L 225.078637 158.145223 
L 225.729248 158.145223 
L 226.379858 158.145223 
L 227.030468 158.145223 
L 227.681079 158.145223 
L 228.331689 158.145223 
L 228.982299 158.145223 
L 229.632909 158.145223 
L 230.28352 158.145223 
L 230.93413 158.145223 
L 231.58474 158.145223 
L 232.235351 158.145223 
L 232.885961 158.145223 
L 233.536571 158.145223 
L 234.187182 158.145223 
L 234.837792 158.145223 
L 235.488402 158.145223 
L 236.139013 158.145223 
L 236.789623 158.145223 
L 237.440233 158.145223 
L 238.090844 158.145223 
L 238.741454 158.145223 
L 239.392064 158.145223 
L 240.042674 158.145223 
L 240.693285 158.145223 
L 241.343895 158.145223 
L 241.994505 158.145223 
L 242.645116 158.145223 
L 243.295726 158.145223 
L 243.946336 158.145223 
L 244.596947 158.145223 
L 245.247557 158.145223 
L 245.898167 158.145223 
L 246.548778 158.145223 
L 247.199388 158.145223 
L 247.849998 158.145223 
L 248.500608 158.145223 
L 249.151219 158.145223 
L 249.801829 158.145223 
L 250.452439 158.145223 
L 251.10305 158.145223 
L 251.75366 158.145223 
L 252.40427 158.145223 
L 253.054881 158.145223 
L 253.705491 158.145223 
L 254.356101 158.145223 
L 255.006712 158.145223 
L 255.657322 158.145223 
L 256.307932 158.145223 
L 256.958543 158.145223 
L 257.609153 158.145223 
L 258.259763 158.145223 
L 258.910373 158.145223 
L 259.560984 158.145223 
L 260.211594 158.145223 
L 260.862204 158.145223 
L 261.512815 158.145223 
L 262.163425 158.145223 
L 262.814035 158.145223 
L 263.464646 158.145223 
L 264.115256 158.145223 
L 264.765866 158.145223 
L 265.416477 158.145223 
L 266.067087 158.145223 
L 266.717697 158.145223 
L 267.368308 158.145223 
L 268.018918 158.145223 
L 268.669528 158.145223 
L 269.320138 158.145223 
L 269.970749 158.145223 
L 270.621359 158.145223 
L 271.271969 158.145223 
L 271.92258 158.145223 
L 272.57319 158.145223 
L 273.2238 158.145223 
L 273.874411 158.145223 
L 274.525021 158.145223 
L 275.175631 158.145223 
L 275.826242 158.145223 
L 276.476852 158.145223 
L 277.127462 158.145223 
L 277.778073 158.145223 
L 278.428683 158.145223 
L 279.079293 158.145223 
L 279.729903 158.145223 
L 280.380514 158.145223 
L 281.031124 158.145223 
L 281.681734 158.145223 
L 282.332345 158.145223 
L 282.982955 158.145223 
L 283.633565 158.145223 
L 284.284176 158.145223 
L 284.934786 158.145223 
L 285.585396 158.145223 
L 286.236007 158.145223 
L 286.886617 158.145223 
L 287.537227 158.145223 
L 288.187837 158.145223 
L 288.838448 158.145223 
L 289.489058 158.145223 
L 290.139668 158.145223 
L 290.790279 158.145223 
L 291.440889 158.145223 
L 292.091499 158.145223 
L 292.74211 158.145223 
L 293.39272 158.145223 
L 294.04333 158.145223 
L 294.693941 158.145223 
L 295.344551 158.145223 
L 295.995161 158.145223 
L 296.645772 158.145223 
L 297.296382 158.145223 
L 297.946992 158.145223 
L 298.597602 158.145223 
L 299.248213 158.145223 
L 299.898823 158.145223 
L 300.549433 158.145223 
L 301.200044 158.145223 
L 301.850654 158.145223 
L 302.501264 158.145223 
L 303.151875 158.145223 
L 303.802485 158.145223 
L 304.453095 158.145223 
L 305.103706 158.145223 
L 305.754316 158.145223 
L 306.404926 158.145223 
L 307.055537 158.145223 
L 307.706147 158.145223 
L 308.356757 158.145223 
L 309.007367 158.145223 
L 309.657978 158.145223 
L 310.308588 158.145223 
L 310.959198 158.145223 
L 311.609809 158.145223 
L 312.260419 158.145223 
L 312.911029 158.145223 
L 313.56164 158.145223 
L 314.21225 158.145223 
L 314.86286 158.145223 
L 315.513471 158.145223 
L 316.164081 158.145223 
L 316.814691 158.145223 
L 317.465302 158.145223 
L 318.115912 158.145223 
L 318.766522 158.145223 
L 319.417132 158.145223 
L 320.067743 158.145223 
L 320.718353 158.145223 
L 321.368963 158.145223 
L 322.019574 158.145223 
L 322.670184 158.145223 
L 323.320794 158.145223 
L 323.971405 158.145223 
L 324.622015 158.145223 
L 325.272625 158.145223 
L 325.923236 158.145223 
L 326.573846 158.145223 
L 327.224456 158.145223 
L 327.875066 158.145223 
L 328.525677 158.145223 
L 329.176287 158.145223 
L 329.826897 158.145223 
L 330.477508 158.145223 
L 331.128118 158.145223 
L 331.778728 158.145223 
L 332.429339 158.145223 
L 333.079949 158.145223 
L 333.730559 158.145223 
L 334.38117 158.145223 
L 335.03178 158.145223 
L 335.68239 158.145223 
L 336.333001 158.145223 
L 336.983611 158.145223 
L 337.634221 158.145223 
L 338.284831 158.145223 
L 338.935442 158.145223 
L 339.586052 158.145223 
L 340.236662 158.145223 
L 340.887273 158.145223 
L 340.887273 107.966777 
L 340.887273 107.966777 
L 340.236662 107.966777 
L 339.586052 107.966777 
L 338.935442 107.966777 
L 338.284831 107.966777 
L 337.634221 107.966777 
L 336.983611 107.966777 
L 336.333001 107.966777 
L 335.68239 107.966777 
L 335.03178 107.966777 
L 334.38117 107.966777 
L 333.730559 107.966777 
L 333.079949 107.966777 
L 332.429339 107.966777 
L 331.778728 107.966777 
L 331.128118 107.966777 
L 330.477508 107.966777 
L 329.826897 107.966777 
L 329.176287 107.966777 
L 328.525677 107.966777 
L 327.875066 107.966777 
L 327.224456 107.966777 
L 326.573846 107.966777 
L 325.923236 107.966777 
L 325.272625 107.966777 
L 324.622015 107.966777 
L 323.971405 107.966777 
L 323.320794 107.966777 
L 322.670184 107.966777 
L 322.019574 107.966777 
L 321.368963 107.966777 
L 320.718353 107.966777 
L 320.067743 107.966777 
L 319.417132 107.966777 
L 318.766522 107.966777 
L 318.115912 107.966777 
L 317.465302 107.966777 
L 316.814691 107.966777 
L 316.164081 107.966777 
L 315.513471 107.966777 
L 314.86286 107.966777 
L 314.21225 107.966777 
L 313.56164 107.966777 
L 312.911029 107.966777 
L 312.260419 107.966777 
L 311.609809 107.966777 
L 310.959198 107.966777 
L 310.308588 107.966777 
L 309.657978 107.966777 
L 309.007367 107.966777 
L 308.356757 107.966777 
L 307.706147 107.966777 
L 307.055537 107.966777 
L 306.404926 107.966777 
L 305.754316 107.966777 
L 305.103706 107.966777 
L 304.453095 107.966777 
L 303.802485 107.966777 
L 303.151875 107.966777 
L 302.501264 107.966777 
L 301.850654 107.966777 
L 301.200044 107.966777 
L 300.549433 107.966777 
L 299.898823 107.966777 
L 299.248213 107.966777 
L 298.597602 107.966777 
L 297.946992 107.966777 
L 297.296382 107.966777 
L 296.645772 107.966777 
L 295.995161 107.966777 
L 295.344551 107.966777 
L 294.693941 107.966777 
L 294.04333 107.966777 
L 293.39272 107.966777 
L 292.74211 107.966777 
L 292.091499 107.966777 
L 291.440889 107.966777 
L 290.790279 107.966777 
L 290.139668 107.966777 
L 289.489058 107.966777 
L 288.838448 107.966777 
L 288.187837 107.966777 
L 287.537227 107.966777 
L 286.886617 107.966777 
L 286.236007 107.966777 
L 285.585396 107.966777 
L 284.934786 107.966777 
L 284.284176 107.966777 
L 283.633565 107.966777 
L 282.982955 107.966777 
L 282.332345 107.966777 
L 281.681734 107.966777 
L 281.031124 107.966777 
L 280.380514 107.966777 
L 279.729903 107.966777 
L 279.079293 107.966777 
L 278.428683 107.966777 
L 277.778073 107.966777 
L 277.127462 107.966777 
L 276.476852 107.966777 
L 275.826242 107.966777 
L 275.175631 107.966777 
L 274.525021 107.966777 
L 273.874411 107.966777 
L 273.2238 107.966777 
L 272.57319 107.966777 
L 271.92258 107.966777 
L 271.271969 107.966777 
L 270.621359 107.966777 
L 269.970749 107.966777 
L 269.320138 107.966777 
L 268.669528 107.966777 
L 268.018918 107.966777 
L 267.368308 107.966777 
L 266.717697 107.966777 
L 266.067087 107.966777 
L 265.416477 107.966777 
L 264.765866 107.966777 
L 264.115256 107.966777 
L 263.464646 107.966777 
L 262.814035 107.966777 
L 262.163425 107.966777 
L 261.512815 107.966777 
L 260.862204 107.966777 
L 260.211594 107.966777 
L 259.560984 107.966777 
L 258.910373 107.966777 
L 258.259763 107.966777 
L 257.609153 107.966777 
L 256.958543 107.966777 
L 256.307932 107.966777 
L 255.657322 107.966777 
L 255.006712 107.966777 
L 254.356101 107.966777 
L 253.705491 107.966777 
L 253.054881 107.966777 
L 252.40427 107.966778 
L 251.75366 107.966778 
L 251.10305 107.966778 
L 250.452439 107.966779 
L 249.801829 107.966779 
L 249.151219 107.966779 
L 248.500608 107.966779 
L 247.849998 107.96678 
L 247.199388 107.96678 
L 246.548778 107.96678 
L 245.898167 107.966781 
L 245.247557 107.966781 
L 244.596947 107.966781 
L 243.946336 107.966781 
L 243.295726 107.966782 
L 242.645116 107.966782 
L 241.994505 107.966782 
L 241.343895 107.966783 
L 240.693285 107.966783 
L 240.042674 107.966783 
L 239.392064 107.966784 
L 238.741454 107.966784 
L 238.090844 107.966784 
L 237.440233 107.966785 
L 236.789623 107.966785 
L 236.139013 107.966785 
L 235.488402 107.966785 
L 234.837792 107.966786 
L 234.187182 107.966786 
L 233.536571 107.966786 
L 232.885961 107.966787 
L 232.235351 107.966787 
L 231.58474 107.966787 
L 230.93413 107.966788 
L 230.28352 107.966788 
L 229.632909 107.966788 
L 228.982299 107.966789 
L 228.331689 107.966789 
L 227.681079 107.966789 
L 227.030468 107.966789 
L 226.379858 107.966789 
L 225.729248 107.966789 
L 225.078637 107.966789 
L 224.428027 107.966789 
L 223.777417 107.966789 
L 223.126806 107.966789 
L 222.476196 107.966789 
L 221.825586 107.966789 
L 221.174975 107.966789 
L 220.524365 107.966789 
L 219.873755 107.966789 
L 219.223144 107.966789 
L 218.572534 107.966789 
L 217.921924 107.966789 
L 217.271314 107.966789 
L 216.620703 107.966789 
L 215.970093 107.966789 
L 215.319483 107.966789 
L 214.668872 107.966789 
L 214.018262 107.966788 
L 213.367652 107.966788 
L 212.717041 107.966788 
L 212.066431 107.966787 
L 211.415821 107.966787 
L 210.76521 107.966787 
L 210.1146 107.966786 
L 209.46399 107.966786 
L 208.813379 107.966786 
L 208.162769 107.966785 
L 207.512159 107.966785 
L 206.861549 107.966785 
L 206.210938 107.966784 
L 205.560328 107.966784 
L 204.909718 107.966784 
L 204.259107 107.966783 
L 203.608497 107.966783 
L 202.957887 107.966783 
L 202.307276 107.966783 
L 201.656666 107.966783 
L 201.006056 107.966783 
L 200.355445 107.966783 
L 199.704835 107.966783 
L 199.054225 107.966783 
L 198.403615 107.966783 
L 197.753004 107.966783 
L 197.102394 107.966783 
L 196.451784 107.966783 
L 195.801173 107.966783 
L 195.150563 107.966783 
L 194.499953 107.966783 
L 193.849342 107.966783 
L 193.198732 107.966783 
L 192.548122 107.966783 
L 191.897511 107.966783 
L 191.246901 107.966783 
L 190.596291 107.966783 
L 189.94568 107.966783 
L 189.29507 107.966782 
L 188.64446 107.966782 
L 187.99385 107.966782 
L 187.343239 107.966782 
L 186.692629 107.966781 
L 186.042019 107.966781 
L 185.391408 107.966781 
L 184.740798 107.96678 
L 184.090188 107.96678 
L 183.439577 107.96678 
L 182.788967 107.966779 
L 182.138357 107.966779 
L 181.487746 107.966779 
L 180.837136 107.966778 
L 180.186526 107.966778 
L 179.535915 107.966778 
L 178.885305 107.966777 
L 178.234695 107.966777 
L 177.584085 107.966777 
L 176.933474 107.966777 
L 176.282864 107.966777 
L 175.632254 107.966777 
L 174.981643 107.966777 
L 174.331033 107.966777 
L 173.680423 107.966777 
L 173.029812 107.966777 
L 172.379202 107.966777 
L 171.728592 107.966777 
L 171.077981 107.966777 
L 170.427371 107.966777 
L 169.776761 107.966777 
L 169.12615 107.966777 
L 168.47554 107.966777 
L 167.82493 107.966777 
L 167.17432 107.966777 
L 166.523709 107.966777 
L 165.873099 107.966777 
L 165.222489 107.966778 
L 164.571878 107.966778 
L 163.921268 107.966779 
L 163.270658 107.966779 
L 162.620047 107.96678 
L 161.969437 107.966781 
L 161.318827 107.966781 
L 160.668216 107.966782 
L 160.017606 107.966782 
L 159.366996 107.966783 
L 158.716385 107.966784 
L 158.065775 107.966784 
L 157.415165 107.966785 
L 156.764555 107.966786 
L 156.113944 107.966786 
L 155.463334 107.966787 
L 154.812724 107.966787 
L 154.162113 107.966788 
L 153.511503 107.966789 
L 152.860893 107.966791 
L 152.210282 107.966794 
L 151.559672 107.966797 
L 150.909062 107.9668 
L 150.258451 107.966803 
L 149.607841 107.966806 
L 148.957231 107.966809 
L 148.306621 107.966812 
L 147.65601 107.966816 
L 147.0054 107.966819 
L 146.35479 107.966822 
L 145.704179 107.966825 
L 145.053569 107.966828 
L 144.402959 107.966831 
L 143.752348 107.966834 
L 143.101738 107.966837 
L 142.451128 107.96684 
L 141.800517 107.966843 
L 141.149907 107.966847 
L 140.499297 107.96685 
L 139.848686 107.966853 
L 139.198076 107.966856 
L 138.547466 107.966859 
L 137.896856 107.966862 
L 137.246245 107.966865 
L 136.595635 107.966868 
L 135.945025 107.966871 
L 135.294414 107.966874 
L 134.643804 107.966878 
L 133.993194 107.966881 
L 133.342583 107.966884 
L 132.691973 107.966887 
L 132.041363 107.96689 
L 131.390752 107.966893 
L 130.740142 107.966896 
L 130.089532 107.966899 
L 129.438921 107.966902 
L 128.788311 107.966905 
L 128.137701 107.966909 
L 127.487091 107.966904 
L 126.83648 107.966899 
L 126.18587 107.966895 
L 125.53526 107.96689 
L 124.884649 107.966885 
L 124.234039 107.966881 
L 123.583429 107.966876 
L 122.932818 107.966871 
L 122.282208 107.966867 
L 121.631598 107.966862 
L 120.980987 107.966857 
L 120.330377 107.966853 
L 119.679767 107.966848 
L 119.029156 107.966844 
L 118.378546 107.966839 
L 117.727936 107.966834 
L 117.077326 107.96683 
L 116.426715 107.966825 
L 115.776105 107.96682 
L 115.125495 107.966818 
L 114.474884 107.966818 
L 113.824274 107.966817 
L 113.173664 107.966817 
L 112.523053 107.966816 
L 111.872443 107.966815 
L 111.221833 107.966815 
L 110.571222 107.966814 
L 109.920612 107.966813 
L 109.270002 107.966813 
L 108.619392 107.966812 
L 107.968781 107.966812 
L 107.318171 107.966811 
L 106.667561 107.96681 
L 106.01695 107.96681 
L 105.36634 107.966809 
L 104.71573 107.966809 
L 104.065119 107.966808 
L 103.414509 107.966807 
L 102.763899 107.966807 
L 102.113288 107.966806 
L 101.462678 107.966805 
L 100.812068 107.966805 
L 100.161457 107.966804 
L 99.510847 107.966804 
L 98.860237 107.966803 
L 98.209627 107.966802 
L 97.559016 107.966802 
L 96.908406 107.966801 
L 96.257796 107.9668 
L 95.607185 107.9668 
L 94.956575 107.966799 
L 94.305965 107.966799 
L 93.655354 107.966798 
L 93.004744 107.966797 
L 92.354134 107.966797 
L 91.703523 107.966796 
L 91.052913 107.966795 
L 90.402303 107.966795 
L 89.751692 107.966794 
L 89.101082 107.966794 
L 88.450472 107.966793 
L 87.799862 107.966792 
L 87.149251 107.966792 
L 86.498641 107.966791 
L 85.848031 107.966791 
L 85.19742 107.96679 
L 84.54681 107.966789 
L 83.8962 107.966789 
L 83.245589 107.966788 
L 82.594979 107.966787 
L 81.944369 107.966787 
L 81.293758 107.966786 
L 80.643148 107.966786 
L 79.992538 107.966785 
L 79.341927 107.966784 
L 78.691317 107.966784 
L 78.040707 107.966783 
L 77.390097 107.966783 
L 76.739486 107.966782 
L 76.088876 107.966782 
L 75.438266 107.966782 
L 74.787655 107.966781 
L 74.137045 107.966781 
L 73.486435 107.966781 
L 72.835824 107.966781 
L 72.185214 107.96678 
L 71.534604 107.96678 
L 70.883993 107.96678 
L 70.233383 107.966779 
L 69.582773 107.966779 
L 68.932163 107.966779 
L 68.281552 107.966778 
L 67.630942 107.966778 
L 66.980332 107.966778 
L 66.329721 107.966777 
L 65.679111 107.966777 
L 65.028501 107.966777 
L 64.37789 107.966778 
L 63.72728 107.966778 
L 63.07667 107.966778 
L 62.426059 107.966778 
L 61.775449 107.966779 
L 61.124839 107.966779 
L 60.474228 107.966779 
L 59.823618 107.96678 
L 59.173008 107.96678 
L 58.522398 107.96678 
L 57.871787 107.966781 
L 57.221177 107.966781 
L 56.570567 107.966781 
L 55.919956 107.966782 
L 55.269346 107.966782 
L 54.618736 107.966782 
L 53.968125 107.966782 
L 53.317515 107.966783 
L 52.666905 108.050291 
L 52.016294 108.327366 
L 51.365684 108.604441 
L 50.715074 108.881517 
L 50.064463 109.158592 
L 49.413853 109.435667 
L 48.763243 109.712742 
L 48.112633 109.989818 
L 47.462022 110.266893 
L 46.811412 110.543968 
L 46.160802 110.821043 
L 45.510191 111.098118 
L 44.859581 111.375194 
L 44.208971 111.652269 
L 43.55836 111.929344 
L 42.90775 112.206419 
L 42.25714 112.483495 
L 41.606529 112.76057 
L 40.955919 113.037645 
L 40.305309 113.355877 
L 39.654698 115.681238 
L 39.004088 118.0066 
L 38.353478 120.331962 
L 37.702868 122.657323 
L 37.052257 124.982685 
L 36.401647 127.308046 
L 35.751037 129.633408 
L 35.100426 131.958769 
L 34.449816 134.284131 
L 33.799206 136.609492 
L 33.148595 138.934854 
L 32.497985 141.260215 
L 31.847375 143.585577 
L 31.196764 145.910938 
L 30.546154 148.2363 
L 29.895544 150.561661 
L 29.244934 152.887023 
L 28.594323 155.212384 
L 27.943713 157.537746 
L 27.293103 158.134484 
L 26.642492 158.120057 
L 25.991882 158.105629 
L 25.341272 158.091202 
L 24.690661 158.076775 
L 24.040051 158.062347 
L 23.389441 158.04792 
L 22.73883 158.033492 
L 22.08822 158.019065 
L 21.43761 158.004637 
L 20.786999 157.99021 
L 20.136389 157.975782 
L 19.485779 157.961355 
L 18.835169 157.946927 
L 18.184558 157.9325 
L 17.533948 157.918072 
L 16.883338 157.903645 
L 16.232727 157.889218 
z
" style="fill:#f15a24;fill-opacity:0.3;"/>
   </g>
   <g id="PathCollection_1">
    <defs>
     <path d="M 0 1.581139 
C 0.419323 1.581139 0.821528 1.41454 1.118034 1.118034 
C 1.41454 0.821528 1.581139 0.419323 1.581139 -0 
C 1.581139 -0.419323 1.41454 -0.821528 1.118034 -1.118034 
C 0.821528 -1.41454 0.419323 -1.581139 0 -1.581139 
C -0.419323 -1.581139 -0.821528 -1.41454 -1.118034 -1.118034 
C -1.41454 -0.821528 -1.581139 -0.419323 -1.581139 0 
C -1.581139 0.419323 -1.41454 0.821528 -1.118034 1.118034 
C -0.821528 1.41454 -0.419323 1.581139 0 1.581139 
z
" id="C0_0_be710bccec"/>
    </defs>
    <g clip-path="url(#paabe25136a)">
     <use style="fill:#008000;stroke:#008000;stroke-width:0.5;" x="16.232727" xlink:href="#C0_0_be710bccec" y="108.343181"/>
    </g>
    <g clip-path="url(#paabe25136a)">
     <use style="fill:#ffff00;stroke:#ffff00;stroke-width:0.5;" x="27.77377" xlink:href="#C0_0_be710bccec" y="107.966903"/>
    </g>
    <g clip-path="url(#paabe25136a)">
     <use style="fill:#ff0000;stroke:#ff0000;stroke-width:0.5;" x="40.318381" xlink:href="#C0_0_be710bccec" y="113.309153"/>
    </g>
    <g clip-path="url(#paabe25136a)">
     <use style="fill:#ff0000;stroke:#ff0000;stroke-width:0.5;" x="52.862993" xlink:href="#C0_0_be710bccec" y="107.966783"/>
    </g>
    <g clip-path="url(#paabe25136a)">
     <use style="fill:#ff0000;stroke:#ff0000;stroke-width:0.5;" x="65.407604" xlink:href="#C0_0_be710bccec" y="107.966777"/>
    </g>
    <g clip-path="url(#paabe25136a)">
     <use style="fill:#ff0000;stroke:#ff0000;stroke-width:0.5;" x="77.952216" xlink:href="#C0_0_be710bccec" y="107.966783"/>
    </g>
    <g clip-path="url(#paabe25136a)">
     <use style="fill:#ff0000;stroke:#ff0000;stroke-width:0.5;" x="90.496827" xlink:href="#C0_0_be710bccec" y="107.966795"/>
    </g>
    <g clip-path="url(#paabe25136a)">
     <use style="fill:#ff0000;stroke:#ff0000;stroke-width:0.5;" x="103.041439" xlink:href="#C0_0_be710bccec" y="107.966807"/>
    </g>
    <g clip-path="url(#paabe25136a)">
     <use style="fill:#ff0000;stroke:#ff0000;stroke-width:0.5;" x="115.58605" xlink:href="#C0_0_be710bccec" y="107.966819"/>
    </g>
    <g clip-path="url(#paabe25136a)">
     <use style="fill:#ff0000;stroke:#ff0000;stroke-width:0.5;" x="128.130662" xlink:href="#C0_0_be710bccec" y="107.966909"/>
    </g>
    <g clip-path="url(#paabe25136a)">
     <use style="fill:#ff0000;stroke:#ff0000;stroke-width:0.5;" x="140.675273" xlink:href="#C0_0_be710bccec" y="107.966849"/>
    </g>
    <g clip-path="url(#paabe25136a)">
     <use style="fill:#ff0000;stroke:#ff0000;stroke-width:0.5;" x="153.219885" xlink:href="#C0_0_be710bccec" y="107.966789"/>
    </g>
    <g clip-path="url(#paabe25136a)">
     <use style="fill:#ff0000;stroke:#ff0000;stroke-width:0.5;" x="165.764496" xlink:href="#C0_0_be710bccec" y="107.966777"/>
    </g>
    <g clip-path="url(#paabe25136a)">
     <use style="fill:#ff0000;stroke:#ff0000;stroke-width:0.5;" x="178.309108" xlink:href="#C0_0_be710bccec" y="107.966777"/>
    </g>
    <g clip-path="url(#paabe25136a)">
     <use style="fill:#ff0000;stroke:#ff0000;stroke-width:0.5;" x="190.351935" xlink:href="#C0_0_be710bccec" y="107.966783"/>
    </g>
    <g clip-path="url(#paabe25136a)">
     <use style="fill:#ff0000;stroke:#ff0000;stroke-width:0.5;" x="203.398331" xlink:href="#C0_0_be710bccec" y="107.966783"/>
    </g>
    <g clip-path="url(#paabe25136a)">
     <use style="fill:#ff0000;stroke:#ff0000;stroke-width:0.5;" x="215.441158" xlink:href="#C0_0_be710bccec" y="107.966789"/>
    </g>
    <g clip-path="url(#paabe25136a)">
     <use style="fill:#ff0000;stroke:#ff0000;stroke-width:0.5;" x="228.487554" xlink:href="#C0_0_be710bccec" y="107.966789"/>
    </g>
    <g clip-path="url(#paabe25136a)">
     <use style="fill:#ff0000;stroke:#ff0000;stroke-width:0.5;" x="240.530381" xlink:href="#C0_0_be710bccec" y="107.966783"/>
    </g>
    <g clip-path="url(#paabe25136a)">
     <use style="fill:#ff0000;stroke:#ff0000;stroke-width:0.5;" x="254.078561" xlink:href="#C0_0_be710bccec" y="107.966777"/>
    </g>
    <g clip-path="url(#paabe25136a)">
     <use style="fill:#ff0000;stroke:#ff0000;stroke-width:0.5;" x="265.619604" xlink:href="#C0_0_be710bccec" y="107.966777"/>
    </g>
    <g clip-path="url(#paabe25136a)">
     <use style="fill:#ff0000;stroke:#ff0000;stroke-width:0.5;" x="279.167784" xlink:href="#C0_0_be710bccec" y="107.966777"/>
    </g>
    <g clip-path="url(#paabe25136a)">
     <use style="fill:#ff0000;stroke:#ff0000;stroke-width:0.5;" x="290.708827" xlink:href="#C0_0_be710bccec" y="107.966777"/>
    </g>
    <g clip-path="url(#paabe25136a)">
     <use style="fill:#ff0000;stroke:#ff0000;stroke-width:0.5;" x="304.257007" xlink:href="#C0_0_be710bccec" y="107.966777"/>
    </g>
    <g clip-path="url(#paabe25136a)">
     <use style="fill:#ff0000;stroke:#ff0000;stroke-width:0.5;" x="315.79805" xlink:href="#C0_0_be710bccec" y="107.966777"/>
    </g>
    <g clip-path="url(#paabe25136a)">
     <use style="fill:#ff0000;stroke:#ff0000;stroke-width:0.5;" x="329.34623" xlink:href="#C0_0_be710bccec" y="107.966777"/>
    </g>
    <g clip-path="url(#paabe25136a)">
     <use style="fill:#ff0000;stroke:#ff0000;stroke-width:0.5;" x="340.887273" xlink:href="#C0_0_be710bccec" y="107.966777"/>
    </g>
   </g>
   <g id="line2d_1">
    <path clip-path="url(#paabe25136a)" d="M 16.232727 108.343181 
L 27.293103 156.070996 
L 27.943713 158.145171 
L 340.887273 158.145222 
L 340.887273 158.145222 
" style="fill:none;stroke:#61c46e;stroke-linecap:square;"/>
   </g>
   <g id="line2d_2">
    <path clip-path="url(#paabe25136a)" d="M 16.232727 158.024821 
L 27.293103 110.051742 
L 27.943713 108.574305 
L 40.305309 152.756572 
L 42.90775 153.905937 
L 52.666905 158.061714 
L 53.968125 158.145215 
L 340.887273 158.145222 
L 340.887273 158.145222 
" style="fill:none;stroke:#f6ed22;stroke-linecap:square;"/>
   </g>
   <g id="line2d_3">
    <path clip-path="url(#paabe25136a)" d="M 16.232727 157.889218 
L 27.293103 158.134484 
L 27.943713 157.537746 
L 40.305309 113.355877 
L 42.90775 112.206419 
L 52.666905 108.050291 
L 53.968125 107.966782 
L 340.887273 107.966777 
L 340.887273 107.966777 
" style="fill:none;stroke:#f15a24;stroke-linecap:square;"/>
   </g>
  </g>
 </g>
 <defs>
  <clipPath id="paabe25136a">
   <rect height="266.112" width="357.12" x="0" y="-0"/>
  </clipPath>
 </defs>
</svg>
