<?xml version="1.0" encoding="utf-8" standalone="no"?>
<!DOCTYPE svg PUBLIC "-//W3C//DTD SVG 1.1//EN"
  "http://www.w3.org/Graphics/SVG/1.1/DTD/svg11.dtd">
<svg height="266.112pt" version="1.1" viewBox="0 0 357.12 266.112" width="357.12pt" xmlns="http://www.w3.org/2000/svg" xmlns:xlink="http://www.w3.org/1999/xlink">
 <metadata>
  <rdf:RDF xmlns:cc="http://creativecommons.org/ns#" xmlns:dc="http://purl.org/dc/elements/1.1/" xmlns:rdf="http://www.w3.org/1999/02/22-rdf-syntax-ns#">
   <cc:Work>
    <dc:type rdf:resource="http://purl.org/dc/dcmitype/StillImage"/>
    <dc:date>2022-07-08T00:26:31.487586</dc:date>
    <dc:format>image/svg+xml</dc:format>
    <dc:creator>
     <cc:Agent>
      <dc:title>Matplotlib v3.4.2, https://matplotlib.org/</dc:title>
     </cc:Agent>
    </dc:creator>
   </cc:Work>
  </rdf:RDF>
 </metadata>
 <defs>
  <style type="text/css">*{stroke-linecap:butt;stroke-linejoin:round;}</style>
 </defs>
 <g id="figure_1">
  <g id="patch_1">
   <path d="M 0 266.112 
L 357.12 266.112 
L 357.12 0 
L 0 0 
z
" style="fill:#ffffff;"/>
  </g>
  <g id="axes_1">
   <g id="PolyCollection_1">
    <path clip-path="url(#p101060674f)" d="M 16.232727 108.970849 
L 16.232727 157.175951 
L 16.883338 157.175951 
L 17.533948 157.175951 
L 18.184558 157.175951 
L 18.835169 157.175951 
L 19.485779 157.175951 
L 20.136389 157.175951 
L 20.786999 157.175951 
L 21.43761 157.175951 
L 22.08822 157.175951 
L 22.73883 157.175951 
L 23.389441 157.175951 
L 24.040051 157.175951 
L 24.690661 157.175951 
L 25.341272 157.175951 
L 25.991882 157.175951 
L 26.642492 157.175951 
L 27.293103 157.175951 
L 27.943713 157.175951 
L 28.594323 157.175951 
L 29.244934 157.175951 
L 29.895544 157.175951 
L 30.546154 157.175951 
L 31.196764 157.175951 
L 31.847375 157.175951 
L 32.497985 157.175951 
L 33.148595 157.175951 
L 33.799206 157.175951 
L 34.449816 157.175951 
L 35.100426 157.175951 
L 35.751037 157.175951 
L 36.401647 157.175951 
L 37.052257 157.175951 
L 37.702868 157.175951 
L 38.353478 157.175951 
L 39.004088 157.175951 
L 39.654698 157.175951 
L 40.305309 157.175951 
L 40.955919 157.175951 
L 41.606529 157.175951 
L 42.25714 157.175951 
L 42.90775 157.175951 
L 43.55836 157.175951 
L 44.208971 157.175951 
L 44.859581 157.175951 
L 45.510191 157.175951 
L 46.160802 157.175951 
L 46.811412 157.175951 
L 47.462022 157.175951 
L 48.112633 157.175951 
L 48.763243 157.175951 
L 49.413853 157.175951 
L 50.064463 157.175951 
L 50.715074 157.175951 
L 51.365684 157.175951 
L 52.016294 157.175951 
L 52.666905 157.175951 
L 53.317515 157.175951 
L 53.968125 157.175951 
L 54.618736 157.175951 
L 55.269346 157.175951 
L 55.919956 157.175951 
L 56.570567 157.175951 
L 57.221177 157.175951 
L 57.871787 157.175951 
L 58.522398 157.175951 
L 59.173008 157.175951 
L 59.823618 157.175951 
L 60.474228 157.175951 
L 61.124839 157.175951 
L 61.775449 157.175951 
L 62.426059 157.175951 
L 63.07667 157.175951 
L 63.72728 157.175951 
L 64.37789 157.175951 
L 65.028501 157.175951 
L 65.679111 157.175951 
L 66.329721 157.175951 
L 66.980332 157.175951 
L 67.630942 157.175951 
L 68.281552 157.175951 
L 68.932163 157.175951 
L 69.582773 157.175951 
L 70.233383 157.175951 
L 70.883993 157.175951 
L 71.534604 157.175951 
L 72.185214 157.175951 
L 72.835824 157.175951 
L 73.486435 157.175951 
L 74.137045 157.175951 
L 74.787655 157.175951 
L 75.438266 157.175951 
L 76.088876 157.175951 
L 76.739486 157.175951 
L 77.390097 157.175951 
L 78.040707 157.175951 
L 78.691317 157.175951 
L 79.341927 157.175951 
L 79.992538 157.175951 
L 80.643148 157.175951 
L 81.293758 157.175951 
L 81.944369 157.175951 
L 82.594979 157.175951 
L 83.245589 157.175951 
L 83.8962 157.175951 
L 84.54681 157.175951 
L 85.19742 157.175951 
L 85.848031 157.175951 
L 86.498641 157.175951 
L 87.149251 157.175951 
L 87.799862 157.175951 
L 88.450472 157.175951 
L 89.101082 157.175951 
L 89.751692 157.175951 
L 90.402303 157.175951 
L 91.052913 157.175951 
L 91.703523 157.175951 
L 92.354134 157.175951 
L 93.004744 157.175951 
L 93.655354 157.175951 
L 94.305965 157.175951 
L 94.956575 157.175951 
L 95.607185 157.175951 
L 96.257796 157.175951 
L 96.908406 157.175951 
L 97.559016 157.175951 
L 98.209627 157.175951 
L 98.860237 157.175951 
L 99.510847 157.175951 
L 100.161457 157.175951 
L 100.812068 157.175951 
L 101.462678 157.175951 
L 102.113288 157.175951 
L 102.763899 157.175951 
L 103.414509 157.175951 
L 104.065119 157.175951 
L 104.71573 157.175951 
L 105.36634 157.175951 
L 106.01695 157.175951 
L 106.667561 157.175951 
L 107.318171 157.175951 
L 107.968781 157.175951 
L 108.619392 157.175951 
L 109.270002 157.175951 
L 109.920612 157.175951 
L 110.571222 157.175951 
L 111.221833 157.175951 
L 111.872443 157.175951 
L 112.523053 157.175951 
L 113.173664 157.175951 
L 113.824274 157.175951 
L 114.474884 157.175951 
L 115.125495 157.175951 
L 115.776105 157.175951 
L 116.426715 157.175951 
L 117.077326 157.175951 
L 117.727936 157.175951 
L 118.378546 157.175951 
L 119.029156 157.175951 
L 119.679767 157.175951 
L 120.330377 157.175951 
L 120.980987 157.175951 
L 121.631598 157.175951 
L 122.282208 157.175951 
L 122.932818 157.175951 
L 123.583429 157.175951 
L 124.234039 157.175951 
L 124.884649 157.175951 
L 125.53526 157.175951 
L 126.18587 157.175951 
L 126.83648 157.175951 
L 127.487091 157.175951 
L 128.137701 157.175951 
L 128.788311 157.175951 
L 129.438921 157.175951 
L 130.089532 157.175951 
L 130.740142 157.175951 
L 131.390752 157.175951 
L 132.041363 157.175951 
L 132.691973 157.175951 
L 133.342583 157.175951 
L 133.993194 157.175951 
L 134.643804 157.175951 
L 135.294414 157.175951 
L 135.945025 157.175951 
L 136.595635 157.175951 
L 137.246245 157.175951 
L 137.896856 157.175951 
L 138.547466 157.175951 
L 139.198076 157.175951 
L 139.848686 157.175951 
L 140.499297 157.175951 
L 141.149907 157.175951 
L 141.800517 157.175951 
L 142.451128 157.175951 
L 143.101738 157.175951 
L 143.752348 157.175951 
L 144.402959 157.175951 
L 145.053569 157.175951 
L 145.704179 157.175951 
L 146.35479 157.175951 
L 147.0054 157.175951 
L 147.65601 157.175951 
L 148.306621 157.175951 
L 148.957231 157.175951 
L 149.607841 157.175951 
L 150.258451 157.175951 
L 150.909062 157.175951 
L 151.559672 157.175951 
L 152.210282 157.175951 
L 152.860893 157.175951 
L 153.511503 157.175951 
L 154.162113 157.175951 
L 154.812724 157.175951 
L 155.463334 157.175951 
L 156.113944 157.175951 
L 156.764555 157.175951 
L 157.415165 157.175951 
L 158.065775 157.175951 
L 158.716385 157.175951 
L 159.366996 157.175951 
L 160.017606 157.175951 
L 160.668216 157.175951 
L 161.318827 157.175951 
L 161.969437 157.175951 
L 162.620047 157.175951 
L 163.270658 157.175951 
L 163.921268 157.175951 
L 164.571878 157.175951 
L 165.222489 157.175951 
L 165.873099 157.175951 
L 166.523709 157.175951 
L 167.17432 157.175951 
L 167.82493 157.175951 
L 168.47554 157.175951 
L 169.12615 157.175951 
L 169.776761 157.175951 
L 170.427371 157.175951 
L 171.077981 157.175951 
L 171.728592 157.175951 
L 172.379202 157.175951 
L 173.029812 157.175951 
L 173.680423 157.175951 
L 174.331033 157.175951 
L 174.981643 157.175951 
L 175.632254 157.175951 
L 176.282864 157.175951 
L 176.933474 157.175951 
L 177.584085 157.175951 
L 178.234695 157.175951 
L 178.885305 157.175951 
L 179.535915 157.175951 
L 180.186526 157.175951 
L 180.837136 157.175951 
L 181.487746 157.175951 
L 182.138357 157.175951 
L 182.788967 157.175951 
L 183.439577 157.175951 
L 184.090188 157.175951 
L 184.740798 157.175951 
L 185.391408 157.175951 
L 186.042019 157.175951 
L 186.692629 157.175951 
L 187.343239 157.175951 
L 187.99385 157.175951 
L 188.64446 157.175951 
L 189.29507 157.175951 
L 189.94568 157.175951 
L 190.596291 157.175951 
L 191.246901 157.175951 
L 191.897511 157.175951 
L 192.548122 157.175951 
L 193.198732 157.175951 
L 193.849342 157.175951 
L 194.499953 157.175951 
L 195.150563 157.175951 
L 195.801173 157.175951 
L 196.451784 157.175951 
L 197.102394 157.175951 
L 197.753004 157.175951 
L 198.403615 157.175951 
L 199.054225 157.175951 
L 199.704835 157.175951 
L 200.355445 157.175951 
L 201.006056 157.175951 
L 201.656666 157.175951 
L 202.307276 157.175951 
L 202.957887 157.175951 
L 203.608497 157.175951 
L 204.259107 157.175951 
L 204.909718 157.175951 
L 205.560328 157.175951 
L 206.210938 157.175951 
L 206.861549 157.175951 
L 207.512159 157.175951 
L 208.162769 157.175951 
L 208.813379 157.175951 
L 209.46399 157.175951 
L 210.1146 157.175951 
L 210.76521 157.175951 
L 211.415821 157.175951 
L 212.066431 157.175951 
L 212.717041 157.175951 
L 213.367652 157.175951 
L 214.018262 157.175951 
L 214.668872 157.175951 
L 215.319483 157.175951 
L 215.970093 157.175951 
L 216.620703 157.175951 
L 217.271314 157.175951 
L 217.921924 157.175951 
L 218.572534 157.175951 
L 219.223144 157.175951 
L 219.873755 157.175951 
L 220.524365 157.175951 
L 221.174975 157.175951 
L 221.825586 157.175951 
L 222.476196 157.175951 
L 223.126806 157.175951 
L 223.777417 157.175951 
L 224.428027 157.175951 
L 225.078637 157.175951 
L 225.729248 157.175951 
L 226.379858 157.175951 
L 227.030468 157.175951 
L 227.681079 157.175951 
L 228.331689 157.175951 
L 228.982299 157.175951 
L 229.632909 157.175951 
L 230.28352 157.175951 
L 230.93413 157.175951 
L 231.58474 157.175951 
L 232.235351 157.175951 
L 232.885961 157.175951 
L 233.536571 157.175951 
L 234.187182 157.175951 
L 234.837792 157.175951 
L 235.488402 157.175951 
L 236.139013 157.175951 
L 236.789623 157.175951 
L 237.440233 157.175951 
L 238.090844 157.175951 
L 238.741454 157.175951 
L 239.392064 157.175951 
L 240.042674 157.175951 
L 240.693285 157.175951 
L 241.343895 157.175951 
L 241.994505 157.175951 
L 242.645116 157.175951 
L 243.295726 157.175951 
L 243.946336 157.175951 
L 244.596947 157.175951 
L 245.247557 157.175951 
L 245.898167 157.175951 
L 246.548778 157.175951 
L 247.199388 157.175951 
L 247.849998 157.175951 
L 248.500608 157.175951 
L 249.151219 157.175951 
L 249.801829 157.175951 
L 250.452439 157.175951 
L 251.10305 157.175951 
L 251.75366 157.175951 
L 252.40427 157.175951 
L 253.054881 157.175951 
L 253.705491 157.175951 
L 254.356101 157.175951 
L 255.006712 157.175951 
L 255.657322 157.175951 
L 256.307932 157.175951 
L 256.958543 157.175951 
L 257.609153 157.175951 
L 258.259763 157.175951 
L 258.910373 157.175951 
L 259.560984 157.175951 
L 260.211594 157.175951 
L 260.862204 157.175951 
L 261.512815 157.175951 
L 262.163425 157.175951 
L 262.814035 157.175951 
L 263.464646 157.175951 
L 264.115256 157.175951 
L 264.765866 157.175951 
L 265.416477 157.175951 
L 266.067087 157.175951 
L 266.717697 157.175951 
L 267.368308 157.175951 
L 268.018918 157.175951 
L 268.669528 157.175951 
L 269.320138 157.175951 
L 269.970749 157.175951 
L 270.621359 157.175951 
L 271.271969 157.175951 
L 271.92258 157.175951 
L 272.57319 157.175951 
L 273.2238 157.175951 
L 273.874411 157.175951 
L 274.525021 157.175951 
L 275.175631 157.175951 
L 275.826242 157.175951 
L 276.476852 157.175951 
L 277.127462 157.175951 
L 277.778073 157.175951 
L 278.428683 157.175951 
L 279.079293 157.175951 
L 279.729903 157.175951 
L 280.380514 157.175951 
L 281.031124 157.175951 
L 281.681734 157.175951 
L 282.332345 157.175951 
L 282.982955 157.175951 
L 283.633565 157.175951 
L 284.284176 157.175951 
L 284.934786 157.175951 
L 285.585396 157.175951 
L 286.236007 157.175951 
L 286.886617 157.175951 
L 287.537227 157.175951 
L 288.187837 157.175951 
L 288.838448 157.175951 
L 289.489058 157.175951 
L 290.139668 157.175951 
L 290.790279 157.175951 
L 291.440889 157.175951 
L 292.091499 157.175951 
L 292.74211 157.175951 
L 293.39272 157.175951 
L 294.04333 157.175951 
L 294.693941 157.175951 
L 295.344551 157.175951 
L 295.995161 157.175951 
L 296.645772 157.175951 
L 297.296382 157.175951 
L 297.946992 157.175951 
L 298.597602 157.175951 
L 299.248213 157.175951 
L 299.898823 157.175951 
L 300.549433 157.175951 
L 301.200044 157.175951 
L 301.850654 157.175951 
L 302.501264 157.175951 
L 303.151875 157.175951 
L 303.802485 157.175951 
L 304.453095 157.175951 
L 305.103706 157.175951 
L 305.754316 157.175951 
L 306.404926 157.175951 
L 307.055537 157.175951 
L 307.706147 157.175951 
L 308.356757 157.175951 
L 309.007367 157.175951 
L 309.657978 157.175951 
L 310.308588 157.175951 
L 310.959198 157.175951 
L 311.609809 157.175951 
L 312.260419 157.175951 
L 312.911029 157.175951 
L 313.56164 157.175951 
L 314.21225 157.175951 
L 314.86286 157.175951 
L 315.513471 157.175951 
L 316.164081 157.175951 
L 316.814691 157.175951 
L 317.465302 157.175951 
L 318.115912 157.175951 
L 318.766522 157.175951 
L 319.417132 157.175951 
L 320.067743 157.175951 
L 320.718353 157.175951 
L 321.368963 157.175951 
L 322.019574 157.175951 
L 322.670184 157.175951 
L 323.320794 157.175951 
L 323.971405 157.175951 
L 324.622015 157.175951 
L 325.272625 157.175951 
L 325.923236 157.175951 
L 326.573846 157.175951 
L 327.224456 157.175951 
L 327.875066 157.175951 
L 328.525677 157.175951 
L 329.176287 157.175951 
L 329.826897 157.175951 
L 330.477508 157.175951 
L 331.128118 157.175951 
L 331.778728 157.175951 
L 332.429339 157.175951 
L 333.079949 157.175951 
L 333.730559 157.175951 
L 334.38117 157.175951 
L 335.03178 157.175951 
L 335.68239 157.175951 
L 336.333001 157.175951 
L 336.983611 157.175951 
L 337.634221 157.175951 
L 338.284831 157.175951 
L 338.935442 157.175951 
L 339.586052 157.175951 
L 340.236662 157.175951 
L 340.887273 157.175951 
L 340.887273 157.17595 
L 340.887273 157.17595 
L 340.236662 157.17595 
L 339.586052 157.17595 
L 338.935442 157.17595 
L 338.284831 157.17595 
L 337.634221 157.17595 
L 336.983611 157.17595 
L 336.333001 157.17595 
L 335.68239 157.17595 
L 335.03178 157.17595 
L 334.38117 157.17595 
L 333.730559 157.17595 
L 333.079949 157.17595 
L 332.429339 157.17595 
L 331.778728 157.17595 
L 331.128118 157.17595 
L 330.477508 157.17595 
L 329.826897 157.17595 
L 329.176287 157.17595 
L 328.525677 157.17595 
L 327.875066 157.17595 
L 327.224456 157.17595 
L 326.573846 157.17595 
L 325.923236 157.17595 
L 325.272625 157.17595 
L 324.622015 157.17595 
L 323.971405 157.17595 
L 323.320794 157.17595 
L 322.670184 157.17595 
L 322.019574 157.17595 
L 321.368963 157.17595 
L 320.718353 157.17595 
L 320.067743 157.17595 
L 319.417132 157.17595 
L 318.766522 157.17595 
L 318.115912 157.17595 
L 317.465302 157.175951 
L 316.814691 157.175951 
L 316.164081 157.175951 
L 315.513471 157.175951 
L 314.86286 157.175951 
L 314.21225 157.175951 
L 313.56164 157.175951 
L 312.911029 157.175951 
L 312.260419 157.175951 
L 311.609809 157.175951 
L 310.959198 157.175951 
L 310.308588 157.175951 
L 309.657978 157.175951 
L 309.007367 157.175951 
L 308.356757 157.175951 
L 307.706147 157.175951 
L 307.055537 157.175951 
L 306.404926 157.175951 
L 305.754316 157.175951 
L 305.103706 157.175951 
L 304.453095 157.17595 
L 303.802485 157.17595 
L 303.151875 157.17595 
L 302.501264 157.17595 
L 301.850654 157.17595 
L 301.200044 157.17595 
L 300.549433 157.175949 
L 299.898823 157.175949 
L 299.248213 157.175949 
L 298.597602 157.175949 
L 297.946992 157.175949 
L 297.296382 157.175949 
L 296.645772 157.175948 
L 295.995161 157.175948 
L 295.344551 157.175948 
L 294.693941 157.175948 
L 294.04333 157.175948 
L 293.39272 157.175948 
L 292.74211 157.175947 
L 292.091499 157.175948 
L 291.440889 157.175948 
L 290.790279 157.175948 
L 290.139668 157.175948 
L 289.489058 157.175948 
L 288.838448 157.175948 
L 288.187837 157.175948 
L 287.537227 157.175948 
L 286.886617 157.175948 
L 286.236007 157.175948 
L 285.585396 157.175948 
L 284.934786 157.175948 
L 284.284176 157.175948 
L 283.633565 157.175948 
L 282.982955 157.175948 
L 282.332345 157.175948 
L 281.681734 157.175948 
L 281.031124 157.175949 
L 280.380514 157.175949 
L 279.729903 157.175949 
L 279.079293 157.175948 
L 278.428683 157.175948 
L 277.778073 157.175948 
L 277.127462 157.175948 
L 276.476852 157.175948 
L 275.826242 157.175948 
L 275.175631 157.175948 
L 274.525021 157.175948 
L 273.874411 157.175948 
L 273.2238 157.175948 
L 272.57319 157.175948 
L 271.92258 157.175948 
L 271.271969 157.175948 
L 270.621359 157.175948 
L 269.970749 157.175948 
L 269.320138 157.175948 
L 268.669528 157.175948 
L 268.018918 157.175948 
L 267.368308 157.175948 
L 266.717697 157.175947 
L 266.067087 157.175947 
L 265.416477 157.175947 
L 264.765866 157.175947 
L 264.115256 157.175947 
L 263.464646 157.175946 
L 262.814035 157.175946 
L 262.163425 157.175946 
L 261.512815 157.175946 
L 260.862204 157.175946 
L 260.211594 157.175945 
L 259.560984 157.175945 
L 258.910373 157.175945 
L 258.259763 157.175945 
L 257.609153 157.175945 
L 256.958543 157.175944 
L 256.307932 157.175944 
L 255.657322 157.175942 
L 255.006712 157.17594 
L 254.356101 157.175938 
L 253.705491 157.175937 
L 253.054881 157.175935 
L 252.40427 157.175933 
L 251.75366 157.175931 
L 251.10305 157.17593 
L 250.452439 157.175928 
L 249.801829 157.175926 
L 249.151219 157.175924 
L 248.500608 157.175923 
L 247.849998 157.175921 
L 247.199388 157.175919 
L 246.548778 157.175917 
L 245.898167 157.175915 
L 245.247557 157.175914 
L 244.596947 157.175912 
L 243.946336 157.175907 
L 243.295726 157.175901 
L 242.645116 157.175896 
L 241.994505 157.17589 
L 241.343895 157.175884 
L 240.693285 157.175878 
L 240.042674 157.175873 
L 239.392064 157.175867 
L 238.741454 157.175861 
L 238.090844 157.175855 
L 237.440233 157.175849 
L 236.789623 157.175844 
L 236.139013 157.175838 
L 235.488402 157.175832 
L 234.837792 157.175826 
L 234.187182 157.17582 
L 233.536571 157.175815 
L 232.885961 157.175809 
L 232.235351 157.175805 
L 231.58474 157.175813 
L 230.93413 157.175821 
L 230.28352 157.175829 
L 229.632909 157.175837 
L 228.982299 157.175844 
L 228.331689 157.175852 
L 227.681079 157.17586 
L 227.030468 157.175868 
L 226.379858 157.175876 
L 225.729248 157.175883 
L 225.078637 157.175891 
L 224.428027 157.175899 
L 223.777417 157.175907 
L 223.126806 157.175915 
L 222.476196 157.175922 
L 221.825586 157.17593 
L 221.174975 157.175938 
L 220.524365 157.175946 
L 219.873755 157.175949 
L 219.223144 157.175949 
L 218.572534 157.175949 
L 217.921924 157.175949 
L 217.271314 157.175949 
L 216.620703 157.175949 
L 215.970093 157.175949 
L 215.319483 157.175949 
L 214.668872 157.175949 
L 214.018262 157.17595 
L 213.367652 157.17595 
L 212.717041 157.17595 
L 212.066431 157.17595 
L 211.415821 157.17595 
L 210.76521 157.17595 
L 210.1146 157.17595 
L 209.46399 157.17595 
L 208.813379 157.17595 
L 208.162769 157.17595 
L 207.512159 157.17595 
L 206.861549 157.17595 
L 206.210938 157.17595 
L 205.560328 157.175951 
L 204.909718 157.175951 
L 204.259107 157.175951 
L 203.608497 157.175951 
L 202.957887 157.175951 
L 202.307276 157.175951 
L 201.656666 157.175951 
L 201.006056 157.175951 
L 200.355445 157.175951 
L 199.704835 157.175951 
L 199.054225 157.175951 
L 198.403615 157.175951 
L 197.753004 157.175951 
L 197.102394 157.175951 
L 196.451784 157.175951 
L 195.801173 157.175951 
L 195.150563 157.175951 
L 194.499953 157.175951 
L 193.849342 157.175951 
L 193.198732 157.175951 
L 192.548122 157.175951 
L 191.897511 157.175951 
L 191.246901 157.175951 
L 190.596291 157.175951 
L 189.94568 157.175951 
L 189.29507 157.175951 
L 188.64446 157.175951 
L 187.99385 157.175951 
L 187.343239 157.175951 
L 186.692629 157.175951 
L 186.042019 157.175951 
L 185.391408 157.175951 
L 184.740798 157.175951 
L 184.090188 157.175951 
L 183.439577 157.175951 
L 182.788967 157.175951 
L 182.138357 157.175951 
L 181.487746 157.175951 
L 180.837136 157.175951 
L 180.186526 157.175951 
L 179.535915 157.175951 
L 178.885305 157.175951 
L 178.234695 157.175951 
L 177.584085 157.175951 
L 176.933474 157.175951 
L 176.282864 157.175951 
L 175.632254 157.175951 
L 174.981643 157.175951 
L 174.331033 157.175951 
L 173.680423 157.175951 
L 173.029812 157.175951 
L 172.379202 157.175951 
L 171.728592 157.175951 
L 171.077981 157.175951 
L 170.427371 157.175951 
L 169.776761 157.175951 
L 169.12615 157.175951 
L 168.47554 157.175951 
L 167.82493 157.175951 
L 167.17432 157.175951 
L 166.523709 157.175951 
L 165.873099 157.175951 
L 165.222489 157.175951 
L 164.571878 157.175951 
L 163.921268 157.17595 
L 163.270658 157.17595 
L 162.620047 157.17595 
L 161.969437 157.17595 
L 161.318827 157.17595 
L 160.668216 157.17595 
L 160.017606 157.17595 
L 159.366996 157.175808 
L 158.716385 157.175659 
L 158.065775 157.17551 
L 157.415165 157.175362 
L 156.764555 157.175213 
L 156.113944 157.175064 
L 155.463334 157.174915 
L 154.812724 157.174766 
L 154.162113 157.174617 
L 153.511503 157.174468 
L 152.860893 157.174319 
L 152.210282 157.17417 
L 151.559672 157.174021 
L 150.909062 157.173873 
L 150.258451 157.173724 
L 149.607841 157.173575 
L 148.957231 157.173426 
L 148.306621 157.173277 
L 147.65601 157.172964 
L 147.0054 157.172422 
L 146.35479 157.171881 
L 145.704179 157.171339 
L 145.053569 157.170797 
L 144.402959 157.170256 
L 143.752348 157.169714 
L 143.101738 157.169172 
L 142.451128 157.168631 
L 141.800517 157.168089 
L 141.149907 157.167547 
L 140.499297 157.167006 
L 139.848686 157.166464 
L 139.198076 157.165922 
L 138.547466 157.165381 
L 137.896856 157.164839 
L 137.246245 157.164297 
L 136.595635 157.163756 
L 135.945025 157.163214 
L 135.294414 155.085408 
L 134.643804 152.727363 
L 133.993194 150.369318 
L 133.342583 148.011273 
L 132.691973 145.653228 
L 132.041363 143.295183 
L 131.390752 140.937138 
L 130.740142 138.579093 
L 130.089532 136.221048 
L 129.438921 133.863003 
L 128.788311 131.504958 
L 128.137701 129.146913 
L 127.487091 126.788869 
L 126.83648 124.430824 
L 126.18587 122.072779 
L 125.53526 119.714734 
L 124.884649 117.356689 
L 124.234039 114.998644 
L 123.583429 113.447646 
L 122.932818 113.430734 
L 122.282208 113.413821 
L 121.631598 113.396909 
L 120.980987 113.379997 
L 120.330377 113.363084 
L 119.679767 113.346172 
L 119.029156 113.32926 
L 118.378546 113.312347 
L 117.727936 113.295435 
L 117.077326 113.278523 
L 116.426715 113.261611 
L 115.776105 113.244698 
L 115.125495 113.227786 
L 114.474884 113.210874 
L 113.824274 113.193961 
L 113.173664 113.177049 
L 112.523053 113.160137 
L 111.872443 113.143224 
L 111.221833 114.110417 
L 110.571222 115.310973 
L 109.920612 116.511529 
L 109.270002 117.712085 
L 108.619392 118.912641 
L 107.968781 120.113197 
L 107.318171 121.313752 
L 106.667561 122.514308 
L 106.01695 123.714864 
L 105.36634 124.91542 
L 104.71573 126.115976 
L 104.065119 127.316532 
L 103.414509 128.517088 
L 102.763899 129.717644 
L 102.113288 130.9182 
L 101.462678 132.118756 
L 100.812068 133.319311 
L 100.161457 134.519867 
L 99.510847 135.208837 
L 98.860237 134.527985 
L 98.209627 133.847133 
L 97.559016 133.166281 
L 96.908406 132.485428 
L 96.257796 131.804576 
L 95.607185 131.123724 
L 94.956575 130.442872 
L 94.305965 129.76202 
L 93.655354 129.081168 
L 93.004744 128.400316 
L 92.354134 127.719464 
L 91.703523 127.038611 
L 91.052913 126.357759 
L 90.402303 125.676907 
L 89.751692 124.996055 
L 89.101082 124.315203 
L 88.450472 123.634351 
L 87.799862 122.953499 
L 87.149251 122.322301 
L 86.498641 121.708958 
L 85.848031 121.095616 
L 85.19742 120.482273 
L 84.54681 119.868931 
L 83.8962 119.255588 
L 83.245589 118.642246 
L 82.594979 118.028903 
L 81.944369 117.415561 
L 81.293758 116.802218 
L 80.643148 116.188875 
L 79.992538 115.575533 
L 79.341927 114.96219 
L 78.691317 114.348848 
L 78.040707 113.735505 
L 77.390097 113.122163 
L 76.739486 112.50882 
L 76.088876 111.895478 
L 75.438266 111.791415 
L 74.787655 113.735867 
L 74.137045 115.68032 
L 73.486435 117.624772 
L 72.835824 119.569225 
L 72.185214 121.513678 
L 71.534604 123.45813 
L 70.883993 125.402583 
L 70.233383 127.347035 
L 69.582773 129.291488 
L 68.932163 131.235941 
L 68.281552 133.180393 
L 67.630942 135.124846 
L 66.980332 137.069299 
L 66.329721 139.013751 
L 65.679111 140.958204 
L 65.028501 142.902656 
L 64.37789 144.847109 
L 63.72728 146.791562 
L 63.07667 146.078413 
L 62.426059 144.01263 
L 61.775449 141.946846 
L 61.124839 139.881063 
L 60.474228 137.81528 
L 59.823618 135.749497 
L 59.173008 133.683713 
L 58.522398 131.61793 
L 57.871787 129.552147 
L 57.221177 127.486364 
L 56.570567 125.42058 
L 55.919956 123.354797 
L 55.269346 121.289014 
L 54.618736 119.223231 
L 53.968125 117.157447 
L 53.317515 115.091664 
L 52.666905 113.025881 
L 52.016294 110.960097 
L 51.365684 109.153734 
L 50.715074 109.141942 
L 50.064463 109.13015 
L 49.413853 109.118357 
L 48.763243 109.106565 
L 48.112633 109.094773 
L 47.462022 109.082981 
L 46.811412 109.071189 
L 46.160802 109.059397 
L 45.510191 109.047605 
L 44.859581 109.035813 
L 44.208971 109.024021 
L 43.55836 109.012229 
L 42.90775 109.000437 
L 42.25714 108.988645 
L 41.606529 108.976853 
L 40.955919 108.965061 
L 40.305309 108.953269 
L 39.654698 108.941477 
L 39.004088 108.936625 
L 38.353478 108.936598 
L 37.702868 108.93657 
L 37.052257 108.936543 
L 36.401647 108.936516 
L 35.751037 108.936488 
L 35.100426 108.936461 
L 34.449816 108.936434 
L 33.799206 108.936406 
L 33.148595 108.936379 
L 32.497985 108.936352 
L 31.847375 108.936325 
L 31.196764 108.936297 
L 30.546154 108.93627 
L 29.895544 108.936243 
L 29.244934 108.936215 
L 28.594323 108.936188 
L 27.943713 108.936161 
L 27.293103 108.936244 
L 26.642492 108.938279 
L 25.991882 108.940315 
L 25.341272 108.942351 
L 24.690661 108.944386 
L 24.040051 108.946422 
L 23.389441 108.948457 
L 22.73883 108.950493 
L 22.08822 108.952528 
L 21.43761 108.954564 
L 20.786999 108.9566 
L 20.136389 108.958635 
L 19.485779 108.960671 
L 18.835169 108.962706 
L 18.184558 108.964742 
L 17.533948 108.966777 
L 16.883338 108.968813 
L 16.232727 108.970849 
z
" style="fill:#61c46e;fill-opacity:0.3;"/>
   </g>
   <g id="PolyCollection_2">
    <path clip-path="url(#p101060674f)" d="M 16.232727 157.175951 
L 16.232727 157.175951 
L 16.883338 157.175951 
L 17.533948 157.175951 
L 18.184558 157.175951 
L 18.835169 157.175951 
L 19.485779 157.175951 
L 20.136389 157.175951 
L 20.786999 157.175951 
L 21.43761 157.175951 
L 22.08822 157.175951 
L 22.73883 157.175951 
L 23.389441 157.175951 
L 24.040051 157.175951 
L 24.690661 157.175951 
L 25.341272 157.175951 
L 25.991882 157.175951 
L 26.642492 157.175951 
L 27.293103 157.175951 
L 27.943713 157.175951 
L 28.594323 157.175951 
L 29.244934 157.175951 
L 29.895544 157.175951 
L 30.546154 157.175951 
L 31.196764 157.175951 
L 31.847375 157.175951 
L 32.497985 157.175951 
L 33.148595 157.175951 
L 33.799206 157.175951 
L 34.449816 157.175951 
L 35.100426 157.175951 
L 35.751037 157.175951 
L 36.401647 157.175951 
L 37.052257 157.175951 
L 37.702868 157.175951 
L 38.353478 157.175951 
L 39.004088 157.175951 
L 39.654698 157.175951 
L 40.305309 157.175951 
L 40.955919 157.175951 
L 41.606529 157.175951 
L 42.25714 157.175951 
L 42.90775 157.175951 
L 43.55836 157.175951 
L 44.208971 157.175951 
L 44.859581 157.175951 
L 45.510191 157.175951 
L 46.160802 157.175951 
L 46.811412 157.175951 
L 47.462022 157.175951 
L 48.112633 157.175951 
L 48.763243 157.175951 
L 49.413853 157.175951 
L 50.064463 157.175951 
L 50.715074 157.175951 
L 51.365684 157.175951 
L 52.016294 157.175951 
L 52.666905 157.175951 
L 53.317515 157.175951 
L 53.968125 157.175951 
L 54.618736 157.175951 
L 55.269346 157.175951 
L 55.919956 157.175951 
L 56.570567 157.175951 
L 57.221177 157.175951 
L 57.871787 157.175951 
L 58.522398 157.175951 
L 59.173008 157.175951 
L 59.823618 157.175951 
L 60.474228 157.175951 
L 61.124839 157.175951 
L 61.775449 157.175951 
L 62.426059 157.175951 
L 63.07667 157.175951 
L 63.72728 157.175951 
L 64.37789 157.175951 
L 65.028501 157.175951 
L 65.679111 157.175951 
L 66.329721 157.175951 
L 66.980332 157.175951 
L 67.630942 157.175951 
L 68.281552 157.175951 
L 68.932163 157.175951 
L 69.582773 157.175951 
L 70.233383 157.175951 
L 70.883993 157.175951 
L 71.534604 157.175951 
L 72.185214 157.175951 
L 72.835824 157.175951 
L 73.486435 157.175951 
L 74.137045 157.175951 
L 74.787655 157.175951 
L 75.438266 157.175951 
L 76.088876 157.175951 
L 76.739486 157.175951 
L 77.390097 157.175951 
L 78.040707 157.175951 
L 78.691317 157.175951 
L 79.341927 157.175951 
L 79.992538 157.175951 
L 80.643148 157.175951 
L 81.293758 157.175951 
L 81.944369 157.175951 
L 82.594979 157.175951 
L 83.245589 157.175951 
L 83.8962 157.175951 
L 84.54681 157.175951 
L 85.19742 157.175951 
L 85.848031 157.175951 
L 86.498641 157.175951 
L 87.149251 157.175951 
L 87.799862 157.175951 
L 88.450472 157.175951 
L 89.101082 157.175951 
L 89.751692 157.175951 
L 90.402303 157.175951 
L 91.052913 157.175951 
L 91.703523 157.175951 
L 92.354134 157.175951 
L 93.004744 157.175951 
L 93.655354 157.175951 
L 94.305965 157.175951 
L 94.956575 157.175951 
L 95.607185 157.175951 
L 96.257796 157.175951 
L 96.908406 157.175951 
L 97.559016 157.175951 
L 98.209627 157.175951 
L 98.860237 157.175951 
L 99.510847 157.175951 
L 100.161457 157.175951 
L 100.812068 157.175951 
L 101.462678 157.175951 
L 102.113288 157.175951 
L 102.763899 157.175951 
L 103.414509 157.175951 
L 104.065119 157.175951 
L 104.71573 157.175951 
L 105.36634 157.175951 
L 106.01695 157.175951 
L 106.667561 157.175951 
L 107.318171 157.175951 
L 107.968781 157.175951 
L 108.619392 157.175951 
L 109.270002 157.175951 
L 109.920612 157.175951 
L 110.571222 157.175951 
L 111.221833 157.175951 
L 111.872443 157.175951 
L 112.523053 157.175951 
L 113.173664 157.175951 
L 113.824274 157.175951 
L 114.474884 157.175951 
L 115.125495 157.175951 
L 115.776105 157.175951 
L 116.426715 157.175951 
L 117.077326 157.175951 
L 117.727936 157.175951 
L 118.378546 157.175951 
L 119.029156 157.175951 
L 119.679767 157.175951 
L 120.330377 157.175951 
L 120.980987 157.175951 
L 121.631598 157.175951 
L 122.282208 157.175951 
L 122.932818 157.175951 
L 123.583429 157.175951 
L 124.234039 157.175951 
L 124.884649 157.175951 
L 125.53526 157.175951 
L 126.18587 157.175951 
L 126.83648 157.175951 
L 127.487091 157.175951 
L 128.137701 157.175951 
L 128.788311 157.175951 
L 129.438921 157.175951 
L 130.089532 157.175951 
L 130.740142 157.175951 
L 131.390752 157.175951 
L 132.041363 157.175951 
L 132.691973 157.175951 
L 133.342583 157.175951 
L 133.993194 157.175951 
L 134.643804 157.175951 
L 135.294414 157.175951 
L 135.945025 157.175951 
L 136.595635 157.175951 
L 137.246245 157.175951 
L 137.896856 157.175951 
L 138.547466 157.175951 
L 139.198076 157.175951 
L 139.848686 157.175951 
L 140.499297 157.175951 
L 141.149907 157.175951 
L 141.800517 157.175951 
L 142.451128 157.175951 
L 143.101738 157.175951 
L 143.752348 157.175951 
L 144.402959 157.175951 
L 145.053569 157.175951 
L 145.704179 157.175951 
L 146.35479 157.175951 
L 147.0054 157.175951 
L 147.65601 157.175951 
L 148.306621 157.175951 
L 148.957231 157.175951 
L 149.607841 157.175951 
L 150.258451 157.175951 
L 150.909062 157.175951 
L 151.559672 157.175951 
L 152.210282 157.175951 
L 152.860893 157.175951 
L 153.511503 157.175951 
L 154.162113 157.175951 
L 154.812724 157.175951 
L 155.463334 157.175951 
L 156.113944 157.175951 
L 156.764555 157.175951 
L 157.415165 157.175951 
L 158.065775 157.175951 
L 158.716385 157.175951 
L 159.366996 157.175951 
L 160.017606 157.175951 
L 160.668216 157.175951 
L 161.318827 157.175951 
L 161.969437 157.175951 
L 162.620047 157.175951 
L 163.270658 157.175951 
L 163.921268 157.175951 
L 164.571878 157.175951 
L 165.222489 157.175951 
L 165.873099 157.175951 
L 166.523709 157.175951 
L 167.17432 157.175951 
L 167.82493 157.175951 
L 168.47554 157.175951 
L 169.12615 157.175951 
L 169.776761 157.175951 
L 170.427371 157.175951 
L 171.077981 157.175951 
L 171.728592 157.175951 
L 172.379202 157.175951 
L 173.029812 157.175951 
L 173.680423 157.175951 
L 174.331033 157.175951 
L 174.981643 157.175951 
L 175.632254 157.175951 
L 176.282864 157.175951 
L 176.933474 157.175951 
L 177.584085 157.175951 
L 178.234695 157.175951 
L 178.885305 157.175951 
L 179.535915 157.175951 
L 180.186526 157.175951 
L 180.837136 157.175951 
L 181.487746 157.175951 
L 182.138357 157.175951 
L 182.788967 157.175951 
L 183.439577 157.175951 
L 184.090188 157.175951 
L 184.740798 157.175951 
L 185.391408 157.175951 
L 186.042019 157.175951 
L 186.692629 157.175951 
L 187.343239 157.175951 
L 187.99385 157.175951 
L 188.64446 157.175951 
L 189.29507 157.175951 
L 189.94568 157.175951 
L 190.596291 157.175951 
L 191.246901 157.175951 
L 191.897511 157.175951 
L 192.548122 157.175951 
L 193.198732 157.175951 
L 193.849342 157.175951 
L 194.499953 157.175951 
L 195.150563 157.175951 
L 195.801173 157.175951 
L 196.451784 157.175951 
L 197.102394 157.175951 
L 197.753004 157.175951 
L 198.403615 157.175951 
L 199.054225 157.175951 
L 199.704835 157.175951 
L 200.355445 157.175951 
L 201.006056 157.175951 
L 201.656666 157.175951 
L 202.307276 157.175951 
L 202.957887 157.175951 
L 203.608497 157.175951 
L 204.259107 157.175951 
L 204.909718 157.175951 
L 205.560328 157.175951 
L 206.210938 157.175951 
L 206.861549 157.175951 
L 207.512159 157.175951 
L 208.162769 157.175951 
L 208.813379 157.175951 
L 209.46399 157.175951 
L 210.1146 157.175951 
L 210.76521 157.175951 
L 211.415821 157.175951 
L 212.066431 157.175951 
L 212.717041 157.175951 
L 213.367652 157.175951 
L 214.018262 157.175951 
L 214.668872 157.175951 
L 215.319483 157.175951 
L 215.970093 157.175951 
L 216.620703 157.175951 
L 217.271314 157.175951 
L 217.921924 157.175951 
L 218.572534 157.175951 
L 219.223144 157.175951 
L 219.873755 157.175951 
L 220.524365 157.175951 
L 221.174975 157.175951 
L 221.825586 157.175951 
L 222.476196 157.175951 
L 223.126806 157.175951 
L 223.777417 157.175951 
L 224.428027 157.175951 
L 225.078637 157.175951 
L 225.729248 157.175951 
L 226.379858 157.175951 
L 227.030468 157.175951 
L 227.681079 157.175951 
L 228.331689 157.175951 
L 228.982299 157.175951 
L 229.632909 157.175951 
L 230.28352 157.175951 
L 230.93413 157.175951 
L 231.58474 157.175951 
L 232.235351 157.175951 
L 232.885961 157.175951 
L 233.536571 157.175951 
L 234.187182 157.175951 
L 234.837792 157.175951 
L 235.488402 157.175951 
L 236.139013 157.175951 
L 236.789623 157.175951 
L 237.440233 157.175951 
L 238.090844 157.175951 
L 238.741454 157.175951 
L 239.392064 157.175951 
L 240.042674 157.175951 
L 240.693285 157.175951 
L 241.343895 157.175951 
L 241.994505 157.175951 
L 242.645116 157.175951 
L 243.295726 157.175951 
L 243.946336 157.175951 
L 244.596947 157.175951 
L 245.247557 157.175951 
L 245.898167 157.175951 
L 246.548778 157.175951 
L 247.199388 157.175951 
L 247.849998 157.175951 
L 248.500608 157.175951 
L 249.151219 157.175951 
L 249.801829 157.175951 
L 250.452439 157.175951 
L 251.10305 157.175951 
L 251.75366 157.175951 
L 252.40427 157.175951 
L 253.054881 157.175951 
L 253.705491 157.175951 
L 254.356101 157.175951 
L 255.006712 157.175951 
L 255.657322 157.175951 
L 256.307932 157.175951 
L 256.958543 157.175951 
L 257.609153 157.175951 
L 258.259763 157.175951 
L 258.910373 157.175951 
L 259.560984 157.175951 
L 260.211594 157.175951 
L 260.862204 157.175951 
L 261.512815 157.175951 
L 262.163425 157.175951 
L 262.814035 157.175951 
L 263.464646 157.175951 
L 264.115256 157.175951 
L 264.765866 157.175951 
L 265.416477 157.175951 
L 266.067087 157.175951 
L 266.717697 157.175951 
L 267.368308 157.175951 
L 268.018918 157.175951 
L 268.669528 157.175951 
L 269.320138 157.175951 
L 269.970749 157.175951 
L 270.621359 157.175951 
L 271.271969 157.175951 
L 271.92258 157.175951 
L 272.57319 157.175951 
L 273.2238 157.175951 
L 273.874411 157.175951 
L 274.525021 157.175951 
L 275.175631 157.175951 
L 275.826242 157.175951 
L 276.476852 157.175951 
L 277.127462 157.175951 
L 277.778073 157.175951 
L 278.428683 157.175951 
L 279.079293 157.175951 
L 279.729903 157.175951 
L 280.380514 157.175951 
L 281.031124 157.175951 
L 281.681734 157.175951 
L 282.332345 157.175951 
L 282.982955 157.175951 
L 283.633565 157.175951 
L 284.284176 157.175951 
L 284.934786 157.175951 
L 285.585396 157.175951 
L 286.236007 157.175951 
L 286.886617 157.175951 
L 287.537227 157.175951 
L 288.187837 157.175951 
L 288.838448 157.175951 
L 289.489058 157.175951 
L 290.139668 157.175951 
L 290.790279 157.175951 
L 291.440889 157.175951 
L 292.091499 157.175951 
L 292.74211 157.175951 
L 293.39272 157.175951 
L 294.04333 157.175951 
L 294.693941 157.175951 
L 295.344551 157.175951 
L 295.995161 157.175951 
L 296.645772 157.175951 
L 297.296382 157.175951 
L 297.946992 157.175951 
L 298.597602 157.175951 
L 299.248213 157.175951 
L 299.898823 157.175951 
L 300.549433 157.175951 
L 301.200044 157.175951 
L 301.850654 157.175951 
L 302.501264 157.175951 
L 303.151875 157.175951 
L 303.802485 157.175951 
L 304.453095 157.175951 
L 305.103706 157.175951 
L 305.754316 157.175951 
L 306.404926 157.175951 
L 307.055537 157.175951 
L 307.706147 157.175951 
L 308.356757 157.175951 
L 309.007367 157.175951 
L 309.657978 157.175951 
L 310.308588 157.175951 
L 310.959198 157.175951 
L 311.609809 157.175951 
L 312.260419 157.175951 
L 312.911029 157.175951 
L 313.56164 157.175951 
L 314.21225 157.175951 
L 314.86286 157.175951 
L 315.513471 157.175951 
L 316.164081 157.175951 
L 316.814691 157.175951 
L 317.465302 157.175951 
L 318.115912 157.175951 
L 318.766522 157.175951 
L 319.417132 157.175951 
L 320.067743 157.175951 
L 320.718353 157.175951 
L 321.368963 157.175951 
L 322.019574 157.175951 
L 322.670184 157.175951 
L 323.320794 157.175951 
L 323.971405 157.175951 
L 324.622015 157.175951 
L 325.272625 157.175951 
L 325.923236 157.175951 
L 326.573846 157.175951 
L 327.224456 157.175951 
L 327.875066 157.175951 
L 328.525677 157.175951 
L 329.176287 157.175951 
L 329.826897 157.175951 
L 330.477508 157.175951 
L 331.128118 157.175951 
L 331.778728 157.175951 
L 332.429339 157.175951 
L 333.079949 157.175951 
L 333.730559 157.175951 
L 334.38117 157.175951 
L 335.03178 157.175951 
L 335.68239 157.175951 
L 336.333001 157.175951 
L 336.983611 157.175951 
L 337.634221 157.175951 
L 338.284831 157.175951 
L 338.935442 157.175951 
L 339.586052 157.175951 
L 340.236662 157.175951 
L 340.887273 157.175951 
L 340.887273 157.175949 
L 340.887273 157.175949 
L 340.236662 157.175949 
L 339.586052 157.175949 
L 338.935442 157.175949 
L 338.284831 157.175948 
L 337.634221 157.175948 
L 336.983611 157.175948 
L 336.333001 157.175948 
L 335.68239 157.175948 
L 335.03178 157.175948 
L 334.38117 157.175948 
L 333.730559 157.175948 
L 333.079949 157.175948 
L 332.429339 157.175948 
L 331.778728 157.175948 
L 331.128118 157.175948 
L 330.477508 157.175948 
L 329.826897 157.175948 
L 329.176287 157.175948 
L 328.525677 157.175948 
L 327.875066 157.175948 
L 327.224456 157.175948 
L 326.573846 157.175948 
L 325.923236 157.175948 
L 325.272625 157.175948 
L 324.622015 157.175948 
L 323.971405 157.175948 
L 323.320794 157.175949 
L 322.670184 157.175949 
L 322.019574 157.175949 
L 321.368963 157.175949 
L 320.718353 157.175949 
L 320.067743 157.175949 
L 319.417132 157.175949 
L 318.766522 157.175949 
L 318.115912 157.175949 
L 317.465302 157.175949 
L 316.814691 157.175949 
L 316.164081 157.175949 
L 315.513471 157.175949 
L 314.86286 157.175948 
L 314.21225 157.175948 
L 313.56164 157.175948 
L 312.911029 157.175948 
L 312.260419 157.175947 
L 311.609809 157.175947 
L 310.959198 157.175947 
L 310.308588 157.175946 
L 309.657978 157.175946 
L 309.007367 157.175946 
L 308.356757 157.175946 
L 307.706147 157.175945 
L 307.055537 157.175945 
L 306.404926 157.175945 
L 305.754316 157.175944 
L 305.103706 157.175944 
L 304.453095 157.175943 
L 303.802485 157.175939 
L 303.151875 157.175936 
L 302.501264 157.175932 
L 301.850654 157.175929 
L 301.200044 157.175926 
L 300.549433 157.175922 
L 299.898823 157.175919 
L 299.248213 157.175915 
L 298.597602 157.175912 
L 297.946992 157.175909 
L 297.296382 157.175905 
L 296.645772 157.175902 
L 295.995161 157.175898 
L 295.344551 157.175895 
L 294.693941 157.175891 
L 294.04333 157.175888 
L 293.39272 157.175885 
L 292.74211 157.175881 
L 292.091499 157.175883 
L 291.440889 157.175886 
L 290.790279 157.175889 
L 290.139668 157.175892 
L 289.489058 157.175894 
L 288.838448 157.175897 
L 288.187837 157.1759 
L 287.537227 157.175903 
L 286.886617 157.175905 
L 286.236007 157.175908 
L 285.585396 157.175911 
L 284.934786 157.175914 
L 284.284176 157.175917 
L 283.633565 157.175919 
L 282.982955 157.175922 
L 282.332345 157.175925 
L 281.681734 157.175928 
L 281.031124 157.175931 
L 280.380514 157.175933 
L 279.729903 157.175933 
L 279.079293 157.175934 
L 278.428683 157.175935 
L 277.778073 157.175936 
L 277.127462 157.175937 
L 276.476852 157.175937 
L 275.826242 157.175938 
L 275.175631 157.175939 
L 274.525021 157.17594 
L 273.874411 157.17594 
L 273.2238 157.175941 
L 272.57319 157.175942 
L 271.92258 157.175943 
L 271.271969 157.175943 
L 270.621359 157.175944 
L 269.970749 157.175945 
L 269.320138 157.175946 
L 268.669528 157.175947 
L 268.018918 157.175947 
L 267.368308 157.175947 
L 266.717697 157.175947 
L 266.067087 157.175947 
L 265.416477 157.175947 
L 264.765866 157.175947 
L 264.115256 157.175947 
L 263.464646 157.175947 
L 262.814035 157.175947 
L 262.163425 157.175947 
L 261.512815 157.175947 
L 260.862204 157.175947 
L 260.211594 157.175947 
L 259.560984 157.175947 
L 258.910373 157.175947 
L 258.259763 157.175947 
L 257.609153 157.175947 
L 256.958543 157.175948 
L 256.307932 157.175944 
L 255.657322 157.17593 
L 255.006712 157.175915 
L 254.356101 157.175901 
L 253.705491 157.175886 
L 253.054881 157.175872 
L 252.40427 157.175858 
L 251.75366 157.175843 
L 251.10305 157.175829 
L 250.452439 157.175814 
L 249.801829 157.1758 
L 249.151219 157.175786 
L 248.500608 157.175771 
L 247.849998 157.175757 
L 247.199388 157.175743 
L 246.548778 157.175728 
L 245.898167 157.175714 
L 245.247557 157.175699 
L 244.596947 157.175685 
L 243.946336 157.175679 
L 243.295726 157.175676 
L 242.645116 157.175673 
L 241.994505 157.17567 
L 241.343895 157.175668 
L 240.693285 157.175665 
L 240.042674 157.175662 
L 239.392064 157.175659 
L 238.741454 157.175657 
L 238.090844 157.175654 
L 237.440233 157.175651 
L 236.789623 157.175648 
L 236.139013 157.175645 
L 235.488402 157.175643 
L 234.837792 157.17564 
L 234.187182 157.175637 
L 233.536571 157.175634 
L 232.885961 157.175631 
L 232.235351 157.175632 
L 231.58474 157.175649 
L 230.93413 157.175667 
L 230.28352 157.175684 
L 229.632909 157.175701 
L 228.982299 157.175718 
L 228.331689 157.175736 
L 227.681079 157.175753 
L 227.030468 157.17577 
L 226.379858 157.175788 
L 225.729248 157.175805 
L 225.078637 157.175822 
L 224.428027 157.175839 
L 223.777417 157.175857 
L 223.126806 157.175874 
L 222.476196 157.175891 
L 221.825586 157.175908 
L 221.174975 157.175926 
L 220.524365 157.175943 
L 219.873755 157.175949 
L 219.223144 157.175949 
L 218.572534 157.175949 
L 217.921924 157.175949 
L 217.271314 157.175949 
L 216.620703 157.175949 
L 215.970093 157.17595 
L 215.319483 157.17595 
L 214.668872 157.17595 
L 214.018262 157.17595 
L 213.367652 157.17595 
L 212.717041 157.17595 
L 212.066431 157.17595 
L 211.415821 157.17595 
L 210.76521 157.17595 
L 210.1146 157.17595 
L 209.46399 157.17595 
L 208.813379 157.17595 
L 208.162769 157.17595 
L 207.512159 157.17595 
L 206.861549 157.17595 
L 206.210938 157.17595 
L 205.560328 157.17595 
L 204.909718 157.17595 
L 204.259107 157.17595 
L 203.608497 157.17595 
L 202.957887 157.17595 
L 202.307276 157.17595 
L 201.656666 157.17595 
L 201.006056 157.17595 
L 200.355445 157.17595 
L 199.704835 157.17595 
L 199.054225 157.17595 
L 198.403615 157.17595 
L 197.753004 157.17595 
L 197.102394 157.17595 
L 196.451784 157.175949 
L 195.801173 157.175949 
L 195.150563 157.175949 
L 194.499953 157.175949 
L 193.849342 157.175948 
L 193.198732 157.175948 
L 192.548122 157.175948 
L 191.897511 157.175948 
L 191.246901 157.175947 
L 190.596291 157.175947 
L 189.94568 157.175947 
L 189.29507 157.175946 
L 188.64446 157.175946 
L 187.99385 157.175946 
L 187.343239 157.175946 
L 186.692629 157.175945 
L 186.042019 157.175945 
L 185.391408 157.175945 
L 184.740798 157.175945 
L 184.090188 157.175944 
L 183.439577 157.175944 
L 182.788967 157.175945 
L 182.138357 157.175945 
L 181.487746 157.175945 
L 180.837136 157.175945 
L 180.186526 157.175945 
L 179.535915 157.175946 
L 178.885305 157.175946 
L 178.234695 157.175946 
L 177.584085 157.175946 
L 176.933474 157.175947 
L 176.282864 157.175947 
L 175.632254 157.175947 
L 174.981643 157.175947 
L 174.331033 157.175947 
L 173.680423 157.175948 
L 173.029812 157.175948 
L 172.379202 157.175948 
L 171.728592 157.175948 
L 171.077981 157.175947 
L 170.427371 157.175946 
L 169.776761 157.175945 
L 169.12615 157.175944 
L 168.47554 157.175943 
L 167.82493 157.175942 
L 167.17432 157.175941 
L 166.523709 157.17594 
L 165.873099 157.175939 
L 165.222489 157.175938 
L 164.571878 157.175937 
L 163.921268 157.175936 
L 163.270658 157.175935 
L 162.620047 157.175934 
L 161.969437 157.175933 
L 161.318827 157.175932 
L 160.668216 157.175931 
L 160.017606 157.17593 
L 159.366996 157.175319 
L 158.716385 157.174678 
L 158.065775 157.174038 
L 157.415165 157.173397 
L 156.764555 157.172757 
L 156.113944 157.172116 
L 155.463334 157.171476 
L 154.812724 157.170836 
L 154.162113 157.170195 
L 153.511503 157.169555 
L 152.860893 157.168914 
L 152.210282 157.168274 
L 151.559672 157.167633 
L 150.909062 157.166993 
L 150.258451 157.166352 
L 149.607841 157.165712 
L 148.957231 157.165071 
L 148.306621 157.164431 
L 147.65601 156.078838 
L 147.0054 153.479715 
L 146.35479 150.880592 
L 145.704179 148.281468 
L 145.053569 145.682345 
L 144.402959 143.083222 
L 143.752348 140.484098 
L 143.101738 137.884975 
L 142.451128 135.285852 
L 141.800517 132.686729 
L 141.149907 130.087605 
L 140.499297 127.488482 
L 139.848686 124.889359 
L 139.198076 122.290236 
L 138.547466 119.691112 
L 137.896856 117.091989 
L 137.246245 114.492866 
L 136.595635 111.893742 
L 135.945025 109.294619 
L 135.294414 111.182877 
L 134.643804 113.676516 
L 133.993194 116.170154 
L 133.342583 118.663792 
L 132.691973 121.15743 
L 132.041363 123.651068 
L 131.390752 126.144707 
L 130.740142 128.638345 
L 130.089532 131.131983 
L 129.438921 133.625621 
L 128.788311 136.119259 
L 128.137701 138.612898 
L 127.487091 141.106536 
L 126.83648 143.600174 
L 126.18587 146.093812 
L 125.53526 148.58745 
L 124.884649 151.081089 
L 124.234039 153.574727 
L 123.583429 155.222257 
L 122.932818 155.261452 
L 122.282208 155.300647 
L 121.631598 155.339842 
L 120.980987 155.379036 
L 120.330377 155.418231 
L 119.679767 155.457426 
L 119.029156 155.496621 
L 118.378546 155.535816 
L 117.727936 155.575011 
L 117.077326 155.614206 
L 116.426715 155.653401 
L 115.776105 155.692596 
L 115.125495 155.731791 
L 114.474884 155.770985 
L 113.824274 155.81018 
L 113.173664 155.849375 
L 112.523053 155.88857 
L 111.872443 155.927765 
L 111.221833 155.98938 
L 110.571222 156.056311 
L 109.920612 156.123242 
L 109.270002 156.190173 
L 108.619392 156.257104 
L 107.968781 156.324036 
L 107.318171 156.390967 
L 106.667561 156.457898 
L 106.01695 156.524829 
L 105.36634 156.59176 
L 104.71573 156.658691 
L 104.065119 156.725622 
L 103.414509 156.792554 
L 102.763899 156.859485 
L 102.113288 156.926416 
L 101.462678 156.993347 
L 100.812068 157.060278 
L 100.161457 157.127209 
L 99.510847 157.175937 
L 98.860237 157.175925 
L 98.209627 157.175912 
L 97.559016 157.175899 
L 96.908406 157.175886 
L 96.257796 157.175873 
L 95.607185 157.17586 
L 94.956575 157.175848 
L 94.305965 157.175835 
L 93.655354 157.175822 
L 93.004744 157.175809 
L 92.354134 157.175796 
L 91.703523 157.175784 
L 91.052913 157.175771 
L 90.402303 157.175758 
L 89.751692 157.175745 
L 89.101082 157.175732 
L 88.450472 157.175719 
L 87.799862 157.175707 
L 87.149251 157.175713 
L 86.498641 157.175726 
L 85.848031 157.17574 
L 85.19742 157.175753 
L 84.54681 157.175766 
L 83.8962 157.175779 
L 83.245589 157.175793 
L 82.594979 157.175806 
L 81.944369 157.175819 
L 81.293758 157.175833 
L 80.643148 157.175846 
L 79.992538 157.175859 
L 79.341927 157.175873 
L 78.691317 157.175886 
L 78.040707 157.175899 
L 77.390097 157.175912 
L 76.739486 157.175926 
L 76.088876 157.175939 
L 75.438266 157.17595 
L 74.787655 157.17595 
L 74.137045 157.17595 
L 73.486435 157.17595 
L 72.835824 157.17595 
L 72.185214 157.17595 
L 71.534604 157.17595 
L 70.883993 157.17595 
L 70.233383 157.175949 
L 69.582773 157.175949 
L 68.932163 157.175949 
L 68.281552 157.175949 
L 67.630942 157.175949 
L 66.980332 157.175949 
L 66.329721 157.175949 
L 65.679111 157.175949 
L 65.028501 157.175949 
L 64.37789 157.175949 
L 63.72728 157.175949 
L 63.07667 157.175949 
L 62.426059 157.175949 
L 61.775449 157.17595 
L 61.124839 157.17595 
L 60.474228 157.17595 
L 59.823618 157.17595 
L 59.173008 157.17595 
L 58.522398 157.17595 
L 57.871787 157.17595 
L 57.221177 157.17595 
L 56.570567 157.17595 
L 55.919956 157.17595 
L 55.269346 157.17595 
L 54.618736 157.175951 
L 53.968125 157.175951 
L 53.317515 157.175951 
L 52.666905 157.175951 
L 52.016294 157.175951 
L 51.365684 157.175951 
L 50.715074 157.175951 
L 50.064463 157.175951 
L 49.413853 157.175951 
L 48.763243 157.175951 
L 48.112633 157.175951 
L 47.462022 157.175951 
L 46.811412 157.175951 
L 46.160802 157.175951 
L 45.510191 157.175951 
L 44.859581 157.175951 
L 44.208971 157.175951 
L 43.55836 157.175951 
L 42.90775 157.175951 
L 42.25714 157.175951 
L 41.606529 157.175951 
L 40.955919 157.175951 
L 40.305309 157.175951 
L 39.654698 157.175951 
L 39.004088 157.175951 
L 38.353478 157.175951 
L 37.702868 157.175951 
L 37.052257 157.175951 
L 36.401647 157.175951 
L 35.751037 157.175951 
L 35.100426 157.175951 
L 34.449816 157.175951 
L 33.799206 157.175951 
L 33.148595 157.175951 
L 32.497985 157.175951 
L 31.847375 157.175951 
L 31.196764 157.175951 
L 30.546154 157.175951 
L 29.895544 157.175951 
L 29.244934 157.175951 
L 28.594323 157.175951 
L 27.943713 157.175951 
L 27.293103 157.175951 
L 26.642492 157.175951 
L 25.991882 157.175951 
L 25.341272 157.175951 
L 24.690661 157.175951 
L 24.040051 157.175951 
L 23.389441 157.175951 
L 22.73883 157.175951 
L 22.08822 157.175951 
L 21.43761 157.175951 
L 20.786999 157.175951 
L 20.136389 157.175951 
L 19.485779 157.175951 
L 18.835169 157.175951 
L 18.184558 157.175951 
L 17.533948 157.175951 
L 16.883338 157.175951 
L 16.232727 157.175951 
z
" style="fill:#f6ed22;fill-opacity:0.3;"/>
   </g>
   <g id="PolyCollection_3">
    <path clip-path="url(#p101060674f)" d="M 16.232727 157.141152 
L 16.232727 157.175951 
L 16.883338 157.175951 
L 17.533948 157.175951 
L 18.184558 157.175951 
L 18.835169 157.175951 
L 19.485779 157.175951 
L 20.136389 157.175951 
L 20.786999 157.175951 
L 21.43761 157.175951 
L 22.08822 157.175951 
L 22.73883 157.175951 
L 23.389441 157.175951 
L 24.040051 157.175951 
L 24.690661 157.175951 
L 25.341272 157.175951 
L 25.991882 157.175951 
L 26.642492 157.175951 
L 27.293103 157.175951 
L 27.943713 157.175951 
L 28.594323 157.175951 
L 29.244934 157.175951 
L 29.895544 157.175951 
L 30.546154 157.175951 
L 31.196764 157.175951 
L 31.847375 157.175951 
L 32.497985 157.175951 
L 33.148595 157.175951 
L 33.799206 157.175951 
L 34.449816 157.175951 
L 35.100426 157.175951 
L 35.751037 157.175951 
L 36.401647 157.175951 
L 37.052257 157.175951 
L 37.702868 157.175951 
L 38.353478 157.175951 
L 39.004088 157.175951 
L 39.654698 157.175951 
L 40.305309 157.175951 
L 40.955919 157.175951 
L 41.606529 157.175951 
L 42.25714 157.175951 
L 42.90775 157.175951 
L 43.55836 157.175951 
L 44.208971 157.175951 
L 44.859581 157.175951 
L 45.510191 157.175951 
L 46.160802 157.175951 
L 46.811412 157.175951 
L 47.462022 157.175951 
L 48.112633 157.175951 
L 48.763243 157.175951 
L 49.413853 157.175951 
L 50.064463 157.175951 
L 50.715074 157.175951 
L 51.365684 157.175951 
L 52.016294 157.175951 
L 52.666905 157.175951 
L 53.317515 157.175951 
L 53.968125 157.175951 
L 54.618736 157.175951 
L 55.269346 157.175951 
L 55.919956 157.175951 
L 56.570567 157.175951 
L 57.221177 157.175951 
L 57.871787 157.175951 
L 58.522398 157.175951 
L 59.173008 157.175951 
L 59.823618 157.175951 
L 60.474228 157.175951 
L 61.124839 157.175951 
L 61.775449 157.175951 
L 62.426059 157.175951 
L 63.07667 157.175951 
L 63.72728 157.175951 
L 64.37789 157.175951 
L 65.028501 157.175951 
L 65.679111 157.175951 
L 66.329721 157.175951 
L 66.980332 157.175951 
L 67.630942 157.175951 
L 68.281552 157.175951 
L 68.932163 157.175951 
L 69.582773 157.175951 
L 70.233383 157.175951 
L 70.883993 157.175951 
L 71.534604 157.175951 
L 72.185214 157.175951 
L 72.835824 157.175951 
L 73.486435 157.175951 
L 74.137045 157.175951 
L 74.787655 157.175951 
L 75.438266 157.175951 
L 76.088876 157.175951 
L 76.739486 157.175951 
L 77.390097 157.175951 
L 78.040707 157.175951 
L 78.691317 157.175951 
L 79.341927 157.175951 
L 79.992538 157.175951 
L 80.643148 157.175951 
L 81.293758 157.175951 
L 81.944369 157.175951 
L 82.594979 157.175951 
L 83.245589 157.175951 
L 83.8962 157.175951 
L 84.54681 157.175951 
L 85.19742 157.175951 
L 85.848031 157.175951 
L 86.498641 157.175951 
L 87.149251 157.175951 
L 87.799862 157.175951 
L 88.450472 157.175951 
L 89.101082 157.175951 
L 89.751692 157.175951 
L 90.402303 157.175951 
L 91.052913 157.175951 
L 91.703523 157.175951 
L 92.354134 157.175951 
L 93.004744 157.175951 
L 93.655354 157.175951 
L 94.305965 157.175951 
L 94.956575 157.175951 
L 95.607185 157.175951 
L 96.257796 157.175951 
L 96.908406 157.175951 
L 97.559016 157.175951 
L 98.209627 157.175951 
L 98.860237 157.175951 
L 99.510847 157.175951 
L 100.161457 157.175951 
L 100.812068 157.175951 
L 101.462678 157.175951 
L 102.113288 157.175951 
L 102.763899 157.175951 
L 103.414509 157.175951 
L 104.065119 157.175951 
L 104.71573 157.175951 
L 105.36634 157.175951 
L 106.01695 157.175951 
L 106.667561 157.175951 
L 107.318171 157.175951 
L 107.968781 157.175951 
L 108.619392 157.175951 
L 109.270002 157.175951 
L 109.920612 157.175951 
L 110.571222 157.175951 
L 111.221833 157.175951 
L 111.872443 157.175951 
L 112.523053 157.175951 
L 113.173664 157.175951 
L 113.824274 157.175951 
L 114.474884 157.175951 
L 115.125495 157.175951 
L 115.776105 157.175951 
L 116.426715 157.175951 
L 117.077326 157.175951 
L 117.727936 157.175951 
L 118.378546 157.175951 
L 119.029156 157.175951 
L 119.679767 157.175951 
L 120.330377 157.175951 
L 120.980987 157.175951 
L 121.631598 157.175951 
L 122.282208 157.175951 
L 122.932818 157.175951 
L 123.583429 157.175951 
L 124.234039 157.175951 
L 124.884649 157.175951 
L 125.53526 157.175951 
L 126.18587 157.175951 
L 126.83648 157.175951 
L 127.487091 157.175951 
L 128.137701 157.175951 
L 128.788311 157.175951 
L 129.438921 157.175951 
L 130.089532 157.175951 
L 130.740142 157.175951 
L 131.390752 157.175951 
L 132.041363 157.175951 
L 132.691973 157.175951 
L 133.342583 157.175951 
L 133.993194 157.175951 
L 134.643804 157.175951 
L 135.294414 157.175951 
L 135.945025 157.175951 
L 136.595635 157.175951 
L 137.246245 157.175951 
L 137.896856 157.175951 
L 138.547466 157.175951 
L 139.198076 157.175951 
L 139.848686 157.175951 
L 140.499297 157.175951 
L 141.149907 157.175951 
L 141.800517 157.175951 
L 142.451128 157.175951 
L 143.101738 157.175951 
L 143.752348 157.175951 
L 144.402959 157.175951 
L 145.053569 157.175951 
L 145.704179 157.175951 
L 146.35479 157.175951 
L 147.0054 157.175951 
L 147.65601 157.175951 
L 148.306621 157.175951 
L 148.957231 157.175951 
L 149.607841 157.175951 
L 150.258451 157.175951 
L 150.909062 157.175951 
L 151.559672 157.175951 
L 152.210282 157.175951 
L 152.860893 157.175951 
L 153.511503 157.175951 
L 154.162113 157.175951 
L 154.812724 157.175951 
L 155.463334 157.175951 
L 156.113944 157.175951 
L 156.764555 157.175951 
L 157.415165 157.175951 
L 158.065775 157.175951 
L 158.716385 157.175951 
L 159.366996 157.175951 
L 160.017606 157.175951 
L 160.668216 157.175951 
L 161.318827 157.175951 
L 161.969437 157.175951 
L 162.620047 157.175951 
L 163.270658 157.175951 
L 163.921268 157.175951 
L 164.571878 157.175951 
L 165.222489 157.175951 
L 165.873099 157.175951 
L 166.523709 157.175951 
L 167.17432 157.175951 
L 167.82493 157.175951 
L 168.47554 157.175951 
L 169.12615 157.175951 
L 169.776761 157.175951 
L 170.427371 157.175951 
L 171.077981 157.175951 
L 171.728592 157.175951 
L 172.379202 157.175951 
L 173.029812 157.175951 
L 173.680423 157.175951 
L 174.331033 157.175951 
L 174.981643 157.175951 
L 175.632254 157.175951 
L 176.282864 157.175951 
L 176.933474 157.175951 
L 177.584085 157.175951 
L 178.234695 157.175951 
L 178.885305 157.175951 
L 179.535915 157.175951 
L 180.186526 157.175951 
L 180.837136 157.175951 
L 181.487746 157.175951 
L 182.138357 157.175951 
L 182.788967 157.175951 
L 183.439577 157.175951 
L 184.090188 157.175951 
L 184.740798 157.175951 
L 185.391408 157.175951 
L 186.042019 157.175951 
L 186.692629 157.175951 
L 187.343239 157.175951 
L 187.99385 157.175951 
L 188.64446 157.175951 
L 189.29507 157.175951 
L 189.94568 157.175951 
L 190.596291 157.175951 
L 191.246901 157.175951 
L 191.897511 157.175951 
L 192.548122 157.175951 
L 193.198732 157.175951 
L 193.849342 157.175951 
L 194.499953 157.175951 
L 195.150563 157.175951 
L 195.801173 157.175951 
L 196.451784 157.175951 
L 197.102394 157.175951 
L 197.753004 157.175951 
L 198.403615 157.175951 
L 199.054225 157.175951 
L 199.704835 157.175951 
L 200.355445 157.175951 
L 201.006056 157.175951 
L 201.656666 157.175951 
L 202.307276 157.175951 
L 202.957887 157.175951 
L 203.608497 157.175951 
L 204.259107 157.175951 
L 204.909718 157.175951 
L 205.560328 157.175951 
L 206.210938 157.175951 
L 206.861549 157.175951 
L 207.512159 157.175951 
L 208.162769 157.175951 
L 208.813379 157.175951 
L 209.46399 157.175951 
L 210.1146 157.175951 
L 210.76521 157.175951 
L 211.415821 157.175951 
L 212.066431 157.175951 
L 212.717041 157.175951 
L 213.367652 157.175951 
L 214.018262 157.175951 
L 214.668872 157.175951 
L 215.319483 157.175951 
L 215.970093 157.175951 
L 216.620703 157.175951 
L 217.271314 157.175951 
L 217.921924 157.175951 
L 218.572534 157.175951 
L 219.223144 157.175951 
L 219.873755 157.175951 
L 220.524365 157.175951 
L 221.174975 157.175951 
L 221.825586 157.175951 
L 222.476196 157.175951 
L 223.126806 157.175951 
L 223.777417 157.175951 
L 224.428027 157.175951 
L 225.078637 157.175951 
L 225.729248 157.175951 
L 226.379858 157.175951 
L 227.030468 157.175951 
L 227.681079 157.175951 
L 228.331689 157.175951 
L 228.982299 157.175951 
L 229.632909 157.175951 
L 230.28352 157.175951 
L 230.93413 157.175951 
L 231.58474 157.175951 
L 232.235351 157.175951 
L 232.885961 157.175951 
L 233.536571 157.175951 
L 234.187182 157.175951 
L 234.837792 157.175951 
L 235.488402 157.175951 
L 236.139013 157.175951 
L 236.789623 157.175951 
L 237.440233 157.175951 
L 238.090844 157.175951 
L 238.741454 157.175951 
L 239.392064 157.175951 
L 240.042674 157.175951 
L 240.693285 157.175951 
L 241.343895 157.175951 
L 241.994505 157.175951 
L 242.645116 157.175951 
L 243.295726 157.175951 
L 243.946336 157.175951 
L 244.596947 157.175951 
L 245.247557 157.175951 
L 245.898167 157.175951 
L 246.548778 157.175951 
L 247.199388 157.175951 
L 247.849998 157.175951 
L 248.500608 157.175951 
L 249.151219 157.175951 
L 249.801829 157.175951 
L 250.452439 157.175951 
L 251.10305 157.175951 
L 251.75366 157.175951 
L 252.40427 157.175951 
L 253.054881 157.175951 
L 253.705491 157.175951 
L 254.356101 157.175951 
L 255.006712 157.175951 
L 255.657322 157.175951 
L 256.307932 157.175951 
L 256.958543 157.175951 
L 257.609153 157.175951 
L 258.259763 157.175951 
L 258.910373 157.175951 
L 259.560984 157.175951 
L 260.211594 157.175951 
L 260.862204 157.175951 
L 261.512815 157.175951 
L 262.163425 157.175951 
L 262.814035 157.175951 
L 263.464646 157.175951 
L 264.115256 157.175951 
L 264.765866 157.175951 
L 265.416477 157.175951 
L 266.067087 157.175951 
L 266.717697 157.175951 
L 267.368308 157.175951 
L 268.018918 157.175951 
L 268.669528 157.175951 
L 269.320138 157.175951 
L 269.970749 157.175951 
L 270.621359 157.175951 
L 271.271969 157.175951 
L 271.92258 157.175951 
L 272.57319 157.175951 
L 273.2238 157.175951 
L 273.874411 157.175951 
L 274.525021 157.175951 
L 275.175631 157.175951 
L 275.826242 157.175951 
L 276.476852 157.175951 
L 277.127462 157.175951 
L 277.778073 157.175951 
L 278.428683 157.175951 
L 279.079293 157.175951 
L 279.729903 157.175951 
L 280.380514 157.175951 
L 281.031124 157.175951 
L 281.681734 157.175951 
L 282.332345 157.175951 
L 282.982955 157.175951 
L 283.633565 157.175951 
L 284.284176 157.175951 
L 284.934786 157.175951 
L 285.585396 157.175951 
L 286.236007 157.175951 
L 286.886617 157.175951 
L 287.537227 157.175951 
L 288.187837 157.175951 
L 288.838448 157.175951 
L 289.489058 157.175951 
L 290.139668 157.175951 
L 290.790279 157.175951 
L 291.440889 157.175951 
L 292.091499 157.175951 
L 292.74211 157.175951 
L 293.39272 157.175951 
L 294.04333 157.175951 
L 294.693941 157.175951 
L 295.344551 157.175951 
L 295.995161 157.175951 
L 296.645772 157.175951 
L 297.296382 157.175951 
L 297.946992 157.175951 
L 298.597602 157.175951 
L 299.248213 157.175951 
L 299.898823 157.175951 
L 300.549433 157.175951 
L 301.200044 157.175951 
L 301.850654 157.175951 
L 302.501264 157.175951 
L 303.151875 157.175951 
L 303.802485 157.175951 
L 304.453095 157.175951 
L 305.103706 157.175951 
L 305.754316 157.175951 
L 306.404926 157.175951 
L 307.055537 157.175951 
L 307.706147 157.175951 
L 308.356757 157.175951 
L 309.007367 157.175951 
L 309.657978 157.175951 
L 310.308588 157.175951 
L 310.959198 157.175951 
L 311.609809 157.175951 
L 312.260419 157.175951 
L 312.911029 157.175951 
L 313.56164 157.175951 
L 314.21225 157.175951 
L 314.86286 157.175951 
L 315.513471 157.175951 
L 316.164081 157.175951 
L 316.814691 157.175951 
L 317.465302 157.175951 
L 318.115912 157.175951 
L 318.766522 157.175951 
L 319.417132 157.175951 
L 320.067743 157.175951 
L 320.718353 157.175951 
L 321.368963 157.175951 
L 322.019574 157.175951 
L 322.670184 157.175951 
L 323.320794 157.175951 
L 323.971405 157.175951 
L 324.622015 157.175951 
L 325.272625 157.175951 
L 325.923236 157.175951 
L 326.573846 157.175951 
L 327.224456 157.175951 
L 327.875066 157.175951 
L 328.525677 157.175951 
L 329.176287 157.175951 
L 329.826897 157.175951 
L 330.477508 157.175951 
L 331.128118 157.175951 
L 331.778728 157.175951 
L 332.429339 157.175951 
L 333.079949 157.175951 
L 333.730559 157.175951 
L 334.38117 157.175951 
L 335.03178 157.175951 
L 335.68239 157.175951 
L 336.333001 157.175951 
L 336.983611 157.175951 
L 337.634221 157.175951 
L 338.284831 157.175951 
L 338.935442 157.175951 
L 339.586052 157.175951 
L 340.236662 157.175951 
L 340.887273 157.175951 
L 340.887273 108.936049 
L 340.887273 108.936049 
L 340.236662 108.936049 
L 339.586052 108.936049 
L 338.935442 108.93605 
L 338.284831 108.93605 
L 337.634221 108.93605 
L 336.983611 108.93605 
L 336.333001 108.936051 
L 335.68239 108.936051 
L 335.03178 108.936051 
L 334.38117 108.936052 
L 333.730559 108.936052 
L 333.079949 108.936052 
L 332.429339 108.936053 
L 331.778728 108.936053 
L 331.128118 108.936053 
L 330.477508 108.936054 
L 329.826897 108.936054 
L 329.176287 108.936054 
L 328.525677 108.936054 
L 327.875066 108.936054 
L 327.224456 108.936054 
L 326.573846 108.936053 
L 325.923236 108.936053 
L 325.272625 108.936053 
L 324.622015 108.936052 
L 323.971405 108.936052 
L 323.320794 108.936052 
L 322.670184 108.936051 
L 322.019574 108.936051 
L 321.368963 108.936051 
L 320.718353 108.936051 
L 320.067743 108.93605 
L 319.417132 108.93605 
L 318.766522 108.93605 
L 318.115912 108.936049 
L 317.465302 108.936049 
L 316.814691 108.936049 
L 316.164081 108.936049 
L 315.513471 108.936049 
L 314.86286 108.93605 
L 314.21225 108.93605 
L 313.56164 108.93605 
L 312.911029 108.93605 
L 312.260419 108.936051 
L 311.609809 108.936051 
L 310.959198 108.936051 
L 310.308588 108.936052 
L 309.657978 108.936052 
L 309.007367 108.936052 
L 308.356757 108.936053 
L 307.706147 108.936053 
L 307.055537 108.936053 
L 306.404926 108.936054 
L 305.754316 108.936054 
L 305.103706 108.936054 
L 304.453095 108.936056 
L 303.802485 108.93606 
L 303.151875 108.936063 
L 302.501264 108.936067 
L 301.850654 108.936071 
L 301.200044 108.936074 
L 300.549433 108.936078 
L 299.898823 108.936082 
L 299.248213 108.936086 
L 298.597602 108.936089 
L 297.946992 108.936093 
L 297.296382 108.936097 
L 296.645772 108.936101 
L 295.995161 108.936104 
L 295.344551 108.936108 
L 294.693941 108.936112 
L 294.04333 108.936115 
L 293.39272 108.936119 
L 292.74211 108.936123 
L 292.091499 108.936121 
L 291.440889 108.936118 
L 290.790279 108.936115 
L 290.139668 108.936111 
L 289.489058 108.936108 
L 288.838448 108.936105 
L 288.187837 108.936102 
L 287.537227 108.936099 
L 286.886617 108.936096 
L 286.236007 108.936093 
L 285.585396 108.93609 
L 284.934786 108.936087 
L 284.284176 108.936084 
L 283.633565 108.93608 
L 282.982955 108.936077 
L 282.332345 108.936074 
L 281.681734 108.936071 
L 281.031124 108.936068 
L 280.380514 108.936066 
L 279.729903 108.936065 
L 279.079293 108.936065 
L 278.428683 108.936065 
L 277.778073 108.936065 
L 277.127462 108.936064 
L 276.476852 108.936064 
L 275.826242 108.936064 
L 275.175631 108.936063 
L 274.525021 108.936063 
L 273.874411 108.936063 
L 273.2238 108.936062 
L 272.57319 108.936062 
L 271.92258 108.936062 
L 271.271969 108.936061 
L 270.621359 108.936061 
L 269.970749 108.936061 
L 269.320138 108.936061 
L 268.669528 108.93606 
L 268.018918 108.93606 
L 267.368308 108.93606 
L 266.717697 108.93606 
L 266.067087 108.93606 
L 265.416477 108.93606 
L 264.765866 108.93606 
L 264.115256 108.93606 
L 263.464646 108.93606 
L 262.814035 108.93606 
L 262.163425 108.93606 
L 261.512815 108.93606 
L 260.862204 108.93606 
L 260.211594 108.93606 
L 259.560984 108.93606 
L 258.910373 108.93606 
L 258.259763 108.93606 
L 257.609153 108.93606 
L 256.958543 108.93606 
L 256.307932 108.936064 
L 255.657322 108.93608 
L 255.006712 108.936096 
L 254.356101 108.936112 
L 253.705491 108.936129 
L 253.054881 108.936145 
L 252.40427 108.936161 
L 251.75366 108.936177 
L 251.10305 108.936193 
L 250.452439 108.936209 
L 249.801829 108.936225 
L 249.151219 108.936242 
L 248.500608 108.936258 
L 247.849998 108.936274 
L 247.199388 108.93629 
L 246.548778 108.936306 
L 245.898167 108.936322 
L 245.247557 108.936338 
L 244.596947 108.936354 
L 243.946336 108.936365 
L 243.295726 108.936374 
L 242.645116 108.936383 
L 241.994505 108.936391 
L 241.343895 108.9364 
L 240.693285 108.936409 
L 240.042674 108.936417 
L 239.392064 108.936426 
L 238.741454 108.936435 
L 238.090844 108.936443 
L 237.440233 108.936452 
L 236.789623 108.936461 
L 236.139013 108.93647 
L 235.488402 108.936478 
L 234.837792 108.936487 
L 234.187182 108.936496 
L 233.536571 108.936504 
L 232.885961 108.936513 
L 232.235351 108.936516 
L 231.58474 108.93649 
L 230.93413 108.936465 
L 230.28352 108.936439 
L 229.632909 108.936414 
L 228.982299 108.936389 
L 228.331689 108.936363 
L 227.681079 108.936338 
L 227.030468 108.936312 
L 226.379858 108.936287 
L 225.729248 108.936261 
L 225.078637 108.936236 
L 224.428027 108.936211 
L 223.777417 108.936185 
L 223.126806 108.93616 
L 222.476196 108.936134 
L 221.825586 108.936109 
L 221.174975 108.936083 
L 220.524365 108.936058 
L 219.873755 108.936049 
L 219.223144 108.936049 
L 218.572534 108.936049 
L 217.921924 108.936049 
L 217.271314 108.936049 
L 216.620703 108.936049 
L 215.970093 108.936049 
L 215.319483 108.936049 
L 214.668872 108.936049 
L 214.018262 108.936049 
L 213.367652 108.936049 
L 212.717041 108.936049 
L 212.066431 108.936049 
L 211.415821 108.936049 
L 210.76521 108.936049 
L 210.1146 108.936049 
L 209.46399 108.936049 
L 208.813379 108.936049 
L 208.162769 108.936049 
L 207.512159 108.936049 
L 206.861549 108.936049 
L 206.210938 108.936049 
L 205.560328 108.936049 
L 204.909718 108.936049 
L 204.259107 108.936049 
L 203.608497 108.936049 
L 202.957887 108.936049 
L 202.307276 108.936049 
L 201.656666 108.936049 
L 201.006056 108.936049 
L 200.355445 108.936049 
L 199.704835 108.936049 
L 199.054225 108.936049 
L 198.403615 108.936049 
L 197.753004 108.936049 
L 197.102394 108.936049 
L 196.451784 108.936049 
L 195.801173 108.936049 
L 195.150563 108.936049 
L 194.499953 108.936049 
L 193.849342 108.93605 
L 193.198732 108.93605 
L 192.548122 108.93605 
L 191.897511 108.936051 
L 191.246901 108.936051 
L 190.596291 108.936051 
L 189.94568 108.936052 
L 189.29507 108.936052 
L 188.64446 108.936052 
L 187.99385 108.936053 
L 187.343239 108.936053 
L 186.692629 108.936053 
L 186.042019 108.936053 
L 185.391408 108.936054 
L 184.740798 108.936054 
L 184.090188 108.936054 
L 183.439577 108.936054 
L 182.788967 108.936054 
L 182.138357 108.936054 
L 181.487746 108.936054 
L 180.837136 108.936054 
L 180.186526 108.936054 
L 179.535915 108.936054 
L 178.885305 108.936054 
L 178.234695 108.936054 
L 177.584085 108.936054 
L 176.933474 108.936054 
L 176.282864 108.936054 
L 175.632254 108.936054 
L 174.981643 108.936054 
L 174.331033 108.936054 
L 173.680423 108.936054 
L 173.029812 108.936054 
L 172.379202 108.936054 
L 171.728592 108.936055 
L 171.077981 108.936056 
L 170.427371 108.936057 
L 169.776761 108.936058 
L 169.12615 108.936059 
L 168.47554 108.936059 
L 167.82493 108.93606 
L 167.17432 108.936061 
L 166.523709 108.936062 
L 165.873099 108.936063 
L 165.222489 108.936064 
L 164.571878 108.936065 
L 163.921268 108.936066 
L 163.270658 108.936067 
L 162.620047 108.936068 
L 161.969437 108.936069 
L 161.318827 108.93607 
L 160.668216 108.936071 
L 160.017606 108.936072 
L 159.366996 108.936825 
L 158.716385 108.937614 
L 158.065775 108.938403 
L 157.415165 108.939192 
L 156.764555 108.939981 
L 156.113944 108.940771 
L 155.463334 108.94156 
L 154.812724 108.942349 
L 154.162113 108.943138 
L 153.511503 108.943928 
L 152.860893 108.944717 
L 152.210282 108.945506 
L 151.559672 108.946295 
L 150.909062 108.947085 
L 150.258451 108.947874 
L 149.607841 108.948663 
L 148.957231 108.949452 
L 148.306621 108.950242 
L 147.65601 110.036148 
L 147.0054 112.635813 
L 146.35479 115.235477 
L 145.704179 117.835142 
L 145.053569 120.434807 
L 144.402959 123.034472 
L 143.752348 125.634137 
L 143.101738 128.233802 
L 142.451128 130.833467 
L 141.800517 133.433132 
L 141.149907 136.032797 
L 140.499297 138.632462 
L 139.848686 141.232127 
L 139.198076 143.831792 
L 138.547466 146.431457 
L 137.896856 149.031122 
L 137.246245 151.630787 
L 136.595635 154.230452 
L 135.945025 156.830117 
L 135.294414 157.019666 
L 134.643804 156.884072 
L 133.993194 156.748479 
L 133.342583 156.612886 
L 132.691973 156.477292 
L 132.041363 156.341699 
L 131.390752 156.206106 
L 130.740142 156.070513 
L 130.089532 155.934919 
L 129.438921 155.799326 
L 128.788311 155.663733 
L 128.137701 155.52814 
L 127.487091 155.392546 
L 126.83648 155.256953 
L 126.18587 155.12136 
L 125.53526 154.985766 
L 124.884649 154.850173 
L 124.234039 154.71458 
L 123.583429 154.618048 
L 122.932818 154.595765 
L 122.282208 154.573482 
L 121.631598 154.5512 
L 120.980987 154.528917 
L 120.330377 154.506635 
L 119.679767 154.484352 
L 119.029156 154.462069 
L 118.378546 154.439787 
L 117.727936 154.417504 
L 117.077326 154.395222 
L 116.426715 154.372939 
L 115.776105 154.350656 
L 115.125495 154.328374 
L 114.474884 154.306091 
L 113.824274 154.283808 
L 113.173664 154.261526 
L 112.523053 154.239243 
L 111.872443 154.216961 
L 111.221833 153.188154 
L 110.571222 151.920667 
L 109.920612 150.653179 
L 109.270002 149.385692 
L 108.619392 148.118205 
L 107.968781 146.850718 
L 107.318171 145.583231 
L 106.667561 144.315743 
L 106.01695 143.048256 
L 105.36634 141.780769 
L 104.71573 140.513282 
L 104.065119 139.245795 
L 103.414509 137.978307 
L 102.763899 136.71082 
L 102.113288 135.443333 
L 101.462678 134.175846 
L 100.812068 132.908359 
L 100.161457 131.640871 
L 99.510847 130.903174 
L 98.860237 131.584039 
L 98.209627 132.264904 
L 97.559016 132.945769 
L 96.908406 133.626634 
L 96.257796 134.307499 
L 95.607185 134.988364 
L 94.956575 135.669229 
L 94.305965 136.350094 
L 93.655354 137.030959 
L 93.004744 137.711824 
L 92.354134 138.392689 
L 91.703523 139.073554 
L 91.052913 139.754419 
L 90.402303 140.435284 
L 89.751692 141.116149 
L 89.101082 141.797014 
L 88.450472 142.477879 
L 87.799862 143.158744 
L 87.149251 143.789935 
L 86.498641 144.403264 
L 85.848031 145.016593 
L 85.19742 145.629923 
L 84.54681 146.243252 
L 83.8962 146.856581 
L 83.245589 147.469911 
L 82.594979 148.08324 
L 81.944369 148.696569 
L 81.293758 149.309898 
L 80.643148 149.923228 
L 79.992538 150.536557 
L 79.341927 151.149886 
L 78.691317 151.763215 
L 78.040707 152.376545 
L 77.390097 152.989874 
L 76.739486 153.603203 
L 76.088876 154.216533 
L 75.438266 154.320586 
L 74.787655 152.376134 
L 74.137045 150.431681 
L 73.486435 148.487228 
L 72.835824 146.542776 
L 72.185214 144.598323 
L 71.534604 142.65387 
L 70.883993 140.709418 
L 70.233383 138.764965 
L 69.582773 136.820513 
L 68.932163 134.87606 
L 68.281552 132.931607 
L 67.630942 130.987155 
L 66.980332 129.042702 
L 66.329721 127.09825 
L 65.679111 125.153797 
L 65.028501 123.209344 
L 64.37789 121.264892 
L 63.72728 119.320439 
L 63.07667 120.033588 
L 62.426059 122.099371 
L 61.775449 124.165154 
L 61.124839 126.230938 
L 60.474228 128.296721 
L 59.823618 130.362504 
L 59.173008 132.428287 
L 58.522398 134.494071 
L 57.871787 136.559854 
L 57.221177 138.625637 
L 56.570567 140.691421 
L 55.919956 142.757204 
L 55.269346 144.822987 
L 54.618736 146.88877 
L 53.968125 148.954554 
L 53.317515 151.020337 
L 52.666905 153.08612 
L 52.016294 155.151903 
L 51.365684 156.958267 
L 50.715074 156.970059 
L 50.064463 156.981851 
L 49.413853 156.993643 
L 48.763243 157.005435 
L 48.112633 157.017227 
L 47.462022 157.029019 
L 46.811412 157.040811 
L 46.160802 157.052603 
L 45.510191 157.064395 
L 44.859581 157.076187 
L 44.208971 157.087978 
L 43.55836 157.09977 
L 42.90775 157.111562 
L 42.25714 157.123354 
L 41.606529 157.135146 
L 40.955919 157.146938 
L 40.305309 157.15873 
L 39.654698 157.170522 
L 39.004088 157.175374 
L 38.353478 157.175402 
L 37.702868 157.175429 
L 37.052257 157.175456 
L 36.401647 157.175484 
L 35.751037 157.175511 
L 35.100426 157.175539 
L 34.449816 157.175566 
L 33.799206 157.175594 
L 33.148595 157.175621 
L 32.497985 157.175649 
L 31.847375 157.175676 
L 31.196764 157.175704 
L 30.546154 157.175731 
L 29.895544 157.175759 
L 29.244934 157.175786 
L 28.594323 157.175814 
L 27.943713 157.175841 
L 27.293103 157.175758 
L 26.642492 157.173722 
L 25.991882 157.171687 
L 25.341272 157.169651 
L 24.690661 157.167616 
L 24.040051 157.16558 
L 23.389441 157.163544 
L 22.73883 157.161509 
L 22.08822 157.159473 
L 21.43761 157.157437 
L 20.786999 157.155402 
L 20.136389 157.153366 
L 19.485779 157.15133 
L 18.835169 157.149295 
L 18.184558 157.147259 
L 17.533948 157.145223 
L 16.883338 157.143188 
L 16.232727 157.141152 
z
" style="fill:#f15a24;fill-opacity:0.3;"/>
   </g>
   <g id="PathCollection_1">
    <defs>
     <path d="M 0 1.581139 
C 0.419323 1.581139 0.821528 1.41454 1.118034 1.118034 
C 1.41454 0.821528 1.581139 0.419323 1.581139 -0 
C 1.581139 -0.419323 1.41454 -0.821528 1.118034 -1.118034 
C 0.821528 -1.41454 0.419323 -1.581139 0 -1.581139 
C -0.419323 -1.581139 -0.821528 -1.41454 -1.118034 -1.118034 
C -1.41454 -0.821528 -1.581139 -0.419323 -1.581139 0 
C -1.581139 0.419323 -1.41454 0.821528 -1.118034 1.118034 
C -0.821528 1.41454 -0.419323 1.581139 0 1.581139 
z
" id="C0_0_dbbc7d198d"/>
    </defs>
    <g clip-path="url(#p101060674f)">
     <use style="fill:#008000;stroke:#008000;stroke-width:0.5;" x="16.232727" xlink:href="#C0_0_dbbc7d198d" y="108.970849"/>
    </g>
    <g clip-path="url(#p101060674f)">
     <use style="fill:#008000;stroke:#008000;stroke-width:0.5;" x="27.327905" xlink:href="#C0_0_dbbc7d198d" y="108.936135"/>
    </g>
    <g clip-path="url(#p101060674f)">
     <use style="fill:#008000;stroke:#008000;stroke-width:0.5;" x="39.387881" xlink:href="#C0_0_dbbc7d198d" y="108.936641"/>
    </g>
    <g clip-path="url(#p101060674f)">
     <use style="fill:#008000;stroke:#008000;stroke-width:0.5;" x="51.447856" xlink:href="#C0_0_dbbc7d198d" y="109.155223"/>
    </g>
    <g clip-path="url(#p101060674f)">
     <use style="fill:#ff0000;stroke:#ff0000;stroke-width:0.5;" x="63.507832" xlink:href="#C0_0_dbbc7d198d" y="118.664584"/>
    </g>
    <g clip-path="url(#p101060674f)">
     <use style="fill:#008000;stroke:#008000;stroke-width:0.5;" x="75.567808" xlink:href="#C0_0_dbbc7d198d" y="111.404257"/>
    </g>
    <g clip-path="url(#p101060674f)">
     <use style="fill:#008000;stroke:#008000;stroke-width:0.5;" x="87.627783" xlink:href="#C0_0_dbbc7d198d" y="122.773422"/>
    </g>
    <g clip-path="url(#p101060674f)">
     <use style="fill:#ff0000;stroke:#ff0000;stroke-width:0.5;" x="99.687759" xlink:href="#C0_0_dbbc7d198d" y="130.718035"/>
    </g>
    <g clip-path="url(#p101060674f)">
     <use style="fill:#008000;stroke:#008000;stroke-width:0.5;" x="111.747735" xlink:href="#C0_0_dbbc7d198d" y="113.139983"/>
    </g>
    <g clip-path="url(#p101060674f)">
     <use style="fill:#008000;stroke:#008000;stroke-width:0.5;" x="123.80771" xlink:href="#C0_0_dbbc7d198d" y="113.453476"/>
    </g>
    <g clip-path="url(#p101060674f)">
     <use style="fill:#ffff00;stroke:#ffff00;stroke-width:0.5;" x="135.867686" xlink:href="#C0_0_dbbc7d198d" y="108.985659"/>
    </g>
    <g clip-path="url(#p101060674f)">
     <use style="fill:#ff0000;stroke:#ff0000;stroke-width:0.5;" x="147.927662" xlink:href="#C0_0_dbbc7d198d" y="108.950701"/>
    </g>
    <g clip-path="url(#p101060674f)">
     <use style="fill:#ff0000;stroke:#ff0000;stroke-width:0.5;" x="159.987637" xlink:href="#C0_0_dbbc7d198d" y="108.936072"/>
    </g>
    <g clip-path="url(#p101060674f)">
     <use style="fill:#ff0000;stroke:#ff0000;stroke-width:0.5;" x="172.047613" xlink:href="#C0_0_dbbc7d198d" y="108.936054"/>
    </g>
    <g clip-path="url(#p101060674f)">
     <use style="fill:#ff0000;stroke:#ff0000;stroke-width:0.5;" x="184.107589" xlink:href="#C0_0_dbbc7d198d" y="108.936054"/>
    </g>
    <g clip-path="url(#p101060674f)">
     <use style="fill:#ff0000;stroke:#ff0000;stroke-width:0.5;" x="196.167565" xlink:href="#C0_0_dbbc7d198d" y="108.936049"/>
    </g>
    <g clip-path="url(#p101060674f)">
     <use style="fill:#ff0000;stroke:#ff0000;stroke-width:0.5;" x="208.22754" xlink:href="#C0_0_dbbc7d198d" y="108.936049"/>
    </g>
    <g clip-path="url(#p101060674f)">
     <use style="fill:#ff0000;stroke:#ff0000;stroke-width:0.5;" x="220.287516" xlink:href="#C0_0_dbbc7d198d" y="108.936049"/>
    </g>
    <g clip-path="url(#p101060674f)">
     <use style="fill:#ff0000;stroke:#ff0000;stroke-width:0.5;" x="232.347492" xlink:href="#C0_0_dbbc7d198d" y="108.93652"/>
    </g>
    <g clip-path="url(#p101060674f)">
     <use style="fill:#ff0000;stroke:#ff0000;stroke-width:0.5;" x="244.407467" xlink:href="#C0_0_dbbc7d198d" y="108.936359"/>
    </g>
    <g clip-path="url(#p101060674f)">
     <use style="fill:#ff0000;stroke:#ff0000;stroke-width:0.5;" x="256.467443" xlink:href="#C0_0_dbbc7d198d" y="108.93606"/>
    </g>
    <g clip-path="url(#p101060674f)">
     <use style="fill:#ff0000;stroke:#ff0000;stroke-width:0.5;" x="268.527419" xlink:href="#C0_0_dbbc7d198d" y="108.93606"/>
    </g>
    <g clip-path="url(#p101060674f)">
     <use style="fill:#ff0000;stroke:#ff0000;stroke-width:0.5;" x="280.587394" xlink:href="#C0_0_dbbc7d198d" y="108.936066"/>
    </g>
    <g clip-path="url(#p101060674f)">
     <use style="fill:#ff0000;stroke:#ff0000;stroke-width:0.5;" x="292.64737" xlink:href="#C0_0_dbbc7d198d" y="108.936123"/>
    </g>
    <g clip-path="url(#p101060674f)">
     <use style="fill:#ff0000;stroke:#ff0000;stroke-width:0.5;" x="304.707346" xlink:href="#C0_0_dbbc7d198d" y="108.936054"/>
    </g>
    <g clip-path="url(#p101060674f)">
     <use style="fill:#ff0000;stroke:#ff0000;stroke-width:0.5;" x="316.767321" xlink:href="#C0_0_dbbc7d198d" y="108.936049"/>
    </g>
    <g clip-path="url(#p101060674f)">
     <use style="fill:#ff0000;stroke:#ff0000;stroke-width:0.5;" x="328.827297" xlink:href="#C0_0_dbbc7d198d" y="108.936054"/>
    </g>
    <g clip-path="url(#p101060674f)">
     <use style="fill:#ff0000;stroke:#ff0000;stroke-width:0.5;" x="340.887273" xlink:href="#C0_0_dbbc7d198d" y="108.936049"/>
    </g>
   </g>
   <g id="line2d_1">
    <path clip-path="url(#p101060674f)" d="M 16.232727 108.970849 
L 42.25714 108.988645 
L 51.365684 109.153734 
L 52.666905 113.025881 
L 63.07667 146.078413 
L 63.72728 146.791562 
L 75.438266 111.791415 
L 76.088876 111.895478 
L 88.450472 123.634351 
L 99.510847 135.208837 
L 100.161457 134.519867 
L 111.221833 114.110417 
L 111.872443 113.143224 
L 123.583429 113.447646 
L 124.234039 114.998644 
L 135.945025 157.163214 
L 284.284176 157.175948 
L 340.887273 157.17595 
L 340.887273 157.17595 
" style="fill:none;stroke:#61c46e;stroke-linecap:square;"/>
   </g>
   <g id="line2d_2">
    <path clip-path="url(#p101060674f)" d="M 16.232727 157.175951 
L 100.161457 157.127209 
L 113.824274 155.81018 
L 123.583429 155.222257 
L 124.234039 153.574727 
L 135.294414 111.182877 
L 135.945025 109.294619 
L 147.65601 156.078838 
L 148.306621 157.164431 
L 272.57319 157.175942 
L 340.887273 157.175949 
L 340.887273 157.175949 
" style="fill:none;stroke:#f6ed22;stroke-linecap:square;"/>
   </g>
   <g id="line2d_3">
    <path clip-path="url(#p101060674f)" d="M 16.232727 157.141152 
L 42.25714 157.123354 
L 51.365684 156.958267 
L 52.666905 153.08612 
L 63.07667 120.033588 
L 63.72728 119.320439 
L 75.438266 154.320586 
L 76.088876 154.216533 
L 88.450472 142.477879 
L 99.510847 130.903174 
L 100.161457 131.640871 
L 111.872443 154.216961 
L 124.234039 154.71458 
L 135.294414 157.019666 
L 135.945025 156.830117 
L 147.65601 110.036148 
L 148.306621 108.950242 
L 251.10305 108.936193 
L 340.887273 108.936049 
L 340.887273 108.936049 
" style="fill:none;stroke:#f15a24;stroke-linecap:square;"/>
   </g>
  </g>
 </g>
 <defs>
  <clipPath id="p101060674f">
   <rect height="266.112" width="357.12" x="0" y="-0"/>
  </clipPath>
 </defs>
</svg>
