<?xml version="1.0" encoding="utf-8" standalone="no"?>
<!DOCTYPE svg PUBLIC "-//W3C//DTD SVG 1.1//EN"
  "http://www.w3.org/Graphics/SVG/1.1/DTD/svg11.dtd">
<svg height="266.112pt" version="1.1" viewBox="0 0 357.12 266.112" width="357.12pt" xmlns="http://www.w3.org/2000/svg" xmlns:xlink="http://www.w3.org/1999/xlink">
 <metadata>
  <rdf:RDF xmlns:cc="http://creativecommons.org/ns#" xmlns:dc="http://purl.org/dc/elements/1.1/" xmlns:rdf="http://www.w3.org/1999/02/22-rdf-syntax-ns#">
   <cc:Work>
    <dc:type rdf:resource="http://purl.org/dc/dcmitype/StillImage"/>
    <dc:date>2022-07-08T00:27:26.658417</dc:date>
    <dc:format>image/svg+xml</dc:format>
    <dc:creator>
     <cc:Agent>
      <dc:title>Matplotlib v3.4.2, https://matplotlib.org/</dc:title>
     </cc:Agent>
    </dc:creator>
   </cc:Work>
  </rdf:RDF>
 </metadata>
 <defs>
  <style type="text/css">*{stroke-linecap:butt;stroke-linejoin:round;}</style>
 </defs>
 <g id="figure_1">
  <g id="patch_1">
   <path d="M 0 266.112 
L 357.12 266.112 
L 357.12 0 
L 0 0 
z
" style="fill:#ffffff;"/>
  </g>
  <g id="axes_1">
   <g id="PolyCollection_1">
    <path clip-path="url(#pf11ea94033)" d="M 16.232727 152.779841 
L 16.232727 152.779848 
L 16.883338 152.779848 
L 17.533948 152.779848 
L 18.184558 152.779848 
L 18.835169 152.779848 
L 19.485779 152.779848 
L 20.136389 152.779848 
L 20.786999 152.779848 
L 21.43761 152.779848 
L 22.08822 152.779848 
L 22.73883 152.779848 
L 23.389441 152.779848 
L 24.040051 152.779848 
L 24.690661 152.779848 
L 25.341272 152.779848 
L 25.991882 152.779848 
L 26.642492 152.779848 
L 27.293103 152.779848 
L 27.943713 152.779848 
L 28.594323 152.779848 
L 29.244934 152.779848 
L 29.895544 152.779848 
L 30.546154 152.779848 
L 31.196764 152.779848 
L 31.847375 152.779848 
L 32.497985 152.779848 
L 33.148595 152.779848 
L 33.799206 152.779848 
L 34.449816 152.779848 
L 35.100426 152.779848 
L 35.751037 152.779848 
L 36.401647 152.779848 
L 37.052257 152.779848 
L 37.702868 152.779848 
L 38.353478 152.779848 
L 39.004088 152.779848 
L 39.654698 152.779848 
L 40.305309 152.779848 
L 40.955919 152.779848 
L 41.606529 152.779848 
L 42.25714 152.779848 
L 42.90775 152.779848 
L 43.55836 152.779848 
L 44.208971 152.779848 
L 44.859581 152.779848 
L 45.510191 152.779848 
L 46.160802 152.779848 
L 46.811412 152.779848 
L 47.462022 152.779848 
L 48.112633 152.779848 
L 48.763243 152.779848 
L 49.413853 152.779848 
L 50.064463 152.779848 
L 50.715074 152.779848 
L 51.365684 152.779848 
L 52.016294 152.779848 
L 52.666905 152.779848 
L 53.317515 152.779848 
L 53.968125 152.779848 
L 54.618736 152.779848 
L 55.269346 152.779848 
L 55.919956 152.779848 
L 56.570567 152.779848 
L 57.221177 152.779848 
L 57.871787 152.779848 
L 58.522398 152.779848 
L 59.173008 152.779848 
L 59.823618 152.779848 
L 60.474228 152.779848 
L 61.124839 152.779848 
L 61.775449 152.779848 
L 62.426059 152.779848 
L 63.07667 152.779848 
L 63.72728 152.779848 
L 64.37789 152.779848 
L 65.028501 152.779848 
L 65.679111 152.779848 
L 66.329721 152.779848 
L 66.980332 152.779848 
L 67.630942 152.779848 
L 68.281552 152.779848 
L 68.932163 152.779848 
L 69.582773 152.779848 
L 70.233383 152.779848 
L 70.883993 152.779848 
L 71.534604 152.779848 
L 72.185214 152.779848 
L 72.835824 152.779848 
L 73.486435 152.779848 
L 74.137045 152.779848 
L 74.787655 152.779848 
L 75.438266 152.779848 
L 76.088876 152.779848 
L 76.739486 152.779848 
L 77.390097 152.779848 
L 78.040707 152.779848 
L 78.691317 152.779848 
L 79.341927 152.779848 
L 79.992538 152.779848 
L 80.643148 152.779848 
L 81.293758 152.779848 
L 81.944369 152.779848 
L 82.594979 152.779848 
L 83.245589 152.779848 
L 83.8962 152.779848 
L 84.54681 152.779848 
L 85.19742 152.779848 
L 85.848031 152.779848 
L 86.498641 152.779848 
L 87.149251 152.779848 
L 87.799862 152.779848 
L 88.450472 152.779848 
L 89.101082 152.779848 
L 89.751692 152.779848 
L 90.402303 152.779848 
L 91.052913 152.779848 
L 91.703523 152.779848 
L 92.354134 152.779848 
L 93.004744 152.779848 
L 93.655354 152.779848 
L 94.305965 152.779848 
L 94.956575 152.779848 
L 95.607185 152.779848 
L 96.257796 152.779848 
L 96.908406 152.779848 
L 97.559016 152.779848 
L 98.209627 152.779848 
L 98.860237 152.779848 
L 99.510847 152.779848 
L 100.161457 152.779848 
L 100.812068 152.779848 
L 101.462678 152.779848 
L 102.113288 152.779848 
L 102.763899 152.779848 
L 103.414509 152.779848 
L 104.065119 152.779848 
L 104.71573 152.779848 
L 105.36634 152.779848 
L 106.01695 152.779848 
L 106.667561 152.779848 
L 107.318171 152.779848 
L 107.968781 152.779848 
L 108.619392 152.779848 
L 109.270002 152.779848 
L 109.920612 152.779848 
L 110.571222 152.779848 
L 111.221833 152.779848 
L 111.872443 152.779848 
L 112.523053 152.779848 
L 113.173664 152.779848 
L 113.824274 152.779848 
L 114.474884 152.779848 
L 115.125495 152.779848 
L 115.776105 152.779848 
L 116.426715 152.779848 
L 117.077326 152.779848 
L 117.727936 152.779848 
L 118.378546 152.779848 
L 119.029156 152.779848 
L 119.679767 152.779848 
L 120.330377 152.779848 
L 120.980987 152.779848 
L 121.631598 152.779848 
L 122.282208 152.779848 
L 122.932818 152.779848 
L 123.583429 152.779848 
L 124.234039 152.779848 
L 124.884649 152.779848 
L 125.53526 152.779848 
L 126.18587 152.779848 
L 126.83648 152.779848 
L 127.487091 152.779848 
L 128.137701 152.779848 
L 128.788311 152.779848 
L 129.438921 152.779848 
L 130.089532 152.779848 
L 130.740142 152.779848 
L 131.390752 152.779848 
L 132.041363 152.779848 
L 132.691973 152.779848 
L 133.342583 152.779848 
L 133.993194 152.779848 
L 134.643804 152.779848 
L 135.294414 152.779848 
L 135.945025 152.779848 
L 136.595635 152.779848 
L 137.246245 152.779848 
L 137.896856 152.779848 
L 138.547466 152.779848 
L 139.198076 152.779848 
L 139.848686 152.779848 
L 140.499297 152.779848 
L 141.149907 152.779848 
L 141.800517 152.779848 
L 142.451128 152.779848 
L 143.101738 152.779848 
L 143.752348 152.779848 
L 144.402959 152.779848 
L 145.053569 152.779848 
L 145.704179 152.779848 
L 146.35479 152.779848 
L 147.0054 152.779848 
L 147.65601 152.779848 
L 148.306621 152.779848 
L 148.957231 152.779848 
L 149.607841 152.779848 
L 150.258451 152.779848 
L 150.909062 152.779848 
L 151.559672 152.779848 
L 152.210282 152.779848 
L 152.860893 152.779848 
L 153.511503 152.779848 
L 154.162113 152.779848 
L 154.812724 152.779848 
L 155.463334 152.779848 
L 156.113944 152.779848 
L 156.764555 152.779848 
L 157.415165 152.779848 
L 158.065775 152.779848 
L 158.716385 152.779848 
L 159.366996 152.779848 
L 160.017606 152.779848 
L 160.668216 152.779848 
L 161.318827 152.779848 
L 161.969437 152.779848 
L 162.620047 152.779848 
L 163.270658 152.779848 
L 163.921268 152.779848 
L 164.571878 152.779848 
L 165.222489 152.779848 
L 165.873099 152.779848 
L 166.523709 152.779848 
L 167.17432 152.779848 
L 167.82493 152.779848 
L 168.47554 152.779848 
L 169.12615 152.779848 
L 169.776761 152.779848 
L 170.427371 152.779848 
L 171.077981 152.779848 
L 171.728592 152.779848 
L 172.379202 152.779848 
L 173.029812 152.779848 
L 173.680423 152.779848 
L 174.331033 152.779848 
L 174.981643 152.779848 
L 175.632254 152.779848 
L 176.282864 152.779848 
L 176.933474 152.779848 
L 177.584085 152.779848 
L 178.234695 152.779848 
L 178.885305 152.779848 
L 179.535915 152.779848 
L 180.186526 152.779848 
L 180.837136 152.779848 
L 181.487746 152.779848 
L 182.138357 152.779848 
L 182.788967 152.779848 
L 183.439577 152.779848 
L 184.090188 152.779848 
L 184.740798 152.779848 
L 185.391408 152.779848 
L 186.042019 152.779848 
L 186.692629 152.779848 
L 187.343239 152.779848 
L 187.99385 152.779848 
L 188.64446 152.779848 
L 189.29507 152.779848 
L 189.94568 152.779848 
L 190.596291 152.779848 
L 191.246901 152.779848 
L 191.897511 152.779848 
L 192.548122 152.779848 
L 193.198732 152.779848 
L 193.849342 152.779848 
L 194.499953 152.779848 
L 195.150563 152.779848 
L 195.801173 152.779848 
L 196.451784 152.779848 
L 197.102394 152.779848 
L 197.753004 152.779848 
L 198.403615 152.779848 
L 199.054225 152.779848 
L 199.704835 152.779848 
L 200.355445 152.779848 
L 201.006056 152.779848 
L 201.656666 152.779848 
L 202.307276 152.779848 
L 202.957887 152.779848 
L 203.608497 152.779848 
L 204.259107 152.779848 
L 204.909718 152.779848 
L 205.560328 152.779848 
L 206.210938 152.779848 
L 206.861549 152.779848 
L 207.512159 152.779848 
L 208.162769 152.779848 
L 208.813379 152.779848 
L 209.46399 152.779848 
L 210.1146 152.779848 
L 210.76521 152.779848 
L 211.415821 152.779848 
L 212.066431 152.779848 
L 212.717041 152.779848 
L 213.367652 152.779848 
L 214.018262 152.779848 
L 214.668872 152.779848 
L 215.319483 152.779848 
L 215.970093 152.779848 
L 216.620703 152.779848 
L 217.271314 152.779848 
L 217.921924 152.779848 
L 218.572534 152.779848 
L 219.223144 152.779848 
L 219.873755 152.779848 
L 220.524365 152.779848 
L 221.174975 152.779848 
L 221.825586 152.779848 
L 222.476196 152.779848 
L 223.126806 152.779848 
L 223.777417 152.779848 
L 224.428027 152.779848 
L 225.078637 152.779848 
L 225.729248 152.779848 
L 226.379858 152.779848 
L 227.030468 152.779848 
L 227.681079 152.779848 
L 228.331689 152.779848 
L 228.982299 152.779848 
L 229.632909 152.779848 
L 230.28352 152.779848 
L 230.93413 152.779848 
L 231.58474 152.779848 
L 232.235351 152.779848 
L 232.885961 152.779848 
L 233.536571 152.779848 
L 234.187182 152.779848 
L 234.837792 152.779848 
L 235.488402 152.779848 
L 236.139013 152.779848 
L 236.789623 152.779848 
L 237.440233 152.779848 
L 238.090844 152.779848 
L 238.741454 152.779848 
L 239.392064 152.779848 
L 240.042674 152.779848 
L 240.693285 152.779848 
L 241.343895 152.779848 
L 241.994505 152.779848 
L 242.645116 152.779848 
L 243.295726 152.779848 
L 243.946336 152.779848 
L 244.596947 152.779848 
L 245.247557 152.779848 
L 245.898167 152.779848 
L 246.548778 152.779848 
L 247.199388 152.779848 
L 247.849998 152.779848 
L 248.500608 152.779848 
L 249.151219 152.779848 
L 249.801829 152.779848 
L 250.452439 152.779848 
L 251.10305 152.779848 
L 251.75366 152.779848 
L 252.40427 152.779848 
L 253.054881 152.779848 
L 253.705491 152.779848 
L 254.356101 152.779848 
L 255.006712 152.779848 
L 255.657322 152.779848 
L 256.307932 152.779848 
L 256.958543 152.779848 
L 257.609153 152.779848 
L 258.259763 152.779848 
L 258.910373 152.779848 
L 259.560984 152.779848 
L 260.211594 152.779848 
L 260.862204 152.779848 
L 261.512815 152.779848 
L 262.163425 152.779848 
L 262.814035 152.779848 
L 263.464646 152.779848 
L 264.115256 152.779848 
L 264.765866 152.779848 
L 265.416477 152.779848 
L 266.067087 152.779848 
L 266.717697 152.779848 
L 267.368308 152.779848 
L 268.018918 152.779848 
L 268.669528 152.779848 
L 269.320138 152.779848 
L 269.970749 152.779848 
L 270.621359 152.779848 
L 271.271969 152.779848 
L 271.92258 152.779848 
L 272.57319 152.779848 
L 273.2238 152.779848 
L 273.874411 152.779848 
L 274.525021 152.779848 
L 275.175631 152.779848 
L 275.826242 152.779848 
L 276.476852 152.779848 
L 277.127462 152.779848 
L 277.778073 152.779848 
L 278.428683 152.779848 
L 279.079293 152.779848 
L 279.729903 152.779848 
L 280.380514 152.779848 
L 281.031124 152.779848 
L 281.681734 152.779848 
L 282.332345 152.779848 
L 282.982955 152.779848 
L 283.633565 152.779848 
L 284.284176 152.779848 
L 284.934786 152.779848 
L 285.585396 152.779848 
L 286.236007 152.779848 
L 286.886617 152.779848 
L 287.537227 152.779848 
L 288.187837 152.779848 
L 288.838448 152.779848 
L 289.489058 152.779848 
L 290.139668 152.779848 
L 290.790279 152.779848 
L 291.440889 152.779848 
L 292.091499 152.779848 
L 292.74211 152.779848 
L 293.39272 152.779848 
L 294.04333 152.779848 
L 294.693941 152.779848 
L 295.344551 152.779848 
L 295.995161 152.779848 
L 296.645772 152.779848 
L 297.296382 152.779848 
L 297.946992 152.779848 
L 298.597602 152.779848 
L 299.248213 152.779848 
L 299.898823 152.779848 
L 300.549433 152.779848 
L 301.200044 152.779848 
L 301.850654 152.779848 
L 302.501264 152.779848 
L 303.151875 152.779848 
L 303.802485 152.779848 
L 304.453095 152.779848 
L 305.103706 152.779848 
L 305.754316 152.779848 
L 306.404926 152.779848 
L 307.055537 152.779848 
L 307.706147 152.779848 
L 308.356757 152.779848 
L 309.007367 152.779848 
L 309.657978 152.779848 
L 310.308588 152.779848 
L 310.959198 152.779848 
L 311.609809 152.779848 
L 312.260419 152.779848 
L 312.911029 152.779848 
L 313.56164 152.779848 
L 314.21225 152.779848 
L 314.86286 152.779848 
L 315.513471 152.779848 
L 316.164081 152.779848 
L 316.814691 152.779848 
L 317.465302 152.779848 
L 318.115912 152.779848 
L 318.766522 152.779848 
L 319.417132 152.779848 
L 320.067743 152.779848 
L 320.718353 152.779848 
L 321.368963 152.779848 
L 322.019574 152.779848 
L 322.670184 152.779848 
L 323.320794 152.779848 
L 323.971405 152.779848 
L 324.622015 152.779848 
L 325.272625 152.779848 
L 325.923236 152.779848 
L 326.573846 152.779848 
L 327.224456 152.779848 
L 327.875066 152.779848 
L 328.525677 152.779848 
L 329.176287 152.779848 
L 329.826897 152.779848 
L 330.477508 152.779848 
L 331.128118 152.779848 
L 331.778728 152.779848 
L 332.429339 152.779848 
L 333.079949 152.779848 
L 333.730559 152.779848 
L 334.38117 152.779848 
L 335.03178 152.779848 
L 335.68239 152.779848 
L 336.333001 152.779848 
L 336.983611 152.779848 
L 337.634221 152.779848 
L 338.284831 152.779848 
L 338.935442 152.779848 
L 339.586052 152.779848 
L 340.236662 152.779848 
L 340.887273 152.779848 
L 340.887273 152.779848 
L 340.887273 152.779848 
L 340.236662 152.779848 
L 339.586052 152.779848 
L 338.935442 152.779848 
L 338.284831 152.779848 
L 337.634221 152.779848 
L 336.983611 152.779848 
L 336.333001 152.779848 
L 335.68239 152.779848 
L 335.03178 152.779848 
L 334.38117 152.779848 
L 333.730559 152.779848 
L 333.079949 152.779848 
L 332.429339 152.779848 
L 331.778728 152.779848 
L 331.128118 152.779848 
L 330.477508 152.779848 
L 329.826897 152.779848 
L 329.176287 152.779848 
L 328.525677 152.779848 
L 327.875066 152.779848 
L 327.224456 152.779848 
L 326.573846 152.779848 
L 325.923236 152.779848 
L 325.272625 152.779848 
L 324.622015 152.779848 
L 323.971405 152.779848 
L 323.320794 152.779848 
L 322.670184 152.779848 
L 322.019574 152.779848 
L 321.368963 152.779848 
L 320.718353 152.779848 
L 320.067743 152.779848 
L 319.417132 152.779848 
L 318.766522 152.779848 
L 318.115912 152.779848 
L 317.465302 152.779848 
L 316.814691 152.779848 
L 316.164081 152.779848 
L 315.513471 152.779848 
L 314.86286 152.779848 
L 314.21225 152.779848 
L 313.56164 152.779848 
L 312.911029 152.779848 
L 312.260419 152.779848 
L 311.609809 152.779848 
L 310.959198 152.779848 
L 310.308588 152.779848 
L 309.657978 152.779848 
L 309.007367 152.779848 
L 308.356757 152.779848 
L 307.706147 152.779848 
L 307.055537 152.779848 
L 306.404926 152.779848 
L 305.754316 152.779848 
L 305.103706 152.779848 
L 304.453095 152.779848 
L 303.802485 152.779848 
L 303.151875 152.779848 
L 302.501264 152.779848 
L 301.850654 152.779848 
L 301.200044 152.779848 
L 300.549433 152.779848 
L 299.898823 152.779848 
L 299.248213 152.779848 
L 298.597602 152.779848 
L 297.946992 152.779848 
L 297.296382 152.779848 
L 296.645772 152.779848 
L 295.995161 152.779848 
L 295.344551 152.779848 
L 294.693941 152.779848 
L 294.04333 152.779848 
L 293.39272 152.779848 
L 292.74211 152.779848 
L 292.091499 152.779848 
L 291.440889 152.779848 
L 290.790279 152.779848 
L 290.139668 152.779848 
L 289.489058 152.779848 
L 288.838448 152.779848 
L 288.187837 152.779847 
L 287.537227 152.779847 
L 286.886617 152.779847 
L 286.236007 152.779847 
L 285.585396 152.779847 
L 284.934786 152.779847 
L 284.284176 152.779847 
L 283.633565 152.779847 
L 282.982955 152.779847 
L 282.332345 152.779846 
L 281.681734 152.779846 
L 281.031124 152.779846 
L 280.380514 152.779846 
L 279.729903 152.779846 
L 279.079293 152.779846 
L 278.428683 152.779846 
L 277.778073 152.779846 
L 277.127462 152.779846 
L 276.476852 152.779846 
L 275.826242 152.779846 
L 275.175631 152.779846 
L 274.525021 152.779846 
L 273.874411 152.779846 
L 273.2238 152.779846 
L 272.57319 152.779846 
L 271.92258 152.779846 
L 271.271969 152.77984 
L 270.621359 152.779833 
L 269.970749 152.779826 
L 269.320138 152.779819 
L 268.669528 152.779812 
L 268.018918 152.779805 
L 267.368308 152.779798 
L 266.717697 152.779792 
L 266.067087 152.779785 
L 265.416477 152.779778 
L 264.765866 152.779771 
L 264.115256 152.779764 
L 263.464646 152.779757 
L 262.814035 152.77975 
L 262.163425 152.779743 
L 261.512815 152.779746 
L 260.862204 152.779752 
L 260.211594 152.779758 
L 259.560984 152.779764 
L 258.910373 152.779771 
L 258.259763 152.779777 
L 257.609153 152.779783 
L 256.958543 152.779789 
L 256.307932 152.779796 
L 255.657322 152.779802 
L 255.006712 152.779808 
L 254.356101 152.779815 
L 253.705491 152.779821 
L 253.054881 152.779827 
L 252.40427 152.779833 
L 251.75366 152.779817 
L 251.10305 152.779784 
L 250.452439 152.779751 
L 249.801829 152.779717 
L 249.151219 152.779684 
L 248.500608 152.779651 
L 247.849998 152.779618 
L 247.199388 152.779585 
L 246.548778 152.779552 
L 245.898167 152.779518 
L 245.247557 152.779485 
L 244.596947 152.779452 
L 243.946336 152.779419 
L 243.295726 152.779386 
L 242.645116 152.779353 
L 241.994505 152.773916 
L 241.343895 152.761029 
L 240.693285 152.748143 
L 240.042674 152.735257 
L 239.392064 152.72237 
L 238.741454 152.709484 
L 238.090844 152.696598 
L 237.440233 152.683712 
L 236.789623 152.670825 
L 236.139013 152.657939 
L 235.488402 152.645053 
L 234.837792 152.632166 
L 234.187182 152.61928 
L 233.536571 152.606394 
L 232.885961 152.593507 
L 232.235351 151.904371 
L 231.58474 149.31485 
L 230.93413 146.72533 
L 230.28352 144.135809 
L 229.632909 141.546289 
L 228.982299 138.956768 
L 228.331689 136.367248 
L 227.681079 133.777727 
L 227.030468 131.188206 
L 226.379858 128.598686 
L 225.729248 126.009165 
L 225.078637 123.419645 
L 224.428027 120.830124 
L 223.777417 118.240604 
L 223.126806 115.651083 
L 222.476196 113.332156 
L 221.825586 113.332156 
L 221.174975 113.332156 
L 220.524365 113.332155 
L 219.873755 113.332155 
L 219.223144 113.332155 
L 218.572534 113.332154 
L 217.921924 113.332154 
L 217.271314 113.332154 
L 216.620703 113.332153 
L 215.970093 113.332153 
L 215.319483 113.332153 
L 214.668872 113.332152 
L 214.018262 113.332152 
L 213.367652 113.332152 
L 212.717041 113.332152 
L 212.066431 113.332152 
L 211.415821 113.332152 
L 210.76521 113.332152 
L 210.1146 113.332152 
L 209.46399 113.332152 
L 208.813379 113.332152 
L 208.162769 113.332152 
L 207.512159 113.332152 
L 206.861549 113.332152 
L 206.210938 113.332152 
L 205.560328 113.332152 
L 204.909718 113.332152 
L 204.259107 113.332152 
L 203.608497 113.332152 
L 202.957887 113.332152 
L 202.307276 113.332152 
L 201.656666 113.332152 
L 201.006056 113.332152 
L 200.355445 113.332152 
L 199.704835 113.332152 
L 199.054225 113.332152 
L 198.403615 113.332152 
L 197.753004 113.332152 
L 197.102394 113.332152 
L 196.451784 113.332152 
L 195.801173 113.332152 
L 195.150563 113.332152 
L 194.499953 113.332152 
L 193.849342 113.332152 
L 193.198732 113.332152 
L 192.548122 113.332152 
L 191.897511 113.332152 
L 191.246901 113.332152 
L 190.596291 113.332152 
L 189.94568 113.332152 
L 189.29507 113.332152 
L 188.64446 113.332152 
L 187.99385 113.332152 
L 187.343239 113.332152 
L 186.692629 113.332152 
L 186.042019 113.332152 
L 185.391408 113.332152 
L 184.740798 113.332152 
L 184.090188 113.332152 
L 183.439577 113.332152 
L 182.788967 113.332152 
L 182.138357 113.332152 
L 181.487746 113.332152 
L 180.837136 113.332153 
L 180.186526 113.332153 
L 179.535915 113.332153 
L 178.885305 113.332154 
L 178.234695 113.332154 
L 177.584085 113.332154 
L 176.933474 113.332154 
L 176.282864 113.332155 
L 175.632254 113.332155 
L 174.981643 113.332155 
L 174.331033 113.332156 
L 173.680423 113.332156 
L 173.029812 113.823654 
L 172.379202 115.385439 
L 171.728592 116.947224 
L 171.077981 118.509009 
L 170.427371 120.070793 
L 169.776761 121.632578 
L 169.12615 123.194363 
L 168.47554 124.756148 
L 167.82493 126.317933 
L 167.17432 127.879718 
L 166.523709 129.441503 
L 165.873099 131.003288 
L 165.222489 132.565073 
L 164.571878 134.126858 
L 163.921268 135.688643 
L 163.270658 137.168744 
L 162.620047 138.2094 
L 161.969437 139.250056 
L 161.318827 140.290711 
L 160.668216 141.331367 
L 160.017606 142.372022 
L 159.366996 143.412678 
L 158.716385 144.453333 
L 158.065775 145.493989 
L 157.415165 146.534645 
L 156.764555 147.5753 
L 156.113944 148.615956 
L 155.463334 149.656611 
L 154.812724 150.697267 
L 154.162113 151.737922 
L 153.511503 152.778578 
L 152.860893 152.779843 
L 152.210282 152.779843 
L 151.559672 152.779843 
L 150.909062 152.779844 
L 150.258451 152.779844 
L 149.607841 152.779844 
L 148.957231 152.779845 
L 148.306621 152.779845 
L 147.65601 152.779845 
L 147.0054 152.779846 
L 146.35479 152.779846 
L 145.704179 152.779846 
L 145.053569 152.779847 
L 144.402959 152.779847 
L 143.752348 152.779847 
L 143.101738 152.779847 
L 142.451128 152.779847 
L 141.800517 152.779847 
L 141.149907 152.779847 
L 140.499297 152.779847 
L 139.848686 152.779847 
L 139.198076 152.779847 
L 138.547466 152.779847 
L 137.896856 152.779847 
L 137.246245 152.779847 
L 136.595635 152.779848 
L 135.945025 152.779848 
L 135.294414 152.779848 
L 134.643804 152.779848 
L 133.993194 152.779848 
L 133.342583 152.779848 
L 132.691973 152.779848 
L 132.041363 152.779848 
L 131.390752 152.779848 
L 130.740142 152.779848 
L 130.089532 152.779848 
L 129.438921 152.779848 
L 128.788311 152.779848 
L 128.137701 152.779848 
L 127.487091 152.779848 
L 126.83648 152.779848 
L 126.18587 152.779848 
L 125.53526 152.779847 
L 124.884649 152.779847 
L 124.234039 152.779847 
L 123.583429 152.779847 
L 122.932818 152.779847 
L 122.282208 152.779847 
L 121.631598 152.779847 
L 120.980987 152.779847 
L 120.330377 152.779847 
L 119.679767 152.779847 
L 119.029156 152.779847 
L 118.378546 152.779847 
L 117.727936 152.779847 
L 117.077326 152.779847 
L 116.426715 152.779847 
L 115.776105 152.779847 
L 115.125495 152.779847 
L 114.474884 152.779847 
L 113.824274 152.779847 
L 113.173664 152.779847 
L 112.523053 152.779847 
L 111.872443 152.779847 
L 111.221833 152.779847 
L 110.571222 152.779847 
L 109.920612 152.779846 
L 109.270002 152.779846 
L 108.619392 152.779846 
L 107.968781 152.779846 
L 107.318171 152.779846 
L 106.667561 152.779846 
L 106.01695 152.779846 
L 105.36634 152.779846 
L 104.71573 152.779846 
L 104.065119 152.779846 
L 103.414509 152.779846 
L 102.763899 152.779846 
L 102.113288 152.779846 
L 101.462678 152.779846 
L 100.812068 152.779846 
L 100.161457 152.779845 
L 99.510847 152.779845 
L 98.860237 152.779845 
L 98.209627 152.779845 
L 97.559016 152.779845 
L 96.908406 152.779845 
L 96.257796 152.779844 
L 95.607185 152.779844 
L 94.956575 152.779844 
L 94.305965 152.779844 
L 93.655354 152.779844 
L 93.004744 152.779844 
L 92.354134 152.779843 
L 91.703523 152.779843 
L 91.052913 152.779843 
L 90.402303 152.779843 
L 89.751692 152.779843 
L 89.101082 152.779843 
L 88.450472 152.779842 
L 87.799862 152.779842 
L 87.149251 152.779842 
L 86.498641 152.779842 
L 85.848031 152.779842 
L 85.19742 152.779842 
L 84.54681 152.779842 
L 83.8962 152.779838 
L 83.245589 152.779834 
L 82.594979 152.779829 
L 81.944369 152.779825 
L 81.293758 152.779821 
L 80.643148 152.779817 
L 79.992538 152.779813 
L 79.341927 152.779808 
L 78.691317 152.779804 
L 78.040707 152.7798 
L 77.390097 152.779796 
L 76.739486 152.779792 
L 76.088876 152.779788 
L 75.438266 152.779783 
L 74.787655 152.779779 
L 74.137045 152.779718 
L 73.486435 152.779635 
L 72.835824 152.779553 
L 72.185214 152.779471 
L 71.534604 152.779388 
L 70.883993 152.779306 
L 70.233383 152.779224 
L 69.582773 152.779142 
L 68.932163 152.779059 
L 68.281552 152.778977 
L 67.630942 152.778895 
L 66.980332 152.778812 
L 66.329721 152.77873 
L 65.679111 152.778648 
L 65.028501 152.778565 
L 64.37789 152.77858 
L 63.72728 152.778665 
L 63.07667 152.778751 
L 62.426059 152.778836 
L 61.775449 152.778921 
L 61.124839 152.779006 
L 60.474228 152.779092 
L 59.823618 152.779177 
L 59.173008 152.779262 
L 58.522398 152.779348 
L 57.871787 152.779433 
L 57.221177 152.779518 
L 56.570567 152.779604 
L 55.919956 152.779689 
L 55.269346 152.779774 
L 54.618736 152.779815 
L 53.968125 152.779795 
L 53.317515 152.779775 
L 52.666905 152.779755 
L 52.016294 152.779735 
L 51.365684 152.779715 
L 50.715074 152.779695 
L 50.064463 152.779675 
L 49.413853 152.779655 
L 48.763243 152.779635 
L 48.112633 152.779615 
L 47.462022 152.779595 
L 46.811412 152.779575 
L 46.160802 152.779555 
L 45.510191 152.779535 
L 44.859581 152.779524 
L 44.208971 152.779539 
L 43.55836 152.779553 
L 42.90775 152.779568 
L 42.25714 152.779583 
L 41.606529 152.779597 
L 40.955919 152.779612 
L 40.305309 152.779627 
L 39.654698 152.779641 
L 39.004088 152.779656 
L 38.353478 152.779671 
L 37.702868 152.779685 
L 37.052257 152.7797 
L 36.401647 152.779715 
L 35.751037 152.779729 
L 35.100426 152.779743 
L 34.449816 152.77975 
L 33.799206 152.779757 
L 33.148595 152.779764 
L 32.497985 152.779771 
L 31.847375 152.779777 
L 31.196764 152.779784 
L 30.546154 152.779791 
L 29.895544 152.779798 
L 29.244934 152.779805 
L 28.594323 152.779811 
L 27.943713 152.779818 
L 27.293103 152.779825 
L 26.642492 152.779832 
L 25.991882 152.779839 
L 25.341272 152.779846 
L 24.690661 152.779846 
L 24.040051 152.779845 
L 23.389441 152.779845 
L 22.73883 152.779844 
L 22.08822 152.779844 
L 21.43761 152.779844 
L 20.786999 152.779843 
L 20.136389 152.779843 
L 19.485779 152.779843 
L 18.835169 152.779842 
L 18.184558 152.779842 
L 17.533948 152.779842 
L 16.883338 152.779841 
L 16.232727 152.779841 
z
" style="fill:#61c46e;fill-opacity:0.3;"/>
   </g>
   <g id="PolyCollection_2">
    <path clip-path="url(#pf11ea94033)" d="M 16.232727 152.779755 
L 16.232727 152.779848 
L 16.883338 152.779848 
L 17.533948 152.779848 
L 18.184558 152.779848 
L 18.835169 152.779848 
L 19.485779 152.779848 
L 20.136389 152.779848 
L 20.786999 152.779848 
L 21.43761 152.779848 
L 22.08822 152.779848 
L 22.73883 152.779848 
L 23.389441 152.779848 
L 24.040051 152.779848 
L 24.690661 152.779848 
L 25.341272 152.779848 
L 25.991882 152.779848 
L 26.642492 152.779848 
L 27.293103 152.779848 
L 27.943713 152.779848 
L 28.594323 152.779848 
L 29.244934 152.779848 
L 29.895544 152.779848 
L 30.546154 152.779848 
L 31.196764 152.779848 
L 31.847375 152.779848 
L 32.497985 152.779848 
L 33.148595 152.779848 
L 33.799206 152.779848 
L 34.449816 152.779848 
L 35.100426 152.779848 
L 35.751037 152.779848 
L 36.401647 152.779848 
L 37.052257 152.779848 
L 37.702868 152.779848 
L 38.353478 152.779848 
L 39.004088 152.779848 
L 39.654698 152.779848 
L 40.305309 152.779848 
L 40.955919 152.779848 
L 41.606529 152.779848 
L 42.25714 152.779848 
L 42.90775 152.779848 
L 43.55836 152.779848 
L 44.208971 152.779848 
L 44.859581 152.779848 
L 45.510191 152.779848 
L 46.160802 152.779848 
L 46.811412 152.779848 
L 47.462022 152.779848 
L 48.112633 152.779848 
L 48.763243 152.779848 
L 49.413853 152.779848 
L 50.064463 152.779848 
L 50.715074 152.779848 
L 51.365684 152.779848 
L 52.016294 152.779848 
L 52.666905 152.779848 
L 53.317515 152.779848 
L 53.968125 152.779848 
L 54.618736 152.779848 
L 55.269346 152.779848 
L 55.919956 152.779848 
L 56.570567 152.779848 
L 57.221177 152.779848 
L 57.871787 152.779848 
L 58.522398 152.779848 
L 59.173008 152.779848 
L 59.823618 152.779848 
L 60.474228 152.779848 
L 61.124839 152.779848 
L 61.775449 152.779848 
L 62.426059 152.779848 
L 63.07667 152.779848 
L 63.72728 152.779848 
L 64.37789 152.779848 
L 65.028501 152.779848 
L 65.679111 152.779848 
L 66.329721 152.779848 
L 66.980332 152.779848 
L 67.630942 152.779848 
L 68.281552 152.779848 
L 68.932163 152.779848 
L 69.582773 152.779848 
L 70.233383 152.779848 
L 70.883993 152.779848 
L 71.534604 152.779848 
L 72.185214 152.779848 
L 72.835824 152.779848 
L 73.486435 152.779848 
L 74.137045 152.779848 
L 74.787655 152.779848 
L 75.438266 152.779848 
L 76.088876 152.779848 
L 76.739486 152.779848 
L 77.390097 152.779848 
L 78.040707 152.779848 
L 78.691317 152.779848 
L 79.341927 152.779848 
L 79.992538 152.779848 
L 80.643148 152.779848 
L 81.293758 152.779848 
L 81.944369 152.779848 
L 82.594979 152.779848 
L 83.245589 152.779848 
L 83.8962 152.779848 
L 84.54681 152.779848 
L 85.19742 152.779848 
L 85.848031 152.779848 
L 86.498641 152.779848 
L 87.149251 152.779848 
L 87.799862 152.779848 
L 88.450472 152.779848 
L 89.101082 152.779848 
L 89.751692 152.779848 
L 90.402303 152.779848 
L 91.052913 152.779848 
L 91.703523 152.779848 
L 92.354134 152.779848 
L 93.004744 152.779848 
L 93.655354 152.779848 
L 94.305965 152.779848 
L 94.956575 152.779848 
L 95.607185 152.779848 
L 96.257796 152.779848 
L 96.908406 152.779848 
L 97.559016 152.779848 
L 98.209627 152.779848 
L 98.860237 152.779848 
L 99.510847 152.779848 
L 100.161457 152.779848 
L 100.812068 152.779848 
L 101.462678 152.779848 
L 102.113288 152.779848 
L 102.763899 152.779848 
L 103.414509 152.779848 
L 104.065119 152.779848 
L 104.71573 152.779848 
L 105.36634 152.779848 
L 106.01695 152.779848 
L 106.667561 152.779848 
L 107.318171 152.779848 
L 107.968781 152.779848 
L 108.619392 152.779848 
L 109.270002 152.779848 
L 109.920612 152.779848 
L 110.571222 152.779848 
L 111.221833 152.779848 
L 111.872443 152.779848 
L 112.523053 152.779848 
L 113.173664 152.779848 
L 113.824274 152.779848 
L 114.474884 152.779848 
L 115.125495 152.779848 
L 115.776105 152.779848 
L 116.426715 152.779848 
L 117.077326 152.779848 
L 117.727936 152.779848 
L 118.378546 152.779848 
L 119.029156 152.779848 
L 119.679767 152.779848 
L 120.330377 152.779848 
L 120.980987 152.779848 
L 121.631598 152.779848 
L 122.282208 152.779848 
L 122.932818 152.779848 
L 123.583429 152.779848 
L 124.234039 152.779848 
L 124.884649 152.779848 
L 125.53526 152.779848 
L 126.18587 152.779848 
L 126.83648 152.779848 
L 127.487091 152.779848 
L 128.137701 152.779848 
L 128.788311 152.779848 
L 129.438921 152.779848 
L 130.089532 152.779848 
L 130.740142 152.779848 
L 131.390752 152.779848 
L 132.041363 152.779848 
L 132.691973 152.779848 
L 133.342583 152.779848 
L 133.993194 152.779848 
L 134.643804 152.779848 
L 135.294414 152.779848 
L 135.945025 152.779848 
L 136.595635 152.779848 
L 137.246245 152.779848 
L 137.896856 152.779848 
L 138.547466 152.779848 
L 139.198076 152.779848 
L 139.848686 152.779848 
L 140.499297 152.779848 
L 141.149907 152.779848 
L 141.800517 152.779848 
L 142.451128 152.779848 
L 143.101738 152.779848 
L 143.752348 152.779848 
L 144.402959 152.779848 
L 145.053569 152.779848 
L 145.704179 152.779848 
L 146.35479 152.779848 
L 147.0054 152.779848 
L 147.65601 152.779848 
L 148.306621 152.779848 
L 148.957231 152.779848 
L 149.607841 152.779848 
L 150.258451 152.779848 
L 150.909062 152.779848 
L 151.559672 152.779848 
L 152.210282 152.779848 
L 152.860893 152.779848 
L 153.511503 152.779848 
L 154.162113 152.779848 
L 154.812724 152.779848 
L 155.463334 152.779848 
L 156.113944 152.779848 
L 156.764555 152.779848 
L 157.415165 152.779848 
L 158.065775 152.779848 
L 158.716385 152.779848 
L 159.366996 152.779848 
L 160.017606 152.779848 
L 160.668216 152.779848 
L 161.318827 152.779848 
L 161.969437 152.779848 
L 162.620047 152.779848 
L 163.270658 152.779848 
L 163.921268 152.779848 
L 164.571878 152.779848 
L 165.222489 152.779848 
L 165.873099 152.779848 
L 166.523709 152.779848 
L 167.17432 152.779848 
L 167.82493 152.779848 
L 168.47554 152.779848 
L 169.12615 152.779848 
L 169.776761 152.779848 
L 170.427371 152.779848 
L 171.077981 152.779848 
L 171.728592 152.779848 
L 172.379202 152.779848 
L 173.029812 152.779848 
L 173.680423 152.779848 
L 174.331033 152.779848 
L 174.981643 152.779848 
L 175.632254 152.779848 
L 176.282864 152.779848 
L 176.933474 152.779848 
L 177.584085 152.779848 
L 178.234695 152.779848 
L 178.885305 152.779848 
L 179.535915 152.779848 
L 180.186526 152.779848 
L 180.837136 152.779848 
L 181.487746 152.779848 
L 182.138357 152.779848 
L 182.788967 152.779848 
L 183.439577 152.779848 
L 184.090188 152.779848 
L 184.740798 152.779848 
L 185.391408 152.779848 
L 186.042019 152.779848 
L 186.692629 152.779848 
L 187.343239 152.779848 
L 187.99385 152.779848 
L 188.64446 152.779848 
L 189.29507 152.779848 
L 189.94568 152.779848 
L 190.596291 152.779848 
L 191.246901 152.779848 
L 191.897511 152.779848 
L 192.548122 152.779848 
L 193.198732 152.779848 
L 193.849342 152.779848 
L 194.499953 152.779848 
L 195.150563 152.779848 
L 195.801173 152.779848 
L 196.451784 152.779848 
L 197.102394 152.779848 
L 197.753004 152.779848 
L 198.403615 152.779848 
L 199.054225 152.779848 
L 199.704835 152.779848 
L 200.355445 152.779848 
L 201.006056 152.779848 
L 201.656666 152.779848 
L 202.307276 152.779848 
L 202.957887 152.779848 
L 203.608497 152.779848 
L 204.259107 152.779848 
L 204.909718 152.779848 
L 205.560328 152.779848 
L 206.210938 152.779848 
L 206.861549 152.779848 
L 207.512159 152.779848 
L 208.162769 152.779848 
L 208.813379 152.779848 
L 209.46399 152.779848 
L 210.1146 152.779848 
L 210.76521 152.779848 
L 211.415821 152.779848 
L 212.066431 152.779848 
L 212.717041 152.779848 
L 213.367652 152.779848 
L 214.018262 152.779848 
L 214.668872 152.779848 
L 215.319483 152.779848 
L 215.970093 152.779848 
L 216.620703 152.779848 
L 217.271314 152.779848 
L 217.921924 152.779848 
L 218.572534 152.779848 
L 219.223144 152.779848 
L 219.873755 152.779848 
L 220.524365 152.779848 
L 221.174975 152.779848 
L 221.825586 152.779848 
L 222.476196 152.779848 
L 223.126806 152.779848 
L 223.777417 152.779848 
L 224.428027 152.779848 
L 225.078637 152.779848 
L 225.729248 152.779848 
L 226.379858 152.779848 
L 227.030468 152.779848 
L 227.681079 152.779848 
L 228.331689 152.779848 
L 228.982299 152.779848 
L 229.632909 152.779848 
L 230.28352 152.779848 
L 230.93413 152.779848 
L 231.58474 152.779848 
L 232.235351 152.779848 
L 232.885961 152.779848 
L 233.536571 152.779848 
L 234.187182 152.779848 
L 234.837792 152.779848 
L 235.488402 152.779848 
L 236.139013 152.779848 
L 236.789623 152.779848 
L 237.440233 152.779848 
L 238.090844 152.779848 
L 238.741454 152.779848 
L 239.392064 152.779848 
L 240.042674 152.779848 
L 240.693285 152.779848 
L 241.343895 152.779848 
L 241.994505 152.779848 
L 242.645116 152.779848 
L 243.295726 152.779848 
L 243.946336 152.779848 
L 244.596947 152.779848 
L 245.247557 152.779848 
L 245.898167 152.779848 
L 246.548778 152.779848 
L 247.199388 152.779848 
L 247.849998 152.779848 
L 248.500608 152.779848 
L 249.151219 152.779848 
L 249.801829 152.779848 
L 250.452439 152.779848 
L 251.10305 152.779848 
L 251.75366 152.779848 
L 252.40427 152.779848 
L 253.054881 152.779848 
L 253.705491 152.779848 
L 254.356101 152.779848 
L 255.006712 152.779848 
L 255.657322 152.779848 
L 256.307932 152.779848 
L 256.958543 152.779848 
L 257.609153 152.779848 
L 258.259763 152.779848 
L 258.910373 152.779848 
L 259.560984 152.779848 
L 260.211594 152.779848 
L 260.862204 152.779848 
L 261.512815 152.779848 
L 262.163425 152.779848 
L 262.814035 152.779848 
L 263.464646 152.779848 
L 264.115256 152.779848 
L 264.765866 152.779848 
L 265.416477 152.779848 
L 266.067087 152.779848 
L 266.717697 152.779848 
L 267.368308 152.779848 
L 268.018918 152.779848 
L 268.669528 152.779848 
L 269.320138 152.779848 
L 269.970749 152.779848 
L 270.621359 152.779848 
L 271.271969 152.779848 
L 271.92258 152.779848 
L 272.57319 152.779848 
L 273.2238 152.779848 
L 273.874411 152.779848 
L 274.525021 152.779848 
L 275.175631 152.779848 
L 275.826242 152.779848 
L 276.476852 152.779848 
L 277.127462 152.779848 
L 277.778073 152.779848 
L 278.428683 152.779848 
L 279.079293 152.779848 
L 279.729903 152.779848 
L 280.380514 152.779848 
L 281.031124 152.779848 
L 281.681734 152.779848 
L 282.332345 152.779848 
L 282.982955 152.779848 
L 283.633565 152.779848 
L 284.284176 152.779848 
L 284.934786 152.779848 
L 285.585396 152.779848 
L 286.236007 152.779848 
L 286.886617 152.779848 
L 287.537227 152.779848 
L 288.187837 152.779848 
L 288.838448 152.779848 
L 289.489058 152.779848 
L 290.139668 152.779848 
L 290.790279 152.779848 
L 291.440889 152.779848 
L 292.091499 152.779848 
L 292.74211 152.779848 
L 293.39272 152.779848 
L 294.04333 152.779848 
L 294.693941 152.779848 
L 295.344551 152.779848 
L 295.995161 152.779848 
L 296.645772 152.779848 
L 297.296382 152.779848 
L 297.946992 152.779848 
L 298.597602 152.779848 
L 299.248213 152.779848 
L 299.898823 152.779848 
L 300.549433 152.779848 
L 301.200044 152.779848 
L 301.850654 152.779848 
L 302.501264 152.779848 
L 303.151875 152.779848 
L 303.802485 152.779848 
L 304.453095 152.779848 
L 305.103706 152.779848 
L 305.754316 152.779848 
L 306.404926 152.779848 
L 307.055537 152.779848 
L 307.706147 152.779848 
L 308.356757 152.779848 
L 309.007367 152.779848 
L 309.657978 152.779848 
L 310.308588 152.779848 
L 310.959198 152.779848 
L 311.609809 152.779848 
L 312.260419 152.779848 
L 312.911029 152.779848 
L 313.56164 152.779848 
L 314.21225 152.779848 
L 314.86286 152.779848 
L 315.513471 152.779848 
L 316.164081 152.779848 
L 316.814691 152.779848 
L 317.465302 152.779848 
L 318.115912 152.779848 
L 318.766522 152.779848 
L 319.417132 152.779848 
L 320.067743 152.779848 
L 320.718353 152.779848 
L 321.368963 152.779848 
L 322.019574 152.779848 
L 322.670184 152.779848 
L 323.320794 152.779848 
L 323.971405 152.779848 
L 324.622015 152.779848 
L 325.272625 152.779848 
L 325.923236 152.779848 
L 326.573846 152.779848 
L 327.224456 152.779848 
L 327.875066 152.779848 
L 328.525677 152.779848 
L 329.176287 152.779848 
L 329.826897 152.779848 
L 330.477508 152.779848 
L 331.128118 152.779848 
L 331.778728 152.779848 
L 332.429339 152.779848 
L 333.079949 152.779848 
L 333.730559 152.779848 
L 334.38117 152.779848 
L 335.03178 152.779848 
L 335.68239 152.779848 
L 336.333001 152.779848 
L 336.983611 152.779848 
L 337.634221 152.779848 
L 338.284831 152.779848 
L 338.935442 152.779848 
L 339.586052 152.779848 
L 340.236662 152.779848 
L 340.887273 152.779848 
L 340.887273 152.779848 
L 340.887273 152.779848 
L 340.236662 152.779848 
L 339.586052 152.779848 
L 338.935442 152.779848 
L 338.284831 152.779848 
L 337.634221 152.779847 
L 336.983611 152.779847 
L 336.333001 152.779847 
L 335.68239 152.779847 
L 335.03178 152.779847 
L 334.38117 152.779847 
L 333.730559 152.779847 
L 333.079949 152.779847 
L 332.429339 152.779847 
L 331.778728 152.779847 
L 331.128118 152.779847 
L 330.477508 152.779847 
L 329.826897 152.779847 
L 329.176287 152.779847 
L 328.525677 152.779847 
L 327.875066 152.779847 
L 327.224456 152.779847 
L 326.573846 152.779847 
L 325.923236 152.779847 
L 325.272625 152.779847 
L 324.622015 152.779847 
L 323.971405 152.779847 
L 323.320794 152.779847 
L 322.670184 152.779847 
L 322.019574 152.779847 
L 321.368963 152.779847 
L 320.718353 152.779847 
L 320.067743 152.779847 
L 319.417132 152.779847 
L 318.766522 152.779847 
L 318.115912 152.779847 
L 317.465302 152.779847 
L 316.814691 152.779847 
L 316.164081 152.779847 
L 315.513471 152.779847 
L 314.86286 152.779847 
L 314.21225 152.779847 
L 313.56164 152.779847 
L 312.911029 152.779847 
L 312.260419 152.779847 
L 311.609809 152.779847 
L 310.959198 152.779847 
L 310.308588 152.779847 
L 309.657978 152.779847 
L 309.007367 152.779847 
L 308.356757 152.779847 
L 307.706147 152.779847 
L 307.055537 152.779847 
L 306.404926 152.779847 
L 305.754316 152.779847 
L 305.103706 152.779847 
L 304.453095 152.779847 
L 303.802485 152.779847 
L 303.151875 152.779847 
L 302.501264 152.779847 
L 301.850654 152.779847 
L 301.200044 152.779846 
L 300.549433 152.779846 
L 299.898823 152.779846 
L 299.248213 152.779846 
L 298.597602 152.779846 
L 297.946992 152.779846 
L 297.296382 152.779846 
L 296.645772 152.779846 
L 295.995161 152.779845 
L 295.344551 152.779845 
L 294.693941 152.779845 
L 294.04333 152.779845 
L 293.39272 152.779845 
L 292.74211 152.779845 
L 292.091499 152.779845 
L 291.440889 152.779821 
L 290.790279 152.779711 
L 290.139668 152.779601 
L 289.489058 152.77949 
L 288.838448 152.77938 
L 288.187837 152.77927 
L 287.537227 152.779159 
L 286.886617 152.779049 
L 286.236007 152.778939 
L 285.585396 152.778828 
L 284.934786 152.778718 
L 284.284176 152.778608 
L 283.633565 152.778497 
L 282.982955 152.778387 
L 282.332345 152.778277 
L 281.681734 152.778172 
L 281.031124 152.778173 
L 280.380514 152.778174 
L 279.729903 152.778174 
L 279.079293 152.778175 
L 278.428683 152.778176 
L 277.778073 152.778176 
L 277.127462 152.778177 
L 276.476852 152.778178 
L 275.826242 152.778178 
L 275.175631 152.778179 
L 274.525021 152.77818 
L 273.874411 152.77818 
L 273.2238 152.778181 
L 272.57319 152.778182 
L 271.92258 152.778182 
L 271.271969 150.953786 
L 270.621359 148.913734 
L 269.970749 146.873683 
L 269.320138 144.833632 
L 268.669528 142.793581 
L 268.018918 140.753529 
L 267.368308 138.713478 
L 266.717697 136.673427 
L 266.067087 134.633375 
L 265.416477 132.593324 
L 264.765866 130.553273 
L 264.115256 128.513222 
L 263.464646 126.47317 
L 262.814035 124.433119 
L 262.163425 122.393068 
L 261.512815 123.356857 
L 260.862204 125.396279 
L 260.211594 127.435701 
L 259.560984 129.475123 
L 258.910373 131.514544 
L 258.259763 133.553966 
L 257.609153 135.593388 
L 256.958543 137.63281 
L 256.307932 139.672232 
L 255.657322 141.711653 
L 255.006712 143.751075 
L 254.356101 145.790497 
L 253.705491 147.829919 
L 253.054881 149.869341 
L 252.40427 151.908762 
L 251.75366 151.263918 
L 251.10305 148.662265 
L 250.452439 146.060613 
L 249.801829 143.45896 
L 249.151219 140.857308 
L 248.500608 138.255655 
L 247.849998 135.654003 
L 247.199388 133.05235 
L 246.548778 130.450698 
L 245.898167 127.849045 
L 245.247557 125.247393 
L 244.596947 122.64574 
L 243.946336 120.044088 
L 243.295726 117.442435 
L 242.645116 114.840783 
L 241.994505 113.338311 
L 241.343895 113.351182 
L 240.693285 113.364054 
L 240.042674 113.376926 
L 239.392064 113.389797 
L 238.741454 113.402669 
L 238.090844 113.415541 
L 237.440233 113.428412 
L 236.789623 113.441284 
L 236.139013 113.454156 
L 235.488402 113.467027 
L 234.837792 113.479899 
L 234.187182 113.492771 
L 233.536571 113.505642 
L 232.885961 113.518514 
L 232.235351 114.207639 
L 231.58474 116.797159 
L 230.93413 119.386679 
L 230.28352 121.976199 
L 229.632909 124.565719 
L 228.982299 127.155239 
L 228.331689 129.744759 
L 227.681079 132.334279 
L 227.030468 134.923799 
L 226.379858 137.513319 
L 225.729248 140.102839 
L 225.078637 142.692359 
L 224.428027 145.281879 
L 223.777417 147.871398 
L 223.126806 150.460918 
L 222.476196 152.779845 
L 221.825586 152.779845 
L 221.174975 152.779845 
L 220.524365 152.779845 
L 219.873755 152.779845 
L 219.223144 152.779846 
L 218.572534 152.779846 
L 217.921924 152.779846 
L 217.271314 152.779846 
L 216.620703 152.779847 
L 215.970093 152.779847 
L 215.319483 152.779847 
L 214.668872 152.779847 
L 214.018262 152.779847 
L 213.367652 152.779848 
L 212.717041 152.779848 
L 212.066431 152.779848 
L 211.415821 152.779848 
L 210.76521 152.779848 
L 210.1146 152.779848 
L 209.46399 152.779848 
L 208.813379 152.779848 
L 208.162769 152.779848 
L 207.512159 152.779848 
L 206.861549 152.779848 
L 206.210938 152.779848 
L 205.560328 152.779848 
L 204.909718 152.779848 
L 204.259107 152.779848 
L 203.608497 152.779848 
L 202.957887 152.779848 
L 202.307276 152.779848 
L 201.656666 152.779848 
L 201.006056 152.779848 
L 200.355445 152.779848 
L 199.704835 152.779848 
L 199.054225 152.779848 
L 198.403615 152.779848 
L 197.753004 152.779848 
L 197.102394 152.779848 
L 196.451784 152.779848 
L 195.801173 152.779848 
L 195.150563 152.779848 
L 194.499953 152.779848 
L 193.849342 152.779847 
L 193.198732 152.779847 
L 192.548122 152.779847 
L 191.897511 152.779847 
L 191.246901 152.779847 
L 190.596291 152.779848 
L 189.94568 152.779848 
L 189.29507 152.779848 
L 188.64446 152.779848 
L 187.99385 152.779848 
L 187.343239 152.779848 
L 186.692629 152.779848 
L 186.042019 152.779848 
L 185.391408 152.779848 
L 184.740798 152.779848 
L 184.090188 152.779848 
L 183.439577 152.779848 
L 182.788967 152.779848 
L 182.138357 152.779848 
L 181.487746 152.779847 
L 180.837136 152.779847 
L 180.186526 152.779847 
L 179.535915 152.779847 
L 178.885305 152.779847 
L 178.234695 152.779847 
L 177.584085 152.779847 
L 176.933474 152.779847 
L 176.282864 152.779846 
L 175.632254 152.779846 
L 174.981643 152.779846 
L 174.331033 152.779846 
L 173.680423 152.779846 
L 173.029812 152.779844 
L 172.379202 152.779837 
L 171.728592 152.77983 
L 171.077981 152.779823 
L 170.427371 152.779817 
L 169.776761 152.77981 
L 169.12615 152.779803 
L 168.47554 152.779796 
L 167.82493 152.77979 
L 167.17432 152.779783 
L 166.523709 152.779776 
L 165.873099 152.779769 
L 165.222489 152.779763 
L 164.571878 152.779756 
L 163.921268 152.779749 
L 163.270658 152.779745 
L 162.620047 152.779751 
L 161.969437 152.779758 
L 161.318827 152.779765 
L 160.668216 152.779772 
L 160.017606 152.779779 
L 159.366996 152.779785 
L 158.716385 152.779792 
L 158.065775 152.779799 
L 157.415165 152.779806 
L 156.764555 152.779813 
L 156.113944 152.779819 
L 155.463334 152.779826 
L 154.812724 152.779833 
L 154.162113 152.77984 
L 153.511503 152.779847 
L 152.860893 152.779847 
L 152.210282 152.779847 
L 151.559672 152.779847 
L 150.909062 152.779847 
L 150.258451 152.779847 
L 149.607841 152.779847 
L 148.957231 152.779847 
L 148.306621 152.779847 
L 147.65601 152.779847 
L 147.0054 152.779847 
L 146.35479 152.779848 
L 145.704179 152.779848 
L 145.053569 152.779848 
L 144.402959 152.779848 
L 143.752348 152.779848 
L 143.101738 152.779848 
L 142.451128 152.779848 
L 141.800517 152.779848 
L 141.149907 152.779848 
L 140.499297 152.779848 
L 139.848686 152.779848 
L 139.198076 152.779848 
L 138.547466 152.779848 
L 137.896856 152.779848 
L 137.246245 152.779848 
L 136.595635 152.779848 
L 135.945025 152.779848 
L 135.294414 152.779848 
L 134.643804 152.779848 
L 133.993194 152.779848 
L 133.342583 152.779848 
L 132.691973 152.779848 
L 132.041363 152.779848 
L 131.390752 152.779848 
L 130.740142 152.779848 
L 130.089532 152.779848 
L 129.438921 152.779848 
L 128.788311 152.779848 
L 128.137701 152.779848 
L 127.487091 152.779848 
L 126.83648 152.779848 
L 126.18587 152.779848 
L 125.53526 152.779848 
L 124.884649 152.779848 
L 124.234039 152.779848 
L 123.583429 152.779848 
L 122.932818 152.779848 
L 122.282208 152.779848 
L 121.631598 152.779848 
L 120.980987 152.779848 
L 120.330377 152.779848 
L 119.679767 152.779847 
L 119.029156 152.779847 
L 118.378546 152.779847 
L 117.727936 152.779847 
L 117.077326 152.779847 
L 116.426715 152.779847 
L 115.776105 152.779847 
L 115.125495 152.779847 
L 114.474884 152.779847 
L 113.824274 152.779847 
L 113.173664 152.779847 
L 112.523053 152.779847 
L 111.872443 152.779847 
L 111.221833 152.779847 
L 110.571222 152.779847 
L 109.920612 152.779847 
L 109.270002 152.779847 
L 108.619392 152.779847 
L 107.968781 152.779848 
L 107.318171 152.779848 
L 106.667561 152.779848 
L 106.01695 152.779848 
L 105.36634 152.779848 
L 104.71573 152.779848 
L 104.065119 152.779848 
L 103.414509 152.779848 
L 102.763899 152.779848 
L 102.113288 152.779847 
L 101.462678 152.779847 
L 100.812068 152.779847 
L 100.161457 152.779847 
L 99.510847 152.779847 
L 98.860237 152.779847 
L 98.209627 152.779847 
L 97.559016 152.779847 
L 96.908406 152.779847 
L 96.257796 152.779846 
L 95.607185 152.779846 
L 94.956575 152.779846 
L 94.305965 152.779846 
L 93.655354 152.779845 
L 93.004744 152.779844 
L 92.354134 152.779844 
L 91.703523 152.779843 
L 91.052913 152.779842 
L 90.402303 152.779841 
L 89.751692 152.77984 
L 89.101082 152.779839 
L 88.450472 152.779839 
L 87.799862 152.779838 
L 87.149251 152.779837 
L 86.498641 152.779836 
L 85.848031 152.779835 
L 85.19742 152.779835 
L 84.54681 152.779834 
L 83.8962 152.779831 
L 83.245589 152.779827 
L 82.594979 152.779824 
L 81.944369 152.779821 
L 81.293758 152.779817 
L 80.643148 152.779814 
L 79.992538 152.779811 
L 79.341927 152.779807 
L 78.691317 152.779804 
L 78.040707 152.779801 
L 77.390097 152.779797 
L 76.739486 152.779794 
L 76.088876 152.779791 
L 75.438266 152.779787 
L 74.787655 152.779784 
L 74.137045 152.779786 
L 73.486435 152.77979 
L 72.835824 152.779794 
L 72.185214 152.779799 
L 71.534604 152.779803 
L 70.883993 152.779807 
L 70.233383 152.779811 
L 69.582773 152.779815 
L 68.932163 152.77982 
L 68.281552 152.779824 
L 67.630942 152.779828 
L 66.980332 152.779832 
L 66.329721 152.779836 
L 65.679111 152.77984 
L 65.028501 152.779845 
L 64.37789 152.779846 
L 63.72728 152.779847 
L 63.07667 152.779847 
L 62.426059 152.779847 
L 61.775449 152.779847 
L 61.124839 152.779847 
L 60.474228 152.779847 
L 59.823618 152.779847 
L 59.173008 152.779847 
L 58.522398 152.779847 
L 57.871787 152.779848 
L 57.221177 152.779848 
L 56.570567 152.779848 
L 55.919956 152.779848 
L 55.269346 152.779848 
L 54.618736 152.779848 
L 53.968125 152.779848 
L 53.317515 152.779848 
L 52.666905 152.779848 
L 52.016294 152.779848 
L 51.365684 152.779848 
L 50.715074 152.779848 
L 50.064463 152.779848 
L 49.413853 152.779848 
L 48.763243 152.779848 
L 48.112633 152.779848 
L 47.462022 152.779847 
L 46.811412 152.779847 
L 46.160802 152.779847 
L 45.510191 152.779847 
L 44.859581 152.769596 
L 44.208971 152.730353 
L 43.55836 152.691111 
L 42.90775 152.651868 
L 42.25714 152.612626 
L 41.606529 152.573383 
L 40.955919 152.534141 
L 40.305309 152.494899 
L 39.654698 152.455656 
L 39.004088 152.416414 
L 38.353478 152.377171 
L 37.702868 152.337929 
L 37.052257 152.298686 
L 36.401647 152.259444 
L 35.751037 152.220202 
L 35.100426 152.189064 
L 34.449816 152.228294 
L 33.799206 152.267523 
L 33.148595 152.306753 
L 32.497985 152.345983 
L 31.847375 152.385213 
L 31.196764 152.424443 
L 30.546154 152.463673 
L 29.895544 152.502903 
L 29.244934 152.542132 
L 28.594323 152.581362 
L 27.943713 152.620592 
L 27.293103 152.659822 
L 26.642492 152.699052 
L 25.991882 152.738282 
L 25.341272 152.777511 
L 24.690661 152.779663 
L 24.040051 152.77967 
L 23.389441 152.779677 
L 22.73883 152.779684 
L 22.08822 152.779691 
L 21.43761 152.779698 
L 20.786999 152.779705 
L 20.136389 152.779712 
L 19.485779 152.779719 
L 18.835169 152.779726 
L 18.184558 152.779733 
L 17.533948 152.77974 
L 16.883338 152.779747 
L 16.232727 152.779755 
z
" style="fill:#f6ed22;fill-opacity:0.3;"/>
   </g>
   <g id="PolyCollection_3">
    <path clip-path="url(#pf11ea94033)" d="M 16.232727 113.332255 
L 16.232727 152.779848 
L 16.883338 152.779848 
L 17.533948 152.779848 
L 18.184558 152.779848 
L 18.835169 152.779848 
L 19.485779 152.779848 
L 20.136389 152.779848 
L 20.786999 152.779848 
L 21.43761 152.779848 
L 22.08822 152.779848 
L 22.73883 152.779848 
L 23.389441 152.779848 
L 24.040051 152.779848 
L 24.690661 152.779848 
L 25.341272 152.779848 
L 25.991882 152.779848 
L 26.642492 152.779848 
L 27.293103 152.779848 
L 27.943713 152.779848 
L 28.594323 152.779848 
L 29.244934 152.779848 
L 29.895544 152.779848 
L 30.546154 152.779848 
L 31.196764 152.779848 
L 31.847375 152.779848 
L 32.497985 152.779848 
L 33.148595 152.779848 
L 33.799206 152.779848 
L 34.449816 152.779848 
L 35.100426 152.779848 
L 35.751037 152.779848 
L 36.401647 152.779848 
L 37.052257 152.779848 
L 37.702868 152.779848 
L 38.353478 152.779848 
L 39.004088 152.779848 
L 39.654698 152.779848 
L 40.305309 152.779848 
L 40.955919 152.779848 
L 41.606529 152.779848 
L 42.25714 152.779848 
L 42.90775 152.779848 
L 43.55836 152.779848 
L 44.208971 152.779848 
L 44.859581 152.779848 
L 45.510191 152.779848 
L 46.160802 152.779848 
L 46.811412 152.779848 
L 47.462022 152.779848 
L 48.112633 152.779848 
L 48.763243 152.779848 
L 49.413853 152.779848 
L 50.064463 152.779848 
L 50.715074 152.779848 
L 51.365684 152.779848 
L 52.016294 152.779848 
L 52.666905 152.779848 
L 53.317515 152.779848 
L 53.968125 152.779848 
L 54.618736 152.779848 
L 55.269346 152.779848 
L 55.919956 152.779848 
L 56.570567 152.779848 
L 57.221177 152.779848 
L 57.871787 152.779848 
L 58.522398 152.779848 
L 59.173008 152.779848 
L 59.823618 152.779848 
L 60.474228 152.779848 
L 61.124839 152.779848 
L 61.775449 152.779848 
L 62.426059 152.779848 
L 63.07667 152.779848 
L 63.72728 152.779848 
L 64.37789 152.779848 
L 65.028501 152.779848 
L 65.679111 152.779848 
L 66.329721 152.779848 
L 66.980332 152.779848 
L 67.630942 152.779848 
L 68.281552 152.779848 
L 68.932163 152.779848 
L 69.582773 152.779848 
L 70.233383 152.779848 
L 70.883993 152.779848 
L 71.534604 152.779848 
L 72.185214 152.779848 
L 72.835824 152.779848 
L 73.486435 152.779848 
L 74.137045 152.779848 
L 74.787655 152.779848 
L 75.438266 152.779848 
L 76.088876 152.779848 
L 76.739486 152.779848 
L 77.390097 152.779848 
L 78.040707 152.779848 
L 78.691317 152.779848 
L 79.341927 152.779848 
L 79.992538 152.779848 
L 80.643148 152.779848 
L 81.293758 152.779848 
L 81.944369 152.779848 
L 82.594979 152.779848 
L 83.245589 152.779848 
L 83.8962 152.779848 
L 84.54681 152.779848 
L 85.19742 152.779848 
L 85.848031 152.779848 
L 86.498641 152.779848 
L 87.149251 152.779848 
L 87.799862 152.779848 
L 88.450472 152.779848 
L 89.101082 152.779848 
L 89.751692 152.779848 
L 90.402303 152.779848 
L 91.052913 152.779848 
L 91.703523 152.779848 
L 92.354134 152.779848 
L 93.004744 152.779848 
L 93.655354 152.779848 
L 94.305965 152.779848 
L 94.956575 152.779848 
L 95.607185 152.779848 
L 96.257796 152.779848 
L 96.908406 152.779848 
L 97.559016 152.779848 
L 98.209627 152.779848 
L 98.860237 152.779848 
L 99.510847 152.779848 
L 100.161457 152.779848 
L 100.812068 152.779848 
L 101.462678 152.779848 
L 102.113288 152.779848 
L 102.763899 152.779848 
L 103.414509 152.779848 
L 104.065119 152.779848 
L 104.71573 152.779848 
L 105.36634 152.779848 
L 106.01695 152.779848 
L 106.667561 152.779848 
L 107.318171 152.779848 
L 107.968781 152.779848 
L 108.619392 152.779848 
L 109.270002 152.779848 
L 109.920612 152.779848 
L 110.571222 152.779848 
L 111.221833 152.779848 
L 111.872443 152.779848 
L 112.523053 152.779848 
L 113.173664 152.779848 
L 113.824274 152.779848 
L 114.474884 152.779848 
L 115.125495 152.779848 
L 115.776105 152.779848 
L 116.426715 152.779848 
L 117.077326 152.779848 
L 117.727936 152.779848 
L 118.378546 152.779848 
L 119.029156 152.779848 
L 119.679767 152.779848 
L 120.330377 152.779848 
L 120.980987 152.779848 
L 121.631598 152.779848 
L 122.282208 152.779848 
L 122.932818 152.779848 
L 123.583429 152.779848 
L 124.234039 152.779848 
L 124.884649 152.779848 
L 125.53526 152.779848 
L 126.18587 152.779848 
L 126.83648 152.779848 
L 127.487091 152.779848 
L 128.137701 152.779848 
L 128.788311 152.779848 
L 129.438921 152.779848 
L 130.089532 152.779848 
L 130.740142 152.779848 
L 131.390752 152.779848 
L 132.041363 152.779848 
L 132.691973 152.779848 
L 133.342583 152.779848 
L 133.993194 152.779848 
L 134.643804 152.779848 
L 135.294414 152.779848 
L 135.945025 152.779848 
L 136.595635 152.779848 
L 137.246245 152.779848 
L 137.896856 152.779848 
L 138.547466 152.779848 
L 139.198076 152.779848 
L 139.848686 152.779848 
L 140.499297 152.779848 
L 141.149907 152.779848 
L 141.800517 152.779848 
L 142.451128 152.779848 
L 143.101738 152.779848 
L 143.752348 152.779848 
L 144.402959 152.779848 
L 145.053569 152.779848 
L 145.704179 152.779848 
L 146.35479 152.779848 
L 147.0054 152.779848 
L 147.65601 152.779848 
L 148.306621 152.779848 
L 148.957231 152.779848 
L 149.607841 152.779848 
L 150.258451 152.779848 
L 150.909062 152.779848 
L 151.559672 152.779848 
L 152.210282 152.779848 
L 152.860893 152.779848 
L 153.511503 152.779848 
L 154.162113 152.779848 
L 154.812724 152.779848 
L 155.463334 152.779848 
L 156.113944 152.779848 
L 156.764555 152.779848 
L 157.415165 152.779848 
L 158.065775 152.779848 
L 158.716385 152.779848 
L 159.366996 152.779848 
L 160.017606 152.779848 
L 160.668216 152.779848 
L 161.318827 152.779848 
L 161.969437 152.779848 
L 162.620047 152.779848 
L 163.270658 152.779848 
L 163.921268 152.779848 
L 164.571878 152.779848 
L 165.222489 152.779848 
L 165.873099 152.779848 
L 166.523709 152.779848 
L 167.17432 152.779848 
L 167.82493 152.779848 
L 168.47554 152.779848 
L 169.12615 152.779848 
L 169.776761 152.779848 
L 170.427371 152.779848 
L 171.077981 152.779848 
L 171.728592 152.779848 
L 172.379202 152.779848 
L 173.029812 152.779848 
L 173.680423 152.779848 
L 174.331033 152.779848 
L 174.981643 152.779848 
L 175.632254 152.779848 
L 176.282864 152.779848 
L 176.933474 152.779848 
L 177.584085 152.779848 
L 178.234695 152.779848 
L 178.885305 152.779848 
L 179.535915 152.779848 
L 180.186526 152.779848 
L 180.837136 152.779848 
L 181.487746 152.779848 
L 182.138357 152.779848 
L 182.788967 152.779848 
L 183.439577 152.779848 
L 184.090188 152.779848 
L 184.740798 152.779848 
L 185.391408 152.779848 
L 186.042019 152.779848 
L 186.692629 152.779848 
L 187.343239 152.779848 
L 187.99385 152.779848 
L 188.64446 152.779848 
L 189.29507 152.779848 
L 189.94568 152.779848 
L 190.596291 152.779848 
L 191.246901 152.779848 
L 191.897511 152.779848 
L 192.548122 152.779848 
L 193.198732 152.779848 
L 193.849342 152.779848 
L 194.499953 152.779848 
L 195.150563 152.779848 
L 195.801173 152.779848 
L 196.451784 152.779848 
L 197.102394 152.779848 
L 197.753004 152.779848 
L 198.403615 152.779848 
L 199.054225 152.779848 
L 199.704835 152.779848 
L 200.355445 152.779848 
L 201.006056 152.779848 
L 201.656666 152.779848 
L 202.307276 152.779848 
L 202.957887 152.779848 
L 203.608497 152.779848 
L 204.259107 152.779848 
L 204.909718 152.779848 
L 205.560328 152.779848 
L 206.210938 152.779848 
L 206.861549 152.779848 
L 207.512159 152.779848 
L 208.162769 152.779848 
L 208.813379 152.779848 
L 209.46399 152.779848 
L 210.1146 152.779848 
L 210.76521 152.779848 
L 211.415821 152.779848 
L 212.066431 152.779848 
L 212.717041 152.779848 
L 213.367652 152.779848 
L 214.018262 152.779848 
L 214.668872 152.779848 
L 215.319483 152.779848 
L 215.970093 152.779848 
L 216.620703 152.779848 
L 217.271314 152.779848 
L 217.921924 152.779848 
L 218.572534 152.779848 
L 219.223144 152.779848 
L 219.873755 152.779848 
L 220.524365 152.779848 
L 221.174975 152.779848 
L 221.825586 152.779848 
L 222.476196 152.779848 
L 223.126806 152.779848 
L 223.777417 152.779848 
L 224.428027 152.779848 
L 225.078637 152.779848 
L 225.729248 152.779848 
L 226.379858 152.779848 
L 227.030468 152.779848 
L 227.681079 152.779848 
L 228.331689 152.779848 
L 228.982299 152.779848 
L 229.632909 152.779848 
L 230.28352 152.779848 
L 230.93413 152.779848 
L 231.58474 152.779848 
L 232.235351 152.779848 
L 232.885961 152.779848 
L 233.536571 152.779848 
L 234.187182 152.779848 
L 234.837792 152.779848 
L 235.488402 152.779848 
L 236.139013 152.779848 
L 236.789623 152.779848 
L 237.440233 152.779848 
L 238.090844 152.779848 
L 238.741454 152.779848 
L 239.392064 152.779848 
L 240.042674 152.779848 
L 240.693285 152.779848 
L 241.343895 152.779848 
L 241.994505 152.779848 
L 242.645116 152.779848 
L 243.295726 152.779848 
L 243.946336 152.779848 
L 244.596947 152.779848 
L 245.247557 152.779848 
L 245.898167 152.779848 
L 246.548778 152.779848 
L 247.199388 152.779848 
L 247.849998 152.779848 
L 248.500608 152.779848 
L 249.151219 152.779848 
L 249.801829 152.779848 
L 250.452439 152.779848 
L 251.10305 152.779848 
L 251.75366 152.779848 
L 252.40427 152.779848 
L 253.054881 152.779848 
L 253.705491 152.779848 
L 254.356101 152.779848 
L 255.006712 152.779848 
L 255.657322 152.779848 
L 256.307932 152.779848 
L 256.958543 152.779848 
L 257.609153 152.779848 
L 258.259763 152.779848 
L 258.910373 152.779848 
L 259.560984 152.779848 
L 260.211594 152.779848 
L 260.862204 152.779848 
L 261.512815 152.779848 
L 262.163425 152.779848 
L 262.814035 152.779848 
L 263.464646 152.779848 
L 264.115256 152.779848 
L 264.765866 152.779848 
L 265.416477 152.779848 
L 266.067087 152.779848 
L 266.717697 152.779848 
L 267.368308 152.779848 
L 268.018918 152.779848 
L 268.669528 152.779848 
L 269.320138 152.779848 
L 269.970749 152.779848 
L 270.621359 152.779848 
L 271.271969 152.779848 
L 271.92258 152.779848 
L 272.57319 152.779848 
L 273.2238 152.779848 
L 273.874411 152.779848 
L 274.525021 152.779848 
L 275.175631 152.779848 
L 275.826242 152.779848 
L 276.476852 152.779848 
L 277.127462 152.779848 
L 277.778073 152.779848 
L 278.428683 152.779848 
L 279.079293 152.779848 
L 279.729903 152.779848 
L 280.380514 152.779848 
L 281.031124 152.779848 
L 281.681734 152.779848 
L 282.332345 152.779848 
L 282.982955 152.779848 
L 283.633565 152.779848 
L 284.284176 152.779848 
L 284.934786 152.779848 
L 285.585396 152.779848 
L 286.236007 152.779848 
L 286.886617 152.779848 
L 287.537227 152.779848 
L 288.187837 152.779848 
L 288.838448 152.779848 
L 289.489058 152.779848 
L 290.139668 152.779848 
L 290.790279 152.779848 
L 291.440889 152.779848 
L 292.091499 152.779848 
L 292.74211 152.779848 
L 293.39272 152.779848 
L 294.04333 152.779848 
L 294.693941 152.779848 
L 295.344551 152.779848 
L 295.995161 152.779848 
L 296.645772 152.779848 
L 297.296382 152.779848 
L 297.946992 152.779848 
L 298.597602 152.779848 
L 299.248213 152.779848 
L 299.898823 152.779848 
L 300.549433 152.779848 
L 301.200044 152.779848 
L 301.850654 152.779848 
L 302.501264 152.779848 
L 303.151875 152.779848 
L 303.802485 152.779848 
L 304.453095 152.779848 
L 305.103706 152.779848 
L 305.754316 152.779848 
L 306.404926 152.779848 
L 307.055537 152.779848 
L 307.706147 152.779848 
L 308.356757 152.779848 
L 309.007367 152.779848 
L 309.657978 152.779848 
L 310.308588 152.779848 
L 310.959198 152.779848 
L 311.609809 152.779848 
L 312.260419 152.779848 
L 312.911029 152.779848 
L 313.56164 152.779848 
L 314.21225 152.779848 
L 314.86286 152.779848 
L 315.513471 152.779848 
L 316.164081 152.779848 
L 316.814691 152.779848 
L 317.465302 152.779848 
L 318.115912 152.779848 
L 318.766522 152.779848 
L 319.417132 152.779848 
L 320.067743 152.779848 
L 320.718353 152.779848 
L 321.368963 152.779848 
L 322.019574 152.779848 
L 322.670184 152.779848 
L 323.320794 152.779848 
L 323.971405 152.779848 
L 324.622015 152.779848 
L 325.272625 152.779848 
L 325.923236 152.779848 
L 326.573846 152.779848 
L 327.224456 152.779848 
L 327.875066 152.779848 
L 328.525677 152.779848 
L 329.176287 152.779848 
L 329.826897 152.779848 
L 330.477508 152.779848 
L 331.128118 152.779848 
L 331.778728 152.779848 
L 332.429339 152.779848 
L 333.079949 152.779848 
L 333.730559 152.779848 
L 334.38117 152.779848 
L 335.03178 152.779848 
L 335.68239 152.779848 
L 336.333001 152.779848 
L 336.983611 152.779848 
L 337.634221 152.779848 
L 338.284831 152.779848 
L 338.935442 152.779848 
L 339.586052 152.779848 
L 340.236662 152.779848 
L 340.887273 152.779848 
L 340.887273 113.332152 
L 340.887273 113.332152 
L 340.236662 113.332152 
L 339.586052 113.332152 
L 338.935442 113.332152 
L 338.284831 113.332152 
L 337.634221 113.332152 
L 336.983611 113.332152 
L 336.333001 113.332152 
L 335.68239 113.332152 
L 335.03178 113.332152 
L 334.38117 113.332152 
L 333.730559 113.332152 
L 333.079949 113.332152 
L 332.429339 113.332152 
L 331.778728 113.332152 
L 331.128118 113.332152 
L 330.477508 113.332152 
L 329.826897 113.332152 
L 329.176287 113.332152 
L 328.525677 113.332152 
L 327.875066 113.332152 
L 327.224456 113.332152 
L 326.573846 113.332152 
L 325.923236 113.332152 
L 325.272625 113.332152 
L 324.622015 113.332152 
L 323.971405 113.332152 
L 323.320794 113.332152 
L 322.670184 113.332152 
L 322.019574 113.332152 
L 321.368963 113.332152 
L 320.718353 113.332152 
L 320.067743 113.332152 
L 319.417132 113.332152 
L 318.766522 113.332152 
L 318.115912 113.332152 
L 317.465302 113.332152 
L 316.814691 113.332152 
L 316.164081 113.332152 
L 315.513471 113.332152 
L 314.86286 113.332152 
L 314.21225 113.332152 
L 313.56164 113.332152 
L 312.911029 113.332152 
L 312.260419 113.332152 
L 311.609809 113.332152 
L 310.959198 113.332152 
L 310.308588 113.332152 
L 309.657978 113.332152 
L 309.007367 113.332152 
L 308.356757 113.332152 
L 307.706147 113.332152 
L 307.055537 113.332152 
L 306.404926 113.332152 
L 305.754316 113.332152 
L 305.103706 113.332152 
L 304.453095 113.332152 
L 303.802485 113.332152 
L 303.151875 113.332152 
L 302.501264 113.332152 
L 301.850654 113.332152 
L 301.200044 113.332152 
L 300.549433 113.332152 
L 299.898823 113.332152 
L 299.248213 113.332153 
L 298.597602 113.332153 
L 297.946992 113.332153 
L 297.296382 113.332154 
L 296.645772 113.332154 
L 295.995161 113.332154 
L 295.344551 113.332154 
L 294.693941 113.332155 
L 294.04333 113.332155 
L 293.39272 113.332155 
L 292.74211 113.332156 
L 292.091499 113.332156 
L 291.440889 113.332179 
L 290.790279 113.33229 
L 290.139668 113.3324 
L 289.489058 113.33251 
L 288.838448 113.33262 
L 288.187837 113.33273 
L 287.537227 113.33284 
L 286.886617 113.33295 
L 286.236007 113.33306 
L 285.585396 113.333171 
L 284.934786 113.333281 
L 284.284176 113.333391 
L 283.633565 113.333501 
L 282.982955 113.333611 
L 282.332345 113.333721 
L 281.681734 113.333826 
L 281.031124 113.333825 
L 280.380514 113.333824 
L 279.729903 113.333824 
L 279.079293 113.333823 
L 278.428683 113.333823 
L 277.778073 113.333822 
L 277.127462 113.333821 
L 276.476852 113.333821 
L 275.826242 113.33382 
L 275.175631 113.333819 
L 274.525021 113.333819 
L 273.874411 113.333818 
L 273.2238 113.333818 
L 272.57319 113.333817 
L 271.92258 113.333816 
L 271.271969 115.158219 
L 270.621359 117.198277 
L 269.970749 119.238336 
L 269.320138 121.278394 
L 268.669528 123.318453 
L 268.018918 125.358511 
L 267.368308 127.39857 
L 266.717697 129.438628 
L 266.067087 131.478687 
L 265.416477 133.518746 
L 264.765866 135.558804 
L 264.115256 137.598863 
L 263.464646 139.638921 
L 262.814035 141.67898 
L 262.163425 143.719038 
L 261.512815 142.755247 
L 260.862204 140.715819 
L 260.211594 138.676391 
L 259.560984 136.636963 
L 258.910373 134.597535 
L 258.259763 132.558107 
L 257.609153 130.518679 
L 256.958543 128.479251 
L 256.307932 126.439823 
L 255.657322 124.400395 
L 255.006712 122.360967 
L 254.356101 120.321539 
L 253.705491 118.28211 
L 253.054881 116.242682 
L 252.40427 114.203254 
L 251.75366 114.848116 
L 251.10305 117.449801 
L 250.452439 120.051487 
L 249.801829 122.653172 
L 249.151219 125.254858 
L 248.500608 127.856543 
L 247.849998 130.458228 
L 247.199388 133.059914 
L 246.548778 135.661599 
L 245.898167 138.263284 
L 245.247557 140.86497 
L 244.596947 143.466655 
L 243.946336 146.06834 
L 243.295726 148.670026 
L 242.645116 151.271711 
L 241.994505 152.77962 
L 241.343895 152.779635 
L 240.693285 152.77965 
L 240.042674 152.779665 
L 239.392064 152.77968 
L 238.741454 152.779695 
L 238.090844 152.779709 
L 237.440233 152.779724 
L 236.789623 152.779739 
L 236.139013 152.779754 
L 235.488402 152.779769 
L 234.837792 152.779784 
L 234.187182 152.779799 
L 233.536571 152.779814 
L 232.885961 152.779828 
L 232.235351 152.77984 
L 231.58474 152.77984 
L 230.93413 152.779841 
L 230.28352 152.779841 
L 229.632909 152.779842 
L 228.982299 152.779842 
L 228.331689 152.779843 
L 227.681079 152.779844 
L 227.030468 152.779844 
L 226.379858 152.779845 
L 225.729248 152.779845 
L 225.078637 152.779846 
L 224.428027 152.779846 
L 223.777417 152.779847 
L 223.126806 152.779847 
L 222.476196 152.779848 
L 221.825586 152.779848 
L 221.174975 152.779848 
L 220.524365 152.779848 
L 219.873755 152.779848 
L 219.223144 152.779848 
L 218.572534 152.779848 
L 217.921924 152.779848 
L 217.271314 152.779848 
L 216.620703 152.779847 
L 215.970093 152.779847 
L 215.319483 152.779847 
L 214.668872 152.779847 
L 214.018262 152.779847 
L 213.367652 152.779847 
L 212.717041 152.779847 
L 212.066431 152.779847 
L 211.415821 152.779847 
L 210.76521 152.779847 
L 210.1146 152.779847 
L 209.46399 152.779847 
L 208.813379 152.779847 
L 208.162769 152.779847 
L 207.512159 152.779847 
L 206.861549 152.779847 
L 206.210938 152.779847 
L 205.560328 152.779847 
L 204.909718 152.779847 
L 204.259107 152.779847 
L 203.608497 152.779847 
L 202.957887 152.779848 
L 202.307276 152.779848 
L 201.656666 152.779848 
L 201.006056 152.779848 
L 200.355445 152.779848 
L 199.704835 152.779848 
L 199.054225 152.779848 
L 198.403615 152.779848 
L 197.753004 152.779848 
L 197.102394 152.779848 
L 196.451784 152.779848 
L 195.801173 152.779848 
L 195.150563 152.779848 
L 194.499953 152.779848 
L 193.849342 152.779848 
L 193.198732 152.779848 
L 192.548122 152.779848 
L 191.897511 152.779848 
L 191.246901 152.779848 
L 190.596291 152.779848 
L 189.94568 152.779848 
L 189.29507 152.779848 
L 188.64446 152.779848 
L 187.99385 152.779848 
L 187.343239 152.779848 
L 186.692629 152.779848 
L 186.042019 152.779848 
L 185.391408 152.779848 
L 184.740798 152.779848 
L 184.090188 152.779848 
L 183.439577 152.779848 
L 182.788967 152.779848 
L 182.138357 152.779848 
L 181.487746 152.779848 
L 180.837136 152.779847 
L 180.186526 152.779847 
L 179.535915 152.779847 
L 178.885305 152.779847 
L 178.234695 152.779847 
L 177.584085 152.779847 
L 176.933474 152.779847 
L 176.282864 152.779847 
L 175.632254 152.779847 
L 174.981643 152.779847 
L 174.331033 152.779847 
L 173.680423 152.779847 
L 173.029812 152.288351 
L 172.379202 150.726573 
L 171.728592 149.164794 
L 171.077981 147.603016 
L 170.427371 146.041238 
L 169.776761 144.479459 
L 169.12615 142.917681 
L 168.47554 141.355903 
L 167.82493 139.794124 
L 167.17432 138.232346 
L 166.523709 136.670568 
L 165.873099 135.10879 
L 165.222489 133.547011 
L 164.571878 131.985233 
L 163.921268 130.423455 
L 163.270658 128.943358 
L 162.620047 127.902695 
L 161.969437 126.862033 
L 161.318827 125.82137 
L 160.668216 124.780708 
L 160.017606 123.740046 
L 159.366996 122.699383 
L 158.716385 121.658721 
L 158.065775 120.618058 
L 157.415165 119.577396 
L 156.764555 118.536733 
L 156.113944 117.496071 
L 155.463334 116.455408 
L 154.812724 115.414746 
L 154.162113 114.374083 
L 153.511503 113.333421 
L 152.860893 113.332156 
L 152.210282 113.332156 
L 151.559672 113.332155 
L 150.909062 113.332155 
L 150.258451 113.332155 
L 149.607841 113.332154 
L 148.957231 113.332154 
L 148.306621 113.332154 
L 147.65601 113.332153 
L 147.0054 113.332153 
L 146.35479 113.332153 
L 145.704179 113.332153 
L 145.053569 113.332152 
L 144.402959 113.332152 
L 143.752348 113.332152 
L 143.101738 113.332152 
L 142.451128 113.332152 
L 141.800517 113.332152 
L 141.149907 113.332152 
L 140.499297 113.332152 
L 139.848686 113.332152 
L 139.198076 113.332152 
L 138.547466 113.332152 
L 137.896856 113.332152 
L 137.246245 113.332152 
L 136.595635 113.332152 
L 135.945025 113.332152 
L 135.294414 113.332152 
L 134.643804 113.332152 
L 133.993194 113.332152 
L 133.342583 113.332152 
L 132.691973 113.332152 
L 132.041363 113.332152 
L 131.390752 113.332152 
L 130.740142 113.332152 
L 130.089532 113.332152 
L 129.438921 113.332152 
L 128.788311 113.332152 
L 128.137701 113.332152 
L 127.487091 113.332152 
L 126.83648 113.332152 
L 126.18587 113.332152 
L 125.53526 113.332152 
L 124.884649 113.332152 
L 124.234039 113.332152 
L 123.583429 113.332152 
L 122.932818 113.332152 
L 122.282208 113.332152 
L 121.631598 113.332152 
L 120.980987 113.332152 
L 120.330377 113.332152 
L 119.679767 113.332152 
L 119.029156 113.332152 
L 118.378546 113.332152 
L 117.727936 113.332152 
L 117.077326 113.332152 
L 116.426715 113.332152 
L 115.776105 113.332152 
L 115.125495 113.332152 
L 114.474884 113.332152 
L 113.824274 113.332152 
L 113.173664 113.332152 
L 112.523053 113.332152 
L 111.872443 113.332152 
L 111.221833 113.332152 
L 110.571222 113.332152 
L 109.920612 113.332152 
L 109.270002 113.332152 
L 108.619392 113.332152 
L 107.968781 113.332152 
L 107.318171 113.332152 
L 106.667561 113.332152 
L 106.01695 113.332152 
L 105.36634 113.332152 
L 104.71573 113.332152 
L 104.065119 113.332152 
L 103.414509 113.332152 
L 102.763899 113.332152 
L 102.113288 113.332153 
L 101.462678 113.332153 
L 100.812068 113.332153 
L 100.161457 113.332153 
L 99.510847 113.332154 
L 98.860237 113.332154 
L 98.209627 113.332154 
L 97.559016 113.332155 
L 96.908406 113.332155 
L 96.257796 113.332155 
L 95.607185 113.332156 
L 94.956575 113.332156 
L 94.305965 113.332156 
L 93.655354 113.332157 
L 93.004744 113.332158 
L 92.354134 113.332159 
L 91.703523 113.33216 
L 91.052913 113.332161 
L 90.402303 113.332162 
L 89.751692 113.332163 
L 89.101082 113.332164 
L 88.450472 113.332165 
L 87.799862 113.332166 
L 87.149251 113.332167 
L 86.498641 113.332167 
L 85.848031 113.332168 
L 85.19742 113.332169 
L 84.54681 113.33217 
L 83.8962 113.332177 
L 83.245589 113.332185 
L 82.594979 113.332193 
L 81.944369 113.332201 
L 81.293758 113.332208 
L 80.643148 113.332216 
L 79.992538 113.332224 
L 79.341927 113.332232 
L 78.691317 113.332239 
L 78.040707 113.332247 
L 77.390097 113.332255 
L 76.739486 113.332263 
L 76.088876 113.33227 
L 75.438266 113.332278 
L 74.787655 113.332286 
L 74.137045 113.332345 
L 73.486435 113.332423 
L 72.835824 113.332501 
L 72.185214 113.332579 
L 71.534604 113.332657 
L 70.883993 113.332735 
L 70.233383 113.332812 
L 69.582773 113.33289 
L 68.932163 113.332968 
L 68.281552 113.333046 
L 67.630942 113.333124 
L 66.980332 113.333202 
L 66.329721 113.33328 
L 65.679111 113.333357 
L 65.028501 113.333435 
L 64.37789 113.333419 
L 63.72728 113.333334 
L 63.07667 113.333248 
L 62.426059 113.333163 
L 61.775449 113.333078 
L 61.124839 113.332992 
L 60.474228 113.332907 
L 59.823618 113.332822 
L 59.173008 113.332737 
L 58.522398 113.332651 
L 57.871787 113.332566 
L 57.221177 113.332481 
L 56.570567 113.332395 
L 55.919956 113.33231 
L 55.269346 113.332225 
L 54.618736 113.332184 
L 53.968125 113.332204 
L 53.317515 113.332224 
L 52.666905 113.332244 
L 52.016294 113.332264 
L 51.365684 113.332284 
L 50.715074 113.332305 
L 50.064463 113.332325 
L 49.413853 113.332345 
L 48.763243 113.332365 
L 48.112633 113.332385 
L 47.462022 113.332405 
L 46.811412 113.332426 
L 46.160802 113.332446 
L 45.510191 113.332466 
L 44.859581 113.342729 
L 44.208971 113.381956 
L 43.55836 113.421184 
L 42.90775 113.460412 
L 42.25714 113.49964 
L 41.606529 113.538868 
L 40.955919 113.578096 
L 40.305309 113.617323 
L 39.654698 113.656551 
L 39.004088 113.695779 
L 38.353478 113.735007 
L 37.702868 113.774235 
L 37.052257 113.813463 
L 36.401647 113.852691 
L 35.751037 113.891918 
L 35.100426 113.923042 
L 34.449816 113.883806 
L 33.799206 113.844569 
L 33.148595 113.805333 
L 32.497985 113.766096 
L 31.847375 113.72686 
L 31.196764 113.687623 
L 30.546154 113.648387 
L 29.895544 113.60915 
L 29.244934 113.569914 
L 28.594323 113.530677 
L 27.943713 113.491441 
L 27.293103 113.452204 
L 26.642492 113.412967 
L 25.991882 113.373731 
L 25.341272 113.334494 
L 24.690661 113.332343 
L 24.040051 113.332336 
L 23.389441 113.332329 
L 22.73883 113.332322 
L 22.08822 113.332316 
L 21.43761 113.332309 
L 20.786999 113.332302 
L 20.136389 113.332295 
L 19.485779 113.332289 
L 18.835169 113.332282 
L 18.184558 113.332275 
L 17.533948 113.332268 
L 16.883338 113.332262 
L 16.232727 113.332255 
z
" style="fill:#f15a24;fill-opacity:0.3;"/>
   </g>
   <g id="PathCollection_1">
    <defs>
     <path d="M 0 1.581139 
C 0.419323 1.581139 0.821528 1.41454 1.118034 1.118034 
C 1.41454 0.821528 1.581139 0.419323 1.581139 -0 
C 1.581139 -0.419323 1.41454 -0.821528 1.118034 -1.118034 
C 0.821528 -1.41454 0.419323 -1.581139 0 -1.581139 
C -0.419323 -1.581139 -0.821528 -1.41454 -1.118034 -1.118034 
C -1.41454 -0.821528 -1.581139 -0.419323 -1.581139 0 
C -1.581139 0.419323 -1.41454 0.821528 -1.118034 1.118034 
C -0.821528 1.41454 -0.419323 1.581139 0 1.581139 
z
" id="C0_0_d6c36caefc"/>
    </defs>
    <g clip-path="url(#pf11ea94033)">
     <use style="fill:#ff0000;stroke:#ff0000;stroke-width:0.5;" x="16.232727" xlink:href="#C0_0_d6c36caefc" y="113.332255"/>
    </g>
    <g clip-path="url(#pf11ea94033)">
     <use style="fill:#ff0000;stroke:#ff0000;stroke-width:0.5;" x="25.305698" xlink:href="#C0_0_d6c36caefc" y="113.332349"/>
    </g>
    <g clip-path="url(#pf11ea94033)">
     <use style="fill:#ff0000;stroke:#ff0000;stroke-width:0.5;" x="35.167622" xlink:href="#C0_0_d6c36caefc" y="113.927095"/>
    </g>
    <g clip-path="url(#pf11ea94033)">
     <use style="fill:#ff0000;stroke:#ff0000;stroke-width:0.5;" x="45.029546" xlink:href="#C0_0_d6c36caefc" y="113.332481"/>
    </g>
    <g clip-path="url(#pf11ea94033)">
     <use style="fill:#ff0000;stroke:#ff0000;stroke-width:0.5;" x="54.89147" xlink:href="#C0_0_d6c36caefc" y="113.332175"/>
    </g>
    <g clip-path="url(#pf11ea94033)">
     <use style="fill:#ff0000;stroke:#ff0000;stroke-width:0.5;" x="64.753394" xlink:href="#C0_0_d6c36caefc" y="113.333468"/>
    </g>
    <g clip-path="url(#pf11ea94033)">
     <use style="fill:#ff0000;stroke:#ff0000;stroke-width:0.5;" x="74.615319" xlink:href="#C0_0_d6c36caefc" y="113.332288"/>
    </g>
    <g clip-path="url(#pf11ea94033)">
     <use style="fill:#ff0000;stroke:#ff0000;stroke-width:0.5;" x="84.477243" xlink:href="#C0_0_d6c36caefc" y="113.33217"/>
    </g>
    <g clip-path="url(#pf11ea94033)">
     <use style="fill:#ff0000;stroke:#ff0000;stroke-width:0.5;" x="94.339167" xlink:href="#C0_0_d6c36caefc" y="113.332156"/>
    </g>
    <g clip-path="url(#pf11ea94033)">
     <use style="fill:#ff0000;stroke:#ff0000;stroke-width:0.5;" x="104.201091" xlink:href="#C0_0_d6c36caefc" y="113.332152"/>
    </g>
    <g clip-path="url(#pf11ea94033)">
     <use style="fill:#ff0000;stroke:#ff0000;stroke-width:0.5;" x="114.063016" xlink:href="#C0_0_d6c36caefc" y="113.332152"/>
    </g>
    <g clip-path="url(#pf11ea94033)">
     <use style="fill:#ff0000;stroke:#ff0000;stroke-width:0.5;" x="123.92494" xlink:href="#C0_0_d6c36caefc" y="113.332152"/>
    </g>
    <g clip-path="url(#pf11ea94033)">
     <use style="fill:#ff0000;stroke:#ff0000;stroke-width:0.5;" x="133.786864" xlink:href="#C0_0_d6c36caefc" y="113.332152"/>
    </g>
    <g clip-path="url(#pf11ea94033)">
     <use style="fill:#ff0000;stroke:#ff0000;stroke-width:0.5;" x="143.648788" xlink:href="#C0_0_d6c36caefc" y="113.332152"/>
    </g>
    <g clip-path="url(#pf11ea94033)">
     <use style="fill:#ff0000;stroke:#ff0000;stroke-width:0.5;" x="153.510712" xlink:href="#C0_0_d6c36caefc" y="113.332156"/>
    </g>
    <g clip-path="url(#pf11ea94033)">
     <use style="fill:#ff0000;stroke:#ff0000;stroke-width:0.5;" x="163.372637" xlink:href="#C0_0_d6c36caefc" y="129.106475"/>
    </g>
    <g clip-path="url(#pf11ea94033)">
     <use style="fill:#008000;stroke:#008000;stroke-width:0.5;" x="173.234561" xlink:href="#C0_0_d6c36caefc" y="113.332156"/>
    </g>
    <g clip-path="url(#pf11ea94033)">
     <use style="fill:#008000;stroke:#008000;stroke-width:0.5;" x="183.096485" xlink:href="#C0_0_d6c36caefc" y="113.332152"/>
    </g>
    <g clip-path="url(#pf11ea94033)">
     <use style="fill:#008000;stroke:#008000;stroke-width:0.5;" x="192.958409" xlink:href="#C0_0_d6c36caefc" y="113.332152"/>
    </g>
    <g clip-path="url(#pf11ea94033)">
     <use style="fill:#008000;stroke:#008000;stroke-width:0.5;" x="202.820334" xlink:href="#C0_0_d6c36caefc" y="113.332152"/>
    </g>
    <g clip-path="url(#pf11ea94033)">
     <use style="fill:#008000;stroke:#008000;stroke-width:0.5;" x="212.682258" xlink:href="#C0_0_d6c36caefc" y="113.332152"/>
    </g>
    <g clip-path="url(#pf11ea94033)">
     <use style="fill:#008000;stroke:#008000;stroke-width:0.5;" x="222.544182" xlink:href="#C0_0_d6c36caefc" y="113.332156"/>
    </g>
    <g clip-path="url(#pf11ea94033)">
     <use style="fill:#ffff00;stroke:#ffff00;stroke-width:0.5;" x="232.406106" xlink:href="#C0_0_d6c36caefc" y="113.528007"/>
    </g>
    <g clip-path="url(#pf11ea94033)">
     <use style="fill:#ffff00;stroke:#ffff00;stroke-width:0.5;" x="242.26803" xlink:href="#C0_0_d6c36caefc" y="113.332899"/>
    </g>
    <g clip-path="url(#pf11ea94033)">
     <use style="fill:#ff0000;stroke:#ff0000;stroke-width:0.5;" x="252.129955" xlink:href="#C0_0_d6c36caefc" y="113.343374"/>
    </g>
    <g clip-path="url(#pf11ea94033)">
     <use style="fill:#ffff00;stroke:#ffff00;stroke-width:0.5;" x="261.991879" xlink:href="#C0_0_d6c36caefc" y="121.855169"/>
    </g>
    <g clip-path="url(#pf11ea94033)">
     <use style="fill:#ff0000;stroke:#ff0000;stroke-width:0.5;" x="271.853803" xlink:href="#C0_0_d6c36caefc" y="113.333816"/>
    </g>
    <g clip-path="url(#pf11ea94033)">
     <use style="fill:#ff0000;stroke:#ff0000;stroke-width:0.5;" x="281.715727" xlink:href="#C0_0_d6c36caefc" y="113.333826"/>
    </g>
    <g clip-path="url(#pf11ea94033)">
     <use style="fill:#ff0000;stroke:#ff0000;stroke-width:0.5;" x="291.577652" xlink:href="#C0_0_d6c36caefc" y="113.332156"/>
    </g>
    <g clip-path="url(#pf11ea94033)">
     <use style="fill:#ff0000;stroke:#ff0000;stroke-width:0.5;" x="301.439576" xlink:href="#C0_0_d6c36caefc" y="113.332152"/>
    </g>
    <g clip-path="url(#pf11ea94033)">
     <use style="fill:#ff0000;stroke:#ff0000;stroke-width:0.5;" x="311.3015" xlink:href="#C0_0_d6c36caefc" y="113.332152"/>
    </g>
    <g clip-path="url(#pf11ea94033)">
     <use style="fill:#ff0000;stroke:#ff0000;stroke-width:0.5;" x="321.163424" xlink:href="#C0_0_d6c36caefc" y="113.332152"/>
    </g>
    <g clip-path="url(#pf11ea94033)">
     <use style="fill:#ff0000;stroke:#ff0000;stroke-width:0.5;" x="331.025349" xlink:href="#C0_0_d6c36caefc" y="113.332152"/>
    </g>
    <g clip-path="url(#pf11ea94033)">
     <use style="fill:#ff0000;stroke:#ff0000;stroke-width:0.5;" x="340.887273" xlink:href="#C0_0_d6c36caefc" y="113.332152"/>
    </g>
   </g>
   <g id="line2d_1">
    <path clip-path="url(#pf11ea94033)" d="M 16.232727 152.779841 
L 153.511503 152.778578 
L 163.270658 137.168744 
L 165.873099 131.003288 
L 173.029812 113.823654 
L 173.680423 113.332156 
L 222.476196 113.332156 
L 223.777417 118.240604 
L 232.235351 151.904371 
L 232.885961 152.593507 
L 247.849998 152.779618 
L 340.887273 152.779848 
L 340.887273 152.779848 
" style="fill:none;stroke:#61c46e;stroke-linecap:square;"/>
   </g>
   <g id="line2d_2">
    <path clip-path="url(#pf11ea94033)" d="M 16.232727 152.779755 
L 26.642492 152.699052 
L 35.751037 152.220202 
L 46.811412 152.779847 
L 222.476196 152.779845 
L 223.777417 147.871398 
L 232.235351 114.207639 
L 232.885961 113.518514 
L 241.994505 113.338311 
L 242.645116 114.840783 
L 251.75366 151.263918 
L 252.40427 151.908762 
L 261.512815 123.356857 
L 262.163425 122.393068 
L 271.92258 152.778182 
L 340.887273 152.779848 
L 340.887273 152.779848 
" style="fill:none;stroke:#f6ed22;stroke-linecap:square;"/>
   </g>
   <g id="line2d_3">
    <path clip-path="url(#pf11ea94033)" d="M 16.232727 113.332255 
L 26.642492 113.412967 
L 35.751037 113.891918 
L 46.811412 113.332426 
L 153.511503 113.333421 
L 163.270658 128.943358 
L 165.873099 135.10879 
L 173.029812 152.288351 
L 173.680423 152.779847 
L 241.994505 152.77962 
L 242.645116 151.271711 
L 251.75366 114.848116 
L 252.40427 114.203254 
L 261.512815 142.755247 
L 262.163425 143.719038 
L 271.92258 113.333816 
L 340.887273 113.332152 
L 340.887273 113.332152 
" style="fill:none;stroke:#f15a24;stroke-linecap:square;"/>
   </g>
  </g>
 </g>
 <defs>
  <clipPath id="pf11ea94033">
   <rect height="266.112" width="357.12" x="0" y="-0"/>
  </clipPath>
 </defs>
</svg>
