<?xml version="1.0" encoding="utf-8" standalone="no"?>
<!DOCTYPE svg PUBLIC "-//W3C//DTD SVG 1.1//EN"
  "http://www.w3.org/Graphics/SVG/1.1/DTD/svg11.dtd">
<svg height="266.112pt" version="1.1" viewBox="0 0 357.12 266.112" width="357.12pt" xmlns="http://www.w3.org/2000/svg" xmlns:xlink="http://www.w3.org/1999/xlink">
 <metadata>
  <rdf:RDF xmlns:cc="http://creativecommons.org/ns#" xmlns:dc="http://purl.org/dc/elements/1.1/" xmlns:rdf="http://www.w3.org/1999/02/22-rdf-syntax-ns#">
   <cc:Work>
    <dc:type rdf:resource="http://purl.org/dc/dcmitype/StillImage"/>
    <dc:date>2022-03-05T14:44:25.990366</dc:date>
    <dc:format>image/svg+xml</dc:format>
    <dc:creator>
     <cc:Agent>
      <dc:title>Matplotlib v3.4.2, https://matplotlib.org/</dc:title>
     </cc:Agent>
    </dc:creator>
   </cc:Work>
  </rdf:RDF>
 </metadata>
 <defs>
  <style type="text/css">*{stroke-linecap:butt;stroke-linejoin:round;}</style>
 </defs>
 <g id="figure_1">
  <g id="patch_1">
   <path d="M 0 266.112 
L 357.12 266.112 
L 357.12 0 
L 0 0 
z
" style="fill:#ffffff;"/>
  </g>
  <g id="axes_1">
   <g id="PolyCollection_1">
    <path clip-path="url(#p9688cb4016)" d="M 16.232727 115.663969 
L 16.232727 160.7569 
L 16.883338 160.7569 
L 17.533948 160.7569 
L 18.184558 160.7569 
L 18.835169 160.7569 
L 19.485779 160.7569 
L 20.136389 160.7569 
L 20.786999 160.7569 
L 21.43761 160.7569 
L 22.08822 160.7569 
L 22.73883 160.7569 
L 23.389441 160.7569 
L 24.040051 160.7569 
L 24.690661 160.7569 
L 25.341272 160.7569 
L 25.991882 160.7569 
L 26.642492 160.7569 
L 27.293103 160.7569 
L 27.943713 160.7569 
L 28.594323 160.7569 
L 29.244934 160.7569 
L 29.895544 160.7569 
L 30.546154 160.7569 
L 31.196764 160.7569 
L 31.847375 160.7569 
L 32.497985 160.7569 
L 33.148595 160.7569 
L 33.799206 160.7569 
L 34.449816 160.7569 
L 35.100426 160.7569 
L 35.751037 160.7569 
L 36.401647 160.7569 
L 37.052257 160.7569 
L 37.702868 160.7569 
L 38.353478 160.7569 
L 39.004088 160.7569 
L 39.654698 160.7569 
L 40.305309 160.7569 
L 40.955919 160.7569 
L 41.606529 160.7569 
L 42.25714 160.7569 
L 42.90775 160.7569 
L 43.55836 160.7569 
L 44.208971 160.7569 
L 44.859581 160.7569 
L 45.510191 160.7569 
L 46.160802 160.7569 
L 46.811412 160.7569 
L 47.462022 160.7569 
L 48.112633 160.7569 
L 48.763243 160.7569 
L 49.413853 160.7569 
L 50.064463 160.7569 
L 50.715074 160.7569 
L 51.365684 160.7569 
L 52.016294 160.7569 
L 52.666905 160.7569 
L 53.317515 160.7569 
L 53.968125 160.7569 
L 54.618736 160.7569 
L 55.269346 160.7569 
L 55.919956 160.7569 
L 56.570567 160.7569 
L 57.221177 160.7569 
L 57.871787 160.7569 
L 58.522398 160.7569 
L 59.173008 160.7569 
L 59.823618 160.7569 
L 60.474228 160.7569 
L 61.124839 160.7569 
L 61.775449 160.7569 
L 62.426059 160.7569 
L 63.07667 160.7569 
L 63.72728 160.7569 
L 64.37789 160.7569 
L 65.028501 160.7569 
L 65.679111 160.7569 
L 66.329721 160.7569 
L 66.980332 160.7569 
L 67.630942 160.7569 
L 68.281552 160.7569 
L 68.932163 160.7569 
L 69.582773 160.7569 
L 70.233383 160.7569 
L 70.883993 160.7569 
L 71.534604 160.7569 
L 72.185214 160.7569 
L 72.835824 160.7569 
L 73.486435 160.7569 
L 74.137045 160.7569 
L 74.787655 160.7569 
L 75.438266 160.7569 
L 76.088876 160.7569 
L 76.739486 160.7569 
L 77.390097 160.7569 
L 78.040707 160.7569 
L 78.691317 160.7569 
L 79.341927 160.7569 
L 79.992538 160.7569 
L 80.643148 160.7569 
L 81.293758 160.7569 
L 81.944369 160.7569 
L 82.594979 160.7569 
L 83.245589 160.7569 
L 83.8962 160.7569 
L 84.54681 160.7569 
L 85.19742 160.7569 
L 85.848031 160.7569 
L 86.498641 160.7569 
L 87.149251 160.7569 
L 87.799862 160.7569 
L 88.450472 160.7569 
L 89.101082 160.7569 
L 89.751692 160.7569 
L 90.402303 160.7569 
L 91.052913 160.7569 
L 91.703523 160.7569 
L 92.354134 160.7569 
L 93.004744 160.7569 
L 93.655354 160.7569 
L 94.305965 160.7569 
L 94.956575 160.7569 
L 95.607185 160.7569 
L 96.257796 160.7569 
L 96.908406 160.7569 
L 97.559016 160.7569 
L 98.209627 160.7569 
L 98.860237 160.7569 
L 99.510847 160.7569 
L 100.161457 160.7569 
L 100.812068 160.7569 
L 101.462678 160.7569 
L 102.113288 160.7569 
L 102.763899 160.7569 
L 103.414509 160.7569 
L 104.065119 160.7569 
L 104.71573 160.7569 
L 105.36634 160.7569 
L 106.01695 160.7569 
L 106.667561 160.7569 
L 107.318171 160.7569 
L 107.968781 160.7569 
L 108.619392 160.7569 
L 109.270002 160.7569 
L 109.920612 160.7569 
L 110.571222 160.7569 
L 111.221833 160.7569 
L 111.872443 160.7569 
L 112.523053 160.7569 
L 113.173664 160.7569 
L 113.824274 160.7569 
L 114.474884 160.7569 
L 115.125495 160.7569 
L 115.776105 160.7569 
L 116.426715 160.7569 
L 117.077326 160.7569 
L 117.727936 160.7569 
L 118.378546 160.7569 
L 119.029156 160.7569 
L 119.679767 160.7569 
L 120.330377 160.7569 
L 120.980987 160.7569 
L 121.631598 160.7569 
L 122.282208 160.7569 
L 122.932818 160.7569 
L 123.583429 160.7569 
L 124.234039 160.7569 
L 124.884649 160.7569 
L 125.53526 160.7569 
L 126.18587 160.7569 
L 126.83648 160.7569 
L 127.487091 160.7569 
L 128.137701 160.7569 
L 128.788311 160.7569 
L 129.438921 160.7569 
L 130.089532 160.7569 
L 130.740142 160.7569 
L 131.390752 160.7569 
L 132.041363 160.7569 
L 132.691973 160.7569 
L 133.342583 160.7569 
L 133.993194 160.7569 
L 134.643804 160.7569 
L 135.294414 160.7569 
L 135.945025 160.7569 
L 136.595635 160.7569 
L 137.246245 160.7569 
L 137.896856 160.7569 
L 138.547466 160.7569 
L 139.198076 160.7569 
L 139.848686 160.7569 
L 140.499297 160.7569 
L 141.149907 160.7569 
L 141.800517 160.7569 
L 142.451128 160.7569 
L 143.101738 160.7569 
L 143.752348 160.7569 
L 144.402959 160.7569 
L 145.053569 160.7569 
L 145.704179 160.7569 
L 146.35479 160.7569 
L 147.0054 160.7569 
L 147.65601 160.7569 
L 148.306621 160.7569 
L 148.957231 160.7569 
L 149.607841 160.7569 
L 150.258451 160.7569 
L 150.909062 160.7569 
L 151.559672 160.7569 
L 152.210282 160.7569 
L 152.860893 160.7569 
L 153.511503 160.7569 
L 154.162113 160.7569 
L 154.812724 160.7569 
L 155.463334 160.7569 
L 156.113944 160.7569 
L 156.764555 160.7569 
L 157.415165 160.7569 
L 158.065775 160.7569 
L 158.716385 160.7569 
L 159.366996 160.7569 
L 160.017606 160.7569 
L 160.668216 160.7569 
L 161.318827 160.7569 
L 161.969437 160.7569 
L 162.620047 160.7569 
L 163.270658 160.7569 
L 163.921268 160.7569 
L 164.571878 160.7569 
L 165.222489 160.7569 
L 165.873099 160.7569 
L 166.523709 160.7569 
L 167.17432 160.7569 
L 167.82493 160.7569 
L 168.47554 160.7569 
L 169.12615 160.7569 
L 169.776761 160.7569 
L 170.427371 160.7569 
L 171.077981 160.7569 
L 171.728592 160.7569 
L 172.379202 160.7569 
L 173.029812 160.7569 
L 173.680423 160.7569 
L 174.331033 160.7569 
L 174.981643 160.7569 
L 175.632254 160.7569 
L 176.282864 160.7569 
L 176.933474 160.7569 
L 177.584085 160.7569 
L 178.234695 160.7569 
L 178.885305 160.7569 
L 179.535915 160.7569 
L 180.186526 160.7569 
L 180.837136 160.7569 
L 181.487746 160.7569 
L 182.138357 160.7569 
L 182.788967 160.7569 
L 183.439577 160.7569 
L 184.090188 160.7569 
L 184.740798 160.7569 
L 185.391408 160.7569 
L 186.042019 160.7569 
L 186.692629 160.7569 
L 187.343239 160.7569 
L 187.99385 160.7569 
L 188.64446 160.7569 
L 189.29507 160.7569 
L 189.94568 160.7569 
L 190.596291 160.7569 
L 191.246901 160.7569 
L 191.897511 160.7569 
L 192.548122 160.7569 
L 193.198732 160.7569 
L 193.849342 160.7569 
L 194.499953 160.7569 
L 195.150563 160.7569 
L 195.801173 160.7569 
L 196.451784 160.7569 
L 197.102394 160.7569 
L 197.753004 160.7569 
L 198.403615 160.7569 
L 199.054225 160.7569 
L 199.704835 160.7569 
L 200.355445 160.7569 
L 201.006056 160.7569 
L 201.656666 160.7569 
L 202.307276 160.7569 
L 202.957887 160.7569 
L 203.608497 160.7569 
L 204.259107 160.7569 
L 204.909718 160.7569 
L 205.560328 160.7569 
L 206.210938 160.7569 
L 206.861549 160.7569 
L 207.512159 160.7569 
L 208.162769 160.7569 
L 208.813379 160.7569 
L 209.46399 160.7569 
L 210.1146 160.7569 
L 210.76521 160.7569 
L 211.415821 160.7569 
L 212.066431 160.7569 
L 212.717041 160.7569 
L 213.367652 160.7569 
L 214.018262 160.7569 
L 214.668872 160.7569 
L 215.319483 160.7569 
L 215.970093 160.7569 
L 216.620703 160.7569 
L 217.271314 160.7569 
L 217.921924 160.7569 
L 218.572534 160.7569 
L 219.223144 160.7569 
L 219.873755 160.7569 
L 220.524365 160.7569 
L 221.174975 160.7569 
L 221.825586 160.7569 
L 222.476196 160.7569 
L 223.126806 160.7569 
L 223.777417 160.7569 
L 224.428027 160.7569 
L 225.078637 160.7569 
L 225.729248 160.7569 
L 226.379858 160.7569 
L 227.030468 160.7569 
L 227.681079 160.7569 
L 228.331689 160.7569 
L 228.982299 160.7569 
L 229.632909 160.7569 
L 230.28352 160.7569 
L 230.93413 160.7569 
L 231.58474 160.7569 
L 232.235351 160.7569 
L 232.885961 160.7569 
L 233.536571 160.7569 
L 234.187182 160.7569 
L 234.837792 160.7569 
L 235.488402 160.7569 
L 236.139013 160.7569 
L 236.789623 160.7569 
L 237.440233 160.7569 
L 238.090844 160.7569 
L 238.741454 160.7569 
L 239.392064 160.7569 
L 240.042674 160.7569 
L 240.693285 160.7569 
L 241.343895 160.7569 
L 241.994505 160.7569 
L 242.645116 160.7569 
L 243.295726 160.7569 
L 243.946336 160.7569 
L 244.596947 160.7569 
L 245.247557 160.7569 
L 245.898167 160.7569 
L 246.548778 160.7569 
L 247.199388 160.7569 
L 247.849998 160.7569 
L 248.500608 160.7569 
L 249.151219 160.7569 
L 249.801829 160.7569 
L 250.452439 160.7569 
L 251.10305 160.7569 
L 251.75366 160.7569 
L 252.40427 160.7569 
L 253.054881 160.7569 
L 253.705491 160.7569 
L 254.356101 160.7569 
L 255.006712 160.7569 
L 255.657322 160.7569 
L 256.307932 160.7569 
L 256.958543 160.7569 
L 257.609153 160.7569 
L 258.259763 160.7569 
L 258.910373 160.7569 
L 259.560984 160.7569 
L 260.211594 160.7569 
L 260.862204 160.7569 
L 261.512815 160.7569 
L 262.163425 160.7569 
L 262.814035 160.7569 
L 263.464646 160.7569 
L 264.115256 160.7569 
L 264.765866 160.7569 
L 265.416477 160.7569 
L 266.067087 160.7569 
L 266.717697 160.7569 
L 267.368308 160.7569 
L 268.018918 160.7569 
L 268.669528 160.7569 
L 269.320138 160.7569 
L 269.970749 160.7569 
L 270.621359 160.7569 
L 271.271969 160.7569 
L 271.92258 160.7569 
L 272.57319 160.7569 
L 273.2238 160.7569 
L 273.874411 160.7569 
L 274.525021 160.7569 
L 275.175631 160.7569 
L 275.826242 160.7569 
L 276.476852 160.7569 
L 277.127462 160.7569 
L 277.778073 160.7569 
L 278.428683 160.7569 
L 279.079293 160.7569 
L 279.729903 160.7569 
L 280.380514 160.7569 
L 281.031124 160.7569 
L 281.681734 160.7569 
L 282.332345 160.7569 
L 282.982955 160.7569 
L 283.633565 160.7569 
L 284.284176 160.7569 
L 284.934786 160.7569 
L 285.585396 160.7569 
L 286.236007 160.7569 
L 286.886617 160.7569 
L 287.537227 160.7569 
L 288.187837 160.7569 
L 288.838448 160.7569 
L 289.489058 160.7569 
L 290.139668 160.7569 
L 290.790279 160.7569 
L 291.440889 160.7569 
L 292.091499 160.7569 
L 292.74211 160.7569 
L 293.39272 160.7569 
L 294.04333 160.7569 
L 294.693941 160.7569 
L 295.344551 160.7569 
L 295.995161 160.7569 
L 296.645772 160.7569 
L 297.296382 160.7569 
L 297.946992 160.7569 
L 298.597602 160.7569 
L 299.248213 160.7569 
L 299.898823 160.7569 
L 300.549433 160.7569 
L 301.200044 160.7569 
L 301.850654 160.7569 
L 302.501264 160.7569 
L 303.151875 160.7569 
L 303.802485 160.7569 
L 304.453095 160.7569 
L 305.103706 160.7569 
L 305.754316 160.7569 
L 306.404926 160.7569 
L 307.055537 160.7569 
L 307.706147 160.7569 
L 308.356757 160.7569 
L 309.007367 160.7569 
L 309.657978 160.7569 
L 310.308588 160.7569 
L 310.959198 160.7569 
L 311.609809 160.7569 
L 312.260419 160.7569 
L 312.911029 160.7569 
L 313.56164 160.7569 
L 314.21225 160.7569 
L 314.86286 160.7569 
L 315.513471 160.7569 
L 316.164081 160.7569 
L 316.814691 160.7569 
L 317.465302 160.7569 
L 318.115912 160.7569 
L 318.766522 160.7569 
L 319.417132 160.7569 
L 320.067743 160.7569 
L 320.718353 160.7569 
L 321.368963 160.7569 
L 322.019574 160.7569 
L 322.670184 160.7569 
L 323.320794 160.7569 
L 323.971405 160.7569 
L 324.622015 160.7569 
L 325.272625 160.7569 
L 325.923236 160.7569 
L 326.573846 160.7569 
L 327.224456 160.7569 
L 327.875066 160.7569 
L 328.525677 160.7569 
L 329.176287 160.7569 
L 329.826897 160.7569 
L 330.477508 160.7569 
L 331.128118 160.7569 
L 331.778728 160.7569 
L 332.429339 160.7569 
L 333.079949 160.7569 
L 333.730559 160.7569 
L 334.38117 160.7569 
L 335.03178 160.7569 
L 335.68239 160.7569 
L 336.333001 160.7569 
L 336.983611 160.7569 
L 337.634221 160.7569 
L 338.284831 160.7569 
L 338.935442 160.7569 
L 339.586052 160.7569 
L 340.236662 160.7569 
L 340.887273 160.7569 
L 340.887273 132.210002 
L 340.887273 132.210002 
L 340.236662 133.024193 
L 339.586052 133.838384 
L 338.935442 134.652575 
L 338.284831 135.466766 
L 337.634221 136.280957 
L 336.983611 137.095148 
L 336.333001 137.909339 
L 335.68239 138.72353 
L 335.03178 139.537721 
L 334.38117 140.351912 
L 333.730559 141.166103 
L 333.079949 141.980294 
L 332.429339 142.794485 
L 331.778728 143.608676 
L 331.128118 144.422867 
L 330.477508 145.237058 
L 329.826897 146.051249 
L 329.176287 146.86544 
L 328.525677 147.679631 
L 327.875066 148.493822 
L 327.224456 149.308013 
L 326.573846 150.122204 
L 325.923236 150.92631 
L 325.272625 150.558568 
L 324.622015 150.190826 
L 323.971405 149.823085 
L 323.320794 149.455343 
L 322.670184 149.087601 
L 322.019574 148.719859 
L 321.368963 148.352117 
L 320.718353 147.984375 
L 320.067743 147.616633 
L 319.417132 147.248891 
L 318.766522 146.881149 
L 318.115912 146.513407 
L 317.465302 146.145665 
L 316.814691 145.777923 
L 316.164081 145.410181 
L 315.513471 145.042439 
L 314.86286 144.674697 
L 314.21225 144.306955 
L 313.56164 143.939213 
L 312.911029 143.571471 
L 312.260419 143.203729 
L 311.609809 142.835987 
L 310.959198 142.855401 
L 310.308588 142.933383 
L 309.657978 143.011365 
L 309.007367 143.089347 
L 308.356757 143.167329 
L 307.706147 143.245311 
L 307.055537 143.323293 
L 306.404926 143.401275 
L 305.754316 143.479257 
L 305.103706 143.557239 
L 304.453095 143.635221 
L 303.802485 143.713203 
L 303.151875 143.791185 
L 302.501264 143.869167 
L 301.850654 143.947149 
L 301.200044 144.025131 
L 300.549433 144.103113 
L 299.898823 144.181095 
L 299.248213 144.259077 
L 298.597602 144.337059 
L 297.946992 144.415041 
L 297.296382 144.493023 
L 296.645772 144.571005 
L 295.995161 144.118924 
L 295.344551 143.592593 
L 294.693941 143.066261 
L 294.04333 142.53993 
L 293.39272 142.013598 
L 292.74211 141.487267 
L 292.091499 140.960935 
L 291.440889 140.434604 
L 290.790279 139.908273 
L 290.139668 139.381941 
L 289.489058 138.85561 
L 288.838448 138.329278 
L 288.187837 137.802947 
L 287.537227 137.276615 
L 286.886617 136.750284 
L 286.236007 136.223953 
L 285.585396 135.697621 
L 284.934786 135.17129 
L 284.284176 134.644958 
L 283.633565 134.118627 
L 282.982955 133.592296 
L 282.332345 133.065964 
L 281.681734 132.539633 
L 281.031124 132.763195 
L 280.380514 133.083564 
L 279.729903 133.403933 
L 279.079293 133.724301 
L 278.428683 134.04467 
L 277.778073 134.365039 
L 277.127462 134.685408 
L 276.476852 135.005777 
L 275.826242 135.326146 
L 275.175631 135.646515 
L 274.525021 135.966884 
L 273.874411 136.287253 
L 273.2238 136.607622 
L 272.57319 136.927991 
L 271.92258 137.24836 
L 271.271969 137.568729 
L 270.621359 137.889098 
L 269.970749 138.209467 
L 269.320138 138.529836 
L 268.669528 138.850205 
L 268.018918 139.170574 
L 267.368308 139.490943 
L 266.717697 139.811311 
L 266.067087 140.175466 
L 265.416477 140.544801 
L 264.765866 140.914136 
L 264.115256 141.283471 
L 263.464646 141.652806 
L 262.814035 142.022141 
L 262.163425 142.391476 
L 261.512815 142.760811 
L 260.862204 143.130146 
L 260.211594 143.499481 
L 259.560984 143.868816 
L 258.910373 144.238151 
L 258.259763 144.607486 
L 257.609153 144.976821 
L 256.958543 145.346156 
L 256.307932 145.715491 
L 255.657322 146.084827 
L 255.006712 146.454162 
L 254.356101 146.823497 
L 253.705491 147.192832 
L 253.054881 147.562167 
L 252.40427 147.931502 
L 251.75366 147.905281 
L 251.10305 147.750192 
L 250.452439 147.595103 
L 249.801829 147.440014 
L 249.151219 147.284925 
L 248.500608 147.129836 
L 247.849998 146.974747 
L 247.199388 146.819658 
L 246.548778 146.664569 
L 245.898167 146.50948 
L 245.247557 146.354391 
L 244.596947 146.199302 
L 243.946336 146.044213 
L 243.295726 145.889123 
L 242.645116 145.734034 
L 241.994505 145.578945 
L 241.343895 145.423856 
L 240.693285 145.268767 
L 240.042674 145.113678 
L 239.392064 144.958589 
L 238.741454 144.8035 
L 238.090844 144.648411 
L 237.440233 144.493322 
L 236.789623 144.231593 
L 236.139013 143.936703 
L 235.488402 143.641813 
L 234.837792 143.346923 
L 234.187182 143.052033 
L 233.536571 142.757143 
L 232.885961 142.462253 
L 232.235351 142.167363 
L 231.58474 141.872473 
L 230.93413 141.577583 
L 230.28352 141.282692 
L 229.632909 140.987802 
L 228.982299 140.692912 
L 228.331689 140.398022 
L 227.681079 140.103132 
L 227.030468 139.808242 
L 226.379858 139.513352 
L 225.729248 139.218462 
L 225.078637 138.923572 
L 224.428027 138.628682 
L 223.777417 138.333792 
L 223.126806 138.038902 
L 222.476196 137.744012 
L 221.825586 138.016438 
L 221.174975 138.457049 
L 220.524365 138.897661 
L 219.873755 139.338273 
L 219.223144 139.778884 
L 218.572534 140.219496 
L 217.921924 140.660108 
L 217.271314 141.100719 
L 216.620703 141.541331 
L 215.970093 141.981943 
L 215.319483 142.422554 
L 214.668872 142.863166 
L 214.018262 143.303778 
L 213.367652 143.744389 
L 212.717041 144.185001 
L 212.066431 144.625613 
L 211.415821 145.066225 
L 210.76521 145.506836 
L 210.1146 145.947448 
L 209.46399 146.38806 
L 208.813379 146.828671 
L 208.162769 147.269283 
L 207.512159 147.564342 
L 206.861549 147.774431 
L 206.210938 147.984519 
L 205.560328 148.194608 
L 204.909718 148.404696 
L 204.259107 148.614784 
L 203.608497 148.824873 
L 202.957887 149.034961 
L 202.307276 149.24505 
L 201.656666 149.455138 
L 201.006056 149.665226 
L 200.355445 149.875315 
L 199.704835 150.085403 
L 199.054225 150.295491 
L 198.403615 150.50558 
L 197.753004 150.715668 
L 197.102394 150.925757 
L 196.451784 151.135845 
L 195.801173 151.345933 
L 195.150563 151.556022 
L 194.499953 151.76611 
L 193.849342 151.976199 
L 193.198732 152.186287 
L 192.548122 151.726732 
L 191.897511 150.890392 
L 191.246901 150.054052 
L 190.596291 149.217712 
L 189.94568 148.381372 
L 189.29507 147.545032 
L 188.64446 146.708692 
L 187.99385 145.872352 
L 187.343239 145.036012 
L 186.692629 144.199672 
L 186.042019 143.363332 
L 185.391408 142.526992 
L 184.740798 141.690651 
L 184.090188 140.854311 
L 183.439577 140.017971 
L 182.788967 139.181631 
L 182.138357 138.345291 
L 181.487746 137.508951 
L 180.837136 136.672611 
L 180.186526 135.836271 
L 179.535915 134.999931 
L 178.885305 134.163591 
L 178.234695 133.327251 
L 177.584085 133.429133 
L 176.933474 134.039629 
L 176.282864 134.650125 
L 175.632254 135.260621 
L 174.981643 135.871117 
L 174.331033 136.481613 
L 173.680423 137.092109 
L 173.029812 137.702606 
L 172.379202 138.313102 
L 171.728592 138.923598 
L 171.077981 139.534094 
L 170.427371 140.14459 
L 169.776761 140.755086 
L 169.12615 141.365582 
L 168.47554 141.976079 
L 167.82493 142.586575 
L 167.17432 143.197071 
L 166.523709 143.807567 
L 165.873099 144.418063 
L 165.222489 145.028559 
L 164.571878 145.639055 
L 163.921268 146.249551 
L 163.270658 146.687219 
L 162.620047 146.957857 
L 161.969437 147.228495 
L 161.318827 147.499133 
L 160.668216 147.769771 
L 160.017606 148.040409 
L 159.366996 148.311046 
L 158.716385 148.581684 
L 158.065775 148.852322 
L 157.415165 149.12296 
L 156.764555 149.393598 
L 156.113944 149.664236 
L 155.463334 149.934874 
L 154.812724 150.205512 
L 154.162113 150.47615 
L 153.511503 150.746788 
L 152.860893 151.017426 
L 152.210282 151.288064 
L 151.559672 151.558702 
L 150.909062 151.82934 
L 150.258451 152.099978 
L 149.607841 152.370616 
L 148.957231 152.641254 
L 148.306621 152.448054 
L 147.65601 151.821633 
L 147.0054 151.195212 
L 146.35479 150.568791 
L 145.704179 149.94237 
L 145.053569 149.315949 
L 144.402959 148.689528 
L 143.752348 148.063107 
L 143.101738 147.436686 
L 142.451128 146.810265 
L 141.800517 146.183844 
L 141.149907 145.557424 
L 140.499297 144.931003 
L 139.848686 144.304582 
L 139.198076 143.678161 
L 138.547466 143.05174 
L 137.896856 142.425319 
L 137.246245 141.798898 
L 136.595635 141.172477 
L 135.945025 140.546056 
L 135.294414 139.919635 
L 134.643804 139.293214 
L 133.993194 138.666793 
L 133.342583 137.957242 
L 132.691973 137.17266 
L 132.041363 136.388077 
L 131.390752 135.603494 
L 130.740142 134.818911 
L 130.089532 134.034328 
L 129.438921 133.249746 
L 128.788311 132.465163 
L 128.137701 131.68058 
L 127.487091 130.895997 
L 126.83648 130.111414 
L 126.18587 129.326832 
L 125.53526 128.542249 
L 124.884649 127.757666 
L 124.234039 126.973083 
L 123.583429 126.1885 
L 122.932818 125.403917 
L 122.282208 124.619335 
L 121.631598 123.834752 
L 120.980987 123.050169 
L 120.330377 122.265586 
L 119.679767 121.481003 
L 119.029156 121.090938 
L 118.378546 121.329308 
L 117.727936 121.567677 
L 117.077326 121.806046 
L 116.426715 122.044416 
L 115.776105 122.282785 
L 115.125495 122.521155 
L 114.474884 122.759524 
L 113.824274 122.997894 
L 113.173664 123.236263 
L 112.523053 123.474633 
L 111.872443 123.713002 
L 111.221833 123.951372 
L 110.571222 124.189741 
L 109.920612 124.428111 
L 109.270002 124.66648 
L 108.619392 124.90485 
L 107.968781 125.143219 
L 107.318171 125.381589 
L 106.667561 125.619958 
L 106.01695 125.858328 
L 105.36634 126.096697 
L 104.71573 126.335067 
L 104.065119 126.390756 
L 103.414509 126.165703 
L 102.763899 125.940651 
L 102.113288 125.715598 
L 101.462678 125.490546 
L 100.812068 125.265493 
L 100.161457 125.04044 
L 99.510847 124.815388 
L 98.860237 124.590335 
L 98.209627 124.365282 
L 97.559016 124.14023 
L 96.908406 123.915177 
L 96.257796 123.690124 
L 95.607185 123.465072 
L 94.956575 123.240019 
L 94.305965 123.014967 
L 93.655354 122.789914 
L 93.004744 122.564861 
L 92.354134 122.339809 
L 91.703523 122.114756 
L 91.052913 121.889703 
L 90.402303 121.664651 
L 89.751692 121.439598 
L 89.101082 121.414112 
L 88.450472 121.684594 
L 87.799862 121.955075 
L 87.149251 122.225557 
L 86.498641 122.496038 
L 85.848031 122.76652 
L 85.19742 123.037001 
L 84.54681 123.307483 
L 83.8962 123.577964 
L 83.245589 123.848446 
L 82.594979 124.118928 
L 81.944369 124.389409 
L 81.293758 124.659891 
L 80.643148 124.930372 
L 79.992538 125.200854 
L 79.341927 125.471335 
L 78.691317 125.741817 
L 78.040707 126.012298 
L 77.390097 126.28278 
L 76.739486 126.553262 
L 76.088876 126.823743 
L 75.438266 127.094225 
L 74.787655 127.364706 
L 74.137045 127.994284 
L 73.486435 129.137917 
L 72.835824 130.281551 
L 72.185214 131.425185 
L 71.534604 132.568819 
L 70.883993 133.712453 
L 70.233383 134.856086 
L 69.582773 135.99972 
L 68.932163 137.143354 
L 68.281552 138.286988 
L 67.630942 139.430621 
L 66.980332 140.574255 
L 66.329721 141.717889 
L 65.679111 142.861523 
L 65.028501 144.005157 
L 64.37789 145.14879 
L 63.72728 146.292424 
L 63.07667 147.436058 
L 62.426059 148.579692 
L 61.775449 149.723326 
L 61.124839 150.866959 
L 60.474228 152.010593 
L 59.823618 152.540901 
L 59.173008 151.424104 
L 58.522398 150.307308 
L 57.871787 149.190511 
L 57.221177 148.073715 
L 56.570567 146.956918 
L 55.919956 145.840121 
L 55.269346 144.723325 
L 54.618736 143.606528 
L 53.968125 142.489731 
L 53.317515 141.372935 
L 52.666905 140.256138 
L 52.016294 139.139341 
L 51.365684 138.022545 
L 50.715074 136.905748 
L 50.064463 135.788952 
L 49.413853 134.672155 
L 48.763243 133.555358 
L 48.112633 132.438562 
L 47.462022 131.321765 
L 46.811412 130.204968 
L 46.160802 129.088172 
L 45.510191 127.971375 
L 44.859581 127.356289 
L 44.208971 128.032189 
L 43.55836 128.708088 
L 42.90775 129.383988 
L 42.25714 130.059888 
L 41.606529 130.735788 
L 40.955919 131.411688 
L 40.305309 132.087587 
L 39.654698 132.763487 
L 39.004088 133.439387 
L 38.353478 134.115287 
L 37.702868 134.791187 
L 37.052257 135.467087 
L 36.401647 136.142986 
L 35.751037 136.818886 
L 35.100426 137.494786 
L 34.449816 138.170686 
L 33.799206 138.846586 
L 33.148595 139.522485 
L 32.497985 140.198385 
L 31.847375 140.874285 
L 31.196764 141.550185 
L 30.546154 142.226085 
L 29.895544 142.340703 
L 29.244934 141.070382 
L 28.594323 139.800061 
L 27.943713 138.529741 
L 27.293103 137.25942 
L 26.642492 135.989099 
L 25.991882 134.718779 
L 25.341272 133.448458 
L 24.690661 132.178137 
L 24.040051 130.907817 
L 23.389441 129.637496 
L 22.73883 128.367175 
L 22.08822 127.096855 
L 21.43761 125.826534 
L 20.786999 124.556213 
L 20.136389 123.285893 
L 19.485779 122.015572 
L 18.835169 120.745251 
L 18.184558 119.474931 
L 17.533948 118.20461 
L 16.883338 116.934289 
L 16.232727 115.663969 
z
" style="fill:#61c46e;fill-opacity:0.3;"/>
   </g>
   <g id="PolyCollection_2">
    <path clip-path="url(#p9688cb4016)" d="M 16.232727 154.590311 
L 16.232727 160.7569 
L 16.883338 160.7569 
L 17.533948 160.7569 
L 18.184558 160.7569 
L 18.835169 160.7569 
L 19.485779 160.7569 
L 20.136389 160.7569 
L 20.786999 160.7569 
L 21.43761 160.7569 
L 22.08822 160.7569 
L 22.73883 160.7569 
L 23.389441 160.7569 
L 24.040051 160.7569 
L 24.690661 160.7569 
L 25.341272 160.7569 
L 25.991882 160.7569 
L 26.642492 160.7569 
L 27.293103 160.7569 
L 27.943713 160.7569 
L 28.594323 160.7569 
L 29.244934 160.7569 
L 29.895544 160.7569 
L 30.546154 160.7569 
L 31.196764 160.7569 
L 31.847375 160.7569 
L 32.497985 160.7569 
L 33.148595 160.7569 
L 33.799206 160.7569 
L 34.449816 160.7569 
L 35.100426 160.7569 
L 35.751037 160.7569 
L 36.401647 160.7569 
L 37.052257 160.7569 
L 37.702868 160.7569 
L 38.353478 160.7569 
L 39.004088 160.7569 
L 39.654698 160.7569 
L 40.305309 160.7569 
L 40.955919 160.7569 
L 41.606529 160.7569 
L 42.25714 160.7569 
L 42.90775 160.7569 
L 43.55836 160.7569 
L 44.208971 160.7569 
L 44.859581 160.7569 
L 45.510191 160.7569 
L 46.160802 160.7569 
L 46.811412 160.7569 
L 47.462022 160.7569 
L 48.112633 160.7569 
L 48.763243 160.7569 
L 49.413853 160.7569 
L 50.064463 160.7569 
L 50.715074 160.7569 
L 51.365684 160.7569 
L 52.016294 160.7569 
L 52.666905 160.7569 
L 53.317515 160.7569 
L 53.968125 160.7569 
L 54.618736 160.7569 
L 55.269346 160.7569 
L 55.919956 160.7569 
L 56.570567 160.7569 
L 57.221177 160.7569 
L 57.871787 160.7569 
L 58.522398 160.7569 
L 59.173008 160.7569 
L 59.823618 160.7569 
L 60.474228 160.7569 
L 61.124839 160.7569 
L 61.775449 160.7569 
L 62.426059 160.7569 
L 63.07667 160.7569 
L 63.72728 160.7569 
L 64.37789 160.7569 
L 65.028501 160.7569 
L 65.679111 160.7569 
L 66.329721 160.7569 
L 66.980332 160.7569 
L 67.630942 160.7569 
L 68.281552 160.7569 
L 68.932163 160.7569 
L 69.582773 160.7569 
L 70.233383 160.7569 
L 70.883993 160.7569 
L 71.534604 160.7569 
L 72.185214 160.7569 
L 72.835824 160.7569 
L 73.486435 160.7569 
L 74.137045 160.7569 
L 74.787655 160.7569 
L 75.438266 160.7569 
L 76.088876 160.7569 
L 76.739486 160.7569 
L 77.390097 160.7569 
L 78.040707 160.7569 
L 78.691317 160.7569 
L 79.341927 160.7569 
L 79.992538 160.7569 
L 80.643148 160.7569 
L 81.293758 160.7569 
L 81.944369 160.7569 
L 82.594979 160.7569 
L 83.245589 160.7569 
L 83.8962 160.7569 
L 84.54681 160.7569 
L 85.19742 160.7569 
L 85.848031 160.7569 
L 86.498641 160.7569 
L 87.149251 160.7569 
L 87.799862 160.7569 
L 88.450472 160.7569 
L 89.101082 160.7569 
L 89.751692 160.7569 
L 90.402303 160.7569 
L 91.052913 160.7569 
L 91.703523 160.7569 
L 92.354134 160.7569 
L 93.004744 160.7569 
L 93.655354 160.7569 
L 94.305965 160.7569 
L 94.956575 160.7569 
L 95.607185 160.7569 
L 96.257796 160.7569 
L 96.908406 160.7569 
L 97.559016 160.7569 
L 98.209627 160.7569 
L 98.860237 160.7569 
L 99.510847 160.7569 
L 100.161457 160.7569 
L 100.812068 160.7569 
L 101.462678 160.7569 
L 102.113288 160.7569 
L 102.763899 160.7569 
L 103.414509 160.7569 
L 104.065119 160.7569 
L 104.71573 160.7569 
L 105.36634 160.7569 
L 106.01695 160.7569 
L 106.667561 160.7569 
L 107.318171 160.7569 
L 107.968781 160.7569 
L 108.619392 160.7569 
L 109.270002 160.7569 
L 109.920612 160.7569 
L 110.571222 160.7569 
L 111.221833 160.7569 
L 111.872443 160.7569 
L 112.523053 160.7569 
L 113.173664 160.7569 
L 113.824274 160.7569 
L 114.474884 160.7569 
L 115.125495 160.7569 
L 115.776105 160.7569 
L 116.426715 160.7569 
L 117.077326 160.7569 
L 117.727936 160.7569 
L 118.378546 160.7569 
L 119.029156 160.7569 
L 119.679767 160.7569 
L 120.330377 160.7569 
L 120.980987 160.7569 
L 121.631598 160.7569 
L 122.282208 160.7569 
L 122.932818 160.7569 
L 123.583429 160.7569 
L 124.234039 160.7569 
L 124.884649 160.7569 
L 125.53526 160.7569 
L 126.18587 160.7569 
L 126.83648 160.7569 
L 127.487091 160.7569 
L 128.137701 160.7569 
L 128.788311 160.7569 
L 129.438921 160.7569 
L 130.089532 160.7569 
L 130.740142 160.7569 
L 131.390752 160.7569 
L 132.041363 160.7569 
L 132.691973 160.7569 
L 133.342583 160.7569 
L 133.993194 160.7569 
L 134.643804 160.7569 
L 135.294414 160.7569 
L 135.945025 160.7569 
L 136.595635 160.7569 
L 137.246245 160.7569 
L 137.896856 160.7569 
L 138.547466 160.7569 
L 139.198076 160.7569 
L 139.848686 160.7569 
L 140.499297 160.7569 
L 141.149907 160.7569 
L 141.800517 160.7569 
L 142.451128 160.7569 
L 143.101738 160.7569 
L 143.752348 160.7569 
L 144.402959 160.7569 
L 145.053569 160.7569 
L 145.704179 160.7569 
L 146.35479 160.7569 
L 147.0054 160.7569 
L 147.65601 160.7569 
L 148.306621 160.7569 
L 148.957231 160.7569 
L 149.607841 160.7569 
L 150.258451 160.7569 
L 150.909062 160.7569 
L 151.559672 160.7569 
L 152.210282 160.7569 
L 152.860893 160.7569 
L 153.511503 160.7569 
L 154.162113 160.7569 
L 154.812724 160.7569 
L 155.463334 160.7569 
L 156.113944 160.7569 
L 156.764555 160.7569 
L 157.415165 160.7569 
L 158.065775 160.7569 
L 158.716385 160.7569 
L 159.366996 160.7569 
L 160.017606 160.7569 
L 160.668216 160.7569 
L 161.318827 160.7569 
L 161.969437 160.7569 
L 162.620047 160.7569 
L 163.270658 160.7569 
L 163.921268 160.7569 
L 164.571878 160.7569 
L 165.222489 160.7569 
L 165.873099 160.7569 
L 166.523709 160.7569 
L 167.17432 160.7569 
L 167.82493 160.7569 
L 168.47554 160.7569 
L 169.12615 160.7569 
L 169.776761 160.7569 
L 170.427371 160.7569 
L 171.077981 160.7569 
L 171.728592 160.7569 
L 172.379202 160.7569 
L 173.029812 160.7569 
L 173.680423 160.7569 
L 174.331033 160.7569 
L 174.981643 160.7569 
L 175.632254 160.7569 
L 176.282864 160.7569 
L 176.933474 160.7569 
L 177.584085 160.7569 
L 178.234695 160.7569 
L 178.885305 160.7569 
L 179.535915 160.7569 
L 180.186526 160.7569 
L 180.837136 160.7569 
L 181.487746 160.7569 
L 182.138357 160.7569 
L 182.788967 160.7569 
L 183.439577 160.7569 
L 184.090188 160.7569 
L 184.740798 160.7569 
L 185.391408 160.7569 
L 186.042019 160.7569 
L 186.692629 160.7569 
L 187.343239 160.7569 
L 187.99385 160.7569 
L 188.64446 160.7569 
L 189.29507 160.7569 
L 189.94568 160.7569 
L 190.596291 160.7569 
L 191.246901 160.7569 
L 191.897511 160.7569 
L 192.548122 160.7569 
L 193.198732 160.7569 
L 193.849342 160.7569 
L 194.499953 160.7569 
L 195.150563 160.7569 
L 195.801173 160.7569 
L 196.451784 160.7569 
L 197.102394 160.7569 
L 197.753004 160.7569 
L 198.403615 160.7569 
L 199.054225 160.7569 
L 199.704835 160.7569 
L 200.355445 160.7569 
L 201.006056 160.7569 
L 201.656666 160.7569 
L 202.307276 160.7569 
L 202.957887 160.7569 
L 203.608497 160.7569 
L 204.259107 160.7569 
L 204.909718 160.7569 
L 205.560328 160.7569 
L 206.210938 160.7569 
L 206.861549 160.7569 
L 207.512159 160.7569 
L 208.162769 160.7569 
L 208.813379 160.7569 
L 209.46399 160.7569 
L 210.1146 160.7569 
L 210.76521 160.7569 
L 211.415821 160.7569 
L 212.066431 160.7569 
L 212.717041 160.7569 
L 213.367652 160.7569 
L 214.018262 160.7569 
L 214.668872 160.7569 
L 215.319483 160.7569 
L 215.970093 160.7569 
L 216.620703 160.7569 
L 217.271314 160.7569 
L 217.921924 160.7569 
L 218.572534 160.7569 
L 219.223144 160.7569 
L 219.873755 160.7569 
L 220.524365 160.7569 
L 221.174975 160.7569 
L 221.825586 160.7569 
L 222.476196 160.7569 
L 223.126806 160.7569 
L 223.777417 160.7569 
L 224.428027 160.7569 
L 225.078637 160.7569 
L 225.729248 160.7569 
L 226.379858 160.7569 
L 227.030468 160.7569 
L 227.681079 160.7569 
L 228.331689 160.7569 
L 228.982299 160.7569 
L 229.632909 160.7569 
L 230.28352 160.7569 
L 230.93413 160.7569 
L 231.58474 160.7569 
L 232.235351 160.7569 
L 232.885961 160.7569 
L 233.536571 160.7569 
L 234.187182 160.7569 
L 234.837792 160.7569 
L 235.488402 160.7569 
L 236.139013 160.7569 
L 236.789623 160.7569 
L 237.440233 160.7569 
L 238.090844 160.7569 
L 238.741454 160.7569 
L 239.392064 160.7569 
L 240.042674 160.7569 
L 240.693285 160.7569 
L 241.343895 160.7569 
L 241.994505 160.7569 
L 242.645116 160.7569 
L 243.295726 160.7569 
L 243.946336 160.7569 
L 244.596947 160.7569 
L 245.247557 160.7569 
L 245.898167 160.7569 
L 246.548778 160.7569 
L 247.199388 160.7569 
L 247.849998 160.7569 
L 248.500608 160.7569 
L 249.151219 160.7569 
L 249.801829 160.7569 
L 250.452439 160.7569 
L 251.10305 160.7569 
L 251.75366 160.7569 
L 252.40427 160.7569 
L 253.054881 160.7569 
L 253.705491 160.7569 
L 254.356101 160.7569 
L 255.006712 160.7569 
L 255.657322 160.7569 
L 256.307932 160.7569 
L 256.958543 160.7569 
L 257.609153 160.7569 
L 258.259763 160.7569 
L 258.910373 160.7569 
L 259.560984 160.7569 
L 260.211594 160.7569 
L 260.862204 160.7569 
L 261.512815 160.7569 
L 262.163425 160.7569 
L 262.814035 160.7569 
L 263.464646 160.7569 
L 264.115256 160.7569 
L 264.765866 160.7569 
L 265.416477 160.7569 
L 266.067087 160.7569 
L 266.717697 160.7569 
L 267.368308 160.7569 
L 268.018918 160.7569 
L 268.669528 160.7569 
L 269.320138 160.7569 
L 269.970749 160.7569 
L 270.621359 160.7569 
L 271.271969 160.7569 
L 271.92258 160.7569 
L 272.57319 160.7569 
L 273.2238 160.7569 
L 273.874411 160.7569 
L 274.525021 160.7569 
L 275.175631 160.7569 
L 275.826242 160.7569 
L 276.476852 160.7569 
L 277.127462 160.7569 
L 277.778073 160.7569 
L 278.428683 160.7569 
L 279.079293 160.7569 
L 279.729903 160.7569 
L 280.380514 160.7569 
L 281.031124 160.7569 
L 281.681734 160.7569 
L 282.332345 160.7569 
L 282.982955 160.7569 
L 283.633565 160.7569 
L 284.284176 160.7569 
L 284.934786 160.7569 
L 285.585396 160.7569 
L 286.236007 160.7569 
L 286.886617 160.7569 
L 287.537227 160.7569 
L 288.187837 160.7569 
L 288.838448 160.7569 
L 289.489058 160.7569 
L 290.139668 160.7569 
L 290.790279 160.7569 
L 291.440889 160.7569 
L 292.091499 160.7569 
L 292.74211 160.7569 
L 293.39272 160.7569 
L 294.04333 160.7569 
L 294.693941 160.7569 
L 295.344551 160.7569 
L 295.995161 160.7569 
L 296.645772 160.7569 
L 297.296382 160.7569 
L 297.946992 160.7569 
L 298.597602 160.7569 
L 299.248213 160.7569 
L 299.898823 160.7569 
L 300.549433 160.7569 
L 301.200044 160.7569 
L 301.850654 160.7569 
L 302.501264 160.7569 
L 303.151875 160.7569 
L 303.802485 160.7569 
L 304.453095 160.7569 
L 305.103706 160.7569 
L 305.754316 160.7569 
L 306.404926 160.7569 
L 307.055537 160.7569 
L 307.706147 160.7569 
L 308.356757 160.7569 
L 309.007367 160.7569 
L 309.657978 160.7569 
L 310.308588 160.7569 
L 310.959198 160.7569 
L 311.609809 160.7569 
L 312.260419 160.7569 
L 312.911029 160.7569 
L 313.56164 160.7569 
L 314.21225 160.7569 
L 314.86286 160.7569 
L 315.513471 160.7569 
L 316.164081 160.7569 
L 316.814691 160.7569 
L 317.465302 160.7569 
L 318.115912 160.7569 
L 318.766522 160.7569 
L 319.417132 160.7569 
L 320.067743 160.7569 
L 320.718353 160.7569 
L 321.368963 160.7569 
L 322.019574 160.7569 
L 322.670184 160.7569 
L 323.320794 160.7569 
L 323.971405 160.7569 
L 324.622015 160.7569 
L 325.272625 160.7569 
L 325.923236 160.7569 
L 326.573846 160.7569 
L 327.224456 160.7569 
L 327.875066 160.7569 
L 328.525677 160.7569 
L 329.176287 160.7569 
L 329.826897 160.7569 
L 330.477508 160.7569 
L 331.128118 160.7569 
L 331.778728 160.7569 
L 332.429339 160.7569 
L 333.079949 160.7569 
L 333.730559 160.7569 
L 334.38117 160.7569 
L 335.03178 160.7569 
L 335.68239 160.7569 
L 336.333001 160.7569 
L 336.983611 160.7569 
L 337.634221 160.7569 
L 338.284831 160.7569 
L 338.935442 160.7569 
L 339.586052 160.7569 
L 340.236662 160.7569 
L 340.887273 160.7569 
L 340.887273 154.403332 
L 340.887273 154.403332 
L 340.236662 154.340864 
L 339.586052 154.278396 
L 338.935442 154.215928 
L 338.284831 154.15346 
L 337.634221 154.090992 
L 336.983611 154.028524 
L 336.333001 153.966057 
L 335.68239 153.903589 
L 335.03178 153.841121 
L 334.38117 153.778653 
L 333.730559 153.716185 
L 333.079949 153.653717 
L 332.429339 153.591249 
L 331.778728 153.528781 
L 331.128118 153.466313 
L 330.477508 153.403845 
L 329.826897 153.341378 
L 329.176287 153.27891 
L 328.525677 153.216442 
L 327.875066 153.153974 
L 327.224456 153.091506 
L 326.573846 153.029038 
L 325.923236 152.965045 
L 325.272625 152.723872 
L 324.622015 152.482699 
L 323.971405 152.241525 
L 323.320794 152.000352 
L 322.670184 151.759178 
L 322.019574 151.518005 
L 321.368963 151.276832 
L 320.718353 151.035658 
L 320.067743 150.794485 
L 319.417132 150.553311 
L 318.766522 150.312138 
L 318.115912 150.070965 
L 317.465302 149.829791 
L 316.814691 149.588618 
L 316.164081 149.347445 
L 315.513471 149.106271 
L 314.86286 148.865098 
L 314.21225 148.623924 
L 313.56164 148.382751 
L 312.911029 148.141578 
L 312.260419 147.900404 
L 311.609809 147.659231 
L 310.959198 147.678718 
L 310.308588 147.737638 
L 309.657978 147.796558 
L 309.007367 147.855477 
L 308.356757 147.914397 
L 307.706147 147.973317 
L 307.055537 148.032236 
L 306.404926 148.091156 
L 305.754316 148.150076 
L 305.103706 148.208995 
L 304.453095 148.267915 
L 303.802485 148.326835 
L 303.151875 148.385754 
L 302.501264 148.444674 
L 301.850654 148.503594 
L 301.200044 148.562513 
L 300.549433 148.621433 
L 299.898823 148.680353 
L 299.248213 148.739272 
L 298.597602 148.798192 
L 297.946992 148.857112 
L 297.296382 148.916031 
L 296.645772 148.974951 
L 295.995161 149.156838 
L 295.344551 149.355951 
L 294.693941 149.555064 
L 294.04333 149.754177 
L 293.39272 149.953289 
L 292.74211 150.152402 
L 292.091499 150.351515 
L 291.440889 150.550627 
L 290.790279 150.74974 
L 290.139668 150.948853 
L 289.489058 151.147965 
L 288.838448 151.347078 
L 288.187837 151.546191 
L 287.537227 151.745304 
L 286.886617 151.944416 
L 286.236007 152.143529 
L 285.585396 152.342642 
L 284.934786 152.541754 
L 284.284176 152.740867 
L 283.633565 152.93998 
L 282.982955 153.139093 
L 282.332345 153.338205 
L 281.681734 153.537318 
L 281.031124 153.553795 
L 280.380514 153.546695 
L 279.729903 153.539595 
L 279.079293 153.532495 
L 278.428683 153.525394 
L 277.778073 153.518294 
L 277.127462 153.511194 
L 276.476852 153.504094 
L 275.826242 153.496994 
L 275.175631 153.489894 
L 274.525021 153.482794 
L 273.874411 153.475693 
L 273.2238 153.468593 
L 272.57319 153.461493 
L 271.92258 153.454393 
L 271.271969 153.447293 
L 270.621359 153.440193 
L 269.970749 153.433092 
L 269.320138 153.425992 
L 268.669528 153.418892 
L 268.018918 153.411792 
L 267.368308 153.404692 
L 266.717697 153.397592 
L 266.067087 153.339785 
L 265.416477 153.27598 
L 264.765866 153.212174 
L 264.115256 153.148368 
L 263.464646 153.084562 
L 262.814035 153.020756 
L 262.163425 152.956951 
L 261.512815 152.893145 
L 260.862204 152.829339 
L 260.211594 152.765533 
L 259.560984 152.701727 
L 258.910373 152.637921 
L 258.259763 152.574116 
L 257.609153 152.51031 
L 256.958543 152.446504 
L 256.307932 152.382698 
L 255.657322 152.318892 
L 255.006712 152.255086 
L 254.356101 152.191281 
L 253.705491 152.127475 
L 253.054881 152.063669 
L 252.40427 151.999863 
L 251.75366 151.990845 
L 251.10305 151.999676 
L 250.452439 152.008507 
L 249.801829 152.017338 
L 249.151219 152.026169 
L 248.500608 152.035 
L 247.849998 152.043832 
L 247.199388 152.052663 
L 246.548778 152.061494 
L 245.898167 152.070325 
L 245.247557 152.079156 
L 244.596947 152.087987 
L 243.946336 152.096818 
L 243.295726 152.105649 
L 242.645116 152.11448 
L 241.994505 152.123311 
L 241.343895 152.132143 
L 240.693285 152.140974 
L 240.042674 152.149805 
L 239.392064 152.158636 
L 238.741454 152.167467 
L 238.090844 152.176298 
L 237.440233 152.185129 
L 236.789623 152.315915 
L 236.139013 152.484623 
L 235.488402 152.653332 
L 234.837792 152.822041 
L 234.187182 152.99075 
L 233.536571 153.159458 
L 232.885961 153.328167 
L 232.235351 153.496876 
L 231.58474 153.665584 
L 230.93413 153.834293 
L 230.28352 154.003002 
L 229.632909 154.171711 
L 228.982299 154.340419 
L 228.331689 154.509128 
L 227.681079 154.677837 
L 227.030468 154.846545 
L 226.379858 155.015254 
L 225.729248 155.183963 
L 225.078637 155.352671 
L 224.428027 155.52138 
L 223.777417 155.690089 
L 223.126806 155.858798 
L 222.476196 156.027506 
L 221.825586 155.47525 
L 221.174975 154.709255 
L 220.524365 153.943261 
L 219.873755 153.177266 
L 219.223144 152.411271 
L 218.572534 151.645277 
L 217.921924 150.879282 
L 217.271314 150.113288 
L 216.620703 149.347293 
L 215.970093 148.581299 
L 215.319483 147.815304 
L 214.668872 147.049309 
L 214.018262 146.283315 
L 213.367652 145.51732 
L 212.717041 144.751326 
L 212.066431 143.985331 
L 211.415821 143.219336 
L 210.76521 142.453342 
L 210.1146 141.687347 
L 209.46399 140.921353 
L 208.813379 140.155358 
L 208.162769 139.389364 
L 207.512159 138.621417 
L 206.861549 137.852331 
L 206.210938 137.083245 
L 205.560328 136.314159 
L 204.909718 135.545072 
L 204.259107 134.775986 
L 203.608497 134.0069 
L 202.957887 133.237814 
L 202.307276 132.468728 
L 201.656666 131.699642 
L 201.006056 130.930556 
L 200.355445 130.16147 
L 199.704835 129.392383 
L 199.054225 128.623297 
L 198.403615 127.854211 
L 197.753004 127.085125 
L 197.102394 126.316039 
L 196.451784 125.546953 
L 195.801173 124.777867 
L 195.150563 124.00878 
L 194.499953 123.239694 
L 193.849342 122.470608 
L 193.198732 121.701522 
L 192.548122 122.316595 
L 191.897511 123.710488 
L 191.246901 125.104381 
L 190.596291 126.498274 
L 189.94568 127.892167 
L 189.29507 129.28606 
L 188.64446 130.679953 
L 187.99385 132.073846 
L 187.343239 133.467738 
L 186.692629 134.861631 
L 186.042019 136.255524 
L 185.391408 137.649417 
L 184.740798 139.04331 
L 184.090188 140.437203 
L 183.439577 141.831096 
L 182.788967 143.224989 
L 182.138357 144.618882 
L 181.487746 146.012775 
L 180.837136 147.406668 
L 180.186526 148.800561 
L 179.535915 150.194454 
L 178.885305 151.588347 
L 178.234695 152.98224 
L 177.584085 153.483394 
L 176.933474 153.500589 
L 176.282864 153.517784 
L 175.632254 153.534979 
L 174.981643 153.552174 
L 174.331033 153.56937 
L 173.680423 153.586565 
L 173.029812 153.60376 
L 172.379202 153.620955 
L 171.728592 153.638151 
L 171.077981 153.655346 
L 170.427371 153.672541 
L 169.776761 153.689736 
L 169.12615 153.706932 
L 168.47554 153.724127 
L 167.82493 153.741322 
L 167.17432 153.758517 
L 166.523709 153.775713 
L 165.873099 153.792908 
L 165.222489 153.810103 
L 164.571878 153.827298 
L 163.921268 153.844493 
L 163.270658 153.849653 
L 162.620047 153.843182 
L 161.969437 153.836711 
L 161.318827 153.830239 
L 160.668216 153.823768 
L 160.017606 153.817296 
L 159.366996 153.810825 
L 158.716385 153.804353 
L 158.065775 153.797882 
L 157.415165 153.791411 
L 156.764555 153.784939 
L 156.113944 153.778468 
L 155.463334 153.771996 
L 154.812724 153.765525 
L 154.162113 153.759054 
L 153.511503 153.752582 
L 152.860893 153.746111 
L 152.210282 153.739639 
L 151.559672 153.733168 
L 150.909062 153.726696 
L 150.258451 153.720225 
L 149.607841 153.713754 
L 148.957231 153.707282 
L 148.306621 153.681102 
L 147.65601 153.636513 
L 147.0054 153.591925 
L 146.35479 153.547336 
L 145.704179 153.502748 
L 145.053569 153.458159 
L 144.402959 153.413571 
L 143.752348 153.368982 
L 143.101738 153.324394 
L 142.451128 153.279805 
L 141.800517 153.235217 
L 141.149907 153.190628 
L 140.499297 153.14604 
L 139.848686 153.101451 
L 139.198076 153.056863 
L 138.547466 153.012274 
L 137.896856 152.967686 
L 137.246245 152.923097 
L 136.595635 152.878508 
L 135.945025 152.83392 
L 135.294414 152.789331 
L 134.643804 152.744743 
L 133.993194 152.700154 
L 133.342583 152.77077 
L 132.691973 152.945368 
L 132.041363 153.119966 
L 131.390752 153.294564 
L 130.740142 153.469162 
L 130.089532 153.64376 
L 129.438921 153.818358 
L 128.788311 153.992956 
L 128.137701 154.167554 
L 127.487091 154.342152 
L 126.83648 154.51675 
L 126.18587 154.691348 
L 125.53526 154.865946 
L 124.884649 155.040544 
L 124.234039 155.215142 
L 123.583429 155.38974 
L 122.932818 155.564338 
L 122.282208 155.738937 
L 121.631598 155.913535 
L 120.980987 156.088133 
L 120.330377 156.262731 
L 119.679767 156.437329 
L 119.029156 156.454663 
L 118.378546 156.22149 
L 117.727936 155.988317 
L 117.077326 155.755144 
L 116.426715 155.52197 
L 115.776105 155.288797 
L 115.125495 155.055624 
L 114.474884 154.822451 
L 113.824274 154.589277 
L 113.173664 154.356104 
L 112.523053 154.122931 
L 111.872443 153.889758 
L 111.221833 153.656584 
L 110.571222 153.423411 
L 109.920612 153.190238 
L 109.270002 152.957065 
L 108.619392 152.723891 
L 107.968781 152.490718 
L 107.318171 152.257545 
L 106.667561 152.024371 
L 106.01695 151.791198 
L 105.36634 151.558025 
L 104.71573 151.324852 
L 104.065119 151.26121 
L 103.414509 151.458105 
L 102.763899 151.655 
L 102.113288 151.851895 
L 101.462678 152.04879 
L 100.812068 152.245685 
L 100.161457 152.44258 
L 99.510847 152.639474 
L 98.860237 152.836369 
L 98.209627 153.033264 
L 97.559016 153.230159 
L 96.908406 153.427054 
L 96.257796 153.623949 
L 95.607185 153.820844 
L 94.956575 154.017739 
L 94.305965 154.214633 
L 93.655354 154.411528 
L 93.004744 154.608423 
L 92.354134 154.805318 
L 91.703523 155.002213 
L 91.052913 155.199108 
L 90.402303 155.396003 
L 89.751692 155.592897 
L 89.101082 155.70539 
L 88.450472 155.692711 
L 87.799862 155.680031 
L 87.149251 155.667351 
L 86.498641 155.654672 
L 85.848031 155.641992 
L 85.19742 155.629312 
L 84.54681 155.616633 
L 83.8962 155.603953 
L 83.245589 155.591273 
L 82.594979 155.578594 
L 81.944369 155.565914 
L 81.293758 155.553235 
L 80.643148 155.540555 
L 79.992538 155.527875 
L 79.341927 155.515196 
L 78.691317 155.502516 
L 78.040707 155.489836 
L 77.390097 155.477157 
L 76.739486 155.464477 
L 76.088876 155.451797 
L 75.438266 155.439118 
L 74.787655 155.426438 
L 74.137045 155.395397 
L 73.486435 155.338071 
L 72.835824 155.280745 
L 72.185214 155.223419 
L 71.534604 155.166093 
L 70.883993 155.108766 
L 70.233383 155.05144 
L 69.582773 154.994114 
L 68.932163 154.936788 
L 68.281552 154.879462 
L 67.630942 154.822136 
L 66.980332 154.76481 
L 66.329721 154.707484 
L 65.679111 154.650157 
L 65.028501 154.592831 
L 64.37789 154.535505 
L 63.72728 154.478179 
L 63.07667 154.420853 
L 62.426059 154.363527 
L 61.775449 154.306201 
L 61.124839 154.248875 
L 60.474228 154.191548 
L 59.823618 154.156311 
L 59.173008 154.180393 
L 58.522398 154.204475 
L 57.871787 154.228557 
L 57.221177 154.252639 
L 56.570567 154.276721 
L 55.919956 154.300804 
L 55.269346 154.324886 
L 54.618736 154.348968 
L 53.968125 154.37305 
L 53.317515 154.397132 
L 52.666905 154.421214 
L 52.016294 154.445296 
L 51.365684 154.469378 
L 50.715074 154.49346 
L 50.064463 154.517543 
L 49.413853 154.541625 
L 48.763243 154.565707 
L 48.112633 154.589789 
L 47.462022 154.613871 
L 46.811412 154.637953 
L 46.160802 154.662035 
L 45.510191 154.686117 
L 44.859581 154.7175 
L 44.208971 154.767669 
L 43.55836 154.817837 
L 42.90775 154.868006 
L 42.25714 154.918175 
L 41.606529 154.968343 
L 40.955919 155.018512 
L 40.305309 155.068681 
L 39.654698 155.118849 
L 39.004088 155.169018 
L 38.353478 155.219187 
L 37.702868 155.269356 
L 37.052257 155.319524 
L 36.401647 155.369693 
L 35.751037 155.419862 
L 35.100426 155.47003 
L 34.449816 155.520199 
L 33.799206 155.570368 
L 33.148595 155.620536 
L 32.497985 155.670705 
L 31.847375 155.720874 
L 31.196764 155.771042 
L 30.546154 155.821211 
L 29.895544 155.839752 
L 29.244934 155.780255 
L 28.594323 155.720758 
L 27.943713 155.661261 
L 27.293103 155.601764 
L 26.642492 155.542266 
L 25.991882 155.482769 
L 25.341272 155.423272 
L 24.690661 155.363775 
L 24.040051 155.304278 
L 23.389441 155.24478 
L 22.73883 155.185283 
L 22.08822 155.125786 
L 21.43761 155.066289 
L 20.786999 155.006792 
L 20.136389 154.947295 
L 19.485779 154.887797 
L 18.835169 154.8283 
L 18.184558 154.768803 
L 17.533948 154.709306 
L 16.883338 154.649809 
L 16.232727 154.590311 
z
" style="fill:#f6ed22;fill-opacity:0.3;"/>
   </g>
   <g id="PolyCollection_3">
    <path clip-path="url(#p9688cb4016)" d="M 16.232727 156.614617 
L 16.232727 160.7569 
L 16.883338 160.7569 
L 17.533948 160.7569 
L 18.184558 160.7569 
L 18.835169 160.7569 
L 19.485779 160.7569 
L 20.136389 160.7569 
L 20.786999 160.7569 
L 21.43761 160.7569 
L 22.08822 160.7569 
L 22.73883 160.7569 
L 23.389441 160.7569 
L 24.040051 160.7569 
L 24.690661 160.7569 
L 25.341272 160.7569 
L 25.991882 160.7569 
L 26.642492 160.7569 
L 27.293103 160.7569 
L 27.943713 160.7569 
L 28.594323 160.7569 
L 29.244934 160.7569 
L 29.895544 160.7569 
L 30.546154 160.7569 
L 31.196764 160.7569 
L 31.847375 160.7569 
L 32.497985 160.7569 
L 33.148595 160.7569 
L 33.799206 160.7569 
L 34.449816 160.7569 
L 35.100426 160.7569 
L 35.751037 160.7569 
L 36.401647 160.7569 
L 37.052257 160.7569 
L 37.702868 160.7569 
L 38.353478 160.7569 
L 39.004088 160.7569 
L 39.654698 160.7569 
L 40.305309 160.7569 
L 40.955919 160.7569 
L 41.606529 160.7569 
L 42.25714 160.7569 
L 42.90775 160.7569 
L 43.55836 160.7569 
L 44.208971 160.7569 
L 44.859581 160.7569 
L 45.510191 160.7569 
L 46.160802 160.7569 
L 46.811412 160.7569 
L 47.462022 160.7569 
L 48.112633 160.7569 
L 48.763243 160.7569 
L 49.413853 160.7569 
L 50.064463 160.7569 
L 50.715074 160.7569 
L 51.365684 160.7569 
L 52.016294 160.7569 
L 52.666905 160.7569 
L 53.317515 160.7569 
L 53.968125 160.7569 
L 54.618736 160.7569 
L 55.269346 160.7569 
L 55.919956 160.7569 
L 56.570567 160.7569 
L 57.221177 160.7569 
L 57.871787 160.7569 
L 58.522398 160.7569 
L 59.173008 160.7569 
L 59.823618 160.7569 
L 60.474228 160.7569 
L 61.124839 160.7569 
L 61.775449 160.7569 
L 62.426059 160.7569 
L 63.07667 160.7569 
L 63.72728 160.7569 
L 64.37789 160.7569 
L 65.028501 160.7569 
L 65.679111 160.7569 
L 66.329721 160.7569 
L 66.980332 160.7569 
L 67.630942 160.7569 
L 68.281552 160.7569 
L 68.932163 160.7569 
L 69.582773 160.7569 
L 70.233383 160.7569 
L 70.883993 160.7569 
L 71.534604 160.7569 
L 72.185214 160.7569 
L 72.835824 160.7569 
L 73.486435 160.7569 
L 74.137045 160.7569 
L 74.787655 160.7569 
L 75.438266 160.7569 
L 76.088876 160.7569 
L 76.739486 160.7569 
L 77.390097 160.7569 
L 78.040707 160.7569 
L 78.691317 160.7569 
L 79.341927 160.7569 
L 79.992538 160.7569 
L 80.643148 160.7569 
L 81.293758 160.7569 
L 81.944369 160.7569 
L 82.594979 160.7569 
L 83.245589 160.7569 
L 83.8962 160.7569 
L 84.54681 160.7569 
L 85.19742 160.7569 
L 85.848031 160.7569 
L 86.498641 160.7569 
L 87.149251 160.7569 
L 87.799862 160.7569 
L 88.450472 160.7569 
L 89.101082 160.7569 
L 89.751692 160.7569 
L 90.402303 160.7569 
L 91.052913 160.7569 
L 91.703523 160.7569 
L 92.354134 160.7569 
L 93.004744 160.7569 
L 93.655354 160.7569 
L 94.305965 160.7569 
L 94.956575 160.7569 
L 95.607185 160.7569 
L 96.257796 160.7569 
L 96.908406 160.7569 
L 97.559016 160.7569 
L 98.209627 160.7569 
L 98.860237 160.7569 
L 99.510847 160.7569 
L 100.161457 160.7569 
L 100.812068 160.7569 
L 101.462678 160.7569 
L 102.113288 160.7569 
L 102.763899 160.7569 
L 103.414509 160.7569 
L 104.065119 160.7569 
L 104.71573 160.7569 
L 105.36634 160.7569 
L 106.01695 160.7569 
L 106.667561 160.7569 
L 107.318171 160.7569 
L 107.968781 160.7569 
L 108.619392 160.7569 
L 109.270002 160.7569 
L 109.920612 160.7569 
L 110.571222 160.7569 
L 111.221833 160.7569 
L 111.872443 160.7569 
L 112.523053 160.7569 
L 113.173664 160.7569 
L 113.824274 160.7569 
L 114.474884 160.7569 
L 115.125495 160.7569 
L 115.776105 160.7569 
L 116.426715 160.7569 
L 117.077326 160.7569 
L 117.727936 160.7569 
L 118.378546 160.7569 
L 119.029156 160.7569 
L 119.679767 160.7569 
L 120.330377 160.7569 
L 120.980987 160.7569 
L 121.631598 160.7569 
L 122.282208 160.7569 
L 122.932818 160.7569 
L 123.583429 160.7569 
L 124.234039 160.7569 
L 124.884649 160.7569 
L 125.53526 160.7569 
L 126.18587 160.7569 
L 126.83648 160.7569 
L 127.487091 160.7569 
L 128.137701 160.7569 
L 128.788311 160.7569 
L 129.438921 160.7569 
L 130.089532 160.7569 
L 130.740142 160.7569 
L 131.390752 160.7569 
L 132.041363 160.7569 
L 132.691973 160.7569 
L 133.342583 160.7569 
L 133.993194 160.7569 
L 134.643804 160.7569 
L 135.294414 160.7569 
L 135.945025 160.7569 
L 136.595635 160.7569 
L 137.246245 160.7569 
L 137.896856 160.7569 
L 138.547466 160.7569 
L 139.198076 160.7569 
L 139.848686 160.7569 
L 140.499297 160.7569 
L 141.149907 160.7569 
L 141.800517 160.7569 
L 142.451128 160.7569 
L 143.101738 160.7569 
L 143.752348 160.7569 
L 144.402959 160.7569 
L 145.053569 160.7569 
L 145.704179 160.7569 
L 146.35479 160.7569 
L 147.0054 160.7569 
L 147.65601 160.7569 
L 148.306621 160.7569 
L 148.957231 160.7569 
L 149.607841 160.7569 
L 150.258451 160.7569 
L 150.909062 160.7569 
L 151.559672 160.7569 
L 152.210282 160.7569 
L 152.860893 160.7569 
L 153.511503 160.7569 
L 154.162113 160.7569 
L 154.812724 160.7569 
L 155.463334 160.7569 
L 156.113944 160.7569 
L 156.764555 160.7569 
L 157.415165 160.7569 
L 158.065775 160.7569 
L 158.716385 160.7569 
L 159.366996 160.7569 
L 160.017606 160.7569 
L 160.668216 160.7569 
L 161.318827 160.7569 
L 161.969437 160.7569 
L 162.620047 160.7569 
L 163.270658 160.7569 
L 163.921268 160.7569 
L 164.571878 160.7569 
L 165.222489 160.7569 
L 165.873099 160.7569 
L 166.523709 160.7569 
L 167.17432 160.7569 
L 167.82493 160.7569 
L 168.47554 160.7569 
L 169.12615 160.7569 
L 169.776761 160.7569 
L 170.427371 160.7569 
L 171.077981 160.7569 
L 171.728592 160.7569 
L 172.379202 160.7569 
L 173.029812 160.7569 
L 173.680423 160.7569 
L 174.331033 160.7569 
L 174.981643 160.7569 
L 175.632254 160.7569 
L 176.282864 160.7569 
L 176.933474 160.7569 
L 177.584085 160.7569 
L 178.234695 160.7569 
L 178.885305 160.7569 
L 179.535915 160.7569 
L 180.186526 160.7569 
L 180.837136 160.7569 
L 181.487746 160.7569 
L 182.138357 160.7569 
L 182.788967 160.7569 
L 183.439577 160.7569 
L 184.090188 160.7569 
L 184.740798 160.7569 
L 185.391408 160.7569 
L 186.042019 160.7569 
L 186.692629 160.7569 
L 187.343239 160.7569 
L 187.99385 160.7569 
L 188.64446 160.7569 
L 189.29507 160.7569 
L 189.94568 160.7569 
L 190.596291 160.7569 
L 191.246901 160.7569 
L 191.897511 160.7569 
L 192.548122 160.7569 
L 193.198732 160.7569 
L 193.849342 160.7569 
L 194.499953 160.7569 
L 195.150563 160.7569 
L 195.801173 160.7569 
L 196.451784 160.7569 
L 197.102394 160.7569 
L 197.753004 160.7569 
L 198.403615 160.7569 
L 199.054225 160.7569 
L 199.704835 160.7569 
L 200.355445 160.7569 
L 201.006056 160.7569 
L 201.656666 160.7569 
L 202.307276 160.7569 
L 202.957887 160.7569 
L 203.608497 160.7569 
L 204.259107 160.7569 
L 204.909718 160.7569 
L 205.560328 160.7569 
L 206.210938 160.7569 
L 206.861549 160.7569 
L 207.512159 160.7569 
L 208.162769 160.7569 
L 208.813379 160.7569 
L 209.46399 160.7569 
L 210.1146 160.7569 
L 210.76521 160.7569 
L 211.415821 160.7569 
L 212.066431 160.7569 
L 212.717041 160.7569 
L 213.367652 160.7569 
L 214.018262 160.7569 
L 214.668872 160.7569 
L 215.319483 160.7569 
L 215.970093 160.7569 
L 216.620703 160.7569 
L 217.271314 160.7569 
L 217.921924 160.7569 
L 218.572534 160.7569 
L 219.223144 160.7569 
L 219.873755 160.7569 
L 220.524365 160.7569 
L 221.174975 160.7569 
L 221.825586 160.7569 
L 222.476196 160.7569 
L 223.126806 160.7569 
L 223.777417 160.7569 
L 224.428027 160.7569 
L 225.078637 160.7569 
L 225.729248 160.7569 
L 226.379858 160.7569 
L 227.030468 160.7569 
L 227.681079 160.7569 
L 228.331689 160.7569 
L 228.982299 160.7569 
L 229.632909 160.7569 
L 230.28352 160.7569 
L 230.93413 160.7569 
L 231.58474 160.7569 
L 232.235351 160.7569 
L 232.885961 160.7569 
L 233.536571 160.7569 
L 234.187182 160.7569 
L 234.837792 160.7569 
L 235.488402 160.7569 
L 236.139013 160.7569 
L 236.789623 160.7569 
L 237.440233 160.7569 
L 238.090844 160.7569 
L 238.741454 160.7569 
L 239.392064 160.7569 
L 240.042674 160.7569 
L 240.693285 160.7569 
L 241.343895 160.7569 
L 241.994505 160.7569 
L 242.645116 160.7569 
L 243.295726 160.7569 
L 243.946336 160.7569 
L 244.596947 160.7569 
L 245.247557 160.7569 
L 245.898167 160.7569 
L 246.548778 160.7569 
L 247.199388 160.7569 
L 247.849998 160.7569 
L 248.500608 160.7569 
L 249.151219 160.7569 
L 249.801829 160.7569 
L 250.452439 160.7569 
L 251.10305 160.7569 
L 251.75366 160.7569 
L 252.40427 160.7569 
L 253.054881 160.7569 
L 253.705491 160.7569 
L 254.356101 160.7569 
L 255.006712 160.7569 
L 255.657322 160.7569 
L 256.307932 160.7569 
L 256.958543 160.7569 
L 257.609153 160.7569 
L 258.259763 160.7569 
L 258.910373 160.7569 
L 259.560984 160.7569 
L 260.211594 160.7569 
L 260.862204 160.7569 
L 261.512815 160.7569 
L 262.163425 160.7569 
L 262.814035 160.7569 
L 263.464646 160.7569 
L 264.115256 160.7569 
L 264.765866 160.7569 
L 265.416477 160.7569 
L 266.067087 160.7569 
L 266.717697 160.7569 
L 267.368308 160.7569 
L 268.018918 160.7569 
L 268.669528 160.7569 
L 269.320138 160.7569 
L 269.970749 160.7569 
L 270.621359 160.7569 
L 271.271969 160.7569 
L 271.92258 160.7569 
L 272.57319 160.7569 
L 273.2238 160.7569 
L 273.874411 160.7569 
L 274.525021 160.7569 
L 275.175631 160.7569 
L 275.826242 160.7569 
L 276.476852 160.7569 
L 277.127462 160.7569 
L 277.778073 160.7569 
L 278.428683 160.7569 
L 279.079293 160.7569 
L 279.729903 160.7569 
L 280.380514 160.7569 
L 281.031124 160.7569 
L 281.681734 160.7569 
L 282.332345 160.7569 
L 282.982955 160.7569 
L 283.633565 160.7569 
L 284.284176 160.7569 
L 284.934786 160.7569 
L 285.585396 160.7569 
L 286.236007 160.7569 
L 286.886617 160.7569 
L 287.537227 160.7569 
L 288.187837 160.7569 
L 288.838448 160.7569 
L 289.489058 160.7569 
L 290.139668 160.7569 
L 290.790279 160.7569 
L 291.440889 160.7569 
L 292.091499 160.7569 
L 292.74211 160.7569 
L 293.39272 160.7569 
L 294.04333 160.7569 
L 294.693941 160.7569 
L 295.344551 160.7569 
L 295.995161 160.7569 
L 296.645772 160.7569 
L 297.296382 160.7569 
L 297.946992 160.7569 
L 298.597602 160.7569 
L 299.248213 160.7569 
L 299.898823 160.7569 
L 300.549433 160.7569 
L 301.200044 160.7569 
L 301.850654 160.7569 
L 302.501264 160.7569 
L 303.151875 160.7569 
L 303.802485 160.7569 
L 304.453095 160.7569 
L 305.103706 160.7569 
L 305.754316 160.7569 
L 306.404926 160.7569 
L 307.055537 160.7569 
L 307.706147 160.7569 
L 308.356757 160.7569 
L 309.007367 160.7569 
L 309.657978 160.7569 
L 310.308588 160.7569 
L 310.959198 160.7569 
L 311.609809 160.7569 
L 312.260419 160.7569 
L 312.911029 160.7569 
L 313.56164 160.7569 
L 314.21225 160.7569 
L 314.86286 160.7569 
L 315.513471 160.7569 
L 316.164081 160.7569 
L 316.814691 160.7569 
L 317.465302 160.7569 
L 318.115912 160.7569 
L 318.766522 160.7569 
L 319.417132 160.7569 
L 320.067743 160.7569 
L 320.718353 160.7569 
L 321.368963 160.7569 
L 322.019574 160.7569 
L 322.670184 160.7569 
L 323.320794 160.7569 
L 323.971405 160.7569 
L 324.622015 160.7569 
L 325.272625 160.7569 
L 325.923236 160.7569 
L 326.573846 160.7569 
L 327.224456 160.7569 
L 327.875066 160.7569 
L 328.525677 160.7569 
L 329.176287 160.7569 
L 329.826897 160.7569 
L 330.477508 160.7569 
L 331.128118 160.7569 
L 331.778728 160.7569 
L 332.429339 160.7569 
L 333.079949 160.7569 
L 333.730559 160.7569 
L 334.38117 160.7569 
L 335.03178 160.7569 
L 335.68239 160.7569 
L 336.333001 160.7569 
L 336.983611 160.7569 
L 337.634221 160.7569 
L 338.284831 160.7569 
L 338.935442 160.7569 
L 339.586052 160.7569 
L 340.236662 160.7569 
L 340.887273 160.7569 
L 340.887273 140.255565 
L 340.887273 140.255565 
L 340.236662 139.503842 
L 339.586052 138.752119 
L 338.935442 138.000396 
L 338.284831 137.248673 
L 337.634221 136.49695 
L 336.983611 135.745227 
L 336.333001 134.993504 
L 335.68239 134.241781 
L 335.03178 133.490058 
L 334.38117 132.738335 
L 333.730559 131.986612 
L 333.079949 131.234888 
L 332.429339 130.483165 
L 331.778728 129.731442 
L 331.128118 128.979719 
L 330.477508 128.227996 
L 329.826897 127.476273 
L 329.176287 126.72455 
L 328.525677 125.972827 
L 327.875066 125.221104 
L 327.224456 124.469381 
L 326.573846 123.717658 
L 325.923236 122.977544 
L 325.272625 123.586459 
L 324.622015 124.195375 
L 323.971405 124.80429 
L 323.320794 125.413205 
L 322.670184 126.02212 
L 322.019574 126.631036 
L 321.368963 127.239951 
L 320.718353 127.848866 
L 320.067743 128.457781 
L 319.417132 129.066697 
L 318.766522 129.675612 
L 318.115912 130.284527 
L 317.465302 130.893443 
L 316.814691 131.502358 
L 316.164081 132.111273 
L 315.513471 132.720188 
L 314.86286 133.329104 
L 314.21225 133.938019 
L 313.56164 134.546934 
L 312.911029 135.15585 
L 312.260419 135.764765 
L 311.609809 136.37368 
L 310.959198 136.334778 
L 310.308588 136.197877 
L 309.657978 136.060975 
L 309.007367 135.924073 
L 308.356757 135.787172 
L 307.706147 135.65027 
L 307.055537 135.513369 
L 306.404926 135.376467 
L 305.754316 135.239565 
L 305.103706 135.102664 
L 304.453095 134.965762 
L 303.802485 134.828861 
L 303.151875 134.691959 
L 302.501264 134.555057 
L 301.850654 134.418156 
L 301.200044 134.281254 
L 300.549433 134.144353 
L 299.898823 134.007451 
L 299.248213 133.870549 
L 298.597602 133.733648 
L 297.946992 133.596746 
L 297.296382 133.459844 
L 296.645772 133.322943 
L 295.995161 133.593137 
L 295.344551 133.920355 
L 294.693941 134.247574 
L 294.04333 134.574793 
L 293.39272 134.902011 
L 292.74211 135.22923 
L 292.091499 135.556449 
L 291.440889 135.883667 
L 290.790279 136.210886 
L 290.139668 136.538105 
L 289.489058 136.865323 
L 288.838448 137.192542 
L 288.187837 137.519761 
L 287.537227 137.846979 
L 286.886617 138.174198 
L 286.236007 138.501417 
L 285.585396 138.828635 
L 284.934786 139.155854 
L 284.284176 139.483073 
L 283.633565 139.810291 
L 282.982955 140.13751 
L 282.332345 140.464729 
L 281.681734 140.791947 
L 281.031124 140.551908 
L 280.380514 140.23864 
L 279.729903 139.925371 
L 279.079293 139.612102 
L 278.428683 139.298833 
L 277.778073 138.985565 
L 277.127462 138.672296 
L 276.476852 138.359027 
L 275.826242 138.045758 
L 275.175631 137.732489 
L 274.525021 137.419221 
L 273.874411 137.105952 
L 273.2238 136.792683 
L 272.57319 136.479414 
L 271.92258 136.166145 
L 271.271969 135.852877 
L 270.621359 135.539608 
L 269.970749 135.226339 
L 269.320138 134.91307 
L 268.669528 134.599801 
L 268.018918 134.286533 
L 267.368308 133.973264 
L 266.717697 133.659995 
L 266.067087 133.353647 
L 265.416477 133.048118 
L 264.765866 132.742588 
L 264.115256 132.437059 
L 263.464646 132.13153 
L 262.814035 131.826001 
L 262.163425 131.520472 
L 261.512815 131.214942 
L 260.862204 130.909413 
L 260.211594 130.603884 
L 259.560984 130.298355 
L 258.910373 129.992825 
L 258.259763 129.687296 
L 257.609153 129.381767 
L 256.958543 129.076238 
L 256.307932 128.770709 
L 255.657322 128.465179 
L 255.006712 128.15965 
L 254.356101 127.854121 
L 253.705491 127.548592 
L 253.054881 127.243063 
L 252.40427 126.937533 
L 251.75366 126.972772 
L 251.10305 127.11903 
L 250.452439 127.265288 
L 249.801829 127.411546 
L 249.151219 127.557804 
L 248.500608 127.704061 
L 247.849998 127.850319 
L 247.199388 127.996577 
L 246.548778 128.142835 
L 245.898167 128.289093 
L 245.247557 128.435351 
L 244.596947 128.581609 
L 243.946336 128.727867 
L 243.295726 128.874125 
L 242.645116 129.020383 
L 241.994505 129.166641 
L 241.343895 129.312899 
L 240.693285 129.459157 
L 240.042674 129.605415 
L 239.392064 129.751673 
L 238.741454 129.89793 
L 238.090844 130.044188 
L 237.440233 130.190446 
L 236.789623 130.32139 
L 236.139013 130.447572 
L 235.488402 130.573753 
L 234.837792 130.699935 
L 234.187182 130.826116 
L 233.536571 130.952298 
L 232.885961 131.078479 
L 232.235351 131.204661 
L 231.58474 131.330842 
L 230.93413 131.457024 
L 230.28352 131.583205 
L 229.632909 131.709387 
L 228.982299 131.835569 
L 228.331689 131.96175 
L 227.681079 132.087932 
L 227.030468 132.214113 
L 226.379858 132.340295 
L 225.729248 132.466476 
L 225.078637 132.592658 
L 224.428027 132.718839 
L 223.777417 132.845021 
L 223.126806 132.971203 
L 222.476196 133.097384 
L 221.825586 133.377216 
L 221.174975 133.702599 
L 220.524365 134.027981 
L 219.873755 134.353364 
L 219.223144 134.678747 
L 218.572534 135.00413 
L 217.921924 135.329513 
L 217.271314 135.654896 
L 216.620703 135.980279 
L 215.970093 136.305661 
L 215.319483 136.631044 
L 214.668872 136.956427 
L 214.018262 137.28181 
L 213.367652 137.607193 
L 212.717041 137.932576 
L 212.066431 138.257959 
L 211.415821 138.583341 
L 210.76521 138.908724 
L 210.1146 139.234107 
L 209.46399 139.55949 
L 208.813379 139.884873 
L 208.162769 140.210256 
L 207.512159 140.683143 
L 206.861549 141.24214 
L 206.210938 141.801138 
L 205.560328 142.360136 
L 204.909718 142.919133 
L 204.259107 143.478131 
L 203.608497 144.037129 
L 202.957887 144.596126 
L 202.307276 145.155124 
L 201.656666 145.714122 
L 201.006056 146.273119 
L 200.355445 146.832117 
L 199.704835 147.391114 
L 199.054225 147.950112 
L 198.403615 148.50911 
L 197.753004 149.068107 
L 197.102394 149.627105 
L 196.451784 150.186103 
L 195.801173 150.7451 
L 195.150563 151.304098 
L 194.499953 151.863096 
L 193.849342 152.422093 
L 193.198732 152.981091 
L 192.548122 152.825572 
L 191.897511 152.268019 
L 191.246901 151.710466 
L 190.596291 151.152913 
L 189.94568 150.59536 
L 189.29507 150.037807 
L 188.64446 149.480255 
L 187.99385 148.922702 
L 187.343239 148.365149 
L 186.692629 147.807596 
L 186.042019 147.250043 
L 185.391408 146.69249 
L 184.740798 146.134937 
L 184.090188 145.577384 
L 183.439577 145.019831 
L 182.788967 144.462278 
L 182.138357 143.904725 
L 181.487746 143.347172 
L 180.837136 142.789619 
L 180.186526 142.232066 
L 179.535915 141.674513 
L 178.885305 141.11696 
L 178.234695 140.559407 
L 177.584085 139.956372 
L 176.933474 139.328681 
L 176.282864 138.700989 
L 175.632254 138.073298 
L 174.981643 137.445607 
L 174.331033 136.817915 
L 173.680423 136.190224 
L 173.029812 135.562533 
L 172.379202 134.934842 
L 171.728592 134.30715 
L 171.077981 133.679459 
L 170.427371 133.051768 
L 169.776761 132.424076 
L 169.12615 131.796385 
L 168.47554 131.168694 
L 167.82493 130.541003 
L 167.17432 129.913311 
L 166.523709 129.28562 
L 165.873099 128.657929 
L 165.222489 128.030237 
L 164.571878 127.402546 
L 163.921268 126.774855 
L 163.270658 126.332028 
L 162.620047 126.067861 
L 161.969437 125.803694 
L 161.318827 125.539528 
L 160.668216 125.275361 
L 160.017606 125.011194 
L 159.366996 124.747027 
L 158.716385 124.482861 
L 158.065775 124.218694 
L 157.415165 123.954527 
L 156.764555 123.690361 
L 156.113944 123.426194 
L 155.463334 123.162027 
L 154.812724 122.897861 
L 154.162113 122.633694 
L 153.511503 122.369527 
L 152.860893 122.105361 
L 152.210282 121.841194 
L 151.559672 121.577027 
L 150.909062 121.312861 
L 150.258451 121.048694 
L 149.607841 120.784527 
L 148.957231 120.52036 
L 148.306621 120.739741 
L 147.65601 121.41075 
L 147.0054 122.08176 
L 146.35479 122.75277 
L 145.704179 123.423779 
L 145.053569 124.094789 
L 144.402959 124.765799 
L 143.752348 125.436808 
L 143.101738 126.107818 
L 142.451128 126.778828 
L 141.800517 127.449837 
L 141.149907 128.120847 
L 140.499297 128.791857 
L 139.848686 129.462866 
L 139.198076 130.133876 
L 138.547466 130.804886 
L 137.896856 131.475895 
L 137.246245 132.146905 
L 136.595635 132.817915 
L 135.945025 133.488924 
L 135.294414 134.159934 
L 134.643804 134.830944 
L 133.993194 135.501953 
L 133.342583 136.140888 
L 132.691973 136.750873 
L 132.041363 137.360858 
L 131.390752 137.970843 
L 130.740142 138.580828 
L 130.089532 139.190813 
L 129.438921 139.800798 
L 128.788311 140.410783 
L 128.137701 141.020768 
L 127.487091 141.630753 
L 126.83648 142.240738 
L 126.18587 142.850723 
L 125.53526 143.460708 
L 124.884649 144.070693 
L 124.234039 144.680678 
L 123.583429 145.290663 
L 122.932818 145.900648 
L 122.282208 146.510633 
L 121.631598 147.120618 
L 120.980987 147.730603 
L 120.330377 148.340588 
L 119.679767 148.950573 
L 119.029156 149.323303 
L 118.378546 149.318107 
L 117.727936 149.31291 
L 117.077326 149.307714 
L 116.426715 149.302517 
L 115.776105 149.297321 
L 115.125495 149.292124 
L 114.474884 149.286928 
L 113.824274 149.281731 
L 113.173664 149.276535 
L 112.523053 149.271338 
L 111.872443 149.266142 
L 111.221833 149.260946 
L 110.571222 149.255749 
L 109.920612 149.250553 
L 109.270002 149.245356 
L 108.619392 149.24016 
L 107.968781 149.234963 
L 107.318171 149.229767 
L 106.667561 149.22457 
L 106.01695 149.219374 
L 105.36634 149.214177 
L 104.71573 149.208981 
L 104.065119 149.216933 
L 103.414509 149.24509 
L 102.763899 149.273248 
L 102.113288 149.301406 
L 101.462678 149.329564 
L 100.812068 149.357722 
L 100.161457 149.38588 
L 99.510847 149.414038 
L 98.860237 149.442196 
L 98.209627 149.470354 
L 97.559016 149.498512 
L 96.908406 149.526669 
L 96.257796 149.554827 
L 95.607185 149.582985 
L 94.956575 149.611143 
L 94.305965 149.639301 
L 93.655354 149.667459 
L 93.004744 149.695617 
L 92.354134 149.723775 
L 91.703523 149.751933 
L 91.052913 149.780091 
L 90.402303 149.808248 
L 89.751692 149.836406 
L 89.101082 149.7494 
L 88.450472 149.491598 
L 87.799862 149.233796 
L 87.149251 148.975994 
L 86.498641 148.718192 
L 85.848031 148.46039 
L 85.19742 148.202588 
L 84.54681 147.944786 
L 83.8962 147.686985 
L 83.245589 147.429183 
L 82.594979 147.171381 
L 81.944369 146.913579 
L 81.293758 146.655777 
L 80.643148 146.397975 
L 79.992538 146.140173 
L 79.341927 145.882371 
L 78.691317 145.62457 
L 78.040707 145.366768 
L 77.390097 145.108966 
L 76.739486 144.851164 
L 76.088876 144.593362 
L 75.438266 144.33556 
L 74.787655 144.077758 
L 74.137045 143.479223 
L 73.486435 142.392915 
L 72.835824 141.306607 
L 72.185214 140.220299 
L 71.534604 139.133992 
L 70.883993 138.047684 
L 70.233383 136.961376 
L 69.582773 135.875068 
L 68.932163 134.788761 
L 68.281552 133.702453 
L 67.630942 132.616145 
L 66.980332 131.529837 
L 66.329721 130.44353 
L 65.679111 129.357222 
L 65.028501 128.270914 
L 64.37789 127.184606 
L 63.72728 126.098298 
L 63.07667 125.011991 
L 62.426059 123.925683 
L 61.775449 122.839375 
L 61.124839 121.753067 
L 60.474228 120.66676 
L 59.823618 120.171688 
L 59.173008 121.264403 
L 58.522398 122.357117 
L 57.871787 123.449832 
L 57.221177 124.542546 
L 56.570567 125.635261 
L 55.919956 126.727975 
L 55.269346 127.82069 
L 54.618736 128.913404 
L 53.968125 130.006119 
L 53.317515 131.098833 
L 52.666905 132.191548 
L 52.016294 133.284262 
L 51.365684 134.376977 
L 50.715074 135.469691 
L 50.064463 136.562406 
L 49.413853 137.65512 
L 48.763243 138.747835 
L 48.112633 139.840549 
L 47.462022 140.933264 
L 46.811412 142.025978 
L 46.160802 143.118693 
L 45.510191 144.211407 
L 44.859581 144.795111 
L 44.208971 144.069042 
L 43.55836 143.342974 
L 42.90775 142.616905 
L 42.25714 141.890837 
L 41.606529 141.164768 
L 40.955919 140.438699 
L 40.305309 139.712631 
L 39.654698 138.986562 
L 39.004088 138.260494 
L 38.353478 137.534425 
L 37.702868 136.808357 
L 37.052257 136.082288 
L 36.401647 135.35622 
L 35.751037 134.630151 
L 35.100426 133.904083 
L 34.449816 133.178014 
L 33.799206 132.451946 
L 33.148595 131.725877 
L 32.497985 130.999809 
L 31.847375 130.27374 
L 31.196764 129.547672 
L 30.546154 128.821603 
L 29.895544 128.688444 
L 29.244934 130.018261 
L 28.594323 131.348079 
L 27.943713 132.677897 
L 27.293103 134.007715 
L 26.642492 135.337533 
L 25.991882 136.66735 
L 25.341272 137.997168 
L 24.690661 139.326986 
L 24.040051 140.656804 
L 23.389441 141.986622 
L 22.73883 143.316439 
L 22.08822 144.646257 
L 21.43761 145.976075 
L 20.786999 147.305893 
L 20.136389 148.63571 
L 19.485779 149.965528 
L 18.835169 151.295346 
L 18.184558 152.625164 
L 17.533948 153.954982 
L 16.883338 155.284799 
L 16.232727 156.614617 
z
" style="fill:#f15a24;fill-opacity:0.3;"/>
   </g>
   <g id="PathCollection_1">
    <defs>
     <path d="M 0 1.581139 
C 0.419323 1.581139 0.821528 1.41454 1.118034 1.118034 
C 1.41454 0.821528 1.581139 0.419323 1.581139 -0 
C 1.581139 -0.419323 1.41454 -0.821528 1.118034 -1.118034 
C 0.821528 -1.41454 0.419323 -1.581139 0 -1.581139 
C -0.419323 -1.581139 -0.821528 -1.41454 -1.118034 -1.118034 
C -1.41454 -0.821528 -1.581139 -0.419323 -1.581139 0 
C -1.581139 0.419323 -1.41454 0.821528 -1.118034 1.118034 
C -0.821528 1.41454 -0.419323 1.581139 0 1.581139 
z
" id="C0_0_b536ac861e"/>
    </defs>
    <g clip-path="url(#p9688cb4016)">
     <use style="fill:#008000;stroke:#008000;stroke-width:0.5;" x="16.232727" xlink:href="#C0_0_b536ac861e" y="115.663969"/>
    </g>
    <g clip-path="url(#p9688cb4016)">
     <use style="fill:#ff0000;stroke:#ff0000;stroke-width:0.5;" x="30.083177" xlink:href="#C0_0_b536ac861e" y="128.30493"/>
    </g>
    <g clip-path="url(#p9688cb4016)">
     <use style="fill:#008000;stroke:#008000;stroke-width:0.5;" x="45.041663" xlink:href="#C0_0_b536ac861e" y="127.167129"/>
    </g>
    <g clip-path="url(#p9688cb4016)">
     <use style="fill:#ff0000;stroke:#ff0000;stroke-width:0.5;" x="60.000149" xlink:href="#C0_0_b536ac861e" y="119.875201"/>
    </g>
    <g clip-path="url(#p9688cb4016)">
     <use style="fill:#008000;stroke:#008000;stroke-width:0.5;" x="74.404617" xlink:href="#C0_0_b536ac861e" y="127.523949"/>
    </g>
    <g clip-path="url(#p9688cb4016)">
     <use style="fill:#008000;stroke:#008000;stroke-width:0.5;" x="89.363103" xlink:href="#C0_0_b536ac861e" y="121.305181"/>
    </g>
    <g clip-path="url(#p9688cb4016)">
     <use style="fill:#008000;stroke:#008000;stroke-width:0.5;" x="104.321589" xlink:href="#C0_0_b536ac861e" y="126.479471"/>
    </g>
    <g clip-path="url(#p9688cb4016)">
     <use style="fill:#008000;stroke:#008000;stroke-width:0.5;" x="119.280074" xlink:href="#C0_0_b536ac861e" y="120.999007"/>
    </g>
    <g clip-path="url(#p9688cb4016)">
     <use style="fill:#ff0000;stroke:#ff0000;stroke-width:0.5;" x="133.684542" xlink:href="#C0_0_b536ac861e" y="135.820282"/>
    </g>
    <g clip-path="url(#p9688cb4016)">
     <use style="fill:#ff0000;stroke:#ff0000;stroke-width:0.5;" x="148.643028" xlink:href="#C0_0_b536ac861e" y="120.392785"/>
    </g>
    <g clip-path="url(#p9688cb4016)">
     <use style="fill:#ff0000;stroke:#ff0000;stroke-width:0.5;" x="163.601514" xlink:href="#C0_0_b536ac861e" y="126.466365"/>
    </g>
    <g clip-path="url(#p9688cb4016)">
     <use style="fill:#008000;stroke:#008000;stroke-width:0.5;" x="178.005982" xlink:href="#C0_0_b536ac861e" y="133.033248"/>
    </g>
    <g clip-path="url(#p9688cb4016)">
     <use style="fill:#ffff00;stroke:#ffff00;stroke-width:0.5;" x="192.964468" xlink:href="#C0_0_b536ac861e" y="121.424599"/>
    </g>
    <g clip-path="url(#p9688cb4016)">
     <use style="fill:#ffff00;stroke:#ffff00;stroke-width:0.5;" x="207.922954" xlink:href="#C0_0_b536ac861e" y="139.107017"/>
    </g>
    <g clip-path="url(#p9688cb4016)">
     <use style="fill:#ff0000;stroke:#ff0000;stroke-width:0.5;" x="222.327422" xlink:href="#C0_0_b536ac861e" y="133.126238"/>
    </g>
    <g clip-path="url(#p9688cb4016)">
     <use style="fill:#ff0000;stroke:#ff0000;stroke-width:0.5;" x="237.285908" xlink:href="#C0_0_b536ac861e" y="130.225139"/>
    </g>
    <g clip-path="url(#p9688cb4016)">
     <use style="fill:#ff0000;stroke:#ff0000;stroke-width:0.5;" x="252.244393" xlink:href="#C0_0_b536ac861e" y="126.862454"/>
    </g>
    <g clip-path="url(#p9688cb4016)">
     <use style="fill:#ff0000;stroke:#ff0000;stroke-width:0.5;" x="266.648861" xlink:href="#C0_0_b536ac861e" y="133.62685"/>
    </g>
    <g clip-path="url(#p9688cb4016)">
     <use style="fill:#008000;stroke:#008000;stroke-width:0.5;" x="281.607347" xlink:href="#C0_0_b536ac861e" y="132.479455"/>
    </g>
    <g clip-path="url(#p9688cb4016)">
     <use style="fill:#ff0000;stroke:#ff0000;stroke-width:0.5;" x="296.565833" xlink:href="#C0_0_b536ac861e" y="133.306122"/>
    </g>
    <g clip-path="url(#p9688cb4016)">
     <use style="fill:#ff0000;stroke:#ff0000;stroke-width:0.5;" x="311.524319" xlink:href="#C0_0_b536ac861e" y="136.453691"/>
    </g>
    <g clip-path="url(#p9688cb4016)">
     <use style="fill:#ff0000;stroke:#ff0000;stroke-width:0.5;" x="325.928787" xlink:href="#C0_0_b536ac861e" y="122.972348"/>
    </g>
    <g clip-path="url(#p9688cb4016)">
     <use style="fill:#008000;stroke:#008000;stroke-width:0.5;" x="340.887273" xlink:href="#C0_0_b536ac861e" y="132.210002"/>
    </g>
   </g>
   <g id="line2d_1">
    <path clip-path="url(#p9688cb4016)" d="M 16.232727 115.663969 
L 29.895544 142.340703 
L 30.546154 142.226085 
L 44.859581 127.356289 
L 45.510191 127.971375 
L 59.823618 152.540901 
L 60.474228 152.010593 
L 74.137045 127.994284 
L 74.787655 127.364706 
L 89.101082 121.414112 
L 89.751692 121.439598 
L 104.065119 126.390756 
L 104.71573 126.335067 
L 119.029156 121.090938 
L 119.679767 121.481003 
L 133.993194 138.666793 
L 148.306621 152.448054 
L 148.957231 152.641254 
L 163.270658 146.687219 
L 163.921268 146.249551 
L 177.584085 133.429133 
L 178.234695 133.327251 
L 192.548122 151.726732 
L 193.198732 152.186287 
L 208.162769 147.269283 
L 221.825586 138.016438 
L 222.476196 137.744012 
L 237.440233 144.493322 
L 251.75366 147.905281 
L 252.40427 147.931502 
L 268.018918 139.170574 
L 281.681734 132.539633 
L 296.645772 144.571005 
L 311.609809 142.835987 
L 325.923236 150.92631 
L 337.634221 136.280957 
L 340.887273 132.210002 
L 340.887273 132.210002 
" style="fill:none;stroke:#61c46e;stroke-linecap:square;"/>
   </g>
   <g id="line2d_2">
    <path clip-path="url(#p9688cb4016)" d="M 16.232727 154.590311 
L 30.546154 155.821211 
L 47.462022 154.613871 
L 60.474228 154.191548 
L 75.438266 155.439118 
L 89.101082 155.70539 
L 90.402303 155.396003 
L 104.065119 151.26121 
L 104.71573 151.324852 
L 119.029156 156.454663 
L 119.679767 156.437329 
L 133.993194 152.700154 
L 150.258451 153.720225 
L 166.523709 153.775713 
L 177.584085 153.483394 
L 178.234695 152.98224 
L 192.548122 122.316595 
L 193.198732 121.701522 
L 221.825586 155.47525 
L 222.476196 156.027506 
L 237.440233 152.185129 
L 253.054881 152.063669 
L 267.368308 153.404692 
L 281.681734 153.537318 
L 296.645772 148.974951 
L 311.609809 147.659231 
L 325.923236 152.965045 
L 340.887273 154.403332 
L 340.887273 154.403332 
" style="fill:none;stroke:#f6ed22;stroke-linecap:square;"/>
   </g>
   <g id="line2d_3">
    <path clip-path="url(#p9688cb4016)" d="M 16.232727 156.614617 
L 29.895544 128.688444 
L 30.546154 128.821603 
L 44.859581 144.795111 
L 45.510191 144.211407 
L 59.823618 120.171688 
L 60.474228 120.66676 
L 74.137045 143.479223 
L 74.787655 144.077758 
L 89.101082 149.7494 
L 89.751692 149.836406 
L 106.01695 149.219374 
L 119.029156 149.323303 
L 119.679767 148.950573 
L 135.294414 134.159934 
L 148.306621 120.739741 
L 148.957231 120.52036 
L 163.270658 126.332028 
L 163.921268 126.774855 
L 178.885305 141.11696 
L 192.548122 152.825572 
L 193.198732 152.981091 
L 208.162769 140.210256 
L 222.476196 133.097384 
L 240.693285 129.459157 
L 252.40427 126.937533 
L 276.476852 138.359027 
L 281.681734 140.791947 
L 296.645772 133.322943 
L 311.609809 136.37368 
L 325.923236 122.977544 
L 335.68239 134.241781 
L 340.887273 140.255565 
L 340.887273 140.255565 
" style="fill:none;stroke:#f15a24;stroke-linecap:square;"/>
   </g>
  </g>
 </g>
 <defs>
  <clipPath id="p9688cb4016">
   <rect height="266.112" width="357.12" x="0" y="-0"/>
  </clipPath>
 </defs>
</svg>
