<?xml version="1.0" encoding="utf-8" standalone="no"?>
<!DOCTYPE svg PUBLIC "-//W3C//DTD SVG 1.1//EN"
  "http://www.w3.org/Graphics/SVG/1.1/DTD/svg11.dtd">
<svg height="266.112pt" version="1.1" viewBox="0 0 357.12 266.112" width="357.12pt" xmlns="http://www.w3.org/2000/svg" xmlns:xlink="http://www.w3.org/1999/xlink">
 <metadata>
  <rdf:RDF xmlns:cc="http://creativecommons.org/ns#" xmlns:dc="http://purl.org/dc/elements/1.1/" xmlns:rdf="http://www.w3.org/1999/02/22-rdf-syntax-ns#">
   <cc:Work>
    <dc:type rdf:resource="http://purl.org/dc/dcmitype/StillImage"/>
    <dc:date>2022-03-05T14:42:06.177483</dc:date>
    <dc:format>image/svg+xml</dc:format>
    <dc:creator>
     <cc:Agent>
      <dc:title>Matplotlib v3.4.2, https://matplotlib.org/</dc:title>
     </cc:Agent>
    </dc:creator>
   </cc:Work>
  </rdf:RDF>
 </metadata>
 <defs>
  <style type="text/css">*{stroke-linecap:butt;stroke-linejoin:round;}</style>
 </defs>
 <g id="figure_1">
  <g id="patch_1">
   <path d="M 0 266.112 
L 357.12 266.112 
L 357.12 0 
L 0 0 
z
" style="fill:#ffffff;"/>
  </g>
  <g id="axes_1">
   <g id="PolyCollection_1">
    <path clip-path="url(#pefc746734c)" d="M 16.232727 117.554667 
L 16.232727 150.972918 
L 16.883338 150.972918 
L 17.533948 150.972918 
L 18.184558 150.972918 
L 18.835169 150.972918 
L 19.485779 150.972918 
L 20.136389 150.972918 
L 20.786999 150.972918 
L 21.43761 150.972918 
L 22.08822 150.972918 
L 22.73883 150.972918 
L 23.389441 150.972918 
L 24.040051 150.972918 
L 24.690661 150.972918 
L 25.341272 150.972918 
L 25.991882 150.972918 
L 26.642492 150.972918 
L 27.293103 150.972918 
L 27.943713 150.972918 
L 28.594323 150.972918 
L 29.244934 150.972918 
L 29.895544 150.972918 
L 30.546154 150.972918 
L 31.196764 150.972918 
L 31.847375 150.972918 
L 32.497985 150.972918 
L 33.148595 150.972918 
L 33.799206 150.972918 
L 34.449816 150.972918 
L 35.100426 150.972918 
L 35.751037 150.972918 
L 36.401647 150.972918 
L 37.052257 150.972918 
L 37.702868 150.972918 
L 38.353478 150.972918 
L 39.004088 150.972918 
L 39.654698 150.972918 
L 40.305309 150.972918 
L 40.955919 150.972918 
L 41.606529 150.972918 
L 42.25714 150.972918 
L 42.90775 150.972918 
L 43.55836 150.972918 
L 44.208971 150.972918 
L 44.859581 150.972918 
L 45.510191 150.972918 
L 46.160802 150.972918 
L 46.811412 150.972918 
L 47.462022 150.972918 
L 48.112633 150.972918 
L 48.763243 150.972918 
L 49.413853 150.972918 
L 50.064463 150.972918 
L 50.715074 150.972918 
L 51.365684 150.972918 
L 52.016294 150.972918 
L 52.666905 150.972918 
L 53.317515 150.972918 
L 53.968125 150.972918 
L 54.618736 150.972918 
L 55.269346 150.972918 
L 55.919956 150.972918 
L 56.570567 150.972918 
L 57.221177 150.972918 
L 57.871787 150.972918 
L 58.522398 150.972918 
L 59.173008 150.972918 
L 59.823618 150.972918 
L 60.474228 150.972918 
L 61.124839 150.972918 
L 61.775449 150.972918 
L 62.426059 150.972918 
L 63.07667 150.972918 
L 63.72728 150.972918 
L 64.37789 150.972918 
L 65.028501 150.972918 
L 65.679111 150.972918 
L 66.329721 150.972918 
L 66.980332 150.972918 
L 67.630942 150.972918 
L 68.281552 150.972918 
L 68.932163 150.972918 
L 69.582773 150.972918 
L 70.233383 150.972918 
L 70.883993 150.972918 
L 71.534604 150.972918 
L 72.185214 150.972918 
L 72.835824 150.972918 
L 73.486435 150.972918 
L 74.137045 150.972918 
L 74.787655 150.972918 
L 75.438266 150.972918 
L 76.088876 150.972918 
L 76.739486 150.972918 
L 77.390097 150.972918 
L 78.040707 150.972918 
L 78.691317 150.972918 
L 79.341927 150.972918 
L 79.992538 150.972918 
L 80.643148 150.972918 
L 81.293758 150.972918 
L 81.944369 150.972918 
L 82.594979 150.972918 
L 83.245589 150.972918 
L 83.8962 150.972918 
L 84.54681 150.972918 
L 85.19742 150.972918 
L 85.848031 150.972918 
L 86.498641 150.972918 
L 87.149251 150.972918 
L 87.799862 150.972918 
L 88.450472 150.972918 
L 89.101082 150.972918 
L 89.751692 150.972918 
L 90.402303 150.972918 
L 91.052913 150.972918 
L 91.703523 150.972918 
L 92.354134 150.972918 
L 93.004744 150.972918 
L 93.655354 150.972918 
L 94.305965 150.972918 
L 94.956575 150.972918 
L 95.607185 150.972918 
L 96.257796 150.972918 
L 96.908406 150.972918 
L 97.559016 150.972918 
L 98.209627 150.972918 
L 98.860237 150.972918 
L 99.510847 150.972918 
L 100.161457 150.972918 
L 100.812068 150.972918 
L 101.462678 150.972918 
L 102.113288 150.972918 
L 102.763899 150.972918 
L 103.414509 150.972918 
L 104.065119 150.972918 
L 104.71573 150.972918 
L 105.36634 150.972918 
L 106.01695 150.972918 
L 106.667561 150.972918 
L 107.318171 150.972918 
L 107.968781 150.972918 
L 108.619392 150.972918 
L 109.270002 150.972918 
L 109.920612 150.972918 
L 110.571222 150.972918 
L 111.221833 150.972918 
L 111.872443 150.972918 
L 112.523053 150.972918 
L 113.173664 150.972918 
L 113.824274 150.972918 
L 114.474884 150.972918 
L 115.125495 150.972918 
L 115.776105 150.972918 
L 116.426715 150.972918 
L 117.077326 150.972918 
L 117.727936 150.972918 
L 118.378546 150.972918 
L 119.029156 150.972918 
L 119.679767 150.972918 
L 120.330377 150.972918 
L 120.980987 150.972918 
L 121.631598 150.972918 
L 122.282208 150.972918 
L 122.932818 150.972918 
L 123.583429 150.972918 
L 124.234039 150.972918 
L 124.884649 150.972918 
L 125.53526 150.972918 
L 126.18587 150.972918 
L 126.83648 150.972918 
L 127.487091 150.972918 
L 128.137701 150.972918 
L 128.788311 150.972918 
L 129.438921 150.972918 
L 130.089532 150.972918 
L 130.740142 150.972918 
L 131.390752 150.972918 
L 132.041363 150.972918 
L 132.691973 150.972918 
L 133.342583 150.972918 
L 133.993194 150.972918 
L 134.643804 150.972918 
L 135.294414 150.972918 
L 135.945025 150.972918 
L 136.595635 150.972918 
L 137.246245 150.972918 
L 137.896856 150.972918 
L 138.547466 150.972918 
L 139.198076 150.972918 
L 139.848686 150.972918 
L 140.499297 150.972918 
L 141.149907 150.972918 
L 141.800517 150.972918 
L 142.451128 150.972918 
L 143.101738 150.972918 
L 143.752348 150.972918 
L 144.402959 150.972918 
L 145.053569 150.972918 
L 145.704179 150.972918 
L 146.35479 150.972918 
L 147.0054 150.972918 
L 147.65601 150.972918 
L 148.306621 150.972918 
L 148.957231 150.972918 
L 149.607841 150.972918 
L 150.258451 150.972918 
L 150.909062 150.972918 
L 151.559672 150.972918 
L 152.210282 150.972918 
L 152.860893 150.972918 
L 153.511503 150.972918 
L 154.162113 150.972918 
L 154.812724 150.972918 
L 155.463334 150.972918 
L 156.113944 150.972918 
L 156.764555 150.972918 
L 157.415165 150.972918 
L 158.065775 150.972918 
L 158.716385 150.972918 
L 159.366996 150.972918 
L 160.017606 150.972918 
L 160.668216 150.972918 
L 161.318827 150.972918 
L 161.969437 150.972918 
L 162.620047 150.972918 
L 163.270658 150.972918 
L 163.921268 150.972918 
L 164.571878 150.972918 
L 165.222489 150.972918 
L 165.873099 150.972918 
L 166.523709 150.972918 
L 167.17432 150.972918 
L 167.82493 150.972918 
L 168.47554 150.972918 
L 169.12615 150.972918 
L 169.776761 150.972918 
L 170.427371 150.972918 
L 171.077981 150.972918 
L 171.728592 150.972918 
L 172.379202 150.972918 
L 173.029812 150.972918 
L 173.680423 150.972918 
L 174.331033 150.972918 
L 174.981643 150.972918 
L 175.632254 150.972918 
L 176.282864 150.972918 
L 176.933474 150.972918 
L 177.584085 150.972918 
L 178.234695 150.972918 
L 178.885305 150.972918 
L 179.535915 150.972918 
L 180.186526 150.972918 
L 180.837136 150.972918 
L 181.487746 150.972918 
L 182.138357 150.972918 
L 182.788967 150.972918 
L 183.439577 150.972918 
L 184.090188 150.972918 
L 184.740798 150.972918 
L 185.391408 150.972918 
L 186.042019 150.972918 
L 186.692629 150.972918 
L 187.343239 150.972918 
L 187.99385 150.972918 
L 188.64446 150.972918 
L 189.29507 150.972918 
L 189.94568 150.972918 
L 190.596291 150.972918 
L 191.246901 150.972918 
L 191.897511 150.972918 
L 192.548122 150.972918 
L 193.198732 150.972918 
L 193.849342 150.972918 
L 194.499953 150.972918 
L 195.150563 150.972918 
L 195.801173 150.972918 
L 196.451784 150.972918 
L 197.102394 150.972918 
L 197.753004 150.972918 
L 198.403615 150.972918 
L 199.054225 150.972918 
L 199.704835 150.972918 
L 200.355445 150.972918 
L 201.006056 150.972918 
L 201.656666 150.972918 
L 202.307276 150.972918 
L 202.957887 150.972918 
L 203.608497 150.972918 
L 204.259107 150.972918 
L 204.909718 150.972918 
L 205.560328 150.972918 
L 206.210938 150.972918 
L 206.861549 150.972918 
L 207.512159 150.972918 
L 208.162769 150.972918 
L 208.813379 150.972918 
L 209.46399 150.972918 
L 210.1146 150.972918 
L 210.76521 150.972918 
L 211.415821 150.972918 
L 212.066431 150.972918 
L 212.717041 150.972918 
L 213.367652 150.972918 
L 214.018262 150.972918 
L 214.668872 150.972918 
L 215.319483 150.972918 
L 215.970093 150.972918 
L 216.620703 150.972918 
L 217.271314 150.972918 
L 217.921924 150.972918 
L 218.572534 150.972918 
L 219.223144 150.972918 
L 219.873755 150.972918 
L 220.524365 150.972918 
L 221.174975 150.972918 
L 221.825586 150.972918 
L 222.476196 150.972918 
L 223.126806 150.972918 
L 223.777417 150.972918 
L 224.428027 150.972918 
L 225.078637 150.972918 
L 225.729248 150.972918 
L 226.379858 150.972918 
L 227.030468 150.972918 
L 227.681079 150.972918 
L 228.331689 150.972918 
L 228.982299 150.972918 
L 229.632909 150.972918 
L 230.28352 150.972918 
L 230.93413 150.972918 
L 231.58474 150.972918 
L 232.235351 150.972918 
L 232.885961 150.972918 
L 233.536571 150.972918 
L 234.187182 150.972918 
L 234.837792 150.972918 
L 235.488402 150.972918 
L 236.139013 150.972918 
L 236.789623 150.972918 
L 237.440233 150.972918 
L 238.090844 150.972918 
L 238.741454 150.972918 
L 239.392064 150.972918 
L 240.042674 150.972918 
L 240.693285 150.972918 
L 241.343895 150.972918 
L 241.994505 150.972918 
L 242.645116 150.972918 
L 243.295726 150.972918 
L 243.946336 150.972918 
L 244.596947 150.972918 
L 245.247557 150.972918 
L 245.898167 150.972918 
L 246.548778 150.972918 
L 247.199388 150.972918 
L 247.849998 150.972918 
L 248.500608 150.972918 
L 249.151219 150.972918 
L 249.801829 150.972918 
L 250.452439 150.972918 
L 251.10305 150.972918 
L 251.75366 150.972918 
L 252.40427 150.972918 
L 253.054881 150.972918 
L 253.705491 150.972918 
L 254.356101 150.972918 
L 255.006712 150.972918 
L 255.657322 150.972918 
L 256.307932 150.972918 
L 256.958543 150.972918 
L 257.609153 150.972918 
L 258.259763 150.972918 
L 258.910373 150.972918 
L 259.560984 150.972918 
L 260.211594 150.972918 
L 260.862204 150.972918 
L 261.512815 150.972918 
L 262.163425 150.972918 
L 262.814035 150.972918 
L 263.464646 150.972918 
L 264.115256 150.972918 
L 264.765866 150.972918 
L 265.416477 150.972918 
L 266.067087 150.972918 
L 266.717697 150.972918 
L 267.368308 150.972918 
L 268.018918 150.972918 
L 268.669528 150.972918 
L 269.320138 150.972918 
L 269.970749 150.972918 
L 270.621359 150.972918 
L 271.271969 150.972918 
L 271.92258 150.972918 
L 272.57319 150.972918 
L 273.2238 150.972918 
L 273.874411 150.972918 
L 274.525021 150.972918 
L 275.175631 150.972918 
L 275.826242 150.972918 
L 276.476852 150.972918 
L 277.127462 150.972918 
L 277.778073 150.972918 
L 278.428683 150.972918 
L 279.079293 150.972918 
L 279.729903 150.972918 
L 280.380514 150.972918 
L 281.031124 150.972918 
L 281.681734 150.972918 
L 282.332345 150.972918 
L 282.982955 150.972918 
L 283.633565 150.972918 
L 284.284176 150.972918 
L 284.934786 150.972918 
L 285.585396 150.972918 
L 286.236007 150.972918 
L 286.886617 150.972918 
L 287.537227 150.972918 
L 288.187837 150.972918 
L 288.838448 150.972918 
L 289.489058 150.972918 
L 290.139668 150.972918 
L 290.790279 150.972918 
L 291.440889 150.972918 
L 292.091499 150.972918 
L 292.74211 150.972918 
L 293.39272 150.972918 
L 294.04333 150.972918 
L 294.693941 150.972918 
L 295.344551 150.972918 
L 295.995161 150.972918 
L 296.645772 150.972918 
L 297.296382 150.972918 
L 297.946992 150.972918 
L 298.597602 150.972918 
L 299.248213 150.972918 
L 299.898823 150.972918 
L 300.549433 150.972918 
L 301.200044 150.972918 
L 301.850654 150.972918 
L 302.501264 150.972918 
L 303.151875 150.972918 
L 303.802485 150.972918 
L 304.453095 150.972918 
L 305.103706 150.972918 
L 305.754316 150.972918 
L 306.404926 150.972918 
L 307.055537 150.972918 
L 307.706147 150.972918 
L 308.356757 150.972918 
L 309.007367 150.972918 
L 309.657978 150.972918 
L 310.308588 150.972918 
L 310.959198 150.972918 
L 311.609809 150.972918 
L 312.260419 150.972918 
L 312.911029 150.972918 
L 313.56164 150.972918 
L 314.21225 150.972918 
L 314.86286 150.972918 
L 315.513471 150.972918 
L 316.164081 150.972918 
L 316.814691 150.972918 
L 317.465302 150.972918 
L 318.115912 150.972918 
L 318.766522 150.972918 
L 319.417132 150.972918 
L 320.067743 150.972918 
L 320.718353 150.972918 
L 321.368963 150.972918 
L 322.019574 150.972918 
L 322.670184 150.972918 
L 323.320794 150.972918 
L 323.971405 150.972918 
L 324.622015 150.972918 
L 325.272625 150.972918 
L 325.923236 150.972918 
L 326.573846 150.972918 
L 327.224456 150.972918 
L 327.875066 150.972918 
L 328.525677 150.972918 
L 329.176287 150.972918 
L 329.826897 150.972918 
L 330.477508 150.972918 
L 331.128118 150.972918 
L 331.778728 150.972918 
L 332.429339 150.972918 
L 333.079949 150.972918 
L 333.730559 150.972918 
L 334.38117 150.972918 
L 335.03178 150.972918 
L 335.68239 150.972918 
L 336.333001 150.972918 
L 336.983611 150.972918 
L 337.634221 150.972918 
L 338.284831 150.972918 
L 338.935442 150.972918 
L 339.586052 150.972918 
L 340.236662 150.972918 
L 340.887273 150.972918 
L 340.887273 141.407837 
L 340.887273 141.407837 
L 340.236662 141.619521 
L 339.586052 141.831204 
L 338.935442 142.042888 
L 338.284831 142.254572 
L 337.634221 142.466255 
L 336.983611 142.677939 
L 336.333001 142.889622 
L 335.68239 143.101306 
L 335.03178 143.312989 
L 334.38117 143.524673 
L 333.730559 143.736357 
L 333.079949 143.94804 
L 332.429339 144.159724 
L 331.778728 144.371407 
L 331.128118 144.62829 
L 330.477508 144.906452 
L 329.826897 145.184614 
L 329.176287 145.462776 
L 328.525677 145.740938 
L 327.875066 146.0191 
L 327.224456 146.297262 
L 326.573846 146.575424 
L 325.923236 146.853586 
L 325.272625 147.131748 
L 324.622015 147.40991 
L 323.971405 147.688072 
L 323.320794 147.966233 
L 322.670184 148.244395 
L 322.019574 148.522557 
L 321.368963 148.22843 
L 320.718353 147.799233 
L 320.067743 147.370035 
L 319.417132 146.940838 
L 318.766522 146.511641 
L 318.115912 146.082444 
L 317.465302 145.653246 
L 316.814691 145.224049 
L 316.164081 144.794852 
L 315.513471 144.365654 
L 314.86286 143.936457 
L 314.21225 143.50726 
L 313.56164 143.078063 
L 312.911029 142.648865 
L 312.260419 142.219668 
L 311.609809 141.734313 
L 310.959198 141.245259 
L 310.308588 140.756205 
L 309.657978 140.26715 
L 309.007367 139.778096 
L 308.356757 139.289041 
L 307.706147 138.799987 
L 307.055537 138.310932 
L 306.404926 137.821878 
L 305.754316 137.332824 
L 305.103706 136.843769 
L 304.453095 136.354715 
L 303.802485 135.86566 
L 303.151875 135.376606 
L 302.501264 134.940219 
L 301.850654 135.233398 
L 301.200044 135.526577 
L 300.549433 135.819756 
L 299.898823 136.112936 
L 299.248213 136.406115 
L 298.597602 136.699294 
L 297.946992 136.992473 
L 297.296382 137.285653 
L 296.645772 137.578832 
L 295.995161 137.872011 
L 295.344551 138.16519 
L 294.693941 138.45837 
L 294.04333 138.751549 
L 293.39272 139.044728 
L 292.74211 139.225348 
L 292.091499 139.367895 
L 291.440889 139.510441 
L 290.790279 139.652987 
L 290.139668 139.795534 
L 289.489058 139.93808 
L 288.838448 140.080626 
L 288.187837 140.223172 
L 287.537227 140.365719 
L 286.886617 140.508265 
L 286.236007 140.650811 
L 285.585396 140.793358 
L 284.934786 140.935904 
L 284.284176 141.07845 
L 283.633565 141.220997 
L 282.982955 141.497355 
L 282.332345 141.792589 
L 281.681734 142.087823 
L 281.031124 142.383057 
L 280.380514 142.678291 
L 279.729903 142.973525 
L 279.079293 143.268759 
L 278.428683 143.563993 
L 277.778073 143.859227 
L 277.127462 144.154461 
L 276.476852 144.449695 
L 275.826242 144.744929 
L 275.175631 145.040163 
L 274.525021 145.335397 
L 273.874411 145.626714 
L 273.2238 145.212109 
L 272.57319 144.797504 
L 271.92258 144.3829 
L 271.271969 143.968295 
L 270.621359 143.55369 
L 269.970749 143.139085 
L 269.320138 142.72448 
L 268.669528 142.309875 
L 268.018918 141.89527 
L 267.368308 141.480666 
L 266.717697 141.066061 
L 266.067087 140.651456 
L 265.416477 140.236851 
L 264.765866 139.822246 
L 264.115256 139.542481 
L 263.464646 139.324599 
L 262.814035 139.106717 
L 262.163425 138.888835 
L 261.512815 138.670953 
L 260.862204 138.453071 
L 260.211594 138.235189 
L 259.560984 138.017307 
L 258.910373 137.799425 
L 258.259763 137.581543 
L 257.609153 137.363662 
L 256.958543 137.14578 
L 256.307932 136.927898 
L 255.657322 136.710016 
L 255.006712 136.492134 
L 254.356101 136.511435 
L 253.705491 136.58473 
L 253.054881 136.658024 
L 252.40427 136.731319 
L 251.75366 136.804613 
L 251.10305 136.877908 
L 250.452439 136.951203 
L 249.801829 137.024497 
L 249.151219 137.097792 
L 248.500608 137.171086 
L 247.849998 137.244381 
L 247.199388 137.317675 
L 246.548778 137.39097 
L 245.898167 137.464265 
L 245.247557 137.537559 
L 244.596947 137.694522 
L 243.946336 137.856476 
L 243.295726 138.018429 
L 242.645116 138.180383 
L 241.994505 138.342337 
L 241.343895 138.50429 
L 240.693285 138.666244 
L 240.042674 138.828198 
L 239.392064 138.990151 
L 238.741454 139.152105 
L 238.090844 139.314059 
L 237.440233 139.476012 
L 236.789623 139.637966 
L 236.139013 139.799919 
L 235.488402 139.913105 
L 234.837792 139.996857 
L 234.187182 140.08061 
L 233.536571 140.164362 
L 232.885961 140.248114 
L 232.235351 140.331866 
L 231.58474 140.415618 
L 230.93413 140.499371 
L 230.28352 140.583123 
L 229.632909 140.666875 
L 228.982299 140.750627 
L 228.331689 140.83438 
L 227.681079 140.918132 
L 227.030468 141.001884 
L 226.379858 141.085636 
L 225.729248 141.220048 
L 225.078637 141.371099 
L 224.428027 141.52215 
L 223.777417 141.673201 
L 223.126806 141.824252 
L 222.476196 141.975303 
L 221.825586 142.126354 
L 221.174975 142.277405 
L 220.524365 142.428457 
L 219.873755 142.579508 
L 219.223144 142.730559 
L 218.572534 142.88161 
L 217.921924 143.032661 
L 217.271314 143.183712 
L 216.620703 143.334763 
L 215.970093 143.219533 
L 215.319483 143.068643 
L 214.668872 142.917753 
L 214.018262 142.766863 
L 213.367652 142.615973 
L 212.717041 142.465084 
L 212.066431 142.314194 
L 211.415821 142.163304 
L 210.76521 142.012414 
L 210.1146 141.861525 
L 209.46399 141.710635 
L 208.813379 141.559745 
L 208.162769 141.408855 
L 207.512159 141.257966 
L 206.861549 141.16963 
L 206.210938 141.130084 
L 205.560328 141.090538 
L 204.909718 141.050992 
L 204.259107 141.011445 
L 203.608497 140.971899 
L 202.957887 140.932353 
L 202.307276 140.892807 
L 201.656666 140.853261 
L 201.006056 140.813715 
L 200.355445 140.774169 
L 199.704835 140.734623 
L 199.054225 140.695077 
L 198.403615 140.655531 
L 197.753004 140.615985 
L 197.102394 140.114879 
L 196.451784 139.407326 
L 195.801173 138.699773 
L 195.150563 137.992219 
L 194.499953 137.284666 
L 193.849342 136.577112 
L 193.198732 135.869559 
L 192.548122 135.162005 
L 191.897511 134.454452 
L 191.246901 133.746899 
L 190.596291 133.039345 
L 189.94568 132.331792 
L 189.29507 131.624238 
L 188.64446 130.916685 
L 187.99385 130.209131 
L 187.343239 130.237762 
L 186.692629 130.427898 
L 186.042019 130.618034 
L 185.391408 130.80817 
L 184.740798 130.998306 
L 184.090188 131.188441 
L 183.439577 131.378577 
L 182.788967 131.568713 
L 182.138357 131.758849 
L 181.487746 131.948985 
L 180.837136 132.139121 
L 180.186526 132.329256 
L 179.535915 132.519392 
L 178.885305 132.709528 
L 178.234695 132.899664 
L 177.584085 133.0449 
L 176.933474 133.187735 
L 176.282864 133.33057 
L 175.632254 133.473404 
L 174.981643 133.616239 
L 174.331033 133.759074 
L 173.680423 133.901909 
L 173.029812 134.044743 
L 172.379202 134.187578 
L 171.728592 134.330413 
L 171.077981 134.473247 
L 170.427371 134.616082 
L 169.776761 134.758917 
L 169.12615 134.901752 
L 168.47554 135.376575 
L 167.82493 136.047097 
L 167.17432 136.717619 
L 166.523709 137.388141 
L 165.873099 138.058663 
L 165.222489 138.729185 
L 164.571878 139.399707 
L 163.921268 140.070229 
L 163.270658 140.740751 
L 162.620047 141.411273 
L 161.969437 142.081795 
L 161.318827 142.752317 
L 160.668216 143.422839 
L 160.017606 144.093361 
L 159.366996 144.763883 
L 158.716385 145.155293 
L 158.065775 145.457729 
L 157.415165 145.760165 
L 156.764555 146.0626 
L 156.113944 146.365036 
L 155.463334 146.667472 
L 154.812724 146.969908 
L 154.162113 147.272343 
L 153.511503 147.574779 
L 152.860893 147.877215 
L 152.210282 148.17965 
L 151.559672 148.482086 
L 150.909062 148.784522 
L 150.258451 149.086958 
L 149.607841 149.389393 
L 148.957231 149.50699 
L 148.306621 149.601137 
L 147.65601 149.695283 
L 147.0054 149.78943 
L 146.35479 149.883577 
L 145.704179 149.977724 
L 145.053569 150.07187 
L 144.402959 150.166017 
L 143.752348 150.260164 
L 143.101738 150.354311 
L 142.451128 150.448457 
L 141.800517 150.542604 
L 141.149907 150.636751 
L 140.499297 150.730898 
L 139.848686 150.761446 
L 139.198076 150.743492 
L 138.547466 150.725538 
L 137.896856 150.707583 
L 137.246245 150.689629 
L 136.595635 150.671675 
L 135.945025 150.65372 
L 135.294414 150.635766 
L 134.643804 150.617812 
L 133.993194 150.599857 
L 133.342583 150.581903 
L 132.691973 150.563949 
L 132.041363 150.545995 
L 131.390752 150.52804 
L 130.740142 150.510086 
L 130.089532 150.445243 
L 129.438921 150.359966 
L 128.788311 150.274689 
L 128.137701 150.189412 
L 127.487091 150.104135 
L 126.83648 150.018858 
L 126.18587 149.93358 
L 125.53526 149.848303 
L 124.884649 149.763026 
L 124.234039 149.677749 
L 123.583429 149.592472 
L 122.932818 149.507195 
L 122.282208 149.421917 
L 121.631598 149.33664 
L 120.980987 149.251363 
L 120.330377 148.66791 
L 119.679767 147.979226 
L 119.029156 147.290542 
L 118.378546 146.601858 
L 117.727936 145.913174 
L 117.077326 145.22449 
L 116.426715 144.535806 
L 115.776105 143.847122 
L 115.125495 143.158438 
L 114.474884 142.469754 
L 113.824274 141.781071 
L 113.173664 141.092387 
L 112.523053 140.403703 
L 111.872443 139.715019 
L 111.221833 139.432125 
L 110.571222 139.54616 
L 109.920612 139.660195 
L 109.270002 139.774231 
L 108.619392 139.888266 
L 107.968781 140.002302 
L 107.318171 140.116337 
L 106.667561 140.230373 
L 106.01695 140.344408 
L 105.36634 140.458443 
L 104.71573 140.572479 
L 104.065119 140.686514 
L 103.414509 140.80055 
L 102.763899 140.914585 
L 102.113288 141.02862 
L 101.462678 141.052518 
L 100.812068 141.024529 
L 100.161457 140.996539 
L 99.510847 140.968549 
L 98.860237 140.940559 
L 98.209627 140.912569 
L 97.559016 140.884579 
L 96.908406 140.85659 
L 96.257796 140.8286 
L 95.607185 140.80061 
L 94.956575 140.77262 
L 94.305965 140.74463 
L 93.655354 140.716641 
L 93.004744 140.688651 
L 92.354134 140.660661 
L 91.703523 140.91441 
L 91.052913 141.255288 
L 90.402303 141.596165 
L 89.751692 141.937042 
L 89.101082 142.277919 
L 88.450472 142.618796 
L 87.799862 142.959673 
L 87.149251 143.30055 
L 86.498641 143.641427 
L 85.848031 143.982304 
L 85.19742 144.323181 
L 84.54681 144.664058 
L 83.8962 145.004935 
L 83.245589 145.345812 
L 82.594979 145.228391 
L 81.944369 144.536388 
L 81.293758 143.844385 
L 80.643148 143.152382 
L 79.992538 142.460379 
L 79.341927 141.768376 
L 78.691317 141.076373 
L 78.040707 140.38437 
L 77.390097 139.692367 
L 76.739486 139.000364 
L 76.088876 138.308361 
L 75.438266 137.616358 
L 74.787655 136.924355 
L 74.137045 136.232352 
L 73.486435 135.540349 
L 72.835824 135.215777 
L 72.185214 135.165185 
L 71.534604 135.114593 
L 70.883993 135.064001 
L 70.233383 135.013409 
L 69.582773 134.962817 
L 68.932163 134.912225 
L 68.281552 134.861634 
L 67.630942 134.811042 
L 66.980332 134.76045 
L 66.329721 134.709858 
L 65.679111 134.659266 
L 65.028501 134.608674 
L 64.37789 134.558082 
L 63.72728 134.50749 
L 63.07667 134.69855 
L 62.426059 134.992197 
L 61.775449 135.285845 
L 61.124839 135.579493 
L 60.474228 135.873141 
L 59.823618 136.166789 
L 59.173008 136.460436 
L 58.522398 136.754084 
L 57.871787 137.047732 
L 57.221177 137.34138 
L 56.570567 137.635027 
L 55.919956 137.928675 
L 55.269346 138.222323 
L 54.618736 138.515971 
L 53.968125 138.809619 
L 53.317515 138.196689 
L 52.666905 137.399555 
L 52.016294 136.60242 
L 51.365684 135.805286 
L 50.715074 135.008152 
L 50.064463 134.211017 
L 49.413853 133.413883 
L 48.763243 132.616749 
L 48.112633 131.819614 
L 47.462022 131.02248 
L 46.811412 130.225346 
L 46.160802 129.428211 
L 45.510191 128.631077 
L 44.859581 127.833943 
L 44.208971 127.64511 
L 43.55836 128.038303 
L 42.90775 128.431496 
L 42.25714 128.824689 
L 41.606529 129.217882 
L 40.955919 129.611075 
L 40.305309 130.004269 
L 39.654698 130.397462 
L 39.004088 130.790655 
L 38.353478 131.183848 
L 37.702868 131.577041 
L 37.052257 131.970234 
L 36.401647 132.363427 
L 35.751037 132.75662 
L 35.100426 133.149813 
L 34.449816 133.593033 
L 33.799206 134.064373 
L 33.148595 134.535712 
L 32.497985 135.007051 
L 31.847375 135.47839 
L 31.196764 135.94973 
L 30.546154 136.421069 
L 29.895544 136.892408 
L 29.244934 137.363747 
L 28.594323 137.835086 
L 27.943713 138.306426 
L 27.293103 138.777765 
L 26.642492 139.249104 
L 25.991882 139.720443 
L 25.341272 140.191782 
L 24.690661 139.029664 
L 24.040051 137.377741 
L 23.389441 135.725818 
L 22.73883 134.073895 
L 22.08822 132.421972 
L 21.43761 130.77005 
L 20.786999 129.118127 
L 20.136389 127.466204 
L 19.485779 125.814281 
L 18.835169 124.162358 
L 18.184558 122.510435 
L 17.533948 120.858512 
L 16.883338 119.20659 
L 16.232727 117.554667 
z
" style="fill:#61c46e;fill-opacity:0.3;"/>
   </g>
   <g id="PolyCollection_2">
    <path clip-path="url(#pefc746734c)" d="M 16.232727 149.545436 
L 16.232727 150.972918 
L 16.883338 150.972918 
L 17.533948 150.972918 
L 18.184558 150.972918 
L 18.835169 150.972918 
L 19.485779 150.972918 
L 20.136389 150.972918 
L 20.786999 150.972918 
L 21.43761 150.972918 
L 22.08822 150.972918 
L 22.73883 150.972918 
L 23.389441 150.972918 
L 24.040051 150.972918 
L 24.690661 150.972918 
L 25.341272 150.972918 
L 25.991882 150.972918 
L 26.642492 150.972918 
L 27.293103 150.972918 
L 27.943713 150.972918 
L 28.594323 150.972918 
L 29.244934 150.972918 
L 29.895544 150.972918 
L 30.546154 150.972918 
L 31.196764 150.972918 
L 31.847375 150.972918 
L 32.497985 150.972918 
L 33.148595 150.972918 
L 33.799206 150.972918 
L 34.449816 150.972918 
L 35.100426 150.972918 
L 35.751037 150.972918 
L 36.401647 150.972918 
L 37.052257 150.972918 
L 37.702868 150.972918 
L 38.353478 150.972918 
L 39.004088 150.972918 
L 39.654698 150.972918 
L 40.305309 150.972918 
L 40.955919 150.972918 
L 41.606529 150.972918 
L 42.25714 150.972918 
L 42.90775 150.972918 
L 43.55836 150.972918 
L 44.208971 150.972918 
L 44.859581 150.972918 
L 45.510191 150.972918 
L 46.160802 150.972918 
L 46.811412 150.972918 
L 47.462022 150.972918 
L 48.112633 150.972918 
L 48.763243 150.972918 
L 49.413853 150.972918 
L 50.064463 150.972918 
L 50.715074 150.972918 
L 51.365684 150.972918 
L 52.016294 150.972918 
L 52.666905 150.972918 
L 53.317515 150.972918 
L 53.968125 150.972918 
L 54.618736 150.972918 
L 55.269346 150.972918 
L 55.919956 150.972918 
L 56.570567 150.972918 
L 57.221177 150.972918 
L 57.871787 150.972918 
L 58.522398 150.972918 
L 59.173008 150.972918 
L 59.823618 150.972918 
L 60.474228 150.972918 
L 61.124839 150.972918 
L 61.775449 150.972918 
L 62.426059 150.972918 
L 63.07667 150.972918 
L 63.72728 150.972918 
L 64.37789 150.972918 
L 65.028501 150.972918 
L 65.679111 150.972918 
L 66.329721 150.972918 
L 66.980332 150.972918 
L 67.630942 150.972918 
L 68.281552 150.972918 
L 68.932163 150.972918 
L 69.582773 150.972918 
L 70.233383 150.972918 
L 70.883993 150.972918 
L 71.534604 150.972918 
L 72.185214 150.972918 
L 72.835824 150.972918 
L 73.486435 150.972918 
L 74.137045 150.972918 
L 74.787655 150.972918 
L 75.438266 150.972918 
L 76.088876 150.972918 
L 76.739486 150.972918 
L 77.390097 150.972918 
L 78.040707 150.972918 
L 78.691317 150.972918 
L 79.341927 150.972918 
L 79.992538 150.972918 
L 80.643148 150.972918 
L 81.293758 150.972918 
L 81.944369 150.972918 
L 82.594979 150.972918 
L 83.245589 150.972918 
L 83.8962 150.972918 
L 84.54681 150.972918 
L 85.19742 150.972918 
L 85.848031 150.972918 
L 86.498641 150.972918 
L 87.149251 150.972918 
L 87.799862 150.972918 
L 88.450472 150.972918 
L 89.101082 150.972918 
L 89.751692 150.972918 
L 90.402303 150.972918 
L 91.052913 150.972918 
L 91.703523 150.972918 
L 92.354134 150.972918 
L 93.004744 150.972918 
L 93.655354 150.972918 
L 94.305965 150.972918 
L 94.956575 150.972918 
L 95.607185 150.972918 
L 96.257796 150.972918 
L 96.908406 150.972918 
L 97.559016 150.972918 
L 98.209627 150.972918 
L 98.860237 150.972918 
L 99.510847 150.972918 
L 100.161457 150.972918 
L 100.812068 150.972918 
L 101.462678 150.972918 
L 102.113288 150.972918 
L 102.763899 150.972918 
L 103.414509 150.972918 
L 104.065119 150.972918 
L 104.71573 150.972918 
L 105.36634 150.972918 
L 106.01695 150.972918 
L 106.667561 150.972918 
L 107.318171 150.972918 
L 107.968781 150.972918 
L 108.619392 150.972918 
L 109.270002 150.972918 
L 109.920612 150.972918 
L 110.571222 150.972918 
L 111.221833 150.972918 
L 111.872443 150.972918 
L 112.523053 150.972918 
L 113.173664 150.972918 
L 113.824274 150.972918 
L 114.474884 150.972918 
L 115.125495 150.972918 
L 115.776105 150.972918 
L 116.426715 150.972918 
L 117.077326 150.972918 
L 117.727936 150.972918 
L 118.378546 150.972918 
L 119.029156 150.972918 
L 119.679767 150.972918 
L 120.330377 150.972918 
L 120.980987 150.972918 
L 121.631598 150.972918 
L 122.282208 150.972918 
L 122.932818 150.972918 
L 123.583429 150.972918 
L 124.234039 150.972918 
L 124.884649 150.972918 
L 125.53526 150.972918 
L 126.18587 150.972918 
L 126.83648 150.972918 
L 127.487091 150.972918 
L 128.137701 150.972918 
L 128.788311 150.972918 
L 129.438921 150.972918 
L 130.089532 150.972918 
L 130.740142 150.972918 
L 131.390752 150.972918 
L 132.041363 150.972918 
L 132.691973 150.972918 
L 133.342583 150.972918 
L 133.993194 150.972918 
L 134.643804 150.972918 
L 135.294414 150.972918 
L 135.945025 150.972918 
L 136.595635 150.972918 
L 137.246245 150.972918 
L 137.896856 150.972918 
L 138.547466 150.972918 
L 139.198076 150.972918 
L 139.848686 150.972918 
L 140.499297 150.972918 
L 141.149907 150.972918 
L 141.800517 150.972918 
L 142.451128 150.972918 
L 143.101738 150.972918 
L 143.752348 150.972918 
L 144.402959 150.972918 
L 145.053569 150.972918 
L 145.704179 150.972918 
L 146.35479 150.972918 
L 147.0054 150.972918 
L 147.65601 150.972918 
L 148.306621 150.972918 
L 148.957231 150.972918 
L 149.607841 150.972918 
L 150.258451 150.972918 
L 150.909062 150.972918 
L 151.559672 150.972918 
L 152.210282 150.972918 
L 152.860893 150.972918 
L 153.511503 150.972918 
L 154.162113 150.972918 
L 154.812724 150.972918 
L 155.463334 150.972918 
L 156.113944 150.972918 
L 156.764555 150.972918 
L 157.415165 150.972918 
L 158.065775 150.972918 
L 158.716385 150.972918 
L 159.366996 150.972918 
L 160.017606 150.972918 
L 160.668216 150.972918 
L 161.318827 150.972918 
L 161.969437 150.972918 
L 162.620047 150.972918 
L 163.270658 150.972918 
L 163.921268 150.972918 
L 164.571878 150.972918 
L 165.222489 150.972918 
L 165.873099 150.972918 
L 166.523709 150.972918 
L 167.17432 150.972918 
L 167.82493 150.972918 
L 168.47554 150.972918 
L 169.12615 150.972918 
L 169.776761 150.972918 
L 170.427371 150.972918 
L 171.077981 150.972918 
L 171.728592 150.972918 
L 172.379202 150.972918 
L 173.029812 150.972918 
L 173.680423 150.972918 
L 174.331033 150.972918 
L 174.981643 150.972918 
L 175.632254 150.972918 
L 176.282864 150.972918 
L 176.933474 150.972918 
L 177.584085 150.972918 
L 178.234695 150.972918 
L 178.885305 150.972918 
L 179.535915 150.972918 
L 180.186526 150.972918 
L 180.837136 150.972918 
L 181.487746 150.972918 
L 182.138357 150.972918 
L 182.788967 150.972918 
L 183.439577 150.972918 
L 184.090188 150.972918 
L 184.740798 150.972918 
L 185.391408 150.972918 
L 186.042019 150.972918 
L 186.692629 150.972918 
L 187.343239 150.972918 
L 187.99385 150.972918 
L 188.64446 150.972918 
L 189.29507 150.972918 
L 189.94568 150.972918 
L 190.596291 150.972918 
L 191.246901 150.972918 
L 191.897511 150.972918 
L 192.548122 150.972918 
L 193.198732 150.972918 
L 193.849342 150.972918 
L 194.499953 150.972918 
L 195.150563 150.972918 
L 195.801173 150.972918 
L 196.451784 150.972918 
L 197.102394 150.972918 
L 197.753004 150.972918 
L 198.403615 150.972918 
L 199.054225 150.972918 
L 199.704835 150.972918 
L 200.355445 150.972918 
L 201.006056 150.972918 
L 201.656666 150.972918 
L 202.307276 150.972918 
L 202.957887 150.972918 
L 203.608497 150.972918 
L 204.259107 150.972918 
L 204.909718 150.972918 
L 205.560328 150.972918 
L 206.210938 150.972918 
L 206.861549 150.972918 
L 207.512159 150.972918 
L 208.162769 150.972918 
L 208.813379 150.972918 
L 209.46399 150.972918 
L 210.1146 150.972918 
L 210.76521 150.972918 
L 211.415821 150.972918 
L 212.066431 150.972918 
L 212.717041 150.972918 
L 213.367652 150.972918 
L 214.018262 150.972918 
L 214.668872 150.972918 
L 215.319483 150.972918 
L 215.970093 150.972918 
L 216.620703 150.972918 
L 217.271314 150.972918 
L 217.921924 150.972918 
L 218.572534 150.972918 
L 219.223144 150.972918 
L 219.873755 150.972918 
L 220.524365 150.972918 
L 221.174975 150.972918 
L 221.825586 150.972918 
L 222.476196 150.972918 
L 223.126806 150.972918 
L 223.777417 150.972918 
L 224.428027 150.972918 
L 225.078637 150.972918 
L 225.729248 150.972918 
L 226.379858 150.972918 
L 227.030468 150.972918 
L 227.681079 150.972918 
L 228.331689 150.972918 
L 228.982299 150.972918 
L 229.632909 150.972918 
L 230.28352 150.972918 
L 230.93413 150.972918 
L 231.58474 150.972918 
L 232.235351 150.972918 
L 232.885961 150.972918 
L 233.536571 150.972918 
L 234.187182 150.972918 
L 234.837792 150.972918 
L 235.488402 150.972918 
L 236.139013 150.972918 
L 236.789623 150.972918 
L 237.440233 150.972918 
L 238.090844 150.972918 
L 238.741454 150.972918 
L 239.392064 150.972918 
L 240.042674 150.972918 
L 240.693285 150.972918 
L 241.343895 150.972918 
L 241.994505 150.972918 
L 242.645116 150.972918 
L 243.295726 150.972918 
L 243.946336 150.972918 
L 244.596947 150.972918 
L 245.247557 150.972918 
L 245.898167 150.972918 
L 246.548778 150.972918 
L 247.199388 150.972918 
L 247.849998 150.972918 
L 248.500608 150.972918 
L 249.151219 150.972918 
L 249.801829 150.972918 
L 250.452439 150.972918 
L 251.10305 150.972918 
L 251.75366 150.972918 
L 252.40427 150.972918 
L 253.054881 150.972918 
L 253.705491 150.972918 
L 254.356101 150.972918 
L 255.006712 150.972918 
L 255.657322 150.972918 
L 256.307932 150.972918 
L 256.958543 150.972918 
L 257.609153 150.972918 
L 258.259763 150.972918 
L 258.910373 150.972918 
L 259.560984 150.972918 
L 260.211594 150.972918 
L 260.862204 150.972918 
L 261.512815 150.972918 
L 262.163425 150.972918 
L 262.814035 150.972918 
L 263.464646 150.972918 
L 264.115256 150.972918 
L 264.765866 150.972918 
L 265.416477 150.972918 
L 266.067087 150.972918 
L 266.717697 150.972918 
L 267.368308 150.972918 
L 268.018918 150.972918 
L 268.669528 150.972918 
L 269.320138 150.972918 
L 269.970749 150.972918 
L 270.621359 150.972918 
L 271.271969 150.972918 
L 271.92258 150.972918 
L 272.57319 150.972918 
L 273.2238 150.972918 
L 273.874411 150.972918 
L 274.525021 150.972918 
L 275.175631 150.972918 
L 275.826242 150.972918 
L 276.476852 150.972918 
L 277.127462 150.972918 
L 277.778073 150.972918 
L 278.428683 150.972918 
L 279.079293 150.972918 
L 279.729903 150.972918 
L 280.380514 150.972918 
L 281.031124 150.972918 
L 281.681734 150.972918 
L 282.332345 150.972918 
L 282.982955 150.972918 
L 283.633565 150.972918 
L 284.284176 150.972918 
L 284.934786 150.972918 
L 285.585396 150.972918 
L 286.236007 150.972918 
L 286.886617 150.972918 
L 287.537227 150.972918 
L 288.187837 150.972918 
L 288.838448 150.972918 
L 289.489058 150.972918 
L 290.139668 150.972918 
L 290.790279 150.972918 
L 291.440889 150.972918 
L 292.091499 150.972918 
L 292.74211 150.972918 
L 293.39272 150.972918 
L 294.04333 150.972918 
L 294.693941 150.972918 
L 295.344551 150.972918 
L 295.995161 150.972918 
L 296.645772 150.972918 
L 297.296382 150.972918 
L 297.946992 150.972918 
L 298.597602 150.972918 
L 299.248213 150.972918 
L 299.898823 150.972918 
L 300.549433 150.972918 
L 301.200044 150.972918 
L 301.850654 150.972918 
L 302.501264 150.972918 
L 303.151875 150.972918 
L 303.802485 150.972918 
L 304.453095 150.972918 
L 305.103706 150.972918 
L 305.754316 150.972918 
L 306.404926 150.972918 
L 307.055537 150.972918 
L 307.706147 150.972918 
L 308.356757 150.972918 
L 309.007367 150.972918 
L 309.657978 150.972918 
L 310.308588 150.972918 
L 310.959198 150.972918 
L 311.609809 150.972918 
L 312.260419 150.972918 
L 312.911029 150.972918 
L 313.56164 150.972918 
L 314.21225 150.972918 
L 314.86286 150.972918 
L 315.513471 150.972918 
L 316.164081 150.972918 
L 316.814691 150.972918 
L 317.465302 150.972918 
L 318.115912 150.972918 
L 318.766522 150.972918 
L 319.417132 150.972918 
L 320.067743 150.972918 
L 320.718353 150.972918 
L 321.368963 150.972918 
L 322.019574 150.972918 
L 322.670184 150.972918 
L 323.320794 150.972918 
L 323.971405 150.972918 
L 324.622015 150.972918 
L 325.272625 150.972918 
L 325.923236 150.972918 
L 326.573846 150.972918 
L 327.224456 150.972918 
L 327.875066 150.972918 
L 328.525677 150.972918 
L 329.176287 150.972918 
L 329.826897 150.972918 
L 330.477508 150.972918 
L 331.128118 150.972918 
L 331.778728 150.972918 
L 332.429339 150.972918 
L 333.079949 150.972918 
L 333.730559 150.972918 
L 334.38117 150.972918 
L 335.03178 150.972918 
L 335.68239 150.972918 
L 336.333001 150.972918 
L 336.983611 150.972918 
L 337.634221 150.972918 
L 338.284831 150.972918 
L 338.935442 150.972918 
L 339.586052 150.972918 
L 340.236662 150.972918 
L 340.887273 150.972918 
L 340.887273 147.336526 
L 340.887273 147.336526 
L 340.236662 147.048752 
L 339.586052 146.760978 
L 338.935442 146.473205 
L 338.284831 146.185431 
L 337.634221 145.897657 
L 336.983611 145.609883 
L 336.333001 145.322109 
L 335.68239 145.034335 
L 335.03178 144.746561 
L 334.38117 144.458787 
L 333.730559 144.171013 
L 333.079949 143.883239 
L 332.429339 143.595465 
L 331.778728 143.307691 
L 331.128118 143.353749 
L 330.477508 143.556967 
L 329.826897 143.760186 
L 329.176287 143.963405 
L 328.525677 144.166624 
L 327.875066 144.369842 
L 327.224456 144.573061 
L 326.573846 144.77628 
L 325.923236 144.979499 
L 325.272625 145.182718 
L 324.622015 145.385936 
L 323.971405 145.589155 
L 323.320794 145.792374 
L 322.670184 145.995593 
L 322.019574 146.198811 
L 321.368963 145.732909 
L 320.718353 145.109083 
L 320.067743 144.485256 
L 319.417132 143.86143 
L 318.766522 143.237604 
L 318.115912 142.613777 
L 317.465302 141.989951 
L 316.814691 141.366125 
L 316.164081 140.742298 
L 315.513471 140.118472 
L 314.86286 139.494646 
L 314.21225 138.870819 
L 313.56164 138.246993 
L 312.911029 137.623167 
L 312.260419 136.99934 
L 311.609809 137.466511 
L 310.959198 138.005559 
L 310.308588 138.544607 
L 309.657978 139.083654 
L 309.007367 139.622702 
L 308.356757 140.16175 
L 307.706147 140.700798 
L 307.055537 141.239846 
L 306.404926 141.778894 
L 305.754316 142.317942 
L 305.103706 142.856989 
L 304.453095 143.396037 
L 303.802485 143.935085 
L 303.151875 144.474133 
L 302.501264 144.990402 
L 301.850654 145.191134 
L 301.200044 145.391865 
L 300.549433 145.592596 
L 299.898823 145.793328 
L 299.248213 145.994059 
L 298.597602 146.19479 
L 297.946992 146.395521 
L 297.296382 146.596253 
L 296.645772 146.796984 
L 295.995161 146.997715 
L 295.344551 147.198446 
L 294.693941 147.399178 
L 294.04333 147.599909 
L 293.39272 147.80064 
L 292.74211 147.853894 
L 292.091499 147.857263 
L 291.440889 147.860632 
L 290.790279 147.864001 
L 290.139668 147.86737 
L 289.489058 147.870739 
L 288.838448 147.874108 
L 288.187837 147.877477 
L 287.537227 147.880846 
L 286.886617 147.884215 
L 286.236007 147.887584 
L 285.585396 147.890953 
L 284.934786 147.894321 
L 284.284176 147.89769 
L 283.633565 147.901059 
L 282.982955 147.899474 
L 282.332345 147.89719 
L 281.681734 147.894905 
L 281.031124 147.892621 
L 280.380514 147.890337 
L 279.729903 147.888052 
L 279.079293 147.885768 
L 278.428683 147.883484 
L 277.778073 147.8812 
L 277.127462 147.878915 
L 276.476852 147.876631 
L 275.826242 147.874347 
L 275.175631 147.872062 
L 274.525021 147.869778 
L 273.874411 147.867254 
L 273.2238 147.821538 
L 272.57319 147.775823 
L 271.92258 147.730107 
L 271.271969 147.684391 
L 270.621359 147.638675 
L 269.970749 147.592959 
L 269.320138 147.547244 
L 268.669528 147.501528 
L 268.018918 147.455812 
L 267.368308 147.410096 
L 266.717697 147.36438 
L 266.067087 147.318665 
L 265.416477 147.272949 
L 264.765866 147.227233 
L 264.115256 147.251388 
L 263.464646 147.307609 
L 262.814035 147.36383 
L 262.163425 147.420051 
L 261.512815 147.476272 
L 260.862204 147.532493 
L 260.211594 147.588714 
L 259.560984 147.644935 
L 258.910373 147.701156 
L 258.259763 147.757377 
L 257.609153 147.813598 
L 256.958543 147.869819 
L 256.307932 147.92604 
L 255.657322 147.982261 
L 255.006712 148.038482 
L 254.356101 147.991073 
L 253.705491 147.920073 
L 253.054881 147.849074 
L 252.40427 147.778075 
L 251.75366 147.707075 
L 251.10305 147.636076 
L 250.452439 147.565076 
L 249.801829 147.494077 
L 249.151219 147.423078 
L 248.500608 147.352078 
L 247.849998 147.281079 
L 247.199388 147.210079 
L 246.548778 147.13908 
L 245.898167 147.068081 
L 245.247557 146.997081 
L 244.596947 146.980658 
L 243.946336 146.96749 
L 243.295726 146.954322 
L 242.645116 146.941155 
L 241.994505 146.927987 
L 241.343895 146.914819 
L 240.693285 146.901651 
L 240.042674 146.888483 
L 239.392064 146.875316 
L 238.741454 146.862148 
L 238.090844 146.84898 
L 237.440233 146.835812 
L 236.789623 146.822644 
L 236.139013 146.809476 
L 235.488402 146.813382 
L 234.837792 146.827591 
L 234.187182 146.8418 
L 233.536571 146.856009 
L 232.885961 146.870219 
L 232.235351 146.884428 
L 231.58474 146.898637 
L 230.93413 146.912847 
L 230.28352 146.927056 
L 229.632909 146.941265 
L 228.982299 146.955475 
L 228.331689 146.969684 
L 227.681079 146.983893 
L 227.030468 146.998103 
L 226.379858 147.012312 
L 225.729248 146.87419 
L 225.078637 146.686035 
L 224.428027 146.497881 
L 223.777417 146.309726 
L 223.126806 146.121571 
L 222.476196 145.933416 
L 221.825586 145.745262 
L 221.174975 145.557107 
L 220.524365 145.368952 
L 219.873755 145.180798 
L 219.223144 144.992643 
L 218.572534 144.804488 
L 217.921924 144.616334 
L 217.271314 144.428179 
L 216.620703 144.240024 
L 215.970093 144.09994 
L 215.319483 143.966294 
L 214.668872 143.832647 
L 214.018262 143.699 
L 213.367652 143.565354 
L 212.717041 143.431707 
L 212.066431 143.298061 
L 211.415821 143.164414 
L 210.76521 143.030768 
L 210.1146 142.897121 
L 209.46399 142.763475 
L 208.813379 142.629828 
L 208.162769 142.496181 
L 207.512159 142.362535 
L 206.861549 142.193686 
L 206.210938 141.99738 
L 205.560328 141.801074 
L 204.909718 141.604769 
L 204.259107 141.408463 
L 203.608497 141.212157 
L 202.957887 141.015851 
L 202.307276 140.819546 
L 201.656666 140.62324 
L 201.006056 140.426934 
L 200.355445 140.230629 
L 199.704835 140.034323 
L 199.054225 139.838017 
L 198.403615 139.641711 
L 197.753004 139.445406 
L 197.102394 139.634493 
L 196.451784 139.995961 
L 195.801173 140.357429 
L 195.150563 140.718897 
L 194.499953 141.080365 
L 193.849342 141.441833 
L 193.198732 141.803301 
L 192.548122 142.16477 
L 191.897511 142.526238 
L 191.246901 142.887706 
L 190.596291 143.249174 
L 189.94568 143.610642 
L 189.29507 143.97211 
L 188.64446 144.333578 
L 187.99385 144.695046 
L 187.343239 144.814784 
L 186.692629 144.881491 
L 186.042019 144.948199 
L 185.391408 145.014906 
L 184.740798 145.081613 
L 184.090188 145.148321 
L 183.439577 145.215028 
L 182.788967 145.281735 
L 182.138357 145.348443 
L 181.487746 145.41515 
L 180.837136 145.481857 
L 180.186526 145.548565 
L 179.535915 145.615272 
L 178.885305 145.68198 
L 178.234695 145.748687 
L 177.584085 145.780024 
L 176.933474 145.809469 
L 176.282864 145.838914 
L 175.632254 145.868359 
L 174.981643 145.897805 
L 174.331033 145.92725 
L 173.680423 145.956695 
L 173.029812 145.98614 
L 172.379202 146.015585 
L 171.728592 146.04503 
L 171.077981 146.074476 
L 170.427371 146.103921 
L 169.776761 146.133366 
L 169.12615 146.162811 
L 168.47554 146.085697 
L 167.82493 145.945769 
L 167.17432 145.80584 
L 166.523709 145.665912 
L 165.873099 145.525984 
L 165.222489 145.386056 
L 164.571878 145.246128 
L 163.921268 145.106199 
L 163.270658 144.966271 
L 162.620047 144.826343 
L 161.969437 144.686415 
L 161.318827 144.546487 
L 160.668216 144.406558 
L 160.017606 144.26663 
L 159.366996 144.126702 
L 158.716385 144.314056 
L 158.065775 144.605741 
L 157.415165 144.897426 
L 156.764555 145.18911 
L 156.113944 145.480795 
L 155.463334 145.77248 
L 154.812724 146.064164 
L 154.162113 146.355849 
L 153.511503 146.647534 
L 152.860893 146.939218 
L 152.210282 147.230903 
L 151.559672 147.522588 
L 150.909062 147.814272 
L 150.258451 148.105957 
L 149.607841 148.397642 
L 148.957231 148.178036 
L 148.306621 147.893564 
L 147.65601 147.609093 
L 147.0054 147.324621 
L 146.35479 147.04015 
L 145.704179 146.755679 
L 145.053569 146.471207 
L 144.402959 146.186736 
L 143.752348 145.902265 
L 143.101738 145.617793 
L 142.451128 145.333322 
L 141.800517 145.04885 
L 141.149907 144.764379 
L 140.499297 144.479908 
L 139.848686 143.521541 
L 139.198076 142.049231 
L 138.547466 140.57692 
L 137.896856 139.104609 
L 137.246245 137.632299 
L 136.595635 136.159988 
L 135.945025 134.687677 
L 135.294414 133.215367 
L 134.643804 131.743056 
L 133.993194 130.270745 
L 133.342583 128.798435 
L 132.691973 127.326124 
L 132.041363 125.853814 
L 131.390752 124.381503 
L 130.740142 122.909192 
L 130.089532 122.539246 
L 129.438921 122.649729 
L 128.788311 122.760211 
L 128.137701 122.870693 
L 127.487091 122.981176 
L 126.83648 123.091658 
L 126.18587 123.20214 
L 125.53526 123.312623 
L 124.884649 123.423105 
L 124.234039 123.533588 
L 123.583429 123.64407 
L 122.932818 123.754552 
L 122.282208 123.865035 
L 121.631598 123.975517 
L 120.980987 124.085999 
L 120.330377 124.954646 
L 119.679767 125.983439 
L 119.029156 127.012232 
L 118.378546 128.041026 
L 117.727936 129.069819 
L 117.077326 130.098613 
L 116.426715 131.127406 
L 115.776105 132.156199 
L 115.125495 133.184993 
L 114.474884 134.213786 
L 113.824274 135.242579 
L 113.173664 136.271373 
L 112.523053 137.300166 
L 111.872443 138.32896 
L 111.221833 138.549409 
L 110.571222 137.979163 
L 109.920612 137.408918 
L 109.270002 136.838672 
L 108.619392 136.268427 
L 107.968781 135.698181 
L 107.318171 135.127935 
L 106.667561 134.55769 
L 106.01695 133.987444 
L 105.36634 133.417199 
L 104.71573 132.846953 
L 104.065119 132.276708 
L 103.414509 131.706462 
L 102.763899 131.136216 
L 102.113288 130.565971 
L 101.462678 130.688238 
L 100.812068 131.209151 
L 100.161457 131.730065 
L 99.510847 132.250978 
L 98.860237 132.771892 
L 98.209627 133.292805 
L 97.559016 133.813719 
L 96.908406 134.334632 
L 96.257796 134.855545 
L 95.607185 135.376459 
L 94.956575 135.897372 
L 94.305965 136.418286 
L 93.655354 136.939199 
L 93.004744 137.460113 
L 92.354134 137.981026 
L 91.703523 138.333488 
L 91.052913 138.633856 
L 90.402303 138.934224 
L 89.751692 139.234592 
L 89.101082 139.53496 
L 88.450472 139.835328 
L 87.799862 140.135696 
L 87.149251 140.436064 
L 86.498641 140.736432 
L 85.848031 141.0368 
L 85.19742 141.337168 
L 84.54681 141.637536 
L 83.8962 141.937904 
L 83.245589 142.238272 
L 82.594979 142.518383 
L 81.944369 142.773096 
L 81.293758 143.027808 
L 80.643148 143.282521 
L 79.992538 143.537234 
L 79.341927 143.791947 
L 78.691317 144.04666 
L 78.040707 144.301373 
L 77.390097 144.556085 
L 76.739486 144.810798 
L 76.088876 145.065511 
L 75.438266 145.320224 
L 74.787655 145.574937 
L 74.137045 145.82965 
L 73.486435 146.084362 
L 72.835824 146.074954 
L 72.185214 145.868599 
L 71.534604 145.662244 
L 70.883993 145.45589 
L 70.233383 145.249535 
L 69.582773 145.04318 
L 68.932163 144.836825 
L 68.281552 144.630471 
L 67.630942 144.424116 
L 66.980332 144.217761 
L 66.329721 144.011406 
L 65.679111 143.805052 
L 65.028501 143.598697 
L 64.37789 143.392342 
L 63.72728 143.185987 
L 63.07667 143.221248 
L 62.426059 143.359081 
L 61.775449 143.496914 
L 61.124839 143.634747 
L 60.474228 143.77258 
L 59.823618 143.910413 
L 59.173008 144.048246 
L 58.522398 144.18608 
L 57.871787 144.323913 
L 57.221177 144.461746 
L 56.570567 144.599579 
L 55.919956 144.737412 
L 55.269346 144.875245 
L 54.618736 145.013078 
L 53.968125 145.150911 
L 53.317515 145.321733 
L 52.666905 145.499257 
L 52.016294 145.676782 
L 51.365684 145.854306 
L 50.715074 146.03183 
L 50.064463 146.209355 
L 49.413853 146.386879 
L 48.763243 146.564403 
L 48.112633 146.741928 
L 47.462022 146.919452 
L 46.811412 147.096976 
L 46.160802 147.274501 
L 45.510191 147.452025 
L 44.859581 147.629549 
L 44.208971 147.640028 
L 43.55836 147.490676 
L 42.90775 147.341323 
L 42.25714 147.191971 
L 41.606529 147.042619 
L 40.955919 146.893267 
L 40.305309 146.743915 
L 39.654698 146.594563 
L 39.004088 146.445211 
L 38.353478 146.295859 
L 37.702868 146.146506 
L 37.052257 145.997154 
L 36.401647 145.847802 
L 35.751037 145.69845 
L 35.100426 145.549098 
L 34.449816 145.619563 
L 33.799206 145.81358 
L 33.148595 146.007597 
L 32.497985 146.201614 
L 31.847375 146.395631 
L 31.196764 146.589648 
L 30.546154 146.783665 
L 29.895544 146.977682 
L 29.244934 147.171699 
L 28.594323 147.365716 
L 27.943713 147.559733 
L 27.293103 147.75375 
L 26.642492 147.947767 
L 25.991882 148.141784 
L 25.341272 148.335801 
L 24.690661 148.445642 
L 24.040051 148.530241 
L 23.389441 148.614841 
L 22.73883 148.69944 
L 22.08822 148.78404 
L 21.43761 148.868639 
L 20.786999 148.953239 
L 20.136389 149.037838 
L 19.485779 149.122438 
L 18.835169 149.207037 
L 18.184558 149.291637 
L 17.533948 149.376236 
L 16.883338 149.460836 
L 16.232727 149.545436 
z
" style="fill:#f6ed22;fill-opacity:0.3;"/>
   </g>
   <g id="PolyCollection_3">
    <path clip-path="url(#pefc746734c)" d="M 16.232727 149.984815 
L 16.232727 150.972918 
L 16.883338 150.972918 
L 17.533948 150.972918 
L 18.184558 150.972918 
L 18.835169 150.972918 
L 19.485779 150.972918 
L 20.136389 150.972918 
L 20.786999 150.972918 
L 21.43761 150.972918 
L 22.08822 150.972918 
L 22.73883 150.972918 
L 23.389441 150.972918 
L 24.040051 150.972918 
L 24.690661 150.972918 
L 25.341272 150.972918 
L 25.991882 150.972918 
L 26.642492 150.972918 
L 27.293103 150.972918 
L 27.943713 150.972918 
L 28.594323 150.972918 
L 29.244934 150.972918 
L 29.895544 150.972918 
L 30.546154 150.972918 
L 31.196764 150.972918 
L 31.847375 150.972918 
L 32.497985 150.972918 
L 33.148595 150.972918 
L 33.799206 150.972918 
L 34.449816 150.972918 
L 35.100426 150.972918 
L 35.751037 150.972918 
L 36.401647 150.972918 
L 37.052257 150.972918 
L 37.702868 150.972918 
L 38.353478 150.972918 
L 39.004088 150.972918 
L 39.654698 150.972918 
L 40.305309 150.972918 
L 40.955919 150.972918 
L 41.606529 150.972918 
L 42.25714 150.972918 
L 42.90775 150.972918 
L 43.55836 150.972918 
L 44.208971 150.972918 
L 44.859581 150.972918 
L 45.510191 150.972918 
L 46.160802 150.972918 
L 46.811412 150.972918 
L 47.462022 150.972918 
L 48.112633 150.972918 
L 48.763243 150.972918 
L 49.413853 150.972918 
L 50.064463 150.972918 
L 50.715074 150.972918 
L 51.365684 150.972918 
L 52.016294 150.972918 
L 52.666905 150.972918 
L 53.317515 150.972918 
L 53.968125 150.972918 
L 54.618736 150.972918 
L 55.269346 150.972918 
L 55.919956 150.972918 
L 56.570567 150.972918 
L 57.221177 150.972918 
L 57.871787 150.972918 
L 58.522398 150.972918 
L 59.173008 150.972918 
L 59.823618 150.972918 
L 60.474228 150.972918 
L 61.124839 150.972918 
L 61.775449 150.972918 
L 62.426059 150.972918 
L 63.07667 150.972918 
L 63.72728 150.972918 
L 64.37789 150.972918 
L 65.028501 150.972918 
L 65.679111 150.972918 
L 66.329721 150.972918 
L 66.980332 150.972918 
L 67.630942 150.972918 
L 68.281552 150.972918 
L 68.932163 150.972918 
L 69.582773 150.972918 
L 70.233383 150.972918 
L 70.883993 150.972918 
L 71.534604 150.972918 
L 72.185214 150.972918 
L 72.835824 150.972918 
L 73.486435 150.972918 
L 74.137045 150.972918 
L 74.787655 150.972918 
L 75.438266 150.972918 
L 76.088876 150.972918 
L 76.739486 150.972918 
L 77.390097 150.972918 
L 78.040707 150.972918 
L 78.691317 150.972918 
L 79.341927 150.972918 
L 79.992538 150.972918 
L 80.643148 150.972918 
L 81.293758 150.972918 
L 81.944369 150.972918 
L 82.594979 150.972918 
L 83.245589 150.972918 
L 83.8962 150.972918 
L 84.54681 150.972918 
L 85.19742 150.972918 
L 85.848031 150.972918 
L 86.498641 150.972918 
L 87.149251 150.972918 
L 87.799862 150.972918 
L 88.450472 150.972918 
L 89.101082 150.972918 
L 89.751692 150.972918 
L 90.402303 150.972918 
L 91.052913 150.972918 
L 91.703523 150.972918 
L 92.354134 150.972918 
L 93.004744 150.972918 
L 93.655354 150.972918 
L 94.305965 150.972918 
L 94.956575 150.972918 
L 95.607185 150.972918 
L 96.257796 150.972918 
L 96.908406 150.972918 
L 97.559016 150.972918 
L 98.209627 150.972918 
L 98.860237 150.972918 
L 99.510847 150.972918 
L 100.161457 150.972918 
L 100.812068 150.972918 
L 101.462678 150.972918 
L 102.113288 150.972918 
L 102.763899 150.972918 
L 103.414509 150.972918 
L 104.065119 150.972918 
L 104.71573 150.972918 
L 105.36634 150.972918 
L 106.01695 150.972918 
L 106.667561 150.972918 
L 107.318171 150.972918 
L 107.968781 150.972918 
L 108.619392 150.972918 
L 109.270002 150.972918 
L 109.920612 150.972918 
L 110.571222 150.972918 
L 111.221833 150.972918 
L 111.872443 150.972918 
L 112.523053 150.972918 
L 113.173664 150.972918 
L 113.824274 150.972918 
L 114.474884 150.972918 
L 115.125495 150.972918 
L 115.776105 150.972918 
L 116.426715 150.972918 
L 117.077326 150.972918 
L 117.727936 150.972918 
L 118.378546 150.972918 
L 119.029156 150.972918 
L 119.679767 150.972918 
L 120.330377 150.972918 
L 120.980987 150.972918 
L 121.631598 150.972918 
L 122.282208 150.972918 
L 122.932818 150.972918 
L 123.583429 150.972918 
L 124.234039 150.972918 
L 124.884649 150.972918 
L 125.53526 150.972918 
L 126.18587 150.972918 
L 126.83648 150.972918 
L 127.487091 150.972918 
L 128.137701 150.972918 
L 128.788311 150.972918 
L 129.438921 150.972918 
L 130.089532 150.972918 
L 130.740142 150.972918 
L 131.390752 150.972918 
L 132.041363 150.972918 
L 132.691973 150.972918 
L 133.342583 150.972918 
L 133.993194 150.972918 
L 134.643804 150.972918 
L 135.294414 150.972918 
L 135.945025 150.972918 
L 136.595635 150.972918 
L 137.246245 150.972918 
L 137.896856 150.972918 
L 138.547466 150.972918 
L 139.198076 150.972918 
L 139.848686 150.972918 
L 140.499297 150.972918 
L 141.149907 150.972918 
L 141.800517 150.972918 
L 142.451128 150.972918 
L 143.101738 150.972918 
L 143.752348 150.972918 
L 144.402959 150.972918 
L 145.053569 150.972918 
L 145.704179 150.972918 
L 146.35479 150.972918 
L 147.0054 150.972918 
L 147.65601 150.972918 
L 148.306621 150.972918 
L 148.957231 150.972918 
L 149.607841 150.972918 
L 150.258451 150.972918 
L 150.909062 150.972918 
L 151.559672 150.972918 
L 152.210282 150.972918 
L 152.860893 150.972918 
L 153.511503 150.972918 
L 154.162113 150.972918 
L 154.812724 150.972918 
L 155.463334 150.972918 
L 156.113944 150.972918 
L 156.764555 150.972918 
L 157.415165 150.972918 
L 158.065775 150.972918 
L 158.716385 150.972918 
L 159.366996 150.972918 
L 160.017606 150.972918 
L 160.668216 150.972918 
L 161.318827 150.972918 
L 161.969437 150.972918 
L 162.620047 150.972918 
L 163.270658 150.972918 
L 163.921268 150.972918 
L 164.571878 150.972918 
L 165.222489 150.972918 
L 165.873099 150.972918 
L 166.523709 150.972918 
L 167.17432 150.972918 
L 167.82493 150.972918 
L 168.47554 150.972918 
L 169.12615 150.972918 
L 169.776761 150.972918 
L 170.427371 150.972918 
L 171.077981 150.972918 
L 171.728592 150.972918 
L 172.379202 150.972918 
L 173.029812 150.972918 
L 173.680423 150.972918 
L 174.331033 150.972918 
L 174.981643 150.972918 
L 175.632254 150.972918 
L 176.282864 150.972918 
L 176.933474 150.972918 
L 177.584085 150.972918 
L 178.234695 150.972918 
L 178.885305 150.972918 
L 179.535915 150.972918 
L 180.186526 150.972918 
L 180.837136 150.972918 
L 181.487746 150.972918 
L 182.138357 150.972918 
L 182.788967 150.972918 
L 183.439577 150.972918 
L 184.090188 150.972918 
L 184.740798 150.972918 
L 185.391408 150.972918 
L 186.042019 150.972918 
L 186.692629 150.972918 
L 187.343239 150.972918 
L 187.99385 150.972918 
L 188.64446 150.972918 
L 189.29507 150.972918 
L 189.94568 150.972918 
L 190.596291 150.972918 
L 191.246901 150.972918 
L 191.897511 150.972918 
L 192.548122 150.972918 
L 193.198732 150.972918 
L 193.849342 150.972918 
L 194.499953 150.972918 
L 195.150563 150.972918 
L 195.801173 150.972918 
L 196.451784 150.972918 
L 197.102394 150.972918 
L 197.753004 150.972918 
L 198.403615 150.972918 
L 199.054225 150.972918 
L 199.704835 150.972918 
L 200.355445 150.972918 
L 201.006056 150.972918 
L 201.656666 150.972918 
L 202.307276 150.972918 
L 202.957887 150.972918 
L 203.608497 150.972918 
L 204.259107 150.972918 
L 204.909718 150.972918 
L 205.560328 150.972918 
L 206.210938 150.972918 
L 206.861549 150.972918 
L 207.512159 150.972918 
L 208.162769 150.972918 
L 208.813379 150.972918 
L 209.46399 150.972918 
L 210.1146 150.972918 
L 210.76521 150.972918 
L 211.415821 150.972918 
L 212.066431 150.972918 
L 212.717041 150.972918 
L 213.367652 150.972918 
L 214.018262 150.972918 
L 214.668872 150.972918 
L 215.319483 150.972918 
L 215.970093 150.972918 
L 216.620703 150.972918 
L 217.271314 150.972918 
L 217.921924 150.972918 
L 218.572534 150.972918 
L 219.223144 150.972918 
L 219.873755 150.972918 
L 220.524365 150.972918 
L 221.174975 150.972918 
L 221.825586 150.972918 
L 222.476196 150.972918 
L 223.126806 150.972918 
L 223.777417 150.972918 
L 224.428027 150.972918 
L 225.078637 150.972918 
L 225.729248 150.972918 
L 226.379858 150.972918 
L 227.030468 150.972918 
L 227.681079 150.972918 
L 228.331689 150.972918 
L 228.982299 150.972918 
L 229.632909 150.972918 
L 230.28352 150.972918 
L 230.93413 150.972918 
L 231.58474 150.972918 
L 232.235351 150.972918 
L 232.885961 150.972918 
L 233.536571 150.972918 
L 234.187182 150.972918 
L 234.837792 150.972918 
L 235.488402 150.972918 
L 236.139013 150.972918 
L 236.789623 150.972918 
L 237.440233 150.972918 
L 238.090844 150.972918 
L 238.741454 150.972918 
L 239.392064 150.972918 
L 240.042674 150.972918 
L 240.693285 150.972918 
L 241.343895 150.972918 
L 241.994505 150.972918 
L 242.645116 150.972918 
L 243.295726 150.972918 
L 243.946336 150.972918 
L 244.596947 150.972918 
L 245.247557 150.972918 
L 245.898167 150.972918 
L 246.548778 150.972918 
L 247.199388 150.972918 
L 247.849998 150.972918 
L 248.500608 150.972918 
L 249.151219 150.972918 
L 249.801829 150.972918 
L 250.452439 150.972918 
L 251.10305 150.972918 
L 251.75366 150.972918 
L 252.40427 150.972918 
L 253.054881 150.972918 
L 253.705491 150.972918 
L 254.356101 150.972918 
L 255.006712 150.972918 
L 255.657322 150.972918 
L 256.307932 150.972918 
L 256.958543 150.972918 
L 257.609153 150.972918 
L 258.259763 150.972918 
L 258.910373 150.972918 
L 259.560984 150.972918 
L 260.211594 150.972918 
L 260.862204 150.972918 
L 261.512815 150.972918 
L 262.163425 150.972918 
L 262.814035 150.972918 
L 263.464646 150.972918 
L 264.115256 150.972918 
L 264.765866 150.972918 
L 265.416477 150.972918 
L 266.067087 150.972918 
L 266.717697 150.972918 
L 267.368308 150.972918 
L 268.018918 150.972918 
L 268.669528 150.972918 
L 269.320138 150.972918 
L 269.970749 150.972918 
L 270.621359 150.972918 
L 271.271969 150.972918 
L 271.92258 150.972918 
L 272.57319 150.972918 
L 273.2238 150.972918 
L 273.874411 150.972918 
L 274.525021 150.972918 
L 275.175631 150.972918 
L 275.826242 150.972918 
L 276.476852 150.972918 
L 277.127462 150.972918 
L 277.778073 150.972918 
L 278.428683 150.972918 
L 279.079293 150.972918 
L 279.729903 150.972918 
L 280.380514 150.972918 
L 281.031124 150.972918 
L 281.681734 150.972918 
L 282.332345 150.972918 
L 282.982955 150.972918 
L 283.633565 150.972918 
L 284.284176 150.972918 
L 284.934786 150.972918 
L 285.585396 150.972918 
L 286.236007 150.972918 
L 286.886617 150.972918 
L 287.537227 150.972918 
L 288.187837 150.972918 
L 288.838448 150.972918 
L 289.489058 150.972918 
L 290.139668 150.972918 
L 290.790279 150.972918 
L 291.440889 150.972918 
L 292.091499 150.972918 
L 292.74211 150.972918 
L 293.39272 150.972918 
L 294.04333 150.972918 
L 294.693941 150.972918 
L 295.344551 150.972918 
L 295.995161 150.972918 
L 296.645772 150.972918 
L 297.296382 150.972918 
L 297.946992 150.972918 
L 298.597602 150.972918 
L 299.248213 150.972918 
L 299.898823 150.972918 
L 300.549433 150.972918 
L 301.200044 150.972918 
L 301.850654 150.972918 
L 302.501264 150.972918 
L 303.151875 150.972918 
L 303.802485 150.972918 
L 304.453095 150.972918 
L 305.103706 150.972918 
L 305.754316 150.972918 
L 306.404926 150.972918 
L 307.055537 150.972918 
L 307.706147 150.972918 
L 308.356757 150.972918 
L 309.007367 150.972918 
L 309.657978 150.972918 
L 310.308588 150.972918 
L 310.959198 150.972918 
L 311.609809 150.972918 
L 312.260419 150.972918 
L 312.911029 150.972918 
L 313.56164 150.972918 
L 314.21225 150.972918 
L 314.86286 150.972918 
L 315.513471 150.972918 
L 316.164081 150.972918 
L 316.814691 150.972918 
L 317.465302 150.972918 
L 318.115912 150.972918 
L 318.766522 150.972918 
L 319.417132 150.972918 
L 320.067743 150.972918 
L 320.718353 150.972918 
L 321.368963 150.972918 
L 322.019574 150.972918 
L 322.670184 150.972918 
L 323.320794 150.972918 
L 323.971405 150.972918 
L 324.622015 150.972918 
L 325.272625 150.972918 
L 325.923236 150.972918 
L 326.573846 150.972918 
L 327.224456 150.972918 
L 327.875066 150.972918 
L 328.525677 150.972918 
L 329.176287 150.972918 
L 329.826897 150.972918 
L 330.477508 150.972918 
L 331.128118 150.972918 
L 331.778728 150.972918 
L 332.429339 150.972918 
L 333.079949 150.972918 
L 333.730559 150.972918 
L 334.38117 150.972918 
L 335.03178 150.972918 
L 335.68239 150.972918 
L 336.333001 150.972918 
L 336.983611 150.972918 
L 337.634221 150.972918 
L 338.284831 150.972918 
L 338.935442 150.972918 
L 339.586052 150.972918 
L 340.236662 150.972918 
L 340.887273 150.972918 
L 340.887273 128.340553 
L 340.887273 128.340553 
L 340.236662 128.416643 
L 339.586052 128.492734 
L 338.935442 128.568824 
L 338.284831 128.644914 
L 337.634221 128.721005 
L 336.983611 128.797095 
L 336.333001 128.873185 
L 335.68239 128.949276 
L 335.03178 129.025366 
L 334.38117 129.101457 
L 333.730559 129.177547 
L 333.079949 129.253637 
L 332.429339 129.329728 
L 331.778728 129.405818 
L 331.128118 129.102878 
L 330.477508 128.621497 
L 329.826897 128.140116 
L 329.176287 127.658736 
L 328.525677 127.177355 
L 327.875066 126.695975 
L 327.224456 126.214594 
L 326.573846 125.733214 
L 325.923236 125.251833 
L 325.272625 124.770452 
L 324.622015 124.289072 
L 323.971405 123.807691 
L 323.320794 123.326311 
L 322.670184 122.84493 
L 322.019574 122.36355 
L 321.368963 123.12358 
L 320.718353 124.176604 
L 320.067743 125.229627 
L 319.417132 126.282651 
L 318.766522 127.335675 
L 318.115912 128.388698 
L 317.465302 129.441722 
L 316.814691 130.494745 
L 316.164081 131.547769 
L 315.513471 132.600793 
L 314.86286 133.653816 
L 314.21225 134.70684 
L 313.56164 135.759864 
L 312.911029 136.812887 
L 312.260419 137.865911 
L 311.609809 137.884095 
L 310.959198 137.834101 
L 310.308588 137.784108 
L 309.657978 137.734114 
L 309.007367 137.684121 
L 308.356757 137.634127 
L 307.706147 137.584134 
L 307.055537 137.53414 
L 306.404926 137.484147 
L 305.754316 137.434153 
L 305.103706 137.38416 
L 304.453095 137.334166 
L 303.802485 137.284173 
L 303.151875 137.234179 
L 302.501264 137.154297 
L 301.850654 136.660386 
L 301.200044 136.166476 
L 300.549433 135.672565 
L 299.898823 135.178654 
L 299.248213 134.684744 
L 298.597602 134.190833 
L 297.946992 133.696922 
L 297.296382 133.203012 
L 296.645772 132.709101 
L 295.995161 132.21519 
L 295.344551 131.72128 
L 294.693941 131.227369 
L 294.04333 130.733459 
L 293.39272 130.239548 
L 292.74211 130.005674 
L 292.091499 129.859759 
L 291.440889 129.713843 
L 290.790279 129.567928 
L 290.139668 129.422013 
L 289.489058 129.276098 
L 288.838448 129.130183 
L 288.187837 128.984268 
L 287.537227 128.838353 
L 286.886617 128.692438 
L 286.236007 128.546523 
L 285.585396 128.400608 
L 284.934786 128.254693 
L 284.284176 128.108777 
L 283.633565 127.962862 
L 282.982955 127.688089 
L 282.332345 127.395139 
L 281.681734 127.102189 
L 281.031124 126.809239 
L 280.380514 126.516289 
L 279.729903 126.223339 
L 279.079293 125.93039 
L 278.428683 125.63744 
L 277.778073 125.34449 
L 277.127462 125.05154 
L 276.476852 124.75859 
L 275.826242 124.46564 
L 275.175631 124.17269 
L 274.525021 123.87974 
L 273.874411 123.590947 
L 273.2238 124.051268 
L 272.57319 124.511589 
L 271.92258 124.97191 
L 271.271969 125.432231 
L 270.621359 125.892552 
L 269.970749 126.352872 
L 269.320138 126.813193 
L 268.669528 127.273514 
L 268.018918 127.733835 
L 267.368308 128.194156 
L 266.717697 128.654477 
L 266.067087 129.114797 
L 265.416477 129.575118 
L 264.765866 130.035439 
L 264.115256 130.291049 
L 263.464646 130.45271 
L 262.814035 130.614371 
L 262.163425 130.776032 
L 261.512815 130.937693 
L 260.862204 131.099354 
L 260.211594 131.261015 
L 259.560984 131.422676 
L 258.910373 131.584337 
L 258.259763 131.745998 
L 257.609153 131.907659 
L 256.958543 132.06932 
L 256.307932 132.230981 
L 255.657322 132.392642 
L 255.006712 132.554303 
L 254.356101 132.58241 
L 253.705491 132.580115 
L 253.054881 132.57782 
L 252.40427 132.575525 
L 251.75366 132.573229 
L 251.10305 132.570934 
L 250.452439 132.568639 
L 249.801829 132.566344 
L 249.151219 132.564049 
L 248.500608 132.561754 
L 247.849998 132.559458 
L 247.199388 132.557163 
L 246.548778 132.554868 
L 245.898167 132.552573 
L 245.247557 132.550278 
L 244.596947 132.409738 
L 243.946336 132.260952 
L 243.295726 132.112167 
L 242.645116 131.963381 
L 241.994505 131.814595 
L 241.343895 131.665809 
L 240.693285 131.517023 
L 240.042674 131.368238 
L 239.392064 131.219452 
L 238.741454 131.070666 
L 238.090844 130.92188 
L 237.440233 130.773094 
L 236.789623 130.624309 
L 236.139013 130.475523 
L 235.488402 130.358432 
L 234.837792 130.26047 
L 234.187182 130.162509 
L 233.536571 130.064547 
L 232.885961 129.966585 
L 232.235351 129.868624 
L 231.58474 129.770662 
L 230.93413 129.6727 
L 230.28352 129.574739 
L 229.632909 129.476777 
L 228.982299 129.378815 
L 228.331689 129.280854 
L 227.681079 129.182892 
L 227.030468 129.084931 
L 226.379858 128.986969 
L 225.729248 128.990679 
L 225.078637 129.027783 
L 224.428027 129.064887 
L 223.777417 129.101991 
L 223.126806 129.139094 
L 222.476196 129.176198 
L 221.825586 129.213302 
L 221.174975 129.250406 
L 220.524365 129.28751 
L 219.873755 129.324614 
L 219.223144 129.361717 
L 218.572534 129.398821 
L 217.921924 129.435925 
L 217.271314 129.473029 
L 216.620703 129.510133 
L 215.970093 129.765447 
L 215.319483 130.049983 
L 214.668872 130.334519 
L 214.018262 130.619056 
L 213.367652 130.903592 
L 212.717041 131.188128 
L 212.066431 131.472664 
L 211.415821 131.7572 
L 210.76521 132.041737 
L 210.1146 132.326273 
L 209.46399 132.610809 
L 208.813379 132.895345 
L 208.162769 133.179881 
L 207.512159 133.464418 
L 206.861549 133.721603 
L 206.210938 133.957454 
L 205.560328 134.193306 
L 204.909718 134.429158 
L 204.259107 134.66501 
L 203.608497 134.900861 
L 202.957887 135.136713 
L 202.307276 135.372565 
L 201.656666 135.608417 
L 201.006056 135.844268 
L 200.355445 136.08012 
L 199.704835 136.315972 
L 199.054225 136.551824 
L 198.403615 136.787675 
L 197.753004 137.023527 
L 197.102394 137.335545 
L 196.451784 137.68163 
L 195.801173 138.027716 
L 195.150563 138.373801 
L 194.499953 138.719886 
L 193.849342 139.065972 
L 193.198732 139.412057 
L 192.548122 139.758142 
L 191.897511 140.104228 
L 191.246901 140.450313 
L 190.596291 140.796398 
L 189.94568 141.142484 
L 189.29507 141.488569 
L 188.64446 141.834654 
L 187.99385 142.18074 
L 187.343239 142.032371 
L 186.692629 141.775527 
L 186.042019 141.518684 
L 185.391408 141.261841 
L 184.740798 141.004998 
L 184.090188 140.748155 
L 183.439577 140.491311 
L 182.788967 140.234468 
L 182.138357 139.977625 
L 181.487746 139.720782 
L 180.837136 139.463939 
L 180.186526 139.207095 
L 179.535915 138.950252 
L 178.885305 138.693409 
L 178.234695 138.436566 
L 177.584085 138.259992 
L 176.933474 138.087713 
L 176.282864 137.915433 
L 175.632254 137.743153 
L 174.981643 137.570873 
L 174.331033 137.398593 
L 173.680423 137.226313 
L 173.029812 137.054033 
L 172.379202 136.881754 
L 171.728592 136.709474 
L 171.077981 136.537194 
L 170.427371 136.364914 
L 169.776761 136.192634 
L 169.12615 136.020354 
L 168.47554 135.622645 
L 167.82493 135.092052 
L 167.17432 134.561458 
L 166.523709 134.030865 
L 165.873099 133.500271 
L 165.222489 132.969677 
L 164.571878 132.439084 
L 163.921268 131.90849 
L 163.270658 131.377897 
L 162.620047 130.847303 
L 161.969437 130.31671 
L 161.318827 129.786116 
L 160.668216 129.255523 
L 160.017606 128.724929 
L 159.366996 128.194335 
L 158.716385 127.615571 
L 158.065775 127.02145 
L 157.415165 126.42733 
L 156.764555 125.833209 
L 156.113944 125.239089 
L 155.463334 124.644968 
L 154.812724 124.050848 
L 154.162113 123.456728 
L 153.511503 122.862607 
L 152.860893 122.268487 
L 152.210282 121.674366 
L 151.559672 121.080246 
L 150.909062 120.486125 
L 150.258451 119.892005 
L 149.607841 119.297884 
L 148.957231 119.399894 
L 148.306621 119.590218 
L 147.65601 119.780543 
L 147.0054 119.970867 
L 146.35479 120.161192 
L 145.704179 120.351516 
L 145.053569 120.541841 
L 144.402959 120.732165 
L 143.752348 120.92249 
L 143.101738 121.112814 
L 142.451128 121.303139 
L 141.800517 121.493463 
L 141.149907 121.683788 
L 140.499297 121.874112 
L 139.848686 122.80193 
L 139.198076 124.292195 
L 138.547466 125.78246 
L 137.896856 127.272724 
L 137.246245 128.762989 
L 136.595635 130.253254 
L 135.945025 131.743519 
L 135.294414 133.233784 
L 134.643804 134.724048 
L 133.993194 136.214313 
L 133.342583 137.704578 
L 132.691973 139.194843 
L 132.041363 140.685107 
L 131.390752 142.175372 
L 130.740142 143.665637 
L 130.089532 144.100425 
L 129.438921 144.07522 
L 128.788311 144.050015 
L 128.137701 144.02481 
L 127.487091 143.999605 
L 126.83648 143.9744 
L 126.18587 143.949195 
L 125.53526 143.92399 
L 124.884649 143.898785 
L 124.234039 143.87358 
L 123.583429 143.848374 
L 122.932818 143.823169 
L 122.282208 143.797964 
L 121.631598 143.772759 
L 120.980987 143.747554 
L 120.330377 143.462362 
L 119.679767 143.122252 
L 119.029156 142.782143 
L 118.378546 142.442033 
L 117.727936 142.101924 
L 117.077326 141.761815 
L 116.426715 141.421705 
L 115.776105 141.081596 
L 115.125495 140.741486 
L 114.474884 140.401377 
L 113.824274 140.061267 
L 113.173664 139.721158 
L 112.523053 139.381048 
L 111.872443 139.040939 
L 111.221833 139.103384 
L 110.571222 139.559594 
L 109.920612 140.015804 
L 109.270002 140.472015 
L 108.619392 140.928225 
L 107.968781 141.384435 
L 107.318171 141.840645 
L 106.667561 142.296855 
L 106.01695 142.753065 
L 105.36634 143.209275 
L 104.71573 143.665486 
L 104.065119 144.121696 
L 103.414509 144.577906 
L 102.763899 145.034116 
L 102.113288 145.490326 
L 101.462678 145.344161 
L 100.812068 144.851237 
L 100.161457 144.358314 
L 99.510847 143.86539 
L 98.860237 143.372466 
L 98.209627 142.879543 
L 97.559016 142.386619 
L 96.908406 141.893695 
L 96.257796 141.400772 
L 95.607185 140.907848 
L 94.956575 140.414924 
L 94.305965 139.922001 
L 93.655354 139.429077 
L 93.004744 138.936153 
L 92.354134 138.44323 
L 91.703523 137.837018 
L 91.052913 137.195773 
L 90.402303 136.554528 
L 89.751692 135.913283 
L 89.101082 135.272038 
L 88.450472 134.630793 
L 87.799862 133.989548 
L 87.149251 133.348303 
L 86.498641 132.707058 
L 85.848031 132.065813 
L 85.19742 131.424568 
L 84.54681 130.783323 
L 83.8962 130.142078 
L 83.245589 129.500833 
L 82.594979 129.338143 
L 81.944369 129.775433 
L 81.293758 130.212723 
L 80.643148 130.650013 
L 79.992538 131.087303 
L 79.341927 131.524593 
L 78.691317 131.961884 
L 78.040707 132.399174 
L 77.390097 132.836464 
L 76.739486 133.273754 
L 76.088876 133.711044 
L 75.438266 134.148334 
L 74.787655 134.585624 
L 74.137045 135.022914 
L 73.486435 135.460205 
L 72.835824 135.794185 
L 72.185214 136.051132 
L 71.534604 136.308079 
L 70.883993 136.565026 
L 70.233383 136.821973 
L 69.582773 137.07892 
L 68.932163 137.335866 
L 68.281552 137.592813 
L 67.630942 137.84976 
L 66.980332 138.106707 
L 66.329721 138.363654 
L 65.679111 138.620601 
L 65.028501 138.877547 
L 64.37789 139.134494 
L 63.72728 139.391441 
L 63.07667 139.165121 
L 62.426059 138.73364 
L 61.775449 138.302159 
L 61.124839 137.870678 
L 60.474228 137.439197 
L 59.823618 137.007716 
L 59.173008 136.576235 
L 58.522398 136.144754 
L 57.871787 135.713273 
L 57.221177 135.281792 
L 56.570567 134.850311 
L 55.919956 134.41883 
L 55.269346 133.987349 
L 54.618736 133.555868 
L 53.968125 133.124387 
L 53.317515 133.566495 
L 52.666905 134.186105 
L 52.016294 134.805715 
L 51.365684 135.425325 
L 50.715074 136.044936 
L 50.064463 136.664546 
L 49.413853 137.284156 
L 48.763243 137.903766 
L 48.112633 138.523376 
L 47.462022 139.142986 
L 46.811412 139.762596 
L 46.160802 140.382206 
L 45.510191 141.001816 
L 44.859581 141.621427 
L 44.208971 141.799781 
L 43.55836 141.55594 
L 42.90775 141.312099 
L 42.25714 141.068258 
L 41.606529 140.824417 
L 40.955919 140.580576 
L 40.305309 140.336734 
L 39.654698 140.092893 
L 39.004088 139.849052 
L 38.353478 139.605211 
L 37.702868 139.36137 
L 37.052257 139.117529 
L 36.401647 138.873688 
L 35.751037 138.629847 
L 35.100426 138.386006 
L 34.449816 137.872321 
L 33.799206 137.206965 
L 33.148595 136.541609 
L 32.497985 135.876252 
L 31.847375 135.210896 
L 31.196764 134.54554 
L 30.546154 133.880184 
L 29.895544 133.214828 
L 29.244934 132.549471 
L 28.594323 131.884115 
L 27.943713 131.218759 
L 27.293103 130.553403 
L 26.642492 129.888047 
L 25.991882 129.22269 
L 25.341272 128.557334 
L 24.690661 129.609614 
L 24.040051 131.176937 
L 23.389441 132.74426 
L 22.73883 134.311583 
L 22.08822 135.878906 
L 21.43761 137.446229 
L 20.786999 139.013553 
L 20.136389 140.580876 
L 19.485779 142.148199 
L 18.835169 143.715522 
L 18.184558 145.282845 
L 17.533948 146.850168 
L 16.883338 148.417491 
L 16.232727 149.984815 
z
" style="fill:#f15a24;fill-opacity:0.3;"/>
   </g>
   <g id="PathCollection_1">
    <defs>
     <path d="M 0 1.581139 
C 0.419323 1.581139 0.821528 1.41454 1.118034 1.118034 
C 1.41454 0.821528 1.581139 0.419323 1.581139 -0 
C 1.581139 -0.419323 1.41454 -0.821528 1.118034 -1.118034 
C 0.821528 -1.41454 0.419323 -1.581139 0 -1.581139 
C -0.419323 -1.581139 -0.821528 -1.41454 -1.118034 -1.118034 
C -1.41454 -0.821528 -1.581139 -0.419323 -1.581139 0 
C -1.581139 0.419323 -1.41454 0.821528 -1.118034 1.118034 
C -0.821528 1.41454 -0.419323 1.581139 0 1.581139 
z
" id="C0_0_9bcdf231b8"/>
    </defs>
    <g clip-path="url(#pefc746734c)">
     <use style="fill:#008000;stroke:#008000;stroke-width:0.5;" x="16.232727" xlink:href="#C0_0_9bcdf231b8" y="117.554667"/>
    </g>
    <g clip-path="url(#pefc746734c)">
     <use style="fill:#ff0000;stroke:#ff0000;stroke-width:0.5;" x="25.191186" xlink:href="#C0_0_9bcdf231b8" y="128.403847"/>
    </g>
    <g clip-path="url(#pefc746734c)">
     <use style="fill:#008000;stroke:#008000;stroke-width:0.5;" x="34.866321" xlink:href="#C0_0_9bcdf231b8" y="133.291293"/>
    </g>
    <g clip-path="url(#pefc746734c)">
     <use style="fill:#008000;stroke:#008000;stroke-width:0.5;" x="44.541457" xlink:href="#C0_0_9bcdf231b8" y="127.444174"/>
    </g>
    <g clip-path="url(#pefc746734c)">
     <use style="fill:#ff0000;stroke:#ff0000;stroke-width:0.5;" x="53.858254" xlink:href="#C0_0_9bcdf231b8" y="133.051521"/>
    </g>
    <g clip-path="url(#pefc746734c)">
     <use style="fill:#008000;stroke:#008000;stroke-width:0.5;" x="63.53339" xlink:href="#C0_0_9bcdf231b8" y="134.492413"/>
    </g>
    <g clip-path="url(#pefc746734c)">
     <use style="fill:#008000;stroke:#008000;stroke-width:0.5;" x="73.208525" xlink:href="#C0_0_9bcdf231b8" y="135.244759"/>
    </g>
    <g clip-path="url(#pefc746734c)">
     <use style="fill:#ff0000;stroke:#ff0000;stroke-width:0.5;" x="82.88366" xlink:href="#C0_0_9bcdf231b8" y="129.144114"/>
    </g>
    <g clip-path="url(#pefc746734c)">
     <use style="fill:#ffff00;stroke:#ffff00;stroke-width:0.5;" x="92.200458" xlink:href="#C0_0_9bcdf231b8" y="138.104067"/>
    </g>
    <g clip-path="url(#pefc746734c)">
     <use style="fill:#ffff00;stroke:#ffff00;stroke-width:0.5;" x="101.875593" xlink:href="#C0_0_9bcdf231b8" y="130.357636"/>
    </g>
    <g clip-path="url(#pefc746734c)">
     <use style="fill:#ffff00;stroke:#ffff00;stroke-width:0.5;" x="111.550728" xlink:href="#C0_0_9bcdf231b8" y="138.837679"/>
    </g>
    <g clip-path="url(#pefc746734c)">
     <use style="fill:#ffff00;stroke:#ffff00;stroke-width:0.5;" x="120.867526" xlink:href="#C0_0_9bcdf231b8" y="124.105267"/>
    </g>
    <g clip-path="url(#pefc746734c)">
     <use style="fill:#ffff00;stroke:#ffff00;stroke-width:0.5;" x="130.542661" xlink:href="#C0_0_9bcdf231b8" y="122.462299"/>
    </g>
    <g clip-path="url(#pefc746734c)">
     <use style="fill:#ff0000;stroke:#ff0000;stroke-width:0.5;" x="140.217797" xlink:href="#C0_0_9bcdf231b8" y="121.95646"/>
    </g>
    <g clip-path="url(#pefc746734c)">
     <use style="fill:#ff0000;stroke:#ff0000;stroke-width:0.5;" x="149.534594" xlink:href="#C0_0_9bcdf231b8" y="119.230997"/>
    </g>
    <g clip-path="url(#pefc746734c)">
     <use style="fill:#ff0000;stroke:#ff0000;stroke-width:0.5;" x="159.209729" xlink:href="#C0_0_9bcdf231b8" y="128.066079"/>
    </g>
    <g clip-path="url(#pefc746734c)">
     <use style="fill:#008000;stroke:#008000;stroke-width:0.5;" x="168.884865" xlink:href="#C0_0_9bcdf231b8" y="134.954723"/>
    </g>
    <g clip-path="url(#pefc746734c)">
     <use style="fill:#008000;stroke:#008000;stroke-width:0.5;" x="178.201662" xlink:href="#C0_0_9bcdf231b8" y="132.909317"/>
    </g>
    <g clip-path="url(#pefc746734c)">
     <use style="fill:#008000;stroke:#008000;stroke-width:0.5;" x="187.876797" xlink:href="#C0_0_9bcdf231b8" y="130.081834"/>
    </g>
    <g clip-path="url(#pefc746734c)">
     <use style="fill:#ff0000;stroke:#ff0000;stroke-width:0.5;" x="197.551933" xlink:href="#C0_0_9bcdf231b8" y="137.096417"/>
    </g>
    <g clip-path="url(#pefc746734c)">
     <use style="fill:#ff0000;stroke:#ff0000;stroke-width:0.5;" x="207.227068" xlink:href="#C0_0_9bcdf231b8" y="133.589099"/>
    </g>
    <g clip-path="url(#pefc746734c)">
     <use style="fill:#ff0000;stroke:#ff0000;stroke-width:0.5;" x="216.543865" xlink:href="#C0_0_9bcdf231b8" y="129.514515"/>
    </g>
    <g clip-path="url(#pefc746734c)">
     <use style="fill:#ff0000;stroke:#ff0000;stroke-width:0.5;" x="226.219001" xlink:href="#C0_0_9bcdf231b8" y="128.962749"/>
    </g>
    <g clip-path="url(#pefc746734c)">
     <use style="fill:#ff0000;stroke:#ff0000;stroke-width:0.5;" x="235.894136" xlink:href="#C0_0_9bcdf231b8" y="130.419523"/>
    </g>
    <g clip-path="url(#pefc746734c)">
     <use style="fill:#ff0000;stroke:#ff0000;stroke-width:0.5;" x="245.210933" xlink:href="#C0_0_9bcdf231b8" y="132.550149"/>
    </g>
    <g clip-path="url(#pefc746734c)">
     <use style="fill:#ff0000;stroke:#ff0000;stroke-width:0.5;" x="254.886069" xlink:href="#C0_0_9bcdf231b8" y="132.58428"/>
    </g>
    <g clip-path="url(#pefc746734c)">
     <use style="fill:#ff0000;stroke:#ff0000;stroke-width:0.5;" x="264.561204" xlink:href="#C0_0_9bcdf231b8" y="130.180242"/>
    </g>
    <g clip-path="url(#pefc746734c)">
     <use style="fill:#ff0000;stroke:#ff0000;stroke-width:0.5;" x="273.878001" xlink:href="#C0_0_9bcdf231b8" y="123.588407"/>
    </g>
    <g clip-path="url(#pefc746734c)">
     <use style="fill:#ff0000;stroke:#ff0000;stroke-width:0.5;" x="283.553137" xlink:href="#C0_0_9bcdf231b8" y="127.944824"/>
    </g>
    <g clip-path="url(#pefc746734c)">
     <use style="fill:#ff0000;stroke:#ff0000;stroke-width:0.5;" x="293.228272" xlink:href="#C0_0_9bcdf231b8" y="130.114707"/>
    </g>
    <g clip-path="url(#pefc746734c)">
     <use style="fill:#008000;stroke:#008000;stroke-width:0.5;" x="302.545069" xlink:href="#C0_0_9bcdf231b8" y="134.920479"/>
    </g>
    <g clip-path="url(#pefc746734c)">
     <use style="fill:#ffff00;stroke:#ffff00;stroke-width:0.5;" x="312.220205" xlink:href="#C0_0_9bcdf231b8" y="136.960782"/>
    </g>
    <g clip-path="url(#pefc746734c)">
     <use style="fill:#ff0000;stroke:#ff0000;stroke-width:0.5;" x="321.89534" xlink:href="#C0_0_9bcdf231b8" y="122.27163"/>
    </g>
    <g clip-path="url(#pefc746734c)">
     <use style="fill:#ff0000;stroke:#ff0000;stroke-width:0.5;" x="331.570476" xlink:href="#C0_0_9bcdf231b8" y="129.430174"/>
    </g>
    <g clip-path="url(#pefc746734c)">
     <use style="fill:#ff0000;stroke:#ff0000;stroke-width:0.5;" x="340.887273" xlink:href="#C0_0_9bcdf231b8" y="128.340553"/>
    </g>
   </g>
   <g id="line2d_1">
    <path clip-path="url(#pefc746734c)" d="M 16.232727 117.554667 
L 24.690661 139.029664 
L 25.341272 140.191782 
L 35.751037 132.75662 
L 44.208971 127.64511 
L 44.859581 127.833943 
L 53.317515 138.196689 
L 53.968125 138.809619 
L 63.72728 134.50749 
L 72.835824 135.215777 
L 73.486435 135.540349 
L 82.594979 145.228391 
L 83.245589 145.345812 
L 92.354134 140.660661 
L 102.113288 141.02862 
L 111.221833 139.432125 
L 111.872443 139.715019 
L 120.980987 149.251363 
L 131.390752 150.52804 
L 140.499297 150.730898 
L 149.607841 149.389393 
L 159.366996 144.763883 
L 168.47554 135.376575 
L 169.12615 134.901752 
L 179.535915 132.519392 
L 187.343239 130.237762 
L 187.99385 130.209131 
L 197.102394 140.114879 
L 197.753004 140.615985 
L 207.512159 141.257966 
L 216.620703 143.334763 
L 227.030468 141.001884 
L 236.789623 139.637966 
L 245.898167 137.464265 
L 255.006712 136.492134 
L 264.765866 139.822246 
L 273.874411 145.626714 
L 284.284176 141.07845 
L 293.39272 139.044728 
L 302.501264 134.940219 
L 304.453095 136.354715 
L 313.56164 143.078063 
L 321.368963 148.22843 
L 322.019574 148.522557 
L 332.429339 144.159724 
L 340.887273 141.407837 
L 340.887273 141.407837 
" style="fill:none;stroke:#61c46e;stroke-linecap:square;"/>
   </g>
   <g id="line2d_2">
    <path clip-path="url(#pefc746734c)" d="M 16.232727 149.545436 
L 25.341272 148.335801 
L 34.449816 145.619563 
L 35.100426 145.549098 
L 44.208971 147.640028 
L 44.859581 147.629549 
L 55.269346 144.875245 
L 63.72728 143.185987 
L 72.835824 146.074954 
L 73.486435 146.084362 
L 84.54681 141.637536 
L 92.354134 137.981026 
L 101.462678 130.688238 
L 102.113288 130.565971 
L 111.221833 138.549409 
L 111.872443 138.32896 
L 120.980987 124.085999 
L 130.089532 122.539246 
L 130.740142 122.909192 
L 139.848686 143.521541 
L 140.499297 144.479908 
L 149.607841 148.397642 
L 159.366996 144.126702 
L 169.12615 146.162811 
L 179.535915 145.615272 
L 187.99385 144.695046 
L 197.102394 139.634493 
L 197.753004 139.445406 
L 208.162769 142.496181 
L 217.271314 144.428179 
L 226.379858 147.012312 
L 238.090844 146.84898 
L 245.898167 147.068081 
L 255.006712 148.038482 
L 264.765866 147.227233 
L 275.175631 147.872062 
L 292.74211 147.853894 
L 293.39272 147.80064 
L 302.501264 144.990402 
L 307.055537 141.239846 
L 312.260419 136.99934 
L 321.368963 145.732909 
L 322.019574 146.198811 
L 331.128118 143.353749 
L 331.778728 143.307691 
L 340.887273 147.336526 
L 340.887273 147.336526 
" style="fill:none;stroke:#f6ed22;stroke-linecap:square;"/>
   </g>
   <g id="line2d_3">
    <path clip-path="url(#pefc746734c)" d="M 16.232727 149.984815 
L 24.690661 129.609614 
L 25.341272 128.557334 
L 35.100426 138.386006 
L 44.208971 141.799781 
L 44.859581 141.621427 
L 53.317515 133.566495 
L 53.968125 133.124387 
L 63.07667 139.165121 
L 63.72728 139.391441 
L 73.486435 135.460205 
L 82.594979 129.338143 
L 83.245589 129.500833 
L 92.354134 138.44323 
L 101.462678 145.344161 
L 102.113288 145.490326 
L 111.221833 139.103384 
L 111.872443 139.040939 
L 120.980987 143.747554 
L 130.089532 144.100425 
L 130.740142 143.665637 
L 139.848686 122.80193 
L 140.499297 121.874112 
L 149.607841 119.297884 
L 160.668216 129.255523 
L 169.12615 136.020354 
L 178.885305 138.693409 
L 187.99385 142.18074 
L 197.753004 137.023527 
L 208.162769 133.179881 
L 216.620703 129.510133 
L 226.379858 128.986969 
L 236.789623 130.624309 
L 245.247557 132.550278 
L 255.006712 132.554303 
L 264.765866 130.035439 
L 273.874411 123.590947 
L 284.284176 128.108777 
L 293.39272 130.239548 
L 302.501264 137.154297 
L 305.103706 137.38416 
L 312.260419 137.865911 
L 321.368963 123.12358 
L 322.019574 122.36355 
L 331.128118 129.102878 
L 331.778728 129.405818 
L 340.887273 128.340553 
L 340.887273 128.340553 
" style="fill:none;stroke:#f15a24;stroke-linecap:square;"/>
   </g>
  </g>
 </g>
 <defs>
  <clipPath id="pefc746734c">
   <rect height="266.112" width="357.12" x="0" y="-0"/>
  </clipPath>
 </defs>
</svg>
