<?xml version="1.0" encoding="utf-8" standalone="no"?>
<!DOCTYPE svg PUBLIC "-//W3C//DTD SVG 1.1//EN"
  "http://www.w3.org/Graphics/SVG/1.1/DTD/svg11.dtd">
<svg height="266.112pt" version="1.1" viewBox="0 0 357.12 266.112" width="357.12pt" xmlns="http://www.w3.org/2000/svg" xmlns:xlink="http://www.w3.org/1999/xlink">
 <metadata>
  <rdf:RDF xmlns:cc="http://creativecommons.org/ns#" xmlns:dc="http://purl.org/dc/elements/1.1/" xmlns:rdf="http://www.w3.org/1999/02/22-rdf-syntax-ns#">
   <cc:Work>
    <dc:type rdf:resource="http://purl.org/dc/dcmitype/StillImage"/>
    <dc:date>2022-03-05T14:44:08.422361</dc:date>
    <dc:format>image/svg+xml</dc:format>
    <dc:creator>
     <cc:Agent>
      <dc:title>Matplotlib v3.4.2, https://matplotlib.org/</dc:title>
     </cc:Agent>
    </dc:creator>
   </cc:Work>
  </rdf:RDF>
 </metadata>
 <defs>
  <style type="text/css">*{stroke-linecap:butt;stroke-linejoin:round;}</style>
 </defs>
 <g id="figure_1">
  <g id="patch_1">
   <path d="M 0 266.112 
L 357.12 266.112 
L 357.12 0 
L 0 0 
z
" style="fill:#ffffff;"/>
  </g>
  <g id="axes_1">
   <g id="PolyCollection_1">
    <path clip-path="url(#p69c655736c)" d="M 16.232727 125.67253 
L 16.232727 158.419636 
L 16.883338 158.419636 
L 17.533948 158.419636 
L 18.184558 158.419636 
L 18.835169 158.419636 
L 19.485779 158.419636 
L 20.136389 158.419636 
L 20.786999 158.419636 
L 21.43761 158.419636 
L 22.08822 158.419636 
L 22.73883 158.419636 
L 23.389441 158.419636 
L 24.040051 158.419636 
L 24.690661 158.419636 
L 25.341272 158.419636 
L 25.991882 158.419636 
L 26.642492 158.419636 
L 27.293103 158.419636 
L 27.943713 158.419636 
L 28.594323 158.419636 
L 29.244934 158.419636 
L 29.895544 158.419636 
L 30.546154 158.419636 
L 31.196764 158.419636 
L 31.847375 158.419636 
L 32.497985 158.419636 
L 33.148595 158.419636 
L 33.799206 158.419636 
L 34.449816 158.419636 
L 35.100426 158.419636 
L 35.751037 158.419636 
L 36.401647 158.419636 
L 37.052257 158.419636 
L 37.702868 158.419636 
L 38.353478 158.419636 
L 39.004088 158.419636 
L 39.654698 158.419636 
L 40.305309 158.419636 
L 40.955919 158.419636 
L 41.606529 158.419636 
L 42.25714 158.419636 
L 42.90775 158.419636 
L 43.55836 158.419636 
L 44.208971 158.419636 
L 44.859581 158.419636 
L 45.510191 158.419636 
L 46.160802 158.419636 
L 46.811412 158.419636 
L 47.462022 158.419636 
L 48.112633 158.419636 
L 48.763243 158.419636 
L 49.413853 158.419636 
L 50.064463 158.419636 
L 50.715074 158.419636 
L 51.365684 158.419636 
L 52.016294 158.419636 
L 52.666905 158.419636 
L 53.317515 158.419636 
L 53.968125 158.419636 
L 54.618736 158.419636 
L 55.269346 158.419636 
L 55.919956 158.419636 
L 56.570567 158.419636 
L 57.221177 158.419636 
L 57.871787 158.419636 
L 58.522398 158.419636 
L 59.173008 158.419636 
L 59.823618 158.419636 
L 60.474228 158.419636 
L 61.124839 158.419636 
L 61.775449 158.419636 
L 62.426059 158.419636 
L 63.07667 158.419636 
L 63.72728 158.419636 
L 64.37789 158.419636 
L 65.028501 158.419636 
L 65.679111 158.419636 
L 66.329721 158.419636 
L 66.980332 158.419636 
L 67.630942 158.419636 
L 68.281552 158.419636 
L 68.932163 158.419636 
L 69.582773 158.419636 
L 70.233383 158.419636 
L 70.883993 158.419636 
L 71.534604 158.419636 
L 72.185214 158.419636 
L 72.835824 158.419636 
L 73.486435 158.419636 
L 74.137045 158.419636 
L 74.787655 158.419636 
L 75.438266 158.419636 
L 76.088876 158.419636 
L 76.739486 158.419636 
L 77.390097 158.419636 
L 78.040707 158.419636 
L 78.691317 158.419636 
L 79.341927 158.419636 
L 79.992538 158.419636 
L 80.643148 158.419636 
L 81.293758 158.419636 
L 81.944369 158.419636 
L 82.594979 158.419636 
L 83.245589 158.419636 
L 83.8962 158.419636 
L 84.54681 158.419636 
L 85.19742 158.419636 
L 85.848031 158.419636 
L 86.498641 158.419636 
L 87.149251 158.419636 
L 87.799862 158.419636 
L 88.450472 158.419636 
L 89.101082 158.419636 
L 89.751692 158.419636 
L 90.402303 158.419636 
L 91.052913 158.419636 
L 91.703523 158.419636 
L 92.354134 158.419636 
L 93.004744 158.419636 
L 93.655354 158.419636 
L 94.305965 158.419636 
L 94.956575 158.419636 
L 95.607185 158.419636 
L 96.257796 158.419636 
L 96.908406 158.419636 
L 97.559016 158.419636 
L 98.209627 158.419636 
L 98.860237 158.419636 
L 99.510847 158.419636 
L 100.161457 158.419636 
L 100.812068 158.419636 
L 101.462678 158.419636 
L 102.113288 158.419636 
L 102.763899 158.419636 
L 103.414509 158.419636 
L 104.065119 158.419636 
L 104.71573 158.419636 
L 105.36634 158.419636 
L 106.01695 158.419636 
L 106.667561 158.419636 
L 107.318171 158.419636 
L 107.968781 158.419636 
L 108.619392 158.419636 
L 109.270002 158.419636 
L 109.920612 158.419636 
L 110.571222 158.419636 
L 111.221833 158.419636 
L 111.872443 158.419636 
L 112.523053 158.419636 
L 113.173664 158.419636 
L 113.824274 158.419636 
L 114.474884 158.419636 
L 115.125495 158.419636 
L 115.776105 158.419636 
L 116.426715 158.419636 
L 117.077326 158.419636 
L 117.727936 158.419636 
L 118.378546 158.419636 
L 119.029156 158.419636 
L 119.679767 158.419636 
L 120.330377 158.419636 
L 120.980987 158.419636 
L 121.631598 158.419636 
L 122.282208 158.419636 
L 122.932818 158.419636 
L 123.583429 158.419636 
L 124.234039 158.419636 
L 124.884649 158.419636 
L 125.53526 158.419636 
L 126.18587 158.419636 
L 126.83648 158.419636 
L 127.487091 158.419636 
L 128.137701 158.419636 
L 128.788311 158.419636 
L 129.438921 158.419636 
L 130.089532 158.419636 
L 130.740142 158.419636 
L 131.390752 158.419636 
L 132.041363 158.419636 
L 132.691973 158.419636 
L 133.342583 158.419636 
L 133.993194 158.419636 
L 134.643804 158.419636 
L 135.294414 158.419636 
L 135.945025 158.419636 
L 136.595635 158.419636 
L 137.246245 158.419636 
L 137.896856 158.419636 
L 138.547466 158.419636 
L 139.198076 158.419636 
L 139.848686 158.419636 
L 140.499297 158.419636 
L 141.149907 158.419636 
L 141.800517 158.419636 
L 142.451128 158.419636 
L 143.101738 158.419636 
L 143.752348 158.419636 
L 144.402959 158.419636 
L 145.053569 158.419636 
L 145.704179 158.419636 
L 146.35479 158.419636 
L 147.0054 158.419636 
L 147.65601 158.419636 
L 148.306621 158.419636 
L 148.957231 158.419636 
L 149.607841 158.419636 
L 150.258451 158.419636 
L 150.909062 158.419636 
L 151.559672 158.419636 
L 152.210282 158.419636 
L 152.860893 158.419636 
L 153.511503 158.419636 
L 154.162113 158.419636 
L 154.812724 158.419636 
L 155.463334 158.419636 
L 156.113944 158.419636 
L 156.764555 158.419636 
L 157.415165 158.419636 
L 158.065775 158.419636 
L 158.716385 158.419636 
L 159.366996 158.419636 
L 160.017606 158.419636 
L 160.668216 158.419636 
L 161.318827 158.419636 
L 161.969437 158.419636 
L 162.620047 158.419636 
L 163.270658 158.419636 
L 163.921268 158.419636 
L 164.571878 158.419636 
L 165.222489 158.419636 
L 165.873099 158.419636 
L 166.523709 158.419636 
L 167.17432 158.419636 
L 167.82493 158.419636 
L 168.47554 158.419636 
L 169.12615 158.419636 
L 169.776761 158.419636 
L 170.427371 158.419636 
L 171.077981 158.419636 
L 171.728592 158.419636 
L 172.379202 158.419636 
L 173.029812 158.419636 
L 173.680423 158.419636 
L 174.331033 158.419636 
L 174.981643 158.419636 
L 175.632254 158.419636 
L 176.282864 158.419636 
L 176.933474 158.419636 
L 177.584085 158.419636 
L 178.234695 158.419636 
L 178.885305 158.419636 
L 179.535915 158.419636 
L 180.186526 158.419636 
L 180.837136 158.419636 
L 181.487746 158.419636 
L 182.138357 158.419636 
L 182.788967 158.419636 
L 183.439577 158.419636 
L 184.090188 158.419636 
L 184.740798 158.419636 
L 185.391408 158.419636 
L 186.042019 158.419636 
L 186.692629 158.419636 
L 187.343239 158.419636 
L 187.99385 158.419636 
L 188.64446 158.419636 
L 189.29507 158.419636 
L 189.94568 158.419636 
L 190.596291 158.419636 
L 191.246901 158.419636 
L 191.897511 158.419636 
L 192.548122 158.419636 
L 193.198732 158.419636 
L 193.849342 158.419636 
L 194.499953 158.419636 
L 195.150563 158.419636 
L 195.801173 158.419636 
L 196.451784 158.419636 
L 197.102394 158.419636 
L 197.753004 158.419636 
L 198.403615 158.419636 
L 199.054225 158.419636 
L 199.704835 158.419636 
L 200.355445 158.419636 
L 201.006056 158.419636 
L 201.656666 158.419636 
L 202.307276 158.419636 
L 202.957887 158.419636 
L 203.608497 158.419636 
L 204.259107 158.419636 
L 204.909718 158.419636 
L 205.560328 158.419636 
L 206.210938 158.419636 
L 206.861549 158.419636 
L 207.512159 158.419636 
L 208.162769 158.419636 
L 208.813379 158.419636 
L 209.46399 158.419636 
L 210.1146 158.419636 
L 210.76521 158.419636 
L 211.415821 158.419636 
L 212.066431 158.419636 
L 212.717041 158.419636 
L 213.367652 158.419636 
L 214.018262 158.419636 
L 214.668872 158.419636 
L 215.319483 158.419636 
L 215.970093 158.419636 
L 216.620703 158.419636 
L 217.271314 158.419636 
L 217.921924 158.419636 
L 218.572534 158.419636 
L 219.223144 158.419636 
L 219.873755 158.419636 
L 220.524365 158.419636 
L 221.174975 158.419636 
L 221.825586 158.419636 
L 222.476196 158.419636 
L 223.126806 158.419636 
L 223.777417 158.419636 
L 224.428027 158.419636 
L 225.078637 158.419636 
L 225.729248 158.419636 
L 226.379858 158.419636 
L 227.030468 158.419636 
L 227.681079 158.419636 
L 228.331689 158.419636 
L 228.982299 158.419636 
L 229.632909 158.419636 
L 230.28352 158.419636 
L 230.93413 158.419636 
L 231.58474 158.419636 
L 232.235351 158.419636 
L 232.885961 158.419636 
L 233.536571 158.419636 
L 234.187182 158.419636 
L 234.837792 158.419636 
L 235.488402 158.419636 
L 236.139013 158.419636 
L 236.789623 158.419636 
L 237.440233 158.419636 
L 238.090844 158.419636 
L 238.741454 158.419636 
L 239.392064 158.419636 
L 240.042674 158.419636 
L 240.693285 158.419636 
L 241.343895 158.419636 
L 241.994505 158.419636 
L 242.645116 158.419636 
L 243.295726 158.419636 
L 243.946336 158.419636 
L 244.596947 158.419636 
L 245.247557 158.419636 
L 245.898167 158.419636 
L 246.548778 158.419636 
L 247.199388 158.419636 
L 247.849998 158.419636 
L 248.500608 158.419636 
L 249.151219 158.419636 
L 249.801829 158.419636 
L 250.452439 158.419636 
L 251.10305 158.419636 
L 251.75366 158.419636 
L 252.40427 158.419636 
L 253.054881 158.419636 
L 253.705491 158.419636 
L 254.356101 158.419636 
L 255.006712 158.419636 
L 255.657322 158.419636 
L 256.307932 158.419636 
L 256.958543 158.419636 
L 257.609153 158.419636 
L 258.259763 158.419636 
L 258.910373 158.419636 
L 259.560984 158.419636 
L 260.211594 158.419636 
L 260.862204 158.419636 
L 261.512815 158.419636 
L 262.163425 158.419636 
L 262.814035 158.419636 
L 263.464646 158.419636 
L 264.115256 158.419636 
L 264.765866 158.419636 
L 265.416477 158.419636 
L 266.067087 158.419636 
L 266.717697 158.419636 
L 267.368308 158.419636 
L 268.018918 158.419636 
L 268.669528 158.419636 
L 269.320138 158.419636 
L 269.970749 158.419636 
L 270.621359 158.419636 
L 271.271969 158.419636 
L 271.92258 158.419636 
L 272.57319 158.419636 
L 273.2238 158.419636 
L 273.874411 158.419636 
L 274.525021 158.419636 
L 275.175631 158.419636 
L 275.826242 158.419636 
L 276.476852 158.419636 
L 277.127462 158.419636 
L 277.778073 158.419636 
L 278.428683 158.419636 
L 279.079293 158.419636 
L 279.729903 158.419636 
L 280.380514 158.419636 
L 281.031124 158.419636 
L 281.681734 158.419636 
L 282.332345 158.419636 
L 282.982955 158.419636 
L 283.633565 158.419636 
L 284.284176 158.419636 
L 284.934786 158.419636 
L 285.585396 158.419636 
L 286.236007 158.419636 
L 286.886617 158.419636 
L 287.537227 158.419636 
L 288.187837 158.419636 
L 288.838448 158.419636 
L 289.489058 158.419636 
L 290.139668 158.419636 
L 290.790279 158.419636 
L 291.440889 158.419636 
L 292.091499 158.419636 
L 292.74211 158.419636 
L 293.39272 158.419636 
L 294.04333 158.419636 
L 294.693941 158.419636 
L 295.344551 158.419636 
L 295.995161 158.419636 
L 296.645772 158.419636 
L 297.296382 158.419636 
L 297.946992 158.419636 
L 298.597602 158.419636 
L 299.248213 158.419636 
L 299.898823 158.419636 
L 300.549433 158.419636 
L 301.200044 158.419636 
L 301.850654 158.419636 
L 302.501264 158.419636 
L 303.151875 158.419636 
L 303.802485 158.419636 
L 304.453095 158.419636 
L 305.103706 158.419636 
L 305.754316 158.419636 
L 306.404926 158.419636 
L 307.055537 158.419636 
L 307.706147 158.419636 
L 308.356757 158.419636 
L 309.007367 158.419636 
L 309.657978 158.419636 
L 310.308588 158.419636 
L 310.959198 158.419636 
L 311.609809 158.419636 
L 312.260419 158.419636 
L 312.911029 158.419636 
L 313.56164 158.419636 
L 314.21225 158.419636 
L 314.86286 158.419636 
L 315.513471 158.419636 
L 316.164081 158.419636 
L 316.814691 158.419636 
L 317.465302 158.419636 
L 318.115912 158.419636 
L 318.766522 158.419636 
L 319.417132 158.419636 
L 320.067743 158.419636 
L 320.718353 158.419636 
L 321.368963 158.419636 
L 322.019574 158.419636 
L 322.670184 158.419636 
L 323.320794 158.419636 
L 323.971405 158.419636 
L 324.622015 158.419636 
L 325.272625 158.419636 
L 325.923236 158.419636 
L 326.573846 158.419636 
L 327.224456 158.419636 
L 327.875066 158.419636 
L 328.525677 158.419636 
L 329.176287 158.419636 
L 329.826897 158.419636 
L 330.477508 158.419636 
L 331.128118 158.419636 
L 331.778728 158.419636 
L 332.429339 158.419636 
L 333.079949 158.419636 
L 333.730559 158.419636 
L 334.38117 158.419636 
L 335.03178 158.419636 
L 335.68239 158.419636 
L 336.333001 158.419636 
L 336.983611 158.419636 
L 337.634221 158.419636 
L 338.284831 158.419636 
L 338.935442 158.419636 
L 339.586052 158.419636 
L 340.236662 158.419636 
L 340.887273 158.419636 
L 340.887273 155.355103 
L 340.887273 155.355103 
L 340.236662 155.399001 
L 339.586052 155.442899 
L 338.935442 155.486798 
L 338.284831 155.530696 
L 337.634221 155.574595 
L 336.983611 155.618493 
L 336.333001 155.662392 
L 335.68239 155.70629 
L 335.03178 155.750188 
L 334.38117 155.794087 
L 333.730559 155.837985 
L 333.079949 155.881884 
L 332.429339 155.925782 
L 331.778728 155.969681 
L 331.128118 156.013579 
L 330.477508 156.057477 
L 329.826897 156.101376 
L 329.176287 156.145274 
L 328.525677 156.189173 
L 327.875066 156.233071 
L 327.224456 156.27697 
L 326.573846 156.1418 
L 325.923236 155.996896 
L 325.272625 155.851992 
L 324.622015 155.707087 
L 323.971405 155.562183 
L 323.320794 155.417278 
L 322.670184 155.272374 
L 322.019574 155.12747 
L 321.368963 154.982565 
L 320.718353 154.837661 
L 320.067743 154.692756 
L 319.417132 154.547852 
L 318.766522 154.402948 
L 318.115912 154.258043 
L 317.465302 154.113139 
L 316.814691 153.968234 
L 316.164081 153.82333 
L 315.513471 153.678426 
L 314.86286 153.533521 
L 314.21225 153.388617 
L 313.56164 152.828446 
L 312.911029 152.069752 
L 312.260419 151.311058 
L 311.609809 150.552364 
L 310.959198 149.79367 
L 310.308588 149.034976 
L 309.657978 148.276282 
L 309.007367 147.517588 
L 308.356757 146.758894 
L 307.706147 146.0002 
L 307.055537 145.241506 
L 306.404926 144.482812 
L 305.754316 143.724118 
L 305.103706 142.965424 
L 304.453095 142.20673 
L 303.802485 141.448036 
L 303.151875 140.689342 
L 302.501264 139.930648 
L 301.850654 139.171954 
L 301.200044 138.41326 
L 300.549433 137.654566 
L 299.898823 137.848106 
L 299.248213 138.612987 
L 298.597602 139.377867 
L 297.946992 140.142748 
L 297.296382 140.907629 
L 296.645772 141.672509 
L 295.995161 142.43739 
L 295.344551 143.202271 
L 294.693941 143.967151 
L 294.04333 144.732032 
L 293.39272 145.496913 
L 292.74211 146.261793 
L 292.091499 147.026674 
L 291.440889 147.791555 
L 290.790279 148.556435 
L 290.139668 149.321316 
L 289.489058 150.086197 
L 288.838448 150.851077 
L 288.187837 151.615958 
L 287.537227 152.380838 
L 286.886617 153.145719 
L 286.236007 153.51212 
L 285.585396 153.582103 
L 284.934786 153.652086 
L 284.284176 153.722069 
L 283.633565 153.792052 
L 282.982955 153.862036 
L 282.332345 153.932019 
L 281.681734 154.002002 
L 281.031124 154.071985 
L 280.380514 154.141968 
L 279.729903 154.211952 
L 279.079293 154.281935 
L 278.428683 154.351918 
L 277.778073 154.421901 
L 277.127462 154.491884 
L 276.476852 154.561868 
L 275.826242 154.631851 
L 275.175631 154.701834 
L 274.525021 154.771817 
L 273.874411 154.8418 
L 273.2238 154.747596 
L 272.57319 154.273125 
L 271.92258 153.798654 
L 271.271969 153.324183 
L 270.621359 152.849712 
L 269.970749 152.375241 
L 269.320138 151.90077 
L 268.669528 151.426299 
L 268.018918 150.951828 
L 267.368308 150.477357 
L 266.717697 150.002886 
L 266.067087 149.528415 
L 265.416477 149.053944 
L 264.765866 148.579473 
L 264.115256 148.105002 
L 263.464646 147.630531 
L 262.814035 147.15606 
L 262.163425 146.681589 
L 261.512815 146.207118 
L 260.862204 145.732647 
L 260.211594 145.258176 
L 259.560984 144.891141 
L 258.910373 144.846415 
L 258.259763 144.801688 
L 257.609153 144.756962 
L 256.958543 144.712236 
L 256.307932 144.667509 
L 255.657322 144.622783 
L 255.006712 144.578056 
L 254.356101 144.53333 
L 253.705491 144.488604 
L 253.054881 144.443877 
L 252.40427 144.399151 
L 251.75366 144.354425 
L 251.10305 144.309698 
L 250.452439 144.264972 
L 249.801829 144.220246 
L 249.151219 144.175519 
L 248.500608 144.130793 
L 247.849998 144.086067 
L 247.199388 144.04134 
L 246.548778 143.996614 
L 245.898167 143.907628 
L 245.247557 143.639862 
L 244.596947 143.372095 
L 243.946336 143.104329 
L 243.295726 142.836562 
L 242.645116 142.568796 
L 241.994505 142.30103 
L 241.343895 142.033263 
L 240.693285 141.765497 
L 240.042674 141.497731 
L 239.392064 141.229964 
L 238.741454 140.962198 
L 238.090844 140.694432 
L 237.440233 140.426665 
L 236.789623 140.158899 
L 236.139013 139.891132 
L 235.488402 139.623366 
L 234.837792 139.3556 
L 234.187182 139.087833 
L 233.536571 138.820067 
L 232.885961 138.552301 
L 232.235351 138.160866 
L 231.58474 137.75963 
L 230.93413 137.358393 
L 230.28352 136.957157 
L 229.632909 136.555921 
L 228.982299 136.154684 
L 228.331689 135.753448 
L 227.681079 135.352212 
L 227.030468 134.950975 
L 226.379858 134.549739 
L 225.729248 134.148503 
L 225.078637 133.747266 
L 224.428027 133.34603 
L 223.777417 132.944794 
L 223.126806 132.543557 
L 222.476196 132.142321 
L 221.825586 131.741085 
L 221.174975 131.339848 
L 220.524365 130.938612 
L 219.873755 130.537376 
L 219.223144 130.136139 
L 218.572534 130.394311 
L 217.921924 130.746684 
L 217.271314 131.099057 
L 216.620703 131.45143 
L 215.970093 131.803802 
L 215.319483 132.156175 
L 214.668872 132.508548 
L 214.018262 132.860921 
L 213.367652 133.213294 
L 212.717041 133.565667 
L 212.066431 133.91804 
L 211.415821 134.270412 
L 210.76521 134.622785 
L 210.1146 134.975158 
L 209.46399 135.327531 
L 208.813379 135.679904 
L 208.162769 136.032277 
L 207.512159 136.38465 
L 206.861549 136.737023 
L 206.210938 137.089395 
L 205.560328 137.441768 
L 204.909718 137.593127 
L 204.259107 137.701384 
L 203.608497 137.809641 
L 202.957887 137.917899 
L 202.307276 138.026156 
L 201.656666 138.134413 
L 201.006056 138.24267 
L 200.355445 138.350927 
L 199.704835 138.459184 
L 199.054225 138.567442 
L 198.403615 138.675699 
L 197.753004 138.783956 
L 197.102394 138.892213 
L 196.451784 139.00047 
L 195.801173 139.108727 
L 195.150563 139.216984 
L 194.499953 139.325242 
L 193.849342 139.433499 
L 193.198732 139.541756 
L 192.548122 139.650013 
L 191.897511 139.318511 
L 191.246901 138.629472 
L 190.596291 137.940432 
L 189.94568 137.251393 
L 189.29507 136.562353 
L 188.64446 135.873314 
L 187.99385 135.184274 
L 187.343239 134.495235 
L 186.692629 133.806195 
L 186.042019 133.117156 
L 185.391408 132.428116 
L 184.740798 131.739077 
L 184.090188 131.050037 
L 183.439577 130.360998 
L 182.788967 129.671958 
L 182.138357 128.982919 
L 181.487746 128.293879 
L 180.837136 127.60484 
L 180.186526 126.9158 
L 179.535915 126.226761 
L 178.885305 125.537721 
L 178.234695 125.756202 
L 177.584085 126.882203 
L 176.933474 128.008203 
L 176.282864 129.134203 
L 175.632254 130.260203 
L 174.981643 131.386203 
L 174.331033 132.512203 
L 173.680423 133.638203 
L 173.029812 134.764204 
L 172.379202 135.890204 
L 171.728592 137.016204 
L 171.077981 138.142204 
L 170.427371 139.268204 
L 169.776761 140.394204 
L 169.12615 141.520204 
L 168.47554 142.646204 
L 167.82493 143.772205 
L 167.17432 144.898205 
L 166.523709 146.024205 
L 165.873099 147.150205 
L 165.222489 148.276205 
L 164.571878 148.831462 
L 163.921268 148.684723 
L 163.270658 148.537985 
L 162.620047 148.391247 
L 161.969437 148.244509 
L 161.318827 148.09777 
L 160.668216 147.951032 
L 160.017606 147.804294 
L 159.366996 147.657556 
L 158.716385 147.510817 
L 158.065775 147.364079 
L 157.415165 147.217341 
L 156.764555 147.070603 
L 156.113944 146.923864 
L 155.463334 146.777126 
L 154.812724 146.630388 
L 154.162113 146.48365 
L 153.511503 146.336911 
L 152.860893 146.190173 
L 152.210282 146.043435 
L 151.559672 145.779523 
L 150.909062 144.969153 
L 150.258451 144.158782 
L 149.607841 143.348411 
L 148.957231 142.538041 
L 148.306621 141.72767 
L 147.65601 140.9173 
L 147.0054 140.106929 
L 146.35479 139.296558 
L 145.704179 138.486188 
L 145.053569 137.675817 
L 144.402959 136.865447 
L 143.752348 136.055076 
L 143.101738 135.244705 
L 142.451128 134.434335 
L 141.800517 133.623964 
L 141.149907 132.813594 
L 140.499297 132.003223 
L 139.848686 131.192852 
L 139.198076 130.382482 
L 138.547466 129.572111 
L 137.896856 128.949135 
L 137.246245 129.637924 
L 136.595635 130.326713 
L 135.945025 131.015501 
L 135.294414 131.70429 
L 134.643804 132.393078 
L 133.993194 133.081867 
L 133.342583 133.770655 
L 132.691973 134.459444 
L 132.041363 135.148233 
L 131.390752 135.837021 
L 130.740142 136.52581 
L 130.089532 137.214598 
L 129.438921 137.903387 
L 128.788311 138.592176 
L 128.137701 139.280964 
L 127.487091 139.969753 
L 126.83648 140.658541 
L 126.18587 141.34733 
L 125.53526 142.036118 
L 124.884649 142.724907 
L 124.234039 143.365477 
L 123.583429 143.397665 
L 122.932818 143.429854 
L 122.282208 143.462042 
L 121.631598 143.494231 
L 120.980987 143.526419 
L 120.330377 143.558608 
L 119.679767 143.590796 
L 119.029156 143.622985 
L 118.378546 143.655173 
L 117.727936 143.687362 
L 117.077326 143.719551 
L 116.426715 143.751739 
L 115.776105 143.783928 
L 115.125495 143.816116 
L 114.474884 143.848305 
L 113.824274 143.880493 
L 113.173664 143.912682 
L 112.523053 143.94487 
L 111.872443 143.977059 
L 111.221833 144.009247 
L 110.571222 143.436551 
L 109.920612 142.714108 
L 109.270002 141.991665 
L 108.619392 141.269221 
L 107.968781 140.546778 
L 107.318171 139.824335 
L 106.667561 139.101891 
L 106.01695 138.379448 
L 105.36634 137.657004 
L 104.71573 136.934561 
L 104.065119 136.212118 
L 103.414509 135.489674 
L 102.763899 134.767231 
L 102.113288 134.044788 
L 101.462678 133.322344 
L 100.812068 132.599901 
L 100.161457 131.877458 
L 99.510847 131.155014 
L 98.860237 130.432571 
L 98.209627 129.710128 
L 97.559016 128.987684 
L 96.908406 128.873423 
L 96.257796 128.961888 
L 95.607185 129.050354 
L 94.956575 129.138819 
L 94.305965 129.227285 
L 93.655354 129.31575 
L 93.004744 129.404216 
L 92.354134 129.492682 
L 91.703523 129.581147 
L 91.052913 129.669613 
L 90.402303 129.758078 
L 89.751692 129.846544 
L 89.101082 129.935009 
L 88.450472 130.023475 
L 87.799862 130.111941 
L 87.149251 130.200406 
L 86.498641 130.288872 
L 85.848031 130.377337 
L 85.19742 130.465803 
L 84.54681 130.554268 
L 83.8962 130.642734 
L 83.245589 131.26537 
L 82.594979 132.118644 
L 81.944369 132.971918 
L 81.293758 133.825193 
L 80.643148 134.678467 
L 79.992538 135.531741 
L 79.341927 136.385015 
L 78.691317 137.23829 
L 78.040707 138.091564 
L 77.390097 138.944838 
L 76.739486 139.798112 
L 76.088876 140.651387 
L 75.438266 141.504661 
L 74.787655 142.357935 
L 74.137045 143.211209 
L 73.486435 144.064484 
L 72.835824 144.917758 
L 72.185214 145.771032 
L 71.534604 146.624306 
L 70.883993 147.477581 
L 70.233383 148.089461 
L 69.582773 148.376832 
L 68.932163 148.664202 
L 68.281552 148.951572 
L 67.630942 149.238942 
L 66.980332 149.526312 
L 66.329721 149.813682 
L 65.679111 150.101053 
L 65.028501 150.388423 
L 64.37789 150.675793 
L 63.72728 150.963163 
L 63.07667 151.250533 
L 62.426059 151.537903 
L 61.775449 151.825274 
L 61.124839 152.112644 
L 60.474228 152.400014 
L 59.823618 152.687384 
L 59.173008 152.974754 
L 58.522398 153.262125 
L 57.871787 153.549495 
L 57.221177 153.836865 
L 56.570567 153.718931 
L 55.919956 152.925491 
L 55.269346 152.132051 
L 54.618736 151.338611 
L 53.968125 150.545171 
L 53.317515 149.751731 
L 52.666905 148.958291 
L 52.016294 148.164851 
L 51.365684 147.371411 
L 50.715074 146.577971 
L 50.064463 145.784531 
L 49.413853 144.991091 
L 48.763243 144.197651 
L 48.112633 143.404211 
L 47.462022 142.610772 
L 46.811412 141.817332 
L 46.160802 141.023892 
L 45.510191 140.230452 
L 44.859581 139.437012 
L 44.208971 138.643572 
L 43.55836 137.850132 
L 42.90775 137.022801 
L 42.25714 136.124579 
L 41.606529 135.226357 
L 40.955919 134.328135 
L 40.305309 133.429912 
L 39.654698 132.53169 
L 39.004088 131.633468 
L 38.353478 130.735246 
L 37.702868 129.837023 
L 37.052257 128.938801 
L 36.401647 128.040579 
L 35.751037 127.142357 
L 35.100426 126.244134 
L 34.449816 125.345912 
L 33.799206 124.44769 
L 33.148595 123.549468 
L 32.497985 122.651245 
L 31.847375 121.753023 
L 31.196764 120.854801 
L 30.546154 119.956579 
L 29.895544 119.120758 
L 29.244934 119.432747 
L 28.594323 119.744736 
L 27.943713 120.056725 
L 27.293103 120.368714 
L 26.642492 120.680704 
L 25.991882 120.992693 
L 25.341272 121.304682 
L 24.690661 121.616671 
L 24.040051 121.92866 
L 23.389441 122.240649 
L 22.73883 122.552638 
L 22.08822 122.864628 
L 21.43761 123.176617 
L 20.786999 123.488606 
L 20.136389 123.800595 
L 19.485779 124.112584 
L 18.835169 124.424573 
L 18.184558 124.736562 
L 17.533948 125.048552 
L 16.883338 125.360541 
L 16.232727 125.67253 
z
" style="fill:#61c46e;fill-opacity:0.3;"/>
   </g>
   <g id="PolyCollection_2">
    <path clip-path="url(#p69c655736c)" d="M 16.232727 145.909106 
L 16.232727 158.419636 
L 16.883338 158.419636 
L 17.533948 158.419636 
L 18.184558 158.419636 
L 18.835169 158.419636 
L 19.485779 158.419636 
L 20.136389 158.419636 
L 20.786999 158.419636 
L 21.43761 158.419636 
L 22.08822 158.419636 
L 22.73883 158.419636 
L 23.389441 158.419636 
L 24.040051 158.419636 
L 24.690661 158.419636 
L 25.341272 158.419636 
L 25.991882 158.419636 
L 26.642492 158.419636 
L 27.293103 158.419636 
L 27.943713 158.419636 
L 28.594323 158.419636 
L 29.244934 158.419636 
L 29.895544 158.419636 
L 30.546154 158.419636 
L 31.196764 158.419636 
L 31.847375 158.419636 
L 32.497985 158.419636 
L 33.148595 158.419636 
L 33.799206 158.419636 
L 34.449816 158.419636 
L 35.100426 158.419636 
L 35.751037 158.419636 
L 36.401647 158.419636 
L 37.052257 158.419636 
L 37.702868 158.419636 
L 38.353478 158.419636 
L 39.004088 158.419636 
L 39.654698 158.419636 
L 40.305309 158.419636 
L 40.955919 158.419636 
L 41.606529 158.419636 
L 42.25714 158.419636 
L 42.90775 158.419636 
L 43.55836 158.419636 
L 44.208971 158.419636 
L 44.859581 158.419636 
L 45.510191 158.419636 
L 46.160802 158.419636 
L 46.811412 158.419636 
L 47.462022 158.419636 
L 48.112633 158.419636 
L 48.763243 158.419636 
L 49.413853 158.419636 
L 50.064463 158.419636 
L 50.715074 158.419636 
L 51.365684 158.419636 
L 52.016294 158.419636 
L 52.666905 158.419636 
L 53.317515 158.419636 
L 53.968125 158.419636 
L 54.618736 158.419636 
L 55.269346 158.419636 
L 55.919956 158.419636 
L 56.570567 158.419636 
L 57.221177 158.419636 
L 57.871787 158.419636 
L 58.522398 158.419636 
L 59.173008 158.419636 
L 59.823618 158.419636 
L 60.474228 158.419636 
L 61.124839 158.419636 
L 61.775449 158.419636 
L 62.426059 158.419636 
L 63.07667 158.419636 
L 63.72728 158.419636 
L 64.37789 158.419636 
L 65.028501 158.419636 
L 65.679111 158.419636 
L 66.329721 158.419636 
L 66.980332 158.419636 
L 67.630942 158.419636 
L 68.281552 158.419636 
L 68.932163 158.419636 
L 69.582773 158.419636 
L 70.233383 158.419636 
L 70.883993 158.419636 
L 71.534604 158.419636 
L 72.185214 158.419636 
L 72.835824 158.419636 
L 73.486435 158.419636 
L 74.137045 158.419636 
L 74.787655 158.419636 
L 75.438266 158.419636 
L 76.088876 158.419636 
L 76.739486 158.419636 
L 77.390097 158.419636 
L 78.040707 158.419636 
L 78.691317 158.419636 
L 79.341927 158.419636 
L 79.992538 158.419636 
L 80.643148 158.419636 
L 81.293758 158.419636 
L 81.944369 158.419636 
L 82.594979 158.419636 
L 83.245589 158.419636 
L 83.8962 158.419636 
L 84.54681 158.419636 
L 85.19742 158.419636 
L 85.848031 158.419636 
L 86.498641 158.419636 
L 87.149251 158.419636 
L 87.799862 158.419636 
L 88.450472 158.419636 
L 89.101082 158.419636 
L 89.751692 158.419636 
L 90.402303 158.419636 
L 91.052913 158.419636 
L 91.703523 158.419636 
L 92.354134 158.419636 
L 93.004744 158.419636 
L 93.655354 158.419636 
L 94.305965 158.419636 
L 94.956575 158.419636 
L 95.607185 158.419636 
L 96.257796 158.419636 
L 96.908406 158.419636 
L 97.559016 158.419636 
L 98.209627 158.419636 
L 98.860237 158.419636 
L 99.510847 158.419636 
L 100.161457 158.419636 
L 100.812068 158.419636 
L 101.462678 158.419636 
L 102.113288 158.419636 
L 102.763899 158.419636 
L 103.414509 158.419636 
L 104.065119 158.419636 
L 104.71573 158.419636 
L 105.36634 158.419636 
L 106.01695 158.419636 
L 106.667561 158.419636 
L 107.318171 158.419636 
L 107.968781 158.419636 
L 108.619392 158.419636 
L 109.270002 158.419636 
L 109.920612 158.419636 
L 110.571222 158.419636 
L 111.221833 158.419636 
L 111.872443 158.419636 
L 112.523053 158.419636 
L 113.173664 158.419636 
L 113.824274 158.419636 
L 114.474884 158.419636 
L 115.125495 158.419636 
L 115.776105 158.419636 
L 116.426715 158.419636 
L 117.077326 158.419636 
L 117.727936 158.419636 
L 118.378546 158.419636 
L 119.029156 158.419636 
L 119.679767 158.419636 
L 120.330377 158.419636 
L 120.980987 158.419636 
L 121.631598 158.419636 
L 122.282208 158.419636 
L 122.932818 158.419636 
L 123.583429 158.419636 
L 124.234039 158.419636 
L 124.884649 158.419636 
L 125.53526 158.419636 
L 126.18587 158.419636 
L 126.83648 158.419636 
L 127.487091 158.419636 
L 128.137701 158.419636 
L 128.788311 158.419636 
L 129.438921 158.419636 
L 130.089532 158.419636 
L 130.740142 158.419636 
L 131.390752 158.419636 
L 132.041363 158.419636 
L 132.691973 158.419636 
L 133.342583 158.419636 
L 133.993194 158.419636 
L 134.643804 158.419636 
L 135.294414 158.419636 
L 135.945025 158.419636 
L 136.595635 158.419636 
L 137.246245 158.419636 
L 137.896856 158.419636 
L 138.547466 158.419636 
L 139.198076 158.419636 
L 139.848686 158.419636 
L 140.499297 158.419636 
L 141.149907 158.419636 
L 141.800517 158.419636 
L 142.451128 158.419636 
L 143.101738 158.419636 
L 143.752348 158.419636 
L 144.402959 158.419636 
L 145.053569 158.419636 
L 145.704179 158.419636 
L 146.35479 158.419636 
L 147.0054 158.419636 
L 147.65601 158.419636 
L 148.306621 158.419636 
L 148.957231 158.419636 
L 149.607841 158.419636 
L 150.258451 158.419636 
L 150.909062 158.419636 
L 151.559672 158.419636 
L 152.210282 158.419636 
L 152.860893 158.419636 
L 153.511503 158.419636 
L 154.162113 158.419636 
L 154.812724 158.419636 
L 155.463334 158.419636 
L 156.113944 158.419636 
L 156.764555 158.419636 
L 157.415165 158.419636 
L 158.065775 158.419636 
L 158.716385 158.419636 
L 159.366996 158.419636 
L 160.017606 158.419636 
L 160.668216 158.419636 
L 161.318827 158.419636 
L 161.969437 158.419636 
L 162.620047 158.419636 
L 163.270658 158.419636 
L 163.921268 158.419636 
L 164.571878 158.419636 
L 165.222489 158.419636 
L 165.873099 158.419636 
L 166.523709 158.419636 
L 167.17432 158.419636 
L 167.82493 158.419636 
L 168.47554 158.419636 
L 169.12615 158.419636 
L 169.776761 158.419636 
L 170.427371 158.419636 
L 171.077981 158.419636 
L 171.728592 158.419636 
L 172.379202 158.419636 
L 173.029812 158.419636 
L 173.680423 158.419636 
L 174.331033 158.419636 
L 174.981643 158.419636 
L 175.632254 158.419636 
L 176.282864 158.419636 
L 176.933474 158.419636 
L 177.584085 158.419636 
L 178.234695 158.419636 
L 178.885305 158.419636 
L 179.535915 158.419636 
L 180.186526 158.419636 
L 180.837136 158.419636 
L 181.487746 158.419636 
L 182.138357 158.419636 
L 182.788967 158.419636 
L 183.439577 158.419636 
L 184.090188 158.419636 
L 184.740798 158.419636 
L 185.391408 158.419636 
L 186.042019 158.419636 
L 186.692629 158.419636 
L 187.343239 158.419636 
L 187.99385 158.419636 
L 188.64446 158.419636 
L 189.29507 158.419636 
L 189.94568 158.419636 
L 190.596291 158.419636 
L 191.246901 158.419636 
L 191.897511 158.419636 
L 192.548122 158.419636 
L 193.198732 158.419636 
L 193.849342 158.419636 
L 194.499953 158.419636 
L 195.150563 158.419636 
L 195.801173 158.419636 
L 196.451784 158.419636 
L 197.102394 158.419636 
L 197.753004 158.419636 
L 198.403615 158.419636 
L 199.054225 158.419636 
L 199.704835 158.419636 
L 200.355445 158.419636 
L 201.006056 158.419636 
L 201.656666 158.419636 
L 202.307276 158.419636 
L 202.957887 158.419636 
L 203.608497 158.419636 
L 204.259107 158.419636 
L 204.909718 158.419636 
L 205.560328 158.419636 
L 206.210938 158.419636 
L 206.861549 158.419636 
L 207.512159 158.419636 
L 208.162769 158.419636 
L 208.813379 158.419636 
L 209.46399 158.419636 
L 210.1146 158.419636 
L 210.76521 158.419636 
L 211.415821 158.419636 
L 212.066431 158.419636 
L 212.717041 158.419636 
L 213.367652 158.419636 
L 214.018262 158.419636 
L 214.668872 158.419636 
L 215.319483 158.419636 
L 215.970093 158.419636 
L 216.620703 158.419636 
L 217.271314 158.419636 
L 217.921924 158.419636 
L 218.572534 158.419636 
L 219.223144 158.419636 
L 219.873755 158.419636 
L 220.524365 158.419636 
L 221.174975 158.419636 
L 221.825586 158.419636 
L 222.476196 158.419636 
L 223.126806 158.419636 
L 223.777417 158.419636 
L 224.428027 158.419636 
L 225.078637 158.419636 
L 225.729248 158.419636 
L 226.379858 158.419636 
L 227.030468 158.419636 
L 227.681079 158.419636 
L 228.331689 158.419636 
L 228.982299 158.419636 
L 229.632909 158.419636 
L 230.28352 158.419636 
L 230.93413 158.419636 
L 231.58474 158.419636 
L 232.235351 158.419636 
L 232.885961 158.419636 
L 233.536571 158.419636 
L 234.187182 158.419636 
L 234.837792 158.419636 
L 235.488402 158.419636 
L 236.139013 158.419636 
L 236.789623 158.419636 
L 237.440233 158.419636 
L 238.090844 158.419636 
L 238.741454 158.419636 
L 239.392064 158.419636 
L 240.042674 158.419636 
L 240.693285 158.419636 
L 241.343895 158.419636 
L 241.994505 158.419636 
L 242.645116 158.419636 
L 243.295726 158.419636 
L 243.946336 158.419636 
L 244.596947 158.419636 
L 245.247557 158.419636 
L 245.898167 158.419636 
L 246.548778 158.419636 
L 247.199388 158.419636 
L 247.849998 158.419636 
L 248.500608 158.419636 
L 249.151219 158.419636 
L 249.801829 158.419636 
L 250.452439 158.419636 
L 251.10305 158.419636 
L 251.75366 158.419636 
L 252.40427 158.419636 
L 253.054881 158.419636 
L 253.705491 158.419636 
L 254.356101 158.419636 
L 255.006712 158.419636 
L 255.657322 158.419636 
L 256.307932 158.419636 
L 256.958543 158.419636 
L 257.609153 158.419636 
L 258.259763 158.419636 
L 258.910373 158.419636 
L 259.560984 158.419636 
L 260.211594 158.419636 
L 260.862204 158.419636 
L 261.512815 158.419636 
L 262.163425 158.419636 
L 262.814035 158.419636 
L 263.464646 158.419636 
L 264.115256 158.419636 
L 264.765866 158.419636 
L 265.416477 158.419636 
L 266.067087 158.419636 
L 266.717697 158.419636 
L 267.368308 158.419636 
L 268.018918 158.419636 
L 268.669528 158.419636 
L 269.320138 158.419636 
L 269.970749 158.419636 
L 270.621359 158.419636 
L 271.271969 158.419636 
L 271.92258 158.419636 
L 272.57319 158.419636 
L 273.2238 158.419636 
L 273.874411 158.419636 
L 274.525021 158.419636 
L 275.175631 158.419636 
L 275.826242 158.419636 
L 276.476852 158.419636 
L 277.127462 158.419636 
L 277.778073 158.419636 
L 278.428683 158.419636 
L 279.079293 158.419636 
L 279.729903 158.419636 
L 280.380514 158.419636 
L 281.031124 158.419636 
L 281.681734 158.419636 
L 282.332345 158.419636 
L 282.982955 158.419636 
L 283.633565 158.419636 
L 284.284176 158.419636 
L 284.934786 158.419636 
L 285.585396 158.419636 
L 286.236007 158.419636 
L 286.886617 158.419636 
L 287.537227 158.419636 
L 288.187837 158.419636 
L 288.838448 158.419636 
L 289.489058 158.419636 
L 290.139668 158.419636 
L 290.790279 158.419636 
L 291.440889 158.419636 
L 292.091499 158.419636 
L 292.74211 158.419636 
L 293.39272 158.419636 
L 294.04333 158.419636 
L 294.693941 158.419636 
L 295.344551 158.419636 
L 295.995161 158.419636 
L 296.645772 158.419636 
L 297.296382 158.419636 
L 297.946992 158.419636 
L 298.597602 158.419636 
L 299.248213 158.419636 
L 299.898823 158.419636 
L 300.549433 158.419636 
L 301.200044 158.419636 
L 301.850654 158.419636 
L 302.501264 158.419636 
L 303.151875 158.419636 
L 303.802485 158.419636 
L 304.453095 158.419636 
L 305.103706 158.419636 
L 305.754316 158.419636 
L 306.404926 158.419636 
L 307.055537 158.419636 
L 307.706147 158.419636 
L 308.356757 158.419636 
L 309.007367 158.419636 
L 309.657978 158.419636 
L 310.308588 158.419636 
L 310.959198 158.419636 
L 311.609809 158.419636 
L 312.260419 158.419636 
L 312.911029 158.419636 
L 313.56164 158.419636 
L 314.21225 158.419636 
L 314.86286 158.419636 
L 315.513471 158.419636 
L 316.164081 158.419636 
L 316.814691 158.419636 
L 317.465302 158.419636 
L 318.115912 158.419636 
L 318.766522 158.419636 
L 319.417132 158.419636 
L 320.067743 158.419636 
L 320.718353 158.419636 
L 321.368963 158.419636 
L 322.019574 158.419636 
L 322.670184 158.419636 
L 323.320794 158.419636 
L 323.971405 158.419636 
L 324.622015 158.419636 
L 325.272625 158.419636 
L 325.923236 158.419636 
L 326.573846 158.419636 
L 327.224456 158.419636 
L 327.875066 158.419636 
L 328.525677 158.419636 
L 329.176287 158.419636 
L 329.826897 158.419636 
L 330.477508 158.419636 
L 331.128118 158.419636 
L 331.778728 158.419636 
L 332.429339 158.419636 
L 333.079949 158.419636 
L 333.730559 158.419636 
L 334.38117 158.419636 
L 335.03178 158.419636 
L 335.68239 158.419636 
L 336.333001 158.419636 
L 336.983611 158.419636 
L 337.634221 158.419636 
L 338.284831 158.419636 
L 338.935442 158.419636 
L 339.586052 158.419636 
L 340.236662 158.419636 
L 340.887273 158.419636 
L 340.887273 146.176082 
L 340.887273 146.176082 
L 340.236662 146.266348 
L 339.586052 146.356615 
L 338.935442 146.446881 
L 338.284831 146.537148 
L 337.634221 146.627414 
L 336.983611 146.717681 
L 336.333001 146.807947 
L 335.68239 146.898214 
L 335.03178 146.98848 
L 334.38117 147.078747 
L 333.730559 147.169013 
L 333.079949 147.259279 
L 332.429339 147.349546 
L 331.778728 147.439812 
L 331.128118 147.530079 
L 330.477508 147.620345 
L 329.826897 147.710612 
L 329.176287 147.800878 
L 328.525677 147.891145 
L 327.875066 147.981411 
L 327.224456 148.071678 
L 326.573846 147.985664 
L 325.923236 147.890066 
L 325.272625 147.794468 
L 324.622015 147.698871 
L 323.971405 147.603273 
L 323.320794 147.507675 
L 322.670184 147.412077 
L 322.019574 147.31648 
L 321.368963 147.220882 
L 320.718353 147.125284 
L 320.067743 147.029687 
L 319.417132 146.934089 
L 318.766522 146.838491 
L 318.115912 146.742894 
L 317.465302 146.647296 
L 316.814691 146.551698 
L 316.164081 146.4561 
L 315.513471 146.360503 
L 314.86286 146.264905 
L 314.21225 146.169307 
L 313.56164 146.320984 
L 312.911029 146.590872 
L 312.260419 146.86076 
L 311.609809 147.130648 
L 310.959198 147.400536 
L 310.308588 147.670425 
L 309.657978 147.940313 
L 309.007367 148.210201 
L 308.356757 148.480089 
L 307.706147 148.749977 
L 307.055537 149.019866 
L 306.404926 149.289754 
L 305.754316 149.559642 
L 305.103706 149.82953 
L 304.453095 150.099418 
L 303.802485 150.369307 
L 303.151875 150.639195 
L 302.501264 150.909083 
L 301.850654 151.178971 
L 301.200044 151.448859 
L 300.549433 151.718748 
L 299.898823 151.855149 
L 299.248213 151.911458 
L 298.597602 151.967767 
L 297.946992 152.024076 
L 297.296382 152.080384 
L 296.645772 152.136693 
L 295.995161 152.193002 
L 295.344551 152.249311 
L 294.693941 152.30562 
L 294.04333 152.361929 
L 293.39272 152.418238 
L 292.74211 152.474547 
L 292.091499 152.530856 
L 291.440889 152.587165 
L 290.790279 152.643474 
L 290.139668 152.699783 
L 289.489058 152.756092 
L 288.838448 152.812401 
L 288.187837 152.86871 
L 287.537227 152.925019 
L 286.886617 152.981327 
L 286.236007 152.866576 
L 285.585396 152.624579 
L 284.934786 152.382582 
L 284.284176 152.140584 
L 283.633565 151.898587 
L 282.982955 151.65659 
L 282.332345 151.414592 
L 281.681734 151.172595 
L 281.031124 150.930598 
L 280.380514 150.6886 
L 279.729903 150.446603 
L 279.079293 150.204606 
L 278.428683 149.962608 
L 277.778073 149.720611 
L 277.127462 149.478614 
L 276.476852 149.236616 
L 275.826242 148.994619 
L 275.175631 148.752622 
L 274.525021 148.510624 
L 273.874411 148.268627 
L 273.2238 147.8666 
L 272.57319 147.093933 
L 271.92258 146.321266 
L 271.271969 145.548599 
L 270.621359 144.775932 
L 269.970749 144.003265 
L 269.320138 143.230598 
L 268.669528 142.457931 
L 268.018918 141.685264 
L 267.368308 140.912597 
L 266.717697 140.13993 
L 266.067087 139.367263 
L 265.416477 138.594596 
L 264.765866 137.821929 
L 264.115256 137.049262 
L 263.464646 136.276595 
L 262.814035 135.503928 
L 262.163425 134.731261 
L 261.512815 133.958594 
L 260.862204 133.185927 
L 260.211594 132.41326 
L 259.560984 131.981419 
L 258.910373 132.572056 
L 258.259763 133.162693 
L 257.609153 133.75333 
L 256.958543 134.343967 
L 256.307932 134.934604 
L 255.657322 135.52524 
L 255.006712 136.115877 
L 254.356101 136.706514 
L 253.705491 137.297151 
L 253.054881 137.887788 
L 252.40427 138.478425 
L 251.75366 139.069062 
L 251.10305 139.659699 
L 250.452439 140.250336 
L 249.801829 140.840973 
L 249.151219 141.43161 
L 248.500608 142.022247 
L 247.849998 142.612884 
L 247.199388 143.20352 
L 246.548778 143.794157 
L 245.898167 144.285247 
L 245.247557 144.374231 
L 244.596947 144.463214 
L 243.946336 144.552197 
L 243.295726 144.64118 
L 242.645116 144.730164 
L 241.994505 144.819147 
L 241.343895 144.90813 
L 240.693285 144.997113 
L 240.042674 145.086097 
L 239.392064 145.17508 
L 238.741454 145.264063 
L 238.090844 145.353046 
L 237.440233 145.44203 
L 236.789623 145.531013 
L 236.139013 145.619996 
L 235.488402 145.708979 
L 234.837792 145.797962 
L 234.187182 145.886946 
L 233.536571 145.975929 
L 232.885961 146.064912 
L 232.235351 145.785686 
L 231.58474 145.477277 
L 230.93413 145.168868 
L 230.28352 144.860458 
L 229.632909 144.552049 
L 228.982299 144.24364 
L 228.331689 143.93523 
L 227.681079 143.626821 
L 227.030468 143.318412 
L 226.379858 143.010002 
L 225.729248 142.701593 
L 225.078637 142.393184 
L 224.428027 142.084774 
L 223.777417 141.776365 
L 223.126806 141.467956 
L 222.476196 141.159546 
L 221.825586 140.851137 
L 221.174975 140.542728 
L 220.524365 140.234318 
L 219.873755 139.925909 
L 219.223144 139.617499 
L 218.572534 139.662548 
L 217.921924 139.75809 
L 217.271314 139.853632 
L 216.620703 139.949175 
L 215.970093 140.044717 
L 215.319483 140.140259 
L 214.668872 140.235802 
L 214.018262 140.331344 
L 213.367652 140.426886 
L 212.717041 140.522429 
L 212.066431 140.617971 
L 211.415821 140.713513 
L 210.76521 140.809056 
L 210.1146 140.904598 
L 209.46399 141.00014 
L 208.813379 141.095682 
L 208.162769 141.191225 
L 207.512159 141.286767 
L 206.861549 141.382309 
L 206.210938 141.477852 
L 205.560328 141.573394 
L 204.909718 141.893223 
L 204.259107 142.261145 
L 203.608497 142.629066 
L 202.957887 142.996988 
L 202.307276 143.364909 
L 201.656666 143.73283 
L 201.006056 144.100752 
L 200.355445 144.468673 
L 199.704835 144.836595 
L 199.054225 145.204516 
L 198.403615 145.572437 
L 197.753004 145.940359 
L 197.102394 146.30828 
L 196.451784 146.676201 
L 195.801173 147.044123 
L 195.150563 147.412044 
L 194.499953 147.779966 
L 193.849342 148.147887 
L 193.198732 148.515808 
L 192.548122 148.88373 
L 191.897511 149.120585 
L 191.246901 149.250881 
L 190.596291 149.381176 
L 189.94568 149.511471 
L 189.29507 149.641766 
L 188.64446 149.772061 
L 187.99385 149.902356 
L 187.343239 150.032651 
L 186.692629 150.162946 
L 186.042019 150.293241 
L 185.391408 150.423536 
L 184.740798 150.553831 
L 184.090188 150.684126 
L 183.439577 150.814421 
L 182.788967 150.944716 
L 182.138357 151.075012 
L 181.487746 151.205307 
L 180.837136 151.335602 
L 180.186526 151.465897 
L 179.535915 151.596192 
L 178.885305 151.726487 
L 178.234695 151.834804 
L 177.584085 151.921142 
L 176.933474 152.00748 
L 176.282864 152.093818 
L 175.632254 152.180156 
L 174.981643 152.266494 
L 174.331033 152.352832 
L 173.680423 152.439171 
L 173.029812 152.525509 
L 172.379202 152.611847 
L 171.728592 152.698185 
L 171.077981 152.784523 
L 170.427371 152.870861 
L 169.776761 152.957199 
L 169.12615 153.043538 
L 168.47554 153.129876 
L 167.82493 153.216214 
L 167.17432 153.302552 
L 166.523709 153.38889 
L 165.873099 153.475228 
L 165.222489 153.561566 
L 164.571878 153.454615 
L 163.921268 153.109927 
L 163.270658 152.765238 
L 162.620047 152.420549 
L 161.969437 152.07586 
L 161.318827 151.731171 
L 160.668216 151.386482 
L 160.017606 151.041793 
L 159.366996 150.697104 
L 158.716385 150.352416 
L 158.065775 150.007727 
L 157.415165 149.663038 
L 156.764555 149.318349 
L 156.113944 148.97366 
L 155.463334 148.628971 
L 154.812724 148.284282 
L 154.162113 147.939593 
L 153.511503 147.594905 
L 152.860893 147.250216 
L 152.210282 146.905527 
L 151.559672 146.639935 
L 150.909062 146.743228 
L 150.258451 146.84652 
L 149.607841 146.949813 
L 148.957231 147.053106 
L 148.306621 147.156399 
L 147.65601 147.259692 
L 147.0054 147.362985 
L 146.35479 147.466278 
L 145.704179 147.569571 
L 145.053569 147.672863 
L 144.402959 147.776156 
L 143.752348 147.879449 
L 143.101738 147.982742 
L 142.451128 148.086035 
L 141.800517 148.189328 
L 141.149907 148.292621 
L 140.499297 148.395914 
L 139.848686 148.499206 
L 139.198076 148.602499 
L 138.547466 148.705792 
L 137.896856 148.783873 
L 137.246245 148.685466 
L 136.595635 148.587059 
L 135.945025 148.488652 
L 135.294414 148.390245 
L 134.643804 148.291838 
L 133.993194 148.193432 
L 133.342583 148.095025 
L 132.691973 147.996618 
L 132.041363 147.898211 
L 131.390752 147.799804 
L 130.740142 147.701397 
L 130.089532 147.60299 
L 129.438921 147.504584 
L 128.788311 147.406177 
L 128.137701 147.30777 
L 127.487091 147.209363 
L 126.83648 147.110956 
L 126.18587 147.012549 
L 125.53526 146.914142 
L 124.884649 146.815736 
L 124.234039 146.704802 
L 123.583429 146.435812 
L 122.932818 146.166823 
L 122.282208 145.897834 
L 121.631598 145.628844 
L 120.980987 145.359855 
L 120.330377 145.090865 
L 119.679767 144.821876 
L 119.029156 144.552887 
L 118.378546 144.283897 
L 117.727936 144.014908 
L 117.077326 143.745919 
L 116.426715 143.476929 
L 115.776105 143.20794 
L 115.125495 142.93895 
L 114.474884 142.669961 
L 113.824274 142.400972 
L 113.173664 142.131982 
L 112.523053 141.862993 
L 111.872443 141.594004 
L 111.221833 141.325014 
L 110.571222 141.347703 
L 109.920612 141.442601 
L 109.270002 141.5375 
L 108.619392 141.632398 
L 107.968781 141.727296 
L 107.318171 141.822194 
L 106.667561 141.917092 
L 106.01695 142.01199 
L 105.36634 142.106888 
L 104.71573 142.201786 
L 104.065119 142.296684 
L 103.414509 142.391582 
L 102.763899 142.48648 
L 102.113288 142.581378 
L 101.462678 142.676276 
L 100.812068 142.771174 
L 100.161457 142.866072 
L 99.510847 142.960971 
L 98.860237 143.055869 
L 98.209627 143.150767 
L 97.559016 143.245665 
L 96.908406 143.155208 
L 96.257796 143.002967 
L 95.607185 142.850726 
L 94.956575 142.698485 
L 94.305965 142.546244 
L 93.655354 142.394003 
L 93.004744 142.241762 
L 92.354134 142.089521 
L 91.703523 141.93728 
L 91.052913 141.785039 
L 90.402303 141.632798 
L 89.751692 141.480556 
L 89.101082 141.328315 
L 88.450472 141.176074 
L 87.799862 141.023833 
L 87.149251 140.871592 
L 86.498641 140.719351 
L 85.848031 140.56711 
L 85.19742 140.414869 
L 84.54681 140.262628 
L 83.8962 140.110387 
L 83.245589 140.535442 
L 82.594979 141.209757 
L 81.944369 141.884072 
L 81.293758 142.558386 
L 80.643148 143.232701 
L 79.992538 143.907016 
L 79.341927 144.58133 
L 78.691317 145.255645 
L 78.040707 145.929959 
L 77.390097 146.604274 
L 76.739486 147.278589 
L 76.088876 147.952903 
L 75.438266 148.627218 
L 74.787655 149.301533 
L 74.137045 149.975847 
L 73.486435 150.650162 
L 72.835824 151.324477 
L 72.185214 151.998791 
L 71.534604 152.673106 
L 70.883993 153.347421 
L 70.233383 153.524483 
L 69.582773 153.033077 
L 68.932163 152.541672 
L 68.281552 152.050266 
L 67.630942 151.558861 
L 66.980332 151.067455 
L 66.329721 150.57605 
L 65.679111 150.084644 
L 65.028501 149.593239 
L 64.37789 149.101833 
L 63.72728 148.610428 
L 63.07667 148.119022 
L 62.426059 147.627617 
L 61.775449 147.136211 
L 61.124839 146.644806 
L 60.474228 146.1534 
L 59.823618 145.661995 
L 59.173008 145.170589 
L 58.522398 144.679183 
L 57.871787 144.187778 
L 57.221177 143.696372 
L 56.570567 143.380894 
L 55.919956 143.358628 
L 55.269346 143.336361 
L 54.618736 143.314095 
L 53.968125 143.291828 
L 53.317515 143.269562 
L 52.666905 143.247296 
L 52.016294 143.225029 
L 51.365684 143.202763 
L 50.715074 143.180496 
L 50.064463 143.15823 
L 49.413853 143.135964 
L 48.763243 143.113697 
L 48.112633 143.091431 
L 47.462022 143.069164 
L 46.811412 143.046898 
L 46.160802 143.024632 
L 45.510191 143.002365 
L 44.859581 142.980099 
L 44.208971 142.957832 
L 43.55836 142.935566 
L 42.90775 143.086906 
L 42.25714 143.601392 
L 41.606529 144.115879 
L 40.955919 144.630366 
L 40.305309 145.144853 
L 39.654698 145.65934 
L 39.004088 146.173826 
L 38.353478 146.688313 
L 37.702868 147.2028 
L 37.052257 147.717287 
L 36.401647 148.231774 
L 35.751037 148.746261 
L 35.100426 149.260747 
L 34.449816 149.775234 
L 33.799206 150.289721 
L 33.148595 150.804208 
L 32.497985 151.318695 
L 31.847375 151.833181 
L 31.196764 152.347668 
L 30.546154 152.862155 
L 29.895544 153.331888 
L 29.244934 152.978422 
L 28.594323 152.624956 
L 27.943713 152.271491 
L 27.293103 151.918025 
L 26.642492 151.564559 
L 25.991882 151.211093 
L 25.341272 150.857627 
L 24.690661 150.504161 
L 24.040051 150.150696 
L 23.389441 149.79723 
L 22.73883 149.443764 
L 22.08822 149.090298 
L 21.43761 148.736832 
L 20.786999 148.383366 
L 20.136389 148.029901 
L 19.485779 147.676435 
L 18.835169 147.322969 
L 18.184558 146.969503 
L 17.533948 146.616037 
L 16.883338 146.262571 
L 16.232727 145.909106 
z
" style="fill:#f6ed22;fill-opacity:0.3;"/>
   </g>
   <g id="PolyCollection_3">
    <path clip-path="url(#p69c655736c)" d="M 16.232727 152.949999 
L 16.232727 158.419636 
L 16.883338 158.419636 
L 17.533948 158.419636 
L 18.184558 158.419636 
L 18.835169 158.419636 
L 19.485779 158.419636 
L 20.136389 158.419636 
L 20.786999 158.419636 
L 21.43761 158.419636 
L 22.08822 158.419636 
L 22.73883 158.419636 
L 23.389441 158.419636 
L 24.040051 158.419636 
L 24.690661 158.419636 
L 25.341272 158.419636 
L 25.991882 158.419636 
L 26.642492 158.419636 
L 27.293103 158.419636 
L 27.943713 158.419636 
L 28.594323 158.419636 
L 29.244934 158.419636 
L 29.895544 158.419636 
L 30.546154 158.419636 
L 31.196764 158.419636 
L 31.847375 158.419636 
L 32.497985 158.419636 
L 33.148595 158.419636 
L 33.799206 158.419636 
L 34.449816 158.419636 
L 35.100426 158.419636 
L 35.751037 158.419636 
L 36.401647 158.419636 
L 37.052257 158.419636 
L 37.702868 158.419636 
L 38.353478 158.419636 
L 39.004088 158.419636 
L 39.654698 158.419636 
L 40.305309 158.419636 
L 40.955919 158.419636 
L 41.606529 158.419636 
L 42.25714 158.419636 
L 42.90775 158.419636 
L 43.55836 158.419636 
L 44.208971 158.419636 
L 44.859581 158.419636 
L 45.510191 158.419636 
L 46.160802 158.419636 
L 46.811412 158.419636 
L 47.462022 158.419636 
L 48.112633 158.419636 
L 48.763243 158.419636 
L 49.413853 158.419636 
L 50.064463 158.419636 
L 50.715074 158.419636 
L 51.365684 158.419636 
L 52.016294 158.419636 
L 52.666905 158.419636 
L 53.317515 158.419636 
L 53.968125 158.419636 
L 54.618736 158.419636 
L 55.269346 158.419636 
L 55.919956 158.419636 
L 56.570567 158.419636 
L 57.221177 158.419636 
L 57.871787 158.419636 
L 58.522398 158.419636 
L 59.173008 158.419636 
L 59.823618 158.419636 
L 60.474228 158.419636 
L 61.124839 158.419636 
L 61.775449 158.419636 
L 62.426059 158.419636 
L 63.07667 158.419636 
L 63.72728 158.419636 
L 64.37789 158.419636 
L 65.028501 158.419636 
L 65.679111 158.419636 
L 66.329721 158.419636 
L 66.980332 158.419636 
L 67.630942 158.419636 
L 68.281552 158.419636 
L 68.932163 158.419636 
L 69.582773 158.419636 
L 70.233383 158.419636 
L 70.883993 158.419636 
L 71.534604 158.419636 
L 72.185214 158.419636 
L 72.835824 158.419636 
L 73.486435 158.419636 
L 74.137045 158.419636 
L 74.787655 158.419636 
L 75.438266 158.419636 
L 76.088876 158.419636 
L 76.739486 158.419636 
L 77.390097 158.419636 
L 78.040707 158.419636 
L 78.691317 158.419636 
L 79.341927 158.419636 
L 79.992538 158.419636 
L 80.643148 158.419636 
L 81.293758 158.419636 
L 81.944369 158.419636 
L 82.594979 158.419636 
L 83.245589 158.419636 
L 83.8962 158.419636 
L 84.54681 158.419636 
L 85.19742 158.419636 
L 85.848031 158.419636 
L 86.498641 158.419636 
L 87.149251 158.419636 
L 87.799862 158.419636 
L 88.450472 158.419636 
L 89.101082 158.419636 
L 89.751692 158.419636 
L 90.402303 158.419636 
L 91.052913 158.419636 
L 91.703523 158.419636 
L 92.354134 158.419636 
L 93.004744 158.419636 
L 93.655354 158.419636 
L 94.305965 158.419636 
L 94.956575 158.419636 
L 95.607185 158.419636 
L 96.257796 158.419636 
L 96.908406 158.419636 
L 97.559016 158.419636 
L 98.209627 158.419636 
L 98.860237 158.419636 
L 99.510847 158.419636 
L 100.161457 158.419636 
L 100.812068 158.419636 
L 101.462678 158.419636 
L 102.113288 158.419636 
L 102.763899 158.419636 
L 103.414509 158.419636 
L 104.065119 158.419636 
L 104.71573 158.419636 
L 105.36634 158.419636 
L 106.01695 158.419636 
L 106.667561 158.419636 
L 107.318171 158.419636 
L 107.968781 158.419636 
L 108.619392 158.419636 
L 109.270002 158.419636 
L 109.920612 158.419636 
L 110.571222 158.419636 
L 111.221833 158.419636 
L 111.872443 158.419636 
L 112.523053 158.419636 
L 113.173664 158.419636 
L 113.824274 158.419636 
L 114.474884 158.419636 
L 115.125495 158.419636 
L 115.776105 158.419636 
L 116.426715 158.419636 
L 117.077326 158.419636 
L 117.727936 158.419636 
L 118.378546 158.419636 
L 119.029156 158.419636 
L 119.679767 158.419636 
L 120.330377 158.419636 
L 120.980987 158.419636 
L 121.631598 158.419636 
L 122.282208 158.419636 
L 122.932818 158.419636 
L 123.583429 158.419636 
L 124.234039 158.419636 
L 124.884649 158.419636 
L 125.53526 158.419636 
L 126.18587 158.419636 
L 126.83648 158.419636 
L 127.487091 158.419636 
L 128.137701 158.419636 
L 128.788311 158.419636 
L 129.438921 158.419636 
L 130.089532 158.419636 
L 130.740142 158.419636 
L 131.390752 158.419636 
L 132.041363 158.419636 
L 132.691973 158.419636 
L 133.342583 158.419636 
L 133.993194 158.419636 
L 134.643804 158.419636 
L 135.294414 158.419636 
L 135.945025 158.419636 
L 136.595635 158.419636 
L 137.246245 158.419636 
L 137.896856 158.419636 
L 138.547466 158.419636 
L 139.198076 158.419636 
L 139.848686 158.419636 
L 140.499297 158.419636 
L 141.149907 158.419636 
L 141.800517 158.419636 
L 142.451128 158.419636 
L 143.101738 158.419636 
L 143.752348 158.419636 
L 144.402959 158.419636 
L 145.053569 158.419636 
L 145.704179 158.419636 
L 146.35479 158.419636 
L 147.0054 158.419636 
L 147.65601 158.419636 
L 148.306621 158.419636 
L 148.957231 158.419636 
L 149.607841 158.419636 
L 150.258451 158.419636 
L 150.909062 158.419636 
L 151.559672 158.419636 
L 152.210282 158.419636 
L 152.860893 158.419636 
L 153.511503 158.419636 
L 154.162113 158.419636 
L 154.812724 158.419636 
L 155.463334 158.419636 
L 156.113944 158.419636 
L 156.764555 158.419636 
L 157.415165 158.419636 
L 158.065775 158.419636 
L 158.716385 158.419636 
L 159.366996 158.419636 
L 160.017606 158.419636 
L 160.668216 158.419636 
L 161.318827 158.419636 
L 161.969437 158.419636 
L 162.620047 158.419636 
L 163.270658 158.419636 
L 163.921268 158.419636 
L 164.571878 158.419636 
L 165.222489 158.419636 
L 165.873099 158.419636 
L 166.523709 158.419636 
L 167.17432 158.419636 
L 167.82493 158.419636 
L 168.47554 158.419636 
L 169.12615 158.419636 
L 169.776761 158.419636 
L 170.427371 158.419636 
L 171.077981 158.419636 
L 171.728592 158.419636 
L 172.379202 158.419636 
L 173.029812 158.419636 
L 173.680423 158.419636 
L 174.331033 158.419636 
L 174.981643 158.419636 
L 175.632254 158.419636 
L 176.282864 158.419636 
L 176.933474 158.419636 
L 177.584085 158.419636 
L 178.234695 158.419636 
L 178.885305 158.419636 
L 179.535915 158.419636 
L 180.186526 158.419636 
L 180.837136 158.419636 
L 181.487746 158.419636 
L 182.138357 158.419636 
L 182.788967 158.419636 
L 183.439577 158.419636 
L 184.090188 158.419636 
L 184.740798 158.419636 
L 185.391408 158.419636 
L 186.042019 158.419636 
L 186.692629 158.419636 
L 187.343239 158.419636 
L 187.99385 158.419636 
L 188.64446 158.419636 
L 189.29507 158.419636 
L 189.94568 158.419636 
L 190.596291 158.419636 
L 191.246901 158.419636 
L 191.897511 158.419636 
L 192.548122 158.419636 
L 193.198732 158.419636 
L 193.849342 158.419636 
L 194.499953 158.419636 
L 195.150563 158.419636 
L 195.801173 158.419636 
L 196.451784 158.419636 
L 197.102394 158.419636 
L 197.753004 158.419636 
L 198.403615 158.419636 
L 199.054225 158.419636 
L 199.704835 158.419636 
L 200.355445 158.419636 
L 201.006056 158.419636 
L 201.656666 158.419636 
L 202.307276 158.419636 
L 202.957887 158.419636 
L 203.608497 158.419636 
L 204.259107 158.419636 
L 204.909718 158.419636 
L 205.560328 158.419636 
L 206.210938 158.419636 
L 206.861549 158.419636 
L 207.512159 158.419636 
L 208.162769 158.419636 
L 208.813379 158.419636 
L 209.46399 158.419636 
L 210.1146 158.419636 
L 210.76521 158.419636 
L 211.415821 158.419636 
L 212.066431 158.419636 
L 212.717041 158.419636 
L 213.367652 158.419636 
L 214.018262 158.419636 
L 214.668872 158.419636 
L 215.319483 158.419636 
L 215.970093 158.419636 
L 216.620703 158.419636 
L 217.271314 158.419636 
L 217.921924 158.419636 
L 218.572534 158.419636 
L 219.223144 158.419636 
L 219.873755 158.419636 
L 220.524365 158.419636 
L 221.174975 158.419636 
L 221.825586 158.419636 
L 222.476196 158.419636 
L 223.126806 158.419636 
L 223.777417 158.419636 
L 224.428027 158.419636 
L 225.078637 158.419636 
L 225.729248 158.419636 
L 226.379858 158.419636 
L 227.030468 158.419636 
L 227.681079 158.419636 
L 228.331689 158.419636 
L 228.982299 158.419636 
L 229.632909 158.419636 
L 230.28352 158.419636 
L 230.93413 158.419636 
L 231.58474 158.419636 
L 232.235351 158.419636 
L 232.885961 158.419636 
L 233.536571 158.419636 
L 234.187182 158.419636 
L 234.837792 158.419636 
L 235.488402 158.419636 
L 236.139013 158.419636 
L 236.789623 158.419636 
L 237.440233 158.419636 
L 238.090844 158.419636 
L 238.741454 158.419636 
L 239.392064 158.419636 
L 240.042674 158.419636 
L 240.693285 158.419636 
L 241.343895 158.419636 
L 241.994505 158.419636 
L 242.645116 158.419636 
L 243.295726 158.419636 
L 243.946336 158.419636 
L 244.596947 158.419636 
L 245.247557 158.419636 
L 245.898167 158.419636 
L 246.548778 158.419636 
L 247.199388 158.419636 
L 247.849998 158.419636 
L 248.500608 158.419636 
L 249.151219 158.419636 
L 249.801829 158.419636 
L 250.452439 158.419636 
L 251.10305 158.419636 
L 251.75366 158.419636 
L 252.40427 158.419636 
L 253.054881 158.419636 
L 253.705491 158.419636 
L 254.356101 158.419636 
L 255.006712 158.419636 
L 255.657322 158.419636 
L 256.307932 158.419636 
L 256.958543 158.419636 
L 257.609153 158.419636 
L 258.259763 158.419636 
L 258.910373 158.419636 
L 259.560984 158.419636 
L 260.211594 158.419636 
L 260.862204 158.419636 
L 261.512815 158.419636 
L 262.163425 158.419636 
L 262.814035 158.419636 
L 263.464646 158.419636 
L 264.115256 158.419636 
L 264.765866 158.419636 
L 265.416477 158.419636 
L 266.067087 158.419636 
L 266.717697 158.419636 
L 267.368308 158.419636 
L 268.018918 158.419636 
L 268.669528 158.419636 
L 269.320138 158.419636 
L 269.970749 158.419636 
L 270.621359 158.419636 
L 271.271969 158.419636 
L 271.92258 158.419636 
L 272.57319 158.419636 
L 273.2238 158.419636 
L 273.874411 158.419636 
L 274.525021 158.419636 
L 275.175631 158.419636 
L 275.826242 158.419636 
L 276.476852 158.419636 
L 277.127462 158.419636 
L 277.778073 158.419636 
L 278.428683 158.419636 
L 279.079293 158.419636 
L 279.729903 158.419636 
L 280.380514 158.419636 
L 281.031124 158.419636 
L 281.681734 158.419636 
L 282.332345 158.419636 
L 282.982955 158.419636 
L 283.633565 158.419636 
L 284.284176 158.419636 
L 284.934786 158.419636 
L 285.585396 158.419636 
L 286.236007 158.419636 
L 286.886617 158.419636 
L 287.537227 158.419636 
L 288.187837 158.419636 
L 288.838448 158.419636 
L 289.489058 158.419636 
L 290.139668 158.419636 
L 290.790279 158.419636 
L 291.440889 158.419636 
L 292.091499 158.419636 
L 292.74211 158.419636 
L 293.39272 158.419636 
L 294.04333 158.419636 
L 294.693941 158.419636 
L 295.344551 158.419636 
L 295.995161 158.419636 
L 296.645772 158.419636 
L 297.296382 158.419636 
L 297.946992 158.419636 
L 298.597602 158.419636 
L 299.248213 158.419636 
L 299.898823 158.419636 
L 300.549433 158.419636 
L 301.200044 158.419636 
L 301.850654 158.419636 
L 302.501264 158.419636 
L 303.151875 158.419636 
L 303.802485 158.419636 
L 304.453095 158.419636 
L 305.103706 158.419636 
L 305.754316 158.419636 
L 306.404926 158.419636 
L 307.055537 158.419636 
L 307.706147 158.419636 
L 308.356757 158.419636 
L 309.007367 158.419636 
L 309.657978 158.419636 
L 310.308588 158.419636 
L 310.959198 158.419636 
L 311.609809 158.419636 
L 312.260419 158.419636 
L 312.911029 158.419636 
L 313.56164 158.419636 
L 314.21225 158.419636 
L 314.86286 158.419636 
L 315.513471 158.419636 
L 316.164081 158.419636 
L 316.814691 158.419636 
L 317.465302 158.419636 
L 318.115912 158.419636 
L 318.766522 158.419636 
L 319.417132 158.419636 
L 320.067743 158.419636 
L 320.718353 158.419636 
L 321.368963 158.419636 
L 322.019574 158.419636 
L 322.670184 158.419636 
L 323.320794 158.419636 
L 323.971405 158.419636 
L 324.622015 158.419636 
L 325.272625 158.419636 
L 325.923236 158.419636 
L 326.573846 158.419636 
L 327.224456 158.419636 
L 327.875066 158.419636 
L 328.525677 158.419636 
L 329.176287 158.419636 
L 329.826897 158.419636 
L 330.477508 158.419636 
L 331.128118 158.419636 
L 331.778728 158.419636 
L 332.429339 158.419636 
L 333.079949 158.419636 
L 333.730559 158.419636 
L 334.38117 158.419636 
L 335.03178 158.419636 
L 335.68239 158.419636 
L 336.333001 158.419636 
L 336.983611 158.419636 
L 337.634221 158.419636 
L 338.284831 158.419636 
L 338.935442 158.419636 
L 339.586052 158.419636 
L 340.236662 158.419636 
L 340.887273 158.419636 
L 340.887273 123.000452 
L 340.887273 123.000452 
L 340.236662 122.866287 
L 339.586052 122.732122 
L 338.935442 122.597957 
L 338.284831 122.463793 
L 337.634221 122.329628 
L 336.983611 122.195463 
L 336.333001 122.061298 
L 335.68239 121.927133 
L 335.03178 121.792968 
L 334.38117 121.658803 
L 333.730559 121.524638 
L 333.079949 121.390473 
L 332.429339 121.256308 
L 331.778728 121.122143 
L 331.128118 120.987978 
L 330.477508 120.853813 
L 329.826897 120.719648 
L 329.176287 120.585483 
L 328.525677 120.451318 
L 327.875066 120.317154 
L 327.224456 120.182989 
L 326.573846 120.404172 
L 325.923236 120.644674 
L 325.272625 120.885176 
L 324.622015 121.125678 
L 323.971405 121.366179 
L 323.320794 121.606681 
L 322.670184 121.847183 
L 322.019574 122.087685 
L 321.368963 122.328187 
L 320.718353 122.568689 
L 320.067743 122.809191 
L 319.417132 123.049693 
L 318.766522 123.290195 
L 318.115912 123.530697 
L 317.465302 123.771199 
L 316.814691 124.0117 
L 316.164081 124.252202 
L 315.513471 124.492704 
L 314.86286 124.733206 
L 314.21225 124.973708 
L 313.56164 125.382203 
L 312.911029 125.871009 
L 312.260419 126.359815 
L 311.609809 126.848621 
L 310.959198 127.337427 
L 310.308588 127.826233 
L 309.657978 128.315039 
L 309.007367 128.803844 
L 308.356757 129.29265 
L 307.706147 129.781456 
L 307.055537 130.270262 
L 306.404926 130.759068 
L 305.754316 131.247874 
L 305.103706 131.73668 
L 304.453095 132.225486 
L 303.802485 132.714292 
L 303.151875 133.203097 
L 302.501264 133.691903 
L 301.850654 134.180709 
L 301.200044 134.669515 
L 300.549433 135.158321 
L 299.898823 134.82838 
L 299.248213 134.00719 
L 298.597602 133.186001 
L 297.946992 132.364811 
L 297.296382 131.543622 
L 296.645772 130.722432 
L 295.995161 129.901242 
L 295.344551 129.080053 
L 294.693941 128.258863 
L 294.04333 127.437674 
L 293.39272 126.616484 
L 292.74211 125.795295 
L 292.091499 124.974105 
L 291.440889 124.152915 
L 290.790279 123.331726 
L 290.139668 122.510536 
L 289.489058 121.689347 
L 288.838448 120.868157 
L 288.187837 120.046968 
L 287.537227 119.225778 
L 286.886617 118.404589 
L 286.236007 118.152939 
L 285.585396 118.324954 
L 284.934786 118.496968 
L 284.284176 118.668982 
L 283.633565 118.840996 
L 282.982955 119.01301 
L 282.332345 119.185025 
L 281.681734 119.357039 
L 281.031124 119.529053 
L 280.380514 119.701067 
L 279.729903 119.873082 
L 279.079293 120.045096 
L 278.428683 120.21711 
L 277.778073 120.389124 
L 277.127462 120.561138 
L 276.476852 120.733153 
L 275.826242 120.905167 
L 275.175631 121.077181 
L 274.525021 121.249195 
L 273.874411 121.421209 
L 273.2238 121.917439 
L 272.57319 123.164577 
L 271.92258 124.411715 
L 271.271969 125.658853 
L 270.621359 126.905991 
L 269.970749 128.153129 
L 269.320138 129.400267 
L 268.669528 130.647405 
L 268.018918 131.894543 
L 267.368308 133.14168 
L 266.717697 134.388818 
L 266.067087 135.635956 
L 265.416477 136.883094 
L 264.765866 138.130232 
L 264.115256 139.37737 
L 263.464646 140.624508 
L 262.814035 141.871646 
L 262.163425 143.118784 
L 261.512815 144.365922 
L 260.862204 145.61306 
L 260.211594 146.860198 
L 259.560984 147.659073 
L 258.910373 147.113163 
L 258.259763 146.567252 
L 257.609153 146.021342 
L 256.958543 145.475431 
L 256.307932 144.929521 
L 255.657322 144.38361 
L 255.006712 143.837699 
L 254.356101 143.291789 
L 253.705491 142.745878 
L 253.054881 142.199968 
L 252.40427 141.654057 
L 251.75366 141.108147 
L 251.10305 140.562236 
L 250.452439 140.016326 
L 249.801829 139.470415 
L 249.151219 138.924504 
L 248.500608 138.378594 
L 247.849998 137.832683 
L 247.199388 137.286773 
L 246.548778 136.740862 
L 245.898167 136.338758 
L 245.247557 136.517541 
L 244.596947 136.696324 
L 243.946336 136.875108 
L 243.295726 137.053891 
L 242.645116 137.232674 
L 241.994505 137.411457 
L 241.343895 137.590241 
L 240.693285 137.769024 
L 240.042674 137.947807 
L 239.392064 138.12659 
L 238.741454 138.305374 
L 238.090844 138.484157 
L 237.440233 138.66294 
L 236.789623 138.841723 
L 236.139013 139.020507 
L 235.488402 139.19929 
L 234.837792 139.378073 
L 234.187182 139.556856 
L 233.536571 139.735639 
L 232.885961 139.914423 
L 232.235351 140.585083 
L 231.58474 141.294729 
L 230.93413 142.004374 
L 230.28352 142.71402 
L 229.632909 143.423666 
L 228.982299 144.133312 
L 228.331689 144.842958 
L 227.681079 145.552603 
L 227.030468 146.262249 
L 226.379858 146.971895 
L 225.729248 147.681541 
L 225.078637 148.391187 
L 224.428027 149.100832 
L 223.777417 149.810478 
L 223.126806 150.520124 
L 222.476196 151.22977 
L 221.825586 151.939416 
L 221.174975 152.649061 
L 220.524365 153.358707 
L 219.873755 154.068353 
L 219.223144 154.777999 
L 218.572534 154.474779 
L 217.921924 154.026864 
L 217.271314 153.578949 
L 216.620703 153.131033 
L 215.970093 152.683118 
L 215.319483 152.235203 
L 214.668872 151.787288 
L 214.018262 151.339372 
L 213.367652 150.891457 
L 212.717041 150.443542 
L 212.066431 149.995627 
L 211.415821 149.547711 
L 210.76521 149.099796 
L 210.1146 148.651881 
L 209.46399 148.203966 
L 208.813379 147.75605 
L 208.162769 147.308135 
L 207.512159 146.86022 
L 206.861549 146.412305 
L 206.210938 145.964389 
L 205.560328 145.516474 
L 204.909718 145.045286 
L 204.259107 144.569107 
L 203.608497 144.092929 
L 202.957887 143.61675 
L 202.307276 143.140572 
L 201.656666 142.664393 
L 201.006056 142.188215 
L 200.355445 141.712036 
L 199.704835 141.235857 
L 199.054225 140.759679 
L 198.403615 140.2835 
L 197.753004 139.807322 
L 197.102394 139.331143 
L 196.451784 138.854965 
L 195.801173 138.378786 
L 195.150563 137.902608 
L 194.499953 137.426429 
L 193.849342 136.950251 
L 193.198732 136.474072 
L 192.548122 135.997893 
L 191.897511 136.09254 
L 191.246901 136.651284 
L 190.596291 137.210028 
L 189.94568 137.768773 
L 189.29507 138.327517 
L 188.64446 138.886261 
L 187.99385 139.445006 
L 187.343239 140.00375 
L 186.692629 140.562494 
L 186.042019 141.121239 
L 185.391408 141.679983 
L 184.740798 142.238727 
L 184.090188 142.797472 
L 183.439577 143.356216 
L 182.788967 143.91496 
L 182.138357 144.473705 
L 181.487746 145.032449 
L 180.837136 145.591194 
L 180.186526 146.149938 
L 179.535915 146.708682 
L 178.885305 147.267427 
L 178.234695 146.94063 
L 177.584085 145.728292 
L 176.933474 144.515954 
L 176.282864 143.303615 
L 175.632254 142.091277 
L 174.981643 140.878939 
L 174.331033 139.666601 
L 173.680423 138.454262 
L 173.029812 137.241924 
L 172.379202 136.029586 
L 171.728592 134.817247 
L 171.077981 133.604909 
L 170.427371 132.392571 
L 169.776761 131.180233 
L 169.12615 129.967894 
L 168.47554 128.755556 
L 167.82493 127.543218 
L 167.17432 126.330879 
L 166.523709 125.118541 
L 165.873099 123.906203 
L 165.222489 122.693864 
L 164.571878 122.245558 
L 163.921268 122.736986 
L 163.270658 123.228413 
L 162.620047 123.71984 
L 161.969437 124.211267 
L 161.318827 124.702694 
L 160.668216 125.194121 
L 160.017606 125.685548 
L 159.366996 126.176975 
L 158.716385 126.668403 
L 158.065775 127.15983 
L 157.415165 127.651257 
L 156.764555 128.142684 
L 156.113944 128.634111 
L 155.463334 129.125538 
L 154.812724 129.616965 
L 154.162113 130.108392 
L 153.511503 130.59982 
L 152.860893 131.091247 
L 152.210282 131.582674 
L 151.559672 132.112177 
L 150.909062 132.819255 
L 150.258451 133.526333 
L 149.607841 134.23341 
L 148.957231 134.940488 
L 148.306621 135.647566 
L 147.65601 136.354644 
L 147.0054 137.061722 
L 146.35479 137.7688 
L 145.704179 138.475878 
L 145.053569 139.182956 
L 144.402959 139.890034 
L 143.752348 140.597111 
L 143.101738 141.304189 
L 142.451128 142.011267 
L 141.800517 142.718345 
L 141.149907 143.425423 
L 140.499297 144.132501 
L 139.848686 144.839579 
L 139.198076 145.546657 
L 138.547466 146.253734 
L 137.896856 146.79863 
L 137.246245 146.208248 
L 136.595635 145.617866 
L 135.945025 145.027485 
L 135.294414 144.437103 
L 134.643804 143.846721 
L 133.993194 143.25634 
L 133.342583 142.665958 
L 132.691973 142.075576 
L 132.041363 141.485195 
L 131.390752 140.894813 
L 130.740142 140.304431 
L 130.089532 139.714049 
L 129.438921 139.123668 
L 128.788311 138.533286 
L 128.137701 137.942904 
L 127.487091 137.352523 
L 126.83648 136.762141 
L 126.18587 136.171759 
L 125.53526 135.581378 
L 124.884649 134.990996 
L 124.234039 134.46136 
L 123.583429 134.698161 
L 122.932818 134.934962 
L 122.282208 135.171763 
L 121.631598 135.408564 
L 120.980987 135.645365 
L 120.330377 135.882166 
L 119.679767 136.118966 
L 119.029156 136.355767 
L 118.378546 136.592568 
L 117.727936 136.829369 
L 117.077326 137.06617 
L 116.426715 137.302971 
L 115.776105 137.539772 
L 115.125495 137.776573 
L 114.474884 138.013373 
L 113.824274 138.250174 
L 113.173664 138.486975 
L 112.523053 138.723776 
L 111.872443 138.960577 
L 111.221833 139.197378 
L 110.571222 139.747384 
L 109.920612 140.374929 
L 109.270002 141.002474 
L 108.619392 141.630019 
L 107.968781 142.257564 
L 107.318171 142.885109 
L 106.667561 143.512654 
L 106.01695 144.140199 
L 105.36634 144.767744 
L 104.71573 145.395289 
L 104.065119 146.022834 
L 103.414509 146.650379 
L 102.763899 147.277924 
L 102.113288 147.905468 
L 101.462678 148.533013 
L 100.812068 149.160558 
L 100.161457 149.788103 
L 99.510847 150.415648 
L 98.860237 151.043193 
L 98.209627 151.670738 
L 97.559016 152.298283 
L 96.908406 152.503001 
L 96.257796 152.566777 
L 95.607185 152.630553 
L 94.956575 152.694328 
L 94.305965 152.758104 
L 93.655354 152.82188 
L 93.004744 152.885656 
L 92.354134 152.949432 
L 91.703523 153.013207 
L 91.052913 153.076983 
L 90.402303 153.140759 
L 89.751692 153.204535 
L 89.101082 153.26831 
L 88.450472 153.332086 
L 87.799862 153.395862 
L 87.149251 153.459638 
L 86.498641 153.523414 
L 85.848031 153.587189 
L 85.19742 153.650965 
L 84.54681 153.714741 
L 83.8962 153.778517 
L 83.245589 152.730823 
L 82.594979 151.203234 
L 81.944369 149.675645 
L 81.293758 148.148056 
L 80.643148 146.620467 
L 79.992538 145.092878 
L 79.341927 143.565289 
L 78.691317 142.0377 
L 78.040707 140.510112 
L 77.390097 138.982523 
L 76.739486 137.454934 
L 76.088876 135.927345 
L 75.438266 134.399756 
L 74.787655 132.872167 
L 74.137045 131.344578 
L 73.486435 129.816989 
L 72.835824 128.2894 
L 72.185214 126.761812 
L 71.534604 125.234223 
L 70.883993 123.706634 
L 70.233383 122.917691 
L 69.582773 123.121726 
L 68.932163 123.325762 
L 68.281552 123.529797 
L 67.630942 123.733832 
L 66.980332 123.937868 
L 66.329721 124.141903 
L 65.679111 124.345938 
L 65.028501 124.549974 
L 64.37789 124.754009 
L 63.72728 124.958044 
L 63.07667 125.16208 
L 62.426059 125.366115 
L 61.775449 125.57015 
L 61.124839 125.774186 
L 60.474228 125.978221 
L 59.823618 126.182256 
L 59.173008 126.386292 
L 58.522398 126.590327 
L 57.871787 126.794363 
L 57.221177 126.998398 
L 56.570567 127.43181 
L 55.919956 128.247517 
L 55.269346 129.063223 
L 54.618736 129.87893 
L 53.968125 130.694636 
L 53.317515 131.510343 
L 52.666905 132.326049 
L 52.016294 133.141756 
L 51.365684 133.957463 
L 50.715074 134.773169 
L 50.064463 135.588876 
L 49.413853 136.404582 
L 48.763243 137.220289 
L 48.112633 138.035995 
L 47.462022 138.851702 
L 46.811412 139.667409 
L 46.160802 140.483115 
L 45.510191 141.298822 
L 44.859581 142.114528 
L 44.208971 142.930235 
L 43.55836 143.745942 
L 42.90775 144.421932 
L 42.25714 144.805668 
L 41.606529 145.189404 
L 40.955919 145.573139 
L 40.305309 145.956875 
L 39.654698 146.34061 
L 39.004088 146.724346 
L 38.353478 147.108081 
L 37.702868 147.491817 
L 37.052257 147.875552 
L 36.401647 148.259288 
L 35.751037 148.643023 
L 35.100426 149.026759 
L 34.449816 149.410494 
L 33.799206 149.79423 
L 33.148595 150.177965 
L 32.497985 150.561701 
L 31.847375 150.945436 
L 31.196764 151.329172 
L 30.546154 151.712907 
L 29.895544 152.078995 
L 29.244934 152.120471 
L 28.594323 152.161948 
L 27.943713 152.203424 
L 27.293103 152.244901 
L 26.642492 152.286377 
L 25.991882 152.327853 
L 25.341272 152.36933 
L 24.690661 152.410806 
L 24.040051 152.452283 
L 23.389441 152.493759 
L 22.73883 152.535235 
L 22.08822 152.576712 
L 21.43761 152.618188 
L 20.786999 152.659665 
L 20.136389 152.701141 
L 19.485779 152.742617 
L 18.835169 152.784094 
L 18.184558 152.82557 
L 17.533948 152.867047 
L 16.883338 152.908523 
L 16.232727 152.949999 
z
" style="fill:#f15a24;fill-opacity:0.3;"/>
   </g>
   <g id="PathCollection_1">
    <defs>
     <path d="M 0 1.581139 
C 0.419323 1.581139 0.821528 1.41454 1.118034 1.118034 
C 1.41454 0.821528 1.581139 0.419323 1.581139 -0 
C 1.581139 -0.419323 1.41454 -0.821528 1.118034 -1.118034 
C 0.821528 -1.41454 0.419323 -1.581139 0 -1.581139 
C -0.419323 -1.581139 -0.821528 -1.41454 -1.118034 -1.118034 
C -1.41454 -0.821528 -1.581139 -0.419323 -1.581139 0 
C -1.581139 0.419323 -1.41454 0.821528 -1.118034 1.118034 
C -0.821528 1.41454 -0.419323 1.581139 0 1.581139 
z
" id="C0_0_afb92172fe"/>
    </defs>
    <g clip-path="url(#p69c655736c)">
     <use style="fill:#008000;stroke:#008000;stroke-width:0.5;" x="16.232727" xlink:href="#C0_0_afb92172fe" y="125.67253"/>
    </g>
    <g clip-path="url(#p69c655736c)">
     <use style="fill:#008000;stroke:#008000;stroke-width:0.5;" x="29.929091" xlink:href="#C0_0_afb92172fe" y="119.104671"/>
    </g>
    <g clip-path="url(#p69c655736c)">
     <use style="fill:#008000;stroke:#008000;stroke-width:0.5;" x="43.118182" xlink:href="#C0_0_afb92172fe" y="137.31332"/>
    </g>
    <g clip-path="url(#p69c655736c)">
     <use style="fill:#ff0000;stroke:#ff0000;stroke-width:0.5;" x="56.814545" xlink:href="#C0_0_afb92172fe" y="127.12592"/>
    </g>
    <g clip-path="url(#p69c655736c)">
     <use style="fill:#ff0000;stroke:#ff0000;stroke-width:0.5;" x="70.510909" xlink:href="#C0_0_afb92172fe" y="122.830657"/>
    </g>
    <g clip-path="url(#p69c655736c)">
     <use style="fill:#008000;stroke:#008000;stroke-width:0.5;" x="83.7" xlink:href="#C0_0_afb92172fe" y="130.669412"/>
    </g>
    <g clip-path="url(#p69c655736c)">
     <use style="fill:#008000;stroke:#008000;stroke-width:0.5;" x="97.396364" xlink:href="#C0_0_afb92172fe" y="128.807073"/>
    </g>
    <g clip-path="url(#p69c655736c)">
     <use style="fill:#ff0000;stroke:#ff0000;stroke-width:0.5;" x="111.092727" xlink:href="#C0_0_afb92172fe" y="139.244368"/>
    </g>
    <g clip-path="url(#p69c655736c)">
     <use style="fill:#ff0000;stroke:#ff0000;stroke-width:0.5;" x="124.281818" xlink:href="#C0_0_afb92172fe" y="134.44397"/>
    </g>
    <g clip-path="url(#p69c655736c)">
     <use style="fill:#008000;stroke:#008000;stroke-width:0.5;" x="137.978182" xlink:href="#C0_0_afb92172fe" y="128.863037"/>
    </g>
    <g clip-path="url(#p69c655736c)">
     <use style="fill:#ff0000;stroke:#ff0000;stroke-width:0.5;" x="151.674545" xlink:href="#C0_0_afb92172fe" y="131.987333"/>
    </g>
    <g clip-path="url(#p69c655736c)">
     <use style="fill:#ff0000;stroke:#ff0000;stroke-width:0.5;" x="164.863636" xlink:href="#C0_0_afb92172fe" y="122.025184"/>
    </g>
    <g clip-path="url(#p69c655736c)">
     <use style="fill:#008000;stroke:#008000;stroke-width:0.5;" x="178.56" xlink:href="#C0_0_afb92172fe" y="125.193202"/>
    </g>
    <g clip-path="url(#p69c655736c)">
     <use style="fill:#ff0000;stroke:#ff0000;stroke-width:0.5;" x="192.256364" xlink:href="#C0_0_afb92172fe" y="135.784357"/>
    </g>
    <g clip-path="url(#p69c655736c)">
     <use style="fill:#008000;stroke:#008000;stroke-width:0.5;" x="205.445455" xlink:href="#C0_0_afb92172fe" y="137.503984"/>
    </g>
    <g clip-path="url(#p69c655736c)">
     <use style="fill:#008000;stroke:#008000;stroke-width:0.5;" x="219.141818" xlink:href="#C0_0_afb92172fe" y="130.085985"/>
    </g>
    <g clip-path="url(#p69c655736c)">
     <use style="fill:#008000;stroke:#008000;stroke-width:0.5;" x="232.838182" xlink:href="#C0_0_afb92172fe" y="138.532637"/>
    </g>
    <g clip-path="url(#p69c655736c)">
     <use style="fill:#ff0000;stroke:#ff0000;stroke-width:0.5;" x="246.027273" xlink:href="#C0_0_afb92172fe" y="136.303281"/>
    </g>
    <g clip-path="url(#p69c655736c)">
     <use style="fill:#ffff00;stroke:#ffff00;stroke-width:0.5;" x="259.723636" xlink:href="#C0_0_afb92172fe" y="131.83376"/>
    </g>
    <g clip-path="url(#p69c655736c)">
     <use style="fill:#ff0000;stroke:#ff0000;stroke-width:0.5;" x="273.42" xlink:href="#C0_0_afb92172fe" y="121.541351"/>
    </g>
    <g clip-path="url(#p69c655736c)">
     <use style="fill:#ff0000;stroke:#ff0000;stroke-width:0.5;" x="286.609091" xlink:href="#C0_0_afb92172fe" y="118.0543"/>
    </g>
    <g clip-path="url(#p69c655736c)">
     <use style="fill:#ff0000;stroke:#ff0000;stroke-width:0.5;" x="300.305455" xlink:href="#C0_0_afb92172fe" y="135.341623"/>
    </g>
    <g clip-path="url(#p69c655736c)">
     <use style="fill:#ff0000;stroke:#ff0000;stroke-width:0.5;" x="314.001818" xlink:href="#C0_0_afb92172fe" y="125.051495"/>
    </g>
    <g clip-path="url(#p69c655736c)">
     <use style="fill:#ff0000;stroke:#ff0000;stroke-width:0.5;" x="327.190909" xlink:href="#C0_0_afb92172fe" y="120.176071"/>
    </g>
    <g clip-path="url(#p69c655736c)">
     <use style="fill:#ff0000;stroke:#ff0000;stroke-width:0.5;" x="340.887273" xlink:href="#C0_0_afb92172fe" y="123.000452"/>
    </g>
   </g>
   <g id="line2d_1">
    <path clip-path="url(#p69c655736c)" d="M 16.232727 125.67253 
L 29.895544 119.120758 
L 31.847375 121.753023 
L 44.208971 138.643572 
L 56.570567 153.718931 
L 57.221177 153.836865 
L 70.233383 148.089461 
L 70.883993 147.477581 
L 83.245589 131.26537 
L 83.8962 130.642734 
L 96.908406 128.873423 
L 97.559016 128.987684 
L 111.221833 144.009247 
L 124.234039 143.365477 
L 126.83648 140.658541 
L 137.896856 128.949135 
L 138.547466 129.572111 
L 151.559672 145.779523 
L 152.860893 146.190173 
L 164.571878 148.831462 
L 165.222489 148.276205 
L 178.234695 125.756202 
L 178.885305 125.537721 
L 191.897511 139.318511 
L 192.548122 139.650013 
L 205.560328 137.441768 
L 219.223144 130.136139 
L 232.885961 138.552301 
L 245.898167 143.907628 
L 247.849998 144.086067 
L 259.560984 144.891141 
L 260.862204 145.732647 
L 273.2238 154.747596 
L 273.874411 154.8418 
L 286.236007 153.51212 
L 286.886617 153.145719 
L 299.898823 137.848106 
L 300.549433 137.654566 
L 313.56164 152.828446 
L 314.21225 153.388617 
L 327.224456 156.27697 
L 340.887273 155.355103 
L 340.887273 155.355103 
" style="fill:none;stroke:#61c46e;stroke-linecap:square;"/>
   </g>
   <g id="line2d_2">
    <path clip-path="url(#p69c655736c)" d="M 16.232727 145.909106 
L 29.895544 153.331888 
L 32.497985 151.318695 
L 42.90775 143.086906 
L 43.55836 142.935566 
L 56.570567 143.380894 
L 57.221177 143.696372 
L 70.233383 153.524483 
L 70.883993 153.347421 
L 83.245589 140.535442 
L 83.8962 140.110387 
L 97.559016 143.245665 
L 111.221833 141.325014 
L 124.234039 146.704802 
L 130.089532 147.60299 
L 137.896856 148.783873 
L 141.149907 148.292621 
L 151.559672 146.639935 
L 152.860893 147.250216 
L 164.571878 153.454615 
L 165.222489 153.561566 
L 180.186526 151.465897 
L 192.548122 148.88373 
L 205.560328 141.573394 
L 219.223144 139.617499 
L 232.885961 146.064912 
L 245.898167 144.285247 
L 247.199388 143.20352 
L 259.560984 131.981419 
L 260.211594 132.41326 
L 273.2238 147.8666 
L 273.874411 148.268627 
L 286.236007 152.866576 
L 286.886617 152.981327 
L 300.549433 151.718748 
L 314.21225 146.169307 
L 327.224456 148.071678 
L 340.887273 146.176082 
L 340.887273 146.176082 
" style="fill:none;stroke:#f6ed22;stroke-linecap:square;"/>
   </g>
   <g id="line2d_3">
    <path clip-path="url(#p69c655736c)" d="M 16.232727 152.949999 
L 29.895544 152.078995 
L 35.100426 149.026759 
L 42.90775 144.421932 
L 44.208971 142.930235 
L 56.570567 127.43181 
L 57.221177 126.998398 
L 70.233383 122.917691 
L 70.883993 123.706634 
L 83.245589 152.730823 
L 83.8962 153.778517 
L 96.908406 152.503001 
L 97.559016 152.298283 
L 111.221833 139.197378 
L 124.234039 134.46136 
L 126.18587 136.171759 
L 137.896856 146.79863 
L 138.547466 146.253734 
L 151.559672 132.112177 
L 154.162113 130.108392 
L 164.571878 122.245558 
L 165.222489 122.693864 
L 178.234695 146.94063 
L 178.885305 147.267427 
L 191.897511 136.09254 
L 192.548122 135.997893 
L 208.162769 147.308135 
L 218.572534 154.474779 
L 219.223144 154.777999 
L 232.885961 139.914423 
L 245.898167 136.338758 
L 246.548778 136.740862 
L 259.560984 147.659073 
L 260.211594 146.860198 
L 273.2238 121.917439 
L 273.874411 121.421209 
L 286.236007 118.152939 
L 286.886617 118.404589 
L 299.898823 134.82838 
L 300.549433 135.158321 
L 314.21225 124.973708 
L 327.224456 120.182989 
L 340.887273 123.000452 
L 340.887273 123.000452 
" style="fill:none;stroke:#f15a24;stroke-linecap:square;"/>
   </g>
  </g>
 </g>
 <defs>
  <clipPath id="p69c655736c">
   <rect height="266.112" width="357.12" x="0" y="-0"/>
  </clipPath>
 </defs>
</svg>
