<?xml version="1.0" encoding="utf-8" standalone="no"?>
<!DOCTYPE svg PUBLIC "-//W3C//DTD SVG 1.1//EN"
  "http://www.w3.org/Graphics/SVG/1.1/DTD/svg11.dtd">
<svg height="266.112pt" version="1.1" viewBox="0 0 357.12 266.112" width="357.12pt" xmlns="http://www.w3.org/2000/svg" xmlns:xlink="http://www.w3.org/1999/xlink">
 <metadata>
  <rdf:RDF xmlns:cc="http://creativecommons.org/ns#" xmlns:dc="http://purl.org/dc/elements/1.1/" xmlns:rdf="http://www.w3.org/1999/02/22-rdf-syntax-ns#">
   <cc:Work>
    <dc:type rdf:resource="http://purl.org/dc/dcmitype/StillImage"/>
    <dc:date>2022-03-05T14:43:55.153027</dc:date>
    <dc:format>image/svg+xml</dc:format>
    <dc:creator>
     <cc:Agent>
      <dc:title>Matplotlib v3.4.2, https://matplotlib.org/</dc:title>
     </cc:Agent>
    </dc:creator>
   </cc:Work>
  </rdf:RDF>
 </metadata>
 <defs>
  <style type="text/css">*{stroke-linecap:butt;stroke-linejoin:round;}</style>
 </defs>
 <g id="figure_1">
  <g id="patch_1">
   <path d="M 0 266.112 
L 357.12 266.112 
L 357.12 0 
L 0 0 
z
" style="fill:#ffffff;"/>
  </g>
  <g id="axes_1">
   <g id="PolyCollection_1">
    <path clip-path="url(#p7261dbe1fc)" d="M 16.232727 132.6092 
L 16.232727 156.479849 
L 16.883338 156.479849 
L 17.533948 156.479849 
L 18.184558 156.479849 
L 18.835169 156.479849 
L 19.485779 156.479849 
L 20.136389 156.479849 
L 20.786999 156.479849 
L 21.43761 156.479849 
L 22.08822 156.479849 
L 22.73883 156.479849 
L 23.389441 156.479849 
L 24.040051 156.479849 
L 24.690661 156.479849 
L 25.341272 156.479849 
L 25.991882 156.479849 
L 26.642492 156.479849 
L 27.293103 156.479849 
L 27.943713 156.479849 
L 28.594323 156.479849 
L 29.244934 156.479849 
L 29.895544 156.479849 
L 30.546154 156.479849 
L 31.196764 156.479849 
L 31.847375 156.479849 
L 32.497985 156.479849 
L 33.148595 156.479849 
L 33.799206 156.479849 
L 34.449816 156.479849 
L 35.100426 156.479849 
L 35.751037 156.479849 
L 36.401647 156.479849 
L 37.052257 156.479849 
L 37.702868 156.479849 
L 38.353478 156.479849 
L 39.004088 156.479849 
L 39.654698 156.479849 
L 40.305309 156.479849 
L 40.955919 156.479849 
L 41.606529 156.479849 
L 42.25714 156.479849 
L 42.90775 156.479849 
L 43.55836 156.479849 
L 44.208971 156.479849 
L 44.859581 156.479849 
L 45.510191 156.479849 
L 46.160802 156.479849 
L 46.811412 156.479849 
L 47.462022 156.479849 
L 48.112633 156.479849 
L 48.763243 156.479849 
L 49.413853 156.479849 
L 50.064463 156.479849 
L 50.715074 156.479849 
L 51.365684 156.479849 
L 52.016294 156.479849 
L 52.666905 156.479849 
L 53.317515 156.479849 
L 53.968125 156.479849 
L 54.618736 156.479849 
L 55.269346 156.479849 
L 55.919956 156.479849 
L 56.570567 156.479849 
L 57.221177 156.479849 
L 57.871787 156.479849 
L 58.522398 156.479849 
L 59.173008 156.479849 
L 59.823618 156.479849 
L 60.474228 156.479849 
L 61.124839 156.479849 
L 61.775449 156.479849 
L 62.426059 156.479849 
L 63.07667 156.479849 
L 63.72728 156.479849 
L 64.37789 156.479849 
L 65.028501 156.479849 
L 65.679111 156.479849 
L 66.329721 156.479849 
L 66.980332 156.479849 
L 67.630942 156.479849 
L 68.281552 156.479849 
L 68.932163 156.479849 
L 69.582773 156.479849 
L 70.233383 156.479849 
L 70.883993 156.479849 
L 71.534604 156.479849 
L 72.185214 156.479849 
L 72.835824 156.479849 
L 73.486435 156.479849 
L 74.137045 156.479849 
L 74.787655 156.479849 
L 75.438266 156.479849 
L 76.088876 156.479849 
L 76.739486 156.479849 
L 77.390097 156.479849 
L 78.040707 156.479849 
L 78.691317 156.479849 
L 79.341927 156.479849 
L 79.992538 156.479849 
L 80.643148 156.479849 
L 81.293758 156.479849 
L 81.944369 156.479849 
L 82.594979 156.479849 
L 83.245589 156.479849 
L 83.8962 156.479849 
L 84.54681 156.479849 
L 85.19742 156.479849 
L 85.848031 156.479849 
L 86.498641 156.479849 
L 87.149251 156.479849 
L 87.799862 156.479849 
L 88.450472 156.479849 
L 89.101082 156.479849 
L 89.751692 156.479849 
L 90.402303 156.479849 
L 91.052913 156.479849 
L 91.703523 156.479849 
L 92.354134 156.479849 
L 93.004744 156.479849 
L 93.655354 156.479849 
L 94.305965 156.479849 
L 94.956575 156.479849 
L 95.607185 156.479849 
L 96.257796 156.479849 
L 96.908406 156.479849 
L 97.559016 156.479849 
L 98.209627 156.479849 
L 98.860237 156.479849 
L 99.510847 156.479849 
L 100.161457 156.479849 
L 100.812068 156.479849 
L 101.462678 156.479849 
L 102.113288 156.479849 
L 102.763899 156.479849 
L 103.414509 156.479849 
L 104.065119 156.479849 
L 104.71573 156.479849 
L 105.36634 156.479849 
L 106.01695 156.479849 
L 106.667561 156.479849 
L 107.318171 156.479849 
L 107.968781 156.479849 
L 108.619392 156.479849 
L 109.270002 156.479849 
L 109.920612 156.479849 
L 110.571222 156.479849 
L 111.221833 156.479849 
L 111.872443 156.479849 
L 112.523053 156.479849 
L 113.173664 156.479849 
L 113.824274 156.479849 
L 114.474884 156.479849 
L 115.125495 156.479849 
L 115.776105 156.479849 
L 116.426715 156.479849 
L 117.077326 156.479849 
L 117.727936 156.479849 
L 118.378546 156.479849 
L 119.029156 156.479849 
L 119.679767 156.479849 
L 120.330377 156.479849 
L 120.980987 156.479849 
L 121.631598 156.479849 
L 122.282208 156.479849 
L 122.932818 156.479849 
L 123.583429 156.479849 
L 124.234039 156.479849 
L 124.884649 156.479849 
L 125.53526 156.479849 
L 126.18587 156.479849 
L 126.83648 156.479849 
L 127.487091 156.479849 
L 128.137701 156.479849 
L 128.788311 156.479849 
L 129.438921 156.479849 
L 130.089532 156.479849 
L 130.740142 156.479849 
L 131.390752 156.479849 
L 132.041363 156.479849 
L 132.691973 156.479849 
L 133.342583 156.479849 
L 133.993194 156.479849 
L 134.643804 156.479849 
L 135.294414 156.479849 
L 135.945025 156.479849 
L 136.595635 156.479849 
L 137.246245 156.479849 
L 137.896856 156.479849 
L 138.547466 156.479849 
L 139.198076 156.479849 
L 139.848686 156.479849 
L 140.499297 156.479849 
L 141.149907 156.479849 
L 141.800517 156.479849 
L 142.451128 156.479849 
L 143.101738 156.479849 
L 143.752348 156.479849 
L 144.402959 156.479849 
L 145.053569 156.479849 
L 145.704179 156.479849 
L 146.35479 156.479849 
L 147.0054 156.479849 
L 147.65601 156.479849 
L 148.306621 156.479849 
L 148.957231 156.479849 
L 149.607841 156.479849 
L 150.258451 156.479849 
L 150.909062 156.479849 
L 151.559672 156.479849 
L 152.210282 156.479849 
L 152.860893 156.479849 
L 153.511503 156.479849 
L 154.162113 156.479849 
L 154.812724 156.479849 
L 155.463334 156.479849 
L 156.113944 156.479849 
L 156.764555 156.479849 
L 157.415165 156.479849 
L 158.065775 156.479849 
L 158.716385 156.479849 
L 159.366996 156.479849 
L 160.017606 156.479849 
L 160.668216 156.479849 
L 161.318827 156.479849 
L 161.969437 156.479849 
L 162.620047 156.479849 
L 163.270658 156.479849 
L 163.921268 156.479849 
L 164.571878 156.479849 
L 165.222489 156.479849 
L 165.873099 156.479849 
L 166.523709 156.479849 
L 167.17432 156.479849 
L 167.82493 156.479849 
L 168.47554 156.479849 
L 169.12615 156.479849 
L 169.776761 156.479849 
L 170.427371 156.479849 
L 171.077981 156.479849 
L 171.728592 156.479849 
L 172.379202 156.479849 
L 173.029812 156.479849 
L 173.680423 156.479849 
L 174.331033 156.479849 
L 174.981643 156.479849 
L 175.632254 156.479849 
L 176.282864 156.479849 
L 176.933474 156.479849 
L 177.584085 156.479849 
L 178.234695 156.479849 
L 178.885305 156.479849 
L 179.535915 156.479849 
L 180.186526 156.479849 
L 180.837136 156.479849 
L 181.487746 156.479849 
L 182.138357 156.479849 
L 182.788967 156.479849 
L 183.439577 156.479849 
L 184.090188 156.479849 
L 184.740798 156.479849 
L 185.391408 156.479849 
L 186.042019 156.479849 
L 186.692629 156.479849 
L 187.343239 156.479849 
L 187.99385 156.479849 
L 188.64446 156.479849 
L 189.29507 156.479849 
L 189.94568 156.479849 
L 190.596291 156.479849 
L 191.246901 156.479849 
L 191.897511 156.479849 
L 192.548122 156.479849 
L 193.198732 156.479849 
L 193.849342 156.479849 
L 194.499953 156.479849 
L 195.150563 156.479849 
L 195.801173 156.479849 
L 196.451784 156.479849 
L 197.102394 156.479849 
L 197.753004 156.479849 
L 198.403615 156.479849 
L 199.054225 156.479849 
L 199.704835 156.479849 
L 200.355445 156.479849 
L 201.006056 156.479849 
L 201.656666 156.479849 
L 202.307276 156.479849 
L 202.957887 156.479849 
L 203.608497 156.479849 
L 204.259107 156.479849 
L 204.909718 156.479849 
L 205.560328 156.479849 
L 206.210938 156.479849 
L 206.861549 156.479849 
L 207.512159 156.479849 
L 208.162769 156.479849 
L 208.813379 156.479849 
L 209.46399 156.479849 
L 210.1146 156.479849 
L 210.76521 156.479849 
L 211.415821 156.479849 
L 212.066431 156.479849 
L 212.717041 156.479849 
L 213.367652 156.479849 
L 214.018262 156.479849 
L 214.668872 156.479849 
L 215.319483 156.479849 
L 215.970093 156.479849 
L 216.620703 156.479849 
L 217.271314 156.479849 
L 217.921924 156.479849 
L 218.572534 156.479849 
L 219.223144 156.479849 
L 219.873755 156.479849 
L 220.524365 156.479849 
L 221.174975 156.479849 
L 221.825586 156.479849 
L 222.476196 156.479849 
L 223.126806 156.479849 
L 223.777417 156.479849 
L 224.428027 156.479849 
L 225.078637 156.479849 
L 225.729248 156.479849 
L 226.379858 156.479849 
L 227.030468 156.479849 
L 227.681079 156.479849 
L 228.331689 156.479849 
L 228.982299 156.479849 
L 229.632909 156.479849 
L 230.28352 156.479849 
L 230.93413 156.479849 
L 231.58474 156.479849 
L 232.235351 156.479849 
L 232.885961 156.479849 
L 233.536571 156.479849 
L 234.187182 156.479849 
L 234.837792 156.479849 
L 235.488402 156.479849 
L 236.139013 156.479849 
L 236.789623 156.479849 
L 237.440233 156.479849 
L 238.090844 156.479849 
L 238.741454 156.479849 
L 239.392064 156.479849 
L 240.042674 156.479849 
L 240.693285 156.479849 
L 241.343895 156.479849 
L 241.994505 156.479849 
L 242.645116 156.479849 
L 243.295726 156.479849 
L 243.946336 156.479849 
L 244.596947 156.479849 
L 245.247557 156.479849 
L 245.898167 156.479849 
L 246.548778 156.479849 
L 247.199388 156.479849 
L 247.849998 156.479849 
L 248.500608 156.479849 
L 249.151219 156.479849 
L 249.801829 156.479849 
L 250.452439 156.479849 
L 251.10305 156.479849 
L 251.75366 156.479849 
L 252.40427 156.479849 
L 253.054881 156.479849 
L 253.705491 156.479849 
L 254.356101 156.479849 
L 255.006712 156.479849 
L 255.657322 156.479849 
L 256.307932 156.479849 
L 256.958543 156.479849 
L 257.609153 156.479849 
L 258.259763 156.479849 
L 258.910373 156.479849 
L 259.560984 156.479849 
L 260.211594 156.479849 
L 260.862204 156.479849 
L 261.512815 156.479849 
L 262.163425 156.479849 
L 262.814035 156.479849 
L 263.464646 156.479849 
L 264.115256 156.479849 
L 264.765866 156.479849 
L 265.416477 156.479849 
L 266.067087 156.479849 
L 266.717697 156.479849 
L 267.368308 156.479849 
L 268.018918 156.479849 
L 268.669528 156.479849 
L 269.320138 156.479849 
L 269.970749 156.479849 
L 270.621359 156.479849 
L 271.271969 156.479849 
L 271.92258 156.479849 
L 272.57319 156.479849 
L 273.2238 156.479849 
L 273.874411 156.479849 
L 274.525021 156.479849 
L 275.175631 156.479849 
L 275.826242 156.479849 
L 276.476852 156.479849 
L 277.127462 156.479849 
L 277.778073 156.479849 
L 278.428683 156.479849 
L 279.079293 156.479849 
L 279.729903 156.479849 
L 280.380514 156.479849 
L 281.031124 156.479849 
L 281.681734 156.479849 
L 282.332345 156.479849 
L 282.982955 156.479849 
L 283.633565 156.479849 
L 284.284176 156.479849 
L 284.934786 156.479849 
L 285.585396 156.479849 
L 286.236007 156.479849 
L 286.886617 156.479849 
L 287.537227 156.479849 
L 288.187837 156.479849 
L 288.838448 156.479849 
L 289.489058 156.479849 
L 290.139668 156.479849 
L 290.790279 156.479849 
L 291.440889 156.479849 
L 292.091499 156.479849 
L 292.74211 156.479849 
L 293.39272 156.479849 
L 294.04333 156.479849 
L 294.693941 156.479849 
L 295.344551 156.479849 
L 295.995161 156.479849 
L 296.645772 156.479849 
L 297.296382 156.479849 
L 297.946992 156.479849 
L 298.597602 156.479849 
L 299.248213 156.479849 
L 299.898823 156.479849 
L 300.549433 156.479849 
L 301.200044 156.479849 
L 301.850654 156.479849 
L 302.501264 156.479849 
L 303.151875 156.479849 
L 303.802485 156.479849 
L 304.453095 156.479849 
L 305.103706 156.479849 
L 305.754316 156.479849 
L 306.404926 156.479849 
L 307.055537 156.479849 
L 307.706147 156.479849 
L 308.356757 156.479849 
L 309.007367 156.479849 
L 309.657978 156.479849 
L 310.308588 156.479849 
L 310.959198 156.479849 
L 311.609809 156.479849 
L 312.260419 156.479849 
L 312.911029 156.479849 
L 313.56164 156.479849 
L 314.21225 156.479849 
L 314.86286 156.479849 
L 315.513471 156.479849 
L 316.164081 156.479849 
L 316.814691 156.479849 
L 317.465302 156.479849 
L 318.115912 156.479849 
L 318.766522 156.479849 
L 319.417132 156.479849 
L 320.067743 156.479849 
L 320.718353 156.479849 
L 321.368963 156.479849 
L 322.019574 156.479849 
L 322.670184 156.479849 
L 323.320794 156.479849 
L 323.971405 156.479849 
L 324.622015 156.479849 
L 325.272625 156.479849 
L 325.923236 156.479849 
L 326.573846 156.479849 
L 327.224456 156.479849 
L 327.875066 156.479849 
L 328.525677 156.479849 
L 329.176287 156.479849 
L 329.826897 156.479849 
L 330.477508 156.479849 
L 331.128118 156.479849 
L 331.778728 156.479849 
L 332.429339 156.479849 
L 333.079949 156.479849 
L 333.730559 156.479849 
L 334.38117 156.479849 
L 335.03178 156.479849 
L 335.68239 156.479849 
L 336.333001 156.479849 
L 336.983611 156.479849 
L 337.634221 156.479849 
L 338.284831 156.479849 
L 338.935442 156.479849 
L 339.586052 156.479849 
L 340.236662 156.479849 
L 340.887273 156.479849 
L 340.887273 145.023223 
L 340.887273 145.023223 
L 340.236662 145.031282 
L 339.586052 145.03934 
L 338.935442 145.047399 
L 338.284831 145.055458 
L 337.634221 145.063516 
L 336.983611 145.071575 
L 336.333001 145.079634 
L 335.68239 145.087692 
L 335.03178 145.095751 
L 334.38117 145.103809 
L 333.730559 145.111868 
L 333.079949 145.119927 
L 332.429339 145.127985 
L 331.778728 145.136044 
L 331.128118 145.144102 
L 330.477508 145.152161 
L 329.826897 145.16022 
L 329.176287 145.168278 
L 328.525677 145.176337 
L 327.875066 145.284841 
L 327.224456 145.472768 
L 326.573846 145.660695 
L 325.923236 145.848622 
L 325.272625 146.036549 
L 324.622015 146.224475 
L 323.971405 146.412402 
L 323.320794 146.600329 
L 322.670184 146.788256 
L 322.019574 146.976183 
L 321.368963 147.16411 
L 320.718353 147.352036 
L 320.067743 147.539963 
L 319.417132 147.72789 
L 318.766522 147.915817 
L 318.115912 148.103744 
L 317.465302 148.29167 
L 316.814691 148.479597 
L 316.164081 148.667524 
L 315.513471 148.819108 
L 314.86286 148.696104 
L 314.21225 148.5731 
L 313.56164 148.450096 
L 312.911029 148.327092 
L 312.260419 148.204088 
L 311.609809 148.081084 
L 310.959198 147.958079 
L 310.308588 147.835075 
L 309.657978 147.712071 
L 309.007367 147.589067 
L 308.356757 147.466063 
L 307.706147 147.343059 
L 307.055537 147.220054 
L 306.404926 147.09705 
L 305.754316 146.974046 
L 305.103706 146.851042 
L 304.453095 146.728038 
L 303.802485 146.605034 
L 303.151875 146.426338 
L 302.501264 146.162478 
L 301.850654 145.898619 
L 301.200044 145.634759 
L 300.549433 145.3709 
L 299.898823 145.10704 
L 299.248213 144.843181 
L 298.597602 144.579321 
L 297.946992 144.315462 
L 297.296382 144.051602 
L 296.645772 143.787743 
L 295.995161 143.523883 
L 295.344551 143.260023 
L 294.693941 142.996164 
L 294.04333 142.732304 
L 293.39272 142.468445 
L 292.74211 142.204585 
L 292.091499 141.940726 
L 291.440889 141.676866 
L 290.790279 141.413007 
L 290.139668 141.658832 
L 289.489058 141.929332 
L 288.838448 142.199832 
L 288.187837 142.470332 
L 287.537227 142.740832 
L 286.886617 143.011332 
L 286.236007 143.281832 
L 285.585396 143.552332 
L 284.934786 143.822832 
L 284.284176 144.093332 
L 283.633565 144.363832 
L 282.982955 144.634332 
L 282.332345 144.904832 
L 281.681734 145.175332 
L 281.031124 145.445832 
L 280.380514 145.716332 
L 279.729903 145.986832 
L 279.079293 146.257332 
L 278.428683 146.527832 
L 277.778073 146.598535 
L 277.127462 146.47901 
L 276.476852 146.359484 
L 275.826242 146.239959 
L 275.175631 146.120433 
L 274.525021 146.000908 
L 273.874411 145.881383 
L 273.2238 145.761857 
L 272.57319 145.642332 
L 271.92258 145.522807 
L 271.271969 145.403281 
L 270.621359 145.283756 
L 269.970749 145.16423 
L 269.320138 145.044705 
L 268.669528 144.92518 
L 268.018918 144.805654 
L 267.368308 144.686129 
L 266.717697 144.566604 
L 266.067087 144.447078 
L 265.416477 144.358092 
L 264.765866 144.277187 
L 264.115256 144.196281 
L 263.464646 144.115376 
L 262.814035 144.034471 
L 262.163425 143.953565 
L 261.512815 143.87266 
L 260.862204 143.791755 
L 260.211594 143.710849 
L 259.560984 143.629944 
L 258.910373 143.549038 
L 258.259763 143.468133 
L 257.609153 143.387228 
L 256.958543 143.306322 
L 256.307932 143.225417 
L 255.657322 143.144511 
L 255.006712 143.063606 
L 254.356101 142.982701 
L 253.705491 142.901795 
L 253.054881 142.820699 
L 252.40427 142.739247 
L 251.75366 142.657795 
L 251.10305 142.576343 
L 250.452439 142.494891 
L 249.801829 142.413439 
L 249.151219 142.331987 
L 248.500608 142.250535 
L 247.849998 142.169083 
L 247.199388 142.087631 
L 246.548778 142.006179 
L 245.898167 141.924727 
L 245.247557 141.843275 
L 244.596947 141.761823 
L 243.946336 141.680371 
L 243.295726 141.598919 
L 242.645116 141.517467 
L 241.994505 141.436015 
L 241.343895 141.354563 
L 240.693285 141.27311 
L 240.042674 141.055154 
L 239.392064 140.823309 
L 238.741454 140.591464 
L 238.090844 140.359619 
L 237.440233 140.127773 
L 236.789623 139.895928 
L 236.139013 139.664083 
L 235.488402 139.432237 
L 234.837792 139.200392 
L 234.187182 138.968547 
L 233.536571 138.736702 
L 232.885961 138.504856 
L 232.235351 138.273011 
L 231.58474 138.041166 
L 230.93413 137.80932 
L 230.28352 137.577475 
L 229.632909 137.34563 
L 228.982299 137.113785 
L 228.331689 136.881939 
L 227.681079 137.094067 
L 227.030468 137.81477 
L 226.379858 138.535473 
L 225.729248 139.256176 
L 225.078637 139.976879 
L 224.428027 140.697582 
L 223.777417 141.418285 
L 223.126806 142.138987 
L 222.476196 142.85969 
L 221.825586 143.580393 
L 221.174975 144.301096 
L 220.524365 145.021799 
L 219.873755 145.742502 
L 219.223144 146.463204 
L 218.572534 147.183907 
L 217.921924 147.90461 
L 217.271314 148.625313 
L 216.620703 149.346016 
L 215.970093 150.066719 
L 215.319483 150.352069 
L 214.668872 150.488084 
L 214.018262 150.624099 
L 213.367652 150.760114 
L 212.717041 150.896128 
L 212.066431 151.032143 
L 211.415821 151.168158 
L 210.76521 151.304173 
L 210.1146 151.440187 
L 209.46399 151.576202 
L 208.813379 151.712217 
L 208.162769 151.848232 
L 207.512159 151.984246 
L 206.861549 152.120261 
L 206.210938 152.256276 
L 205.560328 152.392291 
L 204.909718 152.528305 
L 204.259107 152.66432 
L 203.608497 152.800335 
L 202.957887 152.78311 
L 202.307276 152.413432 
L 201.656666 152.043755 
L 201.006056 151.674077 
L 200.355445 151.3044 
L 199.704835 150.934722 
L 199.054225 150.565045 
L 198.403615 150.195367 
L 197.753004 149.82569 
L 197.102394 149.456013 
L 196.451784 149.086335 
L 195.801173 148.716658 
L 195.150563 148.34698 
L 194.499953 147.977303 
L 193.849342 147.607625 
L 193.198732 147.237948 
L 192.548122 146.86827 
L 191.897511 146.498593 
L 191.246901 146.128915 
L 190.596291 145.759238 
L 189.94568 145.87846 
L 189.29507 146.076298 
L 188.64446 146.274137 
L 187.99385 146.471976 
L 187.343239 146.669814 
L 186.692629 146.867653 
L 186.042019 147.065492 
L 185.391408 147.26333 
L 184.740798 147.461169 
L 184.090188 147.659008 
L 183.439577 147.856846 
L 182.788967 148.054685 
L 182.138357 148.252523 
L 181.487746 148.450362 
L 180.837136 148.648201 
L 180.186526 148.846039 
L 179.535915 149.043878 
L 178.885305 149.241717 
L 178.234695 149.418479 
L 177.584085 149.465738 
L 176.933474 149.512998 
L 176.282864 149.560258 
L 175.632254 149.607518 
L 174.981643 149.654777 
L 174.331033 149.702037 
L 173.680423 149.749297 
L 173.029812 149.796557 
L 172.379202 149.843817 
L 171.728592 149.891076 
L 171.077981 149.938336 
L 170.427371 149.985596 
L 169.776761 150.032856 
L 169.12615 150.080115 
L 168.47554 150.127375 
L 167.82493 150.174635 
L 167.17432 150.221895 
L 166.523709 150.269154 
L 165.873099 150.316414 
L 165.222489 149.966687 
L 164.571878 149.445534 
L 163.921268 148.92438 
L 163.270658 148.403227 
L 162.620047 147.882074 
L 161.969437 147.36092 
L 161.318827 146.839767 
L 160.668216 146.318613 
L 160.017606 145.79746 
L 159.366996 145.276307 
L 158.716385 144.755153 
L 158.065775 144.234 
L 157.415165 143.712847 
L 156.764555 143.191693 
L 156.113944 142.67054 
L 155.463334 142.149387 
L 154.812724 141.628233 
L 154.162113 141.10708 
L 153.511503 140.585926 
L 152.860893 140.316548 
L 152.210282 140.775619 
L 151.559672 141.23469 
L 150.909062 141.693761 
L 150.258451 142.152832 
L 149.607841 142.611903 
L 148.957231 143.070974 
L 148.306621 143.530045 
L 147.65601 143.989115 
L 147.0054 144.448186 
L 146.35479 144.907257 
L 145.704179 145.366328 
L 145.053569 145.825399 
L 144.402959 146.28447 
L 143.752348 146.743541 
L 143.101738 147.202612 
L 142.451128 147.661683 
L 141.800517 148.120754 
L 141.149907 148.579825 
L 140.499297 148.798959 
L 139.848686 148.809845 
L 139.198076 148.820732 
L 138.547466 148.831618 
L 137.896856 148.842505 
L 137.246245 148.853392 
L 136.595635 148.864278 
L 135.945025 148.875165 
L 135.294414 148.886051 
L 134.643804 148.896938 
L 133.993194 148.907824 
L 133.342583 148.918711 
L 132.691973 148.929597 
L 132.041363 148.940484 
L 131.390752 148.951371 
L 130.740142 148.962257 
L 130.089532 148.973144 
L 129.438921 148.98403 
L 128.788311 148.994917 
L 128.137701 148.997469 
L 127.487091 148.919499 
L 126.83648 148.841528 
L 126.18587 148.763558 
L 125.53526 148.685588 
L 124.884649 148.607617 
L 124.234039 148.529647 
L 123.583429 148.451677 
L 122.932818 148.373706 
L 122.282208 148.295736 
L 121.631598 148.217765 
L 120.980987 148.139795 
L 120.330377 148.061825 
L 119.679767 147.983854 
L 119.029156 147.905884 
L 118.378546 147.827914 
L 117.727936 147.749943 
L 117.077326 147.671973 
L 116.426715 147.594003 
L 115.776105 147.516032 
L 115.125495 147.00831 
L 114.474884 146.271451 
L 113.824274 145.534592 
L 113.173664 144.797733 
L 112.523053 144.060874 
L 111.872443 143.324015 
L 111.221833 142.587156 
L 110.571222 141.850297 
L 109.920612 141.113438 
L 109.270002 140.376579 
L 108.619392 139.63972 
L 107.968781 138.902862 
L 107.318171 138.166003 
L 106.667561 137.429144 
L 106.01695 136.692285 
L 105.36634 135.955426 
L 104.71573 135.218567 
L 104.065119 134.481708 
L 103.414509 133.744849 
L 102.763899 134.447305 
L 102.113288 135.256872 
L 101.462678 136.06644 
L 100.812068 136.876007 
L 100.161457 137.685575 
L 99.510847 138.495143 
L 98.860237 139.30471 
L 98.209627 140.114278 
L 97.559016 140.923845 
L 96.908406 141.733413 
L 96.257796 142.542981 
L 95.607185 143.352548 
L 94.956575 144.162116 
L 94.305965 144.971683 
L 93.655354 145.781251 
L 93.004744 146.590818 
L 92.354134 147.400386 
L 91.703523 148.209954 
L 91.052913 149.019521 
L 90.402303 149.573141 
L 89.751692 149.859489 
L 89.101082 150.145837 
L 88.450472 150.432186 
L 87.799862 150.718534 
L 87.149251 151.004882 
L 86.498641 151.29123 
L 85.848031 151.577578 
L 85.19742 151.863926 
L 84.54681 152.150274 
L 83.8962 152.436622 
L 83.245589 152.72297 
L 82.594979 153.009318 
L 81.944369 153.295666 
L 81.293758 153.582014 
L 80.643148 153.868362 
L 79.992538 154.15471 
L 79.341927 154.441058 
L 78.691317 154.727406 
L 78.040707 155.002435 
L 77.390097 155.051076 
L 76.739486 155.099716 
L 76.088876 155.148357 
L 75.438266 155.196998 
L 74.787655 155.245639 
L 74.137045 155.29428 
L 73.486435 155.342921 
L 72.835824 155.391562 
L 72.185214 155.440203 
L 71.534604 155.488844 
L 70.883993 155.537484 
L 70.233383 155.586125 
L 69.582773 155.634766 
L 68.932163 155.683407 
L 68.281552 155.732048 
L 67.630942 155.780689 
L 66.980332 155.82933 
L 66.329721 155.877971 
L 65.679111 155.926611 
L 65.028501 155.916847 
L 64.37789 155.86912 
L 63.72728 155.821392 
L 63.07667 155.773665 
L 62.426059 155.725938 
L 61.775449 155.67821 
L 61.124839 155.630483 
L 60.474228 155.582755 
L 59.823618 155.535028 
L 59.173008 155.487301 
L 58.522398 155.439573 
L 57.871787 155.391846 
L 57.221177 155.344118 
L 56.570567 155.296391 
L 55.919956 155.248664 
L 55.269346 155.200936 
L 54.618736 155.153209 
L 53.968125 155.105481 
L 53.317515 155.057754 
L 52.666905 154.492919 
L 52.016294 153.860599 
L 51.365684 153.228279 
L 50.715074 152.595959 
L 50.064463 151.96364 
L 49.413853 151.33132 
L 48.763243 150.699 
L 48.112633 150.06668 
L 47.462022 149.43436 
L 46.811412 148.80204 
L 46.160802 148.16972 
L 45.510191 147.5374 
L 44.859581 146.90508 
L 44.208971 146.272761 
L 43.55836 145.640441 
L 42.90775 145.008121 
L 42.25714 144.375801 
L 41.606529 143.743481 
L 40.955919 143.111161 
L 40.305309 142.803611 
L 39.654698 142.904403 
L 39.004088 143.005194 
L 38.353478 143.105986 
L 37.702868 143.206778 
L 37.052257 143.30757 
L 36.401647 143.408362 
L 35.751037 143.509153 
L 35.100426 143.609945 
L 34.449816 143.710737 
L 33.799206 143.811529 
L 33.148595 143.912321 
L 32.497985 144.013113 
L 31.847375 144.113904 
L 31.196764 144.214696 
L 30.546154 144.315488 
L 29.895544 144.41628 
L 29.244934 144.517072 
L 28.594323 144.617863 
L 27.943713 144.717539 
L 27.293103 144.044854 
L 26.642492 143.372168 
L 25.991882 142.699483 
L 25.341272 142.026797 
L 24.690661 141.354112 
L 24.040051 140.681426 
L 23.389441 140.008741 
L 22.73883 139.336055 
L 22.08822 138.66337 
L 21.43761 137.990684 
L 20.786999 137.317999 
L 20.136389 136.645313 
L 19.485779 135.972628 
L 18.835169 135.299942 
L 18.184558 134.627257 
L 17.533948 133.954571 
L 16.883338 133.281886 
L 16.232727 132.6092 
z
" style="fill:#61c46e;fill-opacity:0.3;"/>
   </g>
   <g id="PolyCollection_2">
    <path clip-path="url(#p7261dbe1fc)" d="M 16.232727 149.983162 
L 16.232727 156.479849 
L 16.883338 156.479849 
L 17.533948 156.479849 
L 18.184558 156.479849 
L 18.835169 156.479849 
L 19.485779 156.479849 
L 20.136389 156.479849 
L 20.786999 156.479849 
L 21.43761 156.479849 
L 22.08822 156.479849 
L 22.73883 156.479849 
L 23.389441 156.479849 
L 24.040051 156.479849 
L 24.690661 156.479849 
L 25.341272 156.479849 
L 25.991882 156.479849 
L 26.642492 156.479849 
L 27.293103 156.479849 
L 27.943713 156.479849 
L 28.594323 156.479849 
L 29.244934 156.479849 
L 29.895544 156.479849 
L 30.546154 156.479849 
L 31.196764 156.479849 
L 31.847375 156.479849 
L 32.497985 156.479849 
L 33.148595 156.479849 
L 33.799206 156.479849 
L 34.449816 156.479849 
L 35.100426 156.479849 
L 35.751037 156.479849 
L 36.401647 156.479849 
L 37.052257 156.479849 
L 37.702868 156.479849 
L 38.353478 156.479849 
L 39.004088 156.479849 
L 39.654698 156.479849 
L 40.305309 156.479849 
L 40.955919 156.479849 
L 41.606529 156.479849 
L 42.25714 156.479849 
L 42.90775 156.479849 
L 43.55836 156.479849 
L 44.208971 156.479849 
L 44.859581 156.479849 
L 45.510191 156.479849 
L 46.160802 156.479849 
L 46.811412 156.479849 
L 47.462022 156.479849 
L 48.112633 156.479849 
L 48.763243 156.479849 
L 49.413853 156.479849 
L 50.064463 156.479849 
L 50.715074 156.479849 
L 51.365684 156.479849 
L 52.016294 156.479849 
L 52.666905 156.479849 
L 53.317515 156.479849 
L 53.968125 156.479849 
L 54.618736 156.479849 
L 55.269346 156.479849 
L 55.919956 156.479849 
L 56.570567 156.479849 
L 57.221177 156.479849 
L 57.871787 156.479849 
L 58.522398 156.479849 
L 59.173008 156.479849 
L 59.823618 156.479849 
L 60.474228 156.479849 
L 61.124839 156.479849 
L 61.775449 156.479849 
L 62.426059 156.479849 
L 63.07667 156.479849 
L 63.72728 156.479849 
L 64.37789 156.479849 
L 65.028501 156.479849 
L 65.679111 156.479849 
L 66.329721 156.479849 
L 66.980332 156.479849 
L 67.630942 156.479849 
L 68.281552 156.479849 
L 68.932163 156.479849 
L 69.582773 156.479849 
L 70.233383 156.479849 
L 70.883993 156.479849 
L 71.534604 156.479849 
L 72.185214 156.479849 
L 72.835824 156.479849 
L 73.486435 156.479849 
L 74.137045 156.479849 
L 74.787655 156.479849 
L 75.438266 156.479849 
L 76.088876 156.479849 
L 76.739486 156.479849 
L 77.390097 156.479849 
L 78.040707 156.479849 
L 78.691317 156.479849 
L 79.341927 156.479849 
L 79.992538 156.479849 
L 80.643148 156.479849 
L 81.293758 156.479849 
L 81.944369 156.479849 
L 82.594979 156.479849 
L 83.245589 156.479849 
L 83.8962 156.479849 
L 84.54681 156.479849 
L 85.19742 156.479849 
L 85.848031 156.479849 
L 86.498641 156.479849 
L 87.149251 156.479849 
L 87.799862 156.479849 
L 88.450472 156.479849 
L 89.101082 156.479849 
L 89.751692 156.479849 
L 90.402303 156.479849 
L 91.052913 156.479849 
L 91.703523 156.479849 
L 92.354134 156.479849 
L 93.004744 156.479849 
L 93.655354 156.479849 
L 94.305965 156.479849 
L 94.956575 156.479849 
L 95.607185 156.479849 
L 96.257796 156.479849 
L 96.908406 156.479849 
L 97.559016 156.479849 
L 98.209627 156.479849 
L 98.860237 156.479849 
L 99.510847 156.479849 
L 100.161457 156.479849 
L 100.812068 156.479849 
L 101.462678 156.479849 
L 102.113288 156.479849 
L 102.763899 156.479849 
L 103.414509 156.479849 
L 104.065119 156.479849 
L 104.71573 156.479849 
L 105.36634 156.479849 
L 106.01695 156.479849 
L 106.667561 156.479849 
L 107.318171 156.479849 
L 107.968781 156.479849 
L 108.619392 156.479849 
L 109.270002 156.479849 
L 109.920612 156.479849 
L 110.571222 156.479849 
L 111.221833 156.479849 
L 111.872443 156.479849 
L 112.523053 156.479849 
L 113.173664 156.479849 
L 113.824274 156.479849 
L 114.474884 156.479849 
L 115.125495 156.479849 
L 115.776105 156.479849 
L 116.426715 156.479849 
L 117.077326 156.479849 
L 117.727936 156.479849 
L 118.378546 156.479849 
L 119.029156 156.479849 
L 119.679767 156.479849 
L 120.330377 156.479849 
L 120.980987 156.479849 
L 121.631598 156.479849 
L 122.282208 156.479849 
L 122.932818 156.479849 
L 123.583429 156.479849 
L 124.234039 156.479849 
L 124.884649 156.479849 
L 125.53526 156.479849 
L 126.18587 156.479849 
L 126.83648 156.479849 
L 127.487091 156.479849 
L 128.137701 156.479849 
L 128.788311 156.479849 
L 129.438921 156.479849 
L 130.089532 156.479849 
L 130.740142 156.479849 
L 131.390752 156.479849 
L 132.041363 156.479849 
L 132.691973 156.479849 
L 133.342583 156.479849 
L 133.993194 156.479849 
L 134.643804 156.479849 
L 135.294414 156.479849 
L 135.945025 156.479849 
L 136.595635 156.479849 
L 137.246245 156.479849 
L 137.896856 156.479849 
L 138.547466 156.479849 
L 139.198076 156.479849 
L 139.848686 156.479849 
L 140.499297 156.479849 
L 141.149907 156.479849 
L 141.800517 156.479849 
L 142.451128 156.479849 
L 143.101738 156.479849 
L 143.752348 156.479849 
L 144.402959 156.479849 
L 145.053569 156.479849 
L 145.704179 156.479849 
L 146.35479 156.479849 
L 147.0054 156.479849 
L 147.65601 156.479849 
L 148.306621 156.479849 
L 148.957231 156.479849 
L 149.607841 156.479849 
L 150.258451 156.479849 
L 150.909062 156.479849 
L 151.559672 156.479849 
L 152.210282 156.479849 
L 152.860893 156.479849 
L 153.511503 156.479849 
L 154.162113 156.479849 
L 154.812724 156.479849 
L 155.463334 156.479849 
L 156.113944 156.479849 
L 156.764555 156.479849 
L 157.415165 156.479849 
L 158.065775 156.479849 
L 158.716385 156.479849 
L 159.366996 156.479849 
L 160.017606 156.479849 
L 160.668216 156.479849 
L 161.318827 156.479849 
L 161.969437 156.479849 
L 162.620047 156.479849 
L 163.270658 156.479849 
L 163.921268 156.479849 
L 164.571878 156.479849 
L 165.222489 156.479849 
L 165.873099 156.479849 
L 166.523709 156.479849 
L 167.17432 156.479849 
L 167.82493 156.479849 
L 168.47554 156.479849 
L 169.12615 156.479849 
L 169.776761 156.479849 
L 170.427371 156.479849 
L 171.077981 156.479849 
L 171.728592 156.479849 
L 172.379202 156.479849 
L 173.029812 156.479849 
L 173.680423 156.479849 
L 174.331033 156.479849 
L 174.981643 156.479849 
L 175.632254 156.479849 
L 176.282864 156.479849 
L 176.933474 156.479849 
L 177.584085 156.479849 
L 178.234695 156.479849 
L 178.885305 156.479849 
L 179.535915 156.479849 
L 180.186526 156.479849 
L 180.837136 156.479849 
L 181.487746 156.479849 
L 182.138357 156.479849 
L 182.788967 156.479849 
L 183.439577 156.479849 
L 184.090188 156.479849 
L 184.740798 156.479849 
L 185.391408 156.479849 
L 186.042019 156.479849 
L 186.692629 156.479849 
L 187.343239 156.479849 
L 187.99385 156.479849 
L 188.64446 156.479849 
L 189.29507 156.479849 
L 189.94568 156.479849 
L 190.596291 156.479849 
L 191.246901 156.479849 
L 191.897511 156.479849 
L 192.548122 156.479849 
L 193.198732 156.479849 
L 193.849342 156.479849 
L 194.499953 156.479849 
L 195.150563 156.479849 
L 195.801173 156.479849 
L 196.451784 156.479849 
L 197.102394 156.479849 
L 197.753004 156.479849 
L 198.403615 156.479849 
L 199.054225 156.479849 
L 199.704835 156.479849 
L 200.355445 156.479849 
L 201.006056 156.479849 
L 201.656666 156.479849 
L 202.307276 156.479849 
L 202.957887 156.479849 
L 203.608497 156.479849 
L 204.259107 156.479849 
L 204.909718 156.479849 
L 205.560328 156.479849 
L 206.210938 156.479849 
L 206.861549 156.479849 
L 207.512159 156.479849 
L 208.162769 156.479849 
L 208.813379 156.479849 
L 209.46399 156.479849 
L 210.1146 156.479849 
L 210.76521 156.479849 
L 211.415821 156.479849 
L 212.066431 156.479849 
L 212.717041 156.479849 
L 213.367652 156.479849 
L 214.018262 156.479849 
L 214.668872 156.479849 
L 215.319483 156.479849 
L 215.970093 156.479849 
L 216.620703 156.479849 
L 217.271314 156.479849 
L 217.921924 156.479849 
L 218.572534 156.479849 
L 219.223144 156.479849 
L 219.873755 156.479849 
L 220.524365 156.479849 
L 221.174975 156.479849 
L 221.825586 156.479849 
L 222.476196 156.479849 
L 223.126806 156.479849 
L 223.777417 156.479849 
L 224.428027 156.479849 
L 225.078637 156.479849 
L 225.729248 156.479849 
L 226.379858 156.479849 
L 227.030468 156.479849 
L 227.681079 156.479849 
L 228.331689 156.479849 
L 228.982299 156.479849 
L 229.632909 156.479849 
L 230.28352 156.479849 
L 230.93413 156.479849 
L 231.58474 156.479849 
L 232.235351 156.479849 
L 232.885961 156.479849 
L 233.536571 156.479849 
L 234.187182 156.479849 
L 234.837792 156.479849 
L 235.488402 156.479849 
L 236.139013 156.479849 
L 236.789623 156.479849 
L 237.440233 156.479849 
L 238.090844 156.479849 
L 238.741454 156.479849 
L 239.392064 156.479849 
L 240.042674 156.479849 
L 240.693285 156.479849 
L 241.343895 156.479849 
L 241.994505 156.479849 
L 242.645116 156.479849 
L 243.295726 156.479849 
L 243.946336 156.479849 
L 244.596947 156.479849 
L 245.247557 156.479849 
L 245.898167 156.479849 
L 246.548778 156.479849 
L 247.199388 156.479849 
L 247.849998 156.479849 
L 248.500608 156.479849 
L 249.151219 156.479849 
L 249.801829 156.479849 
L 250.452439 156.479849 
L 251.10305 156.479849 
L 251.75366 156.479849 
L 252.40427 156.479849 
L 253.054881 156.479849 
L 253.705491 156.479849 
L 254.356101 156.479849 
L 255.006712 156.479849 
L 255.657322 156.479849 
L 256.307932 156.479849 
L 256.958543 156.479849 
L 257.609153 156.479849 
L 258.259763 156.479849 
L 258.910373 156.479849 
L 259.560984 156.479849 
L 260.211594 156.479849 
L 260.862204 156.479849 
L 261.512815 156.479849 
L 262.163425 156.479849 
L 262.814035 156.479849 
L 263.464646 156.479849 
L 264.115256 156.479849 
L 264.765866 156.479849 
L 265.416477 156.479849 
L 266.067087 156.479849 
L 266.717697 156.479849 
L 267.368308 156.479849 
L 268.018918 156.479849 
L 268.669528 156.479849 
L 269.320138 156.479849 
L 269.970749 156.479849 
L 270.621359 156.479849 
L 271.271969 156.479849 
L 271.92258 156.479849 
L 272.57319 156.479849 
L 273.2238 156.479849 
L 273.874411 156.479849 
L 274.525021 156.479849 
L 275.175631 156.479849 
L 275.826242 156.479849 
L 276.476852 156.479849 
L 277.127462 156.479849 
L 277.778073 156.479849 
L 278.428683 156.479849 
L 279.079293 156.479849 
L 279.729903 156.479849 
L 280.380514 156.479849 
L 281.031124 156.479849 
L 281.681734 156.479849 
L 282.332345 156.479849 
L 282.982955 156.479849 
L 283.633565 156.479849 
L 284.284176 156.479849 
L 284.934786 156.479849 
L 285.585396 156.479849 
L 286.236007 156.479849 
L 286.886617 156.479849 
L 287.537227 156.479849 
L 288.187837 156.479849 
L 288.838448 156.479849 
L 289.489058 156.479849 
L 290.139668 156.479849 
L 290.790279 156.479849 
L 291.440889 156.479849 
L 292.091499 156.479849 
L 292.74211 156.479849 
L 293.39272 156.479849 
L 294.04333 156.479849 
L 294.693941 156.479849 
L 295.344551 156.479849 
L 295.995161 156.479849 
L 296.645772 156.479849 
L 297.296382 156.479849 
L 297.946992 156.479849 
L 298.597602 156.479849 
L 299.248213 156.479849 
L 299.898823 156.479849 
L 300.549433 156.479849 
L 301.200044 156.479849 
L 301.850654 156.479849 
L 302.501264 156.479849 
L 303.151875 156.479849 
L 303.802485 156.479849 
L 304.453095 156.479849 
L 305.103706 156.479849 
L 305.754316 156.479849 
L 306.404926 156.479849 
L 307.055537 156.479849 
L 307.706147 156.479849 
L 308.356757 156.479849 
L 309.007367 156.479849 
L 309.657978 156.479849 
L 310.308588 156.479849 
L 310.959198 156.479849 
L 311.609809 156.479849 
L 312.260419 156.479849 
L 312.911029 156.479849 
L 313.56164 156.479849 
L 314.21225 156.479849 
L 314.86286 156.479849 
L 315.513471 156.479849 
L 316.164081 156.479849 
L 316.814691 156.479849 
L 317.465302 156.479849 
L 318.115912 156.479849 
L 318.766522 156.479849 
L 319.417132 156.479849 
L 320.067743 156.479849 
L 320.718353 156.479849 
L 321.368963 156.479849 
L 322.019574 156.479849 
L 322.670184 156.479849 
L 323.320794 156.479849 
L 323.971405 156.479849 
L 324.622015 156.479849 
L 325.272625 156.479849 
L 325.923236 156.479849 
L 326.573846 156.479849 
L 327.224456 156.479849 
L 327.875066 156.479849 
L 328.525677 156.479849 
L 329.176287 156.479849 
L 329.826897 156.479849 
L 330.477508 156.479849 
L 331.128118 156.479849 
L 331.778728 156.479849 
L 332.429339 156.479849 
L 333.079949 156.479849 
L 333.730559 156.479849 
L 334.38117 156.479849 
L 335.03178 156.479849 
L 335.68239 156.479849 
L 336.333001 156.479849 
L 336.983611 156.479849 
L 337.634221 156.479849 
L 338.284831 156.479849 
L 338.935442 156.479849 
L 339.586052 156.479849 
L 340.236662 156.479849 
L 340.887273 156.479849 
L 340.887273 154.474787 
L 340.887273 154.474787 
L 340.236662 154.125307 
L 339.586052 153.775828 
L 338.935442 153.426348 
L 338.284831 153.076869 
L 337.634221 152.727389 
L 336.983611 152.37791 
L 336.333001 152.028431 
L 335.68239 151.678951 
L 335.03178 151.329472 
L 334.38117 150.979992 
L 333.730559 150.630513 
L 333.079949 150.281034 
L 332.429339 149.931554 
L 331.778728 149.582075 
L 331.128118 149.232595 
L 330.477508 148.883116 
L 329.826897 148.533636 
L 329.176287 148.184157 
L 328.525677 147.834678 
L 327.875066 147.720032 
L 327.224456 147.791068 
L 326.573846 147.862105 
L 325.923236 147.933142 
L 325.272625 148.004179 
L 324.622015 148.075215 
L 323.971405 148.146252 
L 323.320794 148.217289 
L 322.670184 148.288325 
L 322.019574 148.359362 
L 321.368963 148.430399 
L 320.718353 148.501435 
L 320.067743 148.572472 
L 319.417132 148.643509 
L 318.766522 148.714545 
L 318.115912 148.785582 
L 317.465302 148.856619 
L 316.814691 148.927655 
L 316.164081 148.998692 
L 315.513471 149.08406 
L 314.86286 149.277706 
L 314.21225 149.471352 
L 313.56164 149.664998 
L 312.911029 149.858644 
L 312.260419 150.05229 
L 311.609809 150.245936 
L 310.959198 150.439582 
L 310.308588 150.633228 
L 309.657978 150.826874 
L 309.007367 151.02052 
L 308.356757 151.214166 
L 307.706147 151.407812 
L 307.055537 151.601459 
L 306.404926 151.795105 
L 305.754316 151.988751 
L 305.103706 152.182397 
L 304.453095 152.376043 
L 303.802485 152.569689 
L 303.151875 152.620872 
L 302.501264 152.454203 
L 301.850654 152.287533 
L 301.200044 152.120863 
L 300.549433 151.954193 
L 299.898823 151.787523 
L 299.248213 151.620853 
L 298.597602 151.454184 
L 297.946992 151.287514 
L 297.296382 151.120844 
L 296.645772 150.954174 
L 295.995161 150.787504 
L 295.344551 150.620834 
L 294.693941 150.454165 
L 294.04333 150.287495 
L 293.39272 150.120825 
L 292.74211 149.954155 
L 292.091499 149.787485 
L 291.440889 149.620816 
L 290.790279 149.454146 
L 290.139668 149.463551 
L 289.489058 149.481481 
L 288.838448 149.499411 
L 288.187837 149.517341 
L 287.537227 149.53527 
L 286.886617 149.5532 
L 286.236007 149.57113 
L 285.585396 149.589059 
L 284.934786 149.606989 
L 284.284176 149.624919 
L 283.633565 149.642849 
L 282.982955 149.660778 
L 282.332345 149.678708 
L 281.681734 149.696638 
L 281.031124 149.714568 
L 280.380514 149.732497 
L 279.729903 149.750427 
L 279.079293 149.768357 
L 278.428683 149.786286 
L 277.778073 149.777345 
L 277.127462 149.74282 
L 276.476852 149.708296 
L 275.826242 149.673771 
L 275.175631 149.639246 
L 274.525021 149.604721 
L 273.874411 149.570196 
L 273.2238 149.535671 
L 272.57319 149.501146 
L 271.92258 149.466621 
L 271.271969 149.432096 
L 270.621359 149.397571 
L 269.970749 149.363046 
L 269.320138 149.328521 
L 268.669528 149.293996 
L 268.018918 149.259471 
L 267.368308 149.224946 
L 266.717697 149.190421 
L 266.067087 149.155896 
L 265.416477 149.15175 
L 264.765866 149.155643 
L 264.115256 149.159535 
L 263.464646 149.163428 
L 262.814035 149.16732 
L 262.163425 149.171212 
L 261.512815 149.175105 
L 260.862204 149.178997 
L 260.211594 149.18289 
L 259.560984 149.186782 
L 258.910373 149.190674 
L 258.259763 149.194567 
L 257.609153 149.198459 
L 256.958543 149.202352 
L 256.307932 149.206244 
L 255.657322 149.210136 
L 255.006712 149.214029 
L 254.356101 149.217921 
L 253.705491 149.221814 
L 253.054881 149.122176 
L 252.40427 148.829594 
L 251.75366 148.537013 
L 251.10305 148.244431 
L 250.452439 147.95185 
L 249.801829 147.659268 
L 249.151219 147.366687 
L 248.500608 147.074105 
L 247.849998 146.781524 
L 247.199388 146.488942 
L 246.548778 146.196361 
L 245.898167 145.903779 
L 245.247557 145.611198 
L 244.596947 145.318616 
L 243.946336 145.026035 
L 243.295726 144.733454 
L 242.645116 144.440872 
L 241.994505 144.148291 
L 241.343895 143.855709 
L 240.693285 143.563128 
L 240.042674 143.930096 
L 239.392064 144.364172 
L 238.741454 144.798249 
L 238.090844 145.232326 
L 237.440233 145.666402 
L 236.789623 146.100479 
L 236.139013 146.534556 
L 235.488402 146.968632 
L 234.837792 147.402709 
L 234.187182 147.836786 
L 233.536571 148.270862 
L 232.885961 148.704939 
L 232.235351 149.139016 
L 231.58474 149.573092 
L 230.93413 150.007169 
L 230.28352 150.441246 
L 229.632909 150.875322 
L 228.982299 151.309399 
L 228.331689 151.743476 
L 227.681079 151.880396 
L 227.030468 151.676921 
L 226.379858 151.473446 
L 225.729248 151.269971 
L 225.078637 151.066496 
L 224.428027 150.863021 
L 223.777417 150.659546 
L 223.126806 150.456071 
L 222.476196 150.252596 
L 221.825586 150.049121 
L 221.174975 149.845646 
L 220.524365 149.642171 
L 219.873755 149.438695 
L 219.223144 149.23522 
L 218.572534 149.031745 
L 217.921924 148.82827 
L 217.271314 148.624795 
L 216.620703 148.42132 
L 215.970093 148.217845 
L 215.319483 148.130885 
L 214.668872 148.083893 
L 214.018262 148.0369 
L 213.367652 147.989908 
L 212.717041 147.942915 
L 212.066431 147.895922 
L 211.415821 147.84893 
L 210.76521 147.801937 
L 210.1146 147.754945 
L 209.46399 147.707952 
L 208.813379 147.66096 
L 208.162769 147.613967 
L 207.512159 147.566975 
L 206.861549 147.519982 
L 206.210938 147.472989 
L 205.560328 147.425997 
L 204.909718 147.379004 
L 204.259107 147.332012 
L 203.608497 147.285019 
L 202.957887 147.346691 
L 202.307276 147.65829 
L 201.656666 147.96989 
L 201.006056 148.281489 
L 200.355445 148.593089 
L 199.704835 148.904688 
L 199.054225 149.216288 
L 198.403615 149.527887 
L 197.753004 149.839487 
L 197.102394 150.151086 
L 196.451784 150.462686 
L 195.801173 150.774285 
L 195.150563 151.085885 
L 194.499953 151.397484 
L 193.849342 151.709084 
L 193.198732 152.020683 
L 192.548122 152.332283 
L 191.897511 152.643882 
L 191.246901 152.955482 
L 190.596291 153.267081 
L 189.94568 153.365624 
L 189.29507 153.429907 
L 188.64446 153.49419 
L 187.99385 153.558473 
L 187.343239 153.622756 
L 186.692629 153.687039 
L 186.042019 153.751322 
L 185.391408 153.815605 
L 184.740798 153.879888 
L 184.090188 153.944171 
L 183.439577 154.008454 
L 182.788967 154.072737 
L 182.138357 154.13702 
L 181.487746 154.201303 
L 180.837136 154.265586 
L 180.186526 154.329869 
L 179.535915 154.394151 
L 178.885305 154.458434 
L 178.234695 154.508986 
L 177.584085 154.475165 
L 176.933474 154.441344 
L 176.282864 154.407523 
L 175.632254 154.373702 
L 174.981643 154.339881 
L 174.331033 154.30606 
L 173.680423 154.272239 
L 173.029812 154.238418 
L 172.379202 154.204597 
L 171.728592 154.170776 
L 171.077981 154.136955 
L 170.427371 154.103134 
L 169.776761 154.069313 
L 169.12615 154.035493 
L 168.47554 154.001672 
L 167.82493 153.967851 
L 167.17432 153.93403 
L 166.523709 153.900209 
L 165.873099 153.866388 
L 165.222489 153.497566 
L 164.571878 152.984083 
L 163.921268 152.470601 
L 163.270658 151.957119 
L 162.620047 151.443636 
L 161.969437 150.930154 
L 161.318827 150.416672 
L 160.668216 149.90319 
L 160.017606 149.389707 
L 159.366996 148.876225 
L 158.716385 148.362743 
L 158.065775 147.84926 
L 157.415165 147.335778 
L 156.764555 146.822296 
L 156.113944 146.308813 
L 155.463334 145.795331 
L 154.812724 145.281849 
L 154.162113 144.768367 
L 153.511503 144.254884 
L 152.860893 143.997626 
L 152.210282 144.481691 
L 151.559672 144.965757 
L 150.909062 145.449822 
L 150.258451 145.933887 
L 149.607841 146.417952 
L 148.957231 146.902017 
L 148.306621 147.386082 
L 147.65601 147.870148 
L 147.0054 148.354213 
L 146.35479 148.838278 
L 145.704179 149.322343 
L 145.053569 149.806408 
L 144.402959 150.290473 
L 143.752348 150.774539 
L 143.101738 151.258604 
L 142.451128 151.742669 
L 141.800517 152.226734 
L 141.149907 152.710799 
L 140.499297 152.837088 
L 139.848686 152.652853 
L 139.198076 152.468618 
L 138.547466 152.284384 
L 137.896856 152.100149 
L 137.246245 151.915915 
L 136.595635 151.73168 
L 135.945025 151.547446 
L 135.294414 151.363211 
L 134.643804 151.178976 
L 133.993194 150.994742 
L 133.342583 150.810507 
L 132.691973 150.626273 
L 132.041363 150.442038 
L 131.390752 150.257803 
L 130.740142 150.073569 
L 130.089532 149.889334 
L 129.438921 149.7051 
L 128.788311 149.520865 
L 128.137701 149.347194 
L 127.487091 149.27558 
L 126.83648 149.203967 
L 126.18587 149.132354 
L 125.53526 149.060741 
L 124.884649 148.989127 
L 124.234039 148.917514 
L 123.583429 148.845901 
L 122.932818 148.774287 
L 122.282208 148.702674 
L 121.631598 148.631061 
L 120.980987 148.559447 
L 120.330377 148.487834 
L 119.679767 148.416221 
L 119.029156 148.344608 
L 118.378546 148.272994 
L 117.727936 148.201381 
L 117.077326 148.129768 
L 116.426715 148.058154 
L 115.776105 147.986541 
L 115.125495 147.933655 
L 114.474884 147.890755 
L 113.824274 147.847854 
L 113.173664 147.804954 
L 112.523053 147.762053 
L 111.872443 147.719153 
L 111.221833 147.676253 
L 110.571222 147.633352 
L 109.920612 147.590452 
L 109.270002 147.547551 
L 108.619392 147.504651 
L 107.968781 147.46175 
L 107.318171 147.41885 
L 106.667561 147.375949 
L 106.01695 147.333049 
L 105.36634 147.290148 
L 104.71573 147.247248 
L 104.065119 147.204348 
L 103.414509 147.161447 
L 102.763899 147.463101 
L 102.113288 147.790396 
L 101.462678 148.11769 
L 100.812068 148.444985 
L 100.161457 148.77228 
L 99.510847 149.099575 
L 98.860237 149.426869 
L 98.209627 149.754164 
L 97.559016 150.081459 
L 96.908406 150.408754 
L 96.257796 150.736048 
L 95.607185 151.063343 
L 94.956575 151.390638 
L 94.305965 151.717932 
L 93.655354 152.045227 
L 93.004744 152.372522 
L 92.354134 152.699817 
L 91.703523 153.027111 
L 91.052913 153.354406 
L 90.402303 153.260891 
L 89.751692 152.727944 
L 89.101082 152.194998 
L 88.450472 151.662052 
L 87.799862 151.129105 
L 87.149251 150.596159 
L 86.498641 150.063213 
L 85.848031 149.530266 
L 85.19742 148.99732 
L 84.54681 148.464374 
L 83.8962 147.931427 
L 83.245589 147.398481 
L 82.594979 146.865535 
L 81.944369 146.332588 
L 81.293758 145.799642 
L 80.643148 145.266696 
L 79.992538 144.733749 
L 79.341927 144.200803 
L 78.691317 143.667857 
L 78.040707 143.168977 
L 77.390097 143.351432 
L 76.739486 143.533886 
L 76.088876 143.71634 
L 75.438266 143.898795 
L 74.787655 144.081249 
L 74.137045 144.263703 
L 73.486435 144.446158 
L 72.835824 144.628612 
L 72.185214 144.811066 
L 71.534604 144.993521 
L 70.883993 145.175975 
L 70.233383 145.358429 
L 69.582773 145.540884 
L 68.932163 145.723338 
L 68.281552 145.905792 
L 67.630942 146.088247 
L 66.980332 146.270701 
L 66.329721 146.453155 
L 65.679111 146.63561 
L 65.028501 146.487324 
L 64.37789 146.124058 
L 63.72728 145.760791 
L 63.07667 145.397525 
L 62.426059 145.034259 
L 61.775449 144.670993 
L 61.124839 144.307726 
L 60.474228 143.94446 
L 59.823618 143.581194 
L 59.173008 143.217927 
L 58.522398 142.854661 
L 57.871787 142.491395 
L 57.221177 142.128129 
L 56.570567 141.764862 
L 55.919956 141.401596 
L 55.269346 141.03833 
L 54.618736 140.675063 
L 53.968125 140.311797 
L 53.317515 139.948531 
L 52.666905 139.879297 
L 52.016294 139.848437 
L 51.365684 139.817576 
L 50.715074 139.786716 
L 50.064463 139.755855 
L 49.413853 139.724995 
L 48.763243 139.694134 
L 48.112633 139.663274 
L 47.462022 139.632413 
L 46.811412 139.601553 
L 46.160802 139.570692 
L 45.510191 139.539832 
L 44.859581 139.508971 
L 44.208971 139.478111 
L 43.55836 139.44725 
L 42.90775 139.41639 
L 42.25714 139.385529 
L 41.606529 139.354669 
L 40.955919 139.323808 
L 40.305309 139.057499 
L 39.654698 138.495153 
L 39.004088 137.932807 
L 38.353478 137.370461 
L 37.702868 136.808116 
L 37.052257 136.24577 
L 36.401647 135.683424 
L 35.751037 135.121078 
L 35.100426 134.558732 
L 34.449816 133.996386 
L 33.799206 133.434041 
L 33.148595 132.871695 
L 32.497985 132.309349 
L 31.847375 131.747003 
L 31.196764 131.184657 
L 30.546154 130.622311 
L 29.895544 130.059965 
L 29.244934 129.49762 
L 28.594323 128.935274 
L 27.943713 128.375472 
L 27.293103 129.575899 
L 26.642492 130.776326 
L 25.991882 131.976753 
L 25.341272 133.177181 
L 24.690661 134.377608 
L 24.040051 135.578035 
L 23.389441 136.778462 
L 22.73883 137.978889 
L 22.08822 139.179317 
L 21.43761 140.379744 
L 20.786999 141.580171 
L 20.136389 142.780598 
L 19.485779 143.981026 
L 18.835169 145.181453 
L 18.184558 146.38188 
L 17.533948 147.582307 
L 16.883338 148.782735 
L 16.232727 149.983162 
z
" style="fill:#f6ed22;fill-opacity:0.3;"/>
   </g>
   <g id="PolyCollection_3">
    <path clip-path="url(#p7261dbe1fc)" d="M 16.232727 139.999487 
L 16.232727 156.479849 
L 16.883338 156.479849 
L 17.533948 156.479849 
L 18.184558 156.479849 
L 18.835169 156.479849 
L 19.485779 156.479849 
L 20.136389 156.479849 
L 20.786999 156.479849 
L 21.43761 156.479849 
L 22.08822 156.479849 
L 22.73883 156.479849 
L 23.389441 156.479849 
L 24.040051 156.479849 
L 24.690661 156.479849 
L 25.341272 156.479849 
L 25.991882 156.479849 
L 26.642492 156.479849 
L 27.293103 156.479849 
L 27.943713 156.479849 
L 28.594323 156.479849 
L 29.244934 156.479849 
L 29.895544 156.479849 
L 30.546154 156.479849 
L 31.196764 156.479849 
L 31.847375 156.479849 
L 32.497985 156.479849 
L 33.148595 156.479849 
L 33.799206 156.479849 
L 34.449816 156.479849 
L 35.100426 156.479849 
L 35.751037 156.479849 
L 36.401647 156.479849 
L 37.052257 156.479849 
L 37.702868 156.479849 
L 38.353478 156.479849 
L 39.004088 156.479849 
L 39.654698 156.479849 
L 40.305309 156.479849 
L 40.955919 156.479849 
L 41.606529 156.479849 
L 42.25714 156.479849 
L 42.90775 156.479849 
L 43.55836 156.479849 
L 44.208971 156.479849 
L 44.859581 156.479849 
L 45.510191 156.479849 
L 46.160802 156.479849 
L 46.811412 156.479849 
L 47.462022 156.479849 
L 48.112633 156.479849 
L 48.763243 156.479849 
L 49.413853 156.479849 
L 50.064463 156.479849 
L 50.715074 156.479849 
L 51.365684 156.479849 
L 52.016294 156.479849 
L 52.666905 156.479849 
L 53.317515 156.479849 
L 53.968125 156.479849 
L 54.618736 156.479849 
L 55.269346 156.479849 
L 55.919956 156.479849 
L 56.570567 156.479849 
L 57.221177 156.479849 
L 57.871787 156.479849 
L 58.522398 156.479849 
L 59.173008 156.479849 
L 59.823618 156.479849 
L 60.474228 156.479849 
L 61.124839 156.479849 
L 61.775449 156.479849 
L 62.426059 156.479849 
L 63.07667 156.479849 
L 63.72728 156.479849 
L 64.37789 156.479849 
L 65.028501 156.479849 
L 65.679111 156.479849 
L 66.329721 156.479849 
L 66.980332 156.479849 
L 67.630942 156.479849 
L 68.281552 156.479849 
L 68.932163 156.479849 
L 69.582773 156.479849 
L 70.233383 156.479849 
L 70.883993 156.479849 
L 71.534604 156.479849 
L 72.185214 156.479849 
L 72.835824 156.479849 
L 73.486435 156.479849 
L 74.137045 156.479849 
L 74.787655 156.479849 
L 75.438266 156.479849 
L 76.088876 156.479849 
L 76.739486 156.479849 
L 77.390097 156.479849 
L 78.040707 156.479849 
L 78.691317 156.479849 
L 79.341927 156.479849 
L 79.992538 156.479849 
L 80.643148 156.479849 
L 81.293758 156.479849 
L 81.944369 156.479849 
L 82.594979 156.479849 
L 83.245589 156.479849 
L 83.8962 156.479849 
L 84.54681 156.479849 
L 85.19742 156.479849 
L 85.848031 156.479849 
L 86.498641 156.479849 
L 87.149251 156.479849 
L 87.799862 156.479849 
L 88.450472 156.479849 
L 89.101082 156.479849 
L 89.751692 156.479849 
L 90.402303 156.479849 
L 91.052913 156.479849 
L 91.703523 156.479849 
L 92.354134 156.479849 
L 93.004744 156.479849 
L 93.655354 156.479849 
L 94.305965 156.479849 
L 94.956575 156.479849 
L 95.607185 156.479849 
L 96.257796 156.479849 
L 96.908406 156.479849 
L 97.559016 156.479849 
L 98.209627 156.479849 
L 98.860237 156.479849 
L 99.510847 156.479849 
L 100.161457 156.479849 
L 100.812068 156.479849 
L 101.462678 156.479849 
L 102.113288 156.479849 
L 102.763899 156.479849 
L 103.414509 156.479849 
L 104.065119 156.479849 
L 104.71573 156.479849 
L 105.36634 156.479849 
L 106.01695 156.479849 
L 106.667561 156.479849 
L 107.318171 156.479849 
L 107.968781 156.479849 
L 108.619392 156.479849 
L 109.270002 156.479849 
L 109.920612 156.479849 
L 110.571222 156.479849 
L 111.221833 156.479849 
L 111.872443 156.479849 
L 112.523053 156.479849 
L 113.173664 156.479849 
L 113.824274 156.479849 
L 114.474884 156.479849 
L 115.125495 156.479849 
L 115.776105 156.479849 
L 116.426715 156.479849 
L 117.077326 156.479849 
L 117.727936 156.479849 
L 118.378546 156.479849 
L 119.029156 156.479849 
L 119.679767 156.479849 
L 120.330377 156.479849 
L 120.980987 156.479849 
L 121.631598 156.479849 
L 122.282208 156.479849 
L 122.932818 156.479849 
L 123.583429 156.479849 
L 124.234039 156.479849 
L 124.884649 156.479849 
L 125.53526 156.479849 
L 126.18587 156.479849 
L 126.83648 156.479849 
L 127.487091 156.479849 
L 128.137701 156.479849 
L 128.788311 156.479849 
L 129.438921 156.479849 
L 130.089532 156.479849 
L 130.740142 156.479849 
L 131.390752 156.479849 
L 132.041363 156.479849 
L 132.691973 156.479849 
L 133.342583 156.479849 
L 133.993194 156.479849 
L 134.643804 156.479849 
L 135.294414 156.479849 
L 135.945025 156.479849 
L 136.595635 156.479849 
L 137.246245 156.479849 
L 137.896856 156.479849 
L 138.547466 156.479849 
L 139.198076 156.479849 
L 139.848686 156.479849 
L 140.499297 156.479849 
L 141.149907 156.479849 
L 141.800517 156.479849 
L 142.451128 156.479849 
L 143.101738 156.479849 
L 143.752348 156.479849 
L 144.402959 156.479849 
L 145.053569 156.479849 
L 145.704179 156.479849 
L 146.35479 156.479849 
L 147.0054 156.479849 
L 147.65601 156.479849 
L 148.306621 156.479849 
L 148.957231 156.479849 
L 149.607841 156.479849 
L 150.258451 156.479849 
L 150.909062 156.479849 
L 151.559672 156.479849 
L 152.210282 156.479849 
L 152.860893 156.479849 
L 153.511503 156.479849 
L 154.162113 156.479849 
L 154.812724 156.479849 
L 155.463334 156.479849 
L 156.113944 156.479849 
L 156.764555 156.479849 
L 157.415165 156.479849 
L 158.065775 156.479849 
L 158.716385 156.479849 
L 159.366996 156.479849 
L 160.017606 156.479849 
L 160.668216 156.479849 
L 161.318827 156.479849 
L 161.969437 156.479849 
L 162.620047 156.479849 
L 163.270658 156.479849 
L 163.921268 156.479849 
L 164.571878 156.479849 
L 165.222489 156.479849 
L 165.873099 156.479849 
L 166.523709 156.479849 
L 167.17432 156.479849 
L 167.82493 156.479849 
L 168.47554 156.479849 
L 169.12615 156.479849 
L 169.776761 156.479849 
L 170.427371 156.479849 
L 171.077981 156.479849 
L 171.728592 156.479849 
L 172.379202 156.479849 
L 173.029812 156.479849 
L 173.680423 156.479849 
L 174.331033 156.479849 
L 174.981643 156.479849 
L 175.632254 156.479849 
L 176.282864 156.479849 
L 176.933474 156.479849 
L 177.584085 156.479849 
L 178.234695 156.479849 
L 178.885305 156.479849 
L 179.535915 156.479849 
L 180.186526 156.479849 
L 180.837136 156.479849 
L 181.487746 156.479849 
L 182.138357 156.479849 
L 182.788967 156.479849 
L 183.439577 156.479849 
L 184.090188 156.479849 
L 184.740798 156.479849 
L 185.391408 156.479849 
L 186.042019 156.479849 
L 186.692629 156.479849 
L 187.343239 156.479849 
L 187.99385 156.479849 
L 188.64446 156.479849 
L 189.29507 156.479849 
L 189.94568 156.479849 
L 190.596291 156.479849 
L 191.246901 156.479849 
L 191.897511 156.479849 
L 192.548122 156.479849 
L 193.198732 156.479849 
L 193.849342 156.479849 
L 194.499953 156.479849 
L 195.150563 156.479849 
L 195.801173 156.479849 
L 196.451784 156.479849 
L 197.102394 156.479849 
L 197.753004 156.479849 
L 198.403615 156.479849 
L 199.054225 156.479849 
L 199.704835 156.479849 
L 200.355445 156.479849 
L 201.006056 156.479849 
L 201.656666 156.479849 
L 202.307276 156.479849 
L 202.957887 156.479849 
L 203.608497 156.479849 
L 204.259107 156.479849 
L 204.909718 156.479849 
L 205.560328 156.479849 
L 206.210938 156.479849 
L 206.861549 156.479849 
L 207.512159 156.479849 
L 208.162769 156.479849 
L 208.813379 156.479849 
L 209.46399 156.479849 
L 210.1146 156.479849 
L 210.76521 156.479849 
L 211.415821 156.479849 
L 212.066431 156.479849 
L 212.717041 156.479849 
L 213.367652 156.479849 
L 214.018262 156.479849 
L 214.668872 156.479849 
L 215.319483 156.479849 
L 215.970093 156.479849 
L 216.620703 156.479849 
L 217.271314 156.479849 
L 217.921924 156.479849 
L 218.572534 156.479849 
L 219.223144 156.479849 
L 219.873755 156.479849 
L 220.524365 156.479849 
L 221.174975 156.479849 
L 221.825586 156.479849 
L 222.476196 156.479849 
L 223.126806 156.479849 
L 223.777417 156.479849 
L 224.428027 156.479849 
L 225.078637 156.479849 
L 225.729248 156.479849 
L 226.379858 156.479849 
L 227.030468 156.479849 
L 227.681079 156.479849 
L 228.331689 156.479849 
L 228.982299 156.479849 
L 229.632909 156.479849 
L 230.28352 156.479849 
L 230.93413 156.479849 
L 231.58474 156.479849 
L 232.235351 156.479849 
L 232.885961 156.479849 
L 233.536571 156.479849 
L 234.187182 156.479849 
L 234.837792 156.479849 
L 235.488402 156.479849 
L 236.139013 156.479849 
L 236.789623 156.479849 
L 237.440233 156.479849 
L 238.090844 156.479849 
L 238.741454 156.479849 
L 239.392064 156.479849 
L 240.042674 156.479849 
L 240.693285 156.479849 
L 241.343895 156.479849 
L 241.994505 156.479849 
L 242.645116 156.479849 
L 243.295726 156.479849 
L 243.946336 156.479849 
L 244.596947 156.479849 
L 245.247557 156.479849 
L 245.898167 156.479849 
L 246.548778 156.479849 
L 247.199388 156.479849 
L 247.849998 156.479849 
L 248.500608 156.479849 
L 249.151219 156.479849 
L 249.801829 156.479849 
L 250.452439 156.479849 
L 251.10305 156.479849 
L 251.75366 156.479849 
L 252.40427 156.479849 
L 253.054881 156.479849 
L 253.705491 156.479849 
L 254.356101 156.479849 
L 255.006712 156.479849 
L 255.657322 156.479849 
L 256.307932 156.479849 
L 256.958543 156.479849 
L 257.609153 156.479849 
L 258.259763 156.479849 
L 258.910373 156.479849 
L 259.560984 156.479849 
L 260.211594 156.479849 
L 260.862204 156.479849 
L 261.512815 156.479849 
L 262.163425 156.479849 
L 262.814035 156.479849 
L 263.464646 156.479849 
L 264.115256 156.479849 
L 264.765866 156.479849 
L 265.416477 156.479849 
L 266.067087 156.479849 
L 266.717697 156.479849 
L 267.368308 156.479849 
L 268.018918 156.479849 
L 268.669528 156.479849 
L 269.320138 156.479849 
L 269.970749 156.479849 
L 270.621359 156.479849 
L 271.271969 156.479849 
L 271.92258 156.479849 
L 272.57319 156.479849 
L 273.2238 156.479849 
L 273.874411 156.479849 
L 274.525021 156.479849 
L 275.175631 156.479849 
L 275.826242 156.479849 
L 276.476852 156.479849 
L 277.127462 156.479849 
L 277.778073 156.479849 
L 278.428683 156.479849 
L 279.079293 156.479849 
L 279.729903 156.479849 
L 280.380514 156.479849 
L 281.031124 156.479849 
L 281.681734 156.479849 
L 282.332345 156.479849 
L 282.982955 156.479849 
L 283.633565 156.479849 
L 284.284176 156.479849 
L 284.934786 156.479849 
L 285.585396 156.479849 
L 286.236007 156.479849 
L 286.886617 156.479849 
L 287.537227 156.479849 
L 288.187837 156.479849 
L 288.838448 156.479849 
L 289.489058 156.479849 
L 290.139668 156.479849 
L 290.790279 156.479849 
L 291.440889 156.479849 
L 292.091499 156.479849 
L 292.74211 156.479849 
L 293.39272 156.479849 
L 294.04333 156.479849 
L 294.693941 156.479849 
L 295.344551 156.479849 
L 295.995161 156.479849 
L 296.645772 156.479849 
L 297.296382 156.479849 
L 297.946992 156.479849 
L 298.597602 156.479849 
L 299.248213 156.479849 
L 299.898823 156.479849 
L 300.549433 156.479849 
L 301.200044 156.479849 
L 301.850654 156.479849 
L 302.501264 156.479849 
L 303.151875 156.479849 
L 303.802485 156.479849 
L 304.453095 156.479849 
L 305.103706 156.479849 
L 305.754316 156.479849 
L 306.404926 156.479849 
L 307.055537 156.479849 
L 307.706147 156.479849 
L 308.356757 156.479849 
L 309.007367 156.479849 
L 309.657978 156.479849 
L 310.308588 156.479849 
L 310.959198 156.479849 
L 311.609809 156.479849 
L 312.260419 156.479849 
L 312.911029 156.479849 
L 313.56164 156.479849 
L 314.21225 156.479849 
L 314.86286 156.479849 
L 315.513471 156.479849 
L 316.164081 156.479849 
L 316.814691 156.479849 
L 317.465302 156.479849 
L 318.115912 156.479849 
L 318.766522 156.479849 
L 319.417132 156.479849 
L 320.067743 156.479849 
L 320.718353 156.479849 
L 321.368963 156.479849 
L 322.019574 156.479849 
L 322.670184 156.479849 
L 323.320794 156.479849 
L 323.971405 156.479849 
L 324.622015 156.479849 
L 325.272625 156.479849 
L 325.923236 156.479849 
L 326.573846 156.479849 
L 327.224456 156.479849 
L 327.875066 156.479849 
L 328.525677 156.479849 
L 329.176287 156.479849 
L 329.826897 156.479849 
L 330.477508 156.479849 
L 331.128118 156.479849 
L 331.778728 156.479849 
L 332.429339 156.479849 
L 333.079949 156.479849 
L 333.730559 156.479849 
L 334.38117 156.479849 
L 335.03178 156.479849 
L 335.68239 156.479849 
L 336.333001 156.479849 
L 336.983611 156.479849 
L 337.634221 156.479849 
L 338.284831 156.479849 
L 338.935442 156.479849 
L 339.586052 156.479849 
L 340.236662 156.479849 
L 340.887273 156.479849 
L 340.887273 123.093837 
L 340.887273 123.093837 
L 340.236662 123.435258 
L 339.586052 123.776679 
L 338.935442 124.1181 
L 338.284831 124.459521 
L 337.634221 124.800942 
L 336.983611 125.142363 
L 336.333001 125.483784 
L 335.68239 125.825205 
L 335.03178 126.166626 
L 334.38117 126.508047 
L 333.730559 126.849468 
L 333.079949 127.190889 
L 332.429339 127.53231 
L 331.778728 127.873731 
L 331.128118 128.215152 
L 330.477508 128.556573 
L 329.826897 128.897994 
L 329.176287 129.239415 
L 328.525677 129.580836 
L 327.875066 129.586977 
L 327.224456 129.328014 
L 326.573846 129.06905 
L 325.923236 128.810087 
L 325.272625 128.551123 
L 324.622015 128.29216 
L 323.971405 128.033196 
L 323.320794 127.774233 
L 322.670184 127.515269 
L 322.019574 127.256306 
L 321.368963 126.997342 
L 320.718353 126.738379 
L 320.067743 126.479415 
L 319.417132 126.220452 
L 318.766522 125.961488 
L 318.115912 125.702525 
L 317.465302 125.443561 
L 316.814691 125.184598 
L 316.164081 124.925634 
L 315.513471 124.688682 
L 314.86286 124.61804 
L 314.21225 124.547398 
L 313.56164 124.476756 
L 312.911029 124.406114 
L 312.260419 124.335471 
L 311.609809 124.264829 
L 310.959198 124.194187 
L 310.308588 124.123545 
L 309.657978 124.052903 
L 309.007367 123.98226 
L 308.356757 123.911618 
L 307.706147 123.840976 
L 307.055537 123.770334 
L 306.404926 123.699692 
L 305.754316 123.629049 
L 305.103706 123.558407 
L 304.453095 123.487765 
L 303.802485 123.417123 
L 303.151875 123.544635 
L 302.501264 123.975165 
L 301.850654 124.405695 
L 301.200044 124.836224 
L 300.549433 125.266754 
L 299.898823 125.697284 
L 299.248213 126.127814 
L 298.597602 126.558343 
L 297.946992 126.988873 
L 297.296382 127.419403 
L 296.645772 127.849932 
L 295.995161 128.280462 
L 295.344551 128.710992 
L 294.693941 129.141522 
L 294.04333 129.572051 
L 293.39272 130.002581 
L 292.74211 130.433111 
L 292.091499 130.863641 
L 291.440889 131.29417 
L 290.790279 131.7247 
L 290.139668 131.469469 
L 289.489058 131.181039 
L 288.838448 130.892609 
L 288.187837 130.604179 
L 287.537227 130.31575 
L 286.886617 130.02732 
L 286.236007 129.73889 
L 285.585396 129.45046 
L 284.934786 129.16203 
L 284.284176 128.873601 
L 283.633565 128.585171 
L 282.982955 128.296741 
L 282.332345 128.008311 
L 281.681734 127.719881 
L 281.031124 127.431452 
L 280.380514 127.143022 
L 279.729903 126.854592 
L 279.079293 126.566162 
L 278.428683 126.277732 
L 277.778073 126.21597 
L 277.127462 126.37002 
L 276.476852 126.52407 
L 275.826242 126.678121 
L 275.175631 126.832171 
L 274.525021 126.986221 
L 273.874411 127.140271 
L 273.2238 127.294322 
L 272.57319 127.448372 
L 271.92258 127.602422 
L 271.271969 127.756472 
L 270.621359 127.910523 
L 269.970749 128.064573 
L 269.320138 128.218623 
L 268.669528 128.372673 
L 268.018918 128.526724 
L 267.368308 128.680774 
L 266.717697 128.834824 
L 266.067087 128.988875 
L 265.416477 129.082006 
L 264.765866 129.159019 
L 264.115256 129.236032 
L 263.464646 129.313045 
L 262.814035 129.390058 
L 262.163425 129.467071 
L 261.512815 129.544083 
L 260.862204 129.621096 
L 260.211594 129.698109 
L 259.560984 129.775122 
L 258.910373 129.852135 
L 258.259763 129.929148 
L 257.609153 130.006161 
L 256.958543 130.083174 
L 256.307932 130.160186 
L 255.657322 130.237199 
L 255.006712 130.314212 
L 254.356101 130.391225 
L 253.705491 130.468238 
L 253.054881 130.648972 
L 252.40427 131.023006 
L 251.75366 131.39704 
L 251.10305 131.771073 
L 250.452439 132.145107 
L 249.801829 132.519141 
L 249.151219 132.893174 
L 248.500608 133.267208 
L 247.849998 133.641242 
L 247.199388 134.015275 
L 246.548778 134.389309 
L 245.898167 134.763343 
L 245.247557 135.137376 
L 244.596947 135.51141 
L 243.946336 135.885444 
L 243.295726 136.259477 
L 242.645116 136.633511 
L 241.994505 137.007545 
L 241.343895 137.381578 
L 240.693285 137.755612 
L 240.042674 137.6066 
L 239.392064 137.404368 
L 238.741454 137.202137 
L 238.090844 136.999905 
L 237.440233 136.797674 
L 236.789623 136.595442 
L 236.139013 136.393211 
L 235.488402 136.190979 
L 234.837792 135.988748 
L 234.187182 135.786516 
L 233.536571 135.584284 
L 232.885961 135.382053 
L 232.235351 135.179821 
L 231.58474 134.97759 
L 230.93413 134.775358 
L 230.28352 134.573127 
L 229.632909 134.370895 
L 228.982299 134.168664 
L 228.331689 133.966432 
L 227.681079 133.617384 
L 227.030468 133.100156 
L 226.379858 132.582928 
L 225.729248 132.0657 
L 225.078637 131.548473 
L 224.428027 131.031245 
L 223.777417 130.514017 
L 223.126806 129.996789 
L 222.476196 129.479561 
L 221.825586 128.962333 
L 221.174975 128.445105 
L 220.524365 127.927877 
L 219.873755 127.41065 
L 219.223144 126.893422 
L 218.572534 126.376194 
L 217.921924 125.858966 
L 217.271314 125.341738 
L 216.620703 124.82451 
L 215.970093 124.307282 
L 215.319483 124.108892 
L 214.668872 124.01987 
L 214.018262 123.930848 
L 213.367652 123.841826 
L 212.717041 123.752804 
L 212.066431 123.663782 
L 211.415821 123.57476 
L 210.76521 123.485738 
L 210.1146 123.396716 
L 209.46399 123.307694 
L 208.813379 123.218672 
L 208.162769 123.12965 
L 207.512159 123.040628 
L 206.861549 122.951606 
L 206.210938 122.862584 
L 205.560328 122.773562 
L 204.909718 122.68454 
L 204.259107 122.595518 
L 203.608497 122.506496 
L 202.957887 122.46205 
L 202.307276 122.520127 
L 201.656666 122.578205 
L 201.006056 122.636283 
L 200.355445 122.694361 
L 199.704835 122.752438 
L 199.054225 122.810516 
L 198.403615 122.868594 
L 197.753004 122.926672 
L 197.102394 122.984749 
L 196.451784 123.042827 
L 195.801173 123.100905 
L 195.150563 123.158983 
L 194.499953 123.21706 
L 193.849342 123.275138 
L 193.198732 123.333216 
L 192.548122 123.391294 
L 191.897511 123.449371 
L 191.246901 123.507449 
L 190.596291 123.565527 
L 189.94568 123.347762 
L 189.29507 123.085641 
L 188.64446 122.823519 
L 187.99385 122.561398 
L 187.343239 122.299276 
L 186.692629 122.037155 
L 186.042019 121.775033 
L 185.391408 121.512912 
L 184.740798 121.250791 
L 184.090188 120.988669 
L 183.439577 120.726548 
L 182.788967 120.464426 
L 182.138357 120.202305 
L 181.487746 119.940184 
L 180.837136 119.678062 
L 180.186526 119.415941 
L 179.535915 119.153819 
L 178.885305 118.891698 
L 178.234695 118.664385 
L 177.584085 118.650946 
L 176.933474 118.637507 
L 176.282864 118.624068 
L 175.632254 118.610629 
L 174.981643 118.59719 
L 174.331033 118.583751 
L 173.680423 118.570312 
L 173.029812 118.556873 
L 172.379202 118.543434 
L 171.728592 118.529995 
L 171.077981 118.516557 
L 170.427371 118.503118 
L 169.776761 118.489679 
L 169.12615 118.47624 
L 168.47554 118.462801 
L 167.82493 118.449362 
L 167.17432 118.435923 
L 166.523709 118.422484 
L 165.873099 118.409045 
L 165.222489 119.127595 
L 164.571878 120.16223 
L 163.921268 121.196866 
L 163.270658 122.231502 
L 162.620047 123.266137 
L 161.969437 124.300773 
L 161.318827 125.335409 
L 160.668216 126.370044 
L 160.017606 127.40468 
L 159.366996 128.439316 
L 158.716385 129.473951 
L 158.065775 130.508587 
L 157.415165 131.543223 
L 156.764555 132.577858 
L 156.113944 133.612494 
L 155.463334 134.64713 
L 154.812724 135.681765 
L 154.162113 136.716401 
L 153.511503 137.751037 
L 152.860893 138.277673 
L 152.210282 137.334537 
L 151.559672 136.391401 
L 150.909062 135.448265 
L 150.258451 134.505129 
L 149.607841 133.561993 
L 148.957231 132.618857 
L 148.306621 131.675721 
L 147.65601 130.732585 
L 147.0054 129.789449 
L 146.35479 128.846313 
L 145.704179 127.903177 
L 145.053569 126.960041 
L 144.402959 126.016905 
L 143.752348 125.073769 
L 143.101738 124.130633 
L 142.451128 123.187497 
L 141.800517 122.244361 
L 141.149907 121.301225 
L 140.499297 120.955802 
L 139.848686 121.129151 
L 139.198076 121.302499 
L 138.547466 121.475847 
L 137.896856 121.649195 
L 137.246245 121.822543 
L 136.595635 121.995891 
L 135.945025 122.169239 
L 135.294414 122.342587 
L 134.643804 122.515935 
L 133.993194 122.689283 
L 133.342583 122.862631 
L 132.691973 123.035979 
L 132.041363 123.209327 
L 131.390752 123.382675 
L 130.740142 123.556024 
L 130.089532 123.729372 
L 129.438921 123.90272 
L 128.788311 124.076068 
L 128.137701 124.247187 
L 127.487091 124.39677 
L 126.83648 124.546354 
L 126.18587 124.695937 
L 125.53526 124.845521 
L 124.884649 124.995104 
L 124.234039 125.144688 
L 123.583429 125.294271 
L 122.932818 125.443855 
L 122.282208 125.593438 
L 121.631598 125.743022 
L 120.980987 125.892605 
L 120.330377 126.042189 
L 119.679767 126.191772 
L 119.029156 126.341355 
L 118.378546 126.490939 
L 117.727936 126.640522 
L 117.077326 126.790106 
L 116.426715 126.939689 
L 115.776105 127.089273 
L 115.125495 127.64988 
L 114.474884 128.42964 
L 113.824274 129.209399 
L 113.173664 129.989159 
L 112.523053 130.768918 
L 111.872443 131.548678 
L 111.221833 132.328437 
L 110.571222 133.108197 
L 109.920612 133.887956 
L 109.270002 134.667716 
L 108.619392 135.447475 
L 107.968781 136.227234 
L 107.318171 137.006994 
L 106.667561 137.786753 
L 106.01695 138.566513 
L 105.36634 139.346272 
L 104.71573 140.126032 
L 104.065119 140.905791 
L 103.414509 141.685551 
L 102.763899 140.681442 
L 102.113288 139.544579 
L 101.462678 138.407717 
L 100.812068 137.270855 
L 100.161457 136.133993 
L 99.510847 134.997131 
L 98.860237 133.860269 
L 98.209627 132.723406 
L 97.559016 131.586544 
L 96.908406 130.449682 
L 96.257796 129.31282 
L 95.607185 128.175958 
L 94.956575 127.039096 
L 94.305965 125.902233 
L 93.655354 124.765371 
L 93.004744 123.628509 
L 92.354134 122.491647 
L 91.703523 121.354785 
L 91.052913 120.217922 
L 90.402303 119.757818 
L 89.751692 120.004416 
L 89.101082 120.251014 
L 88.450472 120.497612 
L 87.799862 120.74421 
L 87.149251 120.990808 
L 86.498641 121.237406 
L 85.848031 121.484004 
L 85.19742 121.730602 
L 84.54681 121.9772 
L 83.8962 122.223798 
L 83.245589 122.470396 
L 82.594979 122.716994 
L 81.944369 122.963592 
L 81.293758 123.21019 
L 80.643148 123.456788 
L 79.992538 123.703387 
L 79.341927 123.949985 
L 78.691317 124.196583 
L 78.040707 124.420433 
L 77.390097 124.189338 
L 76.739486 123.958243 
L 76.088876 123.727148 
L 75.438266 123.496053 
L 74.787655 123.264957 
L 74.137045 123.033862 
L 73.486435 122.802767 
L 72.835824 122.571672 
L 72.185214 122.340577 
L 71.534604 122.109481 
L 70.883993 121.878386 
L 70.233383 121.647291 
L 69.582773 121.416196 
L 68.932163 121.185101 
L 68.281552 120.954006 
L 67.630942 120.72291 
L 66.980332 120.491815 
L 66.329721 120.26072 
L 65.679111 120.029625 
L 65.028501 120.187675 
L 64.37789 120.598668 
L 63.72728 121.009662 
L 63.07667 121.420656 
L 62.426059 121.83165 
L 61.775449 122.242644 
L 61.124839 122.653638 
L 60.474228 123.064632 
L 59.823618 123.475626 
L 59.173008 123.88662 
L 58.522398 124.297613 
L 57.871787 124.708607 
L 57.221177 125.119601 
L 56.570567 125.530595 
L 55.919956 125.941589 
L 55.269346 126.352583 
L 54.618736 126.763577 
L 53.968125 127.174571 
L 53.317515 127.585565 
L 52.666905 128.219633 
L 52.016294 128.882813 
L 51.365684 129.545993 
L 50.715074 130.209174 
L 50.064463 130.872354 
L 49.413853 131.535535 
L 48.763243 132.198715 
L 48.112633 132.861896 
L 47.462022 133.525076 
L 46.811412 134.188257 
L 46.160802 134.851437 
L 45.510191 135.514618 
L 44.859581 136.177798 
L 44.208971 136.840979 
L 43.55836 137.504159 
L 42.90775 138.167339 
L 42.25714 138.83052 
L 41.606529 139.4937 
L 40.955919 140.156881 
L 40.305309 140.730741 
L 39.654698 141.192295 
L 39.004088 141.653849 
L 38.353478 142.115403 
L 37.702868 142.576957 
L 37.052257 143.038511 
L 36.401647 143.500065 
L 35.751037 143.961619 
L 35.100426 144.423173 
L 34.449816 144.884727 
L 33.799206 145.346281 
L 33.148595 145.807835 
L 32.497985 146.269389 
L 31.847375 146.730943 
L 31.196764 147.192497 
L 30.546154 147.654052 
L 29.895544 148.115606 
L 29.244934 148.57716 
L 28.594323 149.038714 
L 27.943713 149.49884 
L 27.293103 148.971098 
L 26.642492 148.443357 
L 25.991882 147.915615 
L 25.341272 147.387873 
L 24.690661 146.860131 
L 24.040051 146.332389 
L 23.389441 145.804647 
L 22.73883 145.276905 
L 22.08822 144.749163 
L 21.43761 144.221422 
L 20.786999 143.69368 
L 20.136389 143.165938 
L 19.485779 142.638196 
L 18.835169 142.110454 
L 18.184558 141.582712 
L 17.533948 141.05497 
L 16.883338 140.527229 
L 16.232727 139.999487 
z
" style="fill:#f15a24;fill-opacity:0.3;"/>
   </g>
   <g id="PathCollection_1">
    <defs>
     <path d="M 0 1.581139 
C 0.419323 1.581139 0.821528 1.41454 1.118034 1.118034 
C 1.41454 0.821528 1.581139 0.419323 1.581139 -0 
C 1.581139 -0.419323 1.41454 -0.821528 1.118034 -1.118034 
C 0.821528 -1.41454 0.419323 -1.581139 0 -1.581139 
C -0.419323 -1.581139 -0.821528 -1.41454 -1.118034 -1.118034 
C -1.41454 -0.821528 -1.581139 -0.419323 -1.581139 0 
C -1.581139 0.419323 -1.41454 0.821528 -1.118034 1.118034 
C -0.821528 1.41454 -0.419323 1.581139 0 1.581139 
z
" id="C0_0_efaffdc773"/>
    </defs>
    <g clip-path="url(#p7261dbe1fc)">
     <use style="fill:#008000;stroke:#008000;stroke-width:0.5;" x="16.232727" xlink:href="#C0_0_efaffdc773" y="132.6092"/>
    </g>
    <g clip-path="url(#p7261dbe1fc)">
     <use style="fill:#ffff00;stroke:#ffff00;stroke-width:0.5;" x="27.944652" xlink:href="#C0_0_efaffdc773" y="128.373739"/>
    </g>
    <g clip-path="url(#p7261dbe1fc)">
     <use style="fill:#ffff00;stroke:#ffff00;stroke-width:0.5;" x="40.59353" xlink:href="#C0_0_efaffdc773" y="139.306619"/>
    </g>
    <g clip-path="url(#p7261dbe1fc)">
     <use style="fill:#ff0000;stroke:#ff0000;stroke-width:0.5;" x="53.242409" xlink:href="#C0_0_efaffdc773" y="127.63301"/>
    </g>
    <g clip-path="url(#p7261dbe1fc)">
     <use style="fill:#ff0000;stroke:#ff0000;stroke-width:0.5;" x="65.42281" xlink:href="#C0_0_efaffdc773" y="119.938587"/>
    </g>
    <g clip-path="url(#p7261dbe1fc)">
     <use style="fill:#ff0000;stroke:#ff0000;stroke-width:0.5;" x="78.071688" xlink:href="#C0_0_efaffdc773" y="124.431438"/>
    </g>
    <g clip-path="url(#p7261dbe1fc)">
     <use style="fill:#ff0000;stroke:#ff0000;stroke-width:0.5;" x="90.720567" xlink:href="#C0_0_efaffdc773" y="119.637188"/>
    </g>
    <g clip-path="url(#p7261dbe1fc)">
     <use style="fill:#008000;stroke:#008000;stroke-width:0.5;" x="103.369445" xlink:href="#C0_0_efaffdc773" y="133.693811"/>
    </g>
    <g clip-path="url(#p7261dbe1fc)">
     <use style="fill:#ff0000;stroke:#ff0000;stroke-width:0.5;" x="115.549847" xlink:href="#C0_0_efaffdc773" y="127.141293"/>
    </g>
    <g clip-path="url(#p7261dbe1fc)">
     <use style="fill:#ff0000;stroke:#ff0000;stroke-width:0.5;" x="128.198725" xlink:href="#C0_0_efaffdc773" y="124.233157"/>
    </g>
    <g clip-path="url(#p7261dbe1fc)">
     <use style="fill:#ff0000;stroke:#ff0000;stroke-width:0.5;" x="140.847603" xlink:href="#C0_0_efaffdc773" y="120.863"/>
    </g>
    <g clip-path="url(#p7261dbe1fc)">
     <use style="fill:#ff0000;stroke:#ff0000;stroke-width:0.5;" x="153.028005" xlink:href="#C0_0_efaffdc773" y="138.519922"/>
    </g>
    <g clip-path="url(#p7261dbe1fc)">
     <use style="fill:#ff0000;stroke:#ff0000;stroke-width:0.5;" x="165.676883" xlink:href="#C0_0_efaffdc773" y="118.404992"/>
    </g>
    <g clip-path="url(#p7261dbe1fc)">
     <use style="fill:#ff0000;stroke:#ff0000;stroke-width:0.5;" x="178.325762" xlink:href="#C0_0_efaffdc773" y="118.666266"/>
    </g>
    <g clip-path="url(#p7261dbe1fc)">
     <use style="fill:#ff0000;stroke:#ff0000;stroke-width:0.5;" x="190.506163" xlink:href="#C0_0_efaffdc773" y="123.573572"/>
    </g>
    <g clip-path="url(#p7261dbe1fc)">
     <use style="fill:#ff0000;stroke:#ff0000;stroke-width:0.5;" x="203.155041" xlink:href="#C0_0_efaffdc773" y="122.44445"/>
    </g>
    <g clip-path="url(#p7261dbe1fc)">
     <use style="fill:#ff0000;stroke:#ff0000;stroke-width:0.5;" x="215.80392" xlink:href="#C0_0_efaffdc773" y="124.175176"/>
    </g>
    <g clip-path="url(#p7261dbe1fc)">
     <use style="fill:#ff0000;stroke:#ff0000;stroke-width:0.5;" x="227.984321" xlink:href="#C0_0_efaffdc773" y="133.858459"/>
    </g>
    <g clip-path="url(#p7261dbe1fc)">
     <use style="fill:#ff0000;stroke:#ff0000;stroke-width:0.5;" x="240.6332" xlink:href="#C0_0_efaffdc773" y="137.790155"/>
    </g>
    <g clip-path="url(#p7261dbe1fc)">
     <use style="fill:#ff0000;stroke:#ff0000;stroke-width:0.5;" x="253.282078" xlink:href="#C0_0_efaffdc773" y="130.518357"/>
    </g>
    <g clip-path="url(#p7261dbe1fc)">
     <use style="fill:#ff0000;stroke:#ff0000;stroke-width:0.5;" x="265.930956" xlink:href="#C0_0_efaffdc773" y="129.021107"/>
    </g>
    <g clip-path="url(#p7261dbe1fc)">
     <use style="fill:#ff0000;stroke:#ff0000;stroke-width:0.5;" x="278.111358" xlink:href="#C0_0_efaffdc773" y="126.137055"/>
    </g>
    <g clip-path="url(#p7261dbe1fc)">
     <use style="fill:#ff0000;stroke:#ff0000;stroke-width:0.5;" x="290.760236" xlink:href="#C0_0_efaffdc773" y="131.74458"/>
    </g>
    <g clip-path="url(#p7261dbe1fc)">
     <use style="fill:#ff0000;stroke:#ff0000;stroke-width:0.5;" x="303.409115" xlink:href="#C0_0_efaffdc773" y="123.374411"/>
    </g>
    <g clip-path="url(#p7261dbe1fc)">
     <use style="fill:#ff0000;stroke:#ff0000;stroke-width:0.5;" x="315.589516" xlink:href="#C0_0_efaffdc773" y="124.696939"/>
    </g>
    <g clip-path="url(#p7261dbe1fc)">
     <use style="fill:#ff0000;stroke:#ff0000;stroke-width:0.5;" x="328.238394" xlink:href="#C0_0_efaffdc773" y="129.731593"/>
    </g>
    <g clip-path="url(#p7261dbe1fc)">
     <use style="fill:#ff0000;stroke:#ff0000;stroke-width:0.5;" x="340.887273" xlink:href="#C0_0_efaffdc773" y="123.093837"/>
    </g>
   </g>
   <g id="line2d_1">
    <path clip-path="url(#p7261dbe1fc)" d="M 16.232727 132.6092 
L 27.943713 144.717539 
L 40.305309 142.803611 
L 40.955919 143.111161 
L 53.317515 155.057754 
L 65.679111 155.926611 
L 78.040707 155.002435 
L 85.19742 151.863926 
L 90.402303 149.573141 
L 91.052913 149.019521 
L 103.414509 133.744849 
L 115.125495 147.00831 
L 115.776105 147.516032 
L 128.788311 148.994917 
L 140.499297 148.798959 
L 141.149907 148.579825 
L 152.860893 140.316548 
L 153.511503 140.585926 
L 165.222489 149.966687 
L 165.873099 150.316414 
L 178.234695 149.418479 
L 182.138357 148.252523 
L 190.596291 145.759238 
L 202.957887 152.78311 
L 203.608497 152.800335 
L 215.319483 150.352069 
L 215.970093 150.066719 
L 227.681079 137.094067 
L 228.331689 136.881939 
L 240.693285 141.27311 
L 268.018918 144.805654 
L 277.778073 146.598535 
L 278.428683 146.527832 
L 290.790279 141.413007 
L 303.802485 146.605034 
L 315.513471 148.819108 
L 318.115912 148.103744 
L 328.525677 145.176337 
L 340.887273 145.023223 
L 340.887273 145.023223 
" style="fill:none;stroke:#61c46e;stroke-linecap:square;"/>
   </g>
   <g id="line2d_2">
    <path clip-path="url(#p7261dbe1fc)" d="M 16.232727 149.983162 
L 27.943713 128.375472 
L 40.305309 139.057499 
L 40.955919 139.323808 
L 53.317515 139.948531 
L 65.028501 146.487324 
L 65.679111 146.63561 
L 78.040707 143.168977 
L 81.293758 145.799642 
L 90.402303 153.260891 
L 91.052913 153.354406 
L 103.414509 147.161447 
L 117.727936 148.201381 
L 128.788311 149.520865 
L 140.499297 152.837088 
L 141.149907 152.710799 
L 152.860893 143.997626 
L 153.511503 144.254884 
L 165.222489 153.497566 
L 165.873099 153.866388 
L 178.885305 154.458434 
L 190.596291 153.267081 
L 202.957887 147.346691 
L 204.259107 147.332012 
L 215.970093 148.217845 
L 227.681079 151.880396 
L 228.331689 151.743476 
L 240.693285 143.563128 
L 253.054881 149.122176 
L 254.356101 149.217921 
L 267.368308 149.224946 
L 279.079293 149.768357 
L 290.790279 149.454146 
L 303.151875 152.620872 
L 303.802485 152.569689 
L 316.164081 148.998692 
L 327.875066 147.720032 
L 328.525677 147.834678 
L 340.887273 154.474787 
L 340.887273 154.474787 
" style="fill:none;stroke:#f6ed22;stroke-linecap:square;"/>
   </g>
   <g id="line2d_3">
    <path clip-path="url(#p7261dbe1fc)" d="M 16.232727 139.999487 
L 27.943713 149.49884 
L 40.305309 140.730741 
L 41.606529 139.4937 
L 53.317515 127.585565 
L 65.028501 120.187675 
L 65.679111 120.029625 
L 78.040707 124.420433 
L 81.944369 122.963592 
L 90.402303 119.757818 
L 91.052913 120.217922 
L 103.414509 141.685551 
L 115.125495 127.64988 
L 115.776105 127.089273 
L 130.740142 123.556024 
L 140.499297 120.955802 
L 141.149907 121.301225 
L 152.860893 138.277673 
L 153.511503 137.751037 
L 165.222489 119.127595 
L 165.873099 118.409045 
L 178.234695 118.664385 
L 180.837136 119.678062 
L 190.596291 123.565527 
L 203.608497 122.506496 
L 215.970093 124.307282 
L 227.681079 133.617384 
L 228.331689 133.966432 
L 240.693285 137.755612 
L 253.054881 130.648972 
L 254.356101 130.391225 
L 266.717697 128.834824 
L 277.778073 126.21597 
L 278.428683 126.277732 
L 290.790279 131.7247 
L 303.151875 123.544635 
L 303.802485 123.417123 
L 315.513471 124.688682 
L 319.417132 126.220452 
L 327.875066 129.586977 
L 328.525677 129.580836 
L 340.887273 123.093837 
L 340.887273 123.093837 
" style="fill:none;stroke:#f15a24;stroke-linecap:square;"/>
   </g>
  </g>
 </g>
 <defs>
  <clipPath id="p7261dbe1fc">
   <rect height="266.112" width="357.12" x="0" y="-0"/>
  </clipPath>
 </defs>
</svg>
