<?xml version="1.0" encoding="utf-8" standalone="no"?>
<!DOCTYPE svg PUBLIC "-//W3C//DTD SVG 1.1//EN"
  "http://www.w3.org/Graphics/SVG/1.1/DTD/svg11.dtd">
<svg height="266.112pt" version="1.1" viewBox="0 0 357.12 266.112" width="357.12pt" xmlns="http://www.w3.org/2000/svg" xmlns:xlink="http://www.w3.org/1999/xlink">
 <metadata>
  <rdf:RDF xmlns:cc="http://creativecommons.org/ns#" xmlns:dc="http://purl.org/dc/elements/1.1/" xmlns:rdf="http://www.w3.org/1999/02/22-rdf-syntax-ns#">
   <cc:Work>
    <dc:type rdf:resource="http://purl.org/dc/dcmitype/StillImage"/>
    <dc:date>2022-03-05T14:43:12.311347</dc:date>
    <dc:format>image/svg+xml</dc:format>
    <dc:creator>
     <cc:Agent>
      <dc:title>Matplotlib v3.4.2, https://matplotlib.org/</dc:title>
     </cc:Agent>
    </dc:creator>
   </cc:Work>
  </rdf:RDF>
 </metadata>
 <defs>
  <style type="text/css">*{stroke-linecap:butt;stroke-linejoin:round;}</style>
 </defs>
 <g id="figure_1">
  <g id="patch_1">
   <path d="M 0 266.112 
L 357.12 266.112 
L 357.12 0 
L 0 0 
z
" style="fill:#ffffff;"/>
  </g>
  <g id="axes_1">
   <g id="PolyCollection_1">
    <path clip-path="url(#p5957112844)" d="M 16.232727 121.896352 
L 16.232727 155.632811 
L 16.883338 155.632811 
L 17.533948 155.632811 
L 18.184558 155.632811 
L 18.835169 155.632811 
L 19.485779 155.632811 
L 20.136389 155.632811 
L 20.786999 155.632811 
L 21.43761 155.632811 
L 22.08822 155.632811 
L 22.73883 155.632811 
L 23.389441 155.632811 
L 24.040051 155.632811 
L 24.690661 155.632811 
L 25.341272 155.632811 
L 25.991882 155.632811 
L 26.642492 155.632811 
L 27.293103 155.632811 
L 27.943713 155.632811 
L 28.594323 155.632811 
L 29.244934 155.632811 
L 29.895544 155.632811 
L 30.546154 155.632811 
L 31.196764 155.632811 
L 31.847375 155.632811 
L 32.497985 155.632811 
L 33.148595 155.632811 
L 33.799206 155.632811 
L 34.449816 155.632811 
L 35.100426 155.632811 
L 35.751037 155.632811 
L 36.401647 155.632811 
L 37.052257 155.632811 
L 37.702868 155.632811 
L 38.353478 155.632811 
L 39.004088 155.632811 
L 39.654698 155.632811 
L 40.305309 155.632811 
L 40.955919 155.632811 
L 41.606529 155.632811 
L 42.25714 155.632811 
L 42.90775 155.632811 
L 43.55836 155.632811 
L 44.208971 155.632811 
L 44.859581 155.632811 
L 45.510191 155.632811 
L 46.160802 155.632811 
L 46.811412 155.632811 
L 47.462022 155.632811 
L 48.112633 155.632811 
L 48.763243 155.632811 
L 49.413853 155.632811 
L 50.064463 155.632811 
L 50.715074 155.632811 
L 51.365684 155.632811 
L 52.016294 155.632811 
L 52.666905 155.632811 
L 53.317515 155.632811 
L 53.968125 155.632811 
L 54.618736 155.632811 
L 55.269346 155.632811 
L 55.919956 155.632811 
L 56.570567 155.632811 
L 57.221177 155.632811 
L 57.871787 155.632811 
L 58.522398 155.632811 
L 59.173008 155.632811 
L 59.823618 155.632811 
L 60.474228 155.632811 
L 61.124839 155.632811 
L 61.775449 155.632811 
L 62.426059 155.632811 
L 63.07667 155.632811 
L 63.72728 155.632811 
L 64.37789 155.632811 
L 65.028501 155.632811 
L 65.679111 155.632811 
L 66.329721 155.632811 
L 66.980332 155.632811 
L 67.630942 155.632811 
L 68.281552 155.632811 
L 68.932163 155.632811 
L 69.582773 155.632811 
L 70.233383 155.632811 
L 70.883993 155.632811 
L 71.534604 155.632811 
L 72.185214 155.632811 
L 72.835824 155.632811 
L 73.486435 155.632811 
L 74.137045 155.632811 
L 74.787655 155.632811 
L 75.438266 155.632811 
L 76.088876 155.632811 
L 76.739486 155.632811 
L 77.390097 155.632811 
L 78.040707 155.632811 
L 78.691317 155.632811 
L 79.341927 155.632811 
L 79.992538 155.632811 
L 80.643148 155.632811 
L 81.293758 155.632811 
L 81.944369 155.632811 
L 82.594979 155.632811 
L 83.245589 155.632811 
L 83.8962 155.632811 
L 84.54681 155.632811 
L 85.19742 155.632811 
L 85.848031 155.632811 
L 86.498641 155.632811 
L 87.149251 155.632811 
L 87.799862 155.632811 
L 88.450472 155.632811 
L 89.101082 155.632811 
L 89.751692 155.632811 
L 90.402303 155.632811 
L 91.052913 155.632811 
L 91.703523 155.632811 
L 92.354134 155.632811 
L 93.004744 155.632811 
L 93.655354 155.632811 
L 94.305965 155.632811 
L 94.956575 155.632811 
L 95.607185 155.632811 
L 96.257796 155.632811 
L 96.908406 155.632811 
L 97.559016 155.632811 
L 98.209627 155.632811 
L 98.860237 155.632811 
L 99.510847 155.632811 
L 100.161457 155.632811 
L 100.812068 155.632811 
L 101.462678 155.632811 
L 102.113288 155.632811 
L 102.763899 155.632811 
L 103.414509 155.632811 
L 104.065119 155.632811 
L 104.71573 155.632811 
L 105.36634 155.632811 
L 106.01695 155.632811 
L 106.667561 155.632811 
L 107.318171 155.632811 
L 107.968781 155.632811 
L 108.619392 155.632811 
L 109.270002 155.632811 
L 109.920612 155.632811 
L 110.571222 155.632811 
L 111.221833 155.632811 
L 111.872443 155.632811 
L 112.523053 155.632811 
L 113.173664 155.632811 
L 113.824274 155.632811 
L 114.474884 155.632811 
L 115.125495 155.632811 
L 115.776105 155.632811 
L 116.426715 155.632811 
L 117.077326 155.632811 
L 117.727936 155.632811 
L 118.378546 155.632811 
L 119.029156 155.632811 
L 119.679767 155.632811 
L 120.330377 155.632811 
L 120.980987 155.632811 
L 121.631598 155.632811 
L 122.282208 155.632811 
L 122.932818 155.632811 
L 123.583429 155.632811 
L 124.234039 155.632811 
L 124.884649 155.632811 
L 125.53526 155.632811 
L 126.18587 155.632811 
L 126.83648 155.632811 
L 127.487091 155.632811 
L 128.137701 155.632811 
L 128.788311 155.632811 
L 129.438921 155.632811 
L 130.089532 155.632811 
L 130.740142 155.632811 
L 131.390752 155.632811 
L 132.041363 155.632811 
L 132.691973 155.632811 
L 133.342583 155.632811 
L 133.993194 155.632811 
L 134.643804 155.632811 
L 135.294414 155.632811 
L 135.945025 155.632811 
L 136.595635 155.632811 
L 137.246245 155.632811 
L 137.896856 155.632811 
L 138.547466 155.632811 
L 139.198076 155.632811 
L 139.848686 155.632811 
L 140.499297 155.632811 
L 141.149907 155.632811 
L 141.800517 155.632811 
L 142.451128 155.632811 
L 143.101738 155.632811 
L 143.752348 155.632811 
L 144.402959 155.632811 
L 145.053569 155.632811 
L 145.704179 155.632811 
L 146.35479 155.632811 
L 147.0054 155.632811 
L 147.65601 155.632811 
L 148.306621 155.632811 
L 148.957231 155.632811 
L 149.607841 155.632811 
L 150.258451 155.632811 
L 150.909062 155.632811 
L 151.559672 155.632811 
L 152.210282 155.632811 
L 152.860893 155.632811 
L 153.511503 155.632811 
L 154.162113 155.632811 
L 154.812724 155.632811 
L 155.463334 155.632811 
L 156.113944 155.632811 
L 156.764555 155.632811 
L 157.415165 155.632811 
L 158.065775 155.632811 
L 158.716385 155.632811 
L 159.366996 155.632811 
L 160.017606 155.632811 
L 160.668216 155.632811 
L 161.318827 155.632811 
L 161.969437 155.632811 
L 162.620047 155.632811 
L 163.270658 155.632811 
L 163.921268 155.632811 
L 164.571878 155.632811 
L 165.222489 155.632811 
L 165.873099 155.632811 
L 166.523709 155.632811 
L 167.17432 155.632811 
L 167.82493 155.632811 
L 168.47554 155.632811 
L 169.12615 155.632811 
L 169.776761 155.632811 
L 170.427371 155.632811 
L 171.077981 155.632811 
L 171.728592 155.632811 
L 172.379202 155.632811 
L 173.029812 155.632811 
L 173.680423 155.632811 
L 174.331033 155.632811 
L 174.981643 155.632811 
L 175.632254 155.632811 
L 176.282864 155.632811 
L 176.933474 155.632811 
L 177.584085 155.632811 
L 178.234695 155.632811 
L 178.885305 155.632811 
L 179.535915 155.632811 
L 180.186526 155.632811 
L 180.837136 155.632811 
L 181.487746 155.632811 
L 182.138357 155.632811 
L 182.788967 155.632811 
L 183.439577 155.632811 
L 184.090188 155.632811 
L 184.740798 155.632811 
L 185.391408 155.632811 
L 186.042019 155.632811 
L 186.692629 155.632811 
L 187.343239 155.632811 
L 187.99385 155.632811 
L 188.64446 155.632811 
L 189.29507 155.632811 
L 189.94568 155.632811 
L 190.596291 155.632811 
L 191.246901 155.632811 
L 191.897511 155.632811 
L 192.548122 155.632811 
L 193.198732 155.632811 
L 193.849342 155.632811 
L 194.499953 155.632811 
L 195.150563 155.632811 
L 195.801173 155.632811 
L 196.451784 155.632811 
L 197.102394 155.632811 
L 197.753004 155.632811 
L 198.403615 155.632811 
L 199.054225 155.632811 
L 199.704835 155.632811 
L 200.355445 155.632811 
L 201.006056 155.632811 
L 201.656666 155.632811 
L 202.307276 155.632811 
L 202.957887 155.632811 
L 203.608497 155.632811 
L 204.259107 155.632811 
L 204.909718 155.632811 
L 205.560328 155.632811 
L 206.210938 155.632811 
L 206.861549 155.632811 
L 207.512159 155.632811 
L 208.162769 155.632811 
L 208.813379 155.632811 
L 209.46399 155.632811 
L 210.1146 155.632811 
L 210.76521 155.632811 
L 211.415821 155.632811 
L 212.066431 155.632811 
L 212.717041 155.632811 
L 213.367652 155.632811 
L 214.018262 155.632811 
L 214.668872 155.632811 
L 215.319483 155.632811 
L 215.970093 155.632811 
L 216.620703 155.632811 
L 217.271314 155.632811 
L 217.921924 155.632811 
L 218.572534 155.632811 
L 219.223144 155.632811 
L 219.873755 155.632811 
L 220.524365 155.632811 
L 221.174975 155.632811 
L 221.825586 155.632811 
L 222.476196 155.632811 
L 223.126806 155.632811 
L 223.777417 155.632811 
L 224.428027 155.632811 
L 225.078637 155.632811 
L 225.729248 155.632811 
L 226.379858 155.632811 
L 227.030468 155.632811 
L 227.681079 155.632811 
L 228.331689 155.632811 
L 228.982299 155.632811 
L 229.632909 155.632811 
L 230.28352 155.632811 
L 230.93413 155.632811 
L 231.58474 155.632811 
L 232.235351 155.632811 
L 232.885961 155.632811 
L 233.536571 155.632811 
L 234.187182 155.632811 
L 234.837792 155.632811 
L 235.488402 155.632811 
L 236.139013 155.632811 
L 236.789623 155.632811 
L 237.440233 155.632811 
L 238.090844 155.632811 
L 238.741454 155.632811 
L 239.392064 155.632811 
L 240.042674 155.632811 
L 240.693285 155.632811 
L 241.343895 155.632811 
L 241.994505 155.632811 
L 242.645116 155.632811 
L 243.295726 155.632811 
L 243.946336 155.632811 
L 244.596947 155.632811 
L 245.247557 155.632811 
L 245.898167 155.632811 
L 246.548778 155.632811 
L 247.199388 155.632811 
L 247.849998 155.632811 
L 248.500608 155.632811 
L 249.151219 155.632811 
L 249.801829 155.632811 
L 250.452439 155.632811 
L 251.10305 155.632811 
L 251.75366 155.632811 
L 252.40427 155.632811 
L 253.054881 155.632811 
L 253.705491 155.632811 
L 254.356101 155.632811 
L 255.006712 155.632811 
L 255.657322 155.632811 
L 256.307932 155.632811 
L 256.958543 155.632811 
L 257.609153 155.632811 
L 258.259763 155.632811 
L 258.910373 155.632811 
L 259.560984 155.632811 
L 260.211594 155.632811 
L 260.862204 155.632811 
L 261.512815 155.632811 
L 262.163425 155.632811 
L 262.814035 155.632811 
L 263.464646 155.632811 
L 264.115256 155.632811 
L 264.765866 155.632811 
L 265.416477 155.632811 
L 266.067087 155.632811 
L 266.717697 155.632811 
L 267.368308 155.632811 
L 268.018918 155.632811 
L 268.669528 155.632811 
L 269.320138 155.632811 
L 269.970749 155.632811 
L 270.621359 155.632811 
L 271.271969 155.632811 
L 271.92258 155.632811 
L 272.57319 155.632811 
L 273.2238 155.632811 
L 273.874411 155.632811 
L 274.525021 155.632811 
L 275.175631 155.632811 
L 275.826242 155.632811 
L 276.476852 155.632811 
L 277.127462 155.632811 
L 277.778073 155.632811 
L 278.428683 155.632811 
L 279.079293 155.632811 
L 279.729903 155.632811 
L 280.380514 155.632811 
L 281.031124 155.632811 
L 281.681734 155.632811 
L 282.332345 155.632811 
L 282.982955 155.632811 
L 283.633565 155.632811 
L 284.284176 155.632811 
L 284.934786 155.632811 
L 285.585396 155.632811 
L 286.236007 155.632811 
L 286.886617 155.632811 
L 287.537227 155.632811 
L 288.187837 155.632811 
L 288.838448 155.632811 
L 289.489058 155.632811 
L 290.139668 155.632811 
L 290.790279 155.632811 
L 291.440889 155.632811 
L 292.091499 155.632811 
L 292.74211 155.632811 
L 293.39272 155.632811 
L 294.04333 155.632811 
L 294.693941 155.632811 
L 295.344551 155.632811 
L 295.995161 155.632811 
L 296.645772 155.632811 
L 297.296382 155.632811 
L 297.946992 155.632811 
L 298.597602 155.632811 
L 299.248213 155.632811 
L 299.898823 155.632811 
L 300.549433 155.632811 
L 301.200044 155.632811 
L 301.850654 155.632811 
L 302.501264 155.632811 
L 303.151875 155.632811 
L 303.802485 155.632811 
L 304.453095 155.632811 
L 305.103706 155.632811 
L 305.754316 155.632811 
L 306.404926 155.632811 
L 307.055537 155.632811 
L 307.706147 155.632811 
L 308.356757 155.632811 
L 309.007367 155.632811 
L 309.657978 155.632811 
L 310.308588 155.632811 
L 310.959198 155.632811 
L 311.609809 155.632811 
L 312.260419 155.632811 
L 312.911029 155.632811 
L 313.56164 155.632811 
L 314.21225 155.632811 
L 314.86286 155.632811 
L 315.513471 155.632811 
L 316.164081 155.632811 
L 316.814691 155.632811 
L 317.465302 155.632811 
L 318.115912 155.632811 
L 318.766522 155.632811 
L 319.417132 155.632811 
L 320.067743 155.632811 
L 320.718353 155.632811 
L 321.368963 155.632811 
L 322.019574 155.632811 
L 322.670184 155.632811 
L 323.320794 155.632811 
L 323.971405 155.632811 
L 324.622015 155.632811 
L 325.272625 155.632811 
L 325.923236 155.632811 
L 326.573846 155.632811 
L 327.224456 155.632811 
L 327.875066 155.632811 
L 328.525677 155.632811 
L 329.176287 155.632811 
L 329.826897 155.632811 
L 330.477508 155.632811 
L 331.128118 155.632811 
L 331.778728 155.632811 
L 332.429339 155.632811 
L 333.079949 155.632811 
L 333.730559 155.632811 
L 334.38117 155.632811 
L 335.03178 155.632811 
L 335.68239 155.632811 
L 336.333001 155.632811 
L 336.983611 155.632811 
L 337.634221 155.632811 
L 338.284831 155.632811 
L 338.935442 155.632811 
L 339.586052 155.632811 
L 340.236662 155.632811 
L 340.887273 155.632811 
L 340.887273 138.444208 
L 340.887273 138.444208 
L 340.236662 137.643288 
L 339.586052 136.842368 
L 338.935442 136.041448 
L 338.284831 135.240528 
L 337.634221 134.439608 
L 336.983611 133.638688 
L 336.333001 132.837768 
L 335.68239 132.036848 
L 335.03178 131.235928 
L 334.38117 130.435008 
L 333.730559 129.634088 
L 333.079949 128.833168 
L 332.429339 128.032248 
L 331.778728 127.231328 
L 331.128118 126.430408 
L 330.477508 125.629488 
L 329.826897 124.828568 
L 329.176287 125.031985 
L 328.525677 125.777358 
L 327.875066 126.522731 
L 327.224456 127.268104 
L 326.573846 128.013476 
L 325.923236 128.758849 
L 325.272625 129.504222 
L 324.622015 130.249595 
L 323.971405 130.994967 
L 323.320794 131.74034 
L 322.670184 132.485713 
L 322.019574 133.231086 
L 321.368963 133.976458 
L 320.718353 134.721831 
L 320.067743 135.467204 
L 319.417132 136.212577 
L 318.766522 136.957949 
L 318.115912 137.703322 
L 317.465302 138.448695 
L 316.814691 139.194068 
L 316.164081 139.213793 
L 315.513471 138.571559 
L 314.86286 137.929325 
L 314.21225 137.28709 
L 313.56164 136.644856 
L 312.911029 136.002621 
L 312.260419 135.360387 
L 311.609809 134.718152 
L 310.959198 134.075918 
L 310.308588 133.433684 
L 309.657978 132.791449 
L 309.007367 132.149215 
L 308.356757 131.50698 
L 307.706147 130.864746 
L 307.055537 130.222511 
L 306.404926 129.580277 
L 305.754316 128.938043 
L 305.103706 128.503539 
L 304.453095 129.065811 
L 303.802485 129.628082 
L 303.151875 130.190354 
L 302.501264 130.752626 
L 301.850654 131.314897 
L 301.200044 131.877169 
L 300.549433 132.43944 
L 299.898823 133.001712 
L 299.248213 133.563983 
L 298.597602 134.126255 
L 297.946992 134.688526 
L 297.296382 135.250798 
L 296.645772 135.813069 
L 295.995161 136.375341 
L 295.344551 136.937612 
L 294.693941 137.499884 
L 294.04333 138.062156 
L 293.39272 137.712209 
L 292.74211 137.164692 
L 292.091499 136.617175 
L 291.440889 136.069659 
L 290.790279 135.522142 
L 290.139668 134.974625 
L 289.489058 134.427109 
L 288.838448 133.879592 
L 288.187837 133.332075 
L 287.537227 132.784558 
L 286.886617 132.237042 
L 286.236007 131.689525 
L 285.585396 131.142008 
L 284.934786 130.594491 
L 284.284176 130.046975 
L 283.633565 129.499458 
L 282.982955 128.951941 
L 282.332345 128.404424 
L 281.681734 127.856908 
L 281.031124 127.309391 
L 280.380514 127.291209 
L 279.729903 127.504876 
L 279.079293 127.718542 
L 278.428683 127.932209 
L 277.778073 128.145876 
L 277.127462 128.359543 
L 276.476852 128.573209 
L 275.826242 128.786876 
L 275.175631 129.000543 
L 274.525021 129.214209 
L 273.874411 129.427876 
L 273.2238 129.641543 
L 272.57319 129.85521 
L 271.92258 130.068876 
L 271.271969 130.282543 
L 270.621359 130.49621 
L 269.970749 130.709876 
L 269.320138 131.098452 
L 268.669528 131.819211 
L 268.018918 132.53997 
L 267.368308 133.260729 
L 266.717697 133.981488 
L 266.067087 134.702247 
L 265.416477 135.423006 
L 264.765866 136.143765 
L 264.115256 136.864523 
L 263.464646 137.585282 
L 262.814035 138.306041 
L 262.163425 139.0268 
L 261.512815 139.747559 
L 260.862204 140.468318 
L 260.211594 141.189077 
L 259.560984 141.909836 
L 258.910373 142.630595 
L 258.259763 143.351354 
L 257.609153 144.072113 
L 256.958543 144.792872 
L 256.307932 145.163769 
L 255.657322 144.282297 
L 255.006712 143.400825 
L 254.356101 142.519353 
L 253.705491 141.637882 
L 253.054881 140.75641 
L 252.40427 139.874938 
L 251.75366 138.993466 
L 251.10305 138.111994 
L 250.452439 137.230523 
L 249.801829 136.349051 
L 249.151219 135.467579 
L 248.500608 134.586107 
L 247.849998 133.704635 
L 247.199388 132.823163 
L 246.548778 131.941692 
L 245.898167 131.06022 
L 245.247557 130.178748 
L 244.596947 130.493042 
L 243.946336 130.989383 
L 243.295726 131.485724 
L 242.645116 131.982065 
L 241.994505 132.478407 
L 241.343895 132.974748 
L 240.693285 133.471089 
L 240.042674 133.96743 
L 239.392064 134.463771 
L 238.741454 134.960113 
L 238.090844 135.456454 
L 237.440233 135.952795 
L 236.789623 136.449136 
L 236.139013 136.945477 
L 235.488402 137.441819 
L 234.837792 137.93816 
L 234.187182 138.434501 
L 233.536571 138.46812 
L 232.885961 138.070113 
L 232.235351 137.672106 
L 231.58474 137.274099 
L 230.93413 136.876092 
L 230.28352 136.478085 
L 229.632909 136.080078 
L 228.982299 135.682071 
L 228.331689 135.284063 
L 227.681079 134.886056 
L 227.030468 134.488049 
L 226.379858 134.090042 
L 225.729248 133.692035 
L 225.078637 133.294028 
L 224.428027 132.896021 
L 223.777417 132.498014 
L 223.126806 132.100007 
L 222.476196 131.702 
L 221.825586 131.303993 
L 221.174975 130.905986 
L 220.524365 130.507979 
L 219.873755 131.186137 
L 219.223144 132.332566 
L 218.572534 133.478994 
L 217.921924 134.625423 
L 217.271314 135.771852 
L 216.620703 136.91828 
L 215.970093 138.064709 
L 215.319483 139.211138 
L 214.668872 140.357566 
L 214.018262 141.503995 
L 213.367652 142.650423 
L 212.717041 143.796852 
L 212.066431 144.943281 
L 211.415821 146.089709 
L 210.76521 147.236138 
L 210.1146 148.382567 
L 209.46399 149.528995 
L 208.813379 150.304632 
L 208.162769 150.380381 
L 207.512159 150.456131 
L 206.861549 150.53188 
L 206.210938 150.607629 
L 205.560328 150.683378 
L 204.909718 150.759128 
L 204.259107 150.834877 
L 203.608497 150.910626 
L 202.957887 150.986375 
L 202.307276 151.062124 
L 201.656666 151.137874 
L 201.006056 151.213623 
L 200.355445 151.289372 
L 199.704835 151.365121 
L 199.054225 151.44087 
L 198.403615 151.51662 
L 197.753004 151.592369 
L 197.102394 151.668118 
L 196.451784 151.743867 
L 195.801173 151.697225 
L 195.150563 151.216012 
L 194.499953 150.734798 
L 193.849342 150.253585 
L 193.198732 149.772372 
L 192.548122 149.291159 
L 191.897511 148.809946 
L 191.246901 148.328733 
L 190.596291 147.84752 
L 189.94568 147.366307 
L 189.29507 146.885094 
L 188.64446 146.403881 
L 187.99385 145.922668 
L 187.343239 145.441455 
L 186.692629 144.960242 
L 186.042019 144.479029 
L 185.391408 143.997816 
L 184.740798 143.516603 
L 184.090188 143.70225 
L 183.439577 143.988194 
L 182.788967 144.274138 
L 182.138357 144.560082 
L 181.487746 144.846026 
L 180.837136 145.13197 
L 180.186526 145.417913 
L 179.535915 145.703857 
L 178.885305 145.989801 
L 178.234695 146.275745 
L 177.584085 146.561689 
L 176.933474 146.847633 
L 176.282864 147.133576 
L 175.632254 147.41952 
L 174.981643 147.705464 
L 174.331033 147.991408 
L 173.680423 148.277352 
L 173.029812 148.355486 
L 172.379202 148.240854 
L 171.728592 148.126221 
L 171.077981 148.011589 
L 170.427371 147.896957 
L 169.776761 147.782324 
L 169.12615 147.667692 
L 168.47554 147.553059 
L 167.82493 147.438427 
L 167.17432 147.323794 
L 166.523709 147.209162 
L 165.873099 147.09453 
L 165.222489 146.979897 
L 164.571878 146.865265 
L 163.921268 146.750632 
L 163.270658 146.636 
L 162.620047 146.521367 
L 161.969437 146.406735 
L 161.318827 146.292103 
L 160.668216 146.17747 
L 160.017606 146.144488 
L 159.366996 146.238036 
L 158.716385 146.331584 
L 158.065775 146.425132 
L 157.415165 146.51868 
L 156.764555 146.612228 
L 156.113944 146.705775 
L 155.463334 146.799323 
L 154.812724 146.892871 
L 154.162113 146.986419 
L 153.511503 147.079967 
L 152.860893 147.173515 
L 152.210282 147.267063 
L 151.559672 147.36061 
L 150.909062 147.454158 
L 150.258451 147.547706 
L 149.607841 147.641254 
L 148.957231 147.727321 
L 148.306621 147.641571 
L 147.65601 147.555821 
L 147.0054 147.470071 
L 146.35479 147.384321 
L 145.704179 147.298571 
L 145.053569 147.212821 
L 144.402959 147.127072 
L 143.752348 147.041322 
L 143.101738 146.955572 
L 142.451128 146.869822 
L 141.800517 146.784072 
L 141.149907 146.698322 
L 140.499297 146.612572 
L 139.848686 146.526822 
L 139.198076 146.441073 
L 138.547466 146.355323 
L 137.896856 146.269573 
L 137.246245 146.183823 
L 136.595635 146.098073 
L 135.945025 146.012323 
L 135.294414 145.624964 
L 134.643804 145.209644 
L 133.993194 144.794324 
L 133.342583 144.379004 
L 132.691973 143.963684 
L 132.041363 143.548364 
L 131.390752 143.133044 
L 130.740142 142.717724 
L 130.089532 142.302404 
L 129.438921 141.887083 
L 128.788311 141.471763 
L 128.137701 141.056443 
L 127.487091 140.641123 
L 126.83648 140.225803 
L 126.18587 139.810483 
L 125.53526 139.395163 
L 124.884649 138.979843 
L 124.234039 139.062742 
L 123.583429 139.529735 
L 122.932818 139.996728 
L 122.282208 140.463721 
L 121.631598 140.930714 
L 120.980987 141.397707 
L 120.330377 141.8647 
L 119.679767 142.331693 
L 119.029156 142.798686 
L 118.378546 143.265679 
L 117.727936 143.732673 
L 117.077326 144.199666 
L 116.426715 144.666659 
L 115.776105 145.133652 
L 115.125495 145.600645 
L 114.474884 146.067638 
L 113.824274 146.534631 
L 113.173664 146.92038 
L 112.523053 147.00806 
L 111.872443 147.09574 
L 111.221833 147.18342 
L 110.571222 147.2711 
L 109.920612 147.35878 
L 109.270002 147.44646 
L 108.619392 147.53414 
L 107.968781 147.62182 
L 107.318171 147.7095 
L 106.667561 147.79718 
L 106.01695 147.88486 
L 105.36634 147.97254 
L 104.71573 148.06022 
L 104.065119 148.1479 
L 103.414509 148.23558 
L 102.763899 148.32326 
L 102.113288 148.41094 
L 101.462678 148.49862 
L 100.812068 148.5863 
L 100.161457 148.621805 
L 99.510847 148.114031 
L 98.860237 147.606256 
L 98.209627 147.098481 
L 97.559016 146.590707 
L 96.908406 146.082932 
L 96.257796 145.575157 
L 95.607185 145.067383 
L 94.956575 144.559608 
L 94.305965 144.051833 
L 93.655354 143.544059 
L 93.004744 143.036284 
L 92.354134 142.528509 
L 91.703523 142.020735 
L 91.052913 141.51296 
L 90.402303 141.005185 
L 89.751692 140.497411 
L 89.101082 139.989636 
L 88.450472 139.490671 
L 87.799862 139.187221 
L 87.149251 138.883771 
L 86.498641 138.58032 
L 85.848031 138.27687 
L 85.19742 137.97342 
L 84.54681 137.66997 
L 83.8962 137.366519 
L 83.245589 137.063069 
L 82.594979 136.759619 
L 81.944369 136.456169 
L 81.293758 136.152718 
L 80.643148 135.849268 
L 79.992538 135.545818 
L 79.341927 135.242368 
L 78.691317 134.938917 
L 78.040707 134.635467 
L 77.390097 134.332017 
L 76.739486 134.028567 
L 76.088876 133.725116 
L 75.438266 133.421666 
L 74.787655 132.744772 
L 74.137045 132.033878 
L 73.486435 131.322983 
L 72.835824 130.612088 
L 72.185214 129.901194 
L 71.534604 129.190299 
L 70.883993 128.479404 
L 70.233383 127.76851 
L 69.582773 127.057615 
L 68.932163 126.34672 
L 68.281552 125.635826 
L 67.630942 124.924931 
L 66.980332 124.214036 
L 66.329721 123.503142 
L 65.679111 122.792247 
L 65.028501 122.081352 
L 64.37789 121.370458 
L 63.72728 121.363665 
L 63.07667 121.896626 
L 62.426059 122.429588 
L 61.775449 122.962549 
L 61.124839 123.495511 
L 60.474228 124.028472 
L 59.823618 124.561433 
L 59.173008 125.094395 
L 58.522398 125.627356 
L 57.871787 126.160317 
L 57.221177 126.693279 
L 56.570567 127.22624 
L 55.919956 127.759202 
L 55.269346 128.292163 
L 54.618736 128.825124 
L 53.968125 129.358086 
L 53.317515 129.891047 
L 52.666905 130.379605 
L 52.016294 130.706592 
L 51.365684 131.033579 
L 50.715074 131.360566 
L 50.064463 131.687553 
L 49.413853 132.014539 
L 48.763243 132.341526 
L 48.112633 132.668513 
L 47.462022 132.9955 
L 46.811412 133.322487 
L 46.160802 133.649474 
L 45.510191 133.976461 
L 44.859581 134.303448 
L 44.208971 134.630434 
L 43.55836 134.957421 
L 42.90775 135.284408 
L 42.25714 135.611395 
L 41.606529 135.938382 
L 40.955919 136.265369 
L 40.305309 136.592356 
L 39.654698 136.813279 
L 39.004088 135.948715 
L 38.353478 135.08415 
L 37.702868 134.219586 
L 37.052257 133.355021 
L 36.401647 132.490457 
L 35.751037 131.625892 
L 35.100426 130.761328 
L 34.449816 129.896763 
L 33.799206 129.032199 
L 33.148595 128.167634 
L 32.497985 127.30307 
L 31.847375 126.438505 
L 31.196764 125.57394 
L 30.546154 124.709376 
L 29.895544 123.844811 
L 29.244934 122.980247 
L 28.594323 122.115682 
L 27.943713 121.889886 
L 27.293103 121.890245 
L 26.642492 121.890605 
L 25.991882 121.890964 
L 25.341272 121.891323 
L 24.690661 121.891682 
L 24.040051 121.892041 
L 23.389441 121.892401 
L 22.73883 121.89276 
L 22.08822 121.893119 
L 21.43761 121.893478 
L 20.786999 121.893838 
L 20.136389 121.894197 
L 19.485779 121.894556 
L 18.835169 121.894915 
L 18.184558 121.895274 
L 17.533948 121.895634 
L 16.883338 121.895993 
L 16.232727 121.896352 
z
" style="fill:#61c46e;fill-opacity:0.3;"/>
   </g>
   <g id="PolyCollection_2">
    <path clip-path="url(#p5957112844)" d="M 16.232727 149.724563 
L 16.232727 155.632811 
L 16.883338 155.632811 
L 17.533948 155.632811 
L 18.184558 155.632811 
L 18.835169 155.632811 
L 19.485779 155.632811 
L 20.136389 155.632811 
L 20.786999 155.632811 
L 21.43761 155.632811 
L 22.08822 155.632811 
L 22.73883 155.632811 
L 23.389441 155.632811 
L 24.040051 155.632811 
L 24.690661 155.632811 
L 25.341272 155.632811 
L 25.991882 155.632811 
L 26.642492 155.632811 
L 27.293103 155.632811 
L 27.943713 155.632811 
L 28.594323 155.632811 
L 29.244934 155.632811 
L 29.895544 155.632811 
L 30.546154 155.632811 
L 31.196764 155.632811 
L 31.847375 155.632811 
L 32.497985 155.632811 
L 33.148595 155.632811 
L 33.799206 155.632811 
L 34.449816 155.632811 
L 35.100426 155.632811 
L 35.751037 155.632811 
L 36.401647 155.632811 
L 37.052257 155.632811 
L 37.702868 155.632811 
L 38.353478 155.632811 
L 39.004088 155.632811 
L 39.654698 155.632811 
L 40.305309 155.632811 
L 40.955919 155.632811 
L 41.606529 155.632811 
L 42.25714 155.632811 
L 42.90775 155.632811 
L 43.55836 155.632811 
L 44.208971 155.632811 
L 44.859581 155.632811 
L 45.510191 155.632811 
L 46.160802 155.632811 
L 46.811412 155.632811 
L 47.462022 155.632811 
L 48.112633 155.632811 
L 48.763243 155.632811 
L 49.413853 155.632811 
L 50.064463 155.632811 
L 50.715074 155.632811 
L 51.365684 155.632811 
L 52.016294 155.632811 
L 52.666905 155.632811 
L 53.317515 155.632811 
L 53.968125 155.632811 
L 54.618736 155.632811 
L 55.269346 155.632811 
L 55.919956 155.632811 
L 56.570567 155.632811 
L 57.221177 155.632811 
L 57.871787 155.632811 
L 58.522398 155.632811 
L 59.173008 155.632811 
L 59.823618 155.632811 
L 60.474228 155.632811 
L 61.124839 155.632811 
L 61.775449 155.632811 
L 62.426059 155.632811 
L 63.07667 155.632811 
L 63.72728 155.632811 
L 64.37789 155.632811 
L 65.028501 155.632811 
L 65.679111 155.632811 
L 66.329721 155.632811 
L 66.980332 155.632811 
L 67.630942 155.632811 
L 68.281552 155.632811 
L 68.932163 155.632811 
L 69.582773 155.632811 
L 70.233383 155.632811 
L 70.883993 155.632811 
L 71.534604 155.632811 
L 72.185214 155.632811 
L 72.835824 155.632811 
L 73.486435 155.632811 
L 74.137045 155.632811 
L 74.787655 155.632811 
L 75.438266 155.632811 
L 76.088876 155.632811 
L 76.739486 155.632811 
L 77.390097 155.632811 
L 78.040707 155.632811 
L 78.691317 155.632811 
L 79.341927 155.632811 
L 79.992538 155.632811 
L 80.643148 155.632811 
L 81.293758 155.632811 
L 81.944369 155.632811 
L 82.594979 155.632811 
L 83.245589 155.632811 
L 83.8962 155.632811 
L 84.54681 155.632811 
L 85.19742 155.632811 
L 85.848031 155.632811 
L 86.498641 155.632811 
L 87.149251 155.632811 
L 87.799862 155.632811 
L 88.450472 155.632811 
L 89.101082 155.632811 
L 89.751692 155.632811 
L 90.402303 155.632811 
L 91.052913 155.632811 
L 91.703523 155.632811 
L 92.354134 155.632811 
L 93.004744 155.632811 
L 93.655354 155.632811 
L 94.305965 155.632811 
L 94.956575 155.632811 
L 95.607185 155.632811 
L 96.257796 155.632811 
L 96.908406 155.632811 
L 97.559016 155.632811 
L 98.209627 155.632811 
L 98.860237 155.632811 
L 99.510847 155.632811 
L 100.161457 155.632811 
L 100.812068 155.632811 
L 101.462678 155.632811 
L 102.113288 155.632811 
L 102.763899 155.632811 
L 103.414509 155.632811 
L 104.065119 155.632811 
L 104.71573 155.632811 
L 105.36634 155.632811 
L 106.01695 155.632811 
L 106.667561 155.632811 
L 107.318171 155.632811 
L 107.968781 155.632811 
L 108.619392 155.632811 
L 109.270002 155.632811 
L 109.920612 155.632811 
L 110.571222 155.632811 
L 111.221833 155.632811 
L 111.872443 155.632811 
L 112.523053 155.632811 
L 113.173664 155.632811 
L 113.824274 155.632811 
L 114.474884 155.632811 
L 115.125495 155.632811 
L 115.776105 155.632811 
L 116.426715 155.632811 
L 117.077326 155.632811 
L 117.727936 155.632811 
L 118.378546 155.632811 
L 119.029156 155.632811 
L 119.679767 155.632811 
L 120.330377 155.632811 
L 120.980987 155.632811 
L 121.631598 155.632811 
L 122.282208 155.632811 
L 122.932818 155.632811 
L 123.583429 155.632811 
L 124.234039 155.632811 
L 124.884649 155.632811 
L 125.53526 155.632811 
L 126.18587 155.632811 
L 126.83648 155.632811 
L 127.487091 155.632811 
L 128.137701 155.632811 
L 128.788311 155.632811 
L 129.438921 155.632811 
L 130.089532 155.632811 
L 130.740142 155.632811 
L 131.390752 155.632811 
L 132.041363 155.632811 
L 132.691973 155.632811 
L 133.342583 155.632811 
L 133.993194 155.632811 
L 134.643804 155.632811 
L 135.294414 155.632811 
L 135.945025 155.632811 
L 136.595635 155.632811 
L 137.246245 155.632811 
L 137.896856 155.632811 
L 138.547466 155.632811 
L 139.198076 155.632811 
L 139.848686 155.632811 
L 140.499297 155.632811 
L 141.149907 155.632811 
L 141.800517 155.632811 
L 142.451128 155.632811 
L 143.101738 155.632811 
L 143.752348 155.632811 
L 144.402959 155.632811 
L 145.053569 155.632811 
L 145.704179 155.632811 
L 146.35479 155.632811 
L 147.0054 155.632811 
L 147.65601 155.632811 
L 148.306621 155.632811 
L 148.957231 155.632811 
L 149.607841 155.632811 
L 150.258451 155.632811 
L 150.909062 155.632811 
L 151.559672 155.632811 
L 152.210282 155.632811 
L 152.860893 155.632811 
L 153.511503 155.632811 
L 154.162113 155.632811 
L 154.812724 155.632811 
L 155.463334 155.632811 
L 156.113944 155.632811 
L 156.764555 155.632811 
L 157.415165 155.632811 
L 158.065775 155.632811 
L 158.716385 155.632811 
L 159.366996 155.632811 
L 160.017606 155.632811 
L 160.668216 155.632811 
L 161.318827 155.632811 
L 161.969437 155.632811 
L 162.620047 155.632811 
L 163.270658 155.632811 
L 163.921268 155.632811 
L 164.571878 155.632811 
L 165.222489 155.632811 
L 165.873099 155.632811 
L 166.523709 155.632811 
L 167.17432 155.632811 
L 167.82493 155.632811 
L 168.47554 155.632811 
L 169.12615 155.632811 
L 169.776761 155.632811 
L 170.427371 155.632811 
L 171.077981 155.632811 
L 171.728592 155.632811 
L 172.379202 155.632811 
L 173.029812 155.632811 
L 173.680423 155.632811 
L 174.331033 155.632811 
L 174.981643 155.632811 
L 175.632254 155.632811 
L 176.282864 155.632811 
L 176.933474 155.632811 
L 177.584085 155.632811 
L 178.234695 155.632811 
L 178.885305 155.632811 
L 179.535915 155.632811 
L 180.186526 155.632811 
L 180.837136 155.632811 
L 181.487746 155.632811 
L 182.138357 155.632811 
L 182.788967 155.632811 
L 183.439577 155.632811 
L 184.090188 155.632811 
L 184.740798 155.632811 
L 185.391408 155.632811 
L 186.042019 155.632811 
L 186.692629 155.632811 
L 187.343239 155.632811 
L 187.99385 155.632811 
L 188.64446 155.632811 
L 189.29507 155.632811 
L 189.94568 155.632811 
L 190.596291 155.632811 
L 191.246901 155.632811 
L 191.897511 155.632811 
L 192.548122 155.632811 
L 193.198732 155.632811 
L 193.849342 155.632811 
L 194.499953 155.632811 
L 195.150563 155.632811 
L 195.801173 155.632811 
L 196.451784 155.632811 
L 197.102394 155.632811 
L 197.753004 155.632811 
L 198.403615 155.632811 
L 199.054225 155.632811 
L 199.704835 155.632811 
L 200.355445 155.632811 
L 201.006056 155.632811 
L 201.656666 155.632811 
L 202.307276 155.632811 
L 202.957887 155.632811 
L 203.608497 155.632811 
L 204.259107 155.632811 
L 204.909718 155.632811 
L 205.560328 155.632811 
L 206.210938 155.632811 
L 206.861549 155.632811 
L 207.512159 155.632811 
L 208.162769 155.632811 
L 208.813379 155.632811 
L 209.46399 155.632811 
L 210.1146 155.632811 
L 210.76521 155.632811 
L 211.415821 155.632811 
L 212.066431 155.632811 
L 212.717041 155.632811 
L 213.367652 155.632811 
L 214.018262 155.632811 
L 214.668872 155.632811 
L 215.319483 155.632811 
L 215.970093 155.632811 
L 216.620703 155.632811 
L 217.271314 155.632811 
L 217.921924 155.632811 
L 218.572534 155.632811 
L 219.223144 155.632811 
L 219.873755 155.632811 
L 220.524365 155.632811 
L 221.174975 155.632811 
L 221.825586 155.632811 
L 222.476196 155.632811 
L 223.126806 155.632811 
L 223.777417 155.632811 
L 224.428027 155.632811 
L 225.078637 155.632811 
L 225.729248 155.632811 
L 226.379858 155.632811 
L 227.030468 155.632811 
L 227.681079 155.632811 
L 228.331689 155.632811 
L 228.982299 155.632811 
L 229.632909 155.632811 
L 230.28352 155.632811 
L 230.93413 155.632811 
L 231.58474 155.632811 
L 232.235351 155.632811 
L 232.885961 155.632811 
L 233.536571 155.632811 
L 234.187182 155.632811 
L 234.837792 155.632811 
L 235.488402 155.632811 
L 236.139013 155.632811 
L 236.789623 155.632811 
L 237.440233 155.632811 
L 238.090844 155.632811 
L 238.741454 155.632811 
L 239.392064 155.632811 
L 240.042674 155.632811 
L 240.693285 155.632811 
L 241.343895 155.632811 
L 241.994505 155.632811 
L 242.645116 155.632811 
L 243.295726 155.632811 
L 243.946336 155.632811 
L 244.596947 155.632811 
L 245.247557 155.632811 
L 245.898167 155.632811 
L 246.548778 155.632811 
L 247.199388 155.632811 
L 247.849998 155.632811 
L 248.500608 155.632811 
L 249.151219 155.632811 
L 249.801829 155.632811 
L 250.452439 155.632811 
L 251.10305 155.632811 
L 251.75366 155.632811 
L 252.40427 155.632811 
L 253.054881 155.632811 
L 253.705491 155.632811 
L 254.356101 155.632811 
L 255.006712 155.632811 
L 255.657322 155.632811 
L 256.307932 155.632811 
L 256.958543 155.632811 
L 257.609153 155.632811 
L 258.259763 155.632811 
L 258.910373 155.632811 
L 259.560984 155.632811 
L 260.211594 155.632811 
L 260.862204 155.632811 
L 261.512815 155.632811 
L 262.163425 155.632811 
L 262.814035 155.632811 
L 263.464646 155.632811 
L 264.115256 155.632811 
L 264.765866 155.632811 
L 265.416477 155.632811 
L 266.067087 155.632811 
L 266.717697 155.632811 
L 267.368308 155.632811 
L 268.018918 155.632811 
L 268.669528 155.632811 
L 269.320138 155.632811 
L 269.970749 155.632811 
L 270.621359 155.632811 
L 271.271969 155.632811 
L 271.92258 155.632811 
L 272.57319 155.632811 
L 273.2238 155.632811 
L 273.874411 155.632811 
L 274.525021 155.632811 
L 275.175631 155.632811 
L 275.826242 155.632811 
L 276.476852 155.632811 
L 277.127462 155.632811 
L 277.778073 155.632811 
L 278.428683 155.632811 
L 279.079293 155.632811 
L 279.729903 155.632811 
L 280.380514 155.632811 
L 281.031124 155.632811 
L 281.681734 155.632811 
L 282.332345 155.632811 
L 282.982955 155.632811 
L 283.633565 155.632811 
L 284.284176 155.632811 
L 284.934786 155.632811 
L 285.585396 155.632811 
L 286.236007 155.632811 
L 286.886617 155.632811 
L 287.537227 155.632811 
L 288.187837 155.632811 
L 288.838448 155.632811 
L 289.489058 155.632811 
L 290.139668 155.632811 
L 290.790279 155.632811 
L 291.440889 155.632811 
L 292.091499 155.632811 
L 292.74211 155.632811 
L 293.39272 155.632811 
L 294.04333 155.632811 
L 294.693941 155.632811 
L 295.344551 155.632811 
L 295.995161 155.632811 
L 296.645772 155.632811 
L 297.296382 155.632811 
L 297.946992 155.632811 
L 298.597602 155.632811 
L 299.248213 155.632811 
L 299.898823 155.632811 
L 300.549433 155.632811 
L 301.200044 155.632811 
L 301.850654 155.632811 
L 302.501264 155.632811 
L 303.151875 155.632811 
L 303.802485 155.632811 
L 304.453095 155.632811 
L 305.103706 155.632811 
L 305.754316 155.632811 
L 306.404926 155.632811 
L 307.055537 155.632811 
L 307.706147 155.632811 
L 308.356757 155.632811 
L 309.007367 155.632811 
L 309.657978 155.632811 
L 310.308588 155.632811 
L 310.959198 155.632811 
L 311.609809 155.632811 
L 312.260419 155.632811 
L 312.911029 155.632811 
L 313.56164 155.632811 
L 314.21225 155.632811 
L 314.86286 155.632811 
L 315.513471 155.632811 
L 316.164081 155.632811 
L 316.814691 155.632811 
L 317.465302 155.632811 
L 318.115912 155.632811 
L 318.766522 155.632811 
L 319.417132 155.632811 
L 320.067743 155.632811 
L 320.718353 155.632811 
L 321.368963 155.632811 
L 322.019574 155.632811 
L 322.670184 155.632811 
L 323.320794 155.632811 
L 323.971405 155.632811 
L 324.622015 155.632811 
L 325.272625 155.632811 
L 325.923236 155.632811 
L 326.573846 155.632811 
L 327.224456 155.632811 
L 327.875066 155.632811 
L 328.525677 155.632811 
L 329.176287 155.632811 
L 329.826897 155.632811 
L 330.477508 155.632811 
L 331.128118 155.632811 
L 331.778728 155.632811 
L 332.429339 155.632811 
L 333.079949 155.632811 
L 333.730559 155.632811 
L 334.38117 155.632811 
L 335.03178 155.632811 
L 335.68239 155.632811 
L 336.333001 155.632811 
L 336.983611 155.632811 
L 337.634221 155.632811 
L 338.284831 155.632811 
L 338.935442 155.632811 
L 339.586052 155.632811 
L 340.236662 155.632811 
L 340.887273 155.632811 
L 340.887273 148.365111 
L 340.887273 148.365111 
L 340.236662 148.488341 
L 339.586052 148.611571 
L 338.935442 148.734801 
L 338.284831 148.858031 
L 337.634221 148.981261 
L 336.983611 149.104491 
L 336.333001 149.227721 
L 335.68239 149.350951 
L 335.03178 149.474181 
L 334.38117 149.597411 
L 333.730559 149.720641 
L 333.079949 149.843871 
L 332.429339 149.967101 
L 331.778728 150.090331 
L 331.128118 150.213561 
L 330.477508 150.336791 
L 329.826897 150.460021 
L 329.176287 150.481932 
L 328.525677 150.449172 
L 327.875066 150.416411 
L 327.224456 150.38365 
L 326.573846 150.350889 
L 325.923236 150.318128 
L 325.272625 150.285367 
L 324.622015 150.252606 
L 323.971405 150.219845 
L 323.320794 150.187085 
L 322.670184 150.154324 
L 322.019574 150.121563 
L 321.368963 150.088802 
L 320.718353 150.056041 
L 320.067743 150.02328 
L 319.417132 149.990519 
L 318.766522 149.957758 
L 318.115912 149.924998 
L 317.465302 149.892237 
L 316.814691 149.859476 
L 316.164081 149.856912 
L 315.513471 149.881896 
L 314.86286 149.90688 
L 314.21225 149.931863 
L 313.56164 149.956847 
L 312.911029 149.98183 
L 312.260419 150.006814 
L 311.609809 150.031798 
L 310.959198 150.056781 
L 310.308588 150.081765 
L 309.657978 150.106748 
L 309.007367 150.131732 
L 308.356757 150.156715 
L 307.706147 150.181699 
L 307.055537 150.206683 
L 306.404926 150.231666 
L 305.754316 150.25665 
L 305.103706 150.242262 
L 304.453095 150.038953 
L 303.802485 149.835645 
L 303.151875 149.632336 
L 302.501264 149.429028 
L 301.850654 149.225719 
L 301.200044 149.022411 
L 300.549433 148.819102 
L 299.898823 148.615794 
L 299.248213 148.412485 
L 298.597602 148.209177 
L 297.946992 148.005868 
L 297.296382 147.80256 
L 296.645772 147.599251 
L 295.995161 147.395943 
L 295.344551 147.192634 
L 294.693941 146.989326 
L 294.04333 146.786017 
L 293.39272 146.814966 
L 292.74211 146.894218 
L 292.091499 146.973471 
L 291.440889 147.052723 
L 290.790279 147.131975 
L 290.139668 147.211227 
L 289.489058 147.290479 
L 288.838448 147.369731 
L 288.187837 147.448984 
L 287.537227 147.528236 
L 286.886617 147.607488 
L 286.236007 147.68674 
L 285.585396 147.765992 
L 284.934786 147.845244 
L 284.284176 147.924496 
L 283.633565 148.003749 
L 282.982955 148.083001 
L 282.332345 148.162253 
L 281.681734 148.241505 
L 281.031124 148.320757 
L 280.380514 148.414963 
L 279.729903 148.515719 
L 279.079293 148.616475 
L 278.428683 148.717231 
L 277.778073 148.817986 
L 277.127462 148.918742 
L 276.476852 149.019498 
L 275.826242 149.120254 
L 275.175631 149.22101 
L 274.525021 149.321766 
L 273.874411 149.422521 
L 273.2238 149.523277 
L 272.57319 149.624033 
L 271.92258 149.724789 
L 271.271969 149.825545 
L 270.621359 149.9263 
L 269.970749 150.027056 
L 269.320138 150.098864 
L 268.669528 150.115695 
L 268.018918 150.132526 
L 267.368308 150.149357 
L 266.717697 150.166187 
L 266.067087 150.183018 
L 265.416477 150.199849 
L 264.765866 150.21668 
L 264.115256 150.233511 
L 263.464646 150.250341 
L 262.814035 150.267172 
L 262.163425 150.284003 
L 261.512815 150.300834 
L 260.862204 150.317664 
L 260.211594 150.334495 
L 259.560984 150.351326 
L 258.910373 150.368157 
L 258.259763 150.384988 
L 257.609153 150.401818 
L 256.958543 150.418649 
L 256.307932 150.462012 
L 255.657322 150.600349 
L 255.006712 150.738686 
L 254.356101 150.877023 
L 253.705491 151.01536 
L 253.054881 151.153697 
L 252.40427 151.292034 
L 251.75366 151.430371 
L 251.10305 151.568708 
L 250.452439 151.707045 
L 249.801829 151.845382 
L 249.151219 151.983719 
L 248.500608 152.122056 
L 247.849998 152.260393 
L 247.199388 152.398731 
L 246.548778 152.537068 
L 245.898167 152.675405 
L 245.247557 152.813742 
L 244.596947 152.750324 
L 243.946336 152.65619 
L 243.295726 152.562057 
L 242.645116 152.467923 
L 241.994505 152.373789 
L 241.343895 152.279656 
L 240.693285 152.185522 
L 240.042674 152.091389 
L 239.392064 151.997255 
L 238.741454 151.903121 
L 238.090844 151.808988 
L 237.440233 151.714854 
L 236.789623 151.620721 
L 236.139013 151.526587 
L 235.488402 151.432453 
L 234.837792 151.33832 
L 234.187182 151.244186 
L 233.536571 151.171292 
L 232.885961 151.118211 
L 232.235351 151.06513 
L 231.58474 151.012049 
L 230.93413 150.958968 
L 230.28352 150.905887 
L 229.632909 150.852806 
L 228.982299 150.799725 
L 228.331689 150.746643 
L 227.681079 150.693562 
L 227.030468 150.640481 
L 226.379858 150.5874 
L 225.729248 150.534319 
L 225.078637 150.481238 
L 224.428027 150.428157 
L 223.777417 150.375076 
L 223.126806 150.321995 
L 222.476196 150.268914 
L 221.825586 150.215832 
L 221.174975 150.162751 
L 220.524365 150.10967 
L 219.873755 149.98807 
L 219.223144 149.836655 
L 218.572534 149.685239 
L 217.921924 149.533824 
L 217.271314 149.382409 
L 216.620703 149.230994 
L 215.970093 149.079578 
L 215.319483 148.928163 
L 214.668872 148.776748 
L 214.018262 148.625333 
L 213.367652 148.473918 
L 212.717041 148.322502 
L 212.066431 148.171087 
L 211.415821 148.019672 
L 210.76521 147.868257 
L 210.1146 147.716841 
L 209.46399 147.565426 
L 208.813379 147.545737 
L 208.162769 147.774688 
L 207.512159 148.003639 
L 206.861549 148.232589 
L 206.210938 148.46154 
L 205.560328 148.690491 
L 204.909718 148.919442 
L 204.259107 149.148392 
L 203.608497 149.377343 
L 202.957887 149.606294 
L 202.307276 149.835245 
L 201.656666 150.064195 
L 201.006056 150.293146 
L 200.355445 150.522097 
L 199.704835 150.751047 
L 199.054225 150.979998 
L 198.403615 151.208949 
L 197.753004 151.4379 
L 197.102394 151.66685 
L 196.451784 151.895801 
L 195.801173 151.941732 
L 195.150563 151.337827 
L 194.499953 150.733921 
L 193.849342 150.130016 
L 193.198732 149.526111 
L 192.548122 148.922206 
L 191.897511 148.318301 
L 191.246901 147.714395 
L 190.596291 147.11049 
L 189.94568 146.506585 
L 189.29507 145.90268 
L 188.64446 145.298775 
L 187.99385 144.69487 
L 187.343239 144.090964 
L 186.692629 143.487059 
L 186.042019 142.883154 
L 185.391408 142.279249 
L 184.740798 141.675344 
L 184.090188 141.355505 
L 183.439577 141.078391 
L 182.788967 140.801276 
L 182.138357 140.524161 
L 181.487746 140.247046 
L 180.837136 139.969932 
L 180.186526 139.692817 
L 179.535915 139.415702 
L 178.885305 139.138588 
L 178.234695 138.861473 
L 177.584085 138.584358 
L 176.933474 138.307244 
L 176.282864 138.030129 
L 175.632254 137.753014 
L 174.981643 137.475899 
L 174.331033 137.198785 
L 173.680423 136.92167 
L 173.029812 136.726906 
L 172.379202 136.60853 
L 171.728592 136.490155 
L 171.077981 136.37178 
L 170.427371 136.253404 
L 169.776761 136.135029 
L 169.12615 136.016654 
L 168.47554 135.898278 
L 167.82493 135.779903 
L 167.17432 135.661528 
L 166.523709 135.543152 
L 165.873099 135.424777 
L 165.222489 135.306402 
L 164.571878 135.188027 
L 163.921268 135.069651 
L 163.270658 134.951276 
L 162.620047 134.832901 
L 161.969437 134.714525 
L 161.318827 134.59615 
L 160.668216 134.477775 
L 160.017606 134.202001 
L 159.366996 133.682315 
L 158.716385 133.162629 
L 158.065775 132.642943 
L 157.415165 132.123257 
L 156.764555 131.603571 
L 156.113944 131.083885 
L 155.463334 130.564199 
L 154.812724 130.044513 
L 154.162113 129.524827 
L 153.511503 129.005141 
L 152.860893 128.485455 
L 152.210282 127.965769 
L 151.559672 127.446083 
L 150.909062 126.926397 
L 150.258451 126.406712 
L 149.607841 125.887026 
L 148.957231 125.404822 
L 148.306621 125.783455 
L 147.65601 126.162089 
L 147.0054 126.540722 
L 146.35479 126.919356 
L 145.704179 127.29799 
L 145.053569 127.676623 
L 144.402959 128.055257 
L 143.752348 128.43389 
L 143.101738 128.812524 
L 142.451128 129.191158 
L 141.800517 129.569791 
L 141.149907 129.948425 
L 140.499297 130.327058 
L 139.848686 130.705692 
L 139.198076 131.084326 
L 138.547466 131.462959 
L 137.896856 131.841593 
L 137.246245 132.220227 
L 136.595635 132.59886 
L 135.945025 132.977494 
L 135.294414 133.02115 
L 134.643804 133.033752 
L 133.993194 133.046354 
L 133.342583 133.058955 
L 132.691973 133.071557 
L 132.041363 133.084159 
L 131.390752 133.096761 
L 130.740142 133.109363 
L 130.089532 133.121965 
L 129.438921 133.134567 
L 128.788311 133.147169 
L 128.137701 133.159771 
L 127.487091 133.172373 
L 126.83648 133.184975 
L 126.18587 133.197576 
L 125.53526 133.210178 
L 124.884649 133.22278 
L 124.234039 132.876575 
L 123.583429 132.253753 
L 122.932818 131.63093 
L 122.282208 131.008107 
L 121.631598 130.385285 
L 120.980987 129.762462 
L 120.330377 129.13964 
L 119.679767 128.516817 
L 119.029156 127.893995 
L 118.378546 127.271172 
L 117.727936 126.64835 
L 117.077326 126.025527 
L 116.426715 125.402704 
L 115.776105 124.779882 
L 115.125495 124.157059 
L 114.474884 123.534237 
L 113.824274 122.911414 
L 113.173664 122.465098 
L 112.523053 122.666355 
L 111.872443 122.867612 
L 111.221833 123.068869 
L 110.571222 123.270126 
L 109.920612 123.471383 
L 109.270002 123.67264 
L 108.619392 123.873897 
L 107.968781 124.075154 
L 107.318171 124.276411 
L 106.667561 124.477667 
L 106.01695 124.678924 
L 105.36634 124.880181 
L 104.71573 125.081438 
L 104.065119 125.282695 
L 103.414509 125.483952 
L 102.763899 125.685209 
L 102.113288 125.886466 
L 101.462678 126.087723 
L 100.812068 126.28898 
L 100.161457 126.483202 
L 99.510847 126.60417 
L 98.860237 126.725138 
L 98.209627 126.846106 
L 97.559016 126.967074 
L 96.908406 127.088042 
L 96.257796 127.20901 
L 95.607185 127.329978 
L 94.956575 127.450946 
L 94.305965 127.571914 
L 93.655354 127.692882 
L 93.004744 127.81385 
L 92.354134 127.934818 
L 91.703523 128.055786 
L 91.052913 128.176754 
L 90.402303 128.297722 
L 89.751692 128.41869 
L 89.101082 128.539658 
L 88.450472 128.700563 
L 87.799862 129.747827 
L 87.149251 130.79509 
L 86.498641 131.842354 
L 85.848031 132.889618 
L 85.19742 133.936881 
L 84.54681 134.984145 
L 83.8962 136.031408 
L 83.245589 137.078672 
L 82.594979 138.125936 
L 81.944369 139.173199 
L 81.293758 140.220463 
L 80.643148 141.267727 
L 79.992538 142.31499 
L 79.341927 143.362254 
L 78.691317 144.409517 
L 78.040707 145.456781 
L 77.390097 146.504045 
L 76.739486 147.551308 
L 76.088876 148.598572 
L 75.438266 149.645835 
L 74.787655 149.782314 
L 74.137045 149.835869 
L 73.486435 149.889423 
L 72.835824 149.942978 
L 72.185214 149.996532 
L 71.534604 150.050087 
L 70.883993 150.103641 
L 70.233383 150.157196 
L 69.582773 150.21075 
L 68.932163 150.264305 
L 68.281552 150.317859 
L 67.630942 150.371413 
L 66.980332 150.424968 
L 66.329721 150.478522 
L 65.679111 150.532077 
L 65.028501 150.585631 
L 64.37789 150.639186 
L 63.72728 150.665476 
L 63.07667 150.670865 
L 62.426059 150.676254 
L 61.775449 150.681643 
L 61.124839 150.687032 
L 60.474228 150.692421 
L 59.823618 150.69781 
L 59.173008 150.703199 
L 58.522398 150.708588 
L 57.871787 150.713977 
L 57.221177 150.719366 
L 56.570567 150.724755 
L 55.919956 150.730144 
L 55.269346 150.735533 
L 54.618736 150.740922 
L 53.968125 150.746311 
L 53.317515 150.7517 
L 52.666905 150.759263 
L 52.016294 150.774735 
L 51.365684 150.790208 
L 50.715074 150.80568 
L 50.064463 150.821153 
L 49.413853 150.836626 
L 48.763243 150.852098 
L 48.112633 150.867571 
L 47.462022 150.883043 
L 46.811412 150.898516 
L 46.160802 150.913988 
L 45.510191 150.929461 
L 44.859581 150.944933 
L 44.208971 150.960406 
L 43.55836 150.975879 
L 42.90775 150.991351 
L 42.25714 151.006824 
L 41.606529 151.022296 
L 40.955919 151.037769 
L 40.305309 151.053241 
L 39.654698 151.061282 
L 39.004088 150.993265 
L 38.353478 150.925248 
L 37.702868 150.85723 
L 37.052257 150.789213 
L 36.401647 150.721195 
L 35.751037 150.653178 
L 35.100426 150.585161 
L 34.449816 150.517143 
L 33.799206 150.449126 
L 33.148595 150.381108 
L 32.497985 150.313091 
L 31.847375 150.245074 
L 31.196764 150.177056 
L 30.546154 150.109039 
L 29.895544 150.041021 
L 29.244934 149.973004 
L 28.594323 149.904987 
L 27.943713 149.880792 
L 27.293103 149.872112 
L 26.642492 149.863433 
L 25.991882 149.854754 
L 25.341272 149.846074 
L 24.690661 149.837395 
L 24.040051 149.828715 
L 23.389441 149.820036 
L 22.73883 149.811357 
L 22.08822 149.802677 
L 21.43761 149.793998 
L 20.786999 149.785318 
L 20.136389 149.776639 
L 19.485779 149.76796 
L 18.835169 149.75928 
L 18.184558 149.750601 
L 17.533948 149.741921 
L 16.883338 149.733242 
L 16.232727 149.724563 
z
" style="fill:#f6ed22;fill-opacity:0.3;"/>
   </g>
   <g id="PolyCollection_3">
    <path clip-path="url(#p5957112844)" d="M 16.232727 150.123899 
L 16.232727 155.632811 
L 16.883338 155.632811 
L 17.533948 155.632811 
L 18.184558 155.632811 
L 18.835169 155.632811 
L 19.485779 155.632811 
L 20.136389 155.632811 
L 20.786999 155.632811 
L 21.43761 155.632811 
L 22.08822 155.632811 
L 22.73883 155.632811 
L 23.389441 155.632811 
L 24.040051 155.632811 
L 24.690661 155.632811 
L 25.341272 155.632811 
L 25.991882 155.632811 
L 26.642492 155.632811 
L 27.293103 155.632811 
L 27.943713 155.632811 
L 28.594323 155.632811 
L 29.244934 155.632811 
L 29.895544 155.632811 
L 30.546154 155.632811 
L 31.196764 155.632811 
L 31.847375 155.632811 
L 32.497985 155.632811 
L 33.148595 155.632811 
L 33.799206 155.632811 
L 34.449816 155.632811 
L 35.100426 155.632811 
L 35.751037 155.632811 
L 36.401647 155.632811 
L 37.052257 155.632811 
L 37.702868 155.632811 
L 38.353478 155.632811 
L 39.004088 155.632811 
L 39.654698 155.632811 
L 40.305309 155.632811 
L 40.955919 155.632811 
L 41.606529 155.632811 
L 42.25714 155.632811 
L 42.90775 155.632811 
L 43.55836 155.632811 
L 44.208971 155.632811 
L 44.859581 155.632811 
L 45.510191 155.632811 
L 46.160802 155.632811 
L 46.811412 155.632811 
L 47.462022 155.632811 
L 48.112633 155.632811 
L 48.763243 155.632811 
L 49.413853 155.632811 
L 50.064463 155.632811 
L 50.715074 155.632811 
L 51.365684 155.632811 
L 52.016294 155.632811 
L 52.666905 155.632811 
L 53.317515 155.632811 
L 53.968125 155.632811 
L 54.618736 155.632811 
L 55.269346 155.632811 
L 55.919956 155.632811 
L 56.570567 155.632811 
L 57.221177 155.632811 
L 57.871787 155.632811 
L 58.522398 155.632811 
L 59.173008 155.632811 
L 59.823618 155.632811 
L 60.474228 155.632811 
L 61.124839 155.632811 
L 61.775449 155.632811 
L 62.426059 155.632811 
L 63.07667 155.632811 
L 63.72728 155.632811 
L 64.37789 155.632811 
L 65.028501 155.632811 
L 65.679111 155.632811 
L 66.329721 155.632811 
L 66.980332 155.632811 
L 67.630942 155.632811 
L 68.281552 155.632811 
L 68.932163 155.632811 
L 69.582773 155.632811 
L 70.233383 155.632811 
L 70.883993 155.632811 
L 71.534604 155.632811 
L 72.185214 155.632811 
L 72.835824 155.632811 
L 73.486435 155.632811 
L 74.137045 155.632811 
L 74.787655 155.632811 
L 75.438266 155.632811 
L 76.088876 155.632811 
L 76.739486 155.632811 
L 77.390097 155.632811 
L 78.040707 155.632811 
L 78.691317 155.632811 
L 79.341927 155.632811 
L 79.992538 155.632811 
L 80.643148 155.632811 
L 81.293758 155.632811 
L 81.944369 155.632811 
L 82.594979 155.632811 
L 83.245589 155.632811 
L 83.8962 155.632811 
L 84.54681 155.632811 
L 85.19742 155.632811 
L 85.848031 155.632811 
L 86.498641 155.632811 
L 87.149251 155.632811 
L 87.799862 155.632811 
L 88.450472 155.632811 
L 89.101082 155.632811 
L 89.751692 155.632811 
L 90.402303 155.632811 
L 91.052913 155.632811 
L 91.703523 155.632811 
L 92.354134 155.632811 
L 93.004744 155.632811 
L 93.655354 155.632811 
L 94.305965 155.632811 
L 94.956575 155.632811 
L 95.607185 155.632811 
L 96.257796 155.632811 
L 96.908406 155.632811 
L 97.559016 155.632811 
L 98.209627 155.632811 
L 98.860237 155.632811 
L 99.510847 155.632811 
L 100.161457 155.632811 
L 100.812068 155.632811 
L 101.462678 155.632811 
L 102.113288 155.632811 
L 102.763899 155.632811 
L 103.414509 155.632811 
L 104.065119 155.632811 
L 104.71573 155.632811 
L 105.36634 155.632811 
L 106.01695 155.632811 
L 106.667561 155.632811 
L 107.318171 155.632811 
L 107.968781 155.632811 
L 108.619392 155.632811 
L 109.270002 155.632811 
L 109.920612 155.632811 
L 110.571222 155.632811 
L 111.221833 155.632811 
L 111.872443 155.632811 
L 112.523053 155.632811 
L 113.173664 155.632811 
L 113.824274 155.632811 
L 114.474884 155.632811 
L 115.125495 155.632811 
L 115.776105 155.632811 
L 116.426715 155.632811 
L 117.077326 155.632811 
L 117.727936 155.632811 
L 118.378546 155.632811 
L 119.029156 155.632811 
L 119.679767 155.632811 
L 120.330377 155.632811 
L 120.980987 155.632811 
L 121.631598 155.632811 
L 122.282208 155.632811 
L 122.932818 155.632811 
L 123.583429 155.632811 
L 124.234039 155.632811 
L 124.884649 155.632811 
L 125.53526 155.632811 
L 126.18587 155.632811 
L 126.83648 155.632811 
L 127.487091 155.632811 
L 128.137701 155.632811 
L 128.788311 155.632811 
L 129.438921 155.632811 
L 130.089532 155.632811 
L 130.740142 155.632811 
L 131.390752 155.632811 
L 132.041363 155.632811 
L 132.691973 155.632811 
L 133.342583 155.632811 
L 133.993194 155.632811 
L 134.643804 155.632811 
L 135.294414 155.632811 
L 135.945025 155.632811 
L 136.595635 155.632811 
L 137.246245 155.632811 
L 137.896856 155.632811 
L 138.547466 155.632811 
L 139.198076 155.632811 
L 139.848686 155.632811 
L 140.499297 155.632811 
L 141.149907 155.632811 
L 141.800517 155.632811 
L 142.451128 155.632811 
L 143.101738 155.632811 
L 143.752348 155.632811 
L 144.402959 155.632811 
L 145.053569 155.632811 
L 145.704179 155.632811 
L 146.35479 155.632811 
L 147.0054 155.632811 
L 147.65601 155.632811 
L 148.306621 155.632811 
L 148.957231 155.632811 
L 149.607841 155.632811 
L 150.258451 155.632811 
L 150.909062 155.632811 
L 151.559672 155.632811 
L 152.210282 155.632811 
L 152.860893 155.632811 
L 153.511503 155.632811 
L 154.162113 155.632811 
L 154.812724 155.632811 
L 155.463334 155.632811 
L 156.113944 155.632811 
L 156.764555 155.632811 
L 157.415165 155.632811 
L 158.065775 155.632811 
L 158.716385 155.632811 
L 159.366996 155.632811 
L 160.017606 155.632811 
L 160.668216 155.632811 
L 161.318827 155.632811 
L 161.969437 155.632811 
L 162.620047 155.632811 
L 163.270658 155.632811 
L 163.921268 155.632811 
L 164.571878 155.632811 
L 165.222489 155.632811 
L 165.873099 155.632811 
L 166.523709 155.632811 
L 167.17432 155.632811 
L 167.82493 155.632811 
L 168.47554 155.632811 
L 169.12615 155.632811 
L 169.776761 155.632811 
L 170.427371 155.632811 
L 171.077981 155.632811 
L 171.728592 155.632811 
L 172.379202 155.632811 
L 173.029812 155.632811 
L 173.680423 155.632811 
L 174.331033 155.632811 
L 174.981643 155.632811 
L 175.632254 155.632811 
L 176.282864 155.632811 
L 176.933474 155.632811 
L 177.584085 155.632811 
L 178.234695 155.632811 
L 178.885305 155.632811 
L 179.535915 155.632811 
L 180.186526 155.632811 
L 180.837136 155.632811 
L 181.487746 155.632811 
L 182.138357 155.632811 
L 182.788967 155.632811 
L 183.439577 155.632811 
L 184.090188 155.632811 
L 184.740798 155.632811 
L 185.391408 155.632811 
L 186.042019 155.632811 
L 186.692629 155.632811 
L 187.343239 155.632811 
L 187.99385 155.632811 
L 188.64446 155.632811 
L 189.29507 155.632811 
L 189.94568 155.632811 
L 190.596291 155.632811 
L 191.246901 155.632811 
L 191.897511 155.632811 
L 192.548122 155.632811 
L 193.198732 155.632811 
L 193.849342 155.632811 
L 194.499953 155.632811 
L 195.150563 155.632811 
L 195.801173 155.632811 
L 196.451784 155.632811 
L 197.102394 155.632811 
L 197.753004 155.632811 
L 198.403615 155.632811 
L 199.054225 155.632811 
L 199.704835 155.632811 
L 200.355445 155.632811 
L 201.006056 155.632811 
L 201.656666 155.632811 
L 202.307276 155.632811 
L 202.957887 155.632811 
L 203.608497 155.632811 
L 204.259107 155.632811 
L 204.909718 155.632811 
L 205.560328 155.632811 
L 206.210938 155.632811 
L 206.861549 155.632811 
L 207.512159 155.632811 
L 208.162769 155.632811 
L 208.813379 155.632811 
L 209.46399 155.632811 
L 210.1146 155.632811 
L 210.76521 155.632811 
L 211.415821 155.632811 
L 212.066431 155.632811 
L 212.717041 155.632811 
L 213.367652 155.632811 
L 214.018262 155.632811 
L 214.668872 155.632811 
L 215.319483 155.632811 
L 215.970093 155.632811 
L 216.620703 155.632811 
L 217.271314 155.632811 
L 217.921924 155.632811 
L 218.572534 155.632811 
L 219.223144 155.632811 
L 219.873755 155.632811 
L 220.524365 155.632811 
L 221.174975 155.632811 
L 221.825586 155.632811 
L 222.476196 155.632811 
L 223.126806 155.632811 
L 223.777417 155.632811 
L 224.428027 155.632811 
L 225.078637 155.632811 
L 225.729248 155.632811 
L 226.379858 155.632811 
L 227.030468 155.632811 
L 227.681079 155.632811 
L 228.331689 155.632811 
L 228.982299 155.632811 
L 229.632909 155.632811 
L 230.28352 155.632811 
L 230.93413 155.632811 
L 231.58474 155.632811 
L 232.235351 155.632811 
L 232.885961 155.632811 
L 233.536571 155.632811 
L 234.187182 155.632811 
L 234.837792 155.632811 
L 235.488402 155.632811 
L 236.139013 155.632811 
L 236.789623 155.632811 
L 237.440233 155.632811 
L 238.090844 155.632811 
L 238.741454 155.632811 
L 239.392064 155.632811 
L 240.042674 155.632811 
L 240.693285 155.632811 
L 241.343895 155.632811 
L 241.994505 155.632811 
L 242.645116 155.632811 
L 243.295726 155.632811 
L 243.946336 155.632811 
L 244.596947 155.632811 
L 245.247557 155.632811 
L 245.898167 155.632811 
L 246.548778 155.632811 
L 247.199388 155.632811 
L 247.849998 155.632811 
L 248.500608 155.632811 
L 249.151219 155.632811 
L 249.801829 155.632811 
L 250.452439 155.632811 
L 251.10305 155.632811 
L 251.75366 155.632811 
L 252.40427 155.632811 
L 253.054881 155.632811 
L 253.705491 155.632811 
L 254.356101 155.632811 
L 255.006712 155.632811 
L 255.657322 155.632811 
L 256.307932 155.632811 
L 256.958543 155.632811 
L 257.609153 155.632811 
L 258.259763 155.632811 
L 258.910373 155.632811 
L 259.560984 155.632811 
L 260.211594 155.632811 
L 260.862204 155.632811 
L 261.512815 155.632811 
L 262.163425 155.632811 
L 262.814035 155.632811 
L 263.464646 155.632811 
L 264.115256 155.632811 
L 264.765866 155.632811 
L 265.416477 155.632811 
L 266.067087 155.632811 
L 266.717697 155.632811 
L 267.368308 155.632811 
L 268.018918 155.632811 
L 268.669528 155.632811 
L 269.320138 155.632811 
L 269.970749 155.632811 
L 270.621359 155.632811 
L 271.271969 155.632811 
L 271.92258 155.632811 
L 272.57319 155.632811 
L 273.2238 155.632811 
L 273.874411 155.632811 
L 274.525021 155.632811 
L 275.175631 155.632811 
L 275.826242 155.632811 
L 276.476852 155.632811 
L 277.127462 155.632811 
L 277.778073 155.632811 
L 278.428683 155.632811 
L 279.079293 155.632811 
L 279.729903 155.632811 
L 280.380514 155.632811 
L 281.031124 155.632811 
L 281.681734 155.632811 
L 282.332345 155.632811 
L 282.982955 155.632811 
L 283.633565 155.632811 
L 284.284176 155.632811 
L 284.934786 155.632811 
L 285.585396 155.632811 
L 286.236007 155.632811 
L 286.886617 155.632811 
L 287.537227 155.632811 
L 288.187837 155.632811 
L 288.838448 155.632811 
L 289.489058 155.632811 
L 290.139668 155.632811 
L 290.790279 155.632811 
L 291.440889 155.632811 
L 292.091499 155.632811 
L 292.74211 155.632811 
L 293.39272 155.632811 
L 294.04333 155.632811 
L 294.693941 155.632811 
L 295.344551 155.632811 
L 295.995161 155.632811 
L 296.645772 155.632811 
L 297.296382 155.632811 
L 297.946992 155.632811 
L 298.597602 155.632811 
L 299.248213 155.632811 
L 299.898823 155.632811 
L 300.549433 155.632811 
L 301.200044 155.632811 
L 301.850654 155.632811 
L 302.501264 155.632811 
L 303.151875 155.632811 
L 303.802485 155.632811 
L 304.453095 155.632811 
L 305.103706 155.632811 
L 305.754316 155.632811 
L 306.404926 155.632811 
L 307.055537 155.632811 
L 307.706147 155.632811 
L 308.356757 155.632811 
L 309.007367 155.632811 
L 309.657978 155.632811 
L 310.308588 155.632811 
L 310.959198 155.632811 
L 311.609809 155.632811 
L 312.260419 155.632811 
L 312.911029 155.632811 
L 313.56164 155.632811 
L 314.21225 155.632811 
L 314.86286 155.632811 
L 315.513471 155.632811 
L 316.164081 155.632811 
L 316.814691 155.632811 
L 317.465302 155.632811 
L 318.115912 155.632811 
L 318.766522 155.632811 
L 319.417132 155.632811 
L 320.067743 155.632811 
L 320.718353 155.632811 
L 321.368963 155.632811 
L 322.019574 155.632811 
L 322.670184 155.632811 
L 323.320794 155.632811 
L 323.971405 155.632811 
L 324.622015 155.632811 
L 325.272625 155.632811 
L 325.923236 155.632811 
L 326.573846 155.632811 
L 327.224456 155.632811 
L 327.875066 155.632811 
L 328.525677 155.632811 
L 329.176287 155.632811 
L 329.826897 155.632811 
L 330.477508 155.632811 
L 331.128118 155.632811 
L 331.778728 155.632811 
L 332.429339 155.632811 
L 333.079949 155.632811 
L 333.730559 155.632811 
L 334.38117 155.632811 
L 335.03178 155.632811 
L 335.68239 155.632811 
L 336.333001 155.632811 
L 336.983611 155.632811 
L 337.634221 155.632811 
L 338.284831 155.632811 
L 338.935442 155.632811 
L 339.586052 155.632811 
L 340.236662 155.632811 
L 340.887273 155.632811 
L 340.887273 134.935492 
L 340.887273 134.935492 
L 340.236662 135.613183 
L 339.586052 136.290873 
L 338.935442 136.968563 
L 338.284831 137.646253 
L 337.634221 138.323944 
L 336.983611 139.001634 
L 336.333001 139.679324 
L 335.68239 140.357015 
L 335.03178 141.034705 
L 334.38117 141.712395 
L 333.730559 142.390085 
L 333.079949 143.067776 
L 332.429339 143.745466 
L 331.778728 144.423156 
L 331.128118 145.100846 
L 330.477508 145.778537 
L 329.826897 146.456227 
L 329.176287 146.230897 
L 328.525677 145.518285 
L 327.875066 144.805673 
L 327.224456 144.093061 
L 326.573846 143.380449 
L 325.923236 142.667837 
L 325.272625 141.955225 
L 324.622015 141.242613 
L 323.971405 140.53 
L 323.320794 139.817388 
L 322.670184 139.104776 
L 322.019574 138.392164 
L 321.368963 137.679552 
L 320.718353 136.96694 
L 320.067743 136.254328 
L 319.417132 135.541716 
L 318.766522 134.829103 
L 318.115912 134.116491 
L 317.465302 133.403879 
L 316.814691 132.691267 
L 316.164081 132.674105 
L 315.513471 133.291356 
L 314.86286 133.908607 
L 314.21225 134.525858 
L 313.56164 135.143109 
L 312.911029 135.76036 
L 312.260419 136.377611 
L 311.609809 136.994862 
L 310.959198 137.612112 
L 310.308588 138.229363 
L 309.657978 138.846614 
L 309.007367 139.463865 
L 308.356757 140.081116 
L 307.706147 140.698367 
L 307.055537 141.315618 
L 306.404926 141.932869 
L 305.754316 142.55012 
L 305.103706 142.999012 
L 304.453095 142.640048 
L 303.802485 142.281085 
L 303.151875 141.922122 
L 302.501264 141.563159 
L 301.850654 141.204196 
L 301.200044 140.845233 
L 300.549433 140.48627 
L 299.898823 140.127307 
L 299.248213 139.768344 
L 298.597602 139.409381 
L 297.946992 139.050418 
L 297.296382 138.691455 
L 296.645772 138.332492 
L 295.995161 137.973529 
L 295.344551 137.614566 
L 294.693941 137.255603 
L 294.04333 136.89664 
L 293.39272 137.217637 
L 292.74211 137.685902 
L 292.091499 138.154166 
L 291.440889 138.622431 
L 290.790279 139.090695 
L 290.139668 139.55896 
L 289.489058 140.027224 
L 288.838448 140.495489 
L 288.187837 140.963753 
L 287.537227 141.432018 
L 286.886617 141.900282 
L 286.236007 142.368547 
L 285.585396 142.836812 
L 284.934786 143.305076 
L 284.284176 143.773341 
L 283.633565 144.241605 
L 282.982955 144.70987 
L 282.332345 145.178134 
L 281.681734 145.646399 
L 281.031124 146.114663 
L 280.380514 146.038639 
L 279.729903 145.724217 
L 279.079293 145.409794 
L 278.428683 145.095371 
L 277.778073 144.780949 
L 277.127462 144.466526 
L 276.476852 144.152104 
L 275.826242 143.837681 
L 275.175631 143.523259 
L 274.525021 143.208836 
L 273.874411 142.894414 
L 273.2238 142.579991 
L 272.57319 142.265569 
L 271.92258 141.951146 
L 271.271969 141.636724 
L 270.621359 141.322301 
L 269.970749 141.007879 
L 269.320138 140.547496 
L 268.669528 139.809906 
L 268.018918 139.072316 
L 267.368308 138.334726 
L 266.717697 137.597136 
L 266.067087 136.859547 
L 265.416477 136.121957 
L 264.765866 135.384367 
L 264.115256 134.646777 
L 263.464646 133.909187 
L 262.814035 133.171598 
L 262.163425 132.434008 
L 261.512815 131.696418 
L 260.862204 130.958828 
L 260.211594 130.221238 
L 259.560984 129.483649 
L 258.910373 128.746059 
L 258.259763 128.008469 
L 257.609153 127.270879 
L 256.958543 126.533289 
L 256.307932 126.119029 
L 255.657322 126.862164 
L 255.006712 127.605299 
L 254.356101 128.348434 
L 253.705491 129.091569 
L 253.054881 129.834704 
L 252.40427 130.577838 
L 251.75366 131.320973 
L 251.10305 132.064108 
L 250.452439 132.807243 
L 249.801829 133.550378 
L 249.151219 134.293513 
L 248.500608 135.036648 
L 247.849998 135.779783 
L 247.199388 136.522918 
L 246.548778 137.266053 
L 245.898167 138.009188 
L 245.247557 138.752323 
L 244.596947 138.501447 
L 243.946336 138.099239 
L 243.295726 137.697032 
L 242.645116 137.294824 
L 241.994505 136.892617 
L 241.343895 136.490409 
L 240.693285 136.088201 
L 240.042674 135.685994 
L 239.392064 135.283786 
L 238.741454 134.881579 
L 238.090844 134.479371 
L 237.440233 134.077164 
L 236.789623 133.674956 
L 236.139013 133.272748 
L 235.488402 132.870541 
L 234.837792 132.468333 
L 234.187182 132.066126 
L 233.536571 132.105401 
L 232.885961 132.556489 
L 232.235351 133.007577 
L 231.58474 133.458665 
L 230.93413 133.909753 
L 230.28352 134.360842 
L 229.632909 134.81193 
L 228.982299 135.263018 
L 228.331689 135.714106 
L 227.681079 136.165194 
L 227.030468 136.616282 
L 226.379858 137.06737 
L 225.729248 137.518459 
L 225.078637 137.969547 
L 224.428027 138.420635 
L 223.777417 138.871723 
L 223.126806 139.322811 
L 222.476196 139.773899 
L 221.825586 140.224987 
L 221.174975 140.676076 
L 220.524365 141.127164 
L 219.873755 140.570607 
L 219.223144 139.575593 
L 218.572534 138.58058 
L 217.921924 137.585567 
L 217.271314 136.590553 
L 216.620703 135.59554 
L 215.970093 134.600526 
L 215.319483 133.605513 
L 214.668872 132.6105 
L 214.018262 131.615486 
L 213.367652 130.620473 
L 212.717041 129.625459 
L 212.066431 128.630446 
L 211.415821 127.635433 
L 210.76521 126.640419 
L 210.1146 125.645406 
L 209.46399 124.650392 
L 208.813379 123.894444 
L 208.162769 123.589744 
L 207.512159 123.285044 
L 206.861549 122.980344 
L 206.210938 122.675644 
L 205.560328 122.370944 
L 204.909718 122.066244 
L 204.259107 121.761544 
L 203.608497 121.456844 
L 202.957887 121.152144 
L 202.307276 120.847444 
L 201.656666 120.542744 
L 201.006056 120.238044 
L 200.355445 119.933344 
L 199.704835 119.628644 
L 199.054225 119.323944 
L 198.403615 119.019244 
L 197.753004 118.714544 
L 197.102394 118.409844 
L 196.451784 118.105144 
L 195.801173 118.105856 
L 195.150563 119.190974 
L 194.499953 120.276093 
L 193.849342 121.361211 
L 193.198732 122.446329 
L 192.548122 123.531447 
L 191.897511 124.616565 
L 191.246901 125.701683 
L 190.596291 126.786802 
L 189.94568 127.87192 
L 189.29507 128.957038 
L 188.64446 130.042156 
L 187.99385 131.127274 
L 187.343239 132.212392 
L 186.692629 133.297511 
L 186.042019 134.382629 
L 185.391408 135.467747 
L 184.740798 136.552865 
L 184.090188 136.687056 
L 183.439577 136.678227 
L 182.788967 136.669398 
L 182.138357 136.660569 
L 181.487746 136.65174 
L 180.837136 136.642911 
L 180.186526 136.634082 
L 179.535915 136.625253 
L 178.885305 136.616424 
L 178.234695 136.607595 
L 177.584085 136.598766 
L 176.933474 136.589937 
L 176.282864 136.581108 
L 175.632254 136.572279 
L 174.981643 136.56345 
L 174.331033 136.554621 
L 173.680423 136.545792 
L 173.029812 136.662422 
L 172.379202 136.89543 
L 171.728592 137.128437 
L 171.077981 137.361445 
L 170.427371 137.594452 
L 169.776761 137.82746 
L 169.12615 138.060468 
L 168.47554 138.293475 
L 167.82493 138.526483 
L 167.17432 138.75949 
L 166.523709 138.992498 
L 165.873099 139.225506 
L 165.222489 139.458513 
L 164.571878 139.691521 
L 163.921268 139.924529 
L 163.270658 140.157536 
L 162.620047 140.390544 
L 161.969437 140.623551 
L 161.318827 140.856559 
L 160.668216 141.089567 
L 160.017606 141.398322 
L 159.366996 141.82446 
L 158.716385 142.250598 
L 158.065775 142.676736 
L 157.415165 143.102874 
L 156.764555 143.529012 
L 156.113944 143.95515 
L 155.463334 144.381288 
L 154.812724 144.807426 
L 154.162113 145.233564 
L 153.511503 145.659702 
L 152.860893 146.085839 
L 152.210282 146.511977 
L 151.559672 146.938115 
L 150.909062 147.364253 
L 150.258451 147.790391 
L 149.607841 148.216529 
L 148.957231 148.612666 
L 148.306621 148.319783 
L 147.65601 148.026899 
L 147.0054 147.734016 
L 146.35479 147.441132 
L 145.704179 147.148249 
L 145.053569 146.855365 
L 144.402959 146.562482 
L 143.752348 146.269599 
L 143.101738 145.976715 
L 142.451128 145.683832 
L 141.800517 145.390948 
L 141.149907 145.098065 
L 140.499297 144.805181 
L 139.848686 144.512298 
L 139.198076 144.219414 
L 138.547466 143.926531 
L 137.896856 143.633647 
L 137.246245 143.340764 
L 136.595635 143.04788 
L 135.945025 142.754997 
L 135.294414 143.0987 
L 134.643804 143.501418 
L 133.993194 143.904136 
L 133.342583 144.306854 
L 132.691973 144.709572 
L 132.041363 145.11229 
L 131.390752 145.515008 
L 130.740142 145.917726 
L 130.089532 146.320444 
L 129.438921 146.723162 
L 128.788311 147.12588 
L 128.137701 147.528598 
L 127.487091 147.931316 
L 126.83648 148.334034 
L 126.18587 148.736752 
L 125.53526 149.13947 
L 124.884649 149.542188 
L 124.234039 149.805495 
L 123.583429 149.961324 
L 122.932818 150.117154 
L 122.282208 150.272983 
L 121.631598 150.428812 
L 120.980987 150.584642 
L 120.330377 150.740471 
L 119.679767 150.8963 
L 119.029156 151.05213 
L 118.378546 151.207959 
L 117.727936 151.363788 
L 117.077326 151.519618 
L 116.426715 151.675447 
L 115.776105 151.831276 
L 115.125495 151.987106 
L 114.474884 152.142935 
L 113.824274 152.298764 
L 113.173664 152.359331 
L 112.523053 152.070394 
L 111.872443 151.781458 
L 111.221833 151.492521 
L 110.571222 151.203584 
L 109.920612 150.914647 
L 109.270002 150.62571 
L 108.619392 150.336774 
L 107.968781 150.047837 
L 107.318171 149.7589 
L 106.667561 149.469963 
L 106.01695 149.181026 
L 105.36634 148.89209 
L 104.71573 148.603153 
L 104.065119 148.314216 
L 103.414509 148.025279 
L 102.763899 147.736342 
L 102.113288 147.447406 
L 101.462678 147.158469 
L 100.812068 146.869532 
L 100.161457 146.639805 
L 99.510847 147.026612 
L 98.860237 147.413418 
L 98.209627 147.800225 
L 97.559016 148.187032 
L 96.908406 148.573838 
L 96.257796 148.960645 
L 95.607185 149.347452 
L 94.956575 149.734258 
L 94.305965 150.121065 
L 93.655354 150.507872 
L 93.004744 150.894678 
L 92.354134 151.281485 
L 91.703523 151.668292 
L 91.052913 152.055098 
L 90.402303 152.441905 
L 89.751692 152.828712 
L 89.101082 153.215518 
L 88.450472 153.553578 
L 87.799862 152.809765 
L 87.149251 152.065951 
L 86.498641 151.322138 
L 85.848031 150.578325 
L 85.19742 149.834511 
L 84.54681 149.090698 
L 83.8962 148.346884 
L 83.245589 147.603071 
L 82.594979 146.859257 
L 81.944369 146.115444 
L 81.293758 145.371631 
L 80.643148 144.627817 
L 79.992538 143.884004 
L 79.341927 143.14019 
L 78.691317 142.396377 
L 78.040707 141.652563 
L 77.390097 140.90875 
L 76.739486 140.164937 
L 76.088876 139.421123 
L 75.438266 138.67731 
L 74.787655 139.217724 
L 74.137045 139.875064 
L 73.486435 140.532405 
L 72.835824 141.189745 
L 72.185214 141.847085 
L 71.534604 142.504425 
L 70.883993 143.161766 
L 70.233383 143.819106 
L 69.582773 144.476446 
L 68.932163 145.133786 
L 68.281552 145.791127 
L 67.630942 146.448467 
L 66.980332 147.105807 
L 66.329721 147.763147 
L 65.679111 148.420488 
L 65.028501 149.077828 
L 64.37789 149.735168 
L 63.72728 149.715671 
L 63.07667 149.17732 
L 62.426059 148.63897 
L 61.775449 148.10062 
L 61.124839 147.562269 
L 60.474228 147.023919 
L 59.823618 146.485568 
L 59.173008 145.947218 
L 58.522398 145.408867 
L 57.871787 144.870517 
L 57.221177 144.332166 
L 56.570567 143.793816 
L 55.919956 143.255466 
L 55.269346 142.717115 
L 54.618736 142.178765 
L 53.968125 141.640414 
L 53.317515 141.102064 
L 52.666905 140.605943 
L 52.016294 140.263484 
L 51.365684 139.921024 
L 50.715074 139.578565 
L 50.064463 139.236106 
L 49.413853 138.893647 
L 48.763243 138.551187 
L 48.112633 138.208728 
L 47.462022 137.866269 
L 46.811412 137.523809 
L 46.160802 137.18135 
L 45.510191 136.838891 
L 44.859581 136.496431 
L 44.208971 136.153972 
L 43.55836 135.811513 
L 42.90775 135.469053 
L 42.25714 135.126594 
L 41.606529 134.784135 
L 40.955919 134.441675 
L 40.305309 134.099216 
L 39.654698 133.870251 
L 39.004088 134.802833 
L 38.353478 135.735415 
L 37.702868 136.667996 
L 37.052257 137.600578 
L 36.401647 138.53316 
L 35.751037 139.465741 
L 35.100426 140.398323 
L 34.449816 141.330905 
L 33.799206 142.263486 
L 33.148595 143.196068 
L 32.497985 144.12865 
L 31.847375 145.061231 
L 31.196764 145.993813 
L 30.546154 146.926395 
L 29.895544 147.858976 
L 29.244934 148.791558 
L 28.594323 149.72414 
L 27.943713 149.974131 
L 27.293103 149.982451 
L 26.642492 149.990772 
L 25.991882 149.999092 
L 25.341272 150.007413 
L 24.690661 150.015733 
L 24.040051 150.024053 
L 23.389441 150.032374 
L 22.73883 150.040694 
L 22.08822 150.049015 
L 21.43761 150.057335 
L 20.786999 150.065656 
L 20.136389 150.073976 
L 19.485779 150.082297 
L 18.835169 150.090617 
L 18.184558 150.098938 
L 17.533948 150.107258 
L 16.883338 150.115579 
L 16.232727 150.123899 
z
" style="fill:#f15a24;fill-opacity:0.3;"/>
   </g>
   <g id="PathCollection_1">
    <defs>
     <path d="M 0 1.581139 
C 0.419323 1.581139 0.821528 1.41454 1.118034 1.118034 
C 1.41454 0.821528 1.581139 0.419323 1.581139 -0 
C 1.581139 -0.419323 1.41454 -0.821528 1.118034 -1.118034 
C 0.821528 -1.41454 0.419323 -1.581139 0 -1.581139 
C -0.419323 -1.581139 -0.821528 -1.41454 -1.118034 -1.118034 
C -1.41454 -0.821528 -1.581139 -0.419323 -1.581139 0 
C -1.581139 0.419323 -1.41454 0.821528 -1.118034 1.118034 
C -0.821528 1.41454 -0.419323 1.581139 0 1.581139 
z
" id="C0_0_8d4a241c21"/>
    </defs>
    <g clip-path="url(#p5957112844)">
     <use style="fill:#008000;stroke:#008000;stroke-width:0.5;" x="16.232727" xlink:href="#C0_0_8d4a241c21" y="121.896352"/>
    </g>
    <g clip-path="url(#p5957112844)">
     <use style="fill:#008000;stroke:#008000;stroke-width:0.5;" x="28.424205" xlink:href="#C0_0_8d4a241c21" y="121.889621"/>
    </g>
    <g clip-path="url(#p5957112844)">
     <use style="fill:#ff0000;stroke:#ff0000;stroke-width:0.5;" x="39.712611" xlink:href="#C0_0_8d4a241c21" y="133.78724"/>
    </g>
    <g clip-path="url(#p5957112844)">
     <use style="fill:#008000;stroke:#008000;stroke-width:0.5;" x="52.807161" xlink:href="#C0_0_8d4a241c21" y="130.309114"/>
    </g>
    <g clip-path="url(#p5957112844)">
     <use style="fill:#008000;stroke:#008000;stroke-width:0.5;" x="64.095567" xlink:href="#C0_0_8d4a241c21" y="121.061975"/>
    </g>
    <g clip-path="url(#p5957112844)">
     <use style="fill:#008000;stroke:#008000;stroke-width:0.5;" x="75.383973" xlink:href="#C0_0_8d4a241c21" y="133.396343"/>
    </g>
    <g clip-path="url(#p5957112844)">
     <use style="fill:#ffff00;stroke:#ffff00;stroke-width:0.5;" x="88.478523" xlink:href="#C0_0_8d4a241c21" y="128.65541"/>
    </g>
    <g clip-path="url(#p5957112844)">
     <use style="fill:#ffff00;stroke:#ffff00;stroke-width:0.5;" x="100.218465" xlink:href="#C0_0_8d4a241c21" y="126.472602"/>
    </g>
    <g clip-path="url(#p5957112844)">
     <use style="fill:#ffff00;stroke:#ffff00;stroke-width:0.5;" x="113.313016" xlink:href="#C0_0_8d4a241c21" y="122.421992"/>
    </g>
    <g clip-path="url(#p5957112844)">
     <use style="fill:#ffff00;stroke:#ffff00;stroke-width:0.5;" x="124.601421" xlink:href="#C0_0_8d4a241c21" y="133.228266"/>
    </g>
    <g clip-path="url(#p5957112844)">
     <use style="fill:#ffff00;stroke:#ffff00;stroke-width:0.5;" x="135.889827" xlink:href="#C0_0_8d4a241c21" y="133.009617"/>
    </g>
    <g clip-path="url(#p5957112844)">
     <use style="fill:#ffff00;stroke:#ffff00;stroke-width:0.5;" x="148.984377" xlink:href="#C0_0_8d4a241c21" y="125.389023"/>
    </g>
    <g clip-path="url(#p5957112844)">
     <use style="fill:#ffff00;stroke:#ffff00;stroke-width:0.5;" x="160.272783" xlink:href="#C0_0_8d4a241c21" y="134.405828"/>
    </g>
    <g clip-path="url(#p5957112844)">
     <use style="fill:#ff0000;stroke:#ff0000;stroke-width:0.5;" x="173.367333" xlink:href="#C0_0_8d4a241c21" y="136.541543"/>
    </g>
    <g clip-path="url(#p5957112844)">
     <use style="fill:#ff0000;stroke:#ff0000;stroke-width:0.5;" x="184.655739" xlink:href="#C0_0_8d4a241c21" y="136.69473"/>
    </g>
    <g clip-path="url(#p5957112844)">
     <use style="fill:#ff0000;stroke:#ff0000;stroke-width:0.5;" x="195.944145" xlink:href="#C0_0_8d4a241c21" y="117.867402"/>
    </g>
    <g clip-path="url(#p5957112844)">
     <use style="fill:#ff0000;stroke:#ff0000;stroke-width:0.5;" x="209.038695" xlink:href="#C0_0_8d4a241c21" y="123.999966"/>
    </g>
    <g clip-path="url(#p5957112844)">
     <use style="fill:#008000;stroke:#008000;stroke-width:0.5;" x="220.327101" xlink:href="#C0_0_8d4a241c21" y="130.387304"/>
    </g>
    <g clip-path="url(#p5957112844)">
     <use style="fill:#ff0000;stroke:#ff0000;stroke-width:0.5;" x="233.873188" xlink:href="#C0_0_8d4a241c21" y="131.872014"/>
    </g>
    <g clip-path="url(#p5957112844)">
     <use style="fill:#008000;stroke:#008000;stroke-width:0.5;" x="245.161593" xlink:href="#C0_0_8d4a241c21" y="130.062281"/>
    </g>
    <g clip-path="url(#p5957112844)">
     <use style="fill:#ff0000;stroke:#ff0000;stroke-width:0.5;" x="256.449999" xlink:href="#C0_0_8d4a241c21" y="125.956759"/>
    </g>
    <g clip-path="url(#p5957112844)">
     <use style="fill:#008000;stroke:#008000;stroke-width:0.5;" x="269.544549" xlink:href="#C0_0_8d4a241c21" y="130.849845"/>
    </g>
    <g clip-path="url(#p5957112844)">
     <use style="fill:#008000;stroke:#008000;stroke-width:0.5;" x="280.832955" xlink:href="#C0_0_8d4a241c21" y="127.142623"/>
    </g>
    <g clip-path="url(#p5957112844)">
     <use style="fill:#ff0000;stroke:#ff0000;stroke-width:0.5;" x="293.927505" xlink:href="#C0_0_8d4a241c21" y="136.832736"/>
    </g>
    <g clip-path="url(#p5957112844)">
     <use style="fill:#008000;stroke:#008000;stroke-width:0.5;" x="305.215911" xlink:href="#C0_0_8d4a241c21" y="128.406569"/>
    </g>
    <g clip-path="url(#p5957112844)">
     <use style="fill:#ff0000;stroke:#ff0000;stroke-width:0.5;" x="316.504317" xlink:href="#C0_0_8d4a241c21" y="132.351314"/>
    </g>
    <g clip-path="url(#p5957112844)">
     <use style="fill:#008000;stroke:#008000;stroke-width:0.5;" x="329.598867" xlink:href="#C0_0_8d4a241c21" y="124.547856"/>
    </g>
    <g clip-path="url(#p5957112844)">
     <use style="fill:#ff0000;stroke:#ff0000;stroke-width:0.5;" x="340.887273" xlink:href="#C0_0_8d4a241c21" y="134.935492"/>
    </g>
   </g>
   <g id="line2d_1">
    <path clip-path="url(#p5957112844)" d="M 16.232727 121.896352 
L 27.943713 121.889886 
L 28.594323 122.115682 
L 39.654698 136.813279 
L 40.955919 136.265369 
L 52.666905 130.379605 
L 55.269346 128.292163 
L 63.72728 121.363665 
L 64.37789 121.370458 
L 75.438266 133.421666 
L 88.450472 139.490671 
L 98.860237 147.606256 
L 100.161457 148.621805 
L 102.113288 148.41094 
L 113.173664 146.92038 
L 114.474884 146.067638 
L 124.234039 139.062742 
L 124.884649 138.979843 
L 135.945025 146.012323 
L 148.957231 147.727321 
L 158.716385 146.331584 
L 160.017606 146.144488 
L 161.318827 146.292103 
L 173.029812 148.355486 
L 173.680423 148.277352 
L 184.740798 143.516603 
L 195.801173 151.697225 
L 196.451784 151.743867 
L 208.813379 150.304632 
L 209.46399 149.528995 
L 219.873755 131.186137 
L 220.524365 130.507979 
L 233.536571 138.46812 
L 234.187182 138.434501 
L 244.596947 130.493042 
L 245.247557 130.178748 
L 256.307932 145.163769 
L 256.958543 144.792872 
L 269.320138 131.098452 
L 269.970749 130.709876 
L 280.380514 127.291209 
L 281.031124 127.309391 
L 293.39272 137.712209 
L 294.04333 138.062156 
L 305.103706 128.503539 
L 305.754316 128.938043 
L 316.164081 139.213793 
L 316.814691 139.194068 
L 329.176287 125.031985 
L 329.826897 124.828568 
L 340.887273 138.444208 
L 340.887273 138.444208 
" style="fill:none;stroke:#61c46e;stroke-linecap:square;"/>
   </g>
   <g id="line2d_2">
    <path clip-path="url(#p5957112844)" d="M 16.232727 149.724563 
L 29.244934 149.973004 
L 40.305309 151.053241 
L 59.823618 150.69781 
L 65.028501 150.585631 
L 75.438266 149.645835 
L 88.450472 128.700563 
L 90.402303 128.297722 
L 100.812068 126.28898 
L 113.173664 122.465098 
L 113.824274 122.911414 
L 124.234039 132.876575 
L 124.884649 133.22278 
L 135.945025 132.977494 
L 148.957231 125.404822 
L 151.559672 127.446083 
L 160.017606 134.202001 
L 160.668216 134.477775 
L 173.680423 136.92167 
L 184.740798 141.675344 
L 195.801173 151.941732 
L 196.451784 151.895801 
L 208.813379 147.545737 
L 209.46399 147.565426 
L 220.524365 150.10967 
L 235.488402 151.432453 
L 245.247557 152.813742 
L 256.958543 150.418649 
L 269.970749 150.027056 
L 283.633565 148.003749 
L 294.04333 146.786017 
L 305.103706 150.242262 
L 307.055537 150.206683 
L 317.465302 149.892237 
L 329.826897 150.460021 
L 340.887273 148.365111 
L 340.887273 148.365111 
" style="fill:none;stroke:#f6ed22;stroke-linecap:square;"/>
   </g>
   <g id="line2d_3">
    <path clip-path="url(#p5957112844)" d="M 16.232727 150.123899 
L 27.943713 149.974131 
L 28.594323 149.72414 
L 39.654698 133.870251 
L 40.955919 134.441675 
L 52.666905 140.605943 
L 55.269346 142.717115 
L 63.72728 149.715671 
L 64.37789 149.735168 
L 75.438266 138.67731 
L 88.450472 153.553578 
L 90.402303 152.441905 
L 100.161457 146.639805 
L 101.462678 147.158469 
L 113.173664 152.359331 
L 114.474884 152.142935 
L 124.884649 149.542188 
L 135.945025 142.754997 
L 148.957231 148.612666 
L 152.210282 146.511977 
L 160.668216 141.089567 
L 173.680423 136.545792 
L 184.090188 136.687056 
L 184.740798 136.552865 
L 195.801173 118.105856 
L 196.451784 118.105144 
L 208.813379 123.894444 
L 209.46399 124.650392 
L 219.873755 140.570607 
L 220.524365 141.127164 
L 233.536571 132.105401 
L 234.187182 132.066126 
L 244.596947 138.501447 
L 245.247557 138.752323 
L 256.307932 126.119029 
L 256.958543 126.533289 
L 269.320138 140.547496 
L 269.970749 141.007879 
L 280.380514 146.038639 
L 281.031124 146.114663 
L 293.39272 137.217637 
L 294.04333 136.89664 
L 305.103706 142.999012 
L 305.754316 142.55012 
L 316.164081 132.674105 
L 316.814691 132.691267 
L 329.176287 146.230897 
L 329.826897 146.456227 
L 340.887273 134.935492 
L 340.887273 134.935492 
" style="fill:none;stroke:#f15a24;stroke-linecap:square;"/>
   </g>
  </g>
 </g>
 <defs>
  <clipPath id="p5957112844">
   <rect height="266.112" width="357.12" x="0" y="-0"/>
  </clipPath>
 </defs>
</svg>
