<?xml version="1.0" encoding="utf-8" standalone="no"?>
<!DOCTYPE svg PUBLIC "-//W3C//DTD SVG 1.1//EN"
  "http://www.w3.org/Graphics/SVG/1.1/DTD/svg11.dtd">
<svg height="266.112pt" version="1.1" viewBox="0 0 357.12 266.112" width="357.12pt" xmlns="http://www.w3.org/2000/svg" xmlns:xlink="http://www.w3.org/1999/xlink">
 <metadata>
  <rdf:RDF xmlns:cc="http://creativecommons.org/ns#" xmlns:dc="http://purl.org/dc/elements/1.1/" xmlns:rdf="http://www.w3.org/1999/02/22-rdf-syntax-ns#">
   <cc:Work>
    <dc:type rdf:resource="http://purl.org/dc/dcmitype/StillImage"/>
    <dc:date>2022-03-05T14:44:39.731706</dc:date>
    <dc:format>image/svg+xml</dc:format>
    <dc:creator>
     <cc:Agent>
      <dc:title>Matplotlib v3.4.2, https://matplotlib.org/</dc:title>
     </cc:Agent>
    </dc:creator>
   </cc:Work>
  </rdf:RDF>
 </metadata>
 <defs>
  <style type="text/css">*{stroke-linecap:butt;stroke-linejoin:round;}</style>
 </defs>
 <g id="figure_1">
  <g id="patch_1">
   <path d="M 0 266.112 
L 357.12 266.112 
L 357.12 0 
L 0 0 
z
" style="fill:#ffffff;"/>
  </g>
  <g id="axes_1">
   <g id="PolyCollection_1">
    <path clip-path="url(#pef950ca6d4)" d="M 16.232727 128.868795 
L 16.232727 151.460453 
L 16.883338 151.460453 
L 17.533948 151.460453 
L 18.184558 151.460453 
L 18.835169 151.460453 
L 19.485779 151.460453 
L 20.136389 151.460453 
L 20.786999 151.460453 
L 21.43761 151.460453 
L 22.08822 151.460453 
L 22.73883 151.460453 
L 23.389441 151.460453 
L 24.040051 151.460453 
L 24.690661 151.460453 
L 25.341272 151.460453 
L 25.991882 151.460453 
L 26.642492 151.460453 
L 27.293103 151.460453 
L 27.943713 151.460453 
L 28.594323 151.460453 
L 29.244934 151.460453 
L 29.895544 151.460453 
L 30.546154 151.460453 
L 31.196764 151.460453 
L 31.847375 151.460453 
L 32.497985 151.460453 
L 33.148595 151.460453 
L 33.799206 151.460453 
L 34.449816 151.460453 
L 35.100426 151.460453 
L 35.751037 151.460453 
L 36.401647 151.460453 
L 37.052257 151.460453 
L 37.702868 151.460453 
L 38.353478 151.460453 
L 39.004088 151.460453 
L 39.654698 151.460453 
L 40.305309 151.460453 
L 40.955919 151.460453 
L 41.606529 151.460453 
L 42.25714 151.460453 
L 42.90775 151.460453 
L 43.55836 151.460453 
L 44.208971 151.460453 
L 44.859581 151.460453 
L 45.510191 151.460453 
L 46.160802 151.460453 
L 46.811412 151.460453 
L 47.462022 151.460453 
L 48.112633 151.460453 
L 48.763243 151.460453 
L 49.413853 151.460453 
L 50.064463 151.460453 
L 50.715074 151.460453 
L 51.365684 151.460453 
L 52.016294 151.460453 
L 52.666905 151.460453 
L 53.317515 151.460453 
L 53.968125 151.460453 
L 54.618736 151.460453 
L 55.269346 151.460453 
L 55.919956 151.460453 
L 56.570567 151.460453 
L 57.221177 151.460453 
L 57.871787 151.460453 
L 58.522398 151.460453 
L 59.173008 151.460453 
L 59.823618 151.460453 
L 60.474228 151.460453 
L 61.124839 151.460453 
L 61.775449 151.460453 
L 62.426059 151.460453 
L 63.07667 151.460453 
L 63.72728 151.460453 
L 64.37789 151.460453 
L 65.028501 151.460453 
L 65.679111 151.460453 
L 66.329721 151.460453 
L 66.980332 151.460453 
L 67.630942 151.460453 
L 68.281552 151.460453 
L 68.932163 151.460453 
L 69.582773 151.460453 
L 70.233383 151.460453 
L 70.883993 151.460453 
L 71.534604 151.460453 
L 72.185214 151.460453 
L 72.835824 151.460453 
L 73.486435 151.460453 
L 74.137045 151.460453 
L 74.787655 151.460453 
L 75.438266 151.460453 
L 76.088876 151.460453 
L 76.739486 151.460453 
L 77.390097 151.460453 
L 78.040707 151.460453 
L 78.691317 151.460453 
L 79.341927 151.460453 
L 79.992538 151.460453 
L 80.643148 151.460453 
L 81.293758 151.460453 
L 81.944369 151.460453 
L 82.594979 151.460453 
L 83.245589 151.460453 
L 83.8962 151.460453 
L 84.54681 151.460453 
L 85.19742 151.460453 
L 85.848031 151.460453 
L 86.498641 151.460453 
L 87.149251 151.460453 
L 87.799862 151.460453 
L 88.450472 151.460453 
L 89.101082 151.460453 
L 89.751692 151.460453 
L 90.402303 151.460453 
L 91.052913 151.460453 
L 91.703523 151.460453 
L 92.354134 151.460453 
L 93.004744 151.460453 
L 93.655354 151.460453 
L 94.305965 151.460453 
L 94.956575 151.460453 
L 95.607185 151.460453 
L 96.257796 151.460453 
L 96.908406 151.460453 
L 97.559016 151.460453 
L 98.209627 151.460453 
L 98.860237 151.460453 
L 99.510847 151.460453 
L 100.161457 151.460453 
L 100.812068 151.460453 
L 101.462678 151.460453 
L 102.113288 151.460453 
L 102.763899 151.460453 
L 103.414509 151.460453 
L 104.065119 151.460453 
L 104.71573 151.460453 
L 105.36634 151.460453 
L 106.01695 151.460453 
L 106.667561 151.460453 
L 107.318171 151.460453 
L 107.968781 151.460453 
L 108.619392 151.460453 
L 109.270002 151.460453 
L 109.920612 151.460453 
L 110.571222 151.460453 
L 111.221833 151.460453 
L 111.872443 151.460453 
L 112.523053 151.460453 
L 113.173664 151.460453 
L 113.824274 151.460453 
L 114.474884 151.460453 
L 115.125495 151.460453 
L 115.776105 151.460453 
L 116.426715 151.460453 
L 117.077326 151.460453 
L 117.727936 151.460453 
L 118.378546 151.460453 
L 119.029156 151.460453 
L 119.679767 151.460453 
L 120.330377 151.460453 
L 120.980987 151.460453 
L 121.631598 151.460453 
L 122.282208 151.460453 
L 122.932818 151.460453 
L 123.583429 151.460453 
L 124.234039 151.460453 
L 124.884649 151.460453 
L 125.53526 151.460453 
L 126.18587 151.460453 
L 126.83648 151.460453 
L 127.487091 151.460453 
L 128.137701 151.460453 
L 128.788311 151.460453 
L 129.438921 151.460453 
L 130.089532 151.460453 
L 130.740142 151.460453 
L 131.390752 151.460453 
L 132.041363 151.460453 
L 132.691973 151.460453 
L 133.342583 151.460453 
L 133.993194 151.460453 
L 134.643804 151.460453 
L 135.294414 151.460453 
L 135.945025 151.460453 
L 136.595635 151.460453 
L 137.246245 151.460453 
L 137.896856 151.460453 
L 138.547466 151.460453 
L 139.198076 151.460453 
L 139.848686 151.460453 
L 140.499297 151.460453 
L 141.149907 151.460453 
L 141.800517 151.460453 
L 142.451128 151.460453 
L 143.101738 151.460453 
L 143.752348 151.460453 
L 144.402959 151.460453 
L 145.053569 151.460453 
L 145.704179 151.460453 
L 146.35479 151.460453 
L 147.0054 151.460453 
L 147.65601 151.460453 
L 148.306621 151.460453 
L 148.957231 151.460453 
L 149.607841 151.460453 
L 150.258451 151.460453 
L 150.909062 151.460453 
L 151.559672 151.460453 
L 152.210282 151.460453 
L 152.860893 151.460453 
L 153.511503 151.460453 
L 154.162113 151.460453 
L 154.812724 151.460453 
L 155.463334 151.460453 
L 156.113944 151.460453 
L 156.764555 151.460453 
L 157.415165 151.460453 
L 158.065775 151.460453 
L 158.716385 151.460453 
L 159.366996 151.460453 
L 160.017606 151.460453 
L 160.668216 151.460453 
L 161.318827 151.460453 
L 161.969437 151.460453 
L 162.620047 151.460453 
L 163.270658 151.460453 
L 163.921268 151.460453 
L 164.571878 151.460453 
L 165.222489 151.460453 
L 165.873099 151.460453 
L 166.523709 151.460453 
L 167.17432 151.460453 
L 167.82493 151.460453 
L 168.47554 151.460453 
L 169.12615 151.460453 
L 169.776761 151.460453 
L 170.427371 151.460453 
L 171.077981 151.460453 
L 171.728592 151.460453 
L 172.379202 151.460453 
L 173.029812 151.460453 
L 173.680423 151.460453 
L 174.331033 151.460453 
L 174.981643 151.460453 
L 175.632254 151.460453 
L 176.282864 151.460453 
L 176.933474 151.460453 
L 177.584085 151.460453 
L 178.234695 151.460453 
L 178.885305 151.460453 
L 179.535915 151.460453 
L 180.186526 151.460453 
L 180.837136 151.460453 
L 181.487746 151.460453 
L 182.138357 151.460453 
L 182.788967 151.460453 
L 183.439577 151.460453 
L 184.090188 151.460453 
L 184.740798 151.460453 
L 185.391408 151.460453 
L 186.042019 151.460453 
L 186.692629 151.460453 
L 187.343239 151.460453 
L 187.99385 151.460453 
L 188.64446 151.460453 
L 189.29507 151.460453 
L 189.94568 151.460453 
L 190.596291 151.460453 
L 191.246901 151.460453 
L 191.897511 151.460453 
L 192.548122 151.460453 
L 193.198732 151.460453 
L 193.849342 151.460453 
L 194.499953 151.460453 
L 195.150563 151.460453 
L 195.801173 151.460453 
L 196.451784 151.460453 
L 197.102394 151.460453 
L 197.753004 151.460453 
L 198.403615 151.460453 
L 199.054225 151.460453 
L 199.704835 151.460453 
L 200.355445 151.460453 
L 201.006056 151.460453 
L 201.656666 151.460453 
L 202.307276 151.460453 
L 202.957887 151.460453 
L 203.608497 151.460453 
L 204.259107 151.460453 
L 204.909718 151.460453 
L 205.560328 151.460453 
L 206.210938 151.460453 
L 206.861549 151.460453 
L 207.512159 151.460453 
L 208.162769 151.460453 
L 208.813379 151.460453 
L 209.46399 151.460453 
L 210.1146 151.460453 
L 210.76521 151.460453 
L 211.415821 151.460453 
L 212.066431 151.460453 
L 212.717041 151.460453 
L 213.367652 151.460453 
L 214.018262 151.460453 
L 214.668872 151.460453 
L 215.319483 151.460453 
L 215.970093 151.460453 
L 216.620703 151.460453 
L 217.271314 151.460453 
L 217.921924 151.460453 
L 218.572534 151.460453 
L 219.223144 151.460453 
L 219.873755 151.460453 
L 220.524365 151.460453 
L 221.174975 151.460453 
L 221.825586 151.460453 
L 222.476196 151.460453 
L 223.126806 151.460453 
L 223.777417 151.460453 
L 224.428027 151.460453 
L 225.078637 151.460453 
L 225.729248 151.460453 
L 226.379858 151.460453 
L 227.030468 151.460453 
L 227.681079 151.460453 
L 228.331689 151.460453 
L 228.982299 151.460453 
L 229.632909 151.460453 
L 230.28352 151.460453 
L 230.93413 151.460453 
L 231.58474 151.460453 
L 232.235351 151.460453 
L 232.885961 151.460453 
L 233.536571 151.460453 
L 234.187182 151.460453 
L 234.837792 151.460453 
L 235.488402 151.460453 
L 236.139013 151.460453 
L 236.789623 151.460453 
L 237.440233 151.460453 
L 238.090844 151.460453 
L 238.741454 151.460453 
L 239.392064 151.460453 
L 240.042674 151.460453 
L 240.693285 151.460453 
L 241.343895 151.460453 
L 241.994505 151.460453 
L 242.645116 151.460453 
L 243.295726 151.460453 
L 243.946336 151.460453 
L 244.596947 151.460453 
L 245.247557 151.460453 
L 245.898167 151.460453 
L 246.548778 151.460453 
L 247.199388 151.460453 
L 247.849998 151.460453 
L 248.500608 151.460453 
L 249.151219 151.460453 
L 249.801829 151.460453 
L 250.452439 151.460453 
L 251.10305 151.460453 
L 251.75366 151.460453 
L 252.40427 151.460453 
L 253.054881 151.460453 
L 253.705491 151.460453 
L 254.356101 151.460453 
L 255.006712 151.460453 
L 255.657322 151.460453 
L 256.307932 151.460453 
L 256.958543 151.460453 
L 257.609153 151.460453 
L 258.259763 151.460453 
L 258.910373 151.460453 
L 259.560984 151.460453 
L 260.211594 151.460453 
L 260.862204 151.460453 
L 261.512815 151.460453 
L 262.163425 151.460453 
L 262.814035 151.460453 
L 263.464646 151.460453 
L 264.115256 151.460453 
L 264.765866 151.460453 
L 265.416477 151.460453 
L 266.067087 151.460453 
L 266.717697 151.460453 
L 267.368308 151.460453 
L 268.018918 151.460453 
L 268.669528 151.460453 
L 269.320138 151.460453 
L 269.970749 151.460453 
L 270.621359 151.460453 
L 271.271969 151.460453 
L 271.92258 151.460453 
L 272.57319 151.460453 
L 273.2238 151.460453 
L 273.874411 151.460453 
L 274.525021 151.460453 
L 275.175631 151.460453 
L 275.826242 151.460453 
L 276.476852 151.460453 
L 277.127462 151.460453 
L 277.778073 151.460453 
L 278.428683 151.460453 
L 279.079293 151.460453 
L 279.729903 151.460453 
L 280.380514 151.460453 
L 281.031124 151.460453 
L 281.681734 151.460453 
L 282.332345 151.460453 
L 282.982955 151.460453 
L 283.633565 151.460453 
L 284.284176 151.460453 
L 284.934786 151.460453 
L 285.585396 151.460453 
L 286.236007 151.460453 
L 286.886617 151.460453 
L 287.537227 151.460453 
L 288.187837 151.460453 
L 288.838448 151.460453 
L 289.489058 151.460453 
L 290.139668 151.460453 
L 290.790279 151.460453 
L 291.440889 151.460453 
L 292.091499 151.460453 
L 292.74211 151.460453 
L 293.39272 151.460453 
L 294.04333 151.460453 
L 294.693941 151.460453 
L 295.344551 151.460453 
L 295.995161 151.460453 
L 296.645772 151.460453 
L 297.296382 151.460453 
L 297.946992 151.460453 
L 298.597602 151.460453 
L 299.248213 151.460453 
L 299.898823 151.460453 
L 300.549433 151.460453 
L 301.200044 151.460453 
L 301.850654 151.460453 
L 302.501264 151.460453 
L 303.151875 151.460453 
L 303.802485 151.460453 
L 304.453095 151.460453 
L 305.103706 151.460453 
L 305.754316 151.460453 
L 306.404926 151.460453 
L 307.055537 151.460453 
L 307.706147 151.460453 
L 308.356757 151.460453 
L 309.007367 151.460453 
L 309.657978 151.460453 
L 310.308588 151.460453 
L 310.959198 151.460453 
L 311.609809 151.460453 
L 312.260419 151.460453 
L 312.911029 151.460453 
L 313.56164 151.460453 
L 314.21225 151.460453 
L 314.86286 151.460453 
L 315.513471 151.460453 
L 316.164081 151.460453 
L 316.814691 151.460453 
L 317.465302 151.460453 
L 318.115912 151.460453 
L 318.766522 151.460453 
L 319.417132 151.460453 
L 320.067743 151.460453 
L 320.718353 151.460453 
L 321.368963 151.460453 
L 322.019574 151.460453 
L 322.670184 151.460453 
L 323.320794 151.460453 
L 323.971405 151.460453 
L 324.622015 151.460453 
L 325.272625 151.460453 
L 325.923236 151.460453 
L 326.573846 151.460453 
L 327.224456 151.460453 
L 327.875066 151.460453 
L 328.525677 151.460453 
L 329.176287 151.460453 
L 329.826897 151.460453 
L 330.477508 151.460453 
L 331.128118 151.460453 
L 331.778728 151.460453 
L 332.429339 151.460453 
L 333.079949 151.460453 
L 333.730559 151.460453 
L 334.38117 151.460453 
L 335.03178 151.460453 
L 335.68239 151.460453 
L 336.333001 151.460453 
L 336.983611 151.460453 
L 337.634221 151.460453 
L 338.284831 151.460453 
L 338.935442 151.460453 
L 339.586052 151.460453 
L 340.236662 151.460453 
L 340.887273 151.460453 
L 340.887273 134.990481 
L 340.887273 134.990481 
L 340.236662 135.156775 
L 339.586052 135.323069 
L 338.935442 135.489363 
L 338.284831 135.655657 
L 337.634221 135.821951 
L 336.983611 135.988245 
L 336.333001 136.154538 
L 335.68239 136.320832 
L 335.03178 136.487126 
L 334.38117 136.65342 
L 333.730559 136.819714 
L 333.079949 136.986008 
L 332.429339 137.152302 
L 331.778728 137.318596 
L 331.128118 137.48489 
L 330.477508 137.651184 
L 329.826897 137.663124 
L 329.176287 137.569111 
L 328.525677 137.475098 
L 327.875066 137.381085 
L 327.224456 137.287072 
L 326.573846 137.193059 
L 325.923236 137.099046 
L 325.272625 137.005033 
L 324.622015 136.91102 
L 323.971405 136.817007 
L 323.320794 136.722994 
L 322.670184 136.628981 
L 322.019574 136.534968 
L 321.368963 136.440955 
L 320.718353 136.722312 
L 320.067743 137.464349 
L 319.417132 138.206386 
L 318.766522 138.948424 
L 318.115912 139.690461 
L 317.465302 140.432499 
L 316.814691 141.174536 
L 316.164081 141.916573 
L 315.513471 142.658611 
L 314.86286 143.400648 
L 314.21225 144.142686 
L 313.56164 144.884723 
L 312.911029 145.62676 
L 312.260419 146.368798 
L 311.609809 147.110835 
L 310.959198 147.852873 
L 310.308588 148.560834 
L 309.657978 148.490572 
L 309.007367 148.42031 
L 308.356757 148.350049 
L 307.706147 148.279787 
L 307.055537 148.209525 
L 306.404926 148.139263 
L 305.754316 148.069002 
L 305.103706 147.99874 
L 304.453095 147.928478 
L 303.802485 147.858216 
L 303.151875 147.787955 
L 302.501264 147.717693 
L 301.850654 147.647431 
L 301.200044 147.57717 
L 300.549433 147.334736 
L 299.898823 146.746196 
L 299.248213 146.157657 
L 298.597602 145.569117 
L 297.946992 144.980577 
L 297.296382 144.392037 
L 296.645772 143.803498 
L 295.995161 143.214958 
L 295.344551 142.626418 
L 294.693941 142.037878 
L 294.04333 141.449339 
L 293.39272 140.860799 
L 292.74211 140.272259 
L 292.091499 139.683719 
L 291.440889 139.269902 
L 290.790279 139.609707 
L 290.139668 139.949511 
L 289.489058 140.289316 
L 288.838448 140.62912 
L 288.187837 140.968925 
L 287.537227 141.308729 
L 286.886617 141.648534 
L 286.236007 141.988338 
L 285.585396 142.328143 
L 284.934786 142.667947 
L 284.284176 143.007752 
L 283.633565 143.347556 
L 282.982955 143.687361 
L 282.332345 144.027165 
L 281.681734 144.36697 
L 281.031124 144.706774 
L 280.380514 144.882958 
L 279.729903 145.013308 
L 279.079293 145.143659 
L 278.428683 145.27401 
L 277.778073 145.404361 
L 277.127462 145.534711 
L 276.476852 145.665062 
L 275.826242 145.795413 
L 275.175631 145.925764 
L 274.525021 146.056114 
L 273.874411 146.186465 
L 273.2238 146.316816 
L 272.57319 146.447166 
L 271.92258 146.577517 
L 271.271969 146.511248 
L 270.621359 146.333024 
L 269.970749 146.154799 
L 269.320138 145.976575 
L 268.669528 145.798351 
L 268.018918 145.620127 
L 267.368308 145.441903 
L 266.717697 145.263679 
L 266.067087 145.085455 
L 265.416477 144.907231 
L 264.765866 144.729006 
L 264.115256 144.550782 
L 263.464646 144.372558 
L 262.814035 144.194334 
L 262.163425 144.01611 
L 261.512815 143.837886 
L 260.862204 143.790069 
L 260.211594 144.178439 
L 259.560984 144.566809 
L 258.910373 144.955179 
L 258.259763 145.34355 
L 257.609153 145.73192 
L 256.958543 146.12029 
L 256.307932 146.50866 
L 255.657322 146.897031 
L 255.006712 147.285401 
L 254.356101 147.673771 
L 253.705491 148.062141 
L 253.054881 148.450512 
L 252.40427 148.838882 
L 251.75366 149.187088 
L 251.10305 149.109337 
L 250.452439 149.031587 
L 249.801829 148.953836 
L 249.151219 148.876086 
L 248.500608 148.798335 
L 247.849998 148.720585 
L 247.199388 148.642834 
L 246.548778 148.565084 
L 245.898167 148.487333 
L 245.247557 148.409583 
L 244.596947 148.331832 
L 243.946336 148.254082 
L 243.295726 148.176332 
L 242.645116 148.098581 
L 241.994505 148.104998 
L 241.343895 148.11658 
L 240.693285 148.128162 
L 240.042674 148.139745 
L 239.392064 148.151327 
L 238.741454 148.162909 
L 238.090844 148.174491 
L 237.440233 148.186074 
L 236.789623 148.197656 
L 236.139013 148.209238 
L 235.488402 148.220821 
L 234.837792 148.232403 
L 234.187182 148.243985 
L 233.536571 148.255567 
L 232.885961 148.26715 
L 232.235351 148.278732 
L 231.58474 148.337286 
L 230.93413 148.436641 
L 230.28352 148.535997 
L 229.632909 148.635352 
L 228.982299 148.734708 
L 228.331689 148.834063 
L 227.681079 148.933419 
L 227.030468 149.032774 
L 226.379858 149.13213 
L 225.729248 149.231485 
L 225.078637 149.330841 
L 224.428027 149.430196 
L 223.777417 149.529552 
L 223.126806 149.628908 
L 222.476196 149.404124 
L 221.825586 148.674812 
L 221.174975 147.9455 
L 220.524365 147.216188 
L 219.873755 146.486876 
L 219.223144 145.757564 
L 218.572534 145.028252 
L 217.921924 144.29894 
L 217.271314 143.569628 
L 216.620703 142.840316 
L 215.970093 142.111003 
L 215.319483 141.381691 
L 214.668872 140.652379 
L 214.018262 139.923067 
L 213.367652 139.193755 
L 212.717041 138.464443 
L 212.066431 137.735131 
L 211.415821 137.882962 
L 210.76521 138.04494 
L 210.1146 138.206918 
L 209.46399 138.368896 
L 208.813379 138.530874 
L 208.162769 138.692852 
L 207.512159 138.85483 
L 206.861549 139.016808 
L 206.210938 139.178786 
L 205.560328 139.340764 
L 204.909718 139.502742 
L 204.259107 139.66472 
L 203.608497 139.826698 
L 202.957887 139.988676 
L 202.307276 139.920894 
L 201.656666 139.809392 
L 201.006056 139.697891 
L 200.355445 139.586389 
L 199.704835 139.474887 
L 199.054225 139.363386 
L 198.403615 139.251884 
L 197.753004 139.140382 
L 197.102394 139.02888 
L 196.451784 138.917379 
L 195.801173 138.805877 
L 195.150563 138.694375 
L 194.499953 138.582874 
L 193.849342 138.471372 
L 193.198732 138.824598 
L 192.548122 139.380669 
L 191.897511 139.93674 
L 191.246901 140.492811 
L 190.596291 141.048883 
L 189.94568 141.604954 
L 189.29507 142.161025 
L 188.64446 142.717097 
L 187.99385 143.273168 
L 187.343239 143.829239 
L 186.692629 144.38531 
L 186.042019 144.941382 
L 185.391408 145.497453 
L 184.740798 146.053524 
L 184.090188 146.609596 
L 183.439577 147.165667 
L 182.788967 147.721738 
L 182.138357 147.841937 
L 181.487746 147.79544 
L 180.837136 147.748942 
L 180.186526 147.702444 
L 179.535915 147.655946 
L 178.885305 147.609449 
L 178.234695 147.562951 
L 177.584085 147.516453 
L 176.933474 147.469956 
L 176.282864 147.423458 
L 175.632254 147.37696 
L 174.981643 147.330462 
L 174.331033 147.283965 
L 173.680423 147.237467 
L 173.029812 147.239414 
L 172.379202 147.276534 
L 171.728592 147.313654 
L 171.077981 147.350774 
L 170.427371 147.387893 
L 169.776761 147.425013 
L 169.12615 147.462133 
L 168.47554 147.499253 
L 167.82493 147.536373 
L 167.17432 147.573493 
L 166.523709 147.610612 
L 165.873099 147.647732 
L 165.222489 147.684852 
L 164.571878 147.721972 
L 163.921268 147.759092 
L 163.270658 147.796212 
L 162.620047 147.748672 
L 161.969437 147.294544 
L 161.318827 146.840416 
L 160.668216 146.386288 
L 160.017606 145.932159 
L 159.366996 145.478031 
L 158.716385 145.023903 
L 158.065775 144.569775 
L 157.415165 144.115647 
L 156.764555 143.661519 
L 156.113944 143.207391 
L 155.463334 142.753263 
L 154.812724 142.299135 
L 154.162113 141.845007 
L 153.511503 141.37976 
L 152.860893 140.533358 
L 152.210282 139.686956 
L 151.559672 138.840555 
L 150.909062 137.994153 
L 150.258451 137.147751 
L 149.607841 136.30135 
L 148.957231 135.454948 
L 148.306621 134.608546 
L 147.65601 133.762145 
L 147.0054 132.915743 
L 146.35479 132.069341 
L 145.704179 131.22294 
L 145.053569 130.376538 
L 144.402959 129.530136 
L 143.752348 129.892922 
L 143.101738 130.413833 
L 142.451128 130.934743 
L 141.800517 131.455654 
L 141.149907 131.976565 
L 140.499297 132.497475 
L 139.848686 133.018386 
L 139.198076 133.539296 
L 138.547466 134.060207 
L 137.896856 134.581118 
L 137.246245 135.102028 
L 136.595635 135.622939 
L 135.945025 136.143849 
L 135.294414 136.66476 
L 134.643804 137.185671 
L 133.993194 137.706581 
L 133.342583 138.264149 
L 132.691973 138.861858 
L 132.041363 139.459567 
L 131.390752 140.057276 
L 130.740142 140.654984 
L 130.089532 141.252693 
L 129.438921 141.850402 
L 128.788311 142.448111 
L 128.137701 143.045819 
L 127.487091 143.643528 
L 126.83648 144.241237 
L 126.18587 144.838946 
L 125.53526 145.436654 
L 124.884649 146.034363 
L 124.234039 146.352175 
L 123.583429 146.110192 
L 122.932818 145.868209 
L 122.282208 145.626226 
L 121.631598 145.384244 
L 120.980987 145.142261 
L 120.330377 144.900278 
L 119.679767 144.658295 
L 119.029156 144.416312 
L 118.378546 144.17433 
L 117.727936 143.932347 
L 117.077326 143.690364 
L 116.426715 143.448381 
L 115.776105 143.206399 
L 115.125495 142.964416 
L 114.474884 142.722433 
L 113.824274 142.48045 
L 113.173664 142.639944 
L 112.523053 142.83138 
L 111.872443 143.022815 
L 111.221833 143.21425 
L 110.571222 143.405685 
L 109.920612 143.597121 
L 109.270002 143.788556 
L 108.619392 143.979991 
L 107.968781 144.171426 
L 107.318171 144.362862 
L 106.667561 144.554297 
L 106.01695 144.745732 
L 105.36634 144.937168 
L 104.71573 145.128603 
L 104.065119 144.654311 
L 103.414509 143.994774 
L 102.763899 143.335236 
L 102.113288 142.675698 
L 101.462678 142.01616 
L 100.812068 141.356622 
L 100.161457 140.697085 
L 99.510847 140.037547 
L 98.860237 139.378009 
L 98.209627 138.718471 
L 97.559016 138.058933 
L 96.908406 137.399396 
L 96.257796 136.739858 
L 95.607185 136.08032 
L 94.956575 136.036129 
L 94.305965 136.340597 
L 93.655354 136.645065 
L 93.004744 136.949534 
L 92.354134 137.254002 
L 91.703523 137.55847 
L 91.052913 137.862939 
L 90.402303 138.167407 
L 89.751692 138.471875 
L 89.101082 138.776344 
L 88.450472 139.080812 
L 87.799862 139.38528 
L 87.149251 139.689749 
L 86.498641 139.994217 
L 85.848031 140.298685 
L 85.19742 140.603154 
L 84.54681 140.905177 
L 83.8962 141.199076 
L 83.245589 141.492974 
L 82.594979 141.786872 
L 81.944369 142.08077 
L 81.293758 142.374668 
L 80.643148 142.668567 
L 79.992538 142.962465 
L 79.341927 143.256363 
L 78.691317 143.550261 
L 78.040707 143.84416 
L 77.390097 144.138058 
L 76.739486 144.431956 
L 76.088876 144.725854 
L 75.438266 145.019753 
L 74.787655 144.802547 
L 74.137045 144.116458 
L 73.486435 143.43037 
L 72.835824 142.744282 
L 72.185214 142.058193 
L 71.534604 141.372105 
L 70.883993 140.686017 
L 70.233383 139.999928 
L 69.582773 139.31384 
L 68.932163 138.627751 
L 68.281552 137.941663 
L 67.630942 137.255575 
L 66.980332 136.569486 
L 66.329721 135.883398 
L 65.679111 135.19731 
L 65.028501 134.511221 
L 64.37789 133.829366 
L 63.72728 133.180242 
L 63.07667 132.531119 
L 62.426059 131.881995 
L 61.775449 131.232871 
L 61.124839 130.583748 
L 60.474228 129.934624 
L 59.823618 129.285501 
L 59.173008 128.636377 
L 58.522398 127.987254 
L 57.871787 127.33813 
L 57.221177 126.689006 
L 56.570567 126.039883 
L 55.919956 125.390759 
L 55.269346 124.741636 
L 54.618736 125.21848 
L 53.968125 125.729524 
L 53.317515 126.240568 
L 52.666905 126.751612 
L 52.016294 127.262656 
L 51.365684 127.7737 
L 50.715074 128.284744 
L 50.064463 128.795788 
L 49.413853 129.306832 
L 48.763243 129.817876 
L 48.112633 130.32892 
L 47.462022 130.839964 
L 46.811412 131.351008 
L 46.160802 131.862052 
L 45.510191 131.998319 
L 44.859581 132.055929 
L 44.208971 132.113539 
L 43.55836 132.171149 
L 42.90775 132.228759 
L 42.25714 132.286369 
L 41.606529 132.343979 
L 40.955919 132.401589 
L 40.305309 132.459199 
L 39.654698 132.516809 
L 39.004088 132.574419 
L 38.353478 132.632029 
L 37.702868 132.689639 
L 37.052257 132.747249 
L 36.401647 132.804859 
L 35.751037 132.862469 
L 35.100426 133.132732 
L 34.449816 133.697262 
L 33.799206 134.261791 
L 33.148595 134.826321 
L 32.497985 135.39085 
L 31.847375 135.955379 
L 31.196764 136.519909 
L 30.546154 137.084438 
L 29.895544 137.648967 
L 29.244934 138.213497 
L 28.594323 138.778026 
L 27.943713 139.342555 
L 27.293103 139.907085 
L 26.642492 140.471614 
L 25.991882 140.663964 
L 25.341272 139.877619 
L 24.690661 139.091275 
L 24.040051 138.30493 
L 23.389441 137.518585 
L 22.73883 136.732241 
L 22.08822 135.945896 
L 21.43761 135.159552 
L 20.786999 134.373207 
L 20.136389 133.586862 
L 19.485779 132.800518 
L 18.835169 132.014173 
L 18.184558 131.227828 
L 17.533948 130.441484 
L 16.883338 129.655139 
L 16.232727 128.868795 
z
" style="fill:#61c46e;fill-opacity:0.3;"/>
   </g>
   <g id="PolyCollection_2">
    <path clip-path="url(#pef950ca6d4)" d="M 16.232727 147.909699 
L 16.232727 151.460453 
L 16.883338 151.460453 
L 17.533948 151.460453 
L 18.184558 151.460453 
L 18.835169 151.460453 
L 19.485779 151.460453 
L 20.136389 151.460453 
L 20.786999 151.460453 
L 21.43761 151.460453 
L 22.08822 151.460453 
L 22.73883 151.460453 
L 23.389441 151.460453 
L 24.040051 151.460453 
L 24.690661 151.460453 
L 25.341272 151.460453 
L 25.991882 151.460453 
L 26.642492 151.460453 
L 27.293103 151.460453 
L 27.943713 151.460453 
L 28.594323 151.460453 
L 29.244934 151.460453 
L 29.895544 151.460453 
L 30.546154 151.460453 
L 31.196764 151.460453 
L 31.847375 151.460453 
L 32.497985 151.460453 
L 33.148595 151.460453 
L 33.799206 151.460453 
L 34.449816 151.460453 
L 35.100426 151.460453 
L 35.751037 151.460453 
L 36.401647 151.460453 
L 37.052257 151.460453 
L 37.702868 151.460453 
L 38.353478 151.460453 
L 39.004088 151.460453 
L 39.654698 151.460453 
L 40.305309 151.460453 
L 40.955919 151.460453 
L 41.606529 151.460453 
L 42.25714 151.460453 
L 42.90775 151.460453 
L 43.55836 151.460453 
L 44.208971 151.460453 
L 44.859581 151.460453 
L 45.510191 151.460453 
L 46.160802 151.460453 
L 46.811412 151.460453 
L 47.462022 151.460453 
L 48.112633 151.460453 
L 48.763243 151.460453 
L 49.413853 151.460453 
L 50.064463 151.460453 
L 50.715074 151.460453 
L 51.365684 151.460453 
L 52.016294 151.460453 
L 52.666905 151.460453 
L 53.317515 151.460453 
L 53.968125 151.460453 
L 54.618736 151.460453 
L 55.269346 151.460453 
L 55.919956 151.460453 
L 56.570567 151.460453 
L 57.221177 151.460453 
L 57.871787 151.460453 
L 58.522398 151.460453 
L 59.173008 151.460453 
L 59.823618 151.460453 
L 60.474228 151.460453 
L 61.124839 151.460453 
L 61.775449 151.460453 
L 62.426059 151.460453 
L 63.07667 151.460453 
L 63.72728 151.460453 
L 64.37789 151.460453 
L 65.028501 151.460453 
L 65.679111 151.460453 
L 66.329721 151.460453 
L 66.980332 151.460453 
L 67.630942 151.460453 
L 68.281552 151.460453 
L 68.932163 151.460453 
L 69.582773 151.460453 
L 70.233383 151.460453 
L 70.883993 151.460453 
L 71.534604 151.460453 
L 72.185214 151.460453 
L 72.835824 151.460453 
L 73.486435 151.460453 
L 74.137045 151.460453 
L 74.787655 151.460453 
L 75.438266 151.460453 
L 76.088876 151.460453 
L 76.739486 151.460453 
L 77.390097 151.460453 
L 78.040707 151.460453 
L 78.691317 151.460453 
L 79.341927 151.460453 
L 79.992538 151.460453 
L 80.643148 151.460453 
L 81.293758 151.460453 
L 81.944369 151.460453 
L 82.594979 151.460453 
L 83.245589 151.460453 
L 83.8962 151.460453 
L 84.54681 151.460453 
L 85.19742 151.460453 
L 85.848031 151.460453 
L 86.498641 151.460453 
L 87.149251 151.460453 
L 87.799862 151.460453 
L 88.450472 151.460453 
L 89.101082 151.460453 
L 89.751692 151.460453 
L 90.402303 151.460453 
L 91.052913 151.460453 
L 91.703523 151.460453 
L 92.354134 151.460453 
L 93.004744 151.460453 
L 93.655354 151.460453 
L 94.305965 151.460453 
L 94.956575 151.460453 
L 95.607185 151.460453 
L 96.257796 151.460453 
L 96.908406 151.460453 
L 97.559016 151.460453 
L 98.209627 151.460453 
L 98.860237 151.460453 
L 99.510847 151.460453 
L 100.161457 151.460453 
L 100.812068 151.460453 
L 101.462678 151.460453 
L 102.113288 151.460453 
L 102.763899 151.460453 
L 103.414509 151.460453 
L 104.065119 151.460453 
L 104.71573 151.460453 
L 105.36634 151.460453 
L 106.01695 151.460453 
L 106.667561 151.460453 
L 107.318171 151.460453 
L 107.968781 151.460453 
L 108.619392 151.460453 
L 109.270002 151.460453 
L 109.920612 151.460453 
L 110.571222 151.460453 
L 111.221833 151.460453 
L 111.872443 151.460453 
L 112.523053 151.460453 
L 113.173664 151.460453 
L 113.824274 151.460453 
L 114.474884 151.460453 
L 115.125495 151.460453 
L 115.776105 151.460453 
L 116.426715 151.460453 
L 117.077326 151.460453 
L 117.727936 151.460453 
L 118.378546 151.460453 
L 119.029156 151.460453 
L 119.679767 151.460453 
L 120.330377 151.460453 
L 120.980987 151.460453 
L 121.631598 151.460453 
L 122.282208 151.460453 
L 122.932818 151.460453 
L 123.583429 151.460453 
L 124.234039 151.460453 
L 124.884649 151.460453 
L 125.53526 151.460453 
L 126.18587 151.460453 
L 126.83648 151.460453 
L 127.487091 151.460453 
L 128.137701 151.460453 
L 128.788311 151.460453 
L 129.438921 151.460453 
L 130.089532 151.460453 
L 130.740142 151.460453 
L 131.390752 151.460453 
L 132.041363 151.460453 
L 132.691973 151.460453 
L 133.342583 151.460453 
L 133.993194 151.460453 
L 134.643804 151.460453 
L 135.294414 151.460453 
L 135.945025 151.460453 
L 136.595635 151.460453 
L 137.246245 151.460453 
L 137.896856 151.460453 
L 138.547466 151.460453 
L 139.198076 151.460453 
L 139.848686 151.460453 
L 140.499297 151.460453 
L 141.149907 151.460453 
L 141.800517 151.460453 
L 142.451128 151.460453 
L 143.101738 151.460453 
L 143.752348 151.460453 
L 144.402959 151.460453 
L 145.053569 151.460453 
L 145.704179 151.460453 
L 146.35479 151.460453 
L 147.0054 151.460453 
L 147.65601 151.460453 
L 148.306621 151.460453 
L 148.957231 151.460453 
L 149.607841 151.460453 
L 150.258451 151.460453 
L 150.909062 151.460453 
L 151.559672 151.460453 
L 152.210282 151.460453 
L 152.860893 151.460453 
L 153.511503 151.460453 
L 154.162113 151.460453 
L 154.812724 151.460453 
L 155.463334 151.460453 
L 156.113944 151.460453 
L 156.764555 151.460453 
L 157.415165 151.460453 
L 158.065775 151.460453 
L 158.716385 151.460453 
L 159.366996 151.460453 
L 160.017606 151.460453 
L 160.668216 151.460453 
L 161.318827 151.460453 
L 161.969437 151.460453 
L 162.620047 151.460453 
L 163.270658 151.460453 
L 163.921268 151.460453 
L 164.571878 151.460453 
L 165.222489 151.460453 
L 165.873099 151.460453 
L 166.523709 151.460453 
L 167.17432 151.460453 
L 167.82493 151.460453 
L 168.47554 151.460453 
L 169.12615 151.460453 
L 169.776761 151.460453 
L 170.427371 151.460453 
L 171.077981 151.460453 
L 171.728592 151.460453 
L 172.379202 151.460453 
L 173.029812 151.460453 
L 173.680423 151.460453 
L 174.331033 151.460453 
L 174.981643 151.460453 
L 175.632254 151.460453 
L 176.282864 151.460453 
L 176.933474 151.460453 
L 177.584085 151.460453 
L 178.234695 151.460453 
L 178.885305 151.460453 
L 179.535915 151.460453 
L 180.186526 151.460453 
L 180.837136 151.460453 
L 181.487746 151.460453 
L 182.138357 151.460453 
L 182.788967 151.460453 
L 183.439577 151.460453 
L 184.090188 151.460453 
L 184.740798 151.460453 
L 185.391408 151.460453 
L 186.042019 151.460453 
L 186.692629 151.460453 
L 187.343239 151.460453 
L 187.99385 151.460453 
L 188.64446 151.460453 
L 189.29507 151.460453 
L 189.94568 151.460453 
L 190.596291 151.460453 
L 191.246901 151.460453 
L 191.897511 151.460453 
L 192.548122 151.460453 
L 193.198732 151.460453 
L 193.849342 151.460453 
L 194.499953 151.460453 
L 195.150563 151.460453 
L 195.801173 151.460453 
L 196.451784 151.460453 
L 197.102394 151.460453 
L 197.753004 151.460453 
L 198.403615 151.460453 
L 199.054225 151.460453 
L 199.704835 151.460453 
L 200.355445 151.460453 
L 201.006056 151.460453 
L 201.656666 151.460453 
L 202.307276 151.460453 
L 202.957887 151.460453 
L 203.608497 151.460453 
L 204.259107 151.460453 
L 204.909718 151.460453 
L 205.560328 151.460453 
L 206.210938 151.460453 
L 206.861549 151.460453 
L 207.512159 151.460453 
L 208.162769 151.460453 
L 208.813379 151.460453 
L 209.46399 151.460453 
L 210.1146 151.460453 
L 210.76521 151.460453 
L 211.415821 151.460453 
L 212.066431 151.460453 
L 212.717041 151.460453 
L 213.367652 151.460453 
L 214.018262 151.460453 
L 214.668872 151.460453 
L 215.319483 151.460453 
L 215.970093 151.460453 
L 216.620703 151.460453 
L 217.271314 151.460453 
L 217.921924 151.460453 
L 218.572534 151.460453 
L 219.223144 151.460453 
L 219.873755 151.460453 
L 220.524365 151.460453 
L 221.174975 151.460453 
L 221.825586 151.460453 
L 222.476196 151.460453 
L 223.126806 151.460453 
L 223.777417 151.460453 
L 224.428027 151.460453 
L 225.078637 151.460453 
L 225.729248 151.460453 
L 226.379858 151.460453 
L 227.030468 151.460453 
L 227.681079 151.460453 
L 228.331689 151.460453 
L 228.982299 151.460453 
L 229.632909 151.460453 
L 230.28352 151.460453 
L 230.93413 151.460453 
L 231.58474 151.460453 
L 232.235351 151.460453 
L 232.885961 151.460453 
L 233.536571 151.460453 
L 234.187182 151.460453 
L 234.837792 151.460453 
L 235.488402 151.460453 
L 236.139013 151.460453 
L 236.789623 151.460453 
L 237.440233 151.460453 
L 238.090844 151.460453 
L 238.741454 151.460453 
L 239.392064 151.460453 
L 240.042674 151.460453 
L 240.693285 151.460453 
L 241.343895 151.460453 
L 241.994505 151.460453 
L 242.645116 151.460453 
L 243.295726 151.460453 
L 243.946336 151.460453 
L 244.596947 151.460453 
L 245.247557 151.460453 
L 245.898167 151.460453 
L 246.548778 151.460453 
L 247.199388 151.460453 
L 247.849998 151.460453 
L 248.500608 151.460453 
L 249.151219 151.460453 
L 249.801829 151.460453 
L 250.452439 151.460453 
L 251.10305 151.460453 
L 251.75366 151.460453 
L 252.40427 151.460453 
L 253.054881 151.460453 
L 253.705491 151.460453 
L 254.356101 151.460453 
L 255.006712 151.460453 
L 255.657322 151.460453 
L 256.307932 151.460453 
L 256.958543 151.460453 
L 257.609153 151.460453 
L 258.259763 151.460453 
L 258.910373 151.460453 
L 259.560984 151.460453 
L 260.211594 151.460453 
L 260.862204 151.460453 
L 261.512815 151.460453 
L 262.163425 151.460453 
L 262.814035 151.460453 
L 263.464646 151.460453 
L 264.115256 151.460453 
L 264.765866 151.460453 
L 265.416477 151.460453 
L 266.067087 151.460453 
L 266.717697 151.460453 
L 267.368308 151.460453 
L 268.018918 151.460453 
L 268.669528 151.460453 
L 269.320138 151.460453 
L 269.970749 151.460453 
L 270.621359 151.460453 
L 271.271969 151.460453 
L 271.92258 151.460453 
L 272.57319 151.460453 
L 273.2238 151.460453 
L 273.874411 151.460453 
L 274.525021 151.460453 
L 275.175631 151.460453 
L 275.826242 151.460453 
L 276.476852 151.460453 
L 277.127462 151.460453 
L 277.778073 151.460453 
L 278.428683 151.460453 
L 279.079293 151.460453 
L 279.729903 151.460453 
L 280.380514 151.460453 
L 281.031124 151.460453 
L 281.681734 151.460453 
L 282.332345 151.460453 
L 282.982955 151.460453 
L 283.633565 151.460453 
L 284.284176 151.460453 
L 284.934786 151.460453 
L 285.585396 151.460453 
L 286.236007 151.460453 
L 286.886617 151.460453 
L 287.537227 151.460453 
L 288.187837 151.460453 
L 288.838448 151.460453 
L 289.489058 151.460453 
L 290.139668 151.460453 
L 290.790279 151.460453 
L 291.440889 151.460453 
L 292.091499 151.460453 
L 292.74211 151.460453 
L 293.39272 151.460453 
L 294.04333 151.460453 
L 294.693941 151.460453 
L 295.344551 151.460453 
L 295.995161 151.460453 
L 296.645772 151.460453 
L 297.296382 151.460453 
L 297.946992 151.460453 
L 298.597602 151.460453 
L 299.248213 151.460453 
L 299.898823 151.460453 
L 300.549433 151.460453 
L 301.200044 151.460453 
L 301.850654 151.460453 
L 302.501264 151.460453 
L 303.151875 151.460453 
L 303.802485 151.460453 
L 304.453095 151.460453 
L 305.103706 151.460453 
L 305.754316 151.460453 
L 306.404926 151.460453 
L 307.055537 151.460453 
L 307.706147 151.460453 
L 308.356757 151.460453 
L 309.007367 151.460453 
L 309.657978 151.460453 
L 310.308588 151.460453 
L 310.959198 151.460453 
L 311.609809 151.460453 
L 312.260419 151.460453 
L 312.911029 151.460453 
L 313.56164 151.460453 
L 314.21225 151.460453 
L 314.86286 151.460453 
L 315.513471 151.460453 
L 316.164081 151.460453 
L 316.814691 151.460453 
L 317.465302 151.460453 
L 318.115912 151.460453 
L 318.766522 151.460453 
L 319.417132 151.460453 
L 320.067743 151.460453 
L 320.718353 151.460453 
L 321.368963 151.460453 
L 322.019574 151.460453 
L 322.670184 151.460453 
L 323.320794 151.460453 
L 323.971405 151.460453 
L 324.622015 151.460453 
L 325.272625 151.460453 
L 325.923236 151.460453 
L 326.573846 151.460453 
L 327.224456 151.460453 
L 327.875066 151.460453 
L 328.525677 151.460453 
L 329.176287 151.460453 
L 329.826897 151.460453 
L 330.477508 151.460453 
L 331.128118 151.460453 
L 331.778728 151.460453 
L 332.429339 151.460453 
L 333.079949 151.460453 
L 333.730559 151.460453 
L 334.38117 151.460453 
L 335.03178 151.460453 
L 335.68239 151.460453 
L 336.333001 151.460453 
L 336.983611 151.460453 
L 337.634221 151.460453 
L 338.284831 151.460453 
L 338.935442 151.460453 
L 339.586052 151.460453 
L 340.236662 151.460453 
L 340.887273 151.460453 
L 340.887273 149.720045 
L 340.887273 149.720045 
L 340.236662 149.552635 
L 339.586052 149.385226 
L 338.935442 149.217817 
L 338.284831 149.050408 
L 337.634221 148.882999 
L 336.983611 148.715589 
L 336.333001 148.54818 
L 335.68239 148.380771 
L 335.03178 148.213362 
L 334.38117 148.045953 
L 333.730559 147.878544 
L 333.079949 147.711134 
L 332.429339 147.543725 
L 331.778728 147.376316 
L 331.128118 147.208907 
L 330.477508 147.041498 
L 329.826897 146.929839 
L 329.176287 146.856448 
L 328.525677 146.783057 
L 327.875066 146.709666 
L 327.224456 146.636275 
L 326.573846 146.562884 
L 325.923236 146.489493 
L 325.272625 146.416102 
L 324.622015 146.342712 
L 323.971405 146.269321 
L 323.320794 146.19593 
L 322.670184 146.122539 
L 322.019574 146.049148 
L 321.368963 145.975757 
L 320.718353 146.009071 
L 320.067743 146.173339 
L 319.417132 146.337608 
L 318.766522 146.501877 
L 318.115912 146.666145 
L 317.465302 146.830414 
L 316.814691 146.994683 
L 316.164081 147.158951 
L 315.513471 147.32322 
L 314.86286 147.487489 
L 314.21225 147.651758 
L 313.56164 147.816026 
L 312.911029 147.980295 
L 312.260419 148.144564 
L 311.609809 148.308832 
L 310.959198 148.473101 
L 310.308588 148.605899 
L 309.657978 148.019985 
L 309.007367 147.434071 
L 308.356757 146.848157 
L 307.706147 146.262243 
L 307.055537 145.676328 
L 306.404926 145.090414 
L 305.754316 144.5045 
L 305.103706 143.918586 
L 304.453095 143.332672 
L 303.802485 142.746758 
L 303.151875 142.160843 
L 302.501264 141.574929 
L 301.850654 140.989015 
L 301.200044 140.403101 
L 300.549433 140.024916 
L 299.898823 140.064315 
L 299.248213 140.103714 
L 298.597602 140.143114 
L 297.946992 140.182513 
L 297.296382 140.221912 
L 296.645772 140.261311 
L 295.995161 140.300711 
L 295.344551 140.34011 
L 294.693941 140.379509 
L 294.04333 140.418909 
L 293.39272 140.458308 
L 292.74211 140.497707 
L 292.091499 140.537107 
L 291.440889 140.630603 
L 290.790279 140.957433 
L 290.139668 141.284262 
L 289.489058 141.611092 
L 288.838448 141.937921 
L 288.187837 142.264751 
L 287.537227 142.591581 
L 286.886617 142.91841 
L 286.236007 143.24524 
L 285.585396 143.572069 
L 284.934786 143.898899 
L 284.284176 144.225729 
L 283.633565 144.552558 
L 282.982955 144.879388 
L 282.332345 145.206217 
L 281.681734 145.533047 
L 281.031124 145.859877 
L 280.380514 146.076517 
L 279.729903 146.262291 
L 279.079293 146.448065 
L 278.428683 146.633839 
L 277.778073 146.819613 
L 277.127462 147.005387 
L 276.476852 147.191162 
L 275.826242 147.376936 
L 275.175631 147.56271 
L 274.525021 147.748484 
L 273.874411 147.934258 
L 273.2238 148.120032 
L 272.57319 148.305806 
L 271.92258 148.49158 
L 271.271969 148.51096 
L 270.621359 148.435595 
L 269.970749 148.36023 
L 269.320138 148.284865 
L 268.669528 148.2095 
L 268.018918 148.134135 
L 267.368308 148.05877 
L 266.717697 147.983405 
L 266.067087 147.90804 
L 265.416477 147.832675 
L 264.765866 147.75731 
L 264.115256 147.681945 
L 263.464646 147.60658 
L 262.814035 147.531215 
L 262.163425 147.45585 
L 261.512815 147.380485 
L 260.862204 147.230787 
L 260.211594 146.832458 
L 259.560984 146.434128 
L 258.910373 146.035799 
L 258.259763 145.63747 
L 257.609153 145.23914 
L 256.958543 144.840811 
L 256.307932 144.442482 
L 255.657322 144.044153 
L 255.006712 143.645823 
L 254.356101 143.247494 
L 253.705491 142.849165 
L 253.054881 142.450835 
L 252.40427 142.052506 
L 251.75366 141.622279 
L 251.10305 140.853775 
L 250.452439 140.085271 
L 249.801829 139.316767 
L 249.151219 138.548263 
L 248.500608 137.779759 
L 247.849998 137.011254 
L 247.199388 136.24275 
L 246.548778 135.474246 
L 245.898167 134.705742 
L 245.247557 133.937238 
L 244.596947 133.168734 
L 243.946336 132.400229 
L 243.295726 131.631725 
L 242.645116 130.863221 
L 241.994505 131.304577 
L 241.343895 131.820184 
L 240.693285 132.335792 
L 240.042674 132.851399 
L 239.392064 133.367007 
L 238.741454 133.882614 
L 238.090844 134.398221 
L 237.440233 134.913829 
L 236.789623 135.429436 
L 236.139013 135.945043 
L 235.488402 136.460651 
L 234.837792 136.976258 
L 234.187182 137.491866 
L 233.536571 138.007473 
L 232.885961 138.52308 
L 232.235351 139.038688 
L 231.58474 139.089048 
L 230.93413 138.735274 
L 230.28352 138.3815 
L 229.632909 138.027726 
L 228.982299 137.673952 
L 228.331689 137.320179 
L 227.681079 136.966405 
L 227.030468 136.612631 
L 226.379858 136.258857 
L 225.729248 135.905083 
L 225.078637 135.551309 
L 224.428027 135.197535 
L 223.777417 134.843761 
L 223.126806 134.489987 
L 222.476196 134.611161 
L 221.825586 135.4716 
L 221.174975 136.332039 
L 220.524365 137.192477 
L 219.873755 138.052916 
L 219.223144 138.913355 
L 218.572534 139.773794 
L 217.921924 140.634232 
L 217.271314 141.494671 
L 216.620703 142.35511 
L 215.970093 143.215549 
L 215.319483 144.075988 
L 214.668872 144.936426 
L 214.018262 145.796865 
L 213.367652 146.657304 
L 212.717041 147.517743 
L 212.066431 148.378182 
L 211.415821 148.404938 
L 210.76521 148.418249 
L 210.1146 148.431559 
L 209.46399 148.444869 
L 208.813379 148.45818 
L 208.162769 148.47149 
L 207.512159 148.4848 
L 206.861549 148.498111 
L 206.210938 148.511421 
L 205.560328 148.524731 
L 204.909718 148.538042 
L 204.259107 148.551352 
L 203.608497 148.564662 
L 202.957887 148.577973 
L 202.307276 148.211737 
L 201.656666 147.773281 
L 201.006056 147.334825 
L 200.355445 146.896369 
L 199.704835 146.457912 
L 199.054225 146.019456 
L 198.403615 145.581 
L 197.753004 145.142544 
L 197.102394 144.704088 
L 196.451784 144.265631 
L 195.801173 143.827175 
L 195.150563 143.388719 
L 194.499953 142.950263 
L 193.849342 142.511806 
L 193.198732 142.572503 
L 192.548122 142.851071 
L 191.897511 143.129639 
L 191.246901 143.408207 
L 190.596291 143.686774 
L 189.94568 143.965342 
L 189.29507 144.24391 
L 188.64446 144.522478 
L 187.99385 144.801046 
L 187.343239 145.079614 
L 186.692629 145.358182 
L 186.042019 145.636749 
L 185.391408 145.915317 
L 184.740798 146.193885 
L 184.090188 146.472453 
L 183.439577 146.751021 
L 182.788967 147.029589 
L 182.138357 146.722808 
L 181.487746 146.192165 
L 180.837136 145.661521 
L 180.186526 145.130877 
L 179.535915 144.600233 
L 178.885305 144.069589 
L 178.234695 143.538945 
L 177.584085 143.008301 
L 176.933474 142.477658 
L 176.282864 141.947014 
L 175.632254 141.41637 
L 174.981643 140.885726 
L 174.331033 140.355082 
L 173.680423 139.824438 
L 173.029812 139.415219 
L 172.379202 139.094156 
L 171.728592 138.773093 
L 171.077981 138.452031 
L 170.427371 138.130968 
L 169.776761 137.809906 
L 169.12615 137.488843 
L 168.47554 137.167781 
L 167.82493 136.846718 
L 167.17432 136.525655 
L 166.523709 136.204593 
L 165.873099 135.88353 
L 165.222489 135.562468 
L 164.571878 135.241405 
L 163.921268 134.920343 
L 163.270658 134.59928 
L 162.620047 134.387474 
L 161.969437 134.700384 
L 161.318827 135.013295 
L 160.668216 135.326206 
L 160.017606 135.639117 
L 159.366996 135.952028 
L 158.716385 136.264938 
L 158.065775 136.577849 
L 157.415165 136.89076 
L 156.764555 137.203671 
L 156.113944 137.516582 
L 155.463334 137.829492 
L 154.812724 138.142403 
L 154.162113 138.455314 
L 153.511503 138.775503 
L 152.860893 139.345181 
L 152.210282 139.914859 
L 151.559672 140.484537 
L 150.909062 141.054215 
L 150.258451 141.623893 
L 149.607841 142.193571 
L 148.957231 142.763249 
L 148.306621 143.332927 
L 147.65601 143.902606 
L 147.0054 144.472284 
L 146.35479 145.041962 
L 145.704179 145.61164 
L 145.053569 146.181318 
L 144.402959 146.750996 
L 143.752348 146.757152 
L 143.101738 146.689617 
L 142.451128 146.622081 
L 141.800517 146.554546 
L 141.149907 146.487011 
L 140.499297 146.419475 
L 139.848686 146.35194 
L 139.198076 146.284405 
L 138.547466 146.21687 
L 137.896856 146.149334 
L 137.246245 146.081799 
L 136.595635 146.014264 
L 135.945025 145.946728 
L 135.294414 145.879193 
L 134.643804 145.811658 
L 133.993194 145.744122 
L 133.342583 145.807674 
L 132.691973 146.014768 
L 132.041363 146.221861 
L 131.390752 146.428955 
L 130.740142 146.636049 
L 130.089532 146.843143 
L 129.438921 147.050236 
L 128.788311 147.25733 
L 128.137701 147.464424 
L 127.487091 147.671518 
L 126.83648 147.878611 
L 126.18587 148.085705 
L 125.53526 148.292799 
L 124.884649 148.499892 
L 124.234039 148.574298 
L 123.583429 148.383328 
L 122.932818 148.192358 
L 122.282208 148.001389 
L 121.631598 147.810419 
L 120.980987 147.619449 
L 120.330377 147.428479 
L 119.679767 147.237509 
L 119.029156 147.046539 
L 118.378546 146.855569 
L 117.727936 146.664599 
L 117.077326 146.473629 
L 116.426715 146.282659 
L 115.776105 146.091689 
L 115.125495 145.900719 
L 114.474884 145.709749 
L 113.824274 145.518779 
L 113.173664 145.107016 
L 112.523053 144.677686 
L 111.872443 144.248356 
L 111.221833 143.819027 
L 110.571222 143.389697 
L 109.920612 142.960367 
L 109.270002 142.531038 
L 108.619392 142.101708 
L 107.968781 141.672378 
L 107.318171 141.243049 
L 106.667561 140.813719 
L 106.01695 140.384389 
L 105.36634 139.95506 
L 104.71573 139.52573 
L 104.065119 139.382499 
L 103.414509 139.318878 
L 102.763899 139.255257 
L 102.113288 139.191636 
L 101.462678 139.128015 
L 100.812068 139.064394 
L 100.161457 139.000773 
L 99.510847 138.937152 
L 98.860237 138.873531 
L 98.209627 138.80991 
L 97.559016 138.74629 
L 96.908406 138.682669 
L 96.257796 138.619048 
L 95.607185 138.555427 
L 94.956575 138.710681 
L 94.305965 138.989953 
L 93.655354 139.269224 
L 93.004744 139.548495 
L 92.354134 139.827767 
L 91.703523 140.107038 
L 91.052913 140.386309 
L 90.402303 140.665581 
L 89.751692 140.944852 
L 89.101082 141.224123 
L 88.450472 141.503394 
L 87.799862 141.782666 
L 87.149251 142.061937 
L 86.498641 142.341208 
L 85.848031 142.62048 
L 85.19742 142.899751 
L 84.54681 143.043695 
L 83.8962 142.737873 
L 83.245589 142.432052 
L 82.594979 142.126231 
L 81.944369 141.820409 
L 81.293758 141.514588 
L 80.643148 141.208767 
L 79.992538 140.902945 
L 79.341927 140.597124 
L 78.691317 140.291303 
L 78.040707 139.985481 
L 77.390097 139.67966 
L 76.739486 139.373839 
L 76.088876 139.068017 
L 75.438266 138.762196 
L 74.787655 138.665163 
L 74.137045 138.759672 
L 73.486435 138.85418 
L 72.835824 138.948688 
L 72.185214 139.043196 
L 71.534604 139.137705 
L 70.883993 139.232213 
L 70.233383 139.326721 
L 69.582773 139.421229 
L 68.932163 139.515738 
L 68.281552 139.610246 
L 67.630942 139.704754 
L 66.980332 139.799263 
L 66.329721 139.893771 
L 65.679111 139.988279 
L 65.028501 140.082787 
L 64.37789 140.20356 
L 63.72728 140.527424 
L 63.07667 140.851288 
L 62.426059 141.175152 
L 61.775449 141.499016 
L 61.124839 141.82288 
L 60.474228 142.146745 
L 59.823618 142.470609 
L 59.173008 142.794473 
L 58.522398 143.118337 
L 57.871787 143.442201 
L 57.221177 143.766065 
L 56.570567 144.08993 
L 55.919956 144.413794 
L 55.269346 144.737658 
L 54.618736 144.749997 
L 53.968125 144.752873 
L 53.317515 144.75575 
L 52.666905 144.758627 
L 52.016294 144.761504 
L 51.365684 144.76438 
L 50.715074 144.767257 
L 50.064463 144.770134 
L 49.413853 144.773011 
L 48.763243 144.775887 
L 48.112633 144.778764 
L 47.462022 144.781641 
L 46.811412 144.784518 
L 46.160802 144.787394 
L 45.510191 144.979752 
L 44.859581 145.211877 
L 44.208971 145.444002 
L 43.55836 145.676127 
L 42.90775 145.908252 
L 42.25714 146.140377 
L 41.606529 146.372502 
L 40.955919 146.604627 
L 40.305309 146.836752 
L 39.654698 147.068877 
L 39.004088 147.301002 
L 38.353478 147.533127 
L 37.702868 147.765252 
L 37.052257 147.997377 
L 36.401647 148.229502 
L 35.751037 148.461627 
L 35.100426 148.555144 
L 34.449816 148.456859 
L 33.799206 148.358574 
L 33.148595 148.260289 
L 32.497985 148.162003 
L 31.847375 148.063718 
L 31.196764 147.965433 
L 30.546154 147.867147 
L 29.895544 147.768862 
L 29.244934 147.670577 
L 28.594323 147.572291 
L 27.943713 147.474006 
L 27.293103 147.375721 
L 26.642492 147.277436 
L 25.991882 147.218917 
L 25.341272 147.264969 
L 24.690661 147.311021 
L 24.040051 147.357073 
L 23.389441 147.403125 
L 22.73883 147.449177 
L 22.08822 147.495229 
L 21.43761 147.541282 
L 20.786999 147.587334 
L 20.136389 147.633386 
L 19.485779 147.679438 
L 18.835169 147.72549 
L 18.184558 147.771542 
L 17.533948 147.817594 
L 16.883338 147.863647 
L 16.232727 147.909699 
z
" style="fill:#f6ed22;fill-opacity:0.3;"/>
   </g>
   <g id="PolyCollection_3">
    <path clip-path="url(#pef950ca6d4)" d="M 16.232727 140.79396 
L 16.232727 151.460453 
L 16.883338 151.460453 
L 17.533948 151.460453 
L 18.184558 151.460453 
L 18.835169 151.460453 
L 19.485779 151.460453 
L 20.136389 151.460453 
L 20.786999 151.460453 
L 21.43761 151.460453 
L 22.08822 151.460453 
L 22.73883 151.460453 
L 23.389441 151.460453 
L 24.040051 151.460453 
L 24.690661 151.460453 
L 25.341272 151.460453 
L 25.991882 151.460453 
L 26.642492 151.460453 
L 27.293103 151.460453 
L 27.943713 151.460453 
L 28.594323 151.460453 
L 29.244934 151.460453 
L 29.895544 151.460453 
L 30.546154 151.460453 
L 31.196764 151.460453 
L 31.847375 151.460453 
L 32.497985 151.460453 
L 33.148595 151.460453 
L 33.799206 151.460453 
L 34.449816 151.460453 
L 35.100426 151.460453 
L 35.751037 151.460453 
L 36.401647 151.460453 
L 37.052257 151.460453 
L 37.702868 151.460453 
L 38.353478 151.460453 
L 39.004088 151.460453 
L 39.654698 151.460453 
L 40.305309 151.460453 
L 40.955919 151.460453 
L 41.606529 151.460453 
L 42.25714 151.460453 
L 42.90775 151.460453 
L 43.55836 151.460453 
L 44.208971 151.460453 
L 44.859581 151.460453 
L 45.510191 151.460453 
L 46.160802 151.460453 
L 46.811412 151.460453 
L 47.462022 151.460453 
L 48.112633 151.460453 
L 48.763243 151.460453 
L 49.413853 151.460453 
L 50.064463 151.460453 
L 50.715074 151.460453 
L 51.365684 151.460453 
L 52.016294 151.460453 
L 52.666905 151.460453 
L 53.317515 151.460453 
L 53.968125 151.460453 
L 54.618736 151.460453 
L 55.269346 151.460453 
L 55.919956 151.460453 
L 56.570567 151.460453 
L 57.221177 151.460453 
L 57.871787 151.460453 
L 58.522398 151.460453 
L 59.173008 151.460453 
L 59.823618 151.460453 
L 60.474228 151.460453 
L 61.124839 151.460453 
L 61.775449 151.460453 
L 62.426059 151.460453 
L 63.07667 151.460453 
L 63.72728 151.460453 
L 64.37789 151.460453 
L 65.028501 151.460453 
L 65.679111 151.460453 
L 66.329721 151.460453 
L 66.980332 151.460453 
L 67.630942 151.460453 
L 68.281552 151.460453 
L 68.932163 151.460453 
L 69.582773 151.460453 
L 70.233383 151.460453 
L 70.883993 151.460453 
L 71.534604 151.460453 
L 72.185214 151.460453 
L 72.835824 151.460453 
L 73.486435 151.460453 
L 74.137045 151.460453 
L 74.787655 151.460453 
L 75.438266 151.460453 
L 76.088876 151.460453 
L 76.739486 151.460453 
L 77.390097 151.460453 
L 78.040707 151.460453 
L 78.691317 151.460453 
L 79.341927 151.460453 
L 79.992538 151.460453 
L 80.643148 151.460453 
L 81.293758 151.460453 
L 81.944369 151.460453 
L 82.594979 151.460453 
L 83.245589 151.460453 
L 83.8962 151.460453 
L 84.54681 151.460453 
L 85.19742 151.460453 
L 85.848031 151.460453 
L 86.498641 151.460453 
L 87.149251 151.460453 
L 87.799862 151.460453 
L 88.450472 151.460453 
L 89.101082 151.460453 
L 89.751692 151.460453 
L 90.402303 151.460453 
L 91.052913 151.460453 
L 91.703523 151.460453 
L 92.354134 151.460453 
L 93.004744 151.460453 
L 93.655354 151.460453 
L 94.305965 151.460453 
L 94.956575 151.460453 
L 95.607185 151.460453 
L 96.257796 151.460453 
L 96.908406 151.460453 
L 97.559016 151.460453 
L 98.209627 151.460453 
L 98.860237 151.460453 
L 99.510847 151.460453 
L 100.161457 151.460453 
L 100.812068 151.460453 
L 101.462678 151.460453 
L 102.113288 151.460453 
L 102.763899 151.460453 
L 103.414509 151.460453 
L 104.065119 151.460453 
L 104.71573 151.460453 
L 105.36634 151.460453 
L 106.01695 151.460453 
L 106.667561 151.460453 
L 107.318171 151.460453 
L 107.968781 151.460453 
L 108.619392 151.460453 
L 109.270002 151.460453 
L 109.920612 151.460453 
L 110.571222 151.460453 
L 111.221833 151.460453 
L 111.872443 151.460453 
L 112.523053 151.460453 
L 113.173664 151.460453 
L 113.824274 151.460453 
L 114.474884 151.460453 
L 115.125495 151.460453 
L 115.776105 151.460453 
L 116.426715 151.460453 
L 117.077326 151.460453 
L 117.727936 151.460453 
L 118.378546 151.460453 
L 119.029156 151.460453 
L 119.679767 151.460453 
L 120.330377 151.460453 
L 120.980987 151.460453 
L 121.631598 151.460453 
L 122.282208 151.460453 
L 122.932818 151.460453 
L 123.583429 151.460453 
L 124.234039 151.460453 
L 124.884649 151.460453 
L 125.53526 151.460453 
L 126.18587 151.460453 
L 126.83648 151.460453 
L 127.487091 151.460453 
L 128.137701 151.460453 
L 128.788311 151.460453 
L 129.438921 151.460453 
L 130.089532 151.460453 
L 130.740142 151.460453 
L 131.390752 151.460453 
L 132.041363 151.460453 
L 132.691973 151.460453 
L 133.342583 151.460453 
L 133.993194 151.460453 
L 134.643804 151.460453 
L 135.294414 151.460453 
L 135.945025 151.460453 
L 136.595635 151.460453 
L 137.246245 151.460453 
L 137.896856 151.460453 
L 138.547466 151.460453 
L 139.198076 151.460453 
L 139.848686 151.460453 
L 140.499297 151.460453 
L 141.149907 151.460453 
L 141.800517 151.460453 
L 142.451128 151.460453 
L 143.101738 151.460453 
L 143.752348 151.460453 
L 144.402959 151.460453 
L 145.053569 151.460453 
L 145.704179 151.460453 
L 146.35479 151.460453 
L 147.0054 151.460453 
L 147.65601 151.460453 
L 148.306621 151.460453 
L 148.957231 151.460453 
L 149.607841 151.460453 
L 150.258451 151.460453 
L 150.909062 151.460453 
L 151.559672 151.460453 
L 152.210282 151.460453 
L 152.860893 151.460453 
L 153.511503 151.460453 
L 154.162113 151.460453 
L 154.812724 151.460453 
L 155.463334 151.460453 
L 156.113944 151.460453 
L 156.764555 151.460453 
L 157.415165 151.460453 
L 158.065775 151.460453 
L 158.716385 151.460453 
L 159.366996 151.460453 
L 160.017606 151.460453 
L 160.668216 151.460453 
L 161.318827 151.460453 
L 161.969437 151.460453 
L 162.620047 151.460453 
L 163.270658 151.460453 
L 163.921268 151.460453 
L 164.571878 151.460453 
L 165.222489 151.460453 
L 165.873099 151.460453 
L 166.523709 151.460453 
L 167.17432 151.460453 
L 167.82493 151.460453 
L 168.47554 151.460453 
L 169.12615 151.460453 
L 169.776761 151.460453 
L 170.427371 151.460453 
L 171.077981 151.460453 
L 171.728592 151.460453 
L 172.379202 151.460453 
L 173.029812 151.460453 
L 173.680423 151.460453 
L 174.331033 151.460453 
L 174.981643 151.460453 
L 175.632254 151.460453 
L 176.282864 151.460453 
L 176.933474 151.460453 
L 177.584085 151.460453 
L 178.234695 151.460453 
L 178.885305 151.460453 
L 179.535915 151.460453 
L 180.186526 151.460453 
L 180.837136 151.460453 
L 181.487746 151.460453 
L 182.138357 151.460453 
L 182.788967 151.460453 
L 183.439577 151.460453 
L 184.090188 151.460453 
L 184.740798 151.460453 
L 185.391408 151.460453 
L 186.042019 151.460453 
L 186.692629 151.460453 
L 187.343239 151.460453 
L 187.99385 151.460453 
L 188.64446 151.460453 
L 189.29507 151.460453 
L 189.94568 151.460453 
L 190.596291 151.460453 
L 191.246901 151.460453 
L 191.897511 151.460453 
L 192.548122 151.460453 
L 193.198732 151.460453 
L 193.849342 151.460453 
L 194.499953 151.460453 
L 195.150563 151.460453 
L 195.801173 151.460453 
L 196.451784 151.460453 
L 197.102394 151.460453 
L 197.753004 151.460453 
L 198.403615 151.460453 
L 199.054225 151.460453 
L 199.704835 151.460453 
L 200.355445 151.460453 
L 201.006056 151.460453 
L 201.656666 151.460453 
L 202.307276 151.460453 
L 202.957887 151.460453 
L 203.608497 151.460453 
L 204.259107 151.460453 
L 204.909718 151.460453 
L 205.560328 151.460453 
L 206.210938 151.460453 
L 206.861549 151.460453 
L 207.512159 151.460453 
L 208.162769 151.460453 
L 208.813379 151.460453 
L 209.46399 151.460453 
L 210.1146 151.460453 
L 210.76521 151.460453 
L 211.415821 151.460453 
L 212.066431 151.460453 
L 212.717041 151.460453 
L 213.367652 151.460453 
L 214.018262 151.460453 
L 214.668872 151.460453 
L 215.319483 151.460453 
L 215.970093 151.460453 
L 216.620703 151.460453 
L 217.271314 151.460453 
L 217.921924 151.460453 
L 218.572534 151.460453 
L 219.223144 151.460453 
L 219.873755 151.460453 
L 220.524365 151.460453 
L 221.174975 151.460453 
L 221.825586 151.460453 
L 222.476196 151.460453 
L 223.126806 151.460453 
L 223.777417 151.460453 
L 224.428027 151.460453 
L 225.078637 151.460453 
L 225.729248 151.460453 
L 226.379858 151.460453 
L 227.030468 151.460453 
L 227.681079 151.460453 
L 228.331689 151.460453 
L 228.982299 151.460453 
L 229.632909 151.460453 
L 230.28352 151.460453 
L 230.93413 151.460453 
L 231.58474 151.460453 
L 232.235351 151.460453 
L 232.885961 151.460453 
L 233.536571 151.460453 
L 234.187182 151.460453 
L 234.837792 151.460453 
L 235.488402 151.460453 
L 236.139013 151.460453 
L 236.789623 151.460453 
L 237.440233 151.460453 
L 238.090844 151.460453 
L 238.741454 151.460453 
L 239.392064 151.460453 
L 240.042674 151.460453 
L 240.693285 151.460453 
L 241.343895 151.460453 
L 241.994505 151.460453 
L 242.645116 151.460453 
L 243.295726 151.460453 
L 243.946336 151.460453 
L 244.596947 151.460453 
L 245.247557 151.460453 
L 245.898167 151.460453 
L 246.548778 151.460453 
L 247.199388 151.460453 
L 247.849998 151.460453 
L 248.500608 151.460453 
L 249.151219 151.460453 
L 249.801829 151.460453 
L 250.452439 151.460453 
L 251.10305 151.460453 
L 251.75366 151.460453 
L 252.40427 151.460453 
L 253.054881 151.460453 
L 253.705491 151.460453 
L 254.356101 151.460453 
L 255.006712 151.460453 
L 255.657322 151.460453 
L 256.307932 151.460453 
L 256.958543 151.460453 
L 257.609153 151.460453 
L 258.259763 151.460453 
L 258.910373 151.460453 
L 259.560984 151.460453 
L 260.211594 151.460453 
L 260.862204 151.460453 
L 261.512815 151.460453 
L 262.163425 151.460453 
L 262.814035 151.460453 
L 263.464646 151.460453 
L 264.115256 151.460453 
L 264.765866 151.460453 
L 265.416477 151.460453 
L 266.067087 151.460453 
L 266.717697 151.460453 
L 267.368308 151.460453 
L 268.018918 151.460453 
L 268.669528 151.460453 
L 269.320138 151.460453 
L 269.970749 151.460453 
L 270.621359 151.460453 
L 271.271969 151.460453 
L 271.92258 151.460453 
L 272.57319 151.460453 
L 273.2238 151.460453 
L 273.874411 151.460453 
L 274.525021 151.460453 
L 275.175631 151.460453 
L 275.826242 151.460453 
L 276.476852 151.460453 
L 277.127462 151.460453 
L 277.778073 151.460453 
L 278.428683 151.460453 
L 279.079293 151.460453 
L 279.729903 151.460453 
L 280.380514 151.460453 
L 281.031124 151.460453 
L 281.681734 151.460453 
L 282.332345 151.460453 
L 282.982955 151.460453 
L 283.633565 151.460453 
L 284.284176 151.460453 
L 284.934786 151.460453 
L 285.585396 151.460453 
L 286.236007 151.460453 
L 286.886617 151.460453 
L 287.537227 151.460453 
L 288.187837 151.460453 
L 288.838448 151.460453 
L 289.489058 151.460453 
L 290.139668 151.460453 
L 290.790279 151.460453 
L 291.440889 151.460453 
L 292.091499 151.460453 
L 292.74211 151.460453 
L 293.39272 151.460453 
L 294.04333 151.460453 
L 294.693941 151.460453 
L 295.344551 151.460453 
L 295.995161 151.460453 
L 296.645772 151.460453 
L 297.296382 151.460453 
L 297.946992 151.460453 
L 298.597602 151.460453 
L 299.248213 151.460453 
L 299.898823 151.460453 
L 300.549433 151.460453 
L 301.200044 151.460453 
L 301.850654 151.460453 
L 302.501264 151.460453 
L 303.151875 151.460453 
L 303.802485 151.460453 
L 304.453095 151.460453 
L 305.103706 151.460453 
L 305.754316 151.460453 
L 306.404926 151.460453 
L 307.055537 151.460453 
L 307.706147 151.460453 
L 308.356757 151.460453 
L 309.007367 151.460453 
L 309.657978 151.460453 
L 310.308588 151.460453 
L 310.959198 151.460453 
L 311.609809 151.460453 
L 312.260419 151.460453 
L 312.911029 151.460453 
L 313.56164 151.460453 
L 314.21225 151.460453 
L 314.86286 151.460453 
L 315.513471 151.460453 
L 316.164081 151.460453 
L 316.814691 151.460453 
L 317.465302 151.460453 
L 318.115912 151.460453 
L 318.766522 151.460453 
L 319.417132 151.460453 
L 320.067743 151.460453 
L 320.718353 151.460453 
L 321.368963 151.460453 
L 322.019574 151.460453 
L 322.670184 151.460453 
L 323.320794 151.460453 
L 323.971405 151.460453 
L 324.622015 151.460453 
L 325.272625 151.460453 
L 325.923236 151.460453 
L 326.573846 151.460453 
L 327.224456 151.460453 
L 327.875066 151.460453 
L 328.525677 151.460453 
L 329.176287 151.460453 
L 329.826897 151.460453 
L 330.477508 151.460453 
L 331.128118 151.460453 
L 331.778728 151.460453 
L 332.429339 151.460453 
L 333.079949 151.460453 
L 333.730559 151.460453 
L 334.38117 151.460453 
L 335.03178 151.460453 
L 335.68239 151.460453 
L 336.333001 151.460453 
L 336.983611 151.460453 
L 337.634221 151.460453 
L 338.284831 151.460453 
L 338.935442 151.460453 
L 339.586052 151.460453 
L 340.236662 151.460453 
L 340.887273 151.460453 
L 340.887273 132.861925 
L 340.887273 132.861925 
L 340.236662 132.86304 
L 339.586052 132.864156 
L 338.935442 132.865271 
L 338.284831 132.866387 
L 337.634221 132.867502 
L 336.983611 132.868618 
L 336.333001 132.869733 
L 335.68239 132.870849 
L 335.03178 132.871964 
L 334.38117 132.87308 
L 333.730559 132.874195 
L 333.079949 132.875311 
L 332.429339 132.876426 
L 331.778728 132.877542 
L 331.128118 132.878657 
L 330.477508 132.879773 
L 329.826897 132.979492 
L 329.176287 133.146896 
L 328.525677 133.314299 
L 327.875066 133.481703 
L 327.224456 133.649106 
L 326.573846 133.81651 
L 325.923236 133.983913 
L 325.272625 134.151317 
L 324.622015 134.31872 
L 323.971405 134.486124 
L 323.320794 134.653528 
L 322.670184 134.820931 
L 322.019574 134.988335 
L 321.368963 135.155738 
L 320.718353 134.841068 
L 320.067743 133.934762 
L 319.417132 133.028456 
L 318.766522 132.122151 
L 318.115912 131.215845 
L 317.465302 130.309539 
L 316.814691 129.403233 
L 316.164081 128.496928 
L 315.513471 127.590622 
L 314.86286 126.684316 
L 314.21225 125.77801 
L 313.56164 124.871704 
L 312.911029 123.965399 
L 312.260419 123.059093 
L 311.609809 122.152787 
L 310.959198 121.246481 
L 310.308588 120.405722 
L 309.657978 121.061897 
L 309.007367 121.718073 
L 308.356757 122.374249 
L 307.706147 123.030425 
L 307.055537 123.6866 
L 306.404926 124.342776 
L 305.754316 124.998952 
L 305.103706 125.655128 
L 304.453095 126.311303 
L 303.802485 126.967479 
L 303.151875 127.623655 
L 302.501264 128.27983 
L 301.850654 128.936006 
L 301.200044 129.592182 
L 300.549433 130.212801 
L 299.898823 130.761941 
L 299.248213 131.311082 
L 298.597602 131.860222 
L 297.946992 132.409363 
L 297.296382 132.958503 
L 296.645772 133.507644 
L 295.995161 134.056784 
L 295.344551 134.605925 
L 294.693941 135.155065 
L 294.04333 135.704206 
L 293.39272 136.253346 
L 292.74211 136.802487 
L 292.091499 137.351627 
L 291.440889 137.671949 
L 290.790279 137.005315 
L 290.139668 136.33868 
L 289.489058 135.672046 
L 288.838448 135.005412 
L 288.187837 134.338778 
L 287.537227 133.672143 
L 286.886617 133.005509 
L 286.236007 132.338875 
L 285.585396 131.672241 
L 284.934786 131.005607 
L 284.284176 130.338972 
L 283.633565 129.672338 
L 282.982955 129.005704 
L 282.332345 128.33907 
L 281.681734 127.672436 
L 281.031124 127.005801 
L 280.380514 126.612978 
L 279.729903 126.296853 
L 279.079293 125.980728 
L 278.428683 125.664603 
L 277.778073 125.348478 
L 277.127462 125.032354 
L 276.476852 124.716229 
L 275.826242 124.400104 
L 275.175631 124.083979 
L 274.525021 123.767854 
L 273.874411 123.451729 
L 273.2238 123.135605 
L 272.57319 122.81948 
L 271.92258 122.503355 
L 271.271969 122.550245 
L 270.621359 122.803834 
L 269.970749 123.057423 
L 269.320138 123.311012 
L 268.669528 123.564601 
L 268.018918 123.81819 
L 267.368308 124.071779 
L 266.717697 124.325368 
L 266.067087 124.578957 
L 265.416477 124.832546 
L 264.765866 125.086136 
L 264.115256 125.339725 
L 263.464646 125.593314 
L 262.814035 125.846903 
L 262.163425 126.100492 
L 261.512815 126.354081 
L 260.862204 126.551596 
L 260.211594 126.561555 
L 259.560984 126.571515 
L 258.910373 126.581474 
L 258.259763 126.591433 
L 257.609153 126.601392 
L 256.958543 126.611351 
L 256.307932 126.62131 
L 255.657322 126.63127 
L 255.006712 126.641229 
L 254.356101 126.651188 
L 253.705491 126.661147 
L 253.054881 126.671106 
L 252.40427 126.681065 
L 251.75366 126.763086 
L 251.10305 127.609341 
L 250.452439 128.455595 
L 249.801829 129.30185 
L 249.151219 130.148104 
L 248.500608 130.994359 
L 247.849998 131.840614 
L 247.199388 132.686868 
L 246.548778 133.533123 
L 245.898167 134.379377 
L 245.247557 135.225632 
L 244.596947 136.071886 
L 243.946336 136.918141 
L 243.295726 137.764395 
L 242.645116 138.61065 
L 241.994505 138.162877 
L 241.343895 137.635688 
L 240.693285 137.108498 
L 240.042674 136.581308 
L 239.392064 136.054119 
L 238.741454 135.526929 
L 238.090844 134.99974 
L 237.440233 134.47255 
L 236.789623 133.94536 
L 236.139013 133.418171 
L 235.488402 132.890981 
L 234.837792 132.363792 
L 234.187182 131.836602 
L 233.536571 131.309413 
L 232.885961 130.782223 
L 232.235351 130.255033 
L 231.58474 130.146119 
L 230.93413 130.400537 
L 230.28352 130.654956 
L 229.632909 130.909374 
L 228.982299 131.163792 
L 228.331689 131.41821 
L 227.681079 131.672628 
L 227.030468 131.927047 
L 226.379858 132.181465 
L 225.729248 132.435883 
L 225.078637 132.690301 
L 224.428027 132.944719 
L 223.777417 133.199138 
L 223.126806 133.453556 
L 222.476196 133.557166 
L 221.825586 133.426039 
L 221.174975 133.294913 
L 220.524365 133.163786 
L 219.873755 133.032659 
L 219.223144 132.901533 
L 218.572534 132.770406 
L 217.921924 132.63928 
L 217.271314 132.508153 
L 216.620703 132.377026 
L 215.970093 132.2459 
L 215.319483 132.114773 
L 214.668872 131.983647 
L 214.018262 131.85252 
L 213.367652 131.721394 
L 212.717041 131.590267 
L 212.066431 131.45914 
L 211.415821 131.284553 
L 210.76521 131.109264 
L 210.1146 130.933976 
L 209.46399 130.758688 
L 208.813379 130.583399 
L 208.162769 130.408111 
L 207.512159 130.232822 
L 206.861549 130.057534 
L 206.210938 129.882245 
L 205.560328 129.706957 
L 204.909718 129.531668 
L 204.259107 129.35638 
L 203.608497 129.181091 
L 202.957887 129.005803 
L 202.307276 129.43982 
L 201.656666 129.989778 
L 201.006056 130.539736 
L 200.355445 131.089694 
L 199.704835 131.639651 
L 199.054225 132.189609 
L 198.403615 132.739567 
L 197.753004 133.289525 
L 197.102394 133.839483 
L 196.451784 134.389441 
L 195.801173 134.939399 
L 195.150563 135.489356 
L 194.499953 136.039314 
L 193.849342 136.589272 
L 193.198732 136.17535 
L 192.548122 135.34071 
L 191.897511 134.506071 
L 191.246901 133.671432 
L 190.596291 132.836793 
L 189.94568 132.002154 
L 189.29507 131.167515 
L 188.64446 130.332876 
L 187.99385 129.498237 
L 187.343239 128.663598 
L 186.692629 127.828959 
L 186.042019 126.99432 
L 185.391408 126.159681 
L 184.740798 125.325042 
L 184.090188 124.490403 
L 183.439577 123.655764 
L 182.788967 122.821125 
L 182.138357 123.007706 
L 181.487746 123.584847 
L 180.837136 124.161989 
L 180.186526 124.739131 
L 179.535915 125.316272 
L 178.885305 125.893414 
L 178.234695 126.470556 
L 177.584085 127.047697 
L 176.933474 127.624839 
L 176.282864 128.20198 
L 175.632254 128.779122 
L 174.981643 129.356264 
L 174.331033 129.933405 
L 173.680423 130.510547 
L 173.029812 130.91782 
L 172.379202 131.201763 
L 171.728592 131.485705 
L 171.077981 131.769648 
L 170.427371 132.053591 
L 169.776761 132.337534 
L 169.12615 132.621477 
L 168.47554 132.90542 
L 167.82493 133.189363 
L 167.17432 133.473306 
L 166.523709 133.757248 
L 165.873099 134.041191 
L 165.222489 134.325134 
L 164.571878 134.609077 
L 163.921268 134.89302 
L 163.270658 135.176963 
L 162.620047 135.436309 
L 161.969437 135.577526 
L 161.318827 135.718743 
L 160.668216 135.85996 
L 160.017606 136.001177 
L 159.366996 136.142394 
L 158.716385 136.283611 
L 158.065775 136.424828 
L 157.415165 136.566045 
L 156.764555 136.707262 
L 156.113944 136.848479 
L 155.463334 136.989696 
L 154.812724 137.130913 
L 154.162113 137.27213 
L 153.511503 137.417188 
L 152.860893 137.693912 
L 152.210282 137.970635 
L 151.559672 138.247359 
L 150.909062 138.524083 
L 150.258451 138.800806 
L 149.607841 139.07753 
L 148.957231 139.354253 
L 148.306621 139.630977 
L 147.65601 139.9077 
L 147.0054 140.184424 
L 146.35479 140.461148 
L 145.704179 140.737871 
L 145.053569 141.014595 
L 144.402959 141.291318 
L 143.752348 140.922376 
L 143.101738 140.469001 
L 142.451128 140.015626 
L 141.800517 139.562251 
L 141.149907 139.108876 
L 140.499297 138.655501 
L 139.848686 138.202126 
L 139.198076 137.748751 
L 138.547466 137.295376 
L 137.896856 136.842001 
L 137.246245 136.388626 
L 136.595635 135.935251 
L 135.945025 135.481876 
L 135.294414 135.028501 
L 134.643804 134.575126 
L 133.993194 134.121751 
L 133.342583 133.500631 
L 132.691973 132.695829 
L 132.041363 131.891026 
L 131.390752 131.086223 
L 130.740142 130.281421 
L 130.089532 129.476618 
L 129.438921 128.671816 
L 128.788311 127.867013 
L 128.137701 127.06221 
L 127.487091 126.257408 
L 126.83648 125.452605 
L 126.18587 124.647803 
L 125.53526 123.843 
L 124.884649 123.038197 
L 124.234039 122.64598 
L 123.583429 123.078933 
L 122.932818 123.511885 
L 122.282208 123.944838 
L 121.631598 124.377791 
L 120.980987 124.810744 
L 120.330377 125.243697 
L 119.679767 125.67665 
L 119.029156 126.109603 
L 118.378546 126.542555 
L 117.727936 126.975508 
L 117.077326 127.408461 
L 116.426715 127.841414 
L 115.776105 128.274367 
L 115.125495 128.70732 
L 114.474884 129.140272 
L 113.824274 129.573225 
L 113.173664 129.825495 
L 112.523053 130.063389 
L 111.872443 130.301283 
L 111.221833 130.539178 
L 110.571222 130.777072 
L 109.920612 131.014967 
L 109.270002 131.252861 
L 108.619392 131.490755 
L 107.968781 131.72865 
L 107.318171 131.966544 
L 106.667561 132.204438 
L 106.01695 132.442333 
L 105.36634 132.680227 
L 104.71573 132.918122 
L 104.065119 133.535644 
L 103.414509 134.258803 
L 102.763899 134.981961 
L 102.113288 135.70512 
L 101.462678 136.428278 
L 100.812068 137.151436 
L 100.161457 137.874595 
L 99.510847 138.597753 
L 98.860237 139.320912 
L 98.209627 140.04407 
L 97.559016 140.767229 
L 96.908406 141.490387 
L 96.257796 142.213545 
L 95.607185 142.936704 
L 94.956575 142.82564 
L 94.305965 142.241901 
L 93.655354 141.658161 
L 93.004744 141.074422 
L 92.354134 140.490682 
L 91.703523 139.906942 
L 91.052913 139.323203 
L 90.402303 138.739463 
L 89.751692 138.155723 
L 89.101082 137.571984 
L 88.450472 136.988244 
L 87.799862 136.404504 
L 87.149251 135.820765 
L 86.498641 135.237025 
L 85.848031 134.653286 
L 85.19742 134.069546 
L 84.54681 133.623579 
L 83.8962 133.635502 
L 83.245589 133.647425 
L 82.594979 133.659348 
L 81.944369 133.671272 
L 81.293758 133.683195 
L 80.643148 133.695118 
L 79.992538 133.707041 
L 79.341927 133.718965 
L 78.691317 133.730888 
L 78.040707 133.742811 
L 77.390097 133.754734 
L 76.739486 133.766658 
L 76.088876 133.778581 
L 75.438266 133.790504 
L 74.787655 134.104743 
L 74.137045 134.696323 
L 73.486435 135.287903 
L 72.835824 135.879483 
L 72.185214 136.471063 
L 71.534604 137.062644 
L 70.883993 137.654224 
L 70.233383 138.245804 
L 69.582773 138.837384 
L 68.932163 139.428964 
L 68.281552 140.020544 
L 67.630942 140.612124 
L 66.980332 141.203705 
L 66.329721 141.795285 
L 65.679111 142.386865 
L 65.028501 142.978445 
L 64.37789 143.539528 
L 63.72728 143.864788 
L 63.07667 144.190047 
L 62.426059 144.515306 
L 61.775449 144.840565 
L 61.124839 145.165825 
L 60.474228 145.491084 
L 59.823618 145.816343 
L 59.173008 146.141603 
L 58.522398 146.466862 
L 57.871787 146.792121 
L 57.221177 147.117381 
L 56.570567 147.44264 
L 55.919956 147.767899 
L 55.269346 148.093158 
L 54.618736 147.603976 
L 53.968125 147.090055 
L 53.317515 146.576134 
L 52.666905 146.062214 
L 52.016294 145.548293 
L 51.365684 145.034372 
L 50.715074 144.520452 
L 50.064463 144.006531 
L 49.413853 143.49261 
L 48.763243 142.978689 
L 48.112633 142.464769 
L 47.462022 141.950848 
L 46.811412 141.436927 
L 46.160802 140.923007 
L 45.510191 140.594382 
L 44.859581 140.304647 
L 44.208971 140.014912 
L 43.55836 139.725177 
L 42.90775 139.435442 
L 42.25714 139.145707 
L 41.606529 138.855972 
L 40.955919 138.566237 
L 40.305309 138.276502 
L 39.654698 137.986767 
L 39.004088 137.697032 
L 38.353478 137.407297 
L 37.702868 137.117562 
L 37.052257 136.827827 
L 36.401647 136.538092 
L 35.751037 136.248357 
L 35.100426 135.884576 
L 34.449816 135.418332 
L 33.799206 134.952088 
L 33.148595 134.485844 
L 32.497985 134.0196 
L 31.847375 133.553356 
L 31.196764 133.087112 
L 30.546154 132.620868 
L 29.895544 132.154624 
L 29.244934 131.68838 
L 28.594323 131.222136 
L 27.943713 130.755892 
L 27.293103 130.289648 
L 26.642492 129.823404 
L 25.991882 129.689573 
L 25.341272 130.429866 
L 24.690661 131.170158 
L 24.040051 131.91045 
L 23.389441 132.650743 
L 22.73883 133.391035 
L 22.08822 134.131328 
L 21.43761 134.87162 
L 20.786999 135.611913 
L 20.136389 136.352205 
L 19.485779 137.092497 
L 18.835169 137.83279 
L 18.184558 138.573082 
L 17.533948 139.313375 
L 16.883338 140.053667 
L 16.232727 140.79396 
z
" style="fill:#f15a24;fill-opacity:0.3;"/>
   </g>
   <g id="PathCollection_1">
    <defs>
     <path d="M 0 1.581139 
C 0.419323 1.581139 0.821528 1.41454 1.118034 1.118034 
C 1.41454 0.821528 1.581139 0.419323 1.581139 -0 
C 1.581139 -0.419323 1.41454 -0.821528 1.118034 -1.118034 
C 0.821528 -1.41454 0.419323 -1.581139 0 -1.581139 
C -0.419323 -1.581139 -0.821528 -1.41454 -1.118034 -1.118034 
C -1.41454 -0.821528 -1.581139 -0.419323 -1.581139 0 
C -1.581139 0.419323 -1.41454 0.821528 -1.118034 1.118034 
C -0.821528 1.41454 -0.419323 1.581139 0 1.581139 
z
" id="C0_0_3ce019ad01"/>
    </defs>
    <g clip-path="url(#pef950ca6d4)">
     <use style="fill:#008000;stroke:#008000;stroke-width:0.5;" x="16.232727" xlink:href="#C0_0_3ce019ad01" y="128.868795"/>
    </g>
    <g clip-path="url(#pef950ca6d4)">
     <use style="fill:#ff0000;stroke:#ff0000;stroke-width:0.5;" x="26.171132" xlink:href="#C0_0_3ce019ad01" y="129.485615"/>
    </g>
    <g clip-path="url(#pef950ca6d4)">
     <use style="fill:#008000;stroke:#008000;stroke-width:0.5;" x="35.373358" xlink:href="#C0_0_3ce019ad01" y="132.895912"/>
    </g>
    <g clip-path="url(#pef950ca6d4)">
     <use style="fill:#008000;stroke:#008000;stroke-width:0.5;" x="46.047941" xlink:href="#C0_0_3ce019ad01" y="131.950703"/>
    </g>
    <g clip-path="url(#pef950ca6d4)">
     <use style="fill:#008000;stroke:#008000;stroke-width:0.5;" x="55.250167" xlink:href="#C0_0_3ce019ad01" y="124.7225"/>
    </g>
    <g clip-path="url(#pef950ca6d4)">
     <use style="fill:#008000;stroke:#008000;stroke-width:0.5;" x="64.452393" xlink:href="#C0_0_3ce019ad01" y="133.903699"/>
    </g>
    <g clip-path="url(#pef950ca6d4)">
     <use style="fill:#ff0000;stroke:#ff0000;stroke-width:0.5;" x="75.126976" xlink:href="#C0_0_3ce019ad01" y="133.796209"/>
    </g>
    <g clip-path="url(#pef950ca6d4)">
     <use style="fill:#ff0000;stroke:#ff0000;stroke-width:0.5;" x="84.697291" xlink:href="#C0_0_3ce019ad01" y="133.620821"/>
    </g>
    <g clip-path="url(#pef950ca6d4)">
     <use style="fill:#008000;stroke:#008000;stroke-width:0.5;" x="95.371874" xlink:href="#C0_0_3ce019ad01" y="135.84178"/>
    </g>
    <g clip-path="url(#pef950ca6d4)">
     <use style="fill:#ff0000;stroke:#ff0000;stroke-width:0.5;" x="104.5741" xlink:href="#C0_0_3ce019ad01" y="132.969908"/>
    </g>
    <g clip-path="url(#pef950ca6d4)">
     <use style="fill:#ff0000;stroke:#ff0000;stroke-width:0.5;" x="113.776327" xlink:href="#C0_0_3ce019ad01" y="129.605132"/>
    </g>
    <g clip-path="url(#pef950ca6d4)">
     <use style="fill:#ff0000;stroke:#ff0000;stroke-width:0.5;" x="124.450909" xlink:href="#C0_0_3ce019ad01" y="122.501662"/>
    </g>
    <g clip-path="url(#pef950ca6d4)">
     <use style="fill:#ff0000;stroke:#ff0000;stroke-width:0.5;" x="133.653135" xlink:href="#C0_0_3ce019ad01" y="133.884783"/>
    </g>
    <g clip-path="url(#pef950ca6d4)">
     <use style="fill:#008000;stroke:#008000;stroke-width:0.5;" x="144.327718" xlink:href="#C0_0_3ce019ad01" y="129.432253"/>
    </g>
    <g clip-path="url(#pef950ca6d4)">
     <use style="fill:#ff0000;stroke:#ff0000;stroke-width:0.5;" x="153.529944" xlink:href="#C0_0_3ce019ad01" y="137.409345"/>
    </g>
    <g clip-path="url(#pef950ca6d4)">
     <use style="fill:#ffff00;stroke:#ffff00;stroke-width:0.5;" x="162.732171" xlink:href="#C0_0_3ce019ad01" y="134.333548"/>
    </g>
    <g clip-path="url(#pef950ca6d4)">
     <use style="fill:#ff0000;stroke:#ff0000;stroke-width:0.5;" x="173.406753" xlink:href="#C0_0_3ce019ad01" y="130.753313"/>
    </g>
    <g clip-path="url(#pef950ca6d4)">
     <use style="fill:#ff0000;stroke:#ff0000;stroke-width:0.5;" x="182.60898" xlink:href="#C0_0_3ce019ad01" y="122.590227"/>
    </g>
    <g clip-path="url(#pef950ca6d4)">
     <use style="fill:#ff0000;stroke:#ff0000;stroke-width:0.5;" x="193.651651" xlink:href="#C0_0_3ce019ad01" y="136.756379"/>
    </g>
    <g clip-path="url(#pef950ca6d4)">
     <use style="fill:#ff0000;stroke:#ff0000;stroke-width:0.5;" x="202.853878" xlink:href="#C0_0_3ce019ad01" y="128.977781"/>
    </g>
    <g clip-path="url(#pef950ca6d4)">
     <use style="fill:#ff0000;stroke:#ff0000;stroke-width:0.5;" x="212.056104" xlink:href="#C0_0_3ce019ad01" y="131.457059"/>
    </g>
    <g clip-path="url(#pef950ca6d4)">
     <use style="fill:#ff0000;stroke:#ff0000;stroke-width:0.5;" x="222.730686" xlink:href="#C0_0_3ce019ad01" y="133.608457"/>
    </g>
    <g clip-path="url(#pef950ca6d4)">
     <use style="fill:#ff0000;stroke:#ff0000;stroke-width:0.5;" x="231.932913" xlink:href="#C0_0_3ce019ad01" y="130.009968"/>
    </g>
    <g clip-path="url(#pef950ca6d4)">
     <use style="fill:#ffff00;stroke:#ffff00;stroke-width:0.5;" x="242.607495" xlink:href="#C0_0_3ce019ad01" y="130.818784"/>
    </g>
    <g clip-path="url(#pef950ca6d4)">
     <use style="fill:#ff0000;stroke:#ff0000;stroke-width:0.5;" x="251.809722" xlink:href="#C0_0_3ce019ad01" y="126.690166"/>
    </g>
    <g clip-path="url(#pef950ca6d4)">
     <use style="fill:#ff0000;stroke:#ff0000;stroke-width:0.5;" x="261.011948" xlink:href="#C0_0_3ce019ad01" y="126.549304"/>
    </g>
    <g clip-path="url(#pef950ca6d4)">
     <use style="fill:#ff0000;stroke:#ff0000;stroke-width:0.5;" x="271.686531" xlink:href="#C0_0_3ce019ad01" y="122.388661"/>
    </g>
    <g clip-path="url(#pef950ca6d4)">
     <use style="fill:#ff0000;stroke:#ff0000;stroke-width:0.5;" x="280.888757" xlink:href="#C0_0_3ce019ad01" y="126.859928"/>
    </g>
    <g clip-path="url(#pef950ca6d4)">
     <use style="fill:#ff0000;stroke:#ff0000;stroke-width:0.5;" x="291.56334" xlink:href="#C0_0_3ce019ad01" y="137.797415"/>
    </g>
    <g clip-path="url(#pef950ca6d4)">
     <use style="fill:#ff0000;stroke:#ff0000;stroke-width:0.5;" x="300.765566" xlink:href="#C0_0_3ce019ad01" y="130.030376"/>
    </g>
    <g clip-path="url(#pef950ca6d4)">
     <use style="fill:#ff0000;stroke:#ff0000;stroke-width:0.5;" x="310.335881" xlink:href="#C0_0_3ce019ad01" y="120.378195"/>
    </g>
    <g clip-path="url(#pef950ca6d4)">
     <use style="fill:#ff0000;stroke:#ff0000;stroke-width:0.5;" x="321.010464" xlink:href="#C0_0_3ce019ad01" y="135.247981"/>
    </g>
    <g clip-path="url(#pef950ca6d4)">
     <use style="fill:#ff0000;stroke:#ff0000;stroke-width:0.5;" x="330.21269" xlink:href="#C0_0_3ce019ad01" y="132.880227"/>
    </g>
    <g clip-path="url(#pef950ca6d4)">
     <use style="fill:#ff0000;stroke:#ff0000;stroke-width:0.5;" x="340.887273" xlink:href="#C0_0_3ce019ad01" y="132.861925"/>
    </g>
   </g>
   <g id="line2d_1">
    <path clip-path="url(#pef950ca6d4)" d="M 16.232727 128.868795 
L 25.991882 140.663964 
L 26.642492 140.471614 
L 35.100426 133.132732 
L 35.751037 132.862469 
L 46.160802 131.862052 
L 55.269346 124.741636 
L 66.980332 136.569486 
L 74.787655 144.802547 
L 75.438266 145.019753 
L 91.703523 137.55847 
L 94.956575 136.036129 
L 95.607185 136.08032 
L 104.065119 144.654311 
L 104.71573 145.128603 
L 113.824274 142.48045 
L 124.234039 146.352175 
L 124.884649 146.034363 
L 134.643804 137.185671 
L 143.752348 129.892922 
L 144.402959 129.530136 
L 153.511503 141.37976 
L 161.969437 147.294544 
L 162.620047 147.748672 
L 163.921268 147.759092 
L 173.680423 147.237467 
L 182.138357 147.841937 
L 182.788967 147.721738 
L 193.198732 138.824598 
L 193.849342 138.471372 
L 202.957887 139.988676 
L 212.066431 137.735131 
L 222.476196 149.404124 
L 223.126806 149.628908 
L 232.235351 148.278732 
L 243.295726 148.176332 
L 251.75366 149.187088 
L 254.356101 147.673771 
L 260.862204 143.790069 
L 261.512815 143.837886 
L 271.92258 146.577517 
L 281.031124 144.706774 
L 291.440889 139.269902 
L 292.091499 139.683719 
L 300.549433 147.334736 
L 301.200044 147.57717 
L 310.308588 148.560834 
L 313.56164 144.884723 
L 320.718353 136.722312 
L 321.368963 136.440955 
L 330.477508 137.651184 
L 340.887273 134.990481 
L 340.887273 134.990481 
" style="fill:none;stroke:#61c46e;stroke-linecap:square;"/>
   </g>
   <g id="line2d_2">
    <path clip-path="url(#pef950ca6d4)" d="M 16.232727 147.909699 
L 26.642492 147.277436 
L 35.100426 148.555144 
L 35.751037 148.461627 
L 46.160802 144.787394 
L 55.269346 144.737658 
L 64.37789 140.20356 
L 67.630942 139.704754 
L 74.787655 138.665163 
L 75.438266 138.762196 
L 84.54681 143.043695 
L 85.19742 142.899751 
L 94.956575 138.710681 
L 95.607185 138.555427 
L 104.71573 139.52573 
L 113.824274 145.518779 
L 124.234039 148.574298 
L 124.884649 148.499892 
L 133.342583 145.807674 
L 133.993194 145.744122 
L 144.402959 146.750996 
L 153.511503 138.775503 
L 162.620047 134.387474 
L 163.921268 134.920343 
L 173.680423 139.824438 
L 182.138357 146.722808 
L 182.788967 147.029589 
L 193.198732 142.572503 
L 193.849342 142.511806 
L 202.957887 148.577973 
L 212.066431 148.378182 
L 222.476196 134.611161 
L 223.126806 134.489987 
L 231.58474 139.089048 
L 232.235351 139.038688 
L 242.645116 130.863221 
L 251.75366 141.622279 
L 255.006712 143.645823 
L 260.862204 147.230787 
L 262.163425 147.45585 
L 271.92258 148.49158 
L 281.031124 145.859877 
L 291.440889 140.630603 
L 293.39272 140.458308 
L 300.549433 140.024916 
L 301.200044 140.403101 
L 310.308588 148.605899 
L 312.911029 147.980295 
L 320.718353 146.009071 
L 322.019574 146.049148 
L 330.477508 147.041498 
L 340.887273 149.720045 
L 340.887273 149.720045 
" style="fill:none;stroke:#f6ed22;stroke-linecap:square;"/>
   </g>
   <g id="line2d_3">
    <path clip-path="url(#pef950ca6d4)" d="M 16.232727 140.79396 
L 25.991882 129.689573 
L 26.642492 129.823404 
L 35.751037 136.248357 
L 46.160802 140.923007 
L 55.269346 148.093158 
L 64.37789 143.539528 
L 67.630942 140.612124 
L 74.787655 134.104743 
L 75.438266 133.790504 
L 84.54681 133.623579 
L 85.19742 134.069546 
L 94.956575 142.82564 
L 95.607185 142.936704 
L 104.71573 132.918122 
L 113.824274 129.573225 
L 124.234039 122.64598 
L 124.884649 123.038197 
L 133.342583 133.500631 
L 133.993194 134.121751 
L 144.402959 141.291318 
L 153.511503 137.417188 
L 163.270658 135.176963 
L 173.029812 130.91782 
L 173.680423 130.510547 
L 182.138357 123.007706 
L 182.788967 122.821125 
L 193.198732 136.17535 
L 193.849342 136.589272 
L 202.957887 129.005803 
L 213.367652 131.721394 
L 222.476196 133.557166 
L 223.126806 133.453556 
L 231.58474 130.146119 
L 232.235351 130.255033 
L 242.645116 138.61065 
L 251.75366 126.763086 
L 253.054881 126.671106 
L 260.862204 126.551596 
L 262.814035 125.846903 
L 271.271969 122.550245 
L 271.92258 122.503355 
L 281.031124 127.005801 
L 291.440889 137.671949 
L 292.091499 137.351627 
L 301.200044 129.592182 
L 310.308588 120.405722 
L 312.260419 123.059093 
L 320.718353 134.841068 
L 321.368963 135.155738 
L 330.477508 132.879773 
L 340.887273 132.861925 
L 340.887273 132.861925 
" style="fill:none;stroke:#f15a24;stroke-linecap:square;"/>
   </g>
  </g>
 </g>
 <defs>
  <clipPath id="pef950ca6d4">
   <rect height="266.112" width="357.12" x="0" y="-0"/>
  </clipPath>
 </defs>
</svg>
